<svg xmlns="http://www.w3.org/2000/svg" viewBox="0 0 48 48"><g fill="#FFF"><path d="M9.5 44h29c.275 0 .5-.225.5-.5V14h-8.5c-.827 0-1.5-.673-1.5-1.5V4H9.5c-.275 0-.5.225-.5.5v39c0 .275.225.5.5.5z"/><path d="M38.293 13L30 4.707V12.5c0 .275.225.5.5.5h7.793z"/></g><path opacity=".64" fill="#605E5C" d="M39.56 12.854l-9.414-9.415A1.51 1.51 0 0 0 29.086 3H9.5C8.673 3 8 3.673 8 4.5v39c0 .827.673 1.5 1.5 1.5h29c.827 0 1.5-.673 1.5-1.5V13.914c0-.4-.156-.777-.44-1.06zM30 4.707L38.293 13H30.5a.501.501 0 0 1-.5-.5V4.707zM38.5 44h-29a.501.501 0 0 1-.5-.5v-39c0-.275.225-.5.5-.5H29v8.5c0 .827.673 1.5 1.5 1.5H39v29.5c0 .275-.225.5-.5.5z"/><path fill="#FFF" stroke="#69AFE5" stroke-miterlimit="10" d="M16.702 23.5H8.5a1 1 0 0 0-1 1v19a1 1 0 0 0 1 1h31a1 1 0 0 0 1-1v-8a1 1 0 0 0-1-1h-7.663a1 1 0 0 1-.605-.204L17.26 23.67a1 1 0 0 0-.558-.17z"/><path fill="#C8C6C4" d="M18.556 38h-7.112c-.245 0-.444-.224-.444-.5s.199-.5.444-.5h7.111c.246 0 .445.224.445.5s-.199.5-.444.5zM16.556 41h-5.112c-.245 0-.444-.224-.444-.5s.199-.5.444-.5h5.111c.246 0 .445.224.445.5s-.199.5-.444.5z"/></svg>