<svg xmlns="http://www.w3.org/2000/svg" viewBox="0 0 48 48"><path fill="#FFB900" d="M22 12l-1.828-1.828A4 4 0 0 0 17.343 9H5.5A2.5 2.5 0 0 0 3 11.5v25A2.5 2.5 0 0 0 5.5 39h37a2.5 2.5 0 0 0 2.5-2.5v-22a2.5 2.5 0 0 0-2.5-2.5H22z"/><path fill="#FFD75E" d="M22 12l-1.975 1.975A3.5 3.5 0 0 1 17.55 15H3v21.5A2.5 2.5 0 0 0 5.5 39h37a2.5 2.5 0 0 0 2.5-2.5v-22a2.5 2.5 0 0 0-2.5-2.5H22z"/><linearGradient id="a" gradientUnits="userSpaceOnUse" x1="24" y1="12" x2="24" y2="39"><stop offset="0" stop-color="#fff" stop-opacity="0"/><stop offset=".999" stop-color="#ffd75e" stop-opacity=".3"/></linearGradient><path fill="url(#a)" d="M22 12l-1.828 1.828A4 4 0 0 1 17.343 15H3v21.5A2.5 2.5 0 0 0 5.5 39h37a2.5 2.5 0 0 0 2.5-2.5v-22a2.5 2.5 0 0 0-2.5-2.5H22z"/><path opacity=".4" fill="#FFF" d="M22 12l-1.828 1.828A4 4 0 0 1 17.343 15H3v1h14.636a4.5 4.5 0 0 0 3.182-1.318L23.5 12H22z"/><path fill="#E67628" d="M5 38a2.971 2.971 0 0 1-1.84-.647A2.493 2.493 0 0 0 5.5 39h37c1.08 0 1.991-.689 2.34-1.647-.509.399-1.142.647-1.84.647H5z"/><g><path fill="#BF5712" d="M40.994 33.9h-8.952V22.024h5.452l3.5 2.877V33.9zm-8.163-.8h7.374v-7.817l-2.99-2.459H32.83V33.1z"/><path fill="#BF5712" d="M37 25.984l.01-3.474.788.004-.009 2.536 2.78-.02.005.928z"/></g></svg>