<svg xmlns="http://www.w3.org/2000/svg" viewBox="0 0 48 48"><g fill="#FFF"><path d="M9.5 44h29c.275 0 .5-.225.5-.5V14h-8.5c-.827 0-1.5-.673-1.5-1.5V4H9.5c-.275 0-.5.225-.5.5v39c0 .275.225.5.5.5z"/><path d="M38.293 13L30 4.707V12.5c0 .275.225.5.5.5h7.793z"/></g><path opacity=".64" fill="#605E5C" d="M39.56 12.854l-9.414-9.415A1.51 1.51 0 0 0 29.086 3H9.5C8.673 3 8 3.673 8 4.5v39c0 .827.673 1.5 1.5 1.5h29c.827 0 1.5-.673 1.5-1.5V13.914c0-.4-.156-.777-.44-1.06zM30 4.707L38.293 13H30.5a.501.501 0 0 1-.5-.5V4.707zM38.5 44h-29a.501.501 0 0 1-.5-.5v-39c0-.275.225-.5.5-.5H29v8.5c0 .827.673 1.5 1.5 1.5H39v29.5c0 .275-.225.5-.5.5z"/><path fill="#FF5C0D" d="M27.127 30.799H18.8l-1.46 3.394c-.359.836-.539 1.46-.539 1.872 0 .328.156.616.468.864.312.249.986.41 2.023.484V38h-6.773v-.587c.898-.158 1.48-.365 1.745-.618.539-.508 1.136-1.54 1.792-3.094L23.622 16h.555l7.487 17.892c.603 1.438 1.15 2.371 1.641 2.8.492.428 1.177.668 2.054.721V38h-8.485v-.587c.856-.042 1.435-.185 1.736-.428.302-.243.452-.54.452-.888 0-.466-.211-1.2-.634-2.205l-1.3-3.093zm-.444-1.174l-3.648-8.692-3.743 8.692h7.391z"/></svg>