<svg xmlns="http://www.w3.org/2000/svg" viewBox="0 0 48 48"><path fill="#FFB900" d="M22 12l-1.828-1.828A4 4 0 0 0 17.343 9H5.5A2.5 2.5 0 0 0 3 11.5v25A2.5 2.5 0 0 0 5.5 39h37a2.5 2.5 0 0 0 2.5-2.5v-22a2.5 2.5 0 0 0-2.5-2.5H22z"/><path fill="#FFD75E" d="M22 12l-1.975 1.975A3.5 3.5 0 0 1 17.55 15H3v21.5A2.5 2.5 0 0 0 5.5 39h37a2.5 2.5 0 0 0 2.5-2.5v-22a2.5 2.5 0 0 0-2.5-2.5H22z"/><linearGradient id="a" gradientUnits="userSpaceOnUse" x1="24" y1="12" x2="24" y2="39"><stop offset="0" stop-color="#fff" stop-opacity="0"/><stop offset=".999" stop-color="#ffd75e" stop-opacity=".3"/></linearGradient><path fill="url(#a)" d="M22 12l-1.828 1.828A4 4 0 0 1 17.343 15H3v21.5A2.5 2.5 0 0 0 5.5 39h37a2.5 2.5 0 0 0 2.5-2.5v-22a2.5 2.5 0 0 0-2.5-2.5H22z"/><path opacity=".4" fill="#FFF" d="M22 12l-1.828 1.828A4 4 0 0 1 17.343 15H3v1h14.636a4.5 4.5 0 0 0 3.182-1.318L23.5 12H22z"/><path fill="#E67628" d="M5 38a2.971 2.971 0 0 1-1.84-.647A2.493 2.493 0 0 0 5.5 39h37c1.08 0 1.991-.689 2.34-1.647-.509.399-1.142.647-1.84.647H5z"/><g><path fill="#BF5712" d="M33.531 31.917v-.982c.355 0 1.448-.045 1.773-.134.326-.09.612-.234.86-.43.248-.197.445-.45.592-.76.148-.31.221-.687.221-1.132 0-.337-.06-.654-.179-.951a2.533 2.533 0 0 0-.484-.778 2.32 2.32 0 0 0-.711-.531 1.996 1.996 0 0 0-.87-.195h-3.591c-.309 0-.599.066-.87.195a2.321 2.321 0 0 0-.712.53 2.532 2.532 0 0 0-.484.779 2.53 2.53 0 0 0-.178.951c0 .445.073.822.22 1.131.148.31.345.564.593.761.248.196.534.34.86.43.325.089.665.134 1.02.134v.982h-.449a2.82 2.82 0 0 1-1.224-.272 3.215 3.215 0 0 1-.996-.737 3.598 3.598 0 0 1-.922-2.43 3.596 3.596 0 0 1 .922-2.428c.283-.309.615-.555.996-.737.381-.18.79-.271 1.224-.271h3.591c.435 0 .843.09 1.224.271.381.182.713.428.996.737a3.596 3.596 0 0 1 .922 2.43 3.596 3.596 0 0 1-.922 2.428c-.283.31-.615.555-.996.737-.381.18-.79.272-1.224.272h-1.202zM38.394 28v.982c.357 0 .698.045 1.025.134.326.09.614.233.863.43.249.197.447.45.595.76.148.31.222.686.222 1.131 0 .338-.06.655-.18.952a2.53 2.53 0 0 1-.486.778 2.33 2.33 0 0 1-.715.53 2.01 2.01 0 0 1-.873.196h-3.606a2.01 2.01 0 0 1-.874-.195 2.33 2.33 0 0 1-.715-.53 2.531 2.531 0 0 1-.486-.78 2.52 2.52 0 0 1-.18-.95c0-.446.075-.823.223-1.132.148-.31.346-.563.595-.76.249-.197.536-.34.863-.43.326-.089 1.29-.134 1.648-.134V28h-1.074c-.437 0-.846.091-1.23.272a3.228 3.228 0 0 0-1 .736 3.582 3.582 0 0 0-.926 2.43 3.583 3.583 0 0 0 .927 2.429c.284.309.617.554 1 .736.383.181.792.272 1.229.272h3.606c.437 0 .846-.09 1.229-.272a3.228 3.228 0 0 0 1-.736 3.582 3.582 0 0 0 .926-2.43 3.583 3.583 0 0 0-.926-2.429 3.228 3.228 0 0 0-1-.736 2.84 2.84 0 0 0-1.23-.272h-.45z"/></g></svg>