<svg xmlns="http://www.w3.org/2000/svg" viewBox="0 0 48 48"><g fill="#FFF"><path d="M5 14h38v-3.5c0-.275-.225-.5-.5-.5h-37c-.275 0-.5.225-.5.5V14zM5.5 38h37c.275 0 .5-.225.5-.5V15H5v22.5c0 .275.225.5.5.5z"/></g><path opacity=".64" fill="#605E5C" d="M42.5 9h-37C4.673 9 4 9.673 4 10.5v27c0 .827.673 1.5 1.5 1.5h37c.827 0 1.5-.673 1.5-1.5v-27c0-.827-.673-1.5-1.5-1.5zm-37 1h37c.275 0 .5.225.5.5V14H5v-3.5c0-.275.225-.5.5-.5zm37 28h-37a.501.501 0 0 1-.5-.5V15h38v22.5c0 .275-.225.5-.5.5z"/><circle fill="#C8C6C4" cx="8" cy="12" r="1"/><circle fill="#C8C6C4" cx="11" cy="12" r="1"/><circle fill="#C8C6C4" cx="14" cy="12" r="1"/><g fill="none" stroke="#69AFE5" stroke-miterlimit="10"><circle cx="24" cy="26" r="7.5"/><ellipse cx="24" cy="26" rx="2.5" ry="7.5"/><path d="M17 23.5h14M17 28.5h14"/></g></svg>