<svg xmlns="http://www.w3.org/2000/svg" viewBox="0 0 48 48"><path fill="#FFF" d="M38.293 13L30 4.707V12.5a.5.5 0 0 0 .5.5h7.793zM9.5 44h26a.5.5 0 0 0 .5-.5V42H12.5c-.827 0-1.5-.673-1.5-1.5V7H9.5a.5.5 0 0 0-.5.5v36a.5.5 0 0 0 .5.5z"/><path fill="#FFF" d="M39 40.5V14h-8.5c-.827 0-1.5-.673-1.5-1.5V4H12.5a.5.5 0 0 0-.5.5v36a.5.5 0 0 0 .5.5h26a.5.5 0 0 0 .5-.5z"/><path opacity=".64" fill="#605E5C" d="M39.56 12.854l-9.414-9.415A1.51 1.51 0 0 0 29.086 3H12.5c-.827 0-1.5.673-1.5 1.5V6H9.5C8.673 6 8 6.673 8 7.5v36c0 .827.673 1.5 1.5 1.5h26c.827 0 1.5-.673 1.5-1.5V42h1.5c.827 0 1.5-.673 1.5-1.5V13.914c0-.4-.156-.777-.44-1.06zM30 4.707L38.293 13H30.5a.5.5 0 0 1-.5-.5V4.707zM36 43.5a.5.5 0 0 1-.5.5h-26a.5.5 0 0 1-.5-.5v-36a.5.5 0 0 1 .5-.5H11v33.5c0 .827.673 1.5 1.5 1.5H36v1.5zm2.5-2.5h-26a.5.5 0 0 1-.5-.5v-36a.5.5 0 0 1 .5-.5H29v8.5c0 .827.673 1.5 1.5 1.5H39v26.5a.5.5 0 0 1-.5.5z"/></svg>