<svg xmlns="http://www.w3.org/2000/svg" viewBox="0 0 48 48"><path fill="#FFF" d="M9.5 44h29c.275 0 .5-.225.5-.5V14h-8.5c-.827 0-1.5-.673-1.5-1.5V4H9.5c-.275 0-.5.225-.5.5v39c0 .275.225.5.5.5z"/><path fill="#FFF" d="M38.293 13L30 4.707V12.5c0 .275.225.5.5.5h7.793z"/><path opacity=".64" fill="#605E5C" d="M39.56 12.854l-9.414-9.415A1.51 1.51 0 0 0 29.086 3H9.5C8.673 3 8 3.673 8 4.5v39c0 .827.673 1.5 1.5 1.5h29c.827 0 1.5-.673 1.5-1.5V13.914c0-.4-.156-.777-.44-1.06zM30 4.707L38.293 13H30.5a.501.501 0 0 1-.5-.5V4.707zM38.5 44h-29a.501.501 0 0 1-.5-.5v-39c0-.275.225-.5.5-.5H29v8.5c0 .827.673 1.5 1.5 1.5H39v29.5c0 .275-.225.5-.5.5z"/><path fill="#C8C6C4" d="M35.5 18h-23a.5.5 0 0 1 0-1h23a.5.5 0 0 1 0 1zM35.5 21h-23a.5.5 0 0 1 0-1h23a.5.5 0 0 1 0 1zM35.5 24h-23a.5.5 0 0 1 0-1h23a.5.5 0 0 1 0 1zM35.5 27h-23a.5.5 0 0 1 0-1h23a.5.5 0 0 1 0 1z"/><path fill="none" stroke="#D65532" stroke-width="2" stroke-linecap="round" stroke-linejoin="round" stroke-miterlimit="10" d="M28 41h-8a2 2 0 0 1-2-2v-6a2 2 0 0 1 2-2h8a2 2 0 0 1 2 2v6a2 2 0 0 1-2 2z"/><path fill="#D65532" d="M8 40h6.75a.25.25 0 0 0 .25-.25v-6.5a.25.25 0 0 0-.25-.25H8a1 1 0 0 0-1 1v5a1 1 0 0 0 1 1zM40 33h-6.75a.25.25 0 0 0-.25.25v6.5c0 .138.112.25.25.25H40a1 1 0 0 0 1-1v-5a1 1 0 0 0-1-1z"/></svg>