<svg xmlns="http://www.w3.org/2000/svg" viewBox="0 0 48 48"><g fill="#FFF"><path d="M41 40.5c0 .827-.673 1.5-1.5 1.5H16v1.5a.5.5 0 0 0 .5.5h26a.5.5 0 0 0 .5-.5v-36h.5V7l-3-2v3.5h.5v32z"/><path d="M13.5 41h26a.5.5 0 0 0 .5-.5v-32H13v32a.5.5 0 0 0 .5.5z"/></g><path opacity=".64" fill="#605E5C" d="M43 8v35.5a.5.5 0 0 1-.5.5h-26a.5.5 0 0 1-.5-.5V42h23.5c.827 0 1.5-.673 1.5-1.5v-32h-1v32a.5.5 0 0 1-.5.5h-26a.5.5 0 0 1-.5-.5v-32h-1v32c0 .827.673 1.5 1.5 1.5H15v1.5c0 .827.673 1.5 1.5 1.5h26c.827 0 1.5-.673 1.5-1.5V8h-1z"/><path fill="#FF8F6B" d="M41 3.097A.991.991 0 0 0 40.586 3H13a1 1 0 0 0-1 1v4l.5.5h28L41 8V6.75l.5-.5V4.5L41 3.097z"/><path fill="#ED6C47" d="M12 8h29v1H12zM41.853 6.854L44 9V6.414a1 1 0 0 0-.293-.707l-2.414-2.414A.997.997 0 0 0 41 3.097v4.11a.5.5 0 0 1 .853-.353zM31 25l-1-1h-1l-1 1v6.5a6.5 6.5 0 0 0 9-6V25h-6z"/><path fill="#FF8F6B" d="M30.5 19c-.887 0-1.73.18-2.5.503V25h3v-6h-.5z"/><path fill="#FFC7B5" d="M33 17v6h6a6 6 0 0 0-6-6z"/><g><path fill="#C43E1C" d="M6 37h18a2 2 0 0 0 2-2V17a2 2 0 0 0-2-2H6a2 2 0 0 0-2 2v18a2 2 0 0 0 2 2z"/><path fill="#F9F7F7" d="M15.668 20c1.4 0 2.473.32 3.216.962.745.642 1.116 1.571 1.116 2.787 0 .78-.184 1.476-.551 2.084-.368.608-.892 1.08-1.57 1.418-.679.338-1.464.506-2.359.506H13.29V32H11V20h4.668zm-2.379 5.925h1.97c.77 0 1.349-.177 1.741-.532s.589-.871.589-1.552c0-1.322-.752-1.983-2.256-1.983h-2.044v4.067z"/></g></svg>