<svg xmlns="http://www.w3.org/2000/svg" viewBox="0 0 48 48"><g fill="#FFF"><path d="M13.5 44h29c.275 0 .5-.225.5-.5V14h-8.5c-.827 0-1.5-.673-1.5-1.5V4H13.5c-.275 0-.5.225-.5.5v39c0 .275.225.5.5.5z"/><path d="M42.293 13L34 4.707V12.5c0 .275.225.5.5.5h7.793z"/></g><path opacity=".64" fill="#605E5C" d="M43.56 12.854l-9.414-9.415A1.51 1.51 0 0 0 33.086 3H13.5c-.827 0-1.5.673-1.5 1.5v39c0 .827.673 1.5 1.5 1.5h29c.827 0 1.5-.673 1.5-1.5V13.914c0-.4-.156-.777-.44-1.06zM34 4.707L42.293 13H34.5a.501.501 0 0 1-.5-.5V4.707zM42.5 44h-29a.501.501 0 0 1-.5-.5v-39c0-.275.225-.5.5-.5H33v8.5c0 .827.673 1.5 1.5 1.5H43v29.5c0 .275-.225.5-.5.5z"/><path fill="none" stroke="#C8C6C4" stroke-miterlimit="10" d="M26.5 27.5l2.999-4.546M32.563 23.012l3.406 5.101"/><circle fill="none" stroke="#C8C6C4" stroke-miterlimit="10" cx="25.589" cy="29.862" r="2.138"/><circle fill="none" stroke="#C8C6C4" stroke-miterlimit="10" cx="37.188" cy="29.862" r="2.138"/><circle fill="none" stroke="#C8C6C4" stroke-miterlimit="10" cx="31.118" cy="21.138" r="2.138"/><path fill="#C8C6C4" d="M39.5 38h-23a.5.5 0 1 0 0 1h23a.5.5 0 1 0 0-1zM39.5 35h-23a.5.5 0 1 0 0 1h23a.5.5 0 1 0 0-1z"/><path fill="#F2C80F" d="M6 37h18a2 2 0 0 0 2-2V17a2 2 0 0 0-2-2H6a2 2 0 0 0-2 2v18a2 2 0 0 0 2 2z"/><path fill="#333" d="M13 22a1 1 0 0 0-1 1v9a1 1 0 1 0 2 0v-9a1 1 0 0 0-1-1zM9 28a1 1 0 0 0-1 1v3a1 1 0 1 0 2 0v-3a1 1 0 0 0-1-1zM17 24a1 1 0 0 0-1 1v7a1 1 0 1 0 2 0v-7a1 1 0 0 0-1-1zM20.998 19c-.553 0-.951.448-.951 1v12c0 .552.398 1 .95 1a1 1 0 0 0 1-1V20a1 1 0 0 0-1-1z"/></svg>