<svg xmlns="http://www.w3.org/2000/svg" viewBox="0 0 48 48"><g fill="#FFF"><path d="M42.524 38a.489.489 0 0 0 .476-.5V20h-8.28c-.814 0-1.476-.673-1.476-1.5V10H5.454a.489.489 0 0 0-.477.5v27c0 .276.213.5.476.5h37.071z"/><path d="M42.313 19l-8.069-8.271V18.5c0 .276.213.5.476.5h7.593z"/></g><path opacity=".64" fill="#605E5C" d="M43.572 18.858l-9.179-9.415A1.458 1.458 0 0 0 33.346 9H5.475C4.662 9 4 9.673 4 10.5v27c0 .827.662 1.5 1.475 1.5h37.05c.813 0 1.475-.673 1.475-1.5V19.914a1.5 1.5 0 0 0-.428-1.056zM34 10.728L42.069 19h-7.593a.489.489 0 0 1-.476-.5v-7.771zM42.513 38H5.47c-.26 0-.471-.224-.471-.5v-27c0-.276.21-.5.471-.5H33v8.5c0 .827.679 1.5 1.512 1.5H43v17.5c0 .276-.218.5-.487.5z"/><g fill="#C8C6C4"><path d="M17.5 22h-10a.5.5 0 0 1 0-1h10a.5.5 0 0 1 0 1zM17.5 19h-10a.5.5 0 0 1 0-1h10a.5.5 0 0 1 0 1zM17.5 25h-10a.5.5 0 0 1 0-1h10a.5.5 0 0 1 0 1zM17.5 28h-10a.5.5 0 0 1 0-1h10a.5.5 0 0 1 0 1zM17.5 31h-10a.5.5 0 0 1 0-1h10a.5.5 0 0 1 0 1zM17.5 34h-10a.5.5 0 0 1 0-1h10a.5.5 0 0 1 0 1z"/></g><path fill="#B7472A" d="M29 19a5 5 0 0 1 5 5h-5v-5z"/><path fill="#C8C6C4" d="M34 26a7.002 7.002 0 0 1-7.797 6.956c-3.202-.354-5.805-2.957-6.159-6.159A7.002 7.002 0 0 1 27 19v7h7z"/></svg>