<svg xmlns="http://www.w3.org/2000/svg" viewBox="0 0 48 48"><path fill="#FFB900" d="M22 12l-1.828-1.828A4 4 0 0 0 17.343 9H5.5A2.5 2.5 0 0 0 3 11.5v25A2.5 2.5 0 0 0 5.5 39h37a2.5 2.5 0 0 0 2.5-2.5v-22a2.5 2.5 0 0 0-2.5-2.5H22z"/><path fill="#FFD75E" d="M22 12l-1.975 1.975A3.5 3.5 0 0 1 17.55 15H3v21.5A2.5 2.5 0 0 0 5.5 39h37a2.5 2.5 0 0 0 2.5-2.5v-22a2.5 2.5 0 0 0-2.5-2.5H22z"/><linearGradient id="a" gradientUnits="userSpaceOnUse" x1="24" y1="12" x2="24" y2="39"><stop offset="0" stop-color="#fff" stop-opacity="0"/><stop offset=".999" stop-color="#ffd75e" stop-opacity=".3"/></linearGradient><path fill="url(#a)" d="M22 12l-1.828 1.828A4 4 0 0 1 17.343 15H3v21.5A2.5 2.5 0 0 0 5.5 39h37a2.5 2.5 0 0 0 2.5-2.5v-22a2.5 2.5 0 0 0-2.5-2.5H22z"/><path opacity=".4" fill="#FFF" d="M22 12l-1.828 1.828A4 4 0 0 1 17.343 15H3v1h14.636a4.5 4.5 0 0 0 3.182-1.318L23.5 12H22z"/><path fill="#E67628" d="M5 38a2.971 2.971 0 0 1-1.84-.647A2.493 2.493 0 0 0 5.5 39h37c1.08 0 1.991-.689 2.34-1.647-.509.399-1.142.647-1.84.647H5z"/><g><path fill="#BF5712" d="M40.464 34.985a.495.495 0 0 1-.353-.146L29.123 23.894a.5.5 0 1 1 .705-.708L40.816 34.13a.5.5 0 0 1-.352.854zM34.813 26.232l2.743-2.744.707.707-2.743 2.744z"/><path fill="#BF5712" d="M29.516 34.985a.5.5 0 0 1-.486-.621l.75-3a.502.502 0 0 1 .132-.233l3.716-3.716.707.707-3.618 3.618-.514 2.058 2.057-.515 3.536-3.536.707.707-3.634 3.634a.502.502 0 0 1-.233.132l-3 .75a.489.489 0 0 1-.12.015z"/><path fill="#BF5712" d="M32.2 33.69c-.357-1.4-1.895-1.891-1.91-1.896l.29-.957c.084.026 2.09.65 2.589 2.606l-.969.247zM37.193 28.35l2.612-2.613.707.708-2.612 2.612zM40.513 26.444l-.707-.707a1.092 1.092 0 0 0-1.543-1.543l-.707-.707a2.093 2.093 0 0 1 2.957 0 2.092 2.092 0 0 1 0 2.957z"/><path fill="#BF5712" d="M36.896 24.854l.707-.707 2.25 2.25-.707.707z"/></g></svg>