<svg xmlns="http://www.w3.org/2000/svg" viewBox="0 0 48 48"><path fill="#FFB900" d="M22 12l-1.828-1.828A4 4 0 0 0 17.343 9H5.5A2.5 2.5 0 0 0 3 11.5v25A2.5 2.5 0 0 0 5.5 39h37a2.5 2.5 0 0 0 2.5-2.5v-22a2.5 2.5 0 0 0-2.5-2.5H22z"/><path fill="#FFD75E" d="M22 12l-1.975 1.975A3.5 3.5 0 0 1 17.55 15H3v21.5A2.5 2.5 0 0 0 5.5 39h37a2.5 2.5 0 0 0 2.5-2.5v-22a2.5 2.5 0 0 0-2.5-2.5H22z"/><linearGradient id="a" gradientUnits="userSpaceOnUse" x1="24" y1="12" x2="24" y2="39"><stop offset="0" stop-color="#fff" stop-opacity="0"/><stop offset=".999" stop-color="#ffd75e" stop-opacity=".3"/></linearGradient><path fill="url(#a)" d="M22 12l-1.828 1.828A4 4 0 0 1 17.343 15H3v21.5A2.5 2.5 0 0 0 5.5 39h37a2.5 2.5 0 0 0 2.5-2.5v-22a2.5 2.5 0 0 0-2.5-2.5H22z"/><path opacity=".4" fill="#FFF" d="M22 12l-1.828 1.828A4 4 0 0 1 17.343 15H3v1h14.636a4.5 4.5 0 0 0 3.182-1.318L23.5 12H22z"/><path fill="#E67628" d="M5 38a2.971 2.971 0 0 1-1.84-.647A2.493 2.493 0 0 0 5.5 39h37c1.08 0 1.991-.689 2.34-1.647-.509.399-1.142.647-1.84.647H5z"/><g><path fill="#BF5712" d="M39.586 28.06a3.033 3.033 0 0 1 1.664 2.69h-.75c0-.309-.06-.6-.179-.873s-.28-.512-.483-.715-.442-.364-.715-.483-.564-.179-.873-.179-.6.06-.873.179-.512.28-.715.483-.364.441-.483.715-.179.564-.179.873c0 .355-.081.693-.243 1.014s-.386.586-.671.797a3.033 3.033 0 0 1 1.664 2.689H36c0-.309-.06-.6-.179-.873s-.28-.512-.483-.715-.442-.364-.715-.483S34.06 33 33.75 33s-.6.06-.873.179-.512.28-.715.483-.364.442-.483.715-.179.564-.179.873h-.75c0-.285.04-.561.117-.83s.19-.517.334-.75.32-.442.525-.632.434-.348.688-.477c-.285-.211-.509-.477-.67-.797a2.228 2.228 0 0 1-.065-1.887c.119-.273.28-.512.483-.715s.442-.364.715-.483.564-.179.873-.179c.355 0 .693.081 1.014.243s.586.386.797.671a3.056 3.056 0 0 1 1.353-1.354c-.285-.21-.509-.476-.67-.796a2.228 2.228 0 0 1-.065-1.887c.119-.273.28-.512.483-.715s.442-.364.715-.483.564-.179.873-.179.6.06.873.179.512.28.715.483.364.441.483.715.179.564.179.873c0 .355-.081.693-.243 1.014s-.386.586-.671.797zm-5.836 4.19c.203 0 .397-.04.58-.12s.343-.188.478-.322.242-.293.322-.475.12-.376.12-.583c0-.203-.04-.397-.12-.58s-.188-.343-.322-.478-.294-.242-.478-.322-.377-.12-.58-.12c-.207 0-.401.04-.583.12s-.34.188-.475.322-.242.294-.322.478-.12.377-.12.58c0 .207.04.401.12.583s.188.34.322.475.293.242.475.322.376.12.583.12zm3-6c0 .207.04.401.12.583s.188.34.322.475.293.242.475.322.376.12.583.12c.203 0 .397-.04.58-.12s.343-.188.478-.322.242-.293.322-.475.12-.376.12-.583c0-.203-.04-.397-.12-.58s-.188-.343-.322-.478-.294-.242-.478-.322-.377-.12-.58-.12c-.207 0-.401.04-.583.12s-.34.188-.475.322-.242.294-.322.478-.12.377-.12.58z"/></g></svg>