<svg xmlns="http://www.w3.org/2000/svg" viewBox="0 0 48 48"><g fill="#FFF"><path d="M13.5 44h29c.275 0 .5-.225.5-.5V14h-8.5c-.827 0-1.5-.673-1.5-1.5V4H13.5c-.275 0-.5.225-.5.5v39c0 .275.225.5.5.5z"/><path d="M42.293 13L34 4.707V12.5c0 .275.225.5.5.5h7.793z"/></g><path opacity=".64" fill="#605E5C" d="M43.56 12.854l-9.414-9.415A1.51 1.51 0 0 0 33.086 3H13.5c-.827 0-1.5.673-1.5 1.5v39c0 .827.673 1.5 1.5 1.5h29c.827 0 1.5-.673 1.5-1.5V13.914c0-.4-.156-.777-.44-1.06zM34 4.707L42.293 13H34.5a.501.501 0 0 1-.5-.5V4.707zM42.5 44h-29a.501.501 0 0 1-.5-.5v-39c0-.275.225-.5.5-.5H33v8.5c0 .827.673 1.5 1.5 1.5H43v29.5c0 .275-.225.5-.5.5z"/><path fill="#03787C" d="M6 37h18a2 2 0 0 0 2-2V17a2 2 0 0 0-2-2H6a2 2 0 0 0-2 2v18a2 2 0 0 0 2 2z"/><path fill="#FFF" d="M11.596 25.755c-.518-.343-.918-.749-1.196-1.219-.278-.468-.416-1.024-.416-1.665 0-.856.258-1.575.774-2.157s1.203-1.013 2.06-1.294c.855-.28 1.793-.42 2.813-.42 1.562 0 2.797.167 3.706.5v2.52a5.91 5.91 0 0 0-1.677-.66 8.434 8.434 0 0 0-1.96-.227c-.811 0-1.483.137-2.015.412-.534.272-.8.662-.8 1.165 0 .315.114.59.338.826.227.237.53.445.913.628.382.182.952.425 1.71.727.131.044.213.075.246.094.895.353 1.614.695 2.157 1.024.542.332.967.744 1.274 1.238s.46 1.115.46 1.864c0 .919-.241 1.667-.725 2.246s-1.13.998-1.94 1.256c-.811.258-1.733.387-2.766.387-.882 0-1.717-.066-2.505-.198-.788-.132-1.465-.321-2.034-.567v-2.662c.556.397 1.242.711 2.06.944s1.571.35 2.264.35c.908 0 1.592-.14 2.054-.421.46-.28.69-.675.69-1.184 0-.346-.129-.649-.387-.907s-.614-.497-1.067-.717c-.456-.22-1.127-.51-2.016-.869-.823-.333-1.494-.67-2.015-1.014z"/><g><path fill="#036C70" d="M39.444 30h-7.888c-.308 0-.556.224-.556.5s.248.5.556.5h7.888c.307 0 .556-.224.556-.5s-.248-.5-.556-.5z"/><path fill="#038387" d="M39.444 27h-7.888c-.308 0-.556.224-.556.5s.248.5.556.5h7.888c.307 0 .556-.224.556-.5s-.248-.5-.556-.5z"/><path fill="#1A9BA1" d="M39.444 24h-7.888c-.308 0-.556.224-.556.5s.248.5.556.5h7.888c.307 0 .556-.224.556-.5s-.248-.5-.556-.5z"/><path fill="#37C6D0" d="M39.444 21h-7.888c-.308 0-.556.224-.556.5s.248.5.556.5h7.888c.307 0 .556-.224.556-.5s-.248-.5-.556-.5z"/><circle fill="#1A9BA1" cx="28.5" cy="21.5" r=".5"/><circle fill="#038387" cx="28.5" cy="24.5" r=".5"/><circle fill="#036C70" cx="28.5" cy="27.5" r=".5"/><circle fill="#0E4F51" cx="28.5" cy="30.5" r=".5"/></g></svg>