<svg xmlns="http://www.w3.org/2000/svg" viewBox="0 0 48 48"><linearGradient id="a" gradientUnits="userSpaceOnUse" x1="8" y1="39.023" x2="8" y2="37.986"><stop offset=".001" stop-color="#797775"/><stop offset="1" stop-color="#605e5c"/></linearGradient><path fill="url(#a)" d="M6.362 38.724a.5.5 0 0 0 .447.276h2.382a.5.5 0 0 0 .447-.276L10 38H6l.362.724z"/><linearGradient id="b" gradientUnits="userSpaceOnUse" x1="40" y1="39.023" x2="40" y2="37.986"><stop offset=".001" stop-color="#797775"/><stop offset="1" stop-color="#605e5c"/></linearGradient><path fill="url(#b)" d="M38.362 38.724a.5.5 0 0 0 .447.276h2.382a.5.5 0 0 0 .447-.276L42 38h-4l.362.724z"/><linearGradient id="c" gradientUnits="userSpaceOnUse" x1="24" y1="11" x2="24" y2="38"><stop offset="0" stop-color="#c8c6c4"/><stop offset="1" stop-color="#b3b0ad"/></linearGradient><path fill-rule="evenodd" clip-rule="evenodd" fill="url(#c)" d="M43 38H5a2 2 0 0 1-2-2V13a2 2 0 0 1 2-2h38a2 2 0 0 1 2 2v23a2 2 0 0 1-2 2z"/><path fill="#797775" d="M5 13h36v23H5z"/><linearGradient id="d" gradientUnits="userSpaceOnUse" x1="21.5" y1="13" x2="21.5" y2="15"><stop offset="0" stop-color="#a19f9d"/><stop offset=".999" stop-color="#605e5c" stop-opacity=".3"/></linearGradient><path fill="url(#d)" d="M38 15H7l-2-2h33z"/><linearGradient id="e" gradientUnits="userSpaceOnUse" x1="21.5" y1="36" x2="21.5" y2="34"><stop offset="0" stop-color="#a19f9d"/><stop offset=".999" stop-color="#605e5c" stop-opacity=".3"/></linearGradient><path fill="url(#e)" d="M38 36H5l2-2h31z"/><linearGradient id="f" gradientUnits="userSpaceOnUse" x1="5" y1="24.5" x2="7" y2="24.5"><stop offset="0" stop-color="#a19f9d"/><stop offset=".999" stop-color="#605e5c" stop-opacity=".3"/></linearGradient><path fill="url(#f)" d="M7 34l-2 2V13l2 2z"/><linearGradient id="g" gradientUnits="userSpaceOnUse" x1="41.5" y1="18" x2="41.5" y2="31"><stop offset=".001" stop-color="#797775"/><stop offset="1" stop-color="#605e5c"/></linearGradient><path fill="url(#g)" d="M41 31V18a1 1 0 0 1 1 1v11a1 1 0 0 1-1 1z"/><path fill="#E1DFDD" d="M41 38h-2a1 1 0 0 1-1-1V10a1 1 0 0 1 1-1h2v29zM38 37h-1a1 1 0 0 1-1-1V11a1 1 0 0 1 1-1h1v27z"/><linearGradient id="h" gradientUnits="userSpaceOnUse" x1="39.5" y1="9" x2="39.5" y2="38"><stop offset="0" stop-color="#e1dfdd" stop-opacity="0"/><stop offset="1" stop-color="#bebbb8" stop-opacity=".2"/></linearGradient><path fill="url(#h)" d="M41 38h-2a1 1 0 0 1-1-1V10a1 1 0 0 1 1-1h2v29z"/><linearGradient id="i" gradientUnits="userSpaceOnUse" x1="36" y1="23.5" x2="38" y2="23.5"><stop offset="0" stop-color="#e1dfdd" stop-opacity="0"/><stop offset=".999" stop-color="#c8c6c4" stop-opacity=".8"/></linearGradient><path fill="url(#i)" d="M38 37h-1a1 1 0 0 1-1-1V11a1 1 0 0 1 1-1h1v27z"/><path fill="#FFF" d="M27.5 35h-12a.5.5 0 0 1-.5-.5v-17a.5.5 0 0 1 .5-.5H24l4 4v13.5a.5.5 0 0 1-.5.5z"/><path fill="#EDEBE9" d="M28 21h-3.5a.5.5 0 0 1-.5-.5V17l4 4z"/><linearGradient id="j" gradientUnits="userSpaceOnUse" x1="39.5" y1="12" x2="39.5" y2="15"><stop offset=".002" stop-color="#bebbb8"/><stop offset="1" stop-color="#c8c6c4"/></linearGradient><path fill="url(#j)" d="M39.5 15a.5.5 0 0 1-.5-.5v-2a.5.5 0 0 1 1 0v2a.5.5 0 0 1-.5.5z"/><linearGradient id="k" gradientUnits="userSpaceOnUse" x1="39.5" y1="22" x2="39.5" y2="25"><stop offset=".002" stop-color="#bebbb8"/><stop offset="1" stop-color="#c8c6c4"/></linearGradient><path fill="url(#k)" d="M39.5 25a.5.5 0 0 1-.5-.5v-2a.5.5 0 0 1 1 0v2a.5.5 0 0 1-.5.5z"/><linearGradient id="l" gradientUnits="userSpaceOnUse" x1="39.5" y1="32" x2="39.5" y2="35"><stop offset=".002" stop-color="#bebbb8"/><stop offset="1" stop-color="#c8c6c4"/></linearGradient><path fill="url(#l)" d="M39.5 35a.5.5 0 0 1-.5-.5v-2a.5.5 0 0 1 1 0v2a.5.5 0 0 1-.5.5z"/></svg>