<svg xmlns="http://www.w3.org/2000/svg" viewBox="0 0 48 48"><linearGradient id="a" gradientUnits="userSpaceOnUse" x1="8" y1="39.023" x2="8" y2="37.986"><stop offset=".001" stop-color="#797775"/><stop offset="1" stop-color="#605e5c"/></linearGradient><path fill="url(#a)" d="M6.362 38.724a.5.5 0 0 0 .447.276h2.382a.5.5 0 0 0 .447-.276L10 38H6l.362.724z"/><linearGradient id="b" gradientUnits="userSpaceOnUse" x1="40" y1="39.023" x2="40" y2="37.986"><stop offset=".001" stop-color="#797775"/><stop offset="1" stop-color="#605e5c"/></linearGradient><path fill="url(#b)" d="M38.362 38.724a.5.5 0 0 0 .447.276h2.382a.5.5 0 0 0 .447-.276L42 38h-4l.362.724z"/><linearGradient id="c" gradientUnits="userSpaceOnUse" x1="24" y1="11" x2="24" y2="38"><stop offset="0" stop-color="#c8c6c4"/><stop offset="1" stop-color="#b3b0ad"/></linearGradient><path fill-rule="evenodd" clip-rule="evenodd" fill="url(#c)" d="M43 38H5a2 2 0 0 1-2-2V13a2 2 0 0 1 2-2h38a2 2 0 0 1 2 2v23a2 2 0 0 1-2 2z"/><linearGradient id="d" gradientUnits="userSpaceOnUse" x1="11" y1="11" x2="11" y2="34"><stop offset=".001" stop-color="#797775"/><stop offset="1" stop-color="#605e5c"/></linearGradient><path fill="url(#d)" d="M11 18a1.832 1.832 0 0 0-1.825 1.992l.893 10.155a.935.935 0 0 0 1.863 0l.894-10.155A1.832 1.832 0 0 0 11 18z"/><linearGradient id="e" gradientUnits="userSpaceOnUse" x1="23" y1="13" x2="23" y2="36"><stop offset="0" stop-color="#979593"/><stop offset="1" stop-color="#8a8886"/></linearGradient><path fill="url(#e)" d="M40 14v21H6V14h34m0-1H6a1 1 0 0 0-1 1v21a1 1 0 0 0 1 1h34a1 1 0 0 0 1-1V14a1 1 0 0 0-1-1z"/><linearGradient id="f" gradientUnits="userSpaceOnUse" x1="24.5" y1="17" x2="24.5" y2="32"><stop offset=".001" stop-color="#8a8886"/><stop offset="1" stop-color="#797775"/></linearGradient><path fill="url(#f)" d="M24.5 21c1.93 0 3.5 1.57 3.5 3.5S26.43 28 24.5 28 21 26.43 21 24.5s1.57-3.5 3.5-3.5m0-4a7.5 7.5 0 1 0 0 15 7.5 7.5 0 0 0 0-15z"/><linearGradient id="g" gradientUnits="userSpaceOnUse" x1="40.5" y1="16" x2="40.5" y2="19"><stop offset=".001" stop-color="#797775"/><stop offset="1" stop-color="#605e5c"/></linearGradient><path fill="url(#g)" d="M42.5 19h-4a.5.5 0 0 1-.5-.5v-2a.5.5 0 0 1 .5-.5h4a.5.5 0 0 1 .5.5v2a.5.5 0 0 1-.5.5z"/><linearGradient id="h" gradientUnits="userSpaceOnUse" x1="40.5" y1="30" x2="40.5" y2="33"><stop offset=".001" stop-color="#797775"/><stop offset="1" stop-color="#605e5c"/></linearGradient><path fill="url(#h)" d="M42.5 33h-4a.5.5 0 0 1-.5-.5v-2a.5.5 0 0 1 .5-.5h4a.5.5 0 0 1 .5.5v2a.5.5 0 0 1-.5.5z"/></svg>