<svg xmlns="http://www.w3.org/2000/svg" viewBox="0 0 48 48"><g fill="#FFF"><path d="M9.5 44h29c.275 0 .5-.225.5-.5V14h-8.5c-.827 0-1.5-.673-1.5-1.5V4H9.5c-.275 0-.5.225-.5.5v39c0 .275.225.5.5.5z"/><path d="M38.293 13L30 4.707V12.5c0 .275.225.5.5.5h7.793z"/></g><path opacity=".64" fill="#605E5C" d="M39.56 12.854l-9.414-9.415A1.51 1.51 0 0 0 29.086 3H9.5C8.673 3 8 3.673 8 4.5v39c0 .827.673 1.5 1.5 1.5h29c.827 0 1.5-.673 1.5-1.5V13.914c0-.4-.156-.777-.44-1.06zM30 4.707L38.293 13H30.5a.501.501 0 0 1-.5-.5V4.707zM38.5 44h-29a.501.501 0 0 1-.5-.5v-39c0-.275.225-.5.5-.5H29v8.5c0 .827.673 1.5 1.5 1.5H39v29.5c0 .275-.225.5-.5.5z"/><path fill="#0078D7" d="M26.468 28.023l9.308 3.49a.346.346 0 0 1-.038.66l-4.453 1.112-1.113 4.453a.346.346 0 0 1-.659.038l-3.49-9.308a.346.346 0 0 1 .445-.445z"/><path fill="none" stroke="#C8C6C4" stroke-linecap="round" stroke-miterlimit="10" d="M14.5 33.5c1.217-7.84 8.207-14.025 17-15"/><path fill="none" stroke="#0078D7" stroke-miterlimit="10" d="M15.5 37.5h-2a1 1 0 0 1-1-1v-2a1 1 0 0 1 1-1h2a1 1 0 0 1 1 1v2a1 1 0 0 1-1 1zM34.5 20.5h-2a1 1 0 0 1-1-1v-2a1 1 0 0 1 1-1h2a1 1 0 0 1 1 1v2a1 1 0 0 1-1 1z"/><circle fill="#0078D7" cx="21" cy="23" r="3.5"/><path fill="#FFF" d="M21 20a3 3 0 1 1 0 6 3 3 0 0 1 0-6m0-1c-2.206 0-4 1.794-4 4s1.794 4 4 4 4-1.794 4-4-1.794-4-4-4z"/></svg>