<svg xmlns="http://www.w3.org/2000/svg" viewBox="0 0 48 48"><g fill="#FFF"><path d="M41 40.5c0 .827-.673 1.5-1.5 1.5H16v1.5a.5.5 0 0 0 .5.5h26a.5.5 0 0 0 .5-.5v-36h.5V7l-3-2v3.5h.5v32z"/><path d="M13.5 41h26a.5.5 0 0 0 .5-.5v-32H13v32a.5.5 0 0 0 .5.5z"/></g><path opacity=".64" fill="#605E5C" d="M43 7.5v36a.5.5 0 0 1-.5.5h-26a.5.5 0 0 1-.5-.5V42h23.5c.827 0 1.5-.673 1.5-1.5v-32h-1v32a.5.5 0 0 1-.5.5h-26a.5.5 0 0 1-.5-.5v-32h-1v32c0 .827.673 1.5 1.5 1.5H15v1.5c0 .827.673 1.5 1.5 1.5h26c.827 0 1.5-.673 1.5-1.5v-36h-1z"/><path fill="#185ABD" d="M6 37h18a2 2 0 0 0 2-2V17a2 2 0 0 0-2-2H6a2 2 0 0 0-2 2v18a2 2 0 0 0 2 2z"/><path fill="#FFF" d="M14.398 28.072c.355 1.015.565 1.656.63 1.922h-.016c.064-.266.29-.952.68-2.057l2.796-7.934 2.503-.001-4.661 11.99-2.712.001L9 20.003l2.58-.001 2.817 8.07z"/><path fill="#41A5EE" d="M41 3.097A.991.991 0 0 0 40.586 3H13a1 1 0 0 0-1 1v4l.5.5h28L41 8V6.75l.5-.5V4.5L41 3.097z"/><path fill="#2B7CD3" d="M12 8h29v1H12zM41.853 6.854L44 9V6.414a1 1 0 0 0-.293-.707l-2.414-2.414A.997.997 0 0 0 41 3.097v4.11a.5.5 0 0 1 .853-.353z"/><g><path fill="#185ABD" d="M34.5 26a.5.5 0 0 1-.5-.5v-5h-1v5a.5.5 0 0 1-.5.5h-2v1h5a.5.5 0 0 1 .5.5v3h1v-3a1.5 1.5 0 0 0-1.5-1.5h-1z"/><path fill="#41A5EE" d="M28 24h3v5h-3z"/><path fill="#103F91" d="M30.5 19.5l3-3 3 3-3 3z"/><circle fill="#2B7CD3" cx="36.5" cy="32.5" r="2.5"/></g></svg>