<svg xmlns="http://www.w3.org/2000/svg" viewBox="0 0 48 48"><path fill="#FFB900" d="M22 12l-1.828-1.828A4 4 0 0 0 17.343 9H5.5A2.5 2.5 0 0 0 3 11.5v25A2.5 2.5 0 0 0 5.5 39h37a2.5 2.5 0 0 0 2.5-2.5v-22a2.5 2.5 0 0 0-2.5-2.5H22z"/><path fill="#FFD75E" d="M22 12l-1.975 1.975A3.5 3.5 0 0 1 17.55 15H3v21.5A2.5 2.5 0 0 0 5.5 39h37a2.5 2.5 0 0 0 2.5-2.5v-22a2.5 2.5 0 0 0-2.5-2.5H22z"/><linearGradient id="a" gradientUnits="userSpaceOnUse" x1="24" y1="12" x2="24" y2="39"><stop offset="0" stop-color="#fff" stop-opacity="0"/><stop offset=".999" stop-color="#ffd75e" stop-opacity=".3"/></linearGradient><path fill="url(#a)" d="M22 12l-1.828 1.828A4 4 0 0 1 17.343 15H3v21.5A2.5 2.5 0 0 0 5.5 39h37a2.5 2.5 0 0 0 2.5-2.5v-22a2.5 2.5 0 0 0-2.5-2.5H22z"/><path opacity=".4" fill="#FFF" d="M22 12l-1.828 1.828A4 4 0 0 1 17.343 15H3v1h14.636a4.5 4.5 0 0 0 3.182-1.318L23.5 12H22z"/><path fill="#E67628" d="M5 38a2.971 2.971 0 0 1-1.84-.647A2.493 2.493 0 0 0 5.5 39h37c1.08 0 1.991-.689 2.34-1.647-.509.399-1.142.647-1.84.647H5z"/><g fill="#BF5712"><path d="M20 24H6a1 1 0 0 0-1 1h1.5a.5.5 0 0 1 .5.5v4a.5.5 0 0 1-.5.5H5a1 1 0 0 0 1 1h14a1 1 0 0 0 1-1v-5a1 1 0 0 0-1-1zm-1 5.5a.5.5 0 0 1-.5.5h-4a.5.5 0 0 1-.5-.5v-4a.5.5 0 0 1 .5-.5h4a.5.5 0 0 1 .5.5v4zM3 30h1.5a.5.5 0 0 0 .5-.5v-4a.5.5 0 0 0-.5-.5H3v5zM23.5 30a.5.5 0 0 1-.5-.5v-4a.5.5 0 1 1 1 0v4a.5.5 0 0 1-.5.5zM26.5 30a.5.5 0 0 1-.5-.5v-4a.5.5 0 1 1 1 0v4a.5.5 0 0 1-.5.5zM29.5 30a.5.5 0 0 1-.5-.5v-4a.5.5 0 1 1 1 0v4a.5.5 0 0 1-.5.5zM32.5 30a.5.5 0 0 1-.5-.5v-4a.5.5 0 1 1 1 0v4a.5.5 0 0 1-.5.5zM35.5 30a.5.5 0 0 1-.5-.5v-4a.5.5 0 1 1 1 0v4a.5.5 0 0 1-.5.5zM38.5 30a.5.5 0 0 1-.5-.5v-4a.5.5 0 1 1 1 0v4a.5.5 0 0 1-.5.5zM41.5 30a.5.5 0 0 1-.5-.5v-4a.5.5 0 1 1 1 0v4a.5.5 0 0 1-.5.5zM44.5 30a.5.5 0 0 1-.5-.5v-4a.5.5 0 1 1 1 0v4a.5.5 0 0 1-.5.5z"/></g></svg>