<svg xmlns="http://www.w3.org/2000/svg" viewBox="0 0 96 96"><g fill="#FFF"><path d="M27 88h58a1 1 0 0 0 1-1V28H69c-1.654 0-3-1.346-3-3V8H27a1 1 0 0 0-1 1v78a1 1 0 0 0 1 1z"/><path d="M85.586 26L68 8.414V25a1 1 0 0 0 1 1h16.586z"/></g><path opacity=".64" fill="#605E5C" d="M87.121 24.707L69.293 6.879A2.978 2.978 0 0 0 67.172 6H27c-1.654 0-3 1.346-3 3v78c0 1.654 1.346 3 3 3h58c1.654 0 3-1.346 3-3V26.828c0-.8-.313-1.554-.879-2.121zM68 8.414L85.586 26H69a1 1 0 0 1-1-1V8.414zM85 88H27a1 1 0 0 1-1-1V9a1 1 0 0 1 1-1h39v17c0 1.654 1.346 3 3 3h17v59a1 1 0 0 1-1 1z"/><path fill="#AF2031" d="M12 74h32a4 4 0 0 0 4-4V38a4 4 0 0 0-4-4H12a4 4 0 0 0-4 4v32a4 4 0 0 0 4 4z"/><path fill="#FFF" d="M25.026 41h6.03l9.686 26h-5.696l-2.134-6.2h-9.964L20.852 67h-5.66l9.834-26zm6.606 16l-3.099-9.618c-.31-.894-.5-1.601-.575-2.121h-.111c-.05.471-.236 1.197-.557 2.176L24.154 57h7.478z"/><g><path fill="#881421" d="M73 61H63a1 1 0 0 0 0 2h10a1 1 0 0 0 0-2z"/><path fill="#C94F60" d="M73 55H63a1 1 0 0 0 0 2h10a1 1 0 0 0 0-2z"/><path fill="#E08095" d="M73 49H63a1 1 0 0 0 0 2h10a1 1 0 0 0 0-2z"/><path fill="#66121C" d="M57 61h-6v2h6a1 1 0 0 0 0-2z"/><path fill="#AF2031" d="M57 55h-6v2h6a1 1 0 0 0 0-2z"/><path fill="#C94F60" d="M57 49h-6v2h6a1 1 0 0 0 0-2zM78 44v22a1 1 0 0 1-1 1H51v2h26c1.654 0 3-1.346 3-3V44h-2z"/><path fill="#E08095" d="M80 45H51v-6h26a3 3 0 0 1 3 3v3z"/></g></svg>