<svg xmlns="http://www.w3.org/2000/svg" viewBox="0 0 96 96"><path fill="#FFF" d="M86 85V32H10v53a1 1 0 0 0 1 1h74a1 1 0 0 0 1-1zM25 18a1 1 0 0 0 1-1v-6a1 1 0 1 0-2 0v6a1 1 0 0 0 1 1zM71 18a1 1 0 0 0 1-1v-6a1 1 0 1 0-2 0v6a1 1 0 0 0 1 1z"/><g fill="#FFF"><path d="M71 18a1 1 0 0 0 1-1v-2h-2v2a1 1 0 0 0 1 1z"/><path d="M85 15H74v2c0 1.654-1.346 3-3 3s-3-1.346-3-3v-2H28v2c0 1.654-1.346 3-3 3s-3-1.346-3-3v-2H11a1 1 0 0 0-1 1v14h76V16a1 1 0 0 0-1-1z"/><path d="M25 18a1 1 0 0 0 1-1v-2h-2v2a1 1 0 0 0 1 1z"/></g><path opacity=".64" fill="#605E5C" d="M85 13H74v-2c0-1.654-1.346-3-3-3s-3 1.346-3 3v2H28v-2c0-1.654-1.346-3-3-3s-3 1.346-3 3v2H11c-1.654 0-3 1.346-3 3v69c0 1.654 1.346 3 3 3h74c1.654 0 3-1.346 3-3V16c0-1.654-1.346-3-3-3zm-15-2a1 1 0 0 1 2 0v6a1 1 0 0 1-2 0v-6zm-46 0a1 1 0 0 1 2 0v6a1 1 0 0 1-2 0v-6zm62 74a1 1 0 0 1-1 1H11a1 1 0 0 1-1-1V32h76v53zm0-55H10V16a1 1 0 0 1 1-1h11v2c0 1.654 1.346 3 3 3s3-1.346 3-3v-2h40v2c0 1.654 1.346 3 3 3s3-1.346 3-3v-2h11a1 1 0 0 1 1 1v14z"/><circle fill="#C8C6C4" cx="71.5" cy="46.5" r="2.5"/><circle fill="#C8C6C4" cx="56.5" cy="46.5" r="2.5"/><circle fill="#C8C6C4" cx="40.5" cy="46.5" r="2.5"/><circle fill="#C8C6C4" cx="24.5" cy="46.5" r="2.5"/><circle fill="#C8C6C4" cx="71.5" cy="58.5" r="2.5"/><circle fill="#C8C6C4" cx="56.5" cy="58.5" r="2.5"/><circle fill="#C8C6C4" cx="40.5" cy="58.5" r="2.5"/><circle fill="#C8C6C4" cx="24.5" cy="58.5" r="2.5"/><circle fill="#C8C6C4" cx="71.5" cy="70.5" r="2.5"/><circle fill="#C8C6C4" cx="56.5" cy="70.5" r="2.5"/><circle fill="#C8C6C4" cx="40.5" cy="70.5" r="2.5"/><circle fill="#C8C6C4" cx="24.5" cy="70.5" r="2.5"/></svg>