<svg xmlns="http://www.w3.org/2000/svg" viewBox="0 0 96 96"><g fill="#FFF"><path d="M18 88h58a1 1 0 0 0 1-1V28H60c-1.654 0-3-1.346-3-3V8H18a1 1 0 0 0-1 1v78a1 1 0 0 0 1 1z"/><path d="M76.586 26L59 8.414V25a1 1 0 0 0 1 1h16.586z"/></g><path opacity=".64" fill="#605E5C" d="M78.121 24.707L60.293 6.879A2.978 2.978 0 0 0 58.172 6H18c-1.654 0-3 1.346-3 3v78c0 1.654 1.346 3 3 3h58c1.654 0 3-1.346 3-3V26.828c0-.8-.313-1.554-.879-2.121zM59 8.414L76.586 26H60a1 1 0 0 1-1-1V8.414zM76 88H18a1 1 0 0 1-1-1V9a1 1 0 0 1 1-1h39v17c0 1.654 1.346 3 3 3h17v59a1 1 0 0 1-1 1z"/><path fill="#FFF" stroke="#69AFE5" stroke-width="2" stroke-miterlimit="10" d="M29.504 45H15.913C14.857 45 14 45.895 14 47v40c0 1.105.857 2 1.913 2h62.174C79.143 89 80 88.105 80 87V72c0-1.105-.882-2-1.97-2H61.93c-.42 0-.83-.137-1.169-.39L30.574 45.342a1.855 1.855 0 0 0-1.07-.342z"/><path fill="#C8C6C4" d="M38.1 74H21.9c-.497 0-.9.448-.9 1s.403 1 .9 1h16.2c.497 0 .9-.448.9-1s-.403-1-.9-1zM33.133 80H21.867c-.479 0-.867.448-.867 1s.388 1 .867 1h11.266c.479 0 .867-.448.867-1s-.388-1-.867-1z"/></svg>