<svg xmlns="http://www.w3.org/2000/svg" viewBox="0 0 96 96"><path fill="#FFB900" d="M45 24l-3.95-3.95A7 7 0 0 0 36.1 18H10a4 4 0 0 0-4 4v52a4 4 0 0 0 4 4h76a4 4 0 0 0 4-4V28a4 4 0 0 0-4-4H45z"/><path fill="#FFD75E" d="M45 24l-3.95 3.95A7 7 0 0 1 36.1 30H6v44a4 4 0 0 0 4 4h76a4 4 0 0 0 4-4V28a4 4 0 0 0-4-4H45z"/><linearGradient id="a" gradientUnits="userSpaceOnUse" x1="48" y1="24" x2="48" y2="78"><stop offset="0" stop-color="#fff" stop-opacity="0"/><stop offset=".999" stop-color="#ffd75e" stop-opacity=".3"/></linearGradient><path fill="url(#a)" d="M45 24l-3.95 3.95A7 7 0 0 1 36.1 30H6v44a4 4 0 0 0 4 4h76a4 4 0 0 0 4-4V28a4 4 0 0 0-4-4H45z"/><path fill="#E67628" d="M10 78h76c1.309 0 2.47-.628 3.2-1.6l-.355.178a3.998 3.998 0 0 1-1.79.422H8.948c-.62 0-1.23-.144-1.785-.42l-.364-.182A3.994 3.994 0 0 0 10 78z"/><path opacity=".4" fill="#FFF" d="M41.697 28.803L46.5 24H45l-3.95 3.95A7 7 0 0 1 36.1 30H6v1h30.393a7.5 7.5 0 0 0 5.304-2.197z"/><g><path fill="#BF5712" d="M84 72H72V57h8.007L84 60.785V72zm-11-1h10v-9.785L79.608 58H73v13z"/><path fill="#BF5712" d="M83 62h-4v-5h1v4h3z"/></g></svg>