<svg xmlns="http://www.w3.org/2000/svg" viewBox="0 0 96 96"><g fill="#FFF"><path d="M27 82h52a1 1 0 0 0 1-1V17H26v64a1 1 0 0 0 1 1z"/><path d="M82 81c0 1.654-1.346 3-3 3H32v3a1 1 0 0 0 1 1h52a1 1 0 0 0 1-1V13h1l-6-4v8h1v64z"/></g><path opacity=".64" fill="#605E5C" d="M86 13v74a1 1 0 0 1-1 1H33a1 1 0 0 1-1-1v-3h47c1.654 0 3-1.346 3-3V17h-2v64a1 1 0 0 1-1 1H27a1 1 0 0 1-1-1V17h-2v64c0 1.654 1.346 3 3 3h3v3c0 1.654 1.346 3 3 3h52c1.654 0 3-1.346 3-3V13h-2z"/><path fill="#41A5EE" d="M82 6.186A1.993 1.993 0 0 0 81.172 6H26a2 2 0 0 0-2 2v8l1 1h56l1-1v-3.5l1-1V8l-1-1.814z"/><path fill="#2B7CD3" d="M24 16h58v2H24zM83.707 12.707L88 17v-4.586a1 1 0 0 0-.293-.707l-5.121-5.121c-.17-.17-.371-.302-.586-.4v7.228c0-.89 1.077-1.337 1.707-.707z"/><path fill="#103F91" d="M73 62H51v2h22a1 1 0 0 0 0-2z"/><path fill="#185ABD" d="M73 56H51v2h22a1 1 0 0 0 0-2z"/><path fill="#2B7CD3" d="M73 50H51v2h22a1 1 0 0 0 0-2z"/><path fill="#41A5EE" d="M73 44H51v2h22a1 1 0 0 0 0-2z"/><g><path fill="#185ABD" d="M12 74h32a4 4 0 0 0 4-4V38a4 4 0 0 0-4-4H12a4 4 0 0 0-4 4v32a4 4 0 0 0 4 4z"/><path fill="#F9F7F7" d="M21.625 60.645c.066.522.109.977.13 1.366h.075c.03-.368.09-.813.175-1.335.087-.52.17-.96.252-1.319L25.791 44h4.57l3.656 15.127c.183.747.336 1.697.457 2.853h.061c.051-.797.178-1.718.381-2.761L37.841 44H42l-5.118 22h-4.86l-3.489-14.574c-.101-.42-.216-.967-.343-1.642a19.166 19.166 0 0 1-.236-1.472h-.06c-.041.358-.12.89-.237 1.595a40.749 40.749 0 0 1-.282 1.565L24.1 66h-4.936L14 44h4.235l3.184 15.388c.071.317.14.736.206 1.258z"/></g></svg>