<svg xmlns="http://www.w3.org/2000/svg" viewBox="0 0 96 96"><g fill="#FFF"><path d="M10 30h76v-8a1 1 0 0 0-1-1H11a1 1 0 0 0-1 1v8zM11 75h74a1 1 0 0 0 1-1V32H10v42a1 1 0 0 0 1 1z"/></g><circle fill="#C8C6C4" cx="14.5" cy="25.5" r="1.5"/><circle fill="#C8C6C4" cx="19.5" cy="25.5" r="1.5"/><circle fill="#C8C6C4" cx="24.5" cy="25.5" r="1.5"/><path fill="#EDEBE9" d="M30 75H11a1 1 0 0 1-1-1V32h20v43z"/><g fill="#C8C6C4"><path d="M24 47h-8a1 1 0 1 1 0-2h8a1 1 0 1 1 0 2zM24 41h-8a1 1 0 1 1 0-2h8a1 1 0 1 1 0 2zM24 53h-8a1 1 0 1 1 0-2h8a1 1 0 1 1 0 2z"/></g><g fill="#C8C6C4"><path d="M54 47H37a1 1 0 1 1 0-2h17a1 1 0 1 1 0 2zM54 41H37a1 1 0 1 1 0-2h17a1 1 0 1 1 0 2zM54 53H37a1 1 0 1 1 0-2h17a1 1 0 1 1 0 2zM54 59H37a1 1 0 1 1 0-2h17a1 1 0 1 1 0 2zM54 65H37a1 1 0 1 1 0-2h17a1 1 0 1 1 0 2z"/></g><path fill="#69AFE5" d="M79 65H62a2 2 0 0 1-2-2V41a2 2 0 0 1 2-2h17a2 2 0 0 1 2 2v22a2 2 0 0 1-2 2z"/><path opacity=".64" fill="#605E5C" d="M85 19H11c-1.654 0-3 1.346-3 3v52c0 1.654 1.346 3 3 3h74c1.654 0 3-1.346 3-3V22c0-1.654-1.346-3-3-3zm-74 2h74a1 1 0 0 1 1 1v8H10v-8a1 1 0 0 1 1-1zm74 54H11a1 1 0 0 1-1-1V32h76v42a1 1 0 0 1-1 1z"/></svg>