<svg xmlns="http://www.w3.org/2000/svg" viewBox="0 0 96 96"><path fill="#FFF" d="M19 88h51a1 1 0 0 0 1-1v-4H26c-1.654 0-3-1.346-3-3V15h-4a1 1 0 0 0-1 1v71a1 1 0 0 0 1 1z"/><path fill="#FFF" d="M78 80V28H61c-1.654 0-3-1.346-3-3V8H26a1 1 0 0 0-1 1v71a1 1 0 0 0 1 1h51a1 1 0 0 0 1-1z"/><path fill="#FFF" d="M77.586 26L60 8.414V25a1 1 0 0 0 1 1h16.586z"/><path opacity=".64" fill="#605E5C" d="M79.121 24.707L61.293 6.88A2.979 2.979 0 0 0 59.172 6H26c-1.654 0-3 1.346-3 3v4h-4c-1.654 0-3 1.346-3 3v71c0 1.654 1.346 3 3 3h51c1.654 0 3-1.346 3-3v-4h4c1.654 0 3-1.346 3-3V26.828c0-.8-.313-1.554-.879-2.12zM60 8.414L77.586 26H61a1 1 0 0 1-1-1V8.414zM71 87a1 1 0 0 1-1 1H19a1 1 0 0 1-1-1V16a1 1 0 0 1 1-1h4v65c0 1.654 1.346 3 3 3h45v4zm6-6H26a1 1 0 0 1-1-1V9a1 1 0 0 1 1-1h32v17c0 1.654 1.346 3 3 3h17v52a1 1 0 0 1-1 1z"/></svg>