<svg xmlns="http://www.w3.org/2000/svg" viewBox="0 0 96 96"><path fill="#FFF" d="M19 88h58a1 1 0 0 0 1-1V28H61c-1.654 0-3-1.346-3-3V8H19a1 1 0 0 0-1 1v78a1 1 0 0 0 1 1z"/><path fill="#FFF" d="M77.586 26L60 8.414V25a1 1 0 0 0 1 1h16.586z"/><path opacity=".64" fill="#605E5C" d="M79.121 24.707L61.293 6.879A2.978 2.978 0 0 0 59.172 6H19c-1.654 0-3 1.346-3 3v78c0 1.654 1.346 3 3 3h58c1.654 0 3-1.346 3-3V26.828c0-.8-.313-1.554-.879-2.121zM60 8.414L77.586 26H61a1 1 0 0 1-1-1V8.414zM77 88H19a1 1 0 0 1-1-1V9a1 1 0 0 1 1-1h39v17c0 1.654 1.346 3 3 3h17v59a1 1 0 0 1-1 1z"/><path fill="#C8C6C4" d="M71 37H25a1 1 0 1 1 0-2h46a1 1 0 1 1 0 2zM71 43H25a1 1 0 1 1 0-2h46a1 1 0 1 1 0 2zM71 49H25a1 1 0 1 1 0-2h46a1 1 0 1 1 0 2zM71 55H25a1 1 0 1 1 0-2h46a1 1 0 1 1 0 2z"/><path fill="#D65532" d="M66.047 63.003l13.959.038A2 2 0 0 1 82 65.047l-.036 12.959A2 2 0 0 1 79.96 80L66 79.962a1 1 0 0 1-.997-1.003L65.043 64a1 1 0 0 1 1.004-.997zM31 78.997a1 1 0 0 1-1.003 1l-14.034-.038c-1.107-.003-1.966-.901-1.963-2.006V64.994A2.002 2.002 0 0 1 16.01 63l13.993.038a1 1 0 0 1 .997 1v14.96z"/><path fill="none" stroke="#D65532" stroke-width="3" stroke-linecap="round" stroke-linejoin="round" stroke-miterlimit="10" d="M58.5 80.5h-21a2 2 0 0 1-2-2v-14a2 2 0 0 1 2-2h21a2 2 0 0 1 2 2v14a2 2 0 0 1-2 2z"/></svg>