<svg xmlns="http://www.w3.org/2000/svg" viewBox="0 0 96 96"><path fill="#FFF" d="M11 86h74a1 1 0 0 0 1-1V11a1 1 0 0 0-1-1H11a1 1 0 0 0-1 1v74a1 1 0 0 0 1 1z"/><circle fill="none" stroke="#FF9810" stroke-width="2" stroke-miterlimit="10" cx="67" cy="35" r="6"/><path fill="none" stroke="#A6CCC3" stroke-width="2" stroke-miterlimit="10" d="M57.792 48.13l-5.277 7.156a1 1 0 0 1-1.592.023l-8.846-11.298a2 2 0 0 0-3.15 0L23.458 63.767C22.431 65.08 23.366 67 25.033 67h45.934c1.64 0 2.583-1.867 1.61-3.187L61.012 48.13a2 2 0 0 0-3.22 0z"/><path opacity=".64" fill="#605E5C" d="M85 88H11c-1.654 0-3-1.346-3-3V11c0-1.654 1.346-3 3-3h74c1.654 0 3 1.346 3 3v74c0 1.654-1.346 3-3 3zM11 10a1 1 0 0 0-1 1v74a1 1 0 0 0 1 1h74a1 1 0 0 0 1-1V11a1 1 0 0 0-1-1H11z"/></svg>