<svg xmlns="http://www.w3.org/2000/svg" viewBox="0 0 96 96"><path fill="#FFB900" d="M45 24l-3.95-3.95A7 7 0 0 0 36.1 18H10a4 4 0 0 0-4 4v52a4 4 0 0 0 4 4h76a4 4 0 0 0 4-4V28a4 4 0 0 0-4-4H45z"/><path fill="#FFD75E" d="M45 24l-3.95 3.95A7 7 0 0 1 36.1 30H6v44a4 4 0 0 0 4 4h76a4 4 0 0 0 4-4V28a4 4 0 0 0-4-4H45z"/><linearGradient id="a" gradientUnits="userSpaceOnUse" x1="48" y1="24" x2="48" y2="78"><stop offset="0" stop-color="#fff" stop-opacity="0"/><stop offset=".999" stop-color="#ffd75e" stop-opacity=".3"/></linearGradient><path fill="url(#a)" d="M45 24l-3.95 3.95A7 7 0 0 1 36.1 30H6v44a4 4 0 0 0 4 4h76a4 4 0 0 0 4-4V28a4 4 0 0 0-4-4H45z"/><path fill="#E67628" d="M10 78h76c1.309 0 2.47-.628 3.2-1.6l-.355.178a3.998 3.998 0 0 1-1.79.422H8.948c-.62 0-1.23-.144-1.785-.42l-.364-.182A3.994 3.994 0 0 0 10 78z"/><path opacity=".4" fill="#FFF" d="M41.697 28.803L46.5 24H45l-3.95 3.95A7 7 0 0 1 36.1 30H6v1h30.393a7.5 7.5 0 0 0 5.304-2.197z"/><g><path fill="#BF5712" d="M85 61.035V73H68V61.035h17zm-15.938.944v5.627l3.542-3.48 5.49 4.904 2.344-1.842 3.5 3.252v-8.46H69.061zm0 10.077h10.933l-7.214-6.42-3.719 3.313v3.107zm14.876 0v-.273l-3.72-3.313-1.377 1.225 2.665 2.36h2.431zm-3.434-7.13a.415.415 0 0 1-.305-.13c-.085-.085-.128-.187-.128-.304s.043-.219.128-.305c.086-.086.188-.128.305-.128s.22.042.305.128c.085.086.128.188.128.305s-.042.219-.128.305a.415.415 0 0 1-.305.129z"/></g></svg>