<svg xmlns="http://www.w3.org/2000/svg" viewBox="0 0 96 96"><g fill="#FFF"><path d="M27 82h52a1 1 0 0 0 1-1V17H26v64a1 1 0 0 0 1 1z"/><path d="M82 81c0 1.654-1.346 3-3 3H32v3a1 1 0 0 0 1 1h52a1 1 0 0 0 1-1V13h1l-6-4v8h1v64z"/></g><path opacity=".64" fill="#605E5C" d="M86 13v74a1 1 0 0 1-1 1H33a1 1 0 0 1-1-1v-3h47c1.654 0 3-1.346 3-3V17h-2v64a1 1 0 0 1-1 1H27a1 1 0 0 1-1-1V17h-2v64c0 1.654 1.346 3 3 3h3v3c0 1.654 1.346 3 3 3h52c1.654 0 3-1.346 3-3V13h-2z"/><path fill="#FF8F6B" d="M82 6.186A1.993 1.993 0 0 0 81.172 6H26a2 2 0 0 0-2 2v8l1 1h56l1-1v-3.5l1-1V8l-1-1.814z"/><path fill="#ED6C47" d="M24 16h58v2H24zM83.707 12.707L88 17v-4.586a1 1 0 0 0-.293-.707l-5.121-5.121c-.17-.17-.371-.302-.586-.4v7.228c0-.89 1.077-1.337 1.707-.707zM59 55l-1-1h-6l-1 1v12.673A14.91 14.91 0 0 0 59 70c8.284 0 15-6.716 15-15H59z"/><path fill="#FF8F6B" d="M51 42.327V55h8V40a14.91 14.91 0 0 0-8 2.327z"/><path fill="#FFC7B5" d="M62 37v15h15c0-8.284-6.716-15-15-15z"/><g><path fill="#C43E1C" d="M12 74h32a4 4 0 0 0 4-4V38a4 4 0 0 0-4-4H12a4 4 0 0 0-4 4v32a4 4 0 0 0 4 4z"/><path fill="#F9F7F7" d="M29.854 42c2.955 0 5.22.663 6.79 1.985 1.57 1.323 2.356 3.24 2.356 5.748 0 1.611-.389 3.043-1.165 4.297-.777 1.255-1.882 2.23-3.314 2.926C33.09 57.652 31.43 58 29.543 58h-4.544v9H20V42h9.854zM25 54h3.967c1.546 0 2.714-.35 3.505-1.045.79-.697 1.184-1.715 1.184-3.054 0-2.6-1.513-3.901-4.542-3.901H25v8z"/></g></svg>