<svg xmlns="http://www.w3.org/2000/svg" viewBox="0 0 96 96"><g fill="#FFF"><path d="M27 88h58a1 1 0 0 0 1-1V28H69c-1.654 0-3-1.346-3-3V8H27a1 1 0 0 0-1 1v78a1 1 0 0 0 1 1z"/><path d="M85.586 26L68 8.414V25a1 1 0 0 0 1 1h16.586z"/></g><path opacity=".64" fill="#605E5C" d="M87.121 24.707L69.293 6.879A2.978 2.978 0 0 0 67.172 6H27c-1.654 0-3 1.346-3 3v78c0 1.654 1.346 3 3 3h58c1.654 0 3-1.346 3-3V26.828c0-.8-.313-1.554-.879-2.121zM68 8.414L85.586 26H69a1 1 0 0 1-1-1V8.414zM85 88H27a1 1 0 0 1-1-1V9a1 1 0 0 1 1-1h39v17c0 1.654 1.346 3 3 3h17v59a1 1 0 0 1-1 1z"/><path fill="none" stroke="#C8C6C4" stroke-width="2" stroke-miterlimit="10" d="M50 56l6.634-10.269M62.385 45.731L70 53"/><circle fill="none" stroke="#C8C6C4" stroke-width="2" stroke-miterlimit="10" cx="48.202" cy="59.798" r="4.202"/><circle fill="none" stroke="#C8C6C4" stroke-width="2" stroke-miterlimit="10" cx="73.222" cy="56.107" r="4.202"/><circle fill="none" stroke="#C8C6C4" stroke-width="2" stroke-miterlimit="10" cx="59.067" cy="42.413" r="4.202"/><path fill="#C8C6C4" d="M79 76H34a1 1 0 0 0 0 2h45a1 1 0 0 0 0-2zM79 71H34a1 1 0 0 0 0 2h45a1 1 0 0 0 0-2z"/><path fill="#F2C80F" d="M12 74h32a4 4 0 0 0 4-4V38a4 4 0 0 0-4-4H12a4 4 0 0 0-4 4v32a4 4 0 0 0 4 4z"/><path fill="#333" d="M35 65c-.55 0-1-.45-1-1V46c0-.55.45-1 1-1s1 .45 1 1v18c0 .55-.45 1-1 1zM30 65c-.55 0-1-.45-1-1V53c0-.55.45-1 1-1s1 .45 1 1v11c0 .55-.45 1-1 1zM25 65c-.55 0-1-.45-1-1V49.81c0-.55.45-1 1-1s1 .45 1 1V64c0 .55-.45 1-1 1zM20 65c-.55 0-1-.45-1-1v-5.619c0-.55.45-1 1-1s1 .45 1 1V64c0 .55-.45 1-1 1z"/></svg>