<svg xmlns="http://www.w3.org/2000/svg" viewBox="0 0 96 96"><g fill="#FFF"><path d="M11 75h74a1 1 0 0 0 1-1V41H69c-1.654 0-3-1.346-3-3V21H11a1 1 0 0 0-1 1v52a1 1 0 0 0 1 1z"/><path d="M85.586 39L68 21.414V38a1 1 0 0 0 1 1h16.586z"/></g><path opacity=".64" fill="#605E5C" d="M87.121 37.707L69.293 19.88A2.979 2.979 0 0 0 67.172 19H11c-1.654 0-3 1.346-3 3v52c0 1.654 1.346 3 3 3h74c1.654 0 3-1.346 3-3V39.828c0-.8-.313-1.554-.879-2.12zM68 21.414L85.586 39H69a1 1 0 0 1-1-1V21.414zM85 75H11a1 1 0 0 1-1-1V22a1 1 0 0 1 1-1h55v17c0 1.654 1.346 3 3 3h17v33a1 1 0 0 1-1 1z"/><g fill="#C8C6C4"><path d="M34 44H17a1 1 0 1 1 0-2h17a1 1 0 1 1 0 2zM34 38H17a1 1 0 1 1 0-2h17a1 1 0 1 1 0 2zM34 50H17a1 1 0 1 1 0-2h17a1 1 0 1 1 0 2zM34 56H17a1 1 0 1 1 0-2h17a1 1 0 1 1 0 2zM34 62H17a1 1 0 1 1 0-2h17a1 1 0 1 1 0 2zM34 68H17a1 1 0 1 1 0-2h17a1 1 0 1 1 0 2z"/></g><path fill="#B7472A" d="M55 38c6.627 0 12 5.372 12 12H55V38z"/><path fill="#C8C6C4" d="M67 52c0 7.732-6.268 14-14 14s-14-6.268-14-14 6.268-14 14-14v14h14z"/></svg>