<svg xmlns="http://www.w3.org/2000/svg" viewBox="0 0 96 96"><path fill="#FFB900" d="M45 24l-3.95-3.95A7 7 0 0 0 36.1 18H10a4 4 0 0 0-4 4v52a4 4 0 0 0 4 4h76a4 4 0 0 0 4-4V28a4 4 0 0 0-4-4H45z"/><path fill="#FFD75E" d="M45 24l-3.95 3.95A7 7 0 0 1 36.1 30H6v44a4 4 0 0 0 4 4h76a4 4 0 0 0 4-4V28a4 4 0 0 0-4-4H45z"/><linearGradient id="a" gradientUnits="userSpaceOnUse" x1="48" y1="24" x2="48" y2="78"><stop offset="0" stop-color="#fff" stop-opacity="0"/><stop offset=".999" stop-color="#ffd75e" stop-opacity=".3"/></linearGradient><path fill="url(#a)" d="M45 24l-3.95 3.95A7 7 0 0 1 36.1 30H6v44a4 4 0 0 0 4 4h76a4 4 0 0 0 4-4V28a4 4 0 0 0-4-4H45z"/><path fill="#E67628" d="M10 78h76c1.309 0 2.47-.628 3.2-1.6l-.355.178a3.998 3.998 0 0 1-1.79.422H8.948c-.62 0-1.23-.144-1.785-.42l-.364-.182A3.994 3.994 0 0 0 10 78z"/><path opacity=".4" fill="#FFF" d="M41.697 28.803L46.5 24H45l-3.95 3.95A7 7 0 0 1 36.1 30H6v1h30.393a7.5 7.5 0 0 0 5.304-2.197z"/><g><path fill="#BF5712" d="M81.375 70.9a.497.497 0 0 1-.353-.146l-12.82-12.77a.5.5 0 1 1 .705-.709l12.821 12.77a.5.5 0 0 1-.353.855zM74.646 61.021l3.394-3.393.707.707-3.393 3.393zM68.601 70.899a.5.5 0 0 1-.485-.621l.875-3.5a.5.5 0 0 1 .132-.233l2.956-2.956.707.707-2.858 2.859-.64 2.557 2.557-.64 2.763-2.762.707.707-2.86 2.86a.5.5 0 0 1-.233.132l-3.5.875a.485.485 0 0 1-.12.015z"/><path fill="#BF5712" d="M71.814 69.45c-.429-1.68-2.268-2.264-2.286-2.27l.29-.957c.097.03 2.395.745 2.965 2.98l-.969.247zM77.424 63.493l3.24-3.24.707.707-3.24 3.24zM81.373 60.959l-.707-.707a1.358 1.358 0 0 0 0-1.917 1.358 1.358 0 0 0-1.918 0l-.707-.707c.919-.918 2.413-.92 3.332 0s.918 2.413 0 3.331z"/><path fill="#BF5712" d="M77.27 59.103l.708-.707 2.625 2.625-.708.707z"/></g></svg>