<svg xmlns="http://www.w3.org/2000/svg" viewBox="0 0 96 96"><g fill="#FFF"><path d="M19 88h58a1 1 0 0 0 1-1V28H61c-1.654 0-3-1.346-3-3V8H19a1 1 0 0 0-1 1v78a1 1 0 0 0 1 1z"/><path d="M77.586 26L60 8.414V25a1 1 0 0 0 1 1h16.586z"/></g><path opacity=".64" fill="#605E5C" d="M79.121 24.707L61.293 6.879A2.978 2.978 0 0 0 59.172 6H19c-1.654 0-3 1.346-3 3v78c0 1.654 1.346 3 3 3h58c1.654 0 3-1.346 3-3V26.828c0-.8-.313-1.554-.879-2.121zM60 8.414L77.586 26H61a1 1 0 0 1-1-1V8.414zM77 88H19a1 1 0 0 1-1-1V9a1 1 0 0 1 1-1h39v17c0 1.654 1.346 3 3 3h17v59a1 1 0 0 1-1 1z"/><path fill="#C8C6C4" d="M46 61H25a1 1 0 1 1 0-2h21a1 1 0 1 1 0 2z"/><path fill="#0078D7" d="M71 55H25a1 1 0 1 1 0-2h46a1 1 0 1 1 0 2z"/><path fill="#69AFE5" d="M71 49H44a1 1 0 1 1 0-2h27a1 1 0 1 1 0 2zM71 43H44a1 1 0 1 1 0-2h27a1 1 0 1 1 0 2z"/><path fill="#C8C6C4" d="M46 67H25a1 1 0 1 1 0-2h21a1 1 0 1 1 0 2zM46 73H25a1 1 0 1 1 0-2h21a1 1 0 1 1 0 2z"/><path fill="#0078D7" d="M40 49h-3.502l-1.393-3.634h-6.374L27.415 49H24l6.21-16h3.405L40 49zm-5.928-6.33l-2.197-5.937-2.154 5.937h4.351z"/><path fill="#69AFE5" d="M70 73H53a2 2 0 0 1-2-2V61a2 2 0 0 1 2-2h17a2 2 0 0 1 2 2v10a2 2 0 0 1-2 2z"/></svg>