<svg xmlns="http://www.w3.org/2000/svg" viewBox="0 0 96 96"><path fill="#FFB900" d="M45 24l-3.95-3.95A7 7 0 0 0 36.1 18H10a4 4 0 0 0-4 4v52a4 4 0 0 0 4 4h76a4 4 0 0 0 4-4V28a4 4 0 0 0-4-4H45z"/><path fill="#FFD75E" d="M45 24l-3.95 3.95A7 7 0 0 1 36.1 30H6v44a4 4 0 0 0 4 4h76a4 4 0 0 0 4-4V28a4 4 0 0 0-4-4H45z"/><linearGradient id="a" gradientUnits="userSpaceOnUse" x1="48" y1="24" x2="48" y2="78"><stop offset="0" stop-color="#fff" stop-opacity="0"/><stop offset=".999" stop-color="#ffd75e" stop-opacity=".3"/></linearGradient><path fill="url(#a)" d="M45 24l-3.95 3.95A7 7 0 0 1 36.1 30H6v44a4 4 0 0 0 4 4h76a4 4 0 0 0 4-4V28a4 4 0 0 0-4-4H45z"/><path fill="#E67628" d="M10 78h76c1.309 0 2.47-.628 3.2-1.6l-.355.178a3.998 3.998 0 0 1-1.79.422H8.948c-.62 0-1.23-.144-1.785-.42l-.364-.182A3.994 3.994 0 0 0 10 78z"/><path opacity=".4" fill="#FFF" d="M41.697 28.803L46.5 24H45l-3.95 3.95A7 7 0 0 1 36.1 30H6v1h30.393a7.5 7.5 0 0 0 5.304-2.197z"/><g><path fill="#BF5712" d="M81.781 62.414a4.053 4.053 0 0 1 2.063 2.48c.104.357.156.726.156 1.106h-1c0-.411-.08-.8-.238-1.164a3.081 3.081 0 0 0-.645-.953 3.08 3.08 0 0 0-.953-.645A2.887 2.887 0 0 0 80 63c-.412 0-.8.08-1.164.238a3.07 3.07 0 0 0-.953.645 3.065 3.065 0 0 0-.645.953C77.08 65.2 77 65.589 77 66c0 .474-.108.925-.324 1.352a2.976 2.976 0 0 1-.895 1.062 4.053 4.053 0 0 1 2.063 2.48c.104.357.156.726.156 1.106h-1c0-.411-.08-.8-.238-1.164a3.081 3.081 0 0 0-.645-.953 3.08 3.08 0 0 0-.953-.645A2.887 2.887 0 0 0 74 69c-.412 0-.8.08-1.164.238a3.07 3.07 0 0 0-.953.645 3.065 3.065 0 0 0-.645.953C71.08 71.2 71 71.589 71 72h-1a4.011 4.011 0 0 1 1.3-2.95 4.04 4.04 0 0 1 .919-.636 2.965 2.965 0 0 1-.895-1.063A2.95 2.95 0 0 1 71 66c0-.411.08-.8.238-1.164.159-.364.374-.682.645-.953.27-.27.588-.486.953-.645A2.884 2.884 0 0 1 74 63c.474 0 .924.108 1.352.324.426.216.78.515 1.062.895a4.072 4.072 0 0 1 1.805-1.805 2.965 2.965 0 0 1-.895-1.063A2.949 2.949 0 0 1 77 60c0-.411.08-.8.238-1.164.159-.364.374-.682.645-.953.27-.27.588-.486.953-.645A2.884 2.884 0 0 1 80 57c.411 0 .8.08 1.164.238.364.16.682.374.953.645.27.27.486.589.645.953.158.365.238.753.238 1.164 0 .474-.108.925-.324 1.352a2.976 2.976 0 0 1-.895 1.062zM74 68c.27 0 .528-.053.773-.16.245-.107.457-.25.637-.43s.323-.39.43-.633c.106-.242.16-.5.16-.777 0-.27-.054-.528-.16-.773-.107-.245-.25-.457-.43-.637s-.392-.323-.637-.43A1.92 1.92 0 0 0 74 64c-.276 0-.535.054-.777.16a2.044 2.044 0 0 0-1.063 1.066c-.107.246-.16.504-.16.774 0 .276.053.535.16.777a2.055 2.055 0 0 0 1.063 1.063c.242.107.5.16.777.16zm4-8c0 .276.053.535.16.777a2.055 2.055 0 0 0 1.063 1.063c.242.107.5.16.777.16.27 0 .528-.053.773-.16.245-.107.457-.25.637-.43s.323-.39.43-.633c.106-.242.16-.5.16-.777 0-.27-.054-.528-.16-.773-.107-.245-.25-.457-.43-.637s-.392-.323-.637-.43A1.92 1.92 0 0 0 80 58c-.276 0-.535.054-.777.16a2.044 2.044 0 0 0-1.063 1.066c-.107.246-.16.503-.16.774z"/></g></svg>