<svg xmlns="http://www.w3.org/2000/svg" viewBox="0 0 96 96"><g fill="#FFF"><path d="M11 75h74a1 1 0 0 0 1-1V41H69c-1.654 0-3-1.346-3-3V21H11a1 1 0 0 0-1 1v52a1 1 0 0 0 1 1z"/><path d="M85.586 39L68 21.414V38a1 1 0 0 0 1 1h16.586z"/></g><g fill="#217346"><path d="M28 44H17a1 1 0 1 1 0-2h11a1 1 0 1 1 0 2zM28 38H17a1 1 0 1 1 0-2h11a1 1 0 1 1 0 2zM28 50H17a1 1 0 1 1 0-2h11a1 1 0 1 1 0 2zM28 56H17a1 1 0 1 1 0-2h11a1 1 0 1 1 0 2zM28 62H17a1 1 0 1 1 0-2h11a1 1 0 1 1 0 2zM28 68H17a1 1 0 1 1 0-2h11a1 1 0 1 1 0 2z"/></g><g fill="#C8C6C4"><path d="M45 44H34a1 1 0 1 1 0-2h11a1 1 0 1 1 0 2zM45 38H34a1 1 0 1 1 0-2h11a1 1 0 1 1 0 2zM45 50H34a1 1 0 1 1 0-2h11a1 1 0 1 1 0 2zM45 56H34a1 1 0 1 1 0-2h11a1 1 0 1 1 0 2zM45 62H34a1 1 0 1 1 0-2h11a1 1 0 1 1 0 2zM45 68H34a1 1 0 1 1 0-2h11a1 1 0 1 1 0 2z"/></g><g fill="#C8C6C4"><path d="M62 44H51a1 1 0 1 1 0-2h11a1 1 0 1 1 0 2zM62 38H51a1 1 0 1 1 0-2h11a1 1 0 1 1 0 2zM62 50H51a1 1 0 1 1 0-2h11a1 1 0 1 1 0 2zM62 56H51a1 1 0 1 1 0-2h11a1 1 0 1 1 0 2zM62 62H51a1 1 0 1 1 0-2h11a1 1 0 1 1 0 2zM62 68H51a1 1 0 1 1 0-2h11a1 1 0 1 1 0 2z"/></g><g fill="#C8C6C4"><path d="M79 50H68a1 1 0 1 1 0-2h11a1 1 0 1 1 0 2zM79 56H68a1 1 0 1 1 0-2h11a1 1 0 1 1 0 2zM79 62H68a1 1 0 1 1 0-2h11a1 1 0 1 1 0 2zM79 68H68a1 1 0 1 1 0-2h11a1 1 0 1 1 0 2z"/></g><path opacity=".64" fill="#605E5C" d="M87.121 37.707L69.293 19.88A2.979 2.979 0 0 0 67.172 19H11c-1.654 0-3 1.346-3 3v52c0 1.654 1.346 3 3 3h74c1.654 0 3-1.346 3-3V39.828c0-.8-.313-1.554-.879-2.12zM68 21.414L85.586 39H69a1 1 0 0 1-1-1V21.414zM85 75H11a1 1 0 0 1-1-1V22a1 1 0 0 1 1-1h55v17c0 1.654 1.346 3 3 3h17v33a1 1 0 0 1-1 1z"/></svg>