<svg xmlns="http://www.w3.org/2000/svg" viewBox="0 0 96 96"><g fill="#FFF"><path d="M19 88h58a1 1 0 0 0 1-1V28H61c-1.654 0-3-1.346-3-3V8H19a1 1 0 0 0-1 1v78a1 1 0 0 0 1 1z"/><path d="M77.586 26L60 8.414V25a1 1 0 0 0 1 1h16.586z"/></g><path opacity=".64" fill="#605E5C" d="M79.121 24.707L61.293 6.879A2.978 2.978 0 0 0 59.172 6H19c-1.654 0-3 1.346-3 3v78c0 1.654 1.346 3 3 3h58c1.654 0 3-1.346 3-3V26.828c0-.8-.313-1.554-.879-2.121zM60 8.414L77.586 26H61a1 1 0 0 1-1-1V8.414zM77 88H19a1 1 0 0 1-1-1V9a1 1 0 0 1 1-1h39v17c0 1.654 1.346 3 3 3h17v59a1 1 0 0 1-1 1z"/><circle fill="none" stroke="#B4B0AD" stroke-width="2" stroke-linecap="round" stroke-linejoin="round" stroke-miterlimit="10" cx="48" cy="54" r="8"/><path fill="none" stroke="#B4B0AD" stroke-width="2" stroke-linecap="round" stroke-linejoin="bevel" stroke-miterlimit="10" d="M67.859 50.405l-4.402-.367a.308.308 0 0 1-.271-.227 15.642 15.642 0 0 0-1.49-3.584.307.307 0 0 1 .032-.352l2.857-3.375a1.245 1.245 0 0 0-.07-1.684l-3.33-3.33a1.244 1.244 0 0 0-1.685-.07l-3.375 2.856a.307.307 0 0 1-.352.031 15.65 15.65 0 0 0-3.584-1.489.304.304 0 0 1-.227-.268l-.367-4.409A1.24 1.24 0 0 0 50.355 33h-4.71c-.647 0-1.186.496-1.24 1.141l-.367 4.402a.308.308 0 0 1-.227.271 15.649 15.649 0 0 0-3.584 1.49.307.307 0 0 1-.352-.032L36.5 37.416a1.244 1.244 0 0 0-1.684.07l-3.33 3.33a1.244 1.244 0 0 0-.07 1.684l2.856 3.375c.084.1.096.24.031.352a15.642 15.642 0 0 0-1.489 3.584.308.308 0 0 1-.27.227l-4.403.367A1.244 1.244 0 0 0 27 51.645v4.71c0 .647.496 1.186 1.141 1.24l4.402.367c.13.01.237.101.271.227a15.644 15.644 0 0 0 1.49 3.584.307.307 0 0 1-.032.352L31.415 65.5a1.245 1.245 0 0 0 .07 1.684l3.33 3.33c.458.458 1.19.488 1.685.07l3.375-2.856a.307.307 0 0 1 .352-.031 15.647 15.647 0 0 0 3.584 1.489.304.304 0 0 1 .227.268l.367 4.409A1.24 1.24 0 0 0 45.645 75h4.71c.647 0 1.186-.496 1.24-1.141l.367-4.402a.308.308 0 0 1 .227-.271 15.643 15.643 0 0 0 3.584-1.49.307.307 0 0 1 .352.032l3.375 2.856a1.244 1.244 0 0 0 1.684-.07l3.33-3.33c.458-.458.488-1.19.07-1.684l-2.856-3.375a.307.307 0 0 1-.031-.352 15.646 15.646 0 0 0 1.489-3.584.308.308 0 0 1 .27-.227l4.403-.367A1.245 1.245 0 0 0 69 56.355v-4.71c0-.647-.496-1.186-1.141-1.24z"/></svg>