<svg xmlns="http://www.w3.org/2000/svg" viewBox="0 0 96 96"><linearGradient id="a" gradientUnits="userSpaceOnUse" x1="48" y1="21" x2="48" y2="76"><stop offset="0" stop-color="#c8c6c4"/><stop offset="1" stop-color="#b3b0ad"/></linearGradient><path fill-rule="evenodd" clip-rule="evenodd" fill="url(#a)" d="M86 76H10a4 4 0 0 1-4-4V25a4 4 0 0 1 4-4h76a4 4 0 0 1 4 4v47a4 4 0 0 1-4 4z"/><linearGradient id="b" gradientUnits="userSpaceOnUse" x1="15.5" y1="78" x2="15.5" y2="76"><stop offset=".001" stop-color="#797775"/><stop offset="1" stop-color="#605e5c"/></linearGradient><path fill="url(#b)" d="M18.537 78h-6.073a.75.75 0 0 1-.671-.415L11 76h9l-.793 1.585a.75.75 0 0 1-.67.415z"/><linearGradient id="c" gradientUnits="userSpaceOnUse" x1="80.5" y1="78" x2="80.5" y2="76"><stop offset=".001" stop-color="#797775"/><stop offset="1" stop-color="#605e5c"/></linearGradient><path fill="url(#c)" d="M83.537 78h-6.074a.75.75 0 0 1-.67-.415L76 76h9l-.793 1.585a.75.75 0 0 1-.67.415z"/><linearGradient id="d" gradientUnits="userSpaceOnUse" x1="22" y1="36" x2="22" y2="61"><stop offset=".001" stop-color="#797775"/><stop offset="1" stop-color="#605e5c"/></linearGradient><path fill="url(#d)" d="M22 36a3.651 3.651 0 0 0-3.636 3.983l1.766 19.31a1.877 1.877 0 0 0 3.738 0l1.767-19.31A3.65 3.65 0 0 0 22 36z"/><linearGradient id="e" gradientUnits="userSpaceOnUse" x1="46" y1="26" x2="46" y2="71"><stop offset="0" stop-color="#979593"/><stop offset="1" stop-color="#8a8886"/></linearGradient><path fill="url(#e)" d="M79 27.5a.5.5 0 0 1 .5.5v41a.5.5 0 0 1-.5.5H13a.5.5 0 0 1-.5-.5V28a.5.5 0 0 1 .5-.5h66m0-1.5H13a2 2 0 0 0-2 2v41a2 2 0 0 0 2 2h66a2 2 0 0 0 2-2V28a2 2 0 0 0-2-2z"/><linearGradient id="f" gradientUnits="userSpaceOnUse" x1="80" y1="31" x2="80" y2="37"><stop offset=".001" stop-color="#797775"/><stop offset="1" stop-color="#605e5c"/></linearGradient><path fill="url(#f)" d="M84 37h-8a1 1 0 0 1-1-1v-4a1 1 0 0 1 1-1h8a1 1 0 0 1 1 1v4a1 1 0 0 1-1 1z"/><linearGradient id="g" gradientUnits="userSpaceOnUse" x1="80" y1="60" x2="80" y2="66"><stop offset=".001" stop-color="#797775"/><stop offset="1" stop-color="#605e5c"/></linearGradient><path fill="url(#g)" d="M84 66h-8a1 1 0 0 1-1-1v-4a1 1 0 0 1 1-1h8a1 1 0 0 1 1 1v4a1 1 0 0 1-1 1z"/><linearGradient id="h" gradientUnits="userSpaceOnUse" x1="48.5" y1="33" x2="48.5" y2="64"><stop offset=".001" stop-color="#8a8886"/><stop offset="1" stop-color="#797775"/></linearGradient><path fill="url(#h)" d="M48.5 41c4.136 0 7.5 3.364 7.5 7.5S52.636 56 48.5 56 41 52.636 41 48.5s3.364-7.5 7.5-7.5m0-8C39.94 33 33 39.94 33 48.5S39.94 64 48.5 64 64 57.06 64 48.5 57.06 33 48.5 33z"/></svg>