<svg xmlns="http://www.w3.org/2000/svg" viewBox="0 0 96 96"><g fill="#FFF"><path d="M19 88h58a1 1 0 0 0 1-1V28H61c-1.654 0-3-1.346-3-3V8H19a1 1 0 0 0-1 1v78a1 1 0 0 0 1 1z"/><path d="M77.586 26L60 8.414V25a1 1 0 0 0 1 1h16.586z"/></g><path opacity=".64" fill="#605E5C" d="M79.121 24.707L61.293 6.879A2.978 2.978 0 0 0 59.172 6H19c-1.654 0-3 1.346-3 3v78c0 1.654 1.346 3 3 3h58c1.654 0 3-1.346 3-3V26.828c0-.8-.313-1.554-.879-2.121zM60 8.414L77.586 26H61a1 1 0 0 1-1-1V8.414zM77 88H19a1 1 0 0 1-1-1V9a1 1 0 0 1 1-1h39v17c0 1.654 1.346 3 3 3h17v59a1 1 0 0 1-1 1z"/><path fill="#0078D7" d="M52.935 60.046l18.616 6.98c.635.239.583 1.154-.075 1.318l-8.905 2.227-2.227 8.905c-.164.658-1.08.71-1.318.075l-6.98-18.615a.691.691 0 0 1 .89-.89z"/><path fill="none" stroke="#C8C6C4" stroke-width="2" stroke-linecap="round" stroke-miterlimit="10" d="M29.92 67.694c2.148-14.635 14.483-26.181 30-28"/><path fill="none" stroke="#0078D7" stroke-width="2" stroke-miterlimit="10" d="M33 79h-6a2 2 0 0 1-2-2v-6a2 2 0 0 1 2-2h6a2 2 0 0 1 2 2v6a2 2 0 0 1-2 2zM69 45h-6a2 2 0 0 1-2-2v-6a2 2 0 0 1 2-2h6a2 2 0 0 1 2 2v6a2 2 0 0 1-2 2z"/><circle fill="#0078D7" cx="41" cy="48" r="7"/><path fill="#FFF" d="M41 42a6 6 0 1 1 0 12 6 6 0 0 1 0-12m0-2c-4.411 0-8 3.589-8 8s3.589 8 8 8 8-3.589 8-8-3.589-8-8-8z"/></svg>