<svg xmlns="http://www.w3.org/2000/svg" viewBox="0 0 96 96"><path opacity=".64" fill="#605E5C" d="M85 90H27c-1.654 0-3-1.346-3-3V9c0-1.654 1.346-3 3-3h58c1.654 0 3 1.346 3 3v78c0 1.654-1.346 3-3 3zM27 8a1 1 0 0 0-1 1v78a1 1 0 0 0 1 1h58a1 1 0 0 0 1-1V9a1 1 0 0 0-1-1H27z"/><path fill="#FFF" d="M27 88h58a1 1 0 0 0 1-1V9a1 1 0 0 0-1-1H27a1 1 0 0 0-1 1v78a1 1 0 0 0 1 1z"/><path fill="#185ABD" d="M12 74h32a4 4 0 0 0 4-4V38a4 4 0 0 0-4-4H12a4 4 0 0 0-4 4v32a4 4 0 0 0 4 4z"/><path fill="#FFF" d="M27.306 58.221c.67 1.915 1.065 3.123 1.186 3.625h.082c.12-.502.549-1.796 1.284-3.882L35.143 43H40l-8.956 23H25.84L17 43h5.005l5.301 15.221z"/><g fill="#C8C6C4"><path opacity=".64" d="M77 82H62c-1.654 0-3-1.346-3-3V54c0-1.654 1.346-3 3-3h15c1.654 0 3 1.346 3 3v25c0 1.654-1.346 3-3 3zM62 53a1 1 0 0 0-1 1v25a1 1 0 0 0 1 1h15a1 1 0 0 0 1-1V54a1 1 0 0 0-1-1H62zM77 45H62c-1.654 0-3-1.346-3-3V17c0-1.654 1.346-3 3-3h15c1.654 0 3 1.346 3 3v25c0 1.654-1.346 3-3 3zM62 16a1 1 0 0 0-1 1v25a1 1 0 0 0 1 1h15a1 1 0 0 0 1-1V17a1 1 0 0 0-1-1H62zM50 14H35c-1.654 0-3 1.346-3 3v14h2V17a1 1 0 0 1 1-1h15a1 1 0 0 1 1 1v27.816A2.995 2.995 0 0 0 53 42V17c0-1.654-1.346-3-3-3zM51 51.184V79a1 1 0 0 1-1 1H35a1 1 0 0 1-1-1v-2h-2v2c0 1.654 1.346 3 3 3h15c1.654 0 3-1.346 3-3V54a2.995 2.995 0 0 0-2-2.816z"/></g></svg>