<svg xmlns="http://www.w3.org/2000/svg" data-name="Layer 1" viewBox="0 0 208 208">
  <title>
    airplane
  </title>
  <path fill="#b5b5b5" d="M74.39 87.3l1.75 20.28 49.7 48.93L74.39 87.3" opacity=".68"/>
  <path fill="#b5b5b5" d="M5.83 204.87L191.5 206l-23.65-11.52-93.46-17.22-68.56 27.61" opacity=".05"/>
  <path fill="#b5b5b5" d="M191.5 206l-23.65-11.52-1.27-192.35-50.1 38.16 50.1 156.83L191.5 206" opacity=".61"/>
  <path fill="#eaeae9" d="M111.88 45.97l53.61 153.81 26.19 6.22h-29.19L36.69 36.53l75.19 9.44"/>
  <path fill="#b5b5b5" d="M116.48 40.29l-2.57 11.66 51.39 147.83 26.2 6.22-24.92-8.88-50.1-156.83"/>
  <path fill="#b5b5b5" d="M165.3 199.78l-2.99 6.22h29.19l-26.2-6.22" opacity=".13"/>
  <path fill="#b5b5b5" d="M166.58 197.12l-1.28 2.66 26.2 6.22-24.92-8.88M166.58 197.12L191.5 206l-23.65-11.52-1.27 2.64" opacity=".37"/>
</svg>