<svg xmlns="http://www.w3.org/2000/svg" viewBox="0 0 16 16"><path fill="#FFF" d="M1.5 13h13a.5.5 0 0 0 .5-.5v-9a.5.5 0 0 0-.5-.5h-13a.5.5 0 0 0-.5.5v9a.5.5 0 0 0 .5.5z"/><g fill="none" stroke="#69AFE5" stroke-miterlimit="10"><circle cx="5.5" cy="6.5" r="1.107"/><path stroke-linecap="round" stroke-linejoin="round" d="M3.458 10.438S3.292 8.37 5.517 8.37c2.233 0 2.045 2.068 2.045 2.068"/></g><path fill="#C8C6C4" d="M10.516 6h1.986a.5.5 0 1 0 0-1h-1.986a.5.5 0 1 0 0 1zM10.516 8h1.986a.5.5 0 1 0 0-1h-1.986a.5.5 0 1 0 0 1zM10.516 10h1.986a.5.5 0 1 0 0-1h-1.986a.5.5 0 1 0 0 1z"/><path opacity=".64" fill="#605E5C" d="M14.5 14h-13C.673 14 0 13.327 0 12.5v-9C0 2.673.673 2 1.5 2h13c.827 0 1.5.673 1.5 1.5v9c0 .827-.673 1.5-1.5 1.5zM1.5 3a.5.5 0 0 0-.5.5v9a.5.5 0 0 0 .5.5h13a.5.5 0 0 0 .5-.5v-9a.5.5 0 0 0-.5-.5h-13z"/></svg>