<svg xmlns="http://www.w3.org/2000/svg" viewBox="0 0 16 16"><g fill="#FFF"><path d="M14 2v11a1 1 0 0 1-1 1H7v1h7.8a.2.2 0 0 0 .2-.2V2.726l-1.18-1.042-.193.316H14z"/><path d="M5 3h8v10H5z"/></g><path opacity=".64" fill="#605E5C" d="M15 3v12H7v-1h6a1 1 0 0 0 1-1V2H4v11a1 1 0 0 0 1 1h1v1a1 1 0 0 0 1 1h8a1 1 0 0 0 1-1V3h-1zM5 3h8v10h.001H5V3z"/><path fill="#41A5EE" d="M14 .097A.991.991 0 0 0 13.586 0H5a1 1 0 0 0-1 1v2h10V2l.5-.5V.75L14 .097z"/><path fill="#2B7CD3" d="M16 4V2.414a1 1 0 0 0-.293-.707L14.293.293A.997.997 0 0 0 14 .097V2l2 2z"/><path fill="#185ABD" d="M11.5 10H10v1h1.5a.5.5 0 0 0 0-1z"/><path fill="#2B7CD3" d="M11.5 8H10v1h1.5a.5.5 0 0 0 0-1z"/><path fill="#41A5EE" d="M11.5 6H10v1h1.5a.5.5 0 0 0 0-1z"/><g><path fill="#185ABD" d="M1 13h7a1 1 0 0 0 1-1V5a1 1 0 0 0-1-1H1a1 1 0 0 0-1 1v7a1 1 0 0 0 1 1z"/><path fill="#FFF" d="M5.854 10.972h-.576l-.765-3.755-.819 3.773h-.476L2.005 6l.732.002.698 3.308L4.153 6h.706l.808 3.298.606-3.267.707.005z"/></g></svg>