<svg xmlns="http://www.w3.org/2000/svg" viewBox="0 0 16 16"><g fill="#FFF"><path d="M14.317 3H1.684L8 8.345z"/><path d="M1.5 13h13a.5.5 0 0 0 .5-.5V3.732l-6.677 5.65a.501.501 0 0 1-.646 0L1 3.732V12.5a.5.5 0 0 0 .5.5z"/></g><path opacity=".64" fill="#605E5C" d="M14.5 2h-13C.673 2 0 2.673 0 3.5v9c0 .827.673 1.5 1.5 1.5h13c.827 0 1.5-.673 1.5-1.5v-9c0-.827-.673-1.5-1.5-1.5zm-.183 1L8 8.345 1.684 3h12.633zm.183 10h-13a.5.5 0 0 1-.5-.5V3.732l6.677 5.65a.501.501 0 0 0 .646 0L15 3.732V12.5a.5.5 0 0 1-.5.5z"/></svg>