<svg xmlns="http://www.w3.org/2000/svg" viewBox="0 0 16 16"><path fill="#FFF" d="M1.5 13h13c.275 0 .5-.225.5-.5V4H1v8.5c0 .275.225.5.5.5z"/><g fill="#C8C6C4"><path d="M8.5 7h-2a.5.5 0 0 1 0-1h2a.5.5 0 0 1 0 1zM8.5 9h-2a.5.5 0 0 1 0-1h2a.5.5 0 0 1 0 1zM8.5 11h-2a.5.5 0 0 1 0-1h2a.5.5 0 0 1 0 1z"/></g><path fill="#EDEBE9" d="M5 13H1.5a.5.5 0 0 1-.5-.5V4h4v9z"/><g fill="#C8C6C4"><path d="M3.5 7h-1a.5.5 0 0 1 0-1h1a.5.5 0 0 1 0 1zM3.5 9h-1a.5.5 0 0 1 0-1h1a.5.5 0 0 1 0 1zM3.5 11h-1a.5.5 0 0 1 0-1h1a.5.5 0 0 1 0 1z"/></g><path fill="#69AFE5" d="M13 11h-2a1 1 0 0 1-1-1V7a1 1 0 0 1 1-1h2a1 1 0 0 1 1 1v3a1 1 0 0 1-1 1z"/><path opacity=".64" fill="#605E5C" d="M14.5 2h-13C.673 2 0 2.673 0 3.5v9c0 .827.673 1.5 1.5 1.5h13c.827 0 1.5-.673 1.5-1.5v-9c0-.827-.673-1.5-1.5-1.5zm.5 10.5c0 .275-.225.5-.5.5h-13a.501.501 0 0 1-.5-.5V4h14v8.5z"/></svg>