<svg xmlns="http://www.w3.org/2000/svg" viewBox="0 0 16 16"><path fill="#FFF" d="M1.5 13h13c.275 0 .5-.225.5-.5V4H1v8.5c0 .275.225.5.5.5z"/><path opacity=".64" fill="#605E5C" d="M14.5 2h-13C.673 2 0 2.673 0 3.5v9c0 .827.673 1.5 1.5 1.5h13c.827 0 1.5-.673 1.5-1.5v-9c0-.827-.673-1.5-1.5-1.5zm.5 10.5c0 .275-.225.5-.5.5h-13a.501.501 0 0 1-.5-.5V4h14v8.5z"/><g fill="none" stroke="#69AFE5" stroke-miterlimit="10"><ellipse cx="7.979" cy="8.586" rx="3.432" ry="3.086"/><ellipse cx="7.979" cy="8.586" rx="1.471" ry="3.086"/><path d="M5.037 7.263h5.884M5.037 9.909h5.884"/></g></svg>