<svg xmlns="http://www.w3.org/2000/svg" viewBox="0 0 16 16"><path fill="#FFB900" d="M8 4L6.586 2.586A2 2 0 0 0 5.172 2H1a1 1 0 0 0-1 1v10a1 1 0 0 0 1 1h14a1 1 0 0 0 1-1V5a1 1 0 0 0-1-1H8z"/><path fill="#FFD75E" d="M8 4L6.586 5.414A2 2 0 0 1 5.172 6H0v7a1 1 0 0 0 1 1h14a1 1 0 0 0 1-1V5a1 1 0 0 0-1-1H8z"/><linearGradient id="a" gradientUnits="userSpaceOnUse" x1="8" y1="4" x2="8" y2="14"><stop offset="0" stop-color="#fff" stop-opacity="0"/><stop offset=".999" stop-color="#ffd75e" stop-opacity=".3"/></linearGradient><path fill="url(#a)" d="M8 4L6.586 5.414A2 2 0 0 1 5.172 6H0v7a1 1 0 0 0 1 1h14a1 1 0 0 0 1-1V5a1 1 0 0 0-1-1H8z"/><path fill="#E67628" d="M1 13.5c-.373 0-.71-.142-.973-.367A.988.988 0 0 0 1 14h14c.505 0 .905-.38.973-.867-.262.226-.6.367-.973.367H1z"/><path opacity=".4" fill="#FFF" d="M6.836 5.914L8.75 4H8L6.586 5.414A2 2 0 0 1 5.172 6H0v.5h5.422a2 2 0 0 0 1.414-.586z"/><path fill="#BF5712" d="M12.832 8.219H11.32c-1.047 0-1.9.752-1.9 1.676v.429c0 .924.853 1.676 1.9 1.676h1.51c1.048 0 1.9-.752 1.9-1.676v-.429c0-.924-.852-1.676-1.9-1.676zm1.366 2.104c0 .664-.615 1.206-1.366 1.206H11.32c-.751 0-1.366-.542-1.366-1.206v-.428c0-.663.615-1.206 1.366-1.206H12.832c.751 0 1.366.543 1.366 1.206v.428z"/><path fill="#BF5712" d="M10.504 6.375H8.993c-1.048 0-1.9.774-1.9 1.726v.44c0 .953.852 1.727 1.9 1.727H10.504c1.047 0 1.899-.774 1.899-1.726V8.1c0-.952-.852-1.726-1.9-1.726zm1.366 2.167c0 .683-.615 1.241-1.366 1.241H8.992c-.752 0-1.367-.558-1.367-1.241V8.1c0-.683.615-1.241 1.366-1.241h1.511c.752 0 1.366.558 1.366 1.24v.442z"/></svg>