<svg xmlns="http://www.w3.org/2000/svg" viewBox="0 0 16 16"><path fill="#FFF" d="M3.5 15h7a.5.5 0 0 0 .5-.5V14H5.5c-.827 0-1.5-.673-1.5-1.5V3h-.5a.5.5 0 0 0-.5.5v11a.5.5 0 0 0 .5.5z"/><path fill="#FFF" d="M13 12.5V5h-1.5c-.827 0-1.5-.673-1.5-1.5V1H5.5a.5.5 0 0 0-.5.5v11a.5.5 0 0 0 .5.5h7a.5.5 0 0 0 .5-.5z"/><path fill="#FFF" d="M13 4v-.086a.496.496 0 0 0-.146-.354L11 1.707V3.5a.5.5 0 0 0 .5.5H13z"/><path opacity=".64" fill="#605E5C" d="M13.56 2.853L11.146.44A1.51 1.51 0 0 0 10.086 0H5.5C4.673 0 4 .673 4 1.5V2h-.5C2.673 2 2 2.673 2 3.5v11c0 .827.673 1.5 1.5 1.5h7c.827 0 1.5-.673 1.5-1.5V14h.5c.827 0 1.5-.673 1.5-1.5V3.914c0-.4-.156-.777-.44-1.06zm-.707.708c.095.094.147.22.147.353V4h-1.5a.5.5 0 0 1-.5-.5V1.707l1.854 1.854zM11 14.5a.5.5 0 0 1-.5.5h-7a.5.5 0 0 1-.5-.5v-11a.5.5 0 0 1 .5-.5H4v9.5c0 .827.673 1.5 1.5 1.5H11v.5zm1.5-1.5h-7a.5.5 0 0 1-.5-.5v-11a.5.5 0 0 1 .5-.5H10v2.5c0 .827.673 1.5 1.5 1.5H13v7.5a.5.5 0 0 1-.5.5z"/></svg>