<svg xmlns="http://www.w3.org/2000/svg" viewBox="0 0 16 16"><path opacity=".64" fill="#605E5C" d="M13.5 16h-8c-.827 0-1.5-.673-1.5-1.5v-13C4 .673 4.673 0 5.5 0h8c.827 0 1.5.673 1.5 1.5v13c0 .827-.673 1.5-1.5 1.5zm-8-15a.5.5 0 0 0-.5.5v13a.5.5 0 0 0 .5.5h8a.5.5 0 0 0 .5-.5v-13a.5.5 0 0 0-.5-.5h-8z"/><path fill="#AE4BD5" d="M15.438 5H15V1h.438c.315 0 .562.26.562.594v2.812c0 .333-.247.594-.563.594z"/><path fill="#9332BF" d="M15.438 10H15V6h.438c.315 0 .562.26.562.594v2.812c0 .333-.247.594-.563.594z"/><path fill="#7719AA" d="M15.438 15H15v-4h.438c.315 0 .562.26.562.594v2.812c0 .333-.247.594-.563.594z"/><path fill="#FFF" d="M5.5 15h8a.5.5 0 0 0 .5-.5v-13a.5.5 0 0 0-.5-.5h-8a.5.5 0 0 0-.5.5v13a.5.5 0 0 0 .5.5z"/><path fill="#7719AA" d="M1 13h7a1 1 0 0 0 1-1V5a1 1 0 0 0-1-1H1a1 1 0 0 0-1 1v7a1 1 0 0 0 1 1z"/><path fill="none" stroke="#FFF" stroke-miterlimit="10" d="M2.417 10.896V6.443h.085l3.981 3.989.059-.001V6.057"/></svg>