<svg xmlns="http://www.w3.org/2000/svg" viewBox="0 0 16 16"><path fill="#FFF" d="M5.5 13h9c.325 0 .5-.166.5-.233V3.233c0-.067-.175-.233-.5-.233h-9c-.325 0-.5.166-.5.233v9.534c0 .067.175.233.5.233z"/><path opacity=".64" fill="#605E5C" d="M14.5 14h-9c-.84 0-1.5-.542-1.5-1.233V3.233C4 2.542 4.66 2 5.5 2h9c.84 0 1.5.542 1.5 1.233v9.534c0 .691-.66 1.233-1.5 1.233zm-9-11c-.325 0-.5.166-.5.233v9.534c0 .067.175.233.5.233h9c.325 0 .5-.166.5-.233V3.233c0-.067-.175-.233-.5-.233h-9z"/><path fill="#C8C6C4" d="M11 3h1v1h-1zM13 3h1v1h-1z"/><path fill="none" stroke="#C8C6C4" stroke-width=".5" stroke-miterlimit="10" d="M8 10.021L11 7M12.698 9.5l-1.198-2"/><circle fill="#C8C6C4" cx="13.01" cy="10.049" r="1.11"/><circle fill="#C8C6C4" cx="11" cy="7" r="1.11"/><path fill="#F2C80F" d="M1 13h7a1 1 0 0 0 1-1V5a1 1 0 0 0-1-1H1a1 1 0 0 0-1 1v7a1 1 0 0 0 1 1z"/><path fill="#333" d="M6.5 11a.5.5 0 0 1-.5-.5v-4a.5.5 0 0 1 1 0v4a.5.5 0 0 1-.5.5zM4.5 11a.5.5 0 0 1-.5-.5v-2a.5.5 0 0 1 1 0v2a.5.5 0 0 1-.5.5zM2.5 11a.5.5 0 0 1-.5-.5v-3a.5.5 0 0 1 1 0v3a.5.5 0 0 1-.5.5z"/></svg>