<svg xmlns="http://www.w3.org/2000/svg" viewBox="0 0 16 16"><path fill="#FFB900" d="M8 4L6.586 2.586A2 2 0 0 0 5.172 2H1a1 1 0 0 0-1 1v10a1 1 0 0 0 1 1h14a1 1 0 0 0 1-1V5a1 1 0 0 0-1-1H8z"/><path fill="#FFD75E" d="M8 4L6.586 5.414A2 2 0 0 1 5.172 6H0v7a1 1 0 0 0 1 1h14a1 1 0 0 0 1-1V5a1 1 0 0 0-1-1H8z"/><linearGradient id="a" gradientUnits="userSpaceOnUse" x1="8" y1="4" x2="8" y2="14"><stop offset="0" stop-color="#fff" stop-opacity="0"/><stop offset=".999" stop-color="#ffd75e" stop-opacity=".3"/></linearGradient><path fill="url(#a)" d="M8 4L6.586 5.414A2 2 0 0 1 5.172 6H0v7a1 1 0 0 0 1 1h14a1 1 0 0 0 1-1V5a1 1 0 0 0-1-1H8z"/><path fill="#E67628" d="M1 13.5c-.373 0-.71-.142-.973-.367A.988.988 0 0 0 1 14h14c.505 0 .905-.38.973-.867-.262.226-.6.367-.973.367H1z"/><path opacity=".4" fill="#FFF" d="M6.836 5.914L8.75 4H8L6.586 5.414A2 2 0 0 1 5.172 6H0v.5h5.422a2 2 0 0 0 1.414-.586z"/><path fill="none" stroke="#BF5712" stroke-width=".8" stroke-miterlimit="10" d="M6.59 11.399l2.927-2.917 1.962 1.81h0l1.21-.952 1.961 2.06a.05.05 0 0 1-.036.084H6.626a.05.05 0 0 1-.036-.085z"/><circle fill="#BF5712" cx="12.5" cy="7.5" r=".5"/></svg>