<svg xmlns="http://www.w3.org/2000/svg" viewBox="0 0 16 16"><g fill="#FFF"><path d="M14 2v11a1 1 0 0 1-1 1H7v1h7.8a.2.2 0 0 0 .2-.2V2.726l-1.18-1.042-.193.316H14z"/><path d="M5 3h8v10H5z"/></g><path opacity=".64" fill="#605E5C" d="M15 3v12H7v-1h6a1 1 0 0 0 1-1V2H4v11a1 1 0 0 0 1 1h1v1a1 1 0 0 0 1 1h8a1 1 0 0 0 1-1V3h-1zM5 3h8v10h.001H5V3z"/><path fill="#FF8F6B" d="M14 .097A.991.991 0 0 0 13.586 0H5a1 1 0 0 0-1 1v2h10V2l.5-.5V.75L14 .097z"/><path fill="#ED6C47" d="M16 4V2.414a1 1 0 0 0-.293-.707L14.293.293A.997.997 0 0 0 14 .097V2l2 2zM11.95 9H10v2.95A2.5 2.5 0 0 0 11.95 9z"/><path fill="#FFC7B5" d="M11 8h2a2.567 2.567 0 0 0-2-2v2z"/><g><path fill="#C43E1C" d="M1 13h7a1 1 0 0 0 1-1V5a1 1 0 0 0-1-1H1a1 1 0 0 0-1 1v7a1 1 0 0 0 1 1z"/><path fill="#FFF" d="M4 6h1v1H4zM4 8h1v1H4z"/><path fill="none" stroke="#FFF" stroke-miterlimit="10" d="M3.5 11V6"/><path fill="none" stroke="#FFF" stroke-linecap="round" stroke-linejoin="bevel" stroke-miterlimit="10" d="M4.5 6.5H5c.382 0 .624.278.624.83 0 .54-.024 1.17-.507 1.17H4.5"/><path fill-rule="evenodd" clip-rule="evenodd" fill="#FFF" d="M5 7h.159v1H5z"/></g></svg>