<svg xmlns="http://www.w3.org/2000/svg" viewBox="0 0 16 16"><g fill="#FFF"><path d="M5.5 15h9c.275 0 .5-.225.5-.5V5h-1.5c-.827 0-1.5-.673-1.5-1.5V1H5.5c-.275 0-.5.225-.5.5v13c0 .275.225.5.5.5z"/><path d="M15 4v-.086a.496.496 0 0 0-.146-.353L13 1.707V3.5c0 .275.225.5.5.5H15z"/></g><path opacity=".64" fill="#605E5C" d="M15.56 2.853L13.146.44A1.51 1.51 0 0 0 12.086 0H5.5C4.673 0 4 .673 4 1.5v13c0 .827.673 1.5 1.5 1.5h9c.827 0 1.5-.673 1.5-1.5V3.914c0-.4-.156-.777-.44-1.06zm-.707.708c.095.094.147.22.147.353V4h-1.5a.501.501 0 0 1-.5-.5V1.707l1.854 1.854zM14.5 15h-9a.501.501 0 0 1-.5-.5v-13c0-.275.225-.5.5-.5H12v2.5c0 .827.673 1.5 1.5 1.5H15v9.5c0 .275-.225.5-.5.5z"/><path fill="none" stroke="#C8C6C4" stroke-width=".5" stroke-miterlimit="10" d="M8 11.021L11 8M12.698 10.5l-1.198-2"/><circle fill="#C8C6C4" cx="13.01" cy="11.049" r="1.11"/><circle fill="#C8C6C4" cx="11" cy="8" r="1.11"/><path fill="#F2C80F" d="M1 13h7a1 1 0 0 0 1-1V5a1 1 0 0 0-1-1H1a1 1 0 0 0-1 1v7a1 1 0 0 0 1 1z"/><path fill="#333" d="M6.5 11a.5.5 0 0 1-.5-.5v-4a.5.5 0 0 1 1 0v4a.5.5 0 0 1-.5.5zM4.5 11a.5.5 0 0 1-.5-.5v-2a.5.5 0 0 1 1 0v2a.5.5 0 0 1-.5.5zM2.5 11a.5.5 0 0 1-.5-.5v-3a.5.5 0 0 1 1 0v3a.5.5 0 0 1-.5.5z"/></svg>