<svg xmlns="http://www.w3.org/2000/svg" viewBox="0 0 16 16"><g fill="#FFF"><path d="M3.5 15h9c.275 0 .5-.225.5-.5V5h-1.5c-.827 0-1.5-.673-1.5-1.5V1H3.5c-.275 0-.5.225-.5.5v13c0 .275.225.5.5.5z"/><path d="M13 4v-.086a.496.496 0 0 0-.146-.353L11 1.707V3.5c0 .275.225.5.5.5H13z"/></g><path opacity=".64" fill="#605E5C" d="M13.56 2.853L11.146.44A1.51 1.51 0 0 0 10.086 0H3.5C2.673 0 2 .673 2 1.5v13c0 .827.673 1.5 1.5 1.5h9c.827 0 1.5-.673 1.5-1.5V3.914c0-.4-.156-.777-.44-1.06zm-.707.708c.095.094.147.22.147.353V4h-1.5a.501.501 0 0 1-.5-.5V1.707l1.854 1.854zM12.5 15h-9a.501.501 0 0 1-.5-.5v-13c0-.275.225-.5.5-.5H10v2.5c0 .827.673 1.5 1.5 1.5H13v9.5c0 .275-.225.5-.5.5z"/><path fill="none" stroke="#C8C6C4" stroke-linejoin="round" stroke-miterlimit="10" d="M6.499 6.5h4v4h-4z"/><path fill="none" stroke="#C8C6C4" stroke-linecap="round" stroke-linejoin="round" stroke-miterlimit="10" d="M11.499 6.5h-6M8.499 12.5v-2M7.499 12.5h2"/><path fill="none" stroke="#F5BA9D" stroke-linecap="round" stroke-linejoin="round" stroke-miterlimit="10" d="M8.499 8.5h.01"/><path fill="none" stroke="#D04727" stroke-linecap="round" stroke-linejoin="round" stroke-miterlimit="10" d="M5.5 12.5v-3M4.5 10.5l1-1 1 1"/></svg>