<svg xmlns="http://www.w3.org/2000/svg" viewBox="0 0 16 16"><g fill="#FFF"><path d="M5.5 15h9c.275 0 .5-.225.5-.5V5h-1.5c-.827 0-1.5-.673-1.5-1.5V1H5.5c-.275 0-.5.225-.5.5v13c0 .275.225.5.5.5z"/><path d="M15 4v-.086a.496.496 0 0 0-.146-.353L13 1.707V3.5c0 .275.225.5.5.5H15z"/></g><path opacity=".64" fill="#605E5C" d="M15.56 2.853L13.146.44A1.51 1.51 0 0 0 12.086 0H5.5C4.673 0 4 .673 4 1.5v13c0 .827.673 1.5 1.5 1.5h9c.827 0 1.5-.673 1.5-1.5V3.914c0-.4-.156-.777-.44-1.06zm-.707.708c.095.094.147.22.147.353V4h-1.5a.501.501 0 0 1-.5-.5V1.707l1.854 1.854zM14.5 15h-9a.501.501 0 0 1-.5-.5v-13c0-.275.225-.5.5-.5H12v2.5c0 .827.673 1.5 1.5 1.5H15v9.5c0 .275-.225.5-.5.5z"/><path fill="#ED6C47" d="M12.95 9H11l-.5-1-.5 1v2.95A2.5 2.5 0 0 0 12.95 9z"/><path fill="#FF8F6B" d="M10.5 7c-.172 0-.338.021-.5.055V9h1V7.05a2.51 2.51 0 0 0-.5-.05z"/><path fill="#FFC7B5" d="M12 8h2a2.567 2.567 0 0 0-2-2v2z"/><g><path fill="#C43E1C" d="M1 13h7a1 1 0 0 0 1-1V5a1 1 0 0 0-1-1H1a1 1 0 0 0-1 1v7a1 1 0 0 0 1 1z"/><path fill="#FFF" d="M4 6h1v1H4zM4 8h1v1H4z"/><path fill="none" stroke="#FFF" stroke-miterlimit="10" d="M3.5 11V6"/><path fill="none" stroke="#FFF" stroke-linecap="round" stroke-linejoin="bevel" stroke-miterlimit="10" d="M4.5 6.5H5c.382 0 .624.278.624.83 0 .54-.024 1.17-.507 1.17H4.5"/><path fill-rule="evenodd" clip-rule="evenodd" fill="#FFF" d="M5 7h.159v1H5z"/></g></svg>