<svg xmlns="http://www.w3.org/2000/svg" viewBox="0 0 16 16"><path fill="#FFB900" d="M8 4L6.586 2.586A2 2 0 0 0 5.172 2H1a1 1 0 0 0-1 1v10a1 1 0 0 0 1 1h14a1 1 0 0 0 1-1V5a1 1 0 0 0-1-1H8z"/><path fill="#FFD75E" d="M8 4L6.586 5.414A2 2 0 0 1 5.172 6H0v7a1 1 0 0 0 1 1h14a1 1 0 0 0 1-1V5a1 1 0 0 0-1-1H8z"/><linearGradient id="a" gradientUnits="userSpaceOnUse" x1="8" y1="4" x2="8" y2="14"><stop offset="0" stop-color="#fff" stop-opacity="0"/><stop offset=".999" stop-color="#ffd75e" stop-opacity=".3"/></linearGradient><path fill="url(#a)" d="M8 4L6.586 5.414A2 2 0 0 1 5.172 6H0v7a1 1 0 0 0 1 1h14a1 1 0 0 0 1-1V5a1 1 0 0 0-1-1H8z"/><path fill="#E67628" d="M1 13.5c-.373 0-.71-.142-.973-.367A.988.988 0 0 0 1 14h14c.505 0 .905-.38.973-.867-.262.226-.6.367-.973.367H1z"/><path opacity=".4" fill="#FFF" d="M6.836 5.914L8.75 4H8L6.586 5.414A2 2 0 0 1 5.172 6H0v.5h5.422a2 2 0 0 0 1.414-.586z"/><g><path fill="#BF5712" d="M13.742 12.118a.374.374 0 0 1-.264-.11L7.982 6.535a.375.375 0 1 1 .53-.531l5.495 5.473a.375.375 0 0 1-.265.64zM10.829 7.526l1.373-1.37.53.53-1.374 1.37z"/><path fill="#BF5712" d="M8.268 12.117a.375.375 0 0 1-.365-.466l.375-1.5a.377.377 0 0 1 .099-.174l1.858-1.858.532.53-1.786 1.785-.198.793.793-.198 1.744-1.744.53.53-1.818 1.817a.37.37 0 0 1-.174.099l-1.5.375a.381.381 0 0 1-.09.011zM12.02 8.586l1.306-1.305.53.53-1.308 1.305z"/><path fill="#BF5712" d="M13.855 7.81l-.53-.53a.42.42 0 0 0-.595-.594l-.53-.53a1.174 1.174 0 0 1 1.655-.001c.457.457.457 1.199 0 1.656zM11.636 7.249l.531-.531 1.125 1.125-.53.53z"/></g></svg>