<svg xmlns="http://www.w3.org/2000/svg" viewBox="0 0 16 16"><g fill="#FFF"><path d="M3.5 15h9c.275 0 .5-.225.5-.5V5h-1.5c-.827 0-1.5-.673-1.5-1.5V1H3.5c-.275 0-.5.225-.5.5v13c0 .275.225.5.5.5z"/><path d="M13 4v-.086a.496.496 0 0 0-.146-.353L11 1.707V3.5c0 .275.225.5.5.5H13z"/></g><path opacity=".64" fill="#605E5C" d="M13.56 2.853L11.146.44A1.51 1.51 0 0 0 10.086 0H3.5C2.673 0 2 .673 2 1.5v13c0 .827.673 1.5 1.5 1.5h9c.827 0 1.5-.673 1.5-1.5V3.914c0-.4-.156-.777-.44-1.06zm-.707.708c.095.094.147.22.147.353V4h-1.5a.501.501 0 0 1-.5-.5V1.707l1.854 1.854zM12.5 15h-9a.501.501 0 0 1-.5-.5v-13c0-.275.225-.5.5-.5H10v2.5c0 .827.673 1.5 1.5 1.5H13v9.5c0 .275-.225.5-.5.5z"/><path fill="#BDBBB8" d="M7.556 13H4.444C4.2 13 4 12.776 4 12.5s.199-.5.444-.5h3.111c.246 0 .445.224.445.5s-.199.5-.444.5zM7.556 11H4.444C4.2 11 4 10.776 4 10.5s.199-.5.444-.5h3.111c.246 0 .445.224.445.5s-.199.5-.444.5z"/><path fill="#0078D7" d="M11.556 9H9.444C9.2 9 9 8.776 9 8.5s.199-.5.444-.5h2.111c.246 0 .445.224.445.5s-.199.5-.444.5z"/><path fill="#69AFE5" d="M11.556 7H9.444C9.2 7 9 6.776 9 6.5s.199-.5.444-.5h2.111c.246 0 .445.224.445.5s-.199.5-.444.5z"/><path fill="#0078D7" d="M8 9h-.876l-.348-.909H5.183L4.853 9H4l1.553-4h.85L8 9zM6.518 7.418l-.55-1.485-.538 1.485h1.088z"/><path fill="#69AFE5" d="M11.5 13h-2a.5.5 0 0 1-.5-.5v-2a.5.5 0 0 1 .5-.5h2a.5.5 0 0 1 .5.5v2a.5.5 0 0 1-.5.5z"/></svg>