<svg xmlns="http://www.w3.org/2000/svg" viewBox="0 0 16 16"><path fill="#FFF" d="M12.5 3H4.484a.497.497 0 0 0-.5.501L4 11.742a1.27 1.27 0 0 0 1.268 1.265L13.726 13a1.268 1.268 0 0 0 1.264-1.263L15 8H14v2.5a.5.5 0 1 1-1 0v-7c0-.275-.225-.5-.5-.5z"/><path fill="#81C8C3" d="M6 9h5a1 1 0 0 0 1-1V6a1 1 0 0 0-1-1H6a1 1 0 0 0-1 1v2a1 1 0 0 0 1 1z"/><path fill="#BDBBB8" d="M7 11h4.5a.5.5 0 1 0 0-1H7v1z"/><path opacity=".64" fill="#605E5C" d="M5.268 14.007A2.27 2.27 0 0 1 3 11.744l-.016-8.241c0-.401.156-.778.439-1.063S4.083 2 4.484 2H12.5c.827 0 1.5.673 1.5 1.5V7h1.5a.5.5 0 0 1 .5.501l-.01 4.238A2.27 2.27 0 0 1 13.727 14l-8.46.007zM4.484 3a.497.497 0 0 0-.5.501L4 11.742a1.27 1.27 0 0 0 1.268 1.265L13.726 13a1.268 1.268 0 0 0 1.264-1.263L15 8H14v2.5a.5.5 0 1 1-1 0v-7c0-.275-.225-.5-.5-.5H4.484z"/><path fill="#03787C" d="M1 13h7a1 1 0 0 0 1-1V5a1 1 0 0 0-1-1H1a1 1 0 0 0-1 1v7a1 1 0 0 0 1 1z"/><path fill="#FFF" d="M3.229 11v-1h1.662c.153 0 .148-.19.148-.555 0-.31-.01-.445-.157-.457L4 8.98c-.055-.002-1-.028-1-1.496C3 6.31 3.66 6 4.009 6h1.835v1H4.053c-.088 0-.084.114-.084.483 0 .436.028.517.119.528l.865.004c.176.01.425.026.648.234.27.253.372.637.372 1.178 0 1.409-.903 1.564-.942 1.57L3.229 11z"/></svg>