<svg xmlns="http://www.w3.org/2000/svg" viewBox="0 0 16 16"><path fill="#FFF" d="M5.5 13h9c.325 0 .5-.166.5-.233V3.233c0-.067-.175-.233-.5-.233h-9c-.325 0-.5.166-.5.233v9.534c0 .067.175.233.5.233z"/><path fill="#81C8C3" d="M7 10h6a1 1 0 0 0 1-1V6a1 1 0 0 0-1-1H7a1 1 0 0 0-1 1v3a1 1 0 0 0 1 1z"/><path fill="#C8C6C4" d="M6 12h7.5a.5.5 0 1 0 0-1H6v1z"/><path opacity=".64" fill="#605E5C" d="M14.5 14h-9c-.84 0-1.5-.542-1.5-1.233V3.233C4 2.542 4.66 2 5.5 2h9c.84 0 1.5.542 1.5 1.233v9.534c0 .691-.66 1.233-1.5 1.233zm-9-11c-.325 0-.5.166-.5.233v9.534c0 .067.175.233.5.233h9c.325 0 .5-.166.5-.233V3.233c0-.067-.175-.233-.5-.233h-9z"/><path fill="#03787C" d="M1 13h7a1 1 0 0 0 1-1V5a1 1 0 0 0-1-1H1a1 1 0 0 0-1 1v7a1 1 0 0 0 1 1z"/><path fill="#FFF" d="M3.229 11v-1h1.662c.153 0 .148-.19.148-.555 0-.31-.01-.445-.157-.457L4 8.98c-.055-.002-1-.028-1-1.496C3 6.31 3.66 6 4.009 6h1.835v1H4.053c-.088 0-.084.114-.084.483 0 .436.028.517.119.528l.865.004c.176.01.425.026.648.234.27.253.372.637.372 1.178 0 1.409-.903 1.564-.942 1.57L3.229 11z"/><path fill="#C8C6C4" d="M11 3h1v1h-1zM13 3h1v1h-1z"/></svg>