<svg xmlns="http://www.w3.org/2000/svg" viewBox="0 0 16 16"><g fill="#FFF"><path d="M1.5 13h13c.267 0 .5-.162.5-.346V6h-2.5c-.827 0-1.5-.673-1.5-1.5V3H1.5c-.267 0-.5.162-.5.346v9.308c0 .184.233.346.5.346z"/><path d="M14.638 5L12.01 3.157c-.003-.003-.007-.003-.01-.006V4.5a.5.5 0 0 0 .5.5h2.138z"/></g><path fill="#217346" d="M4.5 7h-2a.5.5 0 0 1 0-1h2a.5.5 0 0 1 0 1z"/><path fill="#C8C6C4" d="M4.5 9h-2a.5.5 0 0 1 0-1h2a.5.5 0 0 1 0 1zM4.5 11h-2a.5.5 0 0 1 0-1h2a.5.5 0 0 1 0 1z"/><g fill="#C8C6C4"><path d="M8.5 7h-2a.5.5 0 0 1 0-1h2a.5.5 0 0 1 0 1zM8.5 9h-2a.5.5 0 0 1 0-1h2a.5.5 0 0 1 0 1zM8.5 11h-2a.5.5 0 0 1 0-1h2a.5.5 0 0 1 0 1z"/></g><g fill="#C8C6C4"><path d="M12.5 9h-2a.5.5 0 0 1 0-1h2a.5.5 0 0 1 0 1zM12.5 11h-2a.5.5 0 0 1 0-1h2a.5.5 0 0 1 0 1z"/></g><path opacity=".64" fill="#605E5C" d="M15.494 4.381L12.62 2.366A1.592 1.592 0 0 0 11.59 2H1.5C.673 2 0 2.604 0 3.346v9.308C0 13.396.673 14 1.5 14h13c.827 0 1.5-.604 1.5-1.346V5.389c0-.37-.17-.727-.506-1.008zM14.638 5H12.5a.5.5 0 0 1-.5-.5V3.151c.003.003.007.003.01.006L14.638 5zm-.138 8h-13c-.267 0-.5-.162-.5-.346V3.346C1 3.162 1.233 3 1.5 3H11v1.5c0 .827.673 1.5 1.5 1.5H15v6.654c0 .184-.233.346-.5.346z"/></svg>