<svg xmlns="http://www.w3.org/2000/svg" viewBox="0 0 16 16"><path fill="#FFF" d="M2.5 14h11c.275 0 .5-.225.5-.5v-11c0-.275-.225-.5-.5-.5h-11c-.275 0-.5.225-.5.5v11c0 .275.225.5.5.5z"/><path opacity=".64" fill="#605E5C" d="M13.5 15h-11c-.827 0-1.5-.673-1.5-1.5v-11C1 1.673 1.673 1 2.5 1h11c.827 0 1.5.673 1.5 1.5v11c0 .827-.673 1.5-1.5 1.5zM2.5 2a.5.5 0 0 0-.5.5v11a.5.5 0 0 0 .5.5h11a.5.5 0 0 0 .5-.5v-11a.5.5 0 0 0-.5-.5h-11z"/><g fill-rule="evenodd" clip-rule="evenodd"><path fill="#BC1948" d="M6 8v3.32c0 .34.373.545.656.36l5.183-3.386A.352.352 0 0 0 12 8H6z"/><path fill="#E8467C" d="M6 8V4.68c0-.34.373-.545.656-.36l5.183 3.386c.106.07.16.182.161.294H6z"/><path fill="#8C193F" d="M4.898 5.792l3.084 1.992a.257.257 0 0 1 0 .432l-3.084 1.992a.258.258 0 0 1-.398-.216V6.008c0-.204.227-.327.398-.216"/></g></svg>