<svg xmlns="http://www.w3.org/2000/svg" viewBox="0 0 16 16"><g fill="#FFF"><path d="M5.5 15h9c.275 0 .5-.225.5-.5V5h-1.5c-.827 0-1.5-.673-1.5-1.5V1H5.5c-.275 0-.5.225-.5.5v13c0 .275.225.5.5.5z"/><path d="M15 4v-.086a.496.496 0 0 0-.146-.353L13 1.707V3.5c0 .275.225.5.5.5H15z"/></g><path opacity=".64" fill="#605E5C" d="M15.56 2.853L13.146.44A1.51 1.51 0 0 0 12.086 0H5.5C4.673 0 4 .673 4 1.5v13c0 .827.673 1.5 1.5 1.5h9c.827 0 1.5-.673 1.5-1.5V3.914c0-.4-.156-.777-.44-1.06zm-.707.708c.095.094.147.22.147.353V4h-1.5a.501.501 0 0 1-.5-.5V1.707l1.854 1.854zM14.5 15h-9a.501.501 0 0 1-.5-.5v-13c0-.275.225-.5.5-.5H12v2.5c0 .827.673 1.5 1.5 1.5H15v9.5c0 .275-.225.5-.5.5z"/><path fill="#BDBBB8" d="M8 13h5.4c.332 0 .6-.224.6-.5s-.268-.5-.6-.5H8v1z"/><path fill="#99CDC7" d="M9.955 7l-3 4h6z"/><path fill="#99CDC7" d="M11.955 8.333l-2 2.667h4z"/><circle fill="#99CDC7" cx="13" cy="7" r="1"/><path fill="#008272" d="M1 13h7a1 1 0 0 0 1-1V5a1 1 0 0 0-1-1H1a1 1 0 0 0-1 1v7a1 1 0 0 0 1 1z"/><path fill="#FFF" d="M3.229 11v-1h1.662c.153 0 .148-.19.148-.555 0-.31-.01-.445-.157-.457L4 8.98c-.055-.002-1-.028-1-1.496C3 6.31 3.66 6 4.009 6h1.835v1H4.053c-.088 0-.084.114-.084.483 0 .436.028.517.119.528l.865.004c.176.01.425.026.648.234.27.253.372.637.372 1.178 0 1.409-.903 1.564-.942 1.57L3.229 11z"/></svg>