<svg xmlns="http://www.w3.org/2000/svg" viewBox="0 0 16 16"><g fill="#FFF"><path d="M3.5 15h9c.275 0 .5-.225.5-.5V5h-1.5c-.827 0-1.5-.673-1.5-1.5V1H3.5c-.275 0-.5.225-.5.5v13c0 .275.225.5.5.5z"/><path d="M13 4v-.086a.496.496 0 0 0-.146-.353L11 1.707V3.5c0 .275.225.5.5.5H13z"/></g><path opacity=".64" fill="#605E5C" d="M13.56 2.853L11.146.44A1.51 1.51 0 0 0 10.086 0H3.5C2.673 0 2 .673 2 1.5v13c0 .827.673 1.5 1.5 1.5h9c.827 0 1.5-.673 1.5-1.5V3.914c0-.4-.156-.777-.44-1.06zm-.707.708c.095.094.147.22.147.353V4h-1.5a.501.501 0 0 1-.5-.5V1.707l1.854 1.854zM12.5 15h-9a.501.501 0 0 1-.5-.5v-13c0-.275.225-.5.5-.5H10v2.5c0 .827.673 1.5 1.5 1.5H13v9.5c0 .275-.225.5-.5.5z"/><path fill="none" stroke="#B4B0AD" stroke-linejoin="round" stroke-miterlimit="10" d="M11.31 9.4l-.734-.06a.051.051 0 0 1-.045-.038 2.606 2.606 0 0 0-.248-.597.051.051 0 0 1 .005-.06l.476-.562a.207.207 0 0 0-.012-.28l-.555-.555a.207.207 0 0 0-.28-.012l-.563.476a.051.051 0 0 1-.058.005 2.607 2.607 0 0 0-.6-.248.047.047 0 0 1-.035-.042l-.062-.738a.206.206 0 0 0-.207-.189h-.784a.207.207 0 0 0-.207.19l-.061.734a.051.051 0 0 1-.038.045 2.6 2.6 0 0 0-.599.249.048.048 0 0 1-.055-.004l-.566-.479a.206.206 0 0 0-.28.013l-.554.555a.207.207 0 0 0-.012.28l.476.563a.05.05 0 0 1 .005.058c-.106.187-.19.387-.248.598a.051.051 0 0 1-.045.038l-.734.06a.207.207 0 0 0-.19.207v.786c0 .107.083.197.19.206l.734.061c.022.002.04.017.045.038.058.211.142.411.248.597a.051.051 0 0 1-.005.06l-.476.562a.207.207 0 0 0 .012.28l.555.555a.207.207 0 0 0 .28.012l.563-.476a.051.051 0 0 1 .059-.005c.186.106.387.19.599.248.02.006.034.021.036.042l.061.738a.206.206 0 0 0 .207.189h.785a.207.207 0 0 0 .206-.19l.061-.734a.051.051 0 0 1 .038-.045c.212-.058.412-.143.599-.249.018-.01.039-.01.055.004l.566.479c.082.07.203.064.28-.013l.554-.555a.207.207 0 0 0 .012-.28l-.476-.563a.051.051 0 0 1-.005-.059c.106-.186.19-.386.248-.597a.051.051 0 0 1 .045-.038l.734-.06a.207.207 0 0 0 .19-.208v-.785a.207.207 0 0 0-.19-.206z"/><circle fill="none" stroke="#B4B0AD" stroke-linecap="round" stroke-linejoin="round" stroke-miterlimit="10" cx="8" cy="10" r=".5"/></svg>