<svg xmlns="http://www.w3.org/2000/svg" viewBox="0 0 16 16"><linearGradient id="a" gradientUnits="userSpaceOnUse" x1="8" y1="3" x2="8" y2="14"><stop offset="0" stop-color="#c8c6c4"/><stop offset="1" stop-color="#b3b0ad"/></linearGradient><path fill-rule="evenodd" clip-rule="evenodd" fill="url(#a)" d="M15 14H1a1 1 0 0 1-1-1V4a1 1 0 0 1 1-1h14a1 1 0 0 1 1 1v9a1 1 0 0 1-1 1z"/><linearGradient id="b" gradientUnits="userSpaceOnUse" x1="7.5" y1="4" x2="7.5" y2="13"><stop offset="0" stop-color="#979593"/><stop offset="1" stop-color="#8a8886"/></linearGradient><path fill="url(#b)" d="M13.25 4.75v7.5H1.75v-7.5h11.5M13.5 4h-12a.5.5 0 0 0-.5.5v8a.5.5 0 0 0 .5.5h12a.5.5 0 0 0 .5-.5v-8a.5.5 0 0 0-.5-.5z"/><linearGradient id="c" gradientUnits="userSpaceOnUse" x1="3.5" y1="6" x2="3.5" y2="11"><stop offset=".001" stop-color="#797775"/><stop offset="1" stop-color="#605e5c"/></linearGradient><path fill="url(#c)" d="M3.5 11a.5.5 0 0 1-.5-.5v-4a.5.5 0 0 1 1 0v4a.5.5 0 0 1-.5.5z"/><linearGradient id="d" gradientUnits="userSpaceOnUse" x1="13.5" y1="6" x2="13.5" y2="7"><stop offset=".001" stop-color="#797775"/><stop offset="1" stop-color="#605e5c"/></linearGradient><path fill="url(#d)" d="M14.5 7h-2a.5.5 0 0 1 0-1h2a.5.5 0 0 1 0 1z"/><linearGradient id="e" gradientUnits="userSpaceOnUse" x1="13.5" y1="10" x2="13.5" y2="11"><stop offset=".001" stop-color="#797775"/><stop offset="1" stop-color="#605e5c"/></linearGradient><path fill="url(#e)" d="M14.5 11h-2a.5.5 0 0 1 0-1h2a.5.5 0 0 1 0 1z"/><linearGradient id="f" gradientUnits="userSpaceOnUse" x1="8" y1="6" x2="8" y2="11"><stop offset=".001" stop-color="#8a8886"/><stop offset="1" stop-color="#797775"/></linearGradient><path fill="url(#f)" d="M8 7.25A1.251 1.251 0 1 1 6.75 8.5c0-.69.56-1.25 1.25-1.25M8 6a2.5 2.5 0 1 0 0 5 2.5 2.5 0 0 0 0-5z"/></svg>