<svg xmlns="http://www.w3.org/2000/svg" viewBox="0 0 16 16"><linearGradient id="a" gradientUnits="userSpaceOnUse" x1="8" y1="3" x2="8" y2="14"><stop offset="0" stop-color="#c8c6c4"/><stop offset="1" stop-color="#b3b0ad"/></linearGradient><path fill-rule="evenodd" clip-rule="evenodd" fill="url(#a)" d="M15 14H1a1 1 0 0 1-1-1V4a1 1 0 0 1 1-1h14a1 1 0 0 1 1 1v9a1 1 0 0 1-1 1z"/><path fill="#797775" d="M1 4h13v9H1z"/><linearGradient id="b" gradientUnits="userSpaceOnUse" x1="14.5" y1="6" x2="14.5" y2="11"><stop offset=".001" stop-color="#797775"/><stop offset="1" stop-color="#605e5c"/></linearGradient><path fill="url(#b)" d="M14.5 11H14V6h.5a.5.5 0 0 1 .5.5v4a.5.5 0 0 1-.5.5z"/><path fill="#E1DFDD" d="M14 14h-1.5a.5.5 0 0 1-.5-.5v-11a.5.5 0 0 1 .5-.5H14v12z"/><linearGradient id="c" gradientUnits="userSpaceOnUse" x1="13" y1="2" x2="13" y2="14"><stop offset="0" stop-color="#e1dfdd" stop-opacity="0"/><stop offset="1" stop-color="#bebbb8" stop-opacity=".2"/></linearGradient><path fill="url(#c)" d="M14 14h-1.5a.5.5 0 0 1-.5-.5v-11a.5.5 0 0 1 .5-.5H14v12z"/><linearGradient id="d" gradientUnits="userSpaceOnUse" x1="6.5" y1="4" x2="6.5" y2="5"><stop offset="0" stop-color="#a19f9d"/><stop offset=".999" stop-color="#605e5c" stop-opacity=".3"/></linearGradient><path fill="url(#d)" d="M12 5H2L1 4h11z"/><linearGradient id="e" gradientUnits="userSpaceOnUse" x1="6.5" y1="13" x2="6.5" y2="12"><stop offset="0" stop-color="#a19f9d"/><stop offset=".999" stop-color="#605e5c" stop-opacity=".3"/></linearGradient><path fill="url(#e)" d="M12 13H1l1-1h10z"/><linearGradient id="f" gradientUnits="userSpaceOnUse" x1="1" y1="8.5" x2="2" y2="8.5"><stop offset="0" stop-color="#a19f9d"/><stop offset=".999" stop-color="#605e5c" stop-opacity=".3"/></linearGradient><path fill="url(#f)" d="M2 12l-1 1V4l1 1z"/><path fill="#FFF" d="M8.7 12H4.3a.3.3 0 0 1-.3-.3V5.3a.3.3 0 0 1 .3-.3H7l2 2v4.7a.3.3 0 0 1-.3.3z"/><path fill="#EDEBE9" d="M9 7H7.3a.3.3 0 0 1-.3-.3V5"/></svg>