<svg xmlns="http://www.w3.org/2000/svg" viewBox="0 0 16 16"><g fill="#FFF"><path d="M3.5 15h9c.275 0 .5-.225.5-.5V5h-1.5c-.827 0-1.5-.673-1.5-1.5V1H3.5c-.275 0-.5.225-.5.5v13c0 .275.225.5.5.5z"/><path d="M13 4v-.086a.496.496 0 0 0-.146-.353L11 1.707V3.5c0 .275.225.5.5.5H13z"/></g><path opacity=".64" fill="#605E5C" d="M13.56 2.853L11.146.44A1.51 1.51 0 0 0 10.086 0H3.5C2.673 0 2 .673 2 1.5v13c0 .827.673 1.5 1.5 1.5h9c.827 0 1.5-.673 1.5-1.5V3.914c0-.4-.156-.777-.44-1.06zm-.707.708c.095.094.147.22.147.353V4h-1.5a.501.501 0 0 1-.5-.5V1.707l1.854 1.854zM12.5 15h-9a.501.501 0 0 1-.5-.5v-13c0-.275.225-.5.5-.5H10v2.5c0 .827.673 1.5 1.5 1.5H13v9.5c0 .275-.225.5-.5.5z"/><path fill="#0078D7" d="M8.187 10.01l3.723 1.395a.138.138 0 0 1-.015.264l-1.78.445-.446 1.781a.138.138 0 0 1-.264.015L8.01 10.187a.138.138 0 0 1 .178-.178z"/><path fill="none" stroke="#C8C6C4" stroke-linecap="round" stroke-miterlimit="10" d="M6.5 7.5h3M5.5 8.5v3"/><path fill="none" stroke="#0078D7" stroke-miterlimit="10" d="M9.5 6.5h2v2h-2z"/><circle fill="#0078D7" cx="5.5" cy="7.5" r="1.5"/><path fill="none" stroke="#0078D7" stroke-miterlimit="10" d="M4.5 11.5h2v2h-2z"/></svg>