<svg xmlns="http://www.w3.org/2000/svg" viewBox="0 0 16 16"><path fill="#FFF" d="M2.5 14h11c.275 0 .5-.225.5-.5v-11c0-.275-.225-.5-.5-.5h-11c-.275 0-.5.225-.5.5v11c0 .275.225.5.5.5z"/><path opacity=".64" fill="#605E5C" d="M13.5 15h-11c-.827 0-1.5-.673-1.5-1.5v-11C1 1.673 1.673 1 2.5 1h11c.827 0 1.5.673 1.5 1.5v11c0 .827-.673 1.5-1.5 1.5zM2.5 2a.5.5 0 0 0-.5.5v11a.5.5 0 0 0 .5.5h11a.5.5 0 0 0 .5-.5v-11a.5.5 0 0 0-.5-.5h-11z"/><path fill="none" stroke="#C8C6C4" stroke-linecap="round" stroke-linejoin="round" stroke-miterlimit="10" d="M10.5 8l-4-2.5v5z"/></svg>