<svg xmlns="http://www.w3.org/2000/svg" viewBox="0 0 16 16"><path fill="#FFF" d="M1 3.18v9.66l.086-.02c1.004-.245 3.353-.817 6.861-.817 3.729 0 5.845.529 6.982.813l.071.018V3.151a1.31 1.31 0 0 0-.053.013c-1.01.251-3.376.839-7.062.839-2.452 0-4.768-.277-6.885-.823z"/><path fill="#605E5C" d="M15.294 13.91a.764.764 0 0 1-.162-.018 17.867 17.867 0 0 1-.446-.108C13.59 13.51 11.552 13 7.946 13c-3.387 0-5.656.552-6.625.788-.218.053-.379.091-.48.108a.738.738 0 0 1-.6-.16.685.685 0 0 1-.242-.524V2.788c0-.22.096-.42.263-.552a.718.718 0 0 1 .617-.125l.169.045c2.09.56 4.39.844 6.836.844 3.564 0 5.847-.567 6.821-.81.19-.046.33-.08.417-.096a.781.781 0 0 1 .626.165.69.69 0 0 1 .251.528v10.426a.688.688 0 0 1-.258.54.714.714 0 0 1-.448.156zM1 3.176v9.66l.086-.02C2.089 12.571 4.439 12 7.947 12c3.729 0 5.845.53 6.982.814l.071.018V3.148a1.31 1.31 0 0 0-.053.014c-1.01.25-3.376.838-7.062.838C5.433 4 3.117 3.723 1 3.177z" opacity=".64"/><path fill="none" stroke="#69AFE5" stroke-linecap="round" stroke-linejoin="round" stroke-miterlimit="10" d="M10.676 8.018L6.5 6.082v3.87z"/></svg>