<svg xmlns="http://www.w3.org/2000/svg" viewBox="0 0 16 16"><path opacity=".64" fill="#605E5C" d="M14.5 16h-9c-.827 0-1.5-.673-1.5-1.5v-13C4 .673 4.673 0 5.5 0h9c.827 0 1.5.673 1.5 1.5v13c0 .827-.673 1.5-1.5 1.5zm-9-15a.5.5 0 0 0-.5.5v13a.5.5 0 0 0 .5.5h9a.5.5 0 0 0 .5-.5v-13a.5.5 0 0 0-.5-.5h-9z"/><path fill="#FFF" d="M5.5 15h9a.5.5 0 0 0 .5-.5v-13a.5.5 0 0 0-.5-.5h-9a.5.5 0 0 0-.5.5v13a.5.5 0 0 0 .5.5z"/><path fill="#185ABD" d="M1 13h7a1 1 0 0 0 1-1V5a1 1 0 0 0-1-1H1a1 1 0 0 0-1 1v7a1 1 0 0 0 1 1z"/><path fill="#FFF" d="M4.23 11L2.015 6h.953l1.546 3.565L6.015 6H7l-2.223 5z"/><g fill="#C8C6C4"><path d="M12.5 7h-1A1.5 1.5 0 0 1 10 5.5v-2A1.5 1.5 0 0 1 11.5 2h1A1.5 1.5 0 0 1 14 3.5v2A1.5 1.5 0 0 1 12.5 7zm-1-1h1a.5.5 0 0 0 .5-.5v-2a.5.5 0 0 0-.5-.5h-1a.5.5 0 0 0-.5.5v2a.5.5 0 0 0 .5.5zM12.5 14h-1a1.5 1.5 0 0 1-1.5-1.5v-2A1.5 1.5 0 0 1 11.5 9h1a1.5 1.5 0 0 1 1.5 1.5v2a1.5 1.5 0 0 1-1.5 1.5zm-1-1h1a.5.5 0 0 0 .5-.5v-2a.5.5 0 0 0-.5-.5h-1a.5.5 0 0 0-.5.5v2a.5.5 0 0 0 .5.5z"/></g></svg>