<svg xmlns="http://www.w3.org/2000/svg" viewBox="0 0 16 16"><g fill="#FFF"><path d="M5.5 15h9c.275 0 .5-.225.5-.5V5h-1.5c-.827 0-1.5-.673-1.5-1.5V1H5.5c-.275 0-.5.225-.5.5v13c0 .275.225.5.5.5z"/><path d="M15 4v-.086a.496.496 0 0 0-.146-.353L13 1.707V3.5c0 .275.225.5.5.5H15z"/></g><path opacity=".64" fill="#605E5C" d="M15.56 2.853L13.146.44A1.51 1.51 0 0 0 12.086 0H5.5C4.673 0 4 .673 4 1.5v13c0 .827.673 1.5 1.5 1.5h9c.827 0 1.5-.673 1.5-1.5V3.914c0-.4-.156-.777-.44-1.06zm-.707.708c.095.094.147.22.147.353V4h-1.5a.501.501 0 0 1-.5-.5V1.707l1.854 1.854zM14.5 15h-9a.501.501 0 0 1-.5-.5v-13c0-.275.225-.5.5-.5H12v2.5c0 .827.673 1.5 1.5 1.5H15v9.5c0 .275-.225.5-.5.5z"/><path fill="#134A2C" d="M13.5 10h-3a.5.5 0 1 0 0 1h3a.5.5 0 1 0 0-1z"/><path fill="#21A366" d="M13.5 8h-3a.5.5 0 1 0 0 1h3a.5.5 0 1 0 0-1z"/><path fill="#33C481" d="M13.5 6h-3a.5.5 0 1 0 0 1h3a.5.5 0 1 0 0-1z"/><g><path fill="#107C41" d="M1 13h7a1 1 0 0 0 1-1V5a1 1 0 0 0-1-1H1a1 1 0 0 0-1 1v7a1 1 0 0 0 1 1z"/><g fill="#FFF"><path d="M5.412 11L2.765 6h.823l2.69 5z"/><path d="M3.631 11l2.647-5h-.823l-2.69 5z"/></g></g></svg>