<svg width="118" height="86" xmlns="http://www.w3.org/2000/svg"><defs><linearGradient x1="44.291%" y1="50%" x2="44.291%" y2="100%" id="a"><stop stop-color="#FFF" stop-opacity="0" offset="0%"/><stop stop-color="#FFD75E" stop-opacity=".3" offset="100%"/></linearGradient></defs><g fill="none" fill-rule="evenodd"><path d="M49.343 55.657L55 50h56a4 4 0 0 1 4 4v28a1 1 0 0 1-1 1H4a1 1 0 0 1-1-1V58h40.686a8 8 0 0 0 5.657-2.343z" fill="#FFD75F" fill-rule="nonzero"/><path d="M65.657 5.657L60 0H4a4 4 0 0 0-4 4v28a1 1 0 0 0 1 1h110a1 1 0 0 0 1-1V8H71.314a8 8 0 0 1-5.657-2.343z" fill="url(#a)" fill-rule="nonzero" transform="matrix(-1 0 0 1 115 50)"/><path d="M3 82h112a1 1 0 0 1-1 1H4a1 1 0 0 1-1-1z" fill="#DA7B16"/><path d="M49.343 55.657L55 50h1.5l-6.364 6.364A9 9 0 0 1 43.772 59H3v-1h40.686a8 8 0 0 0 5.657-2.343z" fill="#FFF" fill-rule="nonzero" opacity=".4"/></g></svg>