<svg width="78" height="58" xmlns="http://www.w3.org/2000/svg"><defs><linearGradient x1="44.291%" y1="50%" x2="44.291%" y2="100%" id="a"><stop stop-color="#FFF" stop-opacity="0" offset="0%"/><stop stop-color="#FFD75E" stop-opacity=".3" offset="100%"/></linearGradient></defs><g fill="none" fill-rule="evenodd"><path d="M3 13h25.537a6 6 0 0 0 4.258-1.772L36 8h36a3 3 0 0 1 3 3v43a1 1 0 0 1-1 1H4a1 1 0 0 1-1-1V13z" fill="#FFD75E"/><path d="M0 5h25.537a6 6 0 0 0 4.258-1.772L33 0h36a3 3 0 0 1 3 3v43a1 1 0 0 1-1 1H1a1 1 0 0 1-1-1V5z" fill="url(#a)" transform="translate(3 8)"/><path d="M3 13h25.537a6 6 0 0 0 4.258-1.772L36 8h1.5l-4.243 4.243A6 6 0 0 1 29.015 14H3v-1z" fill="#FFF" opacity=".4"/><path d="M3 54h72a1 1 0 0 1-1 1H4a1 1 0 0 1-1-1z" fill="#DA7B16"/></g></svg>