<svg id="Layer_1" data-name="Layer 1" xmlns="http://www.w3.org/2000/svg" xmlns:xlink="http://www.w3.org/1999/xlink" width="78" height="58" viewBox="0 0 78 58"><defs><style>.cls-1{fill:url(#linear-gradient);}.cls-2{fill:#a6a6a6;}.cls-3{fill:url(#linear-gradient-2);}.cls-4{fill:#fff;opacity:0.15;}</style><linearGradient id="linear-gradient" x1="40.92" y1="-0.98" x2="38.11" y2="31.22" gradientUnits="userSpaceOnUse"><stop offset="0" stop-color="#828282" stop-opacity="0"/><stop offset="0.86" stop-color="#454545" stop-opacity="0.12"/><stop offset="1" stop-opacity="0.25"/></linearGradient><linearGradient id="linear-gradient-2" x1="14.77" y1="14.12" x2="59.29" y2="67.18" gradientUnits="userSpaceOnUse"><stop offset="0" stop-opacity="0"/><stop offset="0.86" stop-opacity="0.13"/><stop offset="1" stop-opacity="0.2"/></linearGradient></defs><title>folder-small_frontplate_nopreview</title><polygon class="cls-1" points="47 2 39 10 3 10 3 24 39 24 47 32 75 32 75 2 47 2"/><polygon class="cls-2" points="3 54 3 24 39 24 47 32 75 32 75 54 3 54"/><polygon class="cls-3" points="3 54 3 24 39 24 47 32 75 32 75 54 3 54"/><polygon class="cls-4" points="75 32 75 34 46 34 36 24 39 24 47 32 75 32"/></svg>