<svg id="Layer_1" data-name="Layer 1" xmlns="http://www.w3.org/2000/svg" xmlns:xlink="http://www.w3.org/1999/xlink" width="118" height="86" viewBox="0 0 118 86"><defs><style>.cls-1{fill:url(#linear-gradient);}.cls-2{fill:#a6a6a6;}.cls-3{fill:url(#linear-gradient-2);}.cls-4{fill:#fff;opacity:0.15;}</style><linearGradient id="linear-gradient" x1="88.78" y1="-0.29" x2="86.36" y2="27.34" gradientUnits="userSpaceOnUse"><stop offset="0" stop-color="#828282" stop-opacity="0"/><stop offset="0.86" stop-color="#454545" stop-opacity="0.12"/><stop offset="1" stop-opacity="0.25"/></linearGradient><linearGradient id="linear-gradient-2" x1="16.17" y1="2.95" x2="95.93" y2="98.01" gradientUnits="userSpaceOnUse"><stop offset="0" stop-opacity="0"/><stop offset="0.86" stop-opacity="0.13"/><stop offset="1" stop-opacity="0.2"/></linearGradient></defs><title>folder-large_frontplate_nopreview</title><polygon class="cls-1" points="71 2 59 14 71 26 115 26 115 2 71 2"/><polygon class="cls-2" points="3 82 3 14 59 14 71 26 115 26 115 82 3 82"/><polygon class="cls-3" points="3 82 3 14 59 14 71 26 115 26 115 82 3 82"/><polygon class="cls-4" points="115 26 115 28 70.08 28 56 14 59 14 71.08 26 115 26"/></svg>