<svg width="78" height="58" xmlns="http://www.w3.org/2000/svg"><defs><linearGradient x1="44.291%" y1="0%" x2="44.291%" y2="100%" id="a"><stop stop-color="#FFF" stop-opacity="0" offset="0%"/><stop stop-color="#FFD75E" stop-opacity=".3" offset="100%"/></linearGradient></defs><g fill="none" fill-rule="evenodd"><path d="M3 13h25.537a6 6 0 0 0 4.258-1.772L36 8h36a3 3 0 0 1 3 3v41a3 3 0 0 1-3 3H6a3 3 0 0 1-3-3V13z" fill="#FFD75E"/><path d="M0 5h25.537a6 6 0 0 0 4.258-1.772L33 0h36a3 3 0 0 1 3 3v41a3 3 0 0 1-3 3H3a3 3 0 0 1-3-3V5z" fill="url(#a)" transform="translate(3 8)"/><path d="M3 13h25.537a6 6 0 0 0 4.258-1.772L36 8h1.5l-4.096 4.096A6.5 6.5 0 0 1 28.808 14H3v-1z" fill="#FFF" opacity=".4"/><path d="M75 52v-1H3v1-1h72v1zm-.22 1.128A3.001 3.001 0 0 1 72 55H6a3.001 3.001 0 0 1-2.78-1.873l.799.466A3 3 0 0 0 5.528 54h66.947a3 3 0 0 0 1.511-.409l.795-.463z" fill="#E67628"/></g></svg>