<svg width="78" height="78" xmlns="http://www.w3.org/2000/svg"><defs><linearGradient x1="50%" y1="0%" x2="50%" y2="100%" id="a"><stop stop-color="#605E5C" offset="0%"/><stop stop-color="#797775" offset="100%"/></linearGradient><linearGradient x1="50%" y1="0%" x2="50%" y2="100%" id="b"><stop stop-color="#C8C6C4" offset="0%"/><stop stop-color="#B3B0AD" offset="100%"/></linearGradient><linearGradient x1="50%" y1="1.584%" x2="50%" y2="100%" id="c"><stop stop-color="#A19F9D" offset="0%"/><stop stop-color="#605E5C" stop-opacity=".6" offset="100%"/></linearGradient><linearGradient x1="50%" y1="2.675%" x2="50%" y2="100%" id="d"><stop stop-color="#A19F9D" offset="0%"/><stop stop-color="#605E5C" stop-opacity=".6" offset="100%"/></linearGradient><linearGradient x1="0%" y1="50%" x2="99.696%" y2="50%" id="e"><stop stop-color="#A19F9D" offset="0%"/><stop stop-color="#605E5C" stop-opacity=".6" offset="100%"/></linearGradient><linearGradient x1="50%" y1="98.682%" x2="50%" y2=".345%" id="f"><stop stop-color="#605E5C" offset="0%"/><stop stop-color="#797775" offset="100%"/></linearGradient><linearGradient x1="100%" y1="50%" x2="0%" y2="50%" id="g"><stop stop-color="#C8C6C4" stop-opacity=".8" offset="0%"/><stop stop-color="#E1DFDD" stop-opacity="0" offset="100%"/></linearGradient><linearGradient x1="50%" y1=".348%" x2="50%" y2="100%" id="h"><stop stop-color="#E1DFDD" stop-opacity="0" offset="0%"/><stop stop-color="#BEBBB8" stop-opacity=".2" offset="100%"/></linearGradient><linearGradient x1="50%" y1="0%" x2="50%" y2="98.345%" id="i"><stop stop-color="#BEBBB8" offset="0%"/><stop stop-color="#C8C6C4" offset="100%"/></linearGradient></defs><g transform="translate(3 15)" fill="none" fill-rule="evenodd"><path d="M4 50h8l-.611 1.529a.75.75 0 0 1-.697.471H5.308a.75.75 0 0 1-.697-.471L4 50zm56 0h8l-.611 1.529a.75.75 0 0 1-.697.471h-5.384a.75.75 0 0 1-.697-.471L60 50z" fill="url(#a)"/><rect fill="url(#b)" y="3" width="72" height="47" rx="3"/><path fill="#797775" fill-rule="nonzero" d="M4 7h60v39H4z"/><path fill="url(#c)" d="M4 7h50v4H8z"/><path fill="url(#d)" transform="matrix(1 0 0 -1 0 88)" d="M4 42h50v4H8z"/><path fill="url(#e)" d="M4 7l4 4v31l-4 4z"/><path d="M64 16a2 2 0 0 1 2 2v17a2 2 0 0 1-2 2V16z" fill="url(#f)"/><path d="M59.5 0H64v50h-4.5a1.5 1.5 0 0 1-1.5-1.5v-47A1.5 1.5 0 0 1 59.5 0zm-4 2H58v46h-2.5a1.5 1.5 0 0 1-1.5-1.5v-43A1.5 1.5 0 0 1 55.5 2z" fill="#E1DFDD"/><path d="M56 2h2v46h-2a2 2 0 0 1-2-2V4a2 2 0 0 1 2-2z" fill="url(#g)"/><path d="M59.5 0H64v50h-4.5a1.5 1.5 0 0 1-1.5-1.5v-47A1.5 1.5 0 0 1 59.5 0z" fill="url(#h)"/><rect fill="url(#i)" x="60" y="5" width="2" height="6" rx="1"/><rect fill="url(#i)" x="60" y="39" width="2" height="6" rx="1"/><rect fill="url(#i)" x="60" y="22" width="2" height="6" rx="1"/><path d="M21 14h14l7 7v22a1 1 0 0 1-1 1H21a1 1 0 0 1-1-1V15a1 1 0 0 1 1-1z" fill="#FFF"/><path d="M35 14l7 7h-6a1 1 0 0 1-1-1v-6z" fill="#EDEBE9"/></g></svg>