<svg width="118" height="118" xmlns="http://www.w3.org/2000/svg"><defs><linearGradient x1="50%" y1="0%" x2="50%" y2="100%" id="a"><stop stop-color="#C8C6C4" offset="0%"/><stop stop-color="#B3B0AD" offset="100%"/></linearGradient><linearGradient x1="50%" y1="98.682%" x2="50%" y2=".345%" id="b"><stop stop-color="#605E5C" offset="0%"/><stop stop-color="#797775" offset="100%"/></linearGradient><linearGradient x1="100%" y1="50%" x2="0%" y2="50%" id="c"><stop stop-color="#C8C6C4" stop-opacity=".8" offset="0%"/><stop stop-color="#E1DFDD" stop-opacity="0" offset="100%"/></linearGradient><linearGradient x1="50%" y1=".348%" x2="50%" y2="100%" id="d"><stop stop-color="#E1DFDD" stop-opacity="0" offset="0%"/><stop stop-color="#BEBBB8" stop-opacity=".2" offset="100%"/></linearGradient><linearGradient x1="50%" y1="0%" x2="50%" y2="100%" id="e"><stop stop-color="#605E5C" offset="0%"/><stop stop-color="#797775" offset="100%"/></linearGradient><linearGradient x1="50%" y1="1.584%" x2="50%" y2="100%" id="f"><stop stop-color="#A19F9D" offset="0%"/><stop stop-color="#605E5C" stop-opacity=".6" offset="100%"/></linearGradient><linearGradient x1="50%" y1="2.675%" x2="50%" y2="100%" id="g"><stop stop-color="#A19F9D" offset="0%"/><stop stop-color="#605E5C" stop-opacity=".6" offset="100%"/></linearGradient><linearGradient x1="0%" y1="50%" x2="99.696%" y2="50%" id="h"><stop stop-color="#A19F9D" offset="0%"/><stop stop-color="#605E5C" stop-opacity=".6" offset="100%"/></linearGradient><linearGradient x1="50%" y1="0%" x2="50%" y2="98.345%" id="i"><stop stop-color="#BEBBB8" offset="0%"/><stop stop-color="#C8C6C4" offset="100%"/></linearGradient></defs><g transform="translate(3 15)" fill="none" fill-rule="evenodd"><rect fill="url(#a)" y="4" width="112" height="74" rx="4"/><path fill="#797775" d="M6 11h94v61H6z"/><path d="M100 26a3 3 0 0 1 3 3v27a3 3 0 0 1-3 3V26z" fill="url(#b)"/><path d="M88.5 2H92v74h-3.5a1.5 1.5 0 0 1-1.5-1.5v-71A1.5 1.5 0 0 1 88.5 2z" fill="#E1DFDD"/><path d="M89 2h3v74h-3a2 2 0 0 1-2-2V4a2 2 0 0 1 2-2z" fill="url(#c)"/><path d="M94 0h6v78h-6a2 2 0 0 1-2-2V2a2 2 0 0 1 2-2z" fill="#E1DFDD"/><path d="M94 0h6v78h-6a2 2 0 0 1-2-2V2a2 2 0 0 1 2-2z" fill="url(#d)"/><path d="M8 78h12l-.772 2.316a1 1 0 0 1-.949.684H9.721a1 1 0 0 1-.949-.684L8 78zm84 0h12l-.772 2.316a1 1 0 0 1-.949.684h-8.558a1 1 0 0 1-.949-.684L92 78z" fill="url(#e)"/><path fill="url(#f)" d="M6 10h81v5H11z"/><path fill="url(#g)" transform="matrix(1 0 0 -1 0 139)" d="M6 67h81v5H11z"/><path fill="url(#h)" d="M6 10l5 5.254v51.492L6 72z"/><path d="M32.41 20h24l11 11v37a1 1 0 0 1-1 1h-34a1 1 0 0 1-1-1V21a1 1 0 0 1 1-1z" fill="#FFF"/><path d="M56.41 20l11 11h-10a1 1 0 0 1-1-1V20z" fill="#EDEBE9"/><rect fill="url(#i)" x="94" y="9" width="4" height="9" rx="2"/><rect fill="url(#i)" x="94" y="35" width="4" height="9" rx="2"/><rect fill="url(#i)" x="94" y="61" width="4" height="9" rx="2"/></g></svg>