<svg xmlns="http://www.w3.org/2000/svg" viewBox="0 0 24 24"><g fill="#FFF"><path d="M5.5 22h13c.275 0 .5-.225.5-.5V7h-3.5c-.827 0-1.5-.673-1.5-1.5V2H5.5c-.275 0-.5.225-.5.5v19c0 .275.225.5.5.5z"/><path d="M18.293 6L15 2.707V5.5c0 .275.225.5.5.5h2.793z"/></g><path opacity=".64" fill="#605E5C" d="M19.56 5.854l-4.414-4.415A1.51 1.51 0 0 0 14.086 1H5.5C4.673 1 4 1.673 4 2.5v19c0 .827.673 1.5 1.5 1.5h13c.827 0 1.5-.673 1.5-1.5V6.914c0-.4-.156-.777-.44-1.06zM15 2.707L18.293 6H15.5a.501.501 0 0 1-.5-.5V2.707zM18.5 22h-13a.501.501 0 0 1-.5-.5v-19c0-.275.225-.5.5-.5H14v3.5c0 .827.673 1.5 1.5 1.5H19v14.5c0 .275-.225.5-.5.5z"/><path fill="#FFF" stroke="#69AFE5" stroke-miterlimit="10" d="M7.608 11.5H4.5a1 1 0 0 0-1 1v9a1 1 0 0 0 1 1h15a1 1 0 0 0 1-1V17.43a1 1 0 0 0-1-1h-2.688a1 1 0 0 1-.568-.177l-8.076-4.577a.986.986 0 0 0-.56-.175z"/><path fill="#C8C6C4" d="M10.5 18h-4a.5.5 0 0 1 0-1h4a.5.5 0 0 1 0 1zM8.5 20h-2a.5.5 0 0 1 0-1h2a.5.5 0 0 1 0 1z"/></svg>