<svg xmlns="http://www.w3.org/2000/svg" viewBox="0 0 24 24"><path fill="#FFB900" d="M12 6l-1.268-1.268A2.5 2.5 0 0 0 8.964 4H2.5A1.5 1.5 0 0 0 1 5.5v13A1.5 1.5 0 0 0 2.5 20h19a1.5 1.5 0 0 0 1.5-1.5v-11A1.5 1.5 0 0 0 21.5 6H12z"/><path fill="#FFD75E" d="M12 6l-1.268 1.268A2.5 2.5 0 0 1 8.964 8H1v10.5A1.5 1.5 0 0 0 2.5 20h19a1.5 1.5 0 0 0 1.5-1.5v-11A1.5 1.5 0 0 0 21.5 6H12z"/><linearGradient id="a" gradientUnits="userSpaceOnUse" x1="12" y1="6" x2="12" y2="20"><stop offset="0" stop-color="#fff" stop-opacity="0"/><stop offset=".999" stop-color="#ffd75e" stop-opacity=".3"/></linearGradient><path fill="url(#a)" d="M12 6l-1.268 1.268A2.5 2.5 0 0 1 8.964 8H1v10.5A1.5 1.5 0 0 0 2.5 20h19a1.5 1.5 0 0 0 1.5-1.5v-11A1.5 1.5 0 0 0 21.5 6H12z"/><path fill="#E67628" d="M2 19.5c-.286 0-.55-.084-.777-.223.263.432.734.723 1.277.723h19c.543 0 1.014-.291 1.277-.723A1.488 1.488 0 0 1 22 19.5H2z"/><path opacity=".4" fill="#FFF" d="M11.129 7.621L12.75 6H12l-1.268 1.268A2.5 2.5 0 0 1 8.964 8H1v.5h8.007a3 3 0 0 0 2.122-.879z"/><g><path fill="#BF5712" d="M19.516 17l-2.918-1.92-2.695 1.825 1.139-3.008-2.634-1.818 3.235-.024.988-2.882.992 2.865 3.127.044-2.502 1.86L19.516 17zm-2.924-2.763l1.402.923-.603-1.456 1.28-.95-1.549-.022-.487-1.407-.489 1.427-1.512.012 1.259.868-.55 1.452 1.249-.847zm-.697-1.833h.009-.01z"/></g></svg>