<svg xmlns="http://www.w3.org/2000/svg" viewBox="0 0 24 24"><g fill="#FFF"><path d="M5.5 22h13c.275 0 .5-.225.5-.5V7h-3.5c-.827 0-1.5-.673-1.5-1.5V2H5.5c-.275 0-.5.225-.5.5v19c0 .275.225.5.5.5z"/><path d="M18.293 6L15 2.707V5.5c0 .275.225.5.5.5h2.793z"/></g><path opacity=".64" fill="#605E5C" d="M19.56 5.854l-4.414-4.415A1.51 1.51 0 0 0 14.086 1H5.5C4.673 1 4 1.673 4 2.5v19c0 .827.673 1.5 1.5 1.5h13c.827 0 1.5-.673 1.5-1.5V6.914c0-.4-.156-.777-.44-1.06zM15 2.707L18.293 6H15.5a.501.501 0 0 1-.5-.5V2.707zM18.5 22h-13a.501.501 0 0 1-.5-.5v-19c0-.275.225-.5.5-.5H14v3.5c0 .827.673 1.5 1.5 1.5H19v14.5c0 .275-.225.5-.5.5z"/><path fill="#1A9BA1" d="M11.5 19h-4a.5.5 0 0 1-.5-.5v-8a.5.5 0 0 1 .5-.5h4a.5.5 0 0 1 .5.5v8a.5.5 0 0 1-.5.5z"/><path fill="#37C6D0" d="M13.5 10h3a.5.5 0 0 1 .5.5v3a.5.5 0 0 1-.5.5h-3a.5.5 0 0 1-.5-.5v-3a.5.5 0 0 1 .5-.5z"/><path fill="#038387" d="M13.5 15h3a.5.5 0 0 1 .5.5v3a.5.5 0 0 1-.5.5h-3a.5.5 0 0 1-.5-.5v-3a.5.5 0 0 1 .5-.5z"/></svg>