<svg xmlns="http://www.w3.org/2000/svg" viewBox="0 0 24 24"><path fill="#FFF" d="M3.026 4.93a.501.501 0 0 0-.04-.011v14.157l.077-.014.102-.024c1.528-.355 4.71-1.093 8.81-1.093 3.937 0 7.28.606 8.948 1.126l.04-14.152c-.013.005-.034.009-.059.016-1.216.325-4.443 1.19-8.843 1.19-4.131 0-7.622-.752-9.035-1.195z"/><circle fill="none" stroke="#FF9810" stroke-width=".8" stroke-miterlimit="10" cx="18.503" cy="9.473" r="1.097"/><path fill="#A6CCC3" d="M20.964 17.34l-4.331-4.058a1.098 1.098 0 0 0-1.455-.024l-1.933 1.657c-.597.513-1.485.5-2.07-.03L7.144 11.22a1.095 1.095 0 0 0-1.513.035l-2.645 2.559v-1.391l1.944-1.88a2.09 2.09 0 0 1 2.886-.063l4.032 3.665c.21.191.532.196.747.01l1.932-1.656a2.097 2.097 0 0 1 2.786.05l3.65 3.422v1.37z"/><path opacity=".64" fill="none" stroke="#605E5C" stroke-miterlimit="10" d="M2.486 4.876v14.248c0 .328.245.528.69.424 1.424-.33 4.659-1.103 8.8-1.103s7.402.668 8.798 1.103c.418.13.69-.096.69-.424V4.876c0-.328-.272-.536-.69-.424a32.855 32.855 0 0 1-8.712 1.173c-4.092 0-7.492-.735-8.886-1.173-.445-.14-.69.097-.69.424z"/></svg>