<svg xmlns="http://www.w3.org/2000/svg" viewBox="0 0 24 24"><path fill="#FFB900" d="M12 6l-1.268-1.268A2.5 2.5 0 0 0 8.964 4H2.5A1.5 1.5 0 0 0 1 5.5v13A1.5 1.5 0 0 0 2.5 20h19a1.5 1.5 0 0 0 1.5-1.5v-11A1.5 1.5 0 0 0 21.5 6H12z"/><path fill="#FFD75E" d="M12 6l-1.268 1.268A2.5 2.5 0 0 1 8.964 8H1v10.5A1.5 1.5 0 0 0 2.5 20h19a1.5 1.5 0 0 0 1.5-1.5v-11A1.5 1.5 0 0 0 21.5 6H12z"/><linearGradient id="a" gradientUnits="userSpaceOnUse" x1="12" y1="6" x2="12" y2="20"><stop offset="0" stop-color="#fff" stop-opacity="0"/><stop offset=".999" stop-color="#ffd75e" stop-opacity=".3"/></linearGradient><path fill="url(#a)" d="M12 6l-1.268 1.268A2.5 2.5 0 0 1 8.964 8H1v10.5A1.5 1.5 0 0 0 2.5 20h19a1.5 1.5 0 0 0 1.5-1.5v-11A1.5 1.5 0 0 0 21.5 6H12z"/><path fill="#E67628" d="M2 19.5c-.286 0-.55-.084-.777-.223.263.432.734.723 1.277.723h19c.543 0 1.014-.291 1.277-.723A1.488 1.488 0 0 1 22 19.5H2z"/><path opacity=".4" fill="#FFF" d="M11.129 7.621L12.75 6H12l-1.268 1.268A2.5 2.5 0 0 1 8.964 8H1v.5h8.007a3 3 0 0 0 2.122-.879z"/><g><path fill="#BF5712" d="M20.643 17.032a.374.374 0 0 1-.265-.11l-7.326-7.297a.375.375 0 1 1 .53-.53l7.325 7.296a.375.375 0 0 1-.264.641zM16.847 11.125l1.828-1.831.532.53-1.828 1.832z"/><path fill="#BF5712" d="M13.344 17.031a.375.375 0 0 1-.364-.466l.5-2a.377.377 0 0 1 .098-.174l2.478-2.478.53.53-2.403 2.405-.324 1.293 1.293-.323 2.349-2.35.531.53-2.423 2.423a.38.38 0 0 1-.175.099l-2 .5a.386.386 0 0 1-.09.011zM18.434 12.538l1.74-1.744.532.531-1.74 1.743z"/><path fill="#BF5712" d="M20.705 11.326l-.531-.53a.906.906 0 0 0 .273-.58.624.624 0 0 0-.173-.49c-.267-.269-.748-.223-1.069.1l-.531-.53c.616-.616 1.572-.66 2.132-.101s.514 1.515-.1 2.13zM17.959 10.54l.53-.53 1.5 1.5-.53.53z"/></g></svg>