<svg xmlns="http://www.w3.org/2000/svg" viewBox="0 0 24 24"><path fill="#FFB900" d="M12 6l-1.268-1.268A2.5 2.5 0 0 0 8.964 4H2.5A1.5 1.5 0 0 0 1 5.5v13A1.5 1.5 0 0 0 2.5 20h19a1.5 1.5 0 0 0 1.5-1.5v-11A1.5 1.5 0 0 0 21.5 6H12z"/><path fill="#FFD75E" d="M12 6l-1.268 1.268A2.5 2.5 0 0 1 8.964 8H1v10.5A1.5 1.5 0 0 0 2.5 20h19a1.5 1.5 0 0 0 1.5-1.5v-11A1.5 1.5 0 0 0 21.5 6H12z"/><linearGradient id="a" gradientUnits="userSpaceOnUse" x1="12" y1="6" x2="12" y2="20"><stop offset="0" stop-color="#fff" stop-opacity="0"/><stop offset=".999" stop-color="#ffd75e" stop-opacity=".3"/></linearGradient><path fill="url(#a)" d="M12 6l-1.268 1.268A2.5 2.5 0 0 1 8.964 8H1v10.5A1.5 1.5 0 0 0 2.5 20h19a1.5 1.5 0 0 0 1.5-1.5v-11A1.5 1.5 0 0 0 21.5 6H12z"/><path fill="#E67628" d="M2 19.5c-.286 0-.55-.084-.777-.223.263.432.734.723 1.277.723h19c.543 0 1.014-.291 1.277-.723A1.488 1.488 0 0 1 22 19.5H2z"/><path opacity=".4" fill="#FFF" d="M11.129 7.621L12.75 6H12l-1.268 1.268A2.5 2.5 0 0 1 8.964 8H1v.5h8.007a3 3 0 0 0 2.122-.879z"/><path fill="#BF5712" d="M19.046 14.198c.57-.352.954-.978.954-1.698a2 2 0 1 0-4 0c0 .72.384 1.346.954 1.698A2.993 2.993 0 0 0 15 17h.5c0-1.379 1.121-2.5 2.5-2.5s2.5 1.121 2.5 2.5h.5a2.993 2.993 0 0 0-1.954-2.802zM16.5 12.5c0-.827.673-1.5 1.5-1.5s1.5.673 1.5 1.5S18.827 14 18 14s-1.5-.673-1.5-1.5z"/></svg>