<svg xmlns="http://www.w3.org/2000/svg" viewBox="0 0 24 24"><linearGradient id="a" gradientUnits="userSpaceOnUse" x1="12" y1="5" x2="12" y2="19"><stop offset="0" stop-color="#c8c6c4"/><stop offset="1" stop-color="#b3b0ad"/></linearGradient><path fill-rule="evenodd" clip-rule="evenodd" fill="url(#a)" d="M22 19H2a1 1 0 0 1-1-1V6a1 1 0 0 1 1-1h20a1 1 0 0 1 1 1v12a1 1 0 0 1-1 1z"/><linearGradient id="b" gradientUnits="userSpaceOnUse" x1="3.5" y1="20.023" x2="3.5" y2="18.986"><stop offset=".001" stop-color="#797775"/><stop offset="1" stop-color="#605e5c"/></linearGradient><path fill="url(#b)" d="M2.362 19.724a.5.5 0 0 0 .447.276h1.382a.5.5 0 0 0 .447-.276L5 19H2l.362.724z"/><linearGradient id="c" gradientUnits="userSpaceOnUse" x1="20.5" y1="20.023" x2="20.5" y2="18.986"><stop offset=".001" stop-color="#797775"/><stop offset="1" stop-color="#605e5c"/></linearGradient><path fill="url(#c)" d="M19.362 19.724a.5.5 0 0 0 .447.276h1.382a.5.5 0 0 0 .447-.276L22 19h-3l.362.724z"/><linearGradient id="d" gradientUnits="userSpaceOnUse" x1="21.5" y1="8" x2="21.5" y2="16"><stop offset=".001" stop-color="#797775"/><stop offset="1" stop-color="#605e5c"/></linearGradient><path fill="url(#d)" d="M21.5 16H21V8h.5a.5.5 0 0 1 .5.5v7a.5.5 0 0 1-.5.5z"/><path fill-rule="evenodd" clip-rule="evenodd" fill="#797775" d="M2 6h19v12H2z"/><linearGradient id="e" gradientUnits="userSpaceOnUse" x1="2" y1="12" x2="3" y2="12"><stop offset="0" stop-color="#a19f9d"/><stop offset=".999" stop-color="#605e5c" stop-opacity=".3"/></linearGradient><path fill="url(#e)" d="M3 17l-1 1V6l1 1z"/><linearGradient id="f" gradientUnits="userSpaceOnUse" x1="10.5" y1="6" x2="10.5" y2="7"><stop offset="0" stop-color="#a19f9d"/><stop offset=".999" stop-color="#605e5c" stop-opacity=".3"/></linearGradient><path fill="url(#f)" d="M19 7H3L2 6h17z"/><linearGradient id="g" gradientUnits="userSpaceOnUse" x1="10.5" y1="18" x2="10.5" y2="17"><stop offset="0" stop-color="#a19f9d"/><stop offset=".999" stop-color="#605e5c" stop-opacity=".3"/></linearGradient><path fill="url(#g)" d="M19 18H2l1-1h16z"/><path fill-rule="evenodd" clip-rule="evenodd" fill="#E1DFDD" d="M21 19h-1.5a.5.5 0 0 1-.5-.5v-14a.5.5 0 0 1 .5-.5H21v15zM19 18h-.5a.5.5 0 0 1-.5-.5v-12a.5.5 0 0 1 .5-.5h.5v13z"/><linearGradient id="h" gradientUnits="userSpaceOnUse" x1="20" y1="4" x2="20" y2="19"><stop offset="0" stop-color="#e1dfdd" stop-opacity="0"/><stop offset="1" stop-color="#bebbb8" stop-opacity=".2"/></linearGradient><path fill-rule="evenodd" clip-rule="evenodd" fill="url(#h)" d="M21 19h-1.5a.5.5 0 0 1-.5-.5v-14a.5.5 0 0 1 .5-.5H21v15z"/><linearGradient id="i" gradientUnits="userSpaceOnUse" x1="18" y1="11.5" x2="19" y2="11.5"><stop offset="0" stop-color="#e1dfdd" stop-opacity="0"/><stop offset=".999" stop-color="#c8c6c4" stop-opacity=".8"/></linearGradient><path fill-rule="evenodd" clip-rule="evenodd" fill="url(#i)" d="M19 18h-.5a.5.5 0 0 1-.5-.5v-12a.5.5 0 0 1 .5-.5h.5v13z"/><path fill-rule="evenodd" clip-rule="evenodd" fill="#FFF" d="M13.6 17H7.4a.4.4 0 0 1-.4-.4V8.4c0-.22.18-.4.4-.4H12l2 2v6.6a.4.4 0 0 1-.4.4z"/><path fill-rule="evenodd" clip-rule="evenodd" fill="#EDEBE9" d="M14 10h-1.6a.4.4 0 0 1-.4-.4V8"/></svg>