<svg xmlns="http://www.w3.org/2000/svg" viewBox="0 0 24 24"><path fill="#FFF" d="M3.026 4.93a.501.501 0 0 0-.04-.011v14.157l.077-.014.102-.024c1.528-.355 4.71-1.093 8.81-1.093 3.937 0 7.28.606 8.948 1.126l.04-14.152c-.013.005-.034.009-.059.016-1.216.325-4.443 1.19-8.843 1.19-4.131 0-7.622-.752-9.035-1.195z"/><path opacity=".64" fill="none" stroke="#605E5C" stroke-miterlimit="10" d="M2.486 4.876v14.248c0 .328.245.528.69.424 1.424-.33 4.659-1.103 8.8-1.103s7.402.668 8.798 1.103c.418.13.69-.096.69-.424V4.876c0-.328-.272-.536-.69-.424a32.855 32.855 0 0 1-8.712 1.173c-4.092 0-7.492-.735-8.886-1.173-.445-.14-.69.097-.69.424z"/><path fill="none" stroke="#69AFE5" stroke-linecap="round" stroke-linejoin="round" stroke-miterlimit="10" d="M14.5 12.06l-4-2.353v4.705z"/><g fill="#C8C6C4"><circle cx="4.5" cy="9.5" r=".5"/><circle cx="4.5" cy="12.5" r=".5"/><circle cx="4.5" cy="15.5" r=".5"/></g><g fill="#C8C6C4"><circle cx="19.5" cy="9.5" r=".5"/><circle cx="19.5" cy="12.5" r=".5"/><circle cx="19.5" cy="15.5" r=".5"/></g></svg>