<svg xmlns="http://www.w3.org/2000/svg" viewBox="0 0 256 256"><g fill="#FFF"><path d="M68 232h152c2.206 0 4-1.794 4-4V72h-36c-6.617 0-12-5.383-12-12V24H68c-2.206 0-4 1.794-4 4v200c0 2.206 1.794 4 4 4z"/><path d="M220.344 64L184 27.657V60c0 2.206 1.794 4 4 4h32.344z"/></g><path opacity=".64" fill="#605E5C" d="M232 68a3.96 3.96 0 0 0-.396-1.707 11.921 11.921 0 0 0-3.119-5.465l-41.313-41.312A11.918 11.918 0 0 0 178.686 16H68c-6.617 0-12 5.383-12 12v200c0 6.617 5.383 12 12 12h152c6.617 0 12-5.383 12-12V69.314c0-.298-.022-.592-.043-.886.015-.143.043-.281.043-.428zm-11.656-4H188c-2.206 0-4-1.794-4-4V27.657L220.344 64zM220 232H68c-2.206 0-4-1.794-4-4V28c0-2.206 1.794-4 4-4h108v36c0 6.617 5.383 12 12 12h36v156c0 2.206-1.794 4-4 4z"/><path fill="#AF2031" d="M33 199h94a9 9 0 0 0 9-9V96a9 9 0 0 0-9-9H33a9 9 0 0 0-9 9v94a9 9 0 0 0 9 9z"/><path fill="#FFF" d="M72.88 111h14.6l23.449 64H97.138l-5.166-15H67.849l-5.076 15H49.07l23.809-64zm15.992 39l-7.502-23.29c-.749-2.201-1.213-3.942-1.392-5.222h-.27c-.12 1.16-.57 2.946-1.348 5.356L70.77 150h18.103z"/><g><path fill="#C94F60" d="M188 143h-19a4 4 0 1 0 0 8h19a4 4 0 1 0 0-8z"/><path fill="#E08095" d="M188 127h-19a4 4 0 1 0 0 8h19a4 4 0 1 0 0-8z"/><path fill="#881421" d="M188 159h-19a4 4 0 1 0 0 8h19a4 4 0 1 0 0-8z"/><path fill="#66121C" d="M153 159h-11v8h11a4 4 0 1 0 0-8z"/><path fill="#AF2031" d="M153 143h-11v8h11a4 4 0 1 0 0-8z"/><path fill="#C94F60" d="M153 127h-11v8h11a4 4 0 1 0 0-8zM200 118v52.99a4.015 4.015 0 0 1-4.01 4.01H142v8h53.99c6.622 0 12.01-5.388 12.01-12.01V118h-8z"/><path fill="#E08095" d="M208 119h-66v-16h54c6.627 0 12 5.373 12 12v4z"/></g></svg>