<svg xmlns="http://www.w3.org/2000/svg" viewBox="0 0 256 256"><path fill="#FFF" d="M36 224h184c2.206 0 4-1.794 4-4V36c0-2.206-1.794-4-4-4H36c-2.206 0-4 1.794-4 4v184c0 2.206 1.794 4 4 4z"/><path opacity=".64" fill="#605E5C" d="M220 232H36c-6.617 0-12-5.383-12-12V36c0-6.617 5.383-12 12-12h184c6.617 0 12 5.383 12 12v184c0 6.617-5.383 12-12 12zM36 32c-2.206 0-4 1.794-4 4v184c0 2.206 1.794 4 4 4h184c2.206 0 4-1.794 4-4V36c0-2.206-1.794-4-4-4H36z"/><path fill="#69AFE5" d="M169 90.5a4 4 0 0 0-4.952-3.885l-49 12A4 4 0 0 0 112 102.5v37.165a15.881 15.881 0 0 0-8-2.165c-8.822 0-16 7.178-16 16s7.178 16 16 16 16-7.177 16-16c0-.224-.024-.443-.034-.665.01-.113.034-.22.034-.335v-30.877l41-10.25v16.292a15.881 15.881 0 0 0-8-2.165c-8.822 0-16 7.178-16 16s7.178 16 16 16 16-7.177 16-16c0-.224-.025-.443-.034-.665.01-.113.034-.22.034-.335v-50zm-65 71c-4.411 0-8-3.589-8-8s3.589-8 8-8 8 3.59 8 8-3.589 8-8 8zm16-48.123v-7.738l41-10.041v7.53l-41 10.25zm33 36.123c-4.411 0-8-3.589-8-8s3.589-8 8-8 8 3.59 8 8-3.589 8-8 8z"/></svg>