<svg xmlns="http://www.w3.org/2000/svg" viewBox="0 0 256 256"><path fill="#FFF" d="M224 220V85H32v135c0 2.206 1.794 4 4 4h184c2.206 0 4-1.794 4-4zM74 52a4 4 0 0 1-4-4V36a4 4 0 0 1 8 0v12a4 4 0 0 1-4 4zM182 52a4 4 0 0 1-4-4V36a4 4 0 0 1 8 0v12a4 4 0 0 1-4 4z"/><g fill="#FFF"><path d="M182 52c2.206 0 4-1.794 4-4v-2h-8v2c0 2.206 1.794 4 4 4zM74 52c2.206 0 4-1.794 4-4v-2h-8v2c0 2.206 1.794 4 4 4z"/><path d="M220 46h-26v2c0 6.617-5.383 12-12 12s-12-5.383-12-12v-2H86v2c0 6.617-5.383 12-12 12s-12-5.383-12-12v-2H36c-2.206 0-4 1.794-4 4v27h192V50c0-2.206-1.794-4-4-4z"/></g><path opacity=".64" fill="#615F5D" d="M220 38h-26v-2c0-6.617-5.383-12-12-12s-12 5.383-12 12v2H86v-2c0-6.617-5.383-12-12-12s-12 5.383-12 12v2H36c-6.617 0-12 5.383-12 12v170c0 6.617 5.383 12 12 12h184c6.617 0 12-5.383 12-12V50c0-6.617-5.383-12-12-12zm-42-2c0-2.206 1.794-4 4-4s4 1.794 4 4v12c0 2.206-1.794 4-4 4s-4-1.794-4-4V36zM70 36c0-2.206 1.794-4 4-4s4 1.794 4 4v12c0 2.206-1.794 4-4 4s-4-1.794-4-4V36zm154 184c0 2.206-1.794 4-4 4H36c-2.206 0-4-1.794-4-4V85h192v135zm0-143H32V50c0-2.206 1.794-4 4-4h26v2c0 6.617 5.383 12 12 12s12-5.383 12-12v-2h84v2c0 6.617 5.383 12 12 12s12-5.383 12-12v-2h26c2.206 0 4 1.794 4 4v27z"/><circle fill="#C8C6C4" cx="69.262" cy="125.262" r="5.816"/><circle fill="#C8C6C4" cx="108.262" cy="125.262" r="5.816"/><circle fill="#C8C6C4" cx="147.262" cy="125.262" r="5.816"/><circle fill="#C8C6C4" cx="186.262" cy="125.262" r="5.816"/><circle fill="#C8C6C4" cx="69.262" cy="154.262" r="5.816"/><circle fill="#C8C6C4" cx="108.262" cy="154.262" r="5.816"/><circle fill="#C8C6C4" cx="147.262" cy="154.262" r="5.816"/><circle fill="#C8C6C4" cx="186.262" cy="154.262" r="5.816"/><circle fill="#C8C6C4" cx="69.262" cy="183.262" r="5.816"/><circle fill="#C8C6C4" cx="108.262" cy="183.262" r="5.816"/><circle fill="#C8C6C4" cx="147.262" cy="183.262" r="5.816"/><circle fill="#C8C6C4" cx="186.262" cy="183.262" r="5.816"/></svg>