<svg xmlns="http://www.w3.org/2000/svg" viewBox="0 0 256 256"><g fill="#FFF"><path d="M52 232h152c2.206 0 4-1.794 4-4V72h-36c-6.617 0-12-5.383-12-12V24H52c-2.206 0-4 1.794-4 4v200c0 2.206 1.794 4 4 4z"/><path d="M204.344 64L168 27.657V60c0 2.206 1.794 4 4 4h32.344z"/></g><path opacity=".64" fill="#605E5C" d="M216 68a3.96 3.96 0 0 0-.396-1.707 11.921 11.921 0 0 0-3.119-5.465l-41.313-41.312A11.918 11.918 0 0 0 162.686 16H52c-6.617 0-12 5.383-12 12v200c0 6.617 5.383 12 12 12h152c6.617 0 12-5.383 12-12V69.314c0-.298-.022-.592-.043-.886.015-.143.043-.281.043-.428zm-11.656-4H172c-2.206 0-4-1.794-4-4V27.657L204.344 64zM204 232H52c-2.206 0-4-1.794-4-4V28c0-2.206 1.794-4 4-4h108v36c0 6.617 5.383 12 12 12h36v156c0 2.206-1.794 4-4 4z"/><path fill="#C8C6C4" d="M68 188h120a4 4 0 0 0 0-8H68a4 4 0 0 0 0 8zM68 204h120a4 4 0 0 0 0-8H68a4 4 0 0 0 0 8z"/><path fill="#D2D0CE" d="M127.78 182.53h.94a.03.03 0 1 0 0-.06h-.94a.03.03 0 1 0 0 .06z"/><path fill="none" stroke="#69AFE5" stroke-width="8" stroke-linecap="round" stroke-miterlimit="10" d="M142 89l-28 72"/><path fill="none" stroke="#69AFE5" stroke-width="8" stroke-linecap="round" stroke-linejoin="round" stroke-miterlimit="10" d="M92 108l-20 16.875L92 142M164 108l20 16.875L164 142"/></svg>