<svg xmlns="http://www.w3.org/2000/svg" viewBox="0 0 256 256"><path fill="#FFF" d="M219.813 198c2.206 0 4-1.794 4-4V62c0-2.206-1.794-4-4-4h-184c-2.206 0-4 1.794-4 4v132c0 2.206 1.794 4 4 4h36.781c-1.561-2.742-1.933-5.912-1.045-9.014 1.615-5.627 6.199-8.986 12.264-8.986 6.259 0 10.444 4.657 11.686 8.985.89 3.104.518 6.278-1.043 9.015h66.138c-1.561-2.742-1.933-5.912-1.044-9.014 1.614-5.627 6.198-8.986 12.263-8.986 6.259 0 10.445 4.657 11.686 8.985.89 3.104.518 6.278-1.043 9.015h37.357z"/><path fill="#D2D0CE" d="M132.374 162.03h.939a.03.03 0 1 0 0-.06h-.94a.03.03 0 1 0 0 .06z"/><g fill="none" stroke="#69AFE5" stroke-width="8" stroke-miterlimit="10"><circle cx="82.248" cy="112.304" r="21.304"/><path stroke-linecap="round" stroke-linejoin="round" d="M51.813 161s3.044-27.391 30.435-27.391S112.683 161 112.683 161"/></g><path fill="#C8C6C4" d="M139.813 97h64a4 4 0 0 1 0 8h-64a4 4 0 1 1 0-8zM139.813 121h64a4 4 0 0 1 0 8h-64a4 4 0 1 1 0-8zM139.813 145h39a4 4 0 0 1 0 8h-39a4 4 0 1 1 0-8z"/><circle fill="#C8C6C4" cx="202.813" cy="149" r="4"/><path opacity=".64" fill="#605E5C" d="M219.813 206h-41.238c-2.647 0-4.813-2.116-4.923-4.759-.192-2.529.037-3.453.112-3.76.207-.837.753-1.93 1.622-3.247.407-.62.818-1.666.423-3.044-.368-1.282-1.735-3.19-3.996-3.19-2.462 0-3.957 1.043-4.573 3.19-.395 1.377.018 2.423.433 3.057.86 1.305 1.406 2.397 1.613 3.236.075.304.305 1.23.112 3.758-.11 2.643-2.276 4.759-4.924 4.759h-73.9c-2.646 0-4.812-2.116-4.922-4.759-.192-2.529.037-3.454.112-3.76.207-.837.753-1.93 1.622-3.247.407-.62.818-1.666.423-3.044-.368-1.282-1.735-3.19-3.996-3.19-2.462 0-3.957 1.044-4.573 3.19-.395 1.377.018 2.423.433 3.057.86 1.305 1.406 2.397 1.613 3.236.075.305.305 1.23.112 3.758-.11 2.643-2.276 4.759-4.924 4.759h-40.66c-6.618 0-12-5.383-12-12V62c0-6.617 5.382-12 12-12h184c6.616 0 12 5.383 12 12v132c0 6.617-5.384 12-12 12zm-37.357-8h37.357c2.206 0 4-1.794 4-4V62c0-2.206-1.794-4-4-4h-184c-2.206 0-4 1.794-4 4v132c0 2.206 1.794 4 4 4h36.781c-1.561-2.742-1.933-5.912-1.045-9.014 1.615-5.627 6.199-8.986 12.264-8.986 6.259 0 10.444 4.657 11.686 8.985.89 3.104.518 6.278-1.043 9.015h66.138c-1.561-2.742-1.933-5.912-1.044-9.014 1.614-5.627 6.198-8.986 12.263-8.986 6.259 0 10.445 4.657 11.686 8.985.89 3.104.518 6.278-1.043 9.015z"/></svg>