<svg xmlns="http://www.w3.org/2000/svg" viewBox="0 0 256 256"><g fill="#FFF"><path d="M68 232h152c2.206 0 4-1.794 4-4V72h-36c-6.617 0-12-5.383-12-12V24H68c-2.206 0-4 1.794-4 4v200c0 2.206 1.794 4 4 4z"/><path d="M220.344 64L184 27.657V60c0 2.206 1.794 4 4 4h32.344z"/></g><path opacity=".64" fill="#605E5C" d="M232 68a3.96 3.96 0 0 0-.396-1.707 11.921 11.921 0 0 0-3.119-5.465l-41.313-41.312A11.918 11.918 0 0 0 178.686 16H68c-6.617 0-12 5.383-12 12v200c0 6.617 5.383 12 12 12h152c6.617 0 12-5.383 12-12V69.314c0-.298-.022-.592-.043-.886.015-.143.043-.281.043-.428zm-11.656-4H188c-2.206 0-4-1.794-4-4V27.657L220.344 64zM220 232H68c-2.206 0-4-1.794-4-4V28c0-2.206 1.794-4 4-4h108v36c0 6.617 5.383 12 12 12h36v156c0 2.206-1.794 4-4 4z"/><g fill="#33C481"><path d="M186.323 170.27h-7.22v-8.28c-5.265 6.326-11.22 8.28-18.645 8.28-5.462 0-9.738-1.392-12.826-4.176-3.087-2.784-4.632-6.48-4.632-11.085 0-9.863 6.033-15.606 18.1-17.22l16.44-2.217c0-8.971-3.766-13.457-11.298-13.457-6.606 0-16.021 6.496-16.021 6.496v-8.661c5.125-3.3 11.032-4.95 17.72-4.95 12.254 0 18.382 6.564 18.382 19.695v35.576zm-7.22-27.944l-14.956 1.753c-4.602.551-8.074 1.519-10.415 2.915-2.34 1.388-3.512 3.855-3.512 7.396 0 2.578 1.081 4.684 3.24 6.318 2.159 1.63 5.035 2.447 8.628 2.447 4.926 0 8.992-1.471 12.2-4.406 3.21-2.943 4.815-6.663 4.815-11.164v-5.26zM207 161.433L197.9 185h-6.654l6.654-23.567h9.1z"/></g><path fill="#107C41" d="M33 199h94a9 9 0 0 0 9-9V96a9 9 0 0 0-9-9H33a9 9 0 0 0-9 9v94a9 9 0 0 0 9 9z"/><path fill="#F9F7F7" d="M51.071 176l20.957-33.092L52.833 110h15.446l10.479 21.034c.963 1.995 1.626 3.482 1.987 4.464h.136a93.658 93.658 0 0 1 2.168-4.648L94.25 110h14.182l-19.693 32.724L108.93 176H93.843l-12.104-23.104c-.512-.86-.994-1.888-1.445-3.084h-.182c-.21.736-.676 1.733-1.399 2.991L66.247 176H51.071z"/></svg>