<svg xmlns="http://www.w3.org/2000/svg" viewBox="0 0 256 256"><g fill="#FFF"><path d="M52 231h152c2.206 0 4-1.794 4-4V71h-36c-6.617 0-12-5.383-12-12V23H52c-2.206 0-4 1.794-4 4v200c0 2.206 1.794 4 4 4z"/><path d="M204.344 63L168 26.657V59c0 2.206 1.794 4 4 4h32.344z"/></g><path opacity=".64" fill="#605E5C" d="M216 67a3.96 3.96 0 0 0-.396-1.707 11.921 11.921 0 0 0-3.119-5.465l-41.313-41.312A11.918 11.918 0 0 0 162.686 15H52c-6.617 0-12 5.383-12 12v200c0 6.617 5.383 12 12 12h152c6.617 0 12-5.383 12-12V68.314c0-.298-.022-.592-.043-.886.015-.143.043-.281.043-.428zm-11.656-4H172c-2.206 0-4-1.794-4-4V26.657L204.344 63zM204 231H52c-2.206 0-4-1.794-4-4V27c0-2.206 1.794-4 4-4h108v36c0 6.617 5.383 12 12 12h36v156c0 2.206-1.794 4-4 4z"/><path fill="#FFF" stroke="#69AFE5" stroke-width="8" stroke-miterlimit="10" d="M85.204 115H44a8 8 0 0 0-8 8v105a8 8 0 0 0 8 8h169a8 8 0 0 0 8-8v-37.005a7.995 7.995 0 0 0-7.984-7.995l-29.79-.036a7.995 7.995 0 0 1-5.515-2.219l-88.045-64.384A7.995 7.995 0 0 0 85.204 115z"/><path fill="none" stroke="#C8C6C4" stroke-width="8" stroke-linecap="round" stroke-miterlimit="10" d="M55 200h43M55 216h32"/></svg>