<svg xmlns="http://www.w3.org/2000/svg" viewBox="0 0 256 256"><g fill="#FFF"><path d="M68 232h152c2.206 0 4-1.794 4-4V72h-36c-6.617 0-12-5.383-12-12V24H68c-2.206 0-4 1.794-4 4v200c0 2.206 1.794 4 4 4z"/><path d="M220.344 64L184 27.657V60c0 2.206 1.794 4 4 4h32.344z"/></g><path opacity=".64" fill="#605E5C" d="M232 68a3.96 3.96 0 0 0-.396-1.707 11.921 11.921 0 0 0-3.119-5.465l-41.313-41.312A11.918 11.918 0 0 0 178.686 16H68c-6.617 0-12 5.383-12 12v200c0 6.617 5.383 12 12 12h152c6.617 0 12-5.383 12-12V69.314c0-.298-.022-.592-.043-.886.015-.143.043-.281.043-.428zm-11.656-4H188c-2.206 0-4-1.794-4-4V27.657L220.344 64zM220 232H68c-2.206 0-4-1.794-4-4V28c0-2.206 1.794-4 4-4h108v36c0 6.617 5.383 12 12 12h36v156c0 2.206-1.794 4-4 4z"/><path fill="#103F91" d="M204 171h-62v-8h62a4 4 0 0 1 0 8z"/><path fill="#185ABD" d="M204 155h-62v-8h62a4 4 0 0 1 0 8z"/><path fill="#2B7CD3" d="M204 139h-62v-8h62a4 4 0 0 1 0 8z"/><path fill="#41A5EE" d="M204 123h-62v-8h62a4 4 0 0 1 0 8z"/><g><path fill="#185ABD" d="M33 199h94a9 9 0 0 0 9-9V96a9 9 0 0 0-9-9H33a9 9 0 0 0-9 9v94a9 9 0 0 0 9 9z"/><path fill="#F9F7F7" d="M61.709 159.424c.19 1.517.313 2.842.371 3.972h.219c.088-1.071.255-2.365.502-3.883.248-1.517.488-2.796.722-3.838L73.663 111h13.111l10.49 44.006c.525 2.172.962 4.939 1.311 8.3h.175c.145-2.32.51-4.998 1.093-8.033L108.234 111h11.932l-14.685 64H91.538L81.53 132.601c-.292-1.22-.62-2.811-.984-4.775-.364-1.963-.59-3.392-.677-4.284h-.175c-.117 1.041-.343 2.588-.677 4.64-.336 2.054-.605 3.571-.81 4.553L68.812 175h-14.16l-14.817-64h12.15l9.135 44.765c.204.922.4 2.142.59 3.659z"/></g></svg>