<svg xmlns="http://www.w3.org/2000/svg" viewBox="0 0 256 256"><g fill="#FFF"><path d="M68 220h136c2.206 0 4-1.794 4-4V40.314c0-.108.023-.209.032-.314H63.968c.009.105.032.206.032.313V216c0 2.206 1.794 4 4 4z"/><path d="M216 40.313V216c0 6.617-5.383 12-12 12H80v4c0 2.206 1.794 4 4 4h136c2.206 0 4-1.794 4-4V30c0-.676.183-1.302.48-1.86L212 18v18.314a4 4 0 0 1 4 4z"/></g><path opacity=".64" fill="#605E5C" d="M228 26a4 4 0 0 0-4 4v202c0 2.206-1.794 4-4 4H84c-2.206 0-4-1.794-4-4v-4h124c6.617 0 12-5.383 12-12V40.314a4 4 0 0 0-8 0V216c0 2.206-1.794 4-4 4H68c-2.206 0-4-1.794-4-4V40.314a4 4 0 0 0-8 0V216c0 6.617 5.383 12 12 12h4v4c0 6.617 5.383 12 12 12h136c6.617 0 12-5.383 12-12V30a4 4 0 0 0-4-4z"/><path fill="#41A5EE" d="M216 12.728a7.99 7.99 0 0 0-3.314-.728H64a8 8 0 0 0-8 8v16l4 4h152l4-4v-5l2-2V16l-2-3.272z"/><path fill="#2B7CD3" d="M56 36h160v8H56zM219.414 31.414L232 44V31.314a8 8 0 0 0-2.343-5.657l-11.314-11.314A7.988 7.988 0 0 0 216 12.728v20.1c0-1.781 2.154-2.674 3.414-1.414z"/><path fill="#103F91" d="M192 171h-46v-8h46a4 4 0 0 1 0 8z"/><path fill="#185ABD" d="M192 155h-46v-8h46a4 4 0 0 1 0 8z"/><path fill="#2B7CD3" d="M192 139h-46v-8h46a4 4 0 0 1 0 8z"/><path fill="#41A5EE" d="M192 123h-46v-8h46a4 4 0 0 1 0 8z"/><g><path fill="#185ABD" d="M33 199h94a9 9 0 0 0 9-9V96a9 9 0 0 0-9-9H33a9 9 0 0 0-9 9v94a9 9 0 0 0 9 9z"/><path fill="#F9F7F7" d="M61.709 159.424c.19 1.517.313 2.842.371 3.972h.219c.088-1.071.255-2.365.502-3.883.248-1.517.488-2.796.722-3.838L73.663 111h13.111l10.49 44.006c.525 2.172.962 4.939 1.311 8.3h.175c.145-2.32.51-4.998 1.093-8.033L108.234 111h11.932l-14.685 64H91.538L81.53 132.601c-.292-1.22-.62-2.811-.984-4.775-.364-1.963-.59-3.392-.677-4.284h-.175c-.117 1.041-.343 2.588-.677 4.64-.336 2.054-.605 3.571-.81 4.553L68.812 175h-14.16l-14.817-64h12.15l9.135 44.765c.204.922.4 2.142.59 3.659z"/></g></svg>