<svg xmlns="http://www.w3.org/2000/svg" viewBox="0 0 256 256"><g fill="#FFF"><path d="M36 198h184c2.206 0 4-1.794 4-4V63.616l-94.248 89.321a3.992 3.992 0 0 1-2.752 1.097 3.99 3.99 0 0 1-2.783-1.127L32 63.57V194c0 2.206 1.794 4 4 4z"/><path d="M218.295 58H37.749l89.281 86.494z"/></g><path fill="#D2D0CE" d="M126.78 176.03h.94a.03.03 0 1 0 0-.06h-.94a.03.03 0 1 0 0 .06z"/><path opacity=".64" fill="#605E5C" d="M220 50H36c-6.617 0-12 5.383-12 12v132c0 6.617 5.383 12 12 12h184c6.617 0 12-5.383 12-12V62c0-6.617-5.383-12-12-12zm-1.705 8l-91.265 86.494L37.75 58h180.546zM220 198H36c-2.206 0-4-1.794-4-4V63.57l92.217 89.337a3.99 3.99 0 0 0 2.783 1.127c.99 0 1.98-.365 2.752-1.096L224 63.615V194c0 2.206-1.794 4-4 4z"/></svg>