<svg xmlns="http://www.w3.org/2000/svg" viewBox="0 0 256 256"><g fill="#FFF"><path d="M36 197h184c2.206 0 4-1.794 4-4V85H32v108c0 2.206 1.794 4 4 4zM32 77h192V63c0-2.206-1.794-4-4-4H36c-2.206 0-4 1.794-4 4v14z"/></g><circle fill="#C8C6C4" cx="42" cy="68" r="5"/><circle fill="#C8C6C4" cx="57" cy="68" r="5"/><circle fill="#C8C6C4" cx="73" cy="68" r="5"/><path fill="#D2D0CE" d="M127.78 174.03h.94a.03.03 0 1 0 0-.06h-.94a.03.03 0 1 0 0 .06z"/><path fill="#C8C6C4" d="M84 109h54a4 4 0 0 0 0-8H84a4 4 0 0 0 0 8zM84 125h54a4 4 0 0 0 0-8H84a4 4 0 0 0 0 8zM84 141h54a4 4 0 0 0 0-8H84a4 4 0 0 0 0 8zM84 157h54a4 4 0 0 0 0-8H84a4 4 0 0 0 0 8zM84 173h54a4 4 0 0 0 0-8H84a4 4 0 0 0 0 8z"/><path fill="#69AFE5" d="M200 173h-40a8 8 0 0 1-8-8v-56a8 8 0 0 1 8-8h40a8 8 0 0 1 8 8v56a8 8 0 0 1-8 8z"/><path fill="#EDEBE9" d="M72 197H36a4 4 0 0 1-4-4V85h40v112z"/><path fill="#C8C6C4" d="M44 109h16a4 4 0 0 0 0-8H44a4 4 0 0 0 0 8zM44 125h16a4 4 0 0 0 0-8H44a4 4 0 0 0 0 8zM44 141h16a4 4 0 0 0 0-8H44a4 4 0 0 0 0 8z"/><path opacity=".64" fill="#605E5C" d="M220 51H36c-6.617 0-12 5.383-12 12v130c0 6.617 5.383 12 12 12h184c6.617 0 12-5.383 12-12V63c0-6.617-5.383-12-12-12zM36 59h184c2.206 0 4 1.794 4 4v14H32V63c0-2.206 1.794-4 4-4zm184 138H36c-2.206 0-4-1.794-4-4V85h192v108c0 2.206-1.794 4-4 4z"/></svg>