<svg xmlns="http://www.w3.org/2000/svg" viewBox="0 0 256 256"><path fill="#FFB900" d="M240 74v124c0 5.523-4.477 10-10 10H26c-5.523 0-10-4.477-10-10V58c0-5.523 4.477-10 10-10h69.716a20 20 0 0 1 14.142 5.858L120 64h110c5.523 0 10 4.477 10 10z"/><path fill="#FFD75E" d="M16 80v118c0 5.523 4.477 10 10 10h204c5.523 0 10-4.477 10-10V74c0-5.523-4.477-10-10-10H120l-10.142 10.142A20 20 0 0 1 95.716 80H16z"/><linearGradient id="a" gradientUnits="userSpaceOnUse" x1="128" y1="64" x2="128" y2="208"><stop offset="0" stop-color="#fff" stop-opacity="0"/><stop offset=".999" stop-color="#ffd75e" stop-opacity=".3"/></linearGradient><path fill="url(#a)" d="M16 80v118c0 5.523 4.477 10 10 10h204c5.523 0 10-4.477 10-10V74c0-5.523-4.477-10-10-10H120l-10.142 10.142A20 20 0 0 1 95.716 80H16z"/><path fill="#E67628" d="M232 206H24a9.942 9.942 0 0 1-5.992-2.008C19.832 206.422 22.728 208 26 208h204c3.272 0 6.168-1.579 7.992-4.008A9.942 9.942 0 0 1 232 206z"/><path opacity=".4" fill="#FFF" d="M120 64l-10.142 10.142A20 20 0 0 1 95.716 80H16v2h80.302c5.57 0 10.91-2.212 14.849-6.15L123 64h-3z"/><g><path fill="#BF5712" d="M216.323 178.388l4.844 15.507-12.5-9.609-12.5 9.61 4.843-15.508-12.343-9.493h15.312l4.688-15 4.687 15h15.313l-12.344 9.493zm.097 8.71c-.495-1.614-.99-3.22-1.484-4.814-.495-1.595-1.003-3.2-1.523-4.814a247.466 247.466 0 0 0 3.964-3.028 517.81 517.81 0 0 1 3.946-3.047h-9.805l-2.852-9.12-2.851 9.12h-9.805a520.615 520.615 0 0 1 3.945 3.047 243.499 243.499 0 0 0 3.965 3.028 440.704 440.704 0 0 0-1.523 4.814c-.495 1.595-.99 3.2-1.485 4.815l7.754-5.977 7.754 5.977z"/></g></svg>