<svg xmlns="http://www.w3.org/2000/svg" viewBox="0 0 256 256"><g fill="#FFF"><path d="M52 232h152c2.206 0 4-1.794 4-4V72h-36c-6.617 0-12-5.383-12-12V24H52c-2.206 0-4 1.794-4 4v200c0 2.206 1.794 4 4 4z"/><path d="M204.344 64L168 27.657V60c0 2.206 1.794 4 4 4h32.344z"/></g><path opacity=".64" fill="#605E5C" d="M216 68a3.96 3.96 0 0 0-.396-1.707 11.921 11.921 0 0 0-3.119-5.465l-41.313-41.312A11.918 11.918 0 0 0 162.686 16H52c-6.617 0-12 5.383-12 12v200c0 6.617 5.383 12 12 12h152c6.617 0 12-5.383 12-12V69.314c0-.298-.022-.592-.043-.886.015-.143.043-.281.043-.428zm-11.656-4H172c-2.206 0-4-1.794-4-4V27.657L204.344 64zM204 232H52c-2.206 0-4-1.794-4-4V28c0-2.206 1.794-4 4-4h108v36c0 6.617 5.383 12 12 12h36v156c0 2.206-1.794 4-4 4z"/><path fill="#FF5C0D" d="M144.075 160.97H104.7l-6.9 16.047c-1.7 3.949-2.55 6.898-2.55 8.848 0 1.55.736 2.913 2.214 4.084 1.472 1.179 4.661 1.94 9.561 2.29v2.773H75v-2.774c4.25-.75 7-1.724 8.25-2.924 2.55-2.4 5.375-7.273 8.475-14.622l35.775-83.68h2.625l35.4 84.58c2.85 6.799 5.44 11.208 7.76 13.236 2.33 2.021 5.565 3.16 9.715 3.41v2.774h-40.125v-2.774c4.05-.2 6.79-.875 8.21-2.024 1.43-1.15 2.14-2.55 2.14-4.2 0-2.199-1-5.673-3-10.422l-6.15-14.621zm-2.1-5.548l-17.25-41.09-17.7 41.09h34.95z"/></svg>