<svg xmlns="http://www.w3.org/2000/svg" viewBox="0 0 256 256"><path fill="#FFB900" d="M240 74v124c0 5.523-4.477 10-10 10H26c-5.523 0-10-4.477-10-10V58c0-5.523 4.477-10 10-10h69.716a20 20 0 0 1 14.142 5.858L120 64h110c5.523 0 10 4.477 10 10z"/><path fill="#FFD75E" d="M16 80v118c0 5.523 4.477 10 10 10h204c5.523 0 10-4.477 10-10V74c0-5.523-4.477-10-10-10H120l-10.142 10.142A20 20 0 0 1 95.716 80H16z"/><linearGradient id="a" gradientUnits="userSpaceOnUse" x1="128" y1="64" x2="128" y2="208"><stop offset="0" stop-color="#fff" stop-opacity="0"/><stop offset=".999" stop-color="#ffd75e" stop-opacity=".3"/></linearGradient><path fill="url(#a)" d="M16 80v118c0 5.523 4.477 10 10 10h204c5.523 0 10-4.477 10-10V74c0-5.523-4.477-10-10-10H120l-10.142 10.142A20 20 0 0 1 95.716 80H16z"/><path fill="#E67628" d="M232 206H24a9.942 9.942 0 0 1-5.992-2.008C19.832 206.422 22.728 208 26 208h204c3.272 0 6.168-1.579 7.992-4.008A9.942 9.942 0 0 1 232 206z"/><path opacity=".4" fill="#FFF" d="M120 64l-10.142 10.142A20 20 0 0 1 95.716 80H16v2h80.302c5.57 0 10.91-2.212 14.849-6.15L123 64h-3z"/><g><path fill="#BF5712" d="M203.493 183.767v-2.375c.94 0 1.84-.109 2.7-.325a6.561 6.561 0 0 0 2.272-1.039 5.205 5.205 0 0 0 1.568-1.838c.39-.748.585-1.66.585-2.736 0-.816-.158-1.583-.473-2.3a6.112 6.112 0 0 0-1.28-1.883 6.123 6.123 0 0 0-1.884-1.282 5.67 5.67 0 0 0-2.3-.472h-9.5c-.817 0-1.584.158-2.302.472a6.119 6.119 0 0 0-1.883 1.282 6.114 6.114 0 0 0-1.28 1.882 5.655 5.655 0 0 0-.473 2.301c0 1.076.195 1.988.584 2.736a5.2 5.2 0 0 0 1.568 1.838 6.555 6.555 0 0 0 2.273 1.04c.86.215 1.76.324 2.7.324v2.375h-1.188c-1.15 0-2.23-.22-3.238-.659a8.476 8.476 0 0 1-2.634-1.78 8.473 8.473 0 0 1-1.782-2.636c-.44-1.008-.658-2.088-.658-3.238s.219-2.23.658-3.238a8.476 8.476 0 0 1 1.782-2.635 8.473 8.473 0 0 1 2.634-1.781 8.028 8.028 0 0 1 3.238-.658h9.5c1.15 0 2.23.22 3.238.658a8.488 8.488 0 0 1 2.635 1.781 8.49 8.49 0 0 1 1.781 2.635c.439 1.009.659 2.088.659 3.238s-.22 2.23-.659 3.238a8.494 8.494 0 0 1-1.781 2.635 8.485 8.485 0 0 1-2.635 1.781 8.03 8.03 0 0 1-3.238.659h-1.187zm11.875-9.5v2.375c.94 0 1.84.108 2.7.324.859.217 1.617.563 2.272 1.039a5.205 5.205 0 0 1 1.568 1.838c.39.748.585 1.66.585 2.736 0 .816-.158 1.584-.473 2.3a6.1 6.1 0 0 1-3.164 3.165 5.67 5.67 0 0 1-2.3.473h-9.5a5.668 5.668 0 0 1-2.302-.473 6.119 6.119 0 0 1-1.883-1.281 6.102 6.102 0 0 1-1.28-1.883 5.651 5.651 0 0 1-.473-2.3c0-1.077.195-1.99.584-2.737a5.2 5.2 0 0 1 1.568-1.838 6.555 6.555 0 0 1 2.273-1.04c.86-.215 1.76-.323 2.7-.323v-2.375h-1.188c-1.15 0-2.23.22-3.238.658a8.476 8.476 0 0 0-2.634 1.781 8.473 8.473 0 0 0-1.782 2.635c-.44 1.009-.658 2.088-.658 3.238s.219 2.23.658 3.238a8.476 8.476 0 0 0 1.782 2.635 8.473 8.473 0 0 0 2.634 1.781 8.028 8.028 0 0 0 3.238.659h9.5c1.15 0 2.23-.22 3.238-.659a8.488 8.488 0 0 0 2.635-1.78 8.49 8.49 0 0 0 1.781-2.636c.439-1.008.659-2.087.659-3.238s-.22-2.23-.659-3.238a8.494 8.494 0 0 0-1.781-2.635 8.485 8.485 0 0 0-2.635-1.781 8.03 8.03 0 0 0-3.238-.658h-1.187z"/></g></svg>