<svg xmlns="http://www.w3.org/2000/svg" viewBox="0 0 256 256"><g fill="#FFF"><path d="M36 197h184c2.206 0 4-1.794 4-4V85H32v108c0 2.206 1.794 4 4 4zM32 77h192V63c0-2.206-1.794-4-4-4H36c-2.206 0-4 1.794-4 4v14z"/></g><path opacity=".64" fill="#605E5C" d="M220 51H36c-6.617 0-12 5.383-12 12v130c0 6.617 5.383 12 12 12h184c6.617 0 12-5.383 12-12V63c0-6.617-5.383-12-12-12zM36 59h184c2.206 0 4 1.794 4 4v14H32V63c0-2.206 1.794-4 4-4zm184 138H36c-2.206 0-4-1.794-4-4V85h192v108c0 2.206-1.794 4-4 4z"/><circle fill="#C8C6C4" cx="42" cy="68" r="5"/><circle fill="#C8C6C4" cx="57" cy="68" r="5"/><circle fill="#C8C6C4" cx="73" cy="68" r="5"/><g fill="none" stroke="#69AFE5" stroke-width="8" stroke-miterlimit="10"><circle cx="128" cy="141" r="36"/><ellipse cx="128" cy="141" rx="16" ry="36"/><path d="M98.5 125h59M98.5 157h59"/></g></svg>