<svg xmlns="http://www.w3.org/2000/svg" viewBox="0 0 256 256"><g fill="#FFF"><path d="M52 232h152c2.206 0 4-1.794 4-4V72h-36c-6.617 0-12-5.383-12-12V24H52c-2.206 0-4 1.794-4 4v200c0 2.206 1.794 4 4 4z"/><path d="M204.344 64L168 27.657V60c0 2.206 1.794 4 4 4h32.344z"/></g><path opacity=".64" fill="#605E5C" d="M216 68a3.96 3.96 0 0 0-.396-1.707 11.921 11.921 0 0 0-3.119-5.465l-41.313-41.312A11.918 11.918 0 0 0 162.686 16H52c-6.617 0-12 5.383-12 12v200c0 6.617 5.383 12 12 12h152c6.617 0 12-5.383 12-12V69.314c0-.298-.022-.592-.043-.886.015-.143.043-.281.043-.428zm-11.656-4H172c-2.206 0-4-1.794-4-4V27.657L204.344 64zM204 232H52c-2.206 0-4-1.794-4-4V28c0-2.206 1.794-4 4-4h108v36c0 6.617 5.383 12 12 12h36v156c0 2.206-1.794 4-4 4z"/><path fill="#69AFE5" d="M173.301 115.536l-43.301-25a3.999 3.999 0 0 0-4 0l-43.301 25a3.999 3.999 0 0 0-2 3.464v50c0 1.43.762 2.75 2 3.464l43.301 25c.12.07.245.126.37.182.032.015.061.033.093.046a3.958 3.958 0 0 0 .826.236c.236.043.473.072.711.072s.475-.03.71-.072a4.077 4.077 0 0 0 .827-.236c.032-.014.06-.032.092-.046.125-.056.25-.112.37-.182l43.302-25a3.999 3.999 0 0 0 2-3.464v-50c0-1.43-.762-2.75-2-3.464zM128 98.62l35.176 20.309-35.276 20.366-35.176-20.309L128 98.62zm-39.301 27.28L124 146.278v40.793L88.699 166.69v-40.792zM132 187.071v-40.907l35.301-20.381v40.906L132 187.072z"/></svg>