<svg xmlns="http://www.w3.org/2000/svg" viewBox="0 0 256 256"><g fill="#FFF"><path d="M68 220h136c2.206 0 4-1.794 4-4V40.314c0-.108.023-.209.032-.314H63.968c.009.105.032.206.032.313V216c0 2.206 1.794 4 4 4z"/><path d="M216 40.313V216c0 6.617-5.383 12-12 12H80v4c0 2.206 1.794 4 4 4h136c2.206 0 4-1.794 4-4V30c0-.676.183-1.302.48-1.86L212 18v18.314a4 4 0 0 1 4 4z"/></g><path opacity=".64" fill="#605E5C" d="M228 26a4 4 0 0 0-4 4v202c0 2.206-1.794 4-4 4H84c-2.206 0-4-1.794-4-4v-4h124c6.617 0 12-5.383 12-12V40.314a4 4 0 0 0-8 0V216c0 2.206-1.794 4-4 4H68c-2.206 0-4-1.794-4-4V40.314a4 4 0 0 0-8 0V216c0 6.617 5.383 12 12 12h4v4c0 6.617 5.383 12 12 12h136c6.617 0 12-5.383 12-12V30a4 4 0 0 0-4-4z"/><path fill="none" stroke="#C8C6C4" stroke-width="8" stroke-miterlimit="10" d="M180 191h-71a8 8 0 0 1-8-8v-75a8 8 0 0 1 8-8h71a8 8 0 0 1 8 8v75a8 8 0 0 1-8 8z"/><g fill="#8BBF8A"><path d="M164 131h-52v-16h52a4 4 0 0 1 4 4v8a4 4 0 0 1-4 4zM184 155h-27a4 4 0 0 1-4-4v-8a4 4 0 0 1 4-4h27v16zM164 179h-52v-16h52a4 4 0 0 1 4 4v8a4 4 0 0 1-4 4z"/></g><path fill="#31752F" d="M212.686 12H64a8 8 0 0 0-8 8v24h160V32.828c0-1.781 2.154-2.674 3.414-1.414L232 44V31.314a8 8 0 0 0-2.343-5.657l-11.314-11.314A8 8 0 0 0 212.686 12zM33 199h94a9 9 0 0 0 9-9V96a9 9 0 0 0-9-9H33a9 9 0 0 0-9 9v94a9 9 0 0 0 9 9z"/><path fill="#F9F7F7" d="M84.929 111c7.762 0 13.705 1.738 17.829 5.21 4.122 3.475 6.184 8.503 6.184 15.088 0 4.23-1.02 7.99-3.059 11.281-2.039 3.293-4.938 5.853-8.699 7.68-3.76 1.828-8.117 2.741-13.07 2.741H72.058v23h-13v-65h25.87zm-12.87 32h10.908c4.256 0 7.47-.958 9.642-2.875 2.174-1.916 3.26-4.715 3.26-8.397 0-7.152-4.165-10.728-12.494-10.728H72.06v22z"/></svg>