<svg xmlns="http://www.w3.org/2000/svg" viewBox="0 0 256 256"><path fill="#FFF" d="M52 232h132c2.206 0 4-1.794 4-4v-8H72c-6.617 0-12-5.383-12-12V44h-8c-2.206 0-4 1.794-4 4v180c0 2.206 1.794 4 4 4z"/><path fill="#FFF" d="M208 208V72h-36c-6.617 0-12-5.383-12-12V24H72c-2.206 0-4 1.794-4 4v180c0 2.206 1.794 4 4 4h132c2.206 0 4-1.794 4-4z"/><path fill="#FFF" d="M204.344 64L168 27.657V60c0 2.206 1.794 4 4 4h32.344z"/><path opacity=".64" fill="#605E5C" d="M216 68c0-.613-.149-1.188-.396-1.707a11.92 11.92 0 0 0-3.119-5.465l-41.313-41.313A11.92 11.92 0 0 0 162.686 16H72c-6.617 0-12 5.383-12 12v8h-8c-6.617 0-12 5.383-12 12v180c0 6.617 5.383 12 12 12h132c6.617 0 12-5.383 12-12v-8h8c6.617 0 12-5.383 12-12V69.314c0-.298-.022-.592-.043-.886.015-.143.043-.281.043-.428zm-48-40.343L204.344 64H172c-2.206 0-4-1.794-4-4V27.657zM188 228c0 2.206-1.794 4-4 4H52c-2.206 0-4-1.794-4-4V48c0-2.206 1.794-4 4-4h8v164c0 6.617 5.383 12 12 12h116v8zm20-20c0 2.206-1.794 4-4 4H72c-2.206 0-4-1.794-4-4V28c0-2.206 1.794-4 4-4h88v36c0 6.617 5.383 12 12 12h36v136z"/></svg>