<svg xmlns="http://www.w3.org/2000/svg" viewBox="0 0 256 256"><path opacity=".64" fill="#605E5C" d="M204 240H68c-6.617 0-12-5.383-12-12V28c0-6.617 5.383-12 12-12h136c6.617 0 12 5.383 12 12v2h4c6.617 0 12 5.383 12 12v28c0 6.617-5.383 12-12 12h-4v146c0 6.617-5.383 12-12 12zM68 24c-2.206 0-4 1.794-4 4v200c0 2.206 1.794 4 4 4h136c2.206 0 4-1.794 4-4V80c0-3.309 2.691-6 6-6h6c2.206 0 4-1.794 4-4V42c0-2.206-1.794-4-4-4h-6c-3.309 0-6-2.691-6-6v-4c0-2.206-1.794-4-4-4H68z"/><path fill="#FFF" d="M220 74c2.206 0 4-1.794 4-4V42c0-2.206-1.794-4-4-4h-6c-3.309 0-6-2.691-6-6v-4c0-2.206-1.794-4-4-4H68c-2.206 0-4 1.794-4 4v200c0 2.206 1.794 4 4 4h136c2.206 0 4-1.794 4-4V80c0-3.309 2.691-6 6-6h6z"/><path fill="#7719AA" d="M33 199h94a9 9 0 0 0 9-9V96a9 9 0 0 0-9-9H33a9 9 0 0 0-9 9v94a9 9 0 0 0 9 9z"/><path fill="#F9F7F7" d="M51.02 110h14.386l28.588 43.764c1.302 1.964 2.278 3.543 2.929 4.74l.063.002L96.98 110h12v65.992H95.482L65.825 131.03c-1.24-1.902-2.123-3.452-2.65-4.648l-.208-.003.004 49.62-11.95-.008V110z"/></svg>