<svg xmlns="http://www.w3.org/2000/svg" viewBox="0 0 256 256"><path opacity=".64" fill="#605E5C" d="M204 240H68c-6.617 0-12-5.383-12-12V28c0-6.617 5.383-12 12-12h136c6.617 0 12 5.383 12 12v200c0 6.617-5.383 12-12 12zM68 24c-2.206 0-4 1.794-4 4v200c0 2.206 1.794 4 4 4h136c2.206 0 4-1.794 4-4V28c0-2.206-1.794-4-4-4H68z"/><path fill="#CA64EA" d="M232 68V44a8 8 0 0 0-8-8h-8v40h8a8 8 0 0 0 8-8z"/><path fill="#AE4BD5" d="M232 115V91a8 8 0 0 0-8-8h-8v40h8a8 8 0 0 0 8-8z"/><path fill="#9332BF" d="M232 163v-24a8 8 0 0 0-8-8h-8v40h8a8 8 0 0 0 8-8z"/><path fill="#7719AA" d="M232 211v-24a8 8 0 0 0-8-8h-8v40h8a8 8 0 0 0 8-8z"/><path fill="#FFF" d="M68 232h136c2.206 0 4-1.794 4-4V28c0-2.206-1.794-4-4-4H68c-2.206 0-4 1.794-4 4v200c0 2.206 1.794 4 4 4z"/><path fill="#7719AA" d="M33 199h94a9 9 0 0 0 9-9V96a9 9 0 0 0-9-9H33a9 9 0 0 0-9 9v94a9 9 0 0 0 9 9z"/><path fill="#F9F7F7" d="M51.02 110h14.386l28.588 43.764c1.302 1.964 2.278 3.543 2.929 4.74l.063.002L96.98 110h12v65.992H95.482L65.825 131.03c-1.24-1.902-2.123-3.452-2.65-4.648l-.208-.003.004 49.62-11.95-.008V110z"/></svg>