<svg xmlns="http://www.w3.org/2000/svg" viewBox="0 0 256 256"><path opacity=".64" fill="#605E5C" d="M220 40H70c-6.617 0-12 5.383-12 12v152c0 6.617 5.383 12 12 12h150c6.617 0 12-5.383 12-12V52c0-6.617-5.383-12-12-12zM70 48h150c2.206 0 4 1.794 4 4v13H66V52c0-2.206 1.794-4 4-4zm150 160H70c-2.206 0-4-1.794-4-4V73h158v131c0 2.206-1.794 4-4 4z"/><g fill="#FFF"><path d="M66 65h158V52c0-2.206-1.794-4-4-4H70c-2.206 0-4 1.794-4 4v13zM70 208h150c2.206 0 4-1.794 4-4V73H66v131c0 2.206 1.794 4 4 4z"/></g><path fill="#C8C6C4" d="M204.594 156H102.406c-1.881 0-3.406 1.79-3.406 4s1.525 4 3.406 4H204.594c1.881 0 3.406-1.79 3.406-4s-1.525-4-3.406-4zM204.594 176H102.406c-1.881 0-3.406 1.79-3.406 4s1.525 4 3.406 4H204.594c1.881 0 3.406-1.79 3.406-4s-1.525-4-3.406-4z"/><g fill="#C8C6C4"><circle cx="77" cy="57" r="4"/><circle cx="91" cy="57" r="4"/><circle cx="105" cy="57" r="4"/></g><g fill="none" stroke="#C8C6C4" stroke-miterlimit="10"><path stroke-width="5" d="M135.933 117.431l13.379 12.621M156.439 128.965l17.943-24.991M182.712 103.974l11.693 15.059"/><circle stroke-width="7" cx="132.5" cy="112.5" r="6"/><circle stroke-width="7" cx="153.5" cy="134.5" r="6"/><circle stroke-width="7" cx="198.5" cy="124.5" r="6"/><circle stroke-width="7" cx="177.5" cy="99.5" r="6"/></g><path fill="#F2C80F" d="M33 195h94a9 9 0 0 0 9-9V92a9 9 0 0 0-9-9H33a9 9 0 0 0-9 9v94a9 9 0 0 0 9 9z"/><path fill="#333" d="M102 168c-2.2 0-4-1.8-4-4v-48c0-2.2 1.8-4 4-4s4 1.8 4 4v48c0 2.2-1.8 4-4 4zM87 169c-2.2 0-4-1.8-4-4v-31c0-2.2 1.8-4 4-4s4 1.8 4 4v31c0 2.2-1.8 4-4 4zM72 169c-2.2 0-4-1.8-4-4v-38c0-2.2 1.8-4 4-4s4 1.8 4 4v38c0 2.2-1.8 4-4 4zM57 169c-2.2 0-4-1.8-4-4v-16c0-2.2 1.8-4 4-4s4 1.8 4 4v16c0 2.2-1.8 4-4 4z"/></svg>