<svg xmlns="http://www.w3.org/2000/svg" viewBox="0 0 256 256"><path fill="#FFF" d="M52 232h152c2.206 0 4-1.794 4-4V72h-36c-6.617 0-12-5.383-12-12V24H52c-2.206 0-4 1.794-4 4v200c0 2.206 1.794 4 4 4z"/><path fill="#FFF" d="M204.344 64L168 27.657V60c0 2.206 1.794 4 4 4h32.344z"/><path opacity=".64" fill="#605E5C" d="M216 68a3.96 3.96 0 0 0-.396-1.707 11.921 11.921 0 0 0-3.119-5.465l-41.313-41.312A11.918 11.918 0 0 0 162.686 16H52c-6.617 0-12 5.383-12 12v200c0 6.617 5.383 12 12 12h152c6.617 0 12-5.383 12-12V69.314c0-.298-.022-.592-.043-.886.015-.143.043-.281.043-.428zm-11.656-4H172c-2.206 0-4-1.794-4-4V27.657L204.344 64zM204 232H52c-2.206 0-4-1.794-4-4V28c0-2.206 1.794-4 4-4h108v36c0 6.617 5.383 12 12 12h36v156c0 2.206-1.794 4-4 4z"/><path fill="#C8C6C4" d="M68 101h120a4 4 0 0 0 0-8H68a4 4 0 0 0 0 8zM68 117h120a4 4 0 0 0 0-8H68a4 4 0 0 0 0 8z"/><path fill="#D2D0CE" d="M127.78 95.53h.94a.03.03 0 1 0 0-.06h-.94a.03.03 0 1 0 0 .06z"/><path fill="#C8C6C4" d="M68 134h120a4 4 0 0 0 0-8H68a4 4 0 0 0 0 8zM68 150h120a4 4 0 0 0 0-8H68a4 4 0 0 0 0 8z"/><path fill="#D2D0CE" d="M127.78 128.53h.94a.03.03 0 1 0 0-.06h-.94a.03.03 0 1 0 0 .06z"/><path fill="#D65532" d="M216.883 214l-42.886-.118a1 1 0 0 1-.997-1v-43.88a1 1 0 0 1 1.003-1l43.007.119c2.21.006 3.995 1.727 3.99 3.844l-.106 38.213c-.006 2.117-1.801 3.828-4.01 3.822zM39.116 168l42.887.118a1 1 0 0 1 .997 1v43.88a1 1 0 0 1-1.003 1l-43.007-.119c-2.21-.006-3.996-1.727-3.99-3.844l.105-38.213c.006-2.117 1.802-3.828 4.011-3.822zM159 220H97c-4.411 0-8-3.589-8-8v-41c0-4.411 3.589-8 8-8h62c4.411 0 8 3.589 8 8v41c0 4.411-3.589 8-8 8zm-62-47v37a2 2 0 0 0 2 2h58.005a2 2 0 0 0 2-2L159 173a2 2 0 0 0-2-2H99a2 2 0 0 0-2 2z"/></svg>