<svg xmlns="http://www.w3.org/2000/svg" viewBox="0 0 256 256"><path fill="#FFF" d="M36 224h184c2.206 0 4-1.794 4-4V36c0-2.206-1.794-4-4-4H36c-2.206 0-4 1.794-4 4v184c0 2.206 1.794 4 4 4z"/><path fill="#FF9810" d="M173 109.745c-10.477 0-19-8.524-19-19s8.523-19 19-19 19 8.523 19 19-8.524 19-19 19zm0-30c-6.065 0-11 4.934-11 11s4.935 11 11 11 11-4.935 11-11-4.935-11-11-11z"/><path fill="#A6CCC3" d="M178.92 184H77.073c-4.726 0-9.224-2.437-11.485-6.587-2.545-4.671-1.996-10.18 1.327-14.21l30.615-43.915a12.697 12.697 0 0 1 9.68-4.471c3.733 0 7.261 1.63 9.681 4.47l.186.236 18.255 25.018c.027.04.099.148.276.158.18.013.26-.087.292-.124l9.577-11.14a12.686 12.686 0 0 1 9.668-4.456c3.732 0 7.26 1.63 9.68 4.471l24.153 29.626c3.404 4.026 3.999 9.575 1.46 14.284-2.253 4.18-6.77 6.64-11.52 6.64zm-75.189-59.65l-30.588 43.878c-1.754 2.059-1.526 5.03.931 7.113.51.433 1.169.659 1.837.659h104.177c.669 0 1.328-.226 1.838-.659 2.457-2.084 2.685-5.054.931-7.114l-.055-.066-24.122-29.59c-.856-1.004-2.13-1.592-3.535-1.592a4.644 4.644 0 0 0-3.589 1.658l-10.177 11.838a5.185 5.185 0 0 1-1.79 1.349c-4.225 1.906-8.566.574-10.848-2.75l-18.024-24.696a4.641 4.641 0 0 0-3.505-1.561 4.642 4.642 0 0 0-3.48 1.533z"/><path opacity=".64" fill="#605E5C" d="M220 232H36c-6.617 0-12-5.383-12-12V36c0-6.617 5.383-12 12-12h184c6.617 0 12 5.383 12 12v184c0 6.617-5.383 12-12 12zM36 32c-2.206 0-4 1.794-4 4v184c0 2.206 1.794 4 4 4h184c2.206 0 4-1.794 4-4V36c0-2.206-1.794-4-4-4H36z"/></svg>