<svg xmlns="http://www.w3.org/2000/svg" viewBox="0 0 256 256"><path fill="#FFF" d="M36 224h184c2.206 0 4-1.794 4-4V36c0-2.206-1.794-4-4-4H36c-2.206 0-4 1.794-4 4v184c0 2.206 1.794 4 4 4z"/><path opacity=".64" fill="#605E5C" d="M220 232H36c-6.617 0-12-5.383-12-12V36c0-6.617 5.383-12 12-12h184c6.617 0 12 5.383 12 12v184c0 6.617-5.383 12-12 12zM36 32c-2.206 0-4 1.794-4 4v184c0 2.206 1.794 4 4 4h184c2.206 0 4-1.794 4-4V36c0-2.206-1.794-4-4-4H36z"/><g fill="#C8C6C4"><path d="M173 109.745c-10.477 0-19-8.524-19-19s8.523-19 19-19 19 8.523 19 19-8.524 19-19 19zm0-30c-6.065 0-11 4.934-11 11s4.935 11 11 11 11-4.935 11-11-4.935-11-11-11zM179.268 184.255H76.732c-5.017 0-9.44-2.829-11.544-7.383-2.073-4.49-1.408-9.61 1.728-13.414l30.615-43.915a12.697 12.697 0 0 1 9.68-4.47c3.733 0 7.261 1.629 9.681 4.47l.186.235 18.255 25.019c.027.04.099.147.276.157.18.013.26-.086.292-.123l9.577-11.14a12.686 12.686 0 0 1 9.668-4.457c3.732 0 7.26 1.63 9.68 4.472l24.153 29.626c3.227 3.816 3.93 9 1.833 13.54-2.104 4.554-6.527 7.383-11.544 7.383zm-75.537-59.65l-30.588 43.878c-1.225 1.438-1.483 3.32-.691 5.034.791 1.715 2.392 2.738 4.28 2.738h102.536c1.888 0 3.489-1.023 4.28-2.738.792-1.714.534-3.596-.69-5.034l-.056-.066-24.122-29.59c-.855-1.004-2.13-1.593-3.534-1.593a4.644 4.644 0 0 0-3.59 1.658l-9.589 11.154a8.294 8.294 0 0 1-6.834 2.894 8.293 8.293 0 0 1-6.392-3.61l-18.024-24.697a4.641 4.641 0 0 0-3.505-1.561c-1.35 0-2.579.543-3.48 1.534z"/></g></svg>