<svg xmlns="http://www.w3.org/2000/svg" viewBox="0 0 256 256"><path fill="#FFF" d="M34.572 199.34c1.817-.506 3.853-1.11 6.094-1.775 15.28-4.533 40.857-12.121 86.667-12.121 45.57 0 72.742 7.764 88.978 12.403 1.56.445 3.603.993 5.191 1.403a1.995 1.995 0 0 0 2.498-1.932c-.005-17.666-.03-122.239-.04-139.822a1.992 1.992 0 0 0-2.46-1.94c-2.098.505-4.564 1.135-7.292 1.833-17.527 4.482-46.862 11.984-86.875 11.984-41.336 0-69.21-7.467-85.865-11.928-2.596-.695-4.945-1.325-6.989-1.827-1.261-.31-2.666 1.083-2.666 2.382.01 17.592-.01 121.145 0 139 0 1.324 1.484 2.694 2.76 2.34z"/><path fill="#605E5C" d="M31.982 208a7.887 7.887 0 0 1-4.899-1.712A8.098 8.098 0 0 1 24 199.89V55.146a8.111 8.111 0 0 1 3.014-6.344 7.887 7.887 0 0 1 6.641-1.588c2.736.588 6.047 1.476 9.883 2.503 16.274 4.36 43.512 11.656 83.795 11.656 39.006 0 67.73-7.346 84.893-11.734 3.918-1.002 7.31-1.87 10.05-2.446 1.566-.33 3.216-.256 4.691.368 3.142 1.327 5.033 4.292 5.033 7.55v144.74c0 3.062-1.66 5.844-4.463 7.28-1.724.883-3.738 1.016-5.618.551-2.255-.557-4.834-1.294-7.807-2.143-15.832-4.524-42.33-12.095-86.779-12.095-44.65 0-69.527 7.38-84.392 11.79-3.46 1.027-6.448 1.914-9.114 2.549a7.958 7.958 0 0 1-1.845.218zm-.169-150c-.003 20.273-.052 135.3 0 139 .019 1.323 1.484 2.694 2.76 2.34 1.816-.506 3.852-1.11 6.093-1.775 15.28-4.533 40.856-12.121 86.667-12.121 45.57 0 72.742 7.764 88.978 12.403 1.56.445 3.603.993 5.19 1.403a1.996 1.996 0 0 0 2.498-1.932c.001-.318.012-122.239 0-139.822 0-1.293-1.243-2.242-2.5-1.94a561.791 561.791 0 0 0-7.291 1.833c-17.527 4.482-46.862 11.984-86.875 11.984-41.336 0-69.211-7.467-85.865-11.928-2.596-.695-4.945-1.325-6.989-1.827-1.261-.31-2.666 1.083-2.666 2.382z" opacity=".64"/><circle fill="none" stroke="#FF9810" stroke-width="7" stroke-miterlimit="10" cx="199.75" cy="97.25" r="11.75"/><path fill="#A6CCC3" d="M32.007 152.642l39.579-39.723a10.966 10.966 0 0 1 14.596.173l37.771 38.38a10.143 10.143 0 0 0 6.951 3.649c2.78.238 5.587-.708 7.663-2.594l18.05-16.408a10.96 10.96 0 0 1 14.785-.013L224 183.773v-10.797l-47.225-42.797a18.93 18.93 0 0 0-25.54.02l-18.05 16.408a2.077 2.077 0 0 1-1.602.543 2.096 2.096 0 0 1-1.487-.805l-.14-.18-38.145-38.758-.138-.134a18.946 18.946 0 0 0-25.476-.27l-34.171 34.288-.019 11.351z"/></svg>