<svg xmlns="http://www.w3.org/2000/svg" viewBox="0 0 256 256"><path fill="#FFB900" d="M240 74v124c0 5.523-4.477 10-10 10H26c-5.523 0-10-4.477-10-10V58c0-5.523 4.477-10 10-10h69.716a20 20 0 0 1 14.142 5.858L120 64h110c5.523 0 10 4.477 10 10z"/><path fill="#FFD75E" d="M16 80v118c0 5.523 4.477 10 10 10h204c5.523 0 10-4.477 10-10V74c0-5.523-4.477-10-10-10H120l-10.142 10.142A20 20 0 0 1 95.716 80H16z"/><linearGradient id="a" gradientUnits="userSpaceOnUse" x1="128" y1="64" x2="128" y2="208"><stop offset="0" stop-color="#fff" stop-opacity="0"/><stop offset=".999" stop-color="#ffd75e" stop-opacity=".3"/></linearGradient><path fill="url(#a)" d="M16 80v118c0 5.523 4.477 10 10 10h204c5.523 0 10-4.477 10-10V74c0-5.523-4.477-10-10-10H120l-10.142 10.142A20 20 0 0 1 95.716 80H16z"/><path fill="#E67628" d="M232 206H24a9.942 9.942 0 0 1-5.992-2.008C19.832 206.422 22.728 208 26 208h204c3.272 0 6.168-1.579 7.992-4.008A9.942 9.942 0 0 1 232 206z"/><path opacity=".4" fill="#FFF" d="M120 64l-10.142 10.142A20 20 0 0 1 95.716 80H16v2h80.302c5.57 0 10.91-2.212 14.849-6.15L123 64h-3z"/><g><path fill="#BF5712" d="M226.667 163.256v28.5h-38v-28.5h38zm-35.625 2.375v12.561l8.312-8.294 11.875 11.875 4.75-4.75 8.313 8.294v-19.686h-33.25zm0 23.75h24.436l-16.124-16.143-8.313 8.331v7.812zm33.25 0v-.687l-8.313-8.33-3.08 3.08 5.956 5.937h5.437zm-5.938-16.625c-.322 0-.6-.117-.835-.353a1.138 1.138 0 0 1-.352-.835c0-.32.117-.6.352-.835.235-.234.513-.352.835-.352.321 0 .6.118.835.352.235.236.353.514.353.835 0 .323-.118.601-.353.835a1.141 1.141 0 0 1-.835.353z"/></g></svg>