<svg xmlns="http://www.w3.org/2000/svg" viewBox="0 0 256 256"><g fill="#FFF"><path d="M68 232h152c2.206 0 4-1.794 4-4V72h-36c-6.617 0-12-5.383-12-12V24H68c-2.206 0-4 1.794-4 4v200c0 2.206 1.794 4 4 4z"/><path d="M220.344 64L184 27.657V60c0 2.206 1.794 4 4 4h32.344z"/></g><path opacity=".64" fill="#605E5C" d="M232 68a3.96 3.96 0 0 0-.396-1.707 11.921 11.921 0 0 0-3.119-5.465l-41.313-41.312A11.918 11.918 0 0 0 178.686 16H68c-6.617 0-12 5.383-12 12v200c0 6.617 5.383 12 12 12h152c6.617 0 12-5.383 12-12V69.314c0-.298-.022-.592-.043-.886.015-.143.043-.281.043-.428zm-11.656-4H188c-2.206 0-4-1.794-4-4V27.657L220.344 64zM220 232H68c-2.206 0-4-1.794-4-4V28c0-2.206 1.794-4 4-4h108v36c0 6.617 5.383 12 12 12h36v156c0 2.206-1.794 4-4 4z"/><path fill="#C8C6C4" d="M83 195h120a4 4 0 0 0 0-8H83a4 4 0 0 0 0 8zM83 211h120a4 4 0 0 0 0-8H83a4 4 0 0 0 0 8z"/><path fill="#D2D0CE" d="M142.78 189.53h.94a.03.03 0 1 0 0-.06h-.94a.03.03 0 1 0 0 .06z"/><path fill="none" stroke="#C8C6C4" stroke-width="5" stroke-miterlimit="10" d="M135.933 139.431l13.379 12.621M156.439 150.965l17.943-24.991M182.712 125.974l11.693 15.059"/><circle fill="none" stroke="#C8C6C4" stroke-width="7" stroke-miterlimit="10" cx="132.088" cy="134.945" r="6.088"/><circle fill="none" stroke="#C8C6C4" stroke-width="7" stroke-miterlimit="10" cx="153.555" cy="156.412" r="6.088"/><circle fill="none" stroke="#C8C6C4" stroke-width="7" stroke-miterlimit="10" cx="198.412" cy="146.8" r="6.088"/><circle fill="none" stroke="#C8C6C4" stroke-width="7" stroke-miterlimit="10" cx="177.906" cy="121.167" r="6.088"/><path fill="#F2C80F" d="M33 199h94a9 9 0 0 0 9-9V96a9 9 0 0 0-9-9H33a9 9 0 0 0-9 9v94a9 9 0 0 0 9 9z"/><path fill="#333" d="M102 173.5c-2.2 0-4-1.8-4-4V121c0-2.2 1.8-4 4-4s4 1.8 4 4v48.5c0 2.2-1.8 4-4 4zM87 173.5c-2.2 0-4-1.8-4-4V139c0-2.2 1.8-4 4-4s4 1.8 4 4v30.5c0 2.2-1.8 4-4 4zM72 173.5c-2.2 0-4-1.8-4-4V132c0-2.2 1.8-4 4-4s4 1.8 4 4v37.5c0 2.2-1.8 4-4 4zM57 173.5c-2.2 0-4-1.8-4-4V154c0-2.2 1.8-4 4-4s4 1.8 4 4v15.5c0 2.2-1.8 4-4 4z"/></svg>