<svg xmlns="http://www.w3.org/2000/svg" viewBox="0 0 256 256"><g fill="#FFF"><path d="M52 232h152c2.206 0 4-1.794 4-4V72h-36c-6.617 0-12-5.383-12-12V24H52c-2.206 0-4 1.794-4 4v200c0 2.206 1.794 4 4 4z"/><path d="M204.344 64L168 27.657V60c0 2.206 1.794 4 4 4h32.344z"/></g><path opacity=".64" fill="#605E5C" d="M216 68a3.96 3.96 0 0 0-.396-1.707 11.921 11.921 0 0 0-3.119-5.465l-41.313-41.312A11.918 11.918 0 0 0 162.686 16H52c-6.617 0-12 5.383-12 12v200c0 6.617 5.383 12 12 12h152c6.617 0 12-5.383 12-12V69.314c0-.298-.022-.592-.043-.886.015-.143.043-.281.043-.428zm-11.656-4H172c-2.206 0-4-1.794-4-4V27.657L204.344 64zM204 232H52c-2.206 0-4-1.794-4-4V28c0-2.206 1.794-4 4-4h108v36c0 6.617 5.383 12 12 12h36v156c0 2.206-1.794 4-4 4z"/><g fill="#D04727"><path d="M94.97 212a4 4 0 0 1-4-4v-28a4 4 0 0 1 8 0v28a4 4 0 0 1-4 4z"/><path d="M78 196a4 4 0 0 1-2.828-6.829l16.97-16.97a4 4 0 0 1 5.657 0l16.97 16.97a4 4 0 1 1-5.656 5.658L94.97 180.686l-14.143 14.143A3.988 3.988 0 0 1 78 196z"/></g><path fill="#C8C6C4" d="M100 104v26a4 4 0 0 0 8 0v-26a4 4 0 0 0-8 0z"/><path fill="#F5BA9D" d="M116 108v22a4 4 0 0 0 8 0v-22a4 4 0 0 0-8 0z"/><path fill="#C8C6C4" d="M132 112v18a4 4 0 0 0 8 0v-18a4 4 0 0 0-8 0z"/><path fill="#F5BA9D" d="M148 116v14a4 4 0 0 0 8 0v-14a4 4 0 0 0-8 0z"/><g fill="#C8C6C4"><path d="M178 92H78a4 4 0 0 1 0-8h100a4 4 0 0 1 0 8zM143 168h-30a4 4 0 0 1 0-8h30a4 4 0 0 1 0 8z"/><path d="M160 152H96c-6.617 0-12-5.383-12-12V84h88v56c0 6.617-5.383 12-12 12zM92 92v48c0 2.206 1.794 4 4 4h64c2.206 0 4-1.794 4-4V92H92z"/><path d="M128 166a4 4 0 0 1-4-4v-14a4 4 0 0 1 8 0v14a4 4 0 0 1-4 4z"/></g></svg>