<svg xmlns="http://www.w3.org/2000/svg" viewBox="0 0 256 256"><g fill="#FFF"><path d="M68 232h152c2.206 0 4-1.794 4-4V72h-36c-6.617 0-12-5.383-12-12V24H68c-2.206 0-4 1.794-4 4v200c0 2.206 1.794 4 4 4z"/><path d="M220.344 64L184 27.657V60c0 2.206 1.794 4 4 4h32.344z"/></g><path opacity=".64" fill="#605E5C" d="M232 68a3.96 3.96 0 0 0-.396-1.707 11.921 11.921 0 0 0-3.119-5.465l-41.313-41.312A11.918 11.918 0 0 0 178.686 16H68c-6.617 0-12 5.383-12 12v200c0 6.617 5.383 12 12 12h152c6.617 0 12-5.383 12-12V69.314c0-.298-.022-.592-.043-.886.015-.143.043-.281.043-.428zm-11.656-4H188c-2.206 0-4-1.794-4-4V27.657L220.344 64zM220 232H68c-2.206 0-4-1.794-4-4V28c0-2.206 1.794-4 4-4h108v36c0 6.617 5.383 12 12 12h36v156c0 2.206-1.794 4-4 4z"/><path fill="#ED6C47" d="M172 143l-1-1h-28l-1 1v19.897C148.449 172.6 159.475 179 172 179c19.882 0 36-16.118 36-36h-36z"/><path fill="#FF8F6B" d="M142 123.103V143h30v-36c-12.525 0-23.551 6.4-30 16.103z"/><path fill="#FFC7B5" d="M178 101v36h36c0-19.882-16.118-36-36-36z"/><g><path fill="#C43E1C" d="M33 199h94a9 9 0 0 0 9-9V96a9 9 0 0 0-9-9H33a9 9 0 0 0-9 9v94a9 9 0 0 0 9 9z"/><path fill="#F9F7F7" d="M83.929 111c7.762 0 13.705 1.738 17.829 5.21 4.122 3.475 6.184 8.503 6.184 15.088 0 4.23-1.02 7.99-3.059 11.281-2.039 3.293-4.938 5.853-8.699 7.68-3.76 1.828-8.117 2.741-13.07 2.741H71.058v23h-13v-65h25.87zm-12.87 32h10.908c4.256 0 7.47-.958 9.642-2.875 2.174-1.916 3.26-4.715 3.26-8.397 0-7.152-4.165-10.728-12.494-10.728H71.06v22z"/></g></svg>