<svg xmlns="http://www.w3.org/2000/svg" viewBox="0 0 256 256"><g fill="#FFF"><path d="M36 197h184c2.206 0 4-1.794 4-4v-86h-37c-6.617 0-12-5.383-12-12V59H36c-2.206 0-4 1.794-4 4v130c0 2.206 1.794 4 4 4z"/><path d="M220.344 99L183 61.657V95c0 2.206 1.794 4 4 4h33.344z"/></g><path opacity=".64" fill="#605E5C" d="M228.485 95.828l-41.313-41.313A11.92 11.92 0 0 0 178.686 51H36c-6.617 0-12 5.383-12 12v130c0 6.617 5.383 12 12 12h184c6.617 0 12-5.383 12-12v-88.686c0-3.205-1.248-6.218-3.515-8.486zM220.343 99H187c-2.206 0-4-1.794-4-4V61.657L220.344 99zM220 197H36c-2.206 0-4-1.794-4-4V63c0-2.206 1.794-4 4-4h139v36c0 6.617 5.383 12 12 12h37v86c0 2.206-1.794 4-4 4z"/><path fill="#B7472A" d="M151 97c18.225 0 33 14.775 33 33h-33V97z"/><path fill="#C8C6C4" d="M184 137c0 22.091-17.909 40-40 40s-40-17.909-40-40 17.909-40 40-40v40h40z"/><g fill="#C8C6C4"><path d="M52 165h38a4 4 0 0 0 0-8H52a4 4 0 0 0 0 8zM52 149h38a4 4 0 0 0 0-8H52a4 4 0 0 0 0 8zM52 133h38a4 4 0 0 0 0-8H52a4 4 0 0 0 0 8zM52 117h38a4 4 0 0 0 0-8H52a4 4 0 0 0 0 8zM52 101h38a4 4 0 0 0 0-8H52a4 4 0 0 0 0 8zM52 181h38a4 4 0 0 0 0-8H52a4 4 0 0 0 0 8z"/></g></svg>