<svg xmlns="http://www.w3.org/2000/svg" viewBox="0 0 256 256"><path fill="#FFB900" d="M240 74v124c0 5.523-4.477 10-10 10H26c-5.523 0-10-4.477-10-10V58c0-5.523 4.477-10 10-10h69.716a20 20 0 0 1 14.142 5.858L120 64h110c5.523 0 10 4.477 10 10z"/><path fill="#FFD75E" d="M16 80v118c0 5.523 4.477 10 10 10h204c5.523 0 10-4.477 10-10V74c0-5.523-4.477-10-10-10H120l-10.142 10.142A20 20 0 0 1 95.716 80H16z"/><linearGradient id="a" gradientUnits="userSpaceOnUse" x1="128" y1="64" x2="128" y2="208"><stop offset="0" stop-color="#fff" stop-opacity="0"/><stop offset=".999" stop-color="#ffd75e" stop-opacity=".3"/></linearGradient><path fill="url(#a)" d="M16 80v118c0 5.523 4.477 10 10 10h204c5.523 0 10-4.477 10-10V74c0-5.523-4.477-10-10-10H120l-10.142 10.142A20 20 0 0 1 95.716 80H16z"/><path fill="#E67628" d="M232 206H24a9.942 9.942 0 0 1-5.992-2.008C19.832 206.422 22.728 208 26 208h204c3.272 0 6.168-1.579 7.992-4.008A9.942 9.942 0 0 1 232 206z"/><path opacity=".4" fill="#FFF" d="M120 64l-10.142 10.142A20 20 0 0 1 95.716 80H16v2h80.302c5.57 0 10.91-2.212 14.849-6.15L123 64h-3z"/><g><path fill="#BF5712" d="M206.885 170.887l8.421-8.422 1.414 1.414-8.421 8.422zM194.331 191.669a1 1 0 0 1-.97-1.243l1.937-7.75a.997.997 0 0 1 .264-.464l7.025-7.026 1.414 1.414-6.83 6.83-1.465 5.864 5.864-1.465 6.617-6.618 1.414 1.414-6.813 6.813a.997.997 0 0 1-.464.264l-7.75 1.937c-.08.02-.162.03-.243.03z"/><path fill="#BF5712" d="M201.549 188.542c-.972-3.809-5.09-5.09-5.132-5.102l.576-1.915c.214.064 5.246 1.631 6.493 6.523l-1.937.494zM213.035 176.36l8.083-8.082 1.415 1.414-8.083 8.083zM222.535 169.69l-1.414-1.413c.587-.588.91-1.368.91-2.199s-.323-1.611-.91-2.199c-1.175-1.174-3.223-1.174-4.398 0l-1.414-1.414a5.074 5.074 0 0 1 3.613-1.496c1.364 0 2.648.53 3.613 1.496a5.074 5.074 0 0 1 1.496 3.613 5.073 5.073 0 0 1-1.496 3.613z"/><path fill="#BF5712" d="M213.603 165.583l1.414-1.414 5.813 5.812-1.414 1.414zM222.616 191.67a.996.996 0 0 1-.706-.29l-28.388-28.278a1 1 0 1 1 1.411-1.417l28.388 28.277a1 1 0 0 1-.705 1.709z"/></g></svg>