<svg xmlns="http://www.w3.org/2000/svg" viewBox="0 0 256 256"><g fill="#FFF"><path d="M52 232h152c2.206 0 4-1.794 4-4V72h-36c-6.617 0-12-5.383-12-12V24H52c-2.206 0-4 1.794-4 4v200c0 2.206 1.794 4 4 4z"/><path d="M204.344 64L168 27.657V60c0 2.206 1.794 4 4 4h32.344z"/></g><path opacity=".64" fill="#605E5C" d="M216 68a3.96 3.96 0 0 0-.396-1.707 11.921 11.921 0 0 0-3.119-5.465l-41.313-41.312A11.918 11.918 0 0 0 162.686 16H52c-6.617 0-12 5.383-12 12v200c0 6.617 5.383 12 12 12h152c6.617 0 12-5.383 12-12V69.314c0-.298-.022-.592-.043-.886.015-.143.043-.281.043-.428zm-11.656-4H172c-2.206 0-4-1.794-4-4V27.657L204.344 64zM204 232H52c-2.206 0-4-1.794-4-4V28c0-2.206 1.794-4 4-4h108v36c0 6.617 5.383 12 12 12h36v156c0 2.206-1.794 4-4 4z"/><path fill="#0078D7" d="M109.173 131.5h-9.85l-3.916-10.222H77.481L73.779 131.5h-9.606l17.468-45h9.575l17.957 45zm-16.672-17.804l-6.18-16.698-6.057 16.698h12.237z"/><path fill="#69AFE5" d="M119 116h69a4 4 0 0 0 0-8h-69a4 4 0 0 0 0 8zM119 132h69a4 4 0 0 0 0-8h-69a4 4 0 0 0 0 8z"/><path fill="#0078D7" d="M68 148h120a4 4 0 0 0 0-8H68a4 4 0 0 0 0 8z"/><path fill="#C8C6C4" d="M68 164h54a4 4 0 0 0 0-8H68a4 4 0 0 0 0 8zM68 180h54a4 4 0 0 0 0-8H68a4 4 0 0 0 0 8zM68 196h54a4 4 0 0 0 0-8H68a4 4 0 0 0 0 8z"/><path fill="#69AFE5" d="M184 196h-41a8 8 0 0 1-8-8v-24a8 8 0 0 1 8-8h41a8 8 0 0 1 8 8v24a8 8 0 0 1-8 8z"/></svg>