<svg xmlns="http://www.w3.org/2000/svg" viewBox="0 0 256 256"><path fill="#FFB900" d="M240 74v124c0 5.523-4.477 10-10 10H26c-5.523 0-10-4.477-10-10V58c0-5.523 4.477-10 10-10h69.716a20 20 0 0 1 14.142 5.858L120 64h110c5.523 0 10 4.477 10 10z"/><path fill="#FFD75E" d="M16 80v118c0 5.523 4.477 10 10 10h204c5.523 0 10-4.477 10-10V74c0-5.523-4.477-10-10-10H120l-10.142 10.142A20 20 0 0 1 95.716 80H16z"/><linearGradient id="a" gradientUnits="userSpaceOnUse" x1="128" y1="64" x2="128" y2="208"><stop offset="0" stop-color="#fff" stop-opacity="0"/><stop offset=".999" stop-color="#ffd75e" stop-opacity=".3"/></linearGradient><path fill="url(#a)" d="M16 80v118c0 5.523 4.477 10 10 10h204c5.523 0 10-4.477 10-10V74c0-5.523-4.477-10-10-10H120l-10.142 10.142A20 20 0 0 1 95.716 80H16z"/><path fill="#E67628" d="M232 206H24a9.942 9.942 0 0 1-5.992-2.008C19.832 206.422 22.728 208 26 208h204c3.272 0 6.168-1.579 7.992-4.008A9.942 9.942 0 0 1 232 206z"/><path opacity=".4" fill="#FFF" d="M120 64l-10.142 10.142A20 20 0 0 1 95.716 80H16v2h80.302c5.57 0 10.91-2.212 14.849-6.15L123 64h-3z"/><g><path fill="#BF5712" d="M219.758 170.182a9.164 9.164 0 0 1 3.639 3.331c.433.697.767 1.447 1.001 2.25s.352 1.631.352 2.487h-2.25c0-.926-.179-1.799-.536-2.62s-.84-1.534-1.45-2.144-1.324-1.092-2.145-1.45-1.693-.536-2.619-.536-1.799.179-2.62.536-1.534.84-2.144 1.45-1.092 1.325-1.45 2.145-.536 1.693-.536 2.619c0 1.066-.243 2.08-.73 3.041s-1.157 1.758-2.012 2.39a9.164 9.164 0 0 1 3.639 3.331c.433.698.767 1.448 1.001 2.25s.352 1.632.352 2.488H209c0-.926-.179-1.799-.536-2.62s-.84-1.534-1.45-2.144-1.325-1.092-2.145-1.45-1.693-.536-2.619-.536-1.799.179-2.62.536-1.534.84-2.144 1.45-1.092 1.325-1.45 2.145-.536 1.693-.536 2.619h-2.25c0-.856.117-1.685.352-2.487a9.069 9.069 0 0 1 2.575-4.149 9.093 9.093 0 0 1 2.065-1.432c-.855-.633-1.526-1.43-2.012-2.39s-.73-1.976-.73-3.042c0-.926.179-1.799.536-2.619s.84-1.535 1.45-2.145 1.325-1.092 2.145-1.45 1.693-.536 2.619-.536c1.066 0 2.08.243 3.04.73s1.759 1.157 2.392 2.012a9.17 9.17 0 0 1 4.06-4.06c-.855-.633-1.526-1.43-2.013-2.39s-.729-1.976-.729-3.042c0-.926.179-1.799.536-2.62s.84-1.534 1.45-2.144 1.325-1.092 2.145-1.45 1.693-.536 2.619-.536 1.799.179 2.62.536 1.534.84 2.144 1.45 1.092 1.325 1.45 2.145.536 1.693.536 2.619c0 1.066-.243 2.08-.73 3.04s-1.157 1.759-2.012 2.392zM202.25 182.75c.61 0 1.19-.12 1.74-.36s1.028-.563 1.433-.967.726-.88.967-1.424.36-1.128.36-1.749c0-.61-.12-1.19-.36-1.74s-.563-1.028-.967-1.433-.882-.726-1.433-.967-1.13-.36-1.74-.36c-.621 0-1.204.12-1.749.36s-1.02.563-1.424.967-.726.882-.967 1.433-.36 1.13-.36 1.74c0 .621.12 1.204.36 1.749s.563 1.02.967 1.424.88.726 1.424.967 1.128.36 1.749.36zm9-18c0 .621.12 1.204.36 1.749s.563 1.02.967 1.424.88.726 1.424.967 1.128.36 1.749.36c.61 0 1.19-.12 1.74-.36s1.028-.563 1.433-.967.726-.88.967-1.424.36-1.128.36-1.749c0-.61-.12-1.19-.36-1.74s-.563-1.028-.967-1.433-.882-.726-1.433-.967-1.13-.36-1.74-.36c-.621 0-1.204.12-1.749.36s-1.02.563-1.424.967-.726.882-.967 1.433-.36 1.13-.36 1.74z"/></g></svg>