<svg xmlns="http://www.w3.org/2000/svg" viewBox="0 0 256 256"><path opacity=".64" fill="#605E5C" d="M220 40H70c-6.617 0-12 5.383-12 12v152c0 6.617 5.383 12 12 12h150c6.617 0 12-5.383 12-12V52c0-6.617-5.383-12-12-12zM70 48h150c2.206 0 4 1.794 4 4v13H66V52c0-2.206 1.794-4 4-4zm150 160H70c-2.206 0-4-1.794-4-4V73h158v131c0 2.206-1.794 4-4 4z"/><g fill="#FFF"><path d="M66 65h158V52c0-2.206-1.794-4-4-4H70c-2.206 0-4 1.794-4 4v13zM70 208h150c2.206 0 4-1.794 4-4V73H66v131c0 2.206 1.794 4 4 4z"/></g><path fill="#C8C6C4" d="M204.594 156H102.406c-1.881 0-3.406 1.79-3.406 4s1.525 4 3.406 4H204.594c1.881 0 3.406-1.79 3.406-4s-1.525-4-3.406-4zM204.594 176H102.406c-1.881 0-3.406 1.79-3.406 4s1.525 4 3.406 4H204.594c1.881 0 3.406-1.79 3.406-4s-1.525-4-3.406-4z"/><path fill="#81C8C3" d="M118 144h86a4 4 0 0 0 4-4V99a4 4 0 0 0-4-4h-86a4 4 0 0 0-4 4v41a4 4 0 0 0 4 4z"/><path fill="#03787C" d="M33 195h94a9 9 0 0 0 9-9V92a9 9 0 0 0-9-9H33a9 9 0 0 0-9 9v94a9 9 0 0 0 9 9z"/><path fill="#F9F7F7" d="M64.424 137.842c-2.39-1.616-4.223-3.53-5.5-5.74-1.279-2.21-1.916-4.83-1.916-7.856 0-4.034 1.187-7.424 3.561-10.169 2.374-2.744 5.53-4.776 9.467-6.097 3.938-1.32 8.25-1.98 12.94-1.98 7.183 0 12.846.786 17.024 2.358v11.884c-2.224-1.365-4.777-2.404-7.692-3.116a37.874 37.874 0 0 0-9.017-1.068c-3.727 0-6.815.645-9.264 1.936-2.45 1.29-3.675 3.122-3.675 5.496 0 1.484.519 2.781 1.556 3.894s2.434 2.1 4.192 2.96c1.758.86 4.38 2.003 7.868 3.427.6.208.976.356 1.127.445 4.117 1.661 7.423 3.27 9.918 4.828 2.494 1.558 4.448 3.502 5.86 5.83 1.413 2.33 2.12 5.26 2.12 8.79 0 4.332-1.113 7.863-3.337 10.593s-5.2 4.702-8.926 5.919C87.003 171.392 82.765 172 78.016 172c-4.057 0-7.897-.312-11.518-.934-3.622-.623-6.74-1.514-9.355-2.67v-12.55c2.554 1.868 5.71 3.352 9.467 4.449 3.757 1.099 7.228 1.647 10.415 1.647 4.176 0 7.325-.66 9.444-1.98 2.12-1.32 3.179-3.182 3.179-5.586 0-1.631-.594-3.055-1.781-4.273-1.187-1.216-2.825-2.343-4.914-3.382-2.089-1.038-5.177-2.403-9.265-4.094-3.786-1.573-6.874-3.167-9.264-4.785z"/><g fill="#C8C6C4"><circle cx="77" cy="57" r="4"/><circle cx="91" cy="57" r="4"/><circle cx="104.8" cy="57" r="4"/></g></svg>