<svg xmlns="http://www.w3.org/2000/svg" viewBox="0 0 256 256"><g fill="#FFF"><path d="M36 197h184c2.206 0 4-1.794 4-4v-86h-37c-6.617 0-12-5.383-12-12V59H36c-2.206 0-4 1.794-4 4v130c0 2.206 1.794 4 4 4z"/><path d="M220.344 99L183 61.657V95c0 2.206 1.794 4 4 4h33.344z"/></g><path fill="#217346" d="M52 165h18a4 4 0 0 0 0-8H52a4 4 0 0 0 0 8z"/><path fill="#C8C6C4" d="M86 165h18a4 4 0 0 0 0-8H86a4 4 0 0 0 0 8zM120 165h18a4 4 0 0 0 0-8h-18a4 4 0 0 0 0 8zM154 165h18a4 4 0 0 0 0-8h-18a4 4 0 0 0 0 8z"/><path fill="#217346" d="M52 149h18a4 4 0 0 0 0-8H52a4 4 0 0 0 0 8z"/><path fill="#C8C6C4" d="M86 149h18a4 4 0 0 0 0-8H86a4 4 0 0 0 0 8zM120 149h18a4 4 0 0 0 0-8h-18a4 4 0 0 0 0 8zM154 149h18a4 4 0 0 0 0-8h-18a4 4 0 0 0 0 8z"/><path fill="#217346" d="M52 133h18a4 4 0 0 0 0-8H52a4 4 0 0 0 0 8z"/><path fill="#C8C6C4" d="M86 133h18a4 4 0 0 0 0-8H86a4 4 0 0 0 0 8zM120 133h18a4 4 0 0 0 0-8h-18a4 4 0 0 0 0 8z"/><path fill="#217346" d="M52 117h18a4 4 0 0 0 0-8H52a4 4 0 0 0 0 8z"/><path fill="#C8C6C4" d="M86 117h18a4 4 0 0 0 0-8H86a4 4 0 0 0 0 8zM120 117h18a4 4 0 0 0 0-8h-18a4 4 0 0 0 0 8zM154 133h18a4 4 0 0 0 0-8h-18a4 4 0 0 0 0 8zM154 116h18a4 4 0 0 0 0-8h-18a4 4 0 0 0 0 8z"/><path fill="#217346" d="M52 181h18a4 4 0 0 0 0-8H52a4 4 0 0 0 0 8z"/><path fill="#C8C6C4" d="M86 181h18a4 4 0 0 0 0-8H86a4 4 0 0 0 0 8zM120 181h18a4 4 0 0 0 0-8h-18a4 4 0 0 0 0 8zM154 181h18a4 4 0 0 0 0-8h-18a4 4 0 0 0 0 8zM188 165h18a4 4 0 0 0 0-8h-18a4 4 0 0 0 0 8zM188 149h18a4 4 0 0 0 0-8h-18a4 4 0 0 0 0 8zM188 133h18a4 4 0 0 0 0-8h-18a4 4 0 0 0 0 8zM188 181h18a4 4 0 0 0 0-8h-18a4 4 0 0 0 0 8z"/><path opacity=".64" fill="#605E5C" d="M228.485 95.828l-41.313-41.313A11.92 11.92 0 0 0 178.686 51H36c-6.617 0-12 5.383-12 12v130c0 6.617 5.383 12 12 12h184c6.617 0 12-5.383 12-12v-88.686c0-3.205-1.248-6.218-3.515-8.486zM220.343 99H187c-2.206 0-4-1.794-4-4V61.657L220.344 99zM220 197H36c-2.206 0-4-1.794-4-4V63c0-2.206 1.794-4 4-4h139v36c0 6.617 5.383 12 12 12h37v86c0 2.206-1.794 4-4 4z"/></svg>