<svg xmlns="http://www.w3.org/2000/svg" viewBox="0 0 256 256"><path fill="#FFF" d="M40 32h184c2.206 0 4 1.794 4 4v184c0 2.206-1.794 4-4 4H40c-2.206 0-4-1.794-4-4V36c0-2.206 1.794-4 4-4z"/><path opacity=".64" fill="#605E5C" d="M224 24H40c-6.617 0-12 5.383-12 12v184c0 6.617 5.383 12 12 12h184c6.617 0 12-5.383 12-12V36c0-6.617-5.383-12-12-12zM40 224c-2.206 0-4-1.794-4-4V36c0-2.206 1.794-4 4-4h184c2.206 0 4 1.794 4 4v184c0 2.206-1.794 4-4 4H40z"/><path fill="none" d="M28 24h208v208H28z"/><g fill-rule="evenodd" clip-rule="evenodd"><path fill="#BC1948" d="M107 128V89.05c0-3.996 4.606-6.404 8.097-4.233l63.913 39.737c1.315.817 1.977 2.129 1.99 3.446h-74z"/><path fill="#E8467C" d="M107 128v38.95c0 3.996 4.606 6.404 8.097 4.233l63.913-39.737c1.315-.817 1.977-2.129 1.99-3.446h-74z"/><path fill="#8C193F" d="M95.203 153.518l32.553-23.02c1.659-1.172 1.659-3.824 0-4.997l-32.553-23.019c-1.812-1.281-4.203.14-4.203 2.499v46.038c0 2.358 2.39 3.78 4.203 2.499"/></g></svg>