<svg xmlns="http://www.w3.org/2000/svg" viewBox="0 0 256 256"><g fill="#FFF"><path d="M52 232h152c2.206 0 4-1.794 4-4V72h-36c-6.617 0-12-5.383-12-12V24H52c-2.206 0-4 1.794-4 4v200c0 2.206 1.794 4 4 4z"/><path d="M204.344 64L168 27.657V60c0 2.206 1.794 4 4 4h32.344z"/></g><path opacity=".64" fill="#605E5C" d="M216 68a3.96 3.96 0 0 0-.396-1.707 11.921 11.921 0 0 0-3.119-5.465l-41.313-41.312A11.918 11.918 0 0 0 162.686 16H52c-6.617 0-12 5.383-12 12v200c0 6.617 5.383 12 12 12h152c6.617 0 12-5.383 12-12V69.314c0-.298-.022-.592-.043-.886.015-.143.043-.281.043-.428zm-11.656-4H172c-2.206 0-4-1.794-4-4V27.657L204.344 64zM204 232H52c-2.206 0-4-1.794-4-4V28c0-2.206 1.794-4 4-4h108v36c0 6.617 5.383 12 12 12h36v156c0 2.206-1.794 4-4 4z"/><circle fill="none" stroke="#B4B0AD" stroke-width="8" stroke-linecap="round" stroke-linejoin="round" stroke-miterlimit="10" cx="128" cy="144" r="20"/><path fill="none" stroke="#B4B0AD" stroke-width="8" stroke-linecap="round" stroke-linejoin="bevel" stroke-miterlimit="10" d="M172.332 135.694l-8.802-.733a.994.994 0 0 1-.873-.728 35.757 35.757 0 0 0-3.251-7.825.993.993 0 0 1 .103-1.132l5.712-6.75a4 4 0 0 0-.225-5.413l-6.11-6.108a4 4 0 0 0-5.412-.225l-6.75 5.711a.993.993 0 0 1-1.131.103 35.762 35.762 0 0 0-7.826-3.25.994.994 0 0 1-.728-.873l-.733-8.803A4 4 0 0 0 132.319 96h-8.638a4 4 0 0 0-3.987 3.668l-.733 8.803a.994.994 0 0 1-.728.872 35.778 35.778 0 0 0-7.825 3.251.993.993 0 0 1-1.132-.103l-6.75-5.712a4 4 0 0 0-5.412.225l-6.11 6.11a4 4 0 0 0-.225 5.411l5.712 6.75c.27.32.308.768.103 1.133a35.757 35.757 0 0 0-3.25 7.825.994.994 0 0 1-.873.728l-8.803.733A4 4 0 0 0 80 139.681v8.638a4 4 0 0 0 3.668 3.987l8.802.733c.416.035.76.327.873.728a35.76 35.76 0 0 0 3.251 7.825.993.993 0 0 1-.103 1.132l-5.712 6.75a4 4 0 0 0 .225 5.413l6.11 6.109a4 4 0 0 0 5.411.225l6.75-5.712a.993.993 0 0 1 1.132-.103 35.768 35.768 0 0 0 7.826 3.25.994.994 0 0 1 .728.873l.733 8.803a4 4 0 0 0 3.987 3.668h8.638a4 4 0 0 0 3.987-3.668l.733-8.803a.994.994 0 0 1 .728-.872 35.767 35.767 0 0 0 7.825-3.251.993.993 0 0 1 1.132.103l6.75 5.712a4 4 0 0 0 5.413-.225l6.109-6.11a4 4 0 0 0 .225-5.411l-5.712-6.75a.993.993 0 0 1-.103-1.133 35.76 35.76 0 0 0 3.25-7.825.994.994 0 0 1 .873-.728l8.803-.733a4 4 0 0 0 3.668-3.987v-8.639a4 4 0 0 0-3.668-3.986z"/></svg>