<svg xmlns="http://www.w3.org/2000/svg" viewBox="0 0 256 256"><linearGradient id="a" gradientUnits="userSpaceOnUse" x1="128" y1="56" x2="128" y2="203"><stop offset="0" stop-color="#c8c6c4"/><stop offset="1" stop-color="#b3b0ad"/></linearGradient><path fill-rule="evenodd" clip-rule="evenodd" fill="url(#a)" d="M230 203H26c-5.523 0-10-4.477-10-10V66c0-5.523 4.477-10 10-10h204c5.523 0 10 4.477 10 10v127c0 5.523-4.477 10-10 10z"/><linearGradient id="b" gradientUnits="userSpaceOnUse" x1="42" y1="208" x2="42" y2="203"><stop offset=".001" stop-color="#797775"/><stop offset="1" stop-color="#605e5c"/></linearGradient><path fill-rule="evenodd" clip-rule="evenodd" fill="url(#b)" d="M50.984 208H33.016a1.5 1.5 0 0 1-1.393-.943L30 203h24l-1.623 4.057a1.5 1.5 0 0 1-1.393.943z"/><linearGradient id="c" gradientUnits="userSpaceOnUse" x1="214" y1="208" x2="214" y2="203"><stop offset=".001" stop-color="#797775"/><stop offset="1" stop-color="#605e5c"/></linearGradient><path fill-rule="evenodd" clip-rule="evenodd" fill="url(#c)" d="M222.984 208h-17.968a1.5 1.5 0 0 1-1.393-.943L202 203h24l-1.623 4.057a1.5 1.5 0 0 1-1.393.943z"/><path fill="#797775" d="M30 70h184v119H30z"/><linearGradient id="d" gradientUnits="userSpaceOnUse" x1="217.5" y1="94" x2="217.5" y2="165"><stop offset=".001" stop-color="#797775"/><stop offset="1" stop-color="#605e5c"/></linearGradient><path fill="url(#d)" d="M216 165h-2V94h2a5 5 0 0 1 5 5v61a5 5 0 0 1-5 5z"/><linearGradient id="e" gradientUnits="userSpaceOnUse" x1="111.5" y1="70" x2="111.5" y2="84"><stop offset="0" stop-color="#a19f9d"/><stop offset=".999" stop-color="#605e5c" stop-opacity=".3"/></linearGradient><path fill="url(#e)" d="M193 84H44L30 70h163z"/><linearGradient id="f" gradientUnits="userSpaceOnUse" x1="111.5" y1="189" x2="111.5" y2="175"><stop offset="0" stop-color="#a19f9d"/><stop offset=".999" stop-color="#605e5c" stop-opacity=".3"/></linearGradient><path fill="url(#f)" d="M193 189H30l14-14h149z"/><linearGradient id="g" gradientUnits="userSpaceOnUse" x1="30" y1="129.5" x2="44" y2="129.5"><stop offset="0" stop-color="#a19f9d"/><stop offset=".999" stop-color="#605e5c" stop-opacity=".3"/></linearGradient><path fill="url(#g)" d="M44 175l-14 14V70l14 14z"/><path fill="#E1DFDD" d="M214 203h-15a6 6 0 0 1-6-6V54a6 6 0 0 1 6-6h15v155zM193 198h-8a6 6 0 0 1-6-6V59a6 6 0 0 1 6-6h8v145z"/><linearGradient id="h" gradientUnits="userSpaceOnUse" x1="203.5" y1="48" x2="203.5" y2="203"><stop offset="0" stop-color="#e1dfdd" stop-opacity="0"/><stop offset="1" stop-color="#bebbb8" stop-opacity=".2"/></linearGradient><path fill="url(#h)" d="M214 203h-15a6 6 0 0 1-6-6V54a6 6 0 0 1 6-6h15v155z"/><linearGradient id="i" gradientUnits="userSpaceOnUse" x1="179" y1="125.5" x2="193" y2="125.5"><stop offset="0" stop-color="#e1dfdd" stop-opacity="0"/><stop offset=".999" stop-color="#c8c6c4" stop-opacity=".8"/></linearGradient><path fill="url(#i)" d="M193 198h-8a6 6 0 0 1-6-6V59a6 6 0 0 1 6-6h8v145z"/><linearGradient id="j" gradientUnits="userSpaceOnUse" x1="203.5" y1="62" x2="203.5" y2="81"><stop offset=".002" stop-color="#bebbb8"/><stop offset="1" stop-color="#c8c6c4"/></linearGradient><path fill="url(#j)" d="M203.5 81a3.5 3.5 0 0 1-3.5-3.5v-12a3.5 3.5 0 1 1 7 0v12a3.5 3.5 0 0 1-3.5 3.5z"/><linearGradient id="k" gradientUnits="userSpaceOnUse" x1="203.5" y1="116" x2="203.5" y2="135"><stop offset=".002" stop-color="#bebbb8"/><stop offset="1" stop-color="#c8c6c4"/></linearGradient><path fill="url(#k)" d="M203.5 135a3.5 3.5 0 0 1-3.5-3.5v-12a3.5 3.5 0 1 1 7 0v12a3.5 3.5 0 0 1-3.5 3.5z"/><linearGradient id="l" gradientUnits="userSpaceOnUse" x1="203.5" y1="170" x2="203.5" y2="189"><stop offset=".002" stop-color="#bebbb8"/><stop offset="1" stop-color="#c8c6c4"/></linearGradient><path fill="url(#l)" d="M203.5 189a3.5 3.5 0 0 1-3.5-3.5v-12a3.5 3.5 0 1 1 7 0v12a3.5 3.5 0 0 1-3.5 3.5z"/><path fill="#FFF" d="M141 182H82a3 3 0 0 1-3-3V95a3 3 0 0 1 3-3h41l21 21v66a3 3 0 0 1-3 3z"/><path fill="#EDEBE9" d="M144 113h-18a3 3 0 0 1-3-3V92l21 21z"/></svg>