<svg xmlns="http://www.w3.org/2000/svg" viewBox="0 0 256 256"><linearGradient id="a" gradientUnits="userSpaceOnUse" x1="128" y1="56" x2="128" y2="203"><stop offset="0" stop-color="#c8c6c4"/><stop offset="1" stop-color="#b3b0ad"/></linearGradient><path fill-rule="evenodd" clip-rule="evenodd" fill="url(#a)" d="M230 203H26c-5.523 0-10-4.477-10-10V66c0-5.523 4.477-10 10-10h204c5.523 0 10 4.477 10 10v127c0 5.523-4.477 10-10 10z"/><linearGradient id="b" gradientUnits="userSpaceOnUse" x1="42" y1="208" x2="42" y2="203"><stop offset=".001" stop-color="#797775"/><stop offset="1" stop-color="#605e5c"/></linearGradient><path fill-rule="evenodd" clip-rule="evenodd" fill="url(#b)" d="M50.984 208H33.016a1.5 1.5 0 0 1-1.393-.943L30 203h24l-1.623 4.057a1.5 1.5 0 0 1-1.393.943z"/><linearGradient id="c" gradientUnits="userSpaceOnUse" x1="214" y1="208" x2="214" y2="203"><stop offset=".001" stop-color="#797775"/><stop offset="1" stop-color="#605e5c"/></linearGradient><path fill-rule="evenodd" clip-rule="evenodd" fill="url(#c)" d="M222.984 208h-17.968a1.5 1.5 0 0 1-1.393-.943L202 203h24l-1.623 4.057a1.5 1.5 0 0 1-1.393.943z"/><linearGradient id="d" gradientUnits="userSpaceOnUse" x1="55.499" y1="94" x2="55.499" y2="165"><stop offset=".001" stop-color="#797775"/><stop offset="1" stop-color="#605e5c"/></linearGradient><path fill="url(#d)" d="M50.621 160.52a4.893 4.893 0 0 0 9.751 0l4.743-56.058c.023-.27.034-.541.034-.813C65.15 98.32 60.83 94 55.5 94c-.271 0-.542.011-.813.034-5.31.449-9.252 5.118-8.803 10.429l4.737 56.056z"/><linearGradient id="e" gradientUnits="userSpaceOnUse" x1="122" y1="70" x2="122" y2="189"><stop offset="0" stop-color="#979593"/><stop offset="1" stop-color="#8a8886"/></linearGradient><path fill="url(#e)" d="M210 73c.551 0 1 .449 1 1v111c0 .551-.449 1-1 1H34c-.551 0-1-.449-1-1V74c0-.551.449-1 1-1h176m0-3H34a4 4 0 0 0-4 4v111a4 4 0 0 0 4 4h176a4 4 0 0 0 4-4V74a4 4 0 0 0-4-4z"/><linearGradient id="f" gradientUnits="userSpaceOnUse" x1="128.5" y1="87" x2="128.5" y2="172"><stop offset=".001" stop-color="#8a8886"/><stop offset="1" stop-color="#797775"/></linearGradient><path fill="url(#f)" d="M128.5 109c11.304 0 20.5 9.196 20.5 20.5s-9.196 20.5-20.5 20.5-20.5-9.196-20.5-20.5 9.196-20.5 20.5-20.5m0-22C105.028 87 86 106.028 86 129.5s19.028 42.5 42.5 42.5 42.5-19.028 42.5-42.5S151.972 87 128.5 87z"/><linearGradient id="g" gradientUnits="userSpaceOnUse" x1="212" y1="82" x2="212" y2="99"><stop offset=".001" stop-color="#797775"/><stop offset="1" stop-color="#605e5c"/></linearGradient><path fill="url(#g)" d="M223.5 99h-23a2.5 2.5 0 0 1-2.5-2.5v-12a2.5 2.5 0 0 1 2.5-2.5h23a2.5 2.5 0 0 1 2.5 2.5v12a2.5 2.5 0 0 1-2.5 2.5z"/><linearGradient id="h" gradientUnits="userSpaceOnUse" x1="212" y1="160" x2="212" y2="177"><stop offset=".001" stop-color="#797775"/><stop offset="1" stop-color="#605e5c"/></linearGradient><path fill="url(#h)" d="M223.5 177h-23a2.5 2.5 0 0 1-2.5-2.5v-12a2.5 2.5 0 0 1 2.5-2.5h23a2.5 2.5 0 0 1 2.5 2.5v12a2.5 2.5 0 0 1-2.5 2.5z"/></svg>