<svg xmlns="http://www.w3.org/2000/svg" viewBox="0 0 256 256"><g fill="#FFF"><path d="M52 232h152c2.206 0 4-1.794 4-4V72h-36c-6.617 0-12-5.383-12-12V24H52c-2.206 0-4 1.794-4 4v200c0 2.206 1.794 4 4 4z"/><path d="M204.344 64L168 27.657V60c0 2.206 1.794 4 4 4h32.344z"/></g><path opacity=".64" fill="#605E5C" d="M216 68a3.96 3.96 0 0 0-.396-1.707 11.921 11.921 0 0 0-3.119-5.465l-41.313-41.312A11.918 11.918 0 0 0 162.686 16H52c-6.617 0-12 5.383-12 12v200c0 6.617 5.383 12 12 12h152c6.617 0 12-5.383 12-12V69.314c0-.298-.022-.592-.043-.886.015-.143.043-.281.043-.428zm-11.656-4H172c-2.206 0-4-1.794-4-4V27.657L204.344 64zM204 232H52c-2.206 0-4-1.794-4-4V28c0-2.206 1.794-4 4-4h108v36c0 6.617 5.383 12 12 12h36v156c0 2.206-1.794 4-4 4z"/><path fill="#0078D7" d="M136.12 154.545l53.866 20.2c1.838.689 1.687 3.337-.217 3.813L164 185l-6.442 25.769c-.476 1.904-3.124 2.055-3.813.217l-20.2-53.866c-.603-1.608.967-3.178 2.575-2.575z"/><path fill="none" stroke="#C8C6C4" stroke-width="8" stroke-linecap="round" stroke-miterlimit="10" d="M80.92 182.656c5.955-42.82 40.152-76.602 83.17-81.924"/><path fill="none" stroke="#0078D7" stroke-width="8" stroke-miterlimit="10" d="M84 208h-8a8 8 0 0 1-8-8v-8a8 8 0 0 1 8-8h8a8 8 0 0 1 8 8v8a8 8 0 0 1-8 8zM180 112h-8a8 8 0 0 1-8-8v-8a8 8 0 0 1 8-8h8a8 8 0 0 1 8 8v8a8 8 0 0 1-8 8z"/><circle fill="#FFF" cx="110" cy="126" r="20"/><circle fill="#0078D7" cx="110" cy="126" r="16"/></svg>