<svg xmlns="http://www.w3.org/2000/svg" viewBox="0 0 256 256"><path fill="#FFF" d="M34.572 199.34c1.817-.506 3.853-1.11 6.094-1.775 15.28-4.533 40.857-12.121 86.667-12.121 45.57 0 72.742 7.764 88.978 12.403 1.56.445 3.603.993 5.191 1.403a1.995 1.995 0 0 0 2.498-1.932c-.005-17.666-.03-122.239-.04-139.822a1.992 1.992 0 0 0-2.46-1.94c-2.098.505-4.564 1.135-7.292 1.833-17.527 4.482-46.862 11.984-86.875 11.984-41.336 0-69.21-7.467-85.865-11.928-2.596-.695-4.945-1.325-6.989-1.827-1.261-.31-2.666 1.083-2.666 2.382.01 17.592-.01 121.145 0 139 0 1.324 1.484 2.694 2.76 2.34z"/><path fill="#605E5C" d="M31.796 208a7.887 7.887 0 0 1-4.9-1.712 8.098 8.098 0 0 1-3.083-6.398V55.146a8.111 8.111 0 0 1 3.014-6.344 7.887 7.887 0 0 1 6.642-1.588c2.735.588 6.046 1.476 9.882 2.503 16.274 4.36 43.512 11.656 83.795 11.656 39.006 0 67.73-7.346 84.893-11.734 3.918-1.002 7.31-1.87 10.05-2.446 1.567-.33 3.216-.256 4.691.368 3.143 1.327 5.033 4.292 5.033 7.55v144.74c0 3.062-1.659 5.844-4.463 7.28-1.723.882-3.738 1.016-5.617.551-2.256-.557-4.835-1.294-7.807-2.144-15.832-4.523-42.332-12.094-86.78-12.094-44.65 0-69.527 7.38-84.391 11.79-3.46 1.027-6.449 1.913-9.115 2.549a7.949 7.949 0 0 1-1.844.218zm.017-150c-.003 20.273-.052 135.3 0 139 .019 1.323 1.484 2.694 2.76 2.34 1.816-.506 3.852-1.11 6.093-1.775 15.28-4.533 40.856-12.121 86.667-12.121 45.57 0 72.742 7.764 88.978 12.403 1.56.445 3.603.993 5.19 1.403a1.995 1.995 0 0 0 2.498-1.932c-.004-17.666-.028-122.239-.04-139.822a1.992 1.992 0 0 0-2.46-1.94 561.791 561.791 0 0 0-7.291 1.833c-17.527 4.482-46.862 11.984-86.875 11.984-41.336 0-69.211-7.467-85.865-11.928-2.596-.695-4.945-1.325-6.989-1.827-1.261-.31-2.666 1.083-2.666 2.382z" opacity=".64"/><path fill="none" stroke="#69AFE5" stroke-width="8" stroke-linecap="round" stroke-linejoin="round" stroke-miterlimit="10" d="M161 128l-54-30v60z"/><g fill="#C8C6C4"><circle cx="208.813" cy="100" r="5"/><circle cx="208.813" cy="119" r="5"/><circle cx="208.813" cy="138" r="5"/><circle cx="208.813" cy="157" r="5"/></g><g fill="#C8C6C4"><circle cx="46.865" cy="100" r="5"/><circle cx="46.865" cy="119" r="5"/><circle cx="46.865" cy="138" r="5"/><circle cx="46.865" cy="157" r="5"/></g></svg>