<svg xmlns="http://www.w3.org/2000/svg" viewBox="0 0 256 256"><path fill="#FFF" d="M36 224h184c2.206 0 4-1.794 4-4V36c0-2.206-1.794-4-4-4H36c-2.206 0-4 1.794-4 4v184c0 2.206 1.794 4 4 4z"/><path opacity=".64" fill="#605E5C" d="M220 232H36c-6.617 0-12-5.383-12-12V36c0-6.617 5.383-12 12-12h184c6.617 0 12 5.383 12 12v184c0 6.617-5.383 12-12 12zM36 32c-2.206 0-4 1.794-4 4v184c0 2.206 1.794 4 4 4h184c2.206 0 4-1.794 4-4V36c0-2.206-1.794-4-4-4H36z"/><path fill="none" stroke="#C8C6C4" stroke-width="8" stroke-linejoin="round" stroke-miterlimit="10" d="M162 128l-54-30v60z"/></svg>