<svg xmlns="http://www.w3.org/2000/svg" viewBox="0 0 256 256"><g fill="#FFF"><path d="M68 232h152c2.206 0 4-1.794 4-4V72h-36c-6.617 0-12-5.383-12-12V24H68c-2.206 0-4 1.794-4 4v200c0 2.206 1.794 4 4 4z"/><path d="M220.344 64L184 27.657V60c0 2.206 1.794 4 4 4h32.344z"/></g><path opacity=".64" fill="#605E5C" d="M232 68a3.96 3.96 0 0 0-.396-1.707 11.921 11.921 0 0 0-3.119-5.465l-41.313-41.312A11.918 11.918 0 0 0 178.686 16H68c-6.617 0-12 5.383-12 12v200c0 6.617 5.383 12 12 12h152c6.617 0 12-5.383 12-12V69.314c0-.298-.022-.592-.043-.886.015-.143.043-.281.043-.428zm-11.656-4H188c-2.206 0-4-1.794-4-4V27.657L220.344 64zM220 232H68c-2.206 0-4-1.794-4-4V28c0-2.206 1.794-4 4-4h108v36c0 6.617 5.383 12 12 12h36v156c0 2.206-1.794 4-4 4z"/><path fill="#185ABD" d="M33 199h94a9 9 0 0 0 9-9V96a9 9 0 0 0-9-9H33a9 9 0 0 0-9 9v94a9 9 0 0 0 9 9z"/><path fill="#FFF" d="M77.111 153.354c1.826 5.327 2.905 8.689 3.235 10.087h.224c.33-1.398 1.497-4.999 3.504-10.8L98.494 111h13.252L87.31 175H73.113L48.99 111h13.656l14.465 42.354z"/><g><path fill="#185ABD" d="M181 140v-22h-8v22a2 2 0 0 1-2 2h-11v8h21.967a3.033 3.033 0 0 1 3.033 3.033V168h8v-16c0-5.523-4.477-10-10-10a2 2 0 0 1-2-2z"/><circle fill="#2B7CD3" cx="189" cy="185" r="19"/><path fill="#41A5EE" d="M142 129h19v34h-19z"/><path fill="#103F91" d="M155.999 103l21-20.999 20.999 21-21 20.999z"/></g></svg>