<svg xmlns="http://www.w3.org/2000/svg" viewBox="0 0 256 256"><path fill="#605E5C" d="M220 240H68c-6.617 0-12-5.383-12-12V28c0-6.617 5.383-12 12-12h152c6.617 0 12 5.383 12 12v200c0 6.617-5.383 12-12 12zM68 24c-2.206 0-4 1.794-4 4v200c0 2.206 1.794 4 4 4h152c2.206 0 4-1.794 4-4V28c0-2.206-1.794-4-4-4H68z" opacity=".64"/><path fill="#FFF" d="M68 232h152c2.206 0 4-1.794 4-4V28c0-2.206-1.794-4-4-4H68c-2.206 0-4 1.794-4 4v200c0 2.206 1.794 4 4 4z"/><path fill="#185ABD" d="M33 199h94a9 9 0 0 0 9-9V96a9 9 0 0 0-9-9H33a9 9 0 0 0-9 9v94a9 9 0 0 0 9 9z"/><path fill="#FFF" d="M77.111 153.354c1.826 5.327 2.905 8.689 3.235 10.087h.224c.33-1.398 1.497-4.999 3.504-10.8L98.494 111h13.252L87.31 175H73.113L48.99 111h13.656l14.465 42.354z"/><g fill="#C8C6C4"><path d="M196 121h-30c-6.617 0-12-5.383-12-12V52c0-6.617 5.383-12 12-12h30c6.617 0 12 5.383 12 12v57c0 6.617-5.383 12-12 12zm-30-73c-2.206 0-4 1.794-4 4v57c0 2.206 1.794 4 4 4h30c2.206 0 4-1.794 4-4V52c0-2.206-1.794-4-4-4h-30zM196 216h-30c-6.617 0-12-5.383-12-12v-57c0-6.617 5.383-12 12-12h30c6.617 0 12 5.383 12 12v57c0 6.617-5.383 12-12 12zm-30-73c-2.206 0-4 1.794-4 4v57c0 2.206 1.794 4 4 4h30c2.206 0 4-1.794 4-4v-57c0-2.206-1.794-4-4-4h-30zM88 81V52c0-2.206 1.794-4 4-4h30c2.206 0 4 1.794 4 4v29h1c2.528 0 4.908.634 7 1.744V52c0-6.617-5.383-12-12-12H92c-6.617 0-12 5.383-12 12v29h8zM127 205h-1.142c-.447 1.72-2 3-3.858 3H92c-1.859 0-3.41-1.28-3.858-3h-8.091c.51 6.15 5.67 11 11.949 11h30c6.617 0 12-5.383 12-12v-.744a14.897 14.897 0 0 1-7 1.744z"/></g></svg>