<svg xmlns="http://www.w3.org/2000/svg" viewBox="0 0 256 256"><g fill="#FFF"><path d="M68 220h136c2.206 0 4-1.794 4-4V40.314c0-.108.023-.209.032-.314H63.968c.009.105.032.206.032.313V216c0 2.206 1.794 4 4 4z"/><path d="M216 40.313V216c0 6.617-5.383 12-12 12H80v4c0 2.206 1.794 4 4 4h136c2.206 0 4-1.794 4-4V30c0-.676.183-1.302.48-1.86L212 18v18.314a4 4 0 0 1 4 4z"/></g><path opacity=".64" fill="#605E5C" d="M228 26a4 4 0 0 0-4 4v202c0 2.206-1.794 4-4 4H84c-2.206 0-4-1.794-4-4v-4h124c6.617 0 12-5.383 12-12V40.314a4 4 0 0 0-8 0V216c0 2.206-1.794 4-4 4H68c-2.206 0-4-1.794-4-4V40.314a4 4 0 0 0-8 0V216c0 6.617 5.383 12 12 12h4v4c0 6.617 5.383 12 12 12h136c6.617 0 12-5.383 12-12V30a4 4 0 0 0-4-4z"/><path fill="#185ABD" d="M33 199h94a9 9 0 0 0 9-9V96a9 9 0 0 0-9-9H33a9 9 0 0 0-9 9v94a9 9 0 0 0 9 9z"/><path fill="#FFF" d="M77.111 153.354c1.826 5.327 2.905 8.689 3.235 10.087h.224c.33-1.398 1.497-4.999 3.504-10.8L98.494 111h13.252L87.31 175H73.113L48.99 111h13.656l14.465 42.354z"/><path fill="#41A5EE" d="M216 12.728a7.99 7.99 0 0 0-3.314-.728H64a8 8 0 0 0-8 8v16l4 4h152l4-4v-5l2-2V16l-2-3.272z"/><path fill="#2B7CD3" d="M56 36h160v8H56zM219.414 31.414L232 44V31.314a8 8 0 0 0-2.343-5.657l-11.314-11.314A7.988 7.988 0 0 0 216 12.728v20.1c0-1.781 2.154-2.674 3.414-1.414z"/><g><path fill="#185ABD" d="M175 143a2 2 0 0 1-2-2v-22h-8v22a2 2 0 0 1-2 2h-11v8h20c1.675 0 3 1.325 3 3v15h8v-18a8 8 0 0 0-8-8z"/><circle fill="#2B7CD3" cx="179" cy="183" r="17"/><path fill="#41A5EE" d="M144 130h12v34h-12z"/><path fill="#103F91" d="M148.998 106l20-20 20 20-20 20z"/></g></svg>