<svg xmlns="http://www.w3.org/2000/svg" viewBox="0 0 256 256"><g fill="#FFF"><path d="M68 232h152c2.206 0 4-1.794 4-4V72h-36c-6.617 0-12-5.383-12-12V24H68c-2.206 0-4 1.794-4 4v200c0 2.206 1.794 4 4 4z"/><path d="M220.344 64L184 27.657V60c0 2.206 1.794 4 4 4h32.344z"/></g><path opacity=".64" fill="#605E5C" d="M232 68a3.96 3.96 0 0 0-.396-1.707 11.921 11.921 0 0 0-3.119-5.465l-41.313-41.312A11.918 11.918 0 0 0 178.686 16H68c-6.617 0-12 5.383-12 12v200c0 6.617 5.383 12 12 12h152c6.617 0 12-5.383 12-12V69.314c0-.298-.022-.592-.043-.886.015-.143.043-.281.043-.428zm-11.656-4H188c-2.206 0-4-1.794-4-4V27.657L220.344 64zM220 232H68c-2.206 0-4-1.794-4-4V28c0-2.206 1.794-4 4-4h108v36c0 6.617 5.383 12 12 12h36v156c0 2.206-1.794 4-4 4z"/><path fill="#134A2C" d="M204 157h-21a4 4 0 0 0-4 4v5a4 4 0 0 0 4 4h21a4 4 0 0 0 4-4v-5a4 4 0 0 0-4-4z"/><path fill="#185C37" d="M167 157h-21a4 4 0 0 0-4 4v5a4 4 0 0 0 4 4h21a4 4 0 0 0 4-4v-5a4 4 0 0 0-4-4z"/><path fill="#21A366" d="M204 136h-21a4 4 0 0 0-4 4v5a4 4 0 0 0 4 4h21a4 4 0 0 0 4-4v-5a4 4 0 0 0-4-4z"/><path fill="#107C41" d="M167 136h-21a4 4 0 0 0-4 4v5a4 4 0 0 0 4 4h21a4 4 0 0 0 4-4v-5a4 4 0 0 0-4-4z"/><path fill="#33C481" d="M204 115h-21a4 4 0 0 0-4 4v5a4 4 0 0 0 4 4h21a4 4 0 0 0 4-4v-5a4 4 0 0 0-4-4z"/><path fill="#21A366" d="M167 115h-21a4 4 0 0 0-4 4v5a4 4 0 0 0 4 4h21a4 4 0 0 0 4-4v-5a4 4 0 0 0-4-4z"/><g><path fill="#107C41" d="M33 199h94a9 9 0 0 0 9-9V96a9 9 0 0 0-9-9H33a9 9 0 0 0-9 9v94a9 9 0 0 0 9 9z"/><path fill="#F9F7F7" d="M51.071 176l20.957-33.092L52.833 110h15.446l10.479 21.034c.963 1.995 1.626 3.482 1.987 4.464h.136a93.658 93.658 0 0 1 2.168-4.648L94.25 110h14.182l-19.693 32.724L108.93 176H93.843l-12.104-23.104c-.512-.86-.994-1.888-1.445-3.084h-.182c-.21.736-.676 1.733-1.399 2.991L66.247 176H51.071z"/></g></svg>