<svg xmlns="http://www.w3.org/2000/svg" viewBox="0 0 256 256"><g fill="#FFF"><path d="M68 220h136c2.206 0 4-1.794 4-4V40.314c0-.108.023-.209.032-.314H63.968c.009.105.032.206.032.313V216c0 2.206 1.794 4 4 4z"/><path d="M216 40.313V216c0 6.617-5.383 12-12 12H80v4c0 2.206 1.794 4 4 4h136c2.206 0 4-1.794 4-4V30c0-.676.183-1.302.48-1.86L212 18v18.314a4 4 0 0 1 4 4z"/></g><path opacity=".64" fill="#605E5C" d="M228 26a4 4 0 0 0-4 4v202c0 2.206-1.794 4-4 4H84c-2.206 0-4-1.794-4-4v-4h124c6.617 0 12-5.383 12-12V40.314a4 4 0 0 0-8 0V216c0 2.206-1.794 4-4 4H68c-2.206 0-4-1.794-4-4V40.314a4 4 0 0 0-8 0V216c0 6.617 5.383 12 12 12h4v4c0 6.617 5.383 12 12 12h136c6.617 0 12-5.383 12-12V30a4 4 0 0 0-4-4z"/><path fill="#33C481" d="M216 12.728a7.99 7.99 0 0 0-3.314-.728H64a8 8 0 0 0-8 8v16l4 4h152l4-4v-5l2-2V16l-2-3.272z"/><path fill="#21A366" d="M56 36h160v8H56zM219.414 31.414L232 44V31.314a8 8 0 0 0-2.343-5.657l-11.314-11.314A7.988 7.988 0 0 0 216 12.728v20.1c0-1.781 2.154-2.674 3.414-1.414z"/><path fill="#134A2C" d="M192 157h-17a4 4 0 0 0-4 4v5a4 4 0 0 0 4 4h17a4 4 0 0 0 4-4v-5a4 4 0 0 0-4-4z"/><path fill="#185C37" d="M159 157h-15v13h15a4 4 0 0 0 4-4v-5a4 4 0 0 0-4-4z"/><path fill="#21A366" d="M192 136h-17a4 4 0 0 0-4 4v5a4 4 0 0 0 4 4h17a4 4 0 0 0 4-4v-5a4 4 0 0 0-4-4z"/><path fill="#107C41" d="M159 136h-15v13h15a4 4 0 0 0 4-4v-5a4 4 0 0 0-4-4z"/><path fill="#33C481" d="M192 115h-17a4 4 0 0 0-4 4v5a4 4 0 0 0 4 4h17a4 4 0 0 0 4-4v-5a4 4 0 0 0-4-4z"/><path fill="#21A366" d="M159 115h-15v13h15a4 4 0 0 0 4-4v-5a4 4 0 0 0-4-4z"/><g><path fill="#107C41" d="M33 199h94a9 9 0 0 0 9-9V96a9 9 0 0 0-9-9H33a9 9 0 0 0-9 9v94a9 9 0 0 0 9 9z"/><path fill="#F9F7F7" d="M51.071 176l20.957-33.092L52.833 110h15.446l10.479 21.034c.963 1.995 1.626 3.482 1.987 4.464h.136a93.658 93.658 0 0 1 2.168-4.648L94.25 110h14.182l-19.693 32.724L108.93 176H93.843l-12.104-23.104c-.512-.86-.994-1.888-1.445-3.084h-.182c-.21.736-.676 1.733-1.399 2.991L66.247 176H51.071z"/></g></svg>