<svg xmlns="http://www.w3.org/2000/svg" viewBox="0 0 256 256"><g fill="#FFF"><path d="M52 232h152c2.206 0 4-1.794 4-4V72h-36c-6.617 0-12-5.383-12-12V24H52c-2.206 0-4 1.794-4 4v200c0 2.206 1.794 4 4 4z"/><path d="M204.344 64L168 27.657V60c0 2.206 1.794 4 4 4h32.344z"/></g><path opacity=".64" fill="#605E5C" d="M216 68a3.96 3.96 0 0 0-.396-1.707 11.921 11.921 0 0 0-3.119-5.465l-41.313-41.312A11.918 11.918 0 0 0 162.686 16H52c-6.617 0-12 5.383-12 12v200c0 6.617 5.383 12 12 12h152c6.617 0 12-5.383 12-12V69.314c0-.298-.022-.592-.043-.886.015-.143.043-.281.043-.428zm-11.656-4H172c-2.206 0-4-1.794-4-4V27.657L204.344 64zM204 232H52c-2.206 0-4-1.794-4-4V28c0-2.206 1.794-4 4-4h108v36c0 6.617 5.383 12 12 12h36v156c0 2.206-1.794 4-4 4z"/><path fill="#C8C6C4" d="M68 188h120a4 4 0 0 0 0-8H68a4 4 0 0 0 0 8zM68 204h120a4 4 0 0 0 0-8H68a4 4 0 0 0 0 8z"/><path fill="#D2D0CE" d="M127.78 182.53h.94a.03.03 0 1 0 0-.06h-.94a.03.03 0 1 0 0 .06z"/><g fill="#69AFE5"><path d="M128 164.5c-19.85 0-36-16.15-36-36s16.15-36 36-36 36 16.15 36 36-16.15 36-36 36zm0-64c-15.44 0-28 12.56-28 28s12.56 28 28 28 28-12.56 28-28-12.56-28-28-28z"/><path d="M128 164.5c-10.262 0-18-15.477-18-36s7.738-36 18-36 18 15.477 18 36-7.738 36-18 36zm0-64c-4.077 0-10 10.908-10 28s5.923 28 10 28 10-10.908 10-28-5.923-28-10-28z"/><path d="M98.5 110.5h59v8h-59zM98.5 138.5h59v8h-59z"/></g><path fill="#C8C6C4" d="M178 141.554a4 4 0 0 1-2.764-6.892L182.21 128l-6.973-6.662a4 4 0 1 1 5.526-5.784l10 9.554a3.998 3.998 0 0 1 0 5.784l-10 9.554a3.987 3.987 0 0 1-2.763 1.108zM78 141.554a3.987 3.987 0 0 1-2.763-1.108l-10-9.554a3.999 3.999 0 0 1 0-5.784l10-9.554a4 4 0 1 1 5.526 5.784L73.79 128l6.973 6.662A4 4 0 0 1 78 141.554z"/></svg>