<svg xmlns="http://www.w3.org/2000/svg" viewBox="0 0 256 256"><g fill="#FFF"><path d="M68 232h152c2.206 0 4-1.794 4-4V72h-36c-6.617 0-12-5.383-12-12V24H68c-2.206 0-4 1.794-4 4v200c0 2.206 1.794 4 4 4z"/><path d="M220.344 64L184 27.657V60c0 2.206 1.794 4 4 4h32.344z"/></g><path opacity=".64" fill="#605E5C" d="M232 68a3.96 3.96 0 0 0-.396-1.707 11.921 11.921 0 0 0-3.119-5.465l-41.313-41.312A11.918 11.918 0 0 0 178.686 16H68c-6.617 0-12 5.383-12 12v200c0 6.617 5.383 12 12 12h152c6.617 0 12-5.383 12-12V69.314c0-.298-.022-.592-.043-.886.015-.143.043-.281.043-.428zm-11.656-4H188c-2.206 0-4-1.794-4-4V27.657L220.344 64zM220 232H68c-2.206 0-4-1.794-4-4V28c0-2.206 1.794-4 4-4h108v36c0 6.617 5.383 12 12 12h36v156c0 2.206-1.794 4-4 4z"/><path fill="#C3A9D4" d="M128 115h60a4 4 0 0 0 0-8h-60v8z"/><path fill="none" stroke="#C8C6C4" stroke-width="8" stroke-miterlimit="10" d="M196 125h-71a8 8 0 0 1-8-8v-12a8 8 0 0 1 8-8h71a8 8 0 0 1 8 8v12a8 8 0 0 1-8 8z"/><path fill="#C3A9D4" d="M128 157h60a4 4 0 0 0 0-8h-60v8z"/><path fill="none" stroke="#C8C6C4" stroke-width="8" stroke-miterlimit="10" d="M196 167h-71a8 8 0 0 1-8-8v-12a8 8 0 0 1 8-8h71a8 8 0 0 1 8 8v12a8 8 0 0 1-8 8z"/><path fill="#C3A9D4" d="M128 199h60a4 4 0 0 0 0-8h-60v8z"/><path fill="none" stroke="#C8C6C4" stroke-width="8" stroke-miterlimit="10" d="M196 209h-71a8 8 0 0 1-8-8v-12a8 8 0 0 1 8-8h71a8 8 0 0 1 8 8v12a8 8 0 0 1-8 8z"/><path fill="#6A3889" d="M33 199h94a9 9 0 0 0 9-9V96a9 9 0 0 0-9-9H33a9 9 0 0 0-9 9v94a9 9 0 0 0 9 9z"/><path fill="#F9F7F7" d="M86 175H74v-64h12v64z"/></svg>