<svg xmlns="http://www.w3.org/2000/svg" viewBox="0 0 256 256"><path fill="#FFB900" d="M240 74v124c0 5.523-4.477 10-10 10H26c-5.523 0-10-4.477-10-10V58c0-5.523 4.477-10 10-10h69.716a20 20 0 0 1 14.142 5.858L120 64h110c5.523 0 10 4.477 10 10z"/><path fill="#FFD75E" d="M16 80v118c0 5.523 4.477 10 10 10h204c5.523 0 10-4.477 10-10V74c0-5.523-4.477-10-10-10H120l-10.142 10.142A20 20 0 0 1 95.716 80H16z"/><linearGradient id="a" gradientUnits="userSpaceOnUse" x1="128" y1="64" x2="128" y2="208"><stop offset="0" stop-color="#fff" stop-opacity="0"/><stop offset=".999" stop-color="#ffd75e" stop-opacity=".3"/></linearGradient><path fill="url(#a)" d="M16 80v118c0 5.523 4.477 10 10 10h204c5.523 0 10-4.477 10-10V74c0-5.523-4.477-10-10-10H120l-10.142 10.142A20 20 0 0 1 95.716 80H16z"/><path fill="#E67628" d="M232 206H24a9.942 9.942 0 0 1-5.992-2.008C19.832 206.422 22.728 208 26 208h204c3.272 0 6.168-1.579 7.992-4.008A9.942 9.942 0 0 1 232 206z"/><path opacity=".4" fill="#FFF" d="M120 64l-10.142 10.142A20 20 0 0 1 95.716 80H16v2h80.302c5.57 0 10.91-2.212 14.849-6.15L123 64h-3z"/><g fill="#BF5712"><path d="M106 158a2 2 0 0 1-2-2v-22a2 2 0 1 1 4 0v22a2 2 0 0 1-2 2zM118 158a2 2 0 0 1-2-2v-22a2 2 0 1 1 4 0v22a2 2 0 0 1-2 2zM130 158a2 2 0 0 1-2-2v-22a2 2 0 1 1 4 0v22a2 2 0 0 1-2 2zM142 158a2 2 0 0 1-2-2v-22a2 2 0 1 1 4 0v22a2 2 0 0 1-2 2zM154 158a2 2 0 0 1-2-2v-22a2 2 0 1 1 4 0v22a2 2 0 0 1-2 2zM166 158a2 2 0 0 1-2-2v-22a2 2 0 1 1 4 0v22a2 2 0 0 1-2 2zM178 158a2 2 0 0 1-2-2v-22a2 2 0 1 1 4 0v22a2 2 0 0 1-2 2zM190 158a2 2 0 0 1-2-2v-22a2 2 0 1 1 4 0v22a2 2 0 0 1-2 2zM202 158a2 2 0 0 1-2-2v-22a2 2 0 1 1 4 0v22a2 2 0 0 1-2 2zM214 158a2 2 0 0 1-2-2v-22a2 2 0 1 1 4 0v22a2 2 0 0 1-2 2zM226 158a2 2 0 0 1-2-2v-22a2 2 0 1 1 4 0v22a2 2 0 0 1-2 2zM238 158a2 2 0 0 1-2-2v-22a2 2 0 1 1 4 0v22a2 2 0 0 1-2 2zM92 127H28a4 4 0 0 0-4 4v1h6a2 2 0 0 1 2 2v22a2 2 0 0 1-2 2h-6v1a4 4 0 0 0 4 4h64a4 4 0 0 0 4-4v-28a4 4 0 0 0-4-4zm-4 29a2 2 0 0 1-2 2H64a2 2 0 0 1-2-2v-22a2 2 0 0 1 2-2h22a2 2 0 0 1 2 2v22zM22 158h-6v-26h6a2 2 0 0 1 2 2v22a2 2 0 0 1-2 2z"/></g></svg>