<svg xmlns="http://www.w3.org/2000/svg" viewBox="0 0 32 32"><path fill="#FFB900" d="M15 8l-1.268-1.268A2.5 2.5 0 0 0 11.964 6H3.5A1.5 1.5 0 0 0 2 7.5v17A1.5 1.5 0 0 0 3.5 26h25a1.5 1.5 0 0 0 1.5-1.5v-15A1.5 1.5 0 0 0 28.5 8H15z"/><path fill="#FFD75E" d="M15 8l-1.268 1.268a2.5 2.5 0 0 1-1.768.732H2v14.5A1.5 1.5 0 0 0 3.5 26h25a1.5 1.5 0 0 0 1.5-1.5v-15A1.5 1.5 0 0 0 28.5 8H15z"/><linearGradient id="a" gradientUnits="userSpaceOnUse" x1="16" y1="8" x2="16" y2="26"><stop offset="0" stop-color="#fff" stop-opacity="0"/><stop offset=".999" stop-color="#ffd75e" stop-opacity=".3"/></linearGradient><path fill="url(#a)" d="M15 8l-1.268 1.268a2.5 2.5 0 0 1-1.768.732H2v14.5A1.5 1.5 0 0 0 3.5 26h25a1.5 1.5 0 0 0 1.5-1.5v-15A1.5 1.5 0 0 0 28.5 8H15z"/><path fill="#E67628" d="M3 25.5c-.286 0-.55-.084-.777-.223.263.432.734.723 1.277.723h25c.543 0 1.014-.291 1.277-.723A1.488 1.488 0 0 1 29 25.5H3z"/><path opacity=".4" fill="#FFF" d="M14.129 9.621L15.75 8H15l-1.268 1.268a2.5 2.5 0 0 1-1.768.732H2v.5h10.007a3 3 0 0 0 2.122-.879z"/><g><path fill="#BF5712" d="M21.374 22.792h-.892l-.519-2.834h-1.909v-5.916H27v5.916h-3.709l-1.917 2.834zm-2.417-3.738h1.75l.452 2.489 1.668-2.489h3.27v-4.206h-7.14v4.206z"/></g></svg>