<svg xmlns="http://www.w3.org/2000/svg" viewBox="0 0 32 32"><g fill="#FFF"><path d="M9.5 29h19c.275 0 .5-.225.5-.5V9h-4.5c-.827 0-1.5-.673-1.5-1.5V3H9.5c-.275 0-.5.225-.5.5v25c0 .275.225.5.5.5z"/><path d="M28.293 8L24 3.707V7.5c0 .275.225.5.5.5h3.793z"/></g><path opacity=".64" fill="#605E5C" d="M29.56 7.854l-5.414-5.415A1.51 1.51 0 0 0 23.086 2H9.5C8.673 2 8 2.673 8 3.5v25c0 .827.673 1.5 1.5 1.5h19c.827 0 1.5-.673 1.5-1.5V8.914c0-.4-.156-.777-.44-1.06zM24 3.707L28.293 8H24.5a.501.501 0 0 1-.5-.5V3.707zM28.5 29h-19a.501.501 0 0 1-.5-.5v-25c0-.275.225-.5.5-.5H23v4.5c0 .827.673 1.5 1.5 1.5H29v19.5c0 .275-.225.5-.5.5z"/><path fill="#038387" d="M3.5 25h11a1.5 1.5 0 0 0 1.5-1.5v-11a1.5 1.5 0 0 0-1.5-1.5h-11A1.5 1.5 0 0 0 2 12.5v11A1.5 1.5 0 0 0 3.5 25z"/><path fill="#FFF" d="M11.91 15.3H7.833v1.93h3.822v1.293H7.833V22H6.187v-8h5.723v1.3z"/><path fill="#038387" d="M17 19v1h7.5a.5.5 0 0 1 0 1H17v1h7.5a1.5 1.5 0 0 0 0-3H17z"/><path fill="#1A9BA1" d="M17 14v1h7.5a.5.5 0 0 1 0 1H17v1h7.5a1.5 1.5 0 0 0 0-3H17z"/></svg>