<svg xmlns="http://www.w3.org/2000/svg" viewBox="0 0 32 32"><path fill="#FFF" d="M27.379 7.082c-.262.074-.547.16-.857.253-2.246.676-5.637 1.696-10.492 1.696-4.909 0-8.305-1.02-10.552-1.697-.311-.093-.596-.179-.857-.253a.472.472 0 0 0-.411.078.539.539 0 0 0-.21.436V24.45c0 .173.075.33.206.43.068.054.211.136.406.086.358-.092.746-.204 1.173-.327 2.233-.64 5.607-1.609 10.715-1.609 4.797 0 7.46.86 9.406 1.487.526.17 1.01.326 1.482.449a.474.474 0 0 0 .406-.085.54.54 0 0 0 .206-.432V7.595a.538.538 0 0 0-.21-.436.466.466 0 0 0-.411-.077z"/><path fill="#FF9810" d="M24.05 13.9c-1.075 0-1.95-.874-1.95-1.95S22.975 10 24.05 10s1.95.875 1.95 1.95-.875 1.95-1.95 1.95zm0-3.079a1.13 1.13 0 0 0 0 2.258 1.13 1.13 0 0 0 0-2.258z"/><path fill="#A6CCC3" d="M28 21.277L23.053 16.7a1.644 1.644 0 0 0-2.185-.04l-2.595 2.225a1.93 1.93 0 0 1-2.553-.036l-5.414-4.922a1.641 1.641 0 0 0-2.268.053L4 17.904V16.51l3.336-3.24a2.639 2.639 0 0 1 3.642-.082l5.414 4.922a.932.932 0 0 0 1.23.018l2.596-2.225a2.644 2.644 0 0 1 3.514.065L28 19.914v1.363z"/><path opacity=".64" fill="none" stroke="#605E5C" stroke-miterlimit="10" d="M3.5 7.595V24.45c0 .67.607 1.164 1.237 1.001 2.255-.584 5.763-1.92 11.763-1.92s8.51 1.335 10.763 1.92c.63.163 1.237-.331 1.237-1V7.594c0-.68-.621-1.176-1.258-.994-2.094.596-5.742 1.93-11.211 1.93-5.531 0-9.176-1.335-11.273-1.93-.637-.182-1.258.313-1.258.994z"/></svg>