<svg xmlns="http://www.w3.org/2000/svg" viewBox="0 0 32 32"><path fill="#FFB900" d="M15 8l-1.268-1.268A2.5 2.5 0 0 0 11.964 6H3.5A1.5 1.5 0 0 0 2 7.5v17A1.5 1.5 0 0 0 3.5 26h25a1.5 1.5 0 0 0 1.5-1.5v-15A1.5 1.5 0 0 0 28.5 8H15z"/><path fill="#FFD75E" d="M15 8l-1.268 1.268a2.5 2.5 0 0 1-1.768.732H2v14.5A1.5 1.5 0 0 0 3.5 26h25a1.5 1.5 0 0 0 1.5-1.5v-15A1.5 1.5 0 0 0 28.5 8H15z"/><linearGradient id="a" gradientUnits="userSpaceOnUse" x1="16" y1="8" x2="16" y2="26"><stop offset="0" stop-color="#fff" stop-opacity="0"/><stop offset=".999" stop-color="#ffd75e" stop-opacity=".3"/></linearGradient><path fill="url(#a)" d="M15 8l-1.268 1.268a2.5 2.5 0 0 1-1.768.732H2v14.5A1.5 1.5 0 0 0 3.5 26h25a1.5 1.5 0 0 0 1.5-1.5v-15A1.5 1.5 0 0 0 28.5 8H15z"/><path fill="#E67628" d="M3 25.5c-.286 0-.55-.084-.777-.223.263.432.734.723 1.277.723h25c.543 0 1.014-.291 1.277-.723A1.488 1.488 0 0 1 29 25.5H3z"/><path opacity=".4" fill="#FFF" d="M14.129 9.621L15.75 8H15l-1.268 1.268a2.5 2.5 0 0 1-1.768.732H2v.5h10.007a3 3 0 0 0 2.122-.879z"/><g><path fill="#BF5712" d="M27.831 22.918h-8.723v-6.852h8.723v6.852zm-8.023-.69h7.324v-5.472h-7.324v5.471z"/><circle fill="#BF5712" cx="25.544" cy="18.436" r=".436"/><path fill="#BF5712" d="M24.238 22.732l-3.297-3.138-1.267.992-.432-.551 1.744-1.365 3.735 3.555z"/><path fill="#BF5712" d="M27.201 22.417l-2.11-1.614-1.432.924-.379-.588 1.844-1.192 2.503 1.914z"/></g></svg>