<svg xmlns="http://www.w3.org/2000/svg" viewBox="0 0 32 32"><g fill="#FFF"><path d="M9.5 29h19c.275 0 .5-.225.5-.5V9h-4.5c-.827 0-1.5-.673-1.5-1.5V3H9.5c-.275 0-.5.225-.5.5v25c0 .275.225.5.5.5z"/><path d="M28.293 8L24 3.707V7.5c0 .275.225.5.5.5h3.793z"/></g><path opacity=".64" fill="#605E5C" d="M29.56 7.854l-5.414-5.415A1.51 1.51 0 0 0 23.086 2H9.5C8.673 2 8 2.673 8 3.5v25c0 .827.673 1.5 1.5 1.5h19c.827 0 1.5-.673 1.5-1.5V8.914c0-.4-.156-.777-.44-1.06zM24 3.707L28.293 8H24.5a.501.501 0 0 1-.5-.5V3.707zM28.5 29h-19a.501.501 0 0 1-.5-.5v-25c0-.275.225-.5.5-.5H23v4.5c0 .827.673 1.5 1.5 1.5H29v19.5c0 .275-.225.5-.5.5z"/><path fill="#C8C6C4" d="M26.5 24h-15a.5.5 0 1 0 0 1h15a.5.5 0 1 0 0-1zM26.5 22h-15a.5.5 0 1 0 0 1h15a.5.5 0 1 0 0-1z"/><path fill="none" stroke="#C8C6C4" stroke-miterlimit="10" d="M15.5 17.154l3.273-2.895M21.094 14.542l1.902 2.031"/><circle fill="none" stroke="#C8C6C4" stroke-miterlimit="10" cx="24" cy="18" r="1.832"/><circle fill="none" stroke="#C8C6C4" stroke-miterlimit="10" cx="19.977" cy="13" r="1.832"/><path fill="#F2C80F" d="M3.5 25h11a1.5 1.5 0 0 0 1.5-1.5v-11a1.5 1.5 0 0 0-1.5-1.5h-11A1.5 1.5 0 0 0 2 12.5v11A1.5 1.5 0 0 0 3.5 25z"/><path fill="#333" d="M5.5 19a.5.5 0 0 0-.5.5v2a.5.5 0 0 0 1 0v-2a.5.5 0 0 0-.5-.5zM7.5 16a.5.5 0 0 0-.5.5v5a.5.5 0 0 0 1 0v-5a.5.5 0 0 0-.5-.5zM9.5 17a.5.5 0 0 0-.5.5v4a.5.5 0 0 0 1 0v-4a.5.5 0 0 0-.5-.5zM11.5 14a.5.5 0 0 0-.5.5v7a.5.5 0 0 0 1 0v-7a.5.5 0 0 0-.5-.5z"/></svg>