<svg xmlns="http://www.w3.org/2000/svg" viewBox="0 0 32 32"><path fill="#FFB900" d="M15 8l-1.268-1.268A2.5 2.5 0 0 0 11.964 6H3.5A1.5 1.5 0 0 0 2 7.5v17A1.5 1.5 0 0 0 3.5 26h25a1.5 1.5 0 0 0 1.5-1.5v-15A1.5 1.5 0 0 0 28.5 8H15z"/><path fill="#FFD75E" d="M15 8l-1.268 1.268a2.5 2.5 0 0 1-1.768.732H2v14.5A1.5 1.5 0 0 0 3.5 26h25a1.5 1.5 0 0 0 1.5-1.5v-15A1.5 1.5 0 0 0 28.5 8H15z"/><linearGradient id="a" gradientUnits="userSpaceOnUse" x1="16" y1="8" x2="16" y2="26"><stop offset="0" stop-color="#fff" stop-opacity="0"/><stop offset=".999" stop-color="#ffd75e" stop-opacity=".3"/></linearGradient><path fill="url(#a)" d="M15 8l-1.268 1.268a2.5 2.5 0 0 1-1.768.732H2v14.5A1.5 1.5 0 0 0 3.5 26h25a1.5 1.5 0 0 0 1.5-1.5v-15A1.5 1.5 0 0 0 28.5 8H15z"/><path fill="#E67628" d="M3 25.5c-.286 0-.55-.084-.777-.223.263.432.734.723 1.277.723h25c.543 0 1.014-.291 1.277-.723A1.488 1.488 0 0 1 29 25.5H3z"/><path opacity=".4" fill="#FFF" d="M14.129 9.621L15.75 8H15l-1.268 1.268a2.5 2.5 0 0 1-1.768.732H2v.5h10.007a3 3 0 0 0 2.122-.879z"/><g><path fill="#BF5712" d="M26.39 17.707A2.004 2.004 0 0 1 27.5 19.5H27c0-.206-.04-.4-.12-.582s-.187-.341-.321-.477-.295-.242-.477-.322S25.705 18 25.5 18s-.4.04-.582.12-.342.186-.477.321-.242.295-.322.477-.119.376-.119.582c0 .237-.055.462-.162.676s-.258.39-.447.531A2.004 2.004 0 0 1 24.5 22.5h-.501c0-.206-.04-.4-.12-.582s-.187-.341-.321-.477-.295-.242-.477-.322S22.705 21 22.5 21s-.4.04-.582.12-.342.186-.477.321-.242.295-.322.477-.119.376-.119.582h-.5c0-.19.025-.374.078-.553s.127-.345.223-.5a2.03 2.03 0 0 1 .808-.74c-.19-.14-.34-.318-.447-.531a1.49 1.49 0 0 1 .28-1.735c.134-.135.294-.242.476-.322S22.295 18 22.5 18c.236 0 .463.054.676.162s.39.257.531.447a2.04 2.04 0 0 1 .902-.902c-.19-.14-.34-.318-.447-.531a1.49 1.49 0 0 1 .28-1.735c.134-.135.294-.242.476-.322S25.295 15 25.5 15s.4.04.582.12.342.186.477.321.242.295.322.477.119.376.119.582c0 .237-.055.462-.162.676s-.258.39-.447.531zM22.5 20.5a1.012 1.012 0 0 0 1-1 1.012 1.012 0 0 0-1-1c-.139 0-.268.027-.389.08a1.025 1.025 0 0 0-.53.533.97.97 0 0 0 0 .776 1.02 1.02 0 0 0 .53.53c.121.054.25.081.389.081zm2-4c0 .138.027.268.08.389s.125.226.215.316.195.162.316.215.25.08.389.08a1.012 1.012 0 0 0 1-1 1.012 1.012 0 0 0-1-1c-.139 0-.268.027-.389.08a1.025 1.025 0 0 0-.53.533.97.97 0 0 0-.081.387z"/></g></svg>