<svg width="20" height="20" viewBox="0 0 20 20" fill="none" xmlns="http://www.w3.org/2000/svg">
<path d="M18.4 8.90002C18.4 8.70002 18.2 8.50002 18 8.50002C16.6 8.30002 15.5 7.00002 15.5 5.60002C15.5 5.20002 15.6 4.80002 15.8 4.40002C15.9 4.20002 15.9 3.90002 15.7 3.80002C14.9 3.00002 14 2.40002 13 2.10002C12.8 2.00002 12.5 2.10002 12.4 2.30002C11.9 3.00002 11 3.50002 10 3.50002C9 3.50002 8.1 3.00002 7.6 2.30002C7.4 2.10002 7.2 2.00002 7 2.10002C6 2.40002 5.1 3.00002 4.3 3.70002C4.2 3.80002 4.1 4.10002 4.2 4.30002C4.4 4.70002 4.5 5.10002 4.5 5.50002C4.5 7.00002 3.4 8.20002 2 8.40002C1.8 8.40002 1.6 8.60002 1.6 8.80002C1.5 9.20002 1.5 9.60002 1.5 10C1.5 10.4 1.5 10.8 1.6 11.1C1.6 11.3 1.8 11.5 2 11.5C3.4 11.7 4.5 13 4.5 14.4C4.5 14.8 4.4 15.2 4.2 15.6C4.1 15.8 4.1 16.1 4.3 16.2C5.1 17 6 17.6 7 17.9C7.2 18 7.5 17.9 7.6 17.7C8.1 17 9 16.5 10 16.5C11 16.5 11.9 17 12.4 17.7C12.5 17.9 12.8 18 13 17.9C14 17.5 14.9 17 15.7 16.3C15.9 16.1 15.9 15.9 15.8 15.7C15.6 15.3 15.5 14.9 15.5 14.5C15.5 13 16.6 11.8 18 11.6C18.2 11.6 18.4 11.4 18.4 11.2C18.5 10.8 18.5 10.4 18.5 10.1C18.5 9.60002 18.5 9.20002 18.4 8.90002Z" fill="#FAFAFA" stroke="#444444" stroke-miterlimit="10"/>
<path d="M10 13C11.6569 13 13 11.6569 13 10C13 8.34315 11.6569 7 10 7C8.34315 7 7 8.34315 7 10C7 11.6569 8.34315 13 10 13Z" fill="#28AFEA" stroke="#0669BC" stroke-miterlimit="10"/>
</svg>
