<svg width="20" height="20" viewBox="0 0 20 20" fill="none" xmlns="http://www.w3.org/2000/svg">
  <path d="M3.5 16V1H16V11L17 13V17H6.5V19L3.5 16Z" fill="#E6E7E8" />
  <path d="M15 0C15.1693 0 15.3288 0.0325521 15.4785 0.0976562C15.6348 0.16276 15.7682 0.253906 15.8789 0.371094C15.9961 0.481771 16.0872 0.615234 16.1523 0.771484C16.2174 0.921224 16.25 1.08073 16.25 1.25V10.3125C16.25 10.5143 16.2793 10.6901 16.3379 10.8398C16.403 10.9896 16.4811 11.1328 16.5723 11.2695C16.6634 11.3997 16.7643 11.5332 16.875 11.6699C16.9857 11.8001 17.0866 11.9466 17.1777 12.1094C17.2689 12.2721 17.3438 12.4609 17.4023 12.6758C17.4674 12.8906 17.5 13.1445 17.5 13.4375V16.25C17.5 16.4193 17.4674 16.582 17.4023 16.7383C17.3372 16.888 17.2461 17.0215 17.1289 17.1387C17.0182 17.2493 16.8848 17.3372 16.7285 17.4023C16.5788 17.4674 16.4193 17.5 16.25 17.5H7.5V18.75C7.5 19.0039 7.42839 19.235 7.28516 19.4434C7.14844 19.6517 6.96289 19.8047 6.72852 19.9023C6.57878 19.9674 6.41927 20 6.25 20C5.90495 20 5.60872 19.8763 5.36133 19.6289L2.5 16.7676V0H15ZM6.25 15.3125C6.25 15.0195 6.2793 14.7689 6.33789 14.5605C6.40299 14.3457 6.48112 14.1569 6.57227 13.9941C6.66341 13.8249 6.76432 13.6751 6.875 13.5449C6.98568 13.4147 7.08659 13.2845 7.17773 13.1543C7.26888 13.0176 7.34375 12.8743 7.40234 12.7246C7.46745 12.5684 7.5 12.3893 7.5 12.1875V5.88867L3.75 2.13867V16.25L6.25 18.75V15.3125ZM16.25 13.4375C16.25 13.2357 16.2174 13.0599 16.1523 12.9102C16.0938 12.7604 16.0189 12.6204 15.9277 12.4902C15.8366 12.3535 15.7357 12.2201 15.625 12.0898C15.5143 11.9531 15.4134 11.8034 15.3223 11.6406C15.2311 11.4779 15.153 11.2891 15.0879 11.0742C15.0293 10.8594 15 10.6055 15 10.3125V1.25H4.63867L8.38867 5C8.50586 5.11719 8.59375 5.25391 8.65234 5.41016C8.71745 5.5599 8.75 5.7194 8.75 5.88867V12.1875C8.75 12.4805 8.71745 12.7344 8.65234 12.9492C8.59375 13.1576 8.51888 13.3464 8.42773 13.5156C8.33659 13.6784 8.23568 13.8249 8.125 13.9551C8.01432 14.0853 7.91341 14.2188 7.82227 14.3555C7.73112 14.4857 7.65299 14.6289 7.58789 14.7852C7.5293 14.9349 7.5 15.1107 7.5 15.3125V16.25H16.25V13.4375Z" fill="#323232" />
</svg>