<svg width="20" height="20" viewBox="0 0 20 20" fill="none" xmlns="http://www.w3.org/2000/svg">
<path d="M13 16H2V4H7.7C8.1 4 8.5 4.2 8.8 4.4L9.6 5.2C10 5.7 10.7 6 11.3 6H18V13H19V6C19 5.4 18.6 5 18 5H11.3C10.9 5 10.5 4.8 10.2 4.6L9.4 3.7C9 3.3 8.3 3 7.7 3H2C1.4 3 1 3.4 1 4V16C1 16.6 1.4 17 2 17H13V16Z" fill="#AAAAAA"/>
<path d="M1.5 7.5H7.7C8.2 7.5 8.7 7.3 9.1 6.9L10.5 5.5" stroke="#AAAAAA" stroke-miterlimit="10"/>
<path d="M15 10H14V19H15V10Z" fill="#4FAEE7"/>
<path d="M19 15V14L10 14V15L19 15Z" fill="#4FAEE7"/>
</svg>
