<svg width="20" height="20" viewBox="0 0 20 20" fill="none" xmlns="http://www.w3.org/2000/svg">
<path d="M18.4 8.90001C18.4 8.70001 18.2 8.50001 18 8.50001C16.6 8.30001 15.5 7.00001 15.5 5.60001C15.5 5.20001 15.6 4.80001 15.8 4.40001C15.9 4.20001 15.9 3.90001 15.7 3.80001C14.9 3.00001 14 2.40001 13 2.10001C12.8 2.00001 12.5 2.10001 12.4 2.30001C11.9 3.00001 11 3.50001 10 3.50001C9 3.50001 8.1 3.00001 7.6 2.30001C7.4 2.10001 7.2 2.00001 7 2.10001C6 2.40001 5.1 3.00001 4.3 3.70001C4.2 3.80001 4.1 4.10001 4.2 4.30001C4.4 4.70001 4.5 5.10001 4.5 5.50001C4.5 7.00001 3.4 8.20001 2 8.40001C1.8 8.40001 1.6 8.60001 1.6 8.80001C1.5 9.20001 1.5 9.60001 1.5 10C1.5 10.4 1.5 10.8 1.6 11.1C1.6 11.3 1.8 11.5 2 11.5C3.4 11.7 4.5 13 4.5 14.4C4.5 14.8 4.4 15.2 4.2 15.6C4.1 15.8 4.1 16.1 4.3 16.2C5.1 17 6 17.6 7 17.9C7.2 18 7.5 17.9 7.6 17.7C8.1 17 9 16.5 10 16.5C11 16.5 11.9 17 12.4 17.7C12.5 17.9 12.8 18 13 17.9C14 17.5 14.9 17 15.7 16.3C15.9 16.1 15.9 15.9 15.8 15.7C15.6 15.3 15.5 14.9 15.5 14.5C15.5 13 16.6 11.8 18 11.6C18.2 11.6 18.4 11.4 18.4 11.2C18.5 10.8 18.5 10.4 18.5 10.1C18.5 9.60001 18.5 9.20001 18.4 8.90001Z" stroke="#AAAAAA" stroke-miterlimit="10"/>
<path d="M10 13C11.6569 13 13 11.6569 13 10C13 8.34315 11.6569 7 10 7C8.34315 7 7 8.34315 7 10C7 11.6569 8.34315 13 10 13Z" fill="#4FAEE7" stroke="#0669BC" stroke-miterlimit="10"/>
</svg>
