<svg width="20" height="20" viewBox="0 0 20 20" fill="none" xmlns="http://www.w3.org/2000/svg">
<path d="M11.5 13.5L10 14V3.10001C10 2.80001 10.1 2.60001 10.3 2.40001L11.5 1.20001V13.5Z" fill="#AAAAAA"/>
<path d="M6.39999 9.29999V10.9L17.5 7.19999C17.8 7.19999 18 6.99999 18.1 6.79999L18.9 5.29999L6.39999 9.29999Z" fill="#AAAAAA"/>
<path d="M4 9C5.1 9 6 9.9 6 11C6 12.1 5.1 13 4 13C2.9 13 2 12.1 2 11C2 9.9 2.9 9 4 9ZM4 8C2.3 8 1 9.3 1 11C1 12.7 2.3 14 4 14C5.7 14 7 12.7 7 11C7 9.3 5.7 8 4 8Z" fill="#4FAEE7"/>
<path d="M11 14C12.1 14 13 14.9 13 16C13 17.1 12.1 18 11 18C9.9 18 9 17.1 9 16C9 14.9 9.9 14 11 14ZM11 13C9.3 13 8 14.3 8 16C8 17.7 9.3 19 11 19C12.7 19 14 17.7 14 16C14 14.3 12.7 13 11 13Z" fill="#4FAEE7"/>
</svg>
