<svg width="20" height="20" viewBox="0 0 20 20" fill="none" xmlns="http://www.w3.org/2000/svg">
<path d="M1.5 4C1.77614 4 2 3.77614 2 3.5C2 3.22386 1.77614 3 1.5 3C1.22386 3 1 3.22386 1 3.5C1 3.77614 1.22386 4 1.5 4Z" fill="#AAAAAA"/>
<path d="M1 3.5V16C1 16.6 1.4 17 2 17H14C14.6 17 15 16.6 15 16V14L14 15V16H2V3.5H1Z" fill="#AAAAAA"/>
<path d="M4.5 12.8C4.6 8.30001 8.5 4.50001 13 4.50001H13.5V1.20001L19.3 7.00001L13.5 12.8V9.50001H13C10 9.50001 6.9 10.7 4.5 12.8Z" fill="#0669BC"/>
<path d="M14 2.40001L18.6 7.00001L14 11.6V10V9.00001H13C10.3 9.00001 7.5 10 5.1 11.7C5.8 8.00001 9.2 5.00001 13 5.00001H14V4.00001V2.40001ZM13.5 0.700012C13.2 0.700012 13 0.900012 13 1.20001V4.00001C8.2 4.00001 4 8.20001 4 13V14C6.2 11.7 9.6 10 13 10V12.8C13 13.1 13.2 13.3 13.5 13.3C13.6 13.3 13.7 13.3 13.8 13.2L19.6 7.40001C19.8 7.20001 19.8 6.90001 19.6 6.70001L13.8 0.900012C13.8 0.800012 13.6 0.700012 13.5 0.700012Z" fill="#4FAEE7"/>
</svg>
