<svg xmlns="http://www.w3.org/2000/svg" viewBox="0 0 20 20"><title>OneDrive_20x</title><path d="M11.721,10.547l4.47-2.693a6.251,6.251,0,0,0-11.4-1.691Z" fill="#0364b8"/><path d="M7.627,6.741h0A4.969,4.969,0,0,0,5,6L4.936,6A5,5,0,0,0,.9,13.854l6.449-1.033,4.478-3.565Z" fill="#0078d4"/><path d="M16.2,7.874c-.091-.006-.182-.01-.275-.01a4.056,4.056,0,0,0-1.61.332h0l-2.5,1.052,2.761,3.51,4.928,1.1a4.062,4.062,0,0,0-3.3-5.98Z" fill="#1490df"/><path d="M11.826,9.26.9,13.858A4.993,4.993,0,0,0,5,16H15.938a4.06,4.06,0,0,0,3.576-2.135Z" fill="#28a8ea"/><rect width="20" height="20" fill="none"/></svg>