<svg width="20" height="20" viewBox="0 0 20 20" fill="none" xmlns="http://www.w3.org/2000/svg">
<path d="M10 18.5C14.6944 18.5 18.5 14.6944 18.5 10C18.5 5.30558 14.6944 1.5 10 1.5C5.30558 1.5 1.5 5.30558 1.5 10C1.5 14.6944 5.30558 18.5 10 18.5Z" stroke="#AAAAAA" stroke-miterlimit="10"/>
<path d="M10 18.5C11.933 18.5 13.5 14.6944 13.5 10C13.5 5.30558 11.933 1.5 10 1.5C8.067 1.5 6.5 5.30558 6.5 10C6.5 14.6944 8.067 18.5 10 18.5Z" stroke="#AAAAAA" stroke-miterlimit="10"/>
<path d="M1.79999 12.5H18.1" stroke="#AAAAAA" stroke-miterlimit="10"/>
<path d="M1.89999 7.5H18.2" stroke="#AAAAAA" stroke-miterlimit="10"/>
</svg>
