<svg width="20" height="20" viewBox="0 0 20 20" fill="none" xmlns="http://www.w3.org/2000/svg">
<path d="M15.5 18.5H4.5C3.9 18.5 3.5 18.1 3.5 17.5V3.5H16.5V17.5C16.5 18.1 16.1 18.5 15.5 18.5Z" stroke="#AAAAAA" stroke-miterlimit="10"/>
<path d="M2 3.5H18" stroke="#AAAAAA" stroke-miterlimit="10" stroke-linecap="round"/>
<path d="M13.5 3.5V2C13.5 1.7 13.3 1.5 13 1.5H7C6.7 1.5 6.5 1.7 6.5 2V3.5" stroke="#AAAAAA" stroke-miterlimit="10"/>
<path d="M7.5 11.9L8.4 12.6L7.9 10.3H5.5L6.3 11L5.7 12C5.6 12.2 5.5 12.5 5.6 12.7L6.7 14.7C6.7 14.9 7 15 7.2 15H9V13.2H6.9L7.5 11.9Z" fill="#4FAEE7"/>
<path d="M9.9 7.6L11 9.7L10.3 10.2L12.8 10.4L13.1 8L12.4 8.5L11.8 7.3C11.7 7.1 11.5 7 11.2 7H8.7C8.4 7 8.2 7.1 8.1 7.4L7.4 8.7L8.9 9.4L9.9 7.6Z" fill="#4FAEE7"/>
<path d="M14.4 12.1L13.8 11L12.4 11.8L13.2 13.2H11.3V12L9.9 13.8L11.3 15.7V15H12.9C13.1 15 13.4 14.9 13.5 14.7L14.5 12.8C14.5 12.5 14.5 12.3 14.4 12.1Z" fill="#4FAEE7"/>
</svg>
