<svg width="20" height="20" viewBox="0 0 20 20" fill="none" xmlns="http://www.w3.org/2000/svg">
<path d="M11.5 13.5L10 14V3.09995C10 2.79995 10.1 2.59995 10.3 2.39995L11.5 1.19995V13.5Z" fill="#444444"/>
<path d="M6.40002 9.30005V10.9L17.5 7.20005C17.8 7.20005 18 7.00005 18.1 6.80005L18.9 5.30005L6.40002 9.30005Z" fill="#444444"/>
<path d="M4 9C5.1 9 6 9.9 6 11C6 12.1 5.1 13 4 13C2.9 13 2 12.1 2 11C2 9.9 2.9 9 4 9ZM4 8C2.3 8 1 9.3 1 11C1 12.7 2.3 14 4 14C5.7 14 7 12.7 7 11C7 9.3 5.7 8 4 8Z" fill="#0C59A4"/>
<path d="M11 14C12.1 14 13 14.9 13 16C13 17.1 12.1 18 11 18C9.9 18 9 17.1 9 16C9 14.9 9.9 14 11 14ZM11 13C9.3 13 8 14.3 8 16C8 17.7 9.3 19 11 19C12.7 19 14 17.7 14 16C14 14.3 12.7 13 11 13Z" fill="#0C59A4"/>
</svg>
