<svg width="20" height="20" viewBox="0 0 20 20" fill="none" xmlns="http://www.w3.org/2000/svg">
<path d="M8 9C8 7.9 8.9 7 10 7H16.5V4C16.5 3.7 16.3 3.5 16 3.5H4C3.7 3.5 3.5 3.7 3.5 4V17C3.5 17.3 3.7 17.5 4 17.5H9V16H8V9Z" fill="#28AFEA"/>
<path d="M9 17H4V4H16V7H17V4C17 3.5 16.6 3 16 3H4C3.4 3 3 3.4 3 4V17C3 17.5 3.4 18 4 18H9V17Z" fill="#0669BC"/>
<path d="M9 9C9 7.9 9.9 7 11 7H15V6H5V16H9V9Z" fill="#FAFAFA"/>
<path d="M13.5 3.5H12.5V3C12.5 1.6 11.4 0.5 10 0.5C8.6 0.5 7.5 1.6 7.5 3V3.5H6.5C5.9 3.5 5.5 3.9 5.5 4.5V6.5H14.5V4.5C14.5 3.9 14.1 3.5 13.5 3.5Z" fill="#FAFAFA"/>
<path d="M13.5 3.5H12.5V3C12.5 1.6 11.4 0.5 10 0.5C8.6 0.5 7.5 1.6 7.5 3V3.5H6.5C5.9 3.5 5.5 3.9 5.5 4.5V6.5H14.5V4.5C14.5 3.9 14.1 3.5 13.5 3.5Z" stroke="#444444" stroke-miterlimit="10"/>
<path d="M19 19.5H11C10.7 19.5 10.5 19.3 10.5 19V9C10.5 8.7 10.7 8.5 11 8.5H19C19.3 8.5 19.5 8.7 19.5 9V19C19.5 19.3 19.3 19.5 19 19.5Z" fill="#FAFAFA"/>
<path d="M19 20H11C10.4 20 10 19.6 10 19V9C10 8.4 10.4 8 11 8H19C19.6 8 20 8.4 20 9V19C20 19.6 19.6 20 19 20ZM19 19V19.5V19ZM11 9V19H19V9H11Z" fill="#444444"/>
</svg>
