<svg width="20" height="20" viewBox="0 0 20 20" fill="none" xmlns="http://www.w3.org/2000/svg">
<path d="M3 10.4004V12.0004C3 13.9004 6.6 15.0004 10 15.0004C13.4 15.0004 17 13.9004 17 12.0004V10.4004C15.5 11.7004 12.7 12.2004 10 12.2004C7.3 12.2004 4.5 11.7004 3 10.4004Z" fill="#8B8B8B"/>
<path d="M3 14.4004V16.0004C3 17.9004 6.6 19.0004 10 19.0004C13.4 19.0004 17 17.9004 17 16.0004V14.4004C15.5 15.7004 12.7 16.2004 10 16.2004C7.3 16.2004 4.5 15.7004 3 14.4004Z" fill="#619619"/>
<path d="M10 8.30039C7.3 8.30039 4.5 7.70039 3 6.40039V8.00039C3 9.90039 6.6 11.0004 10 11.0004C13.4 11.0004 17 9.90039 17 8.00039V6.40039C15.5 7.60039 12.7 8.30039 10 8.30039Z" fill="#8B8B8B"/>
<path d="M10 7C13.866 7 17 5.65685 17 4C17 2.34315 13.866 1 10 1C6.13401 1 3 2.34315 3 4C3 5.65685 6.13401 7 10 7Z" fill="#8B8B8B"/>
</svg>
