<svg width="12" height="12" viewBox="0 0 12 12" fill="none" xmlns="http://www.w3.org/2000/svg">
<path fill-rule="evenodd" clip-rule="evenodd" d="M0 6C0 2.68629 2.68629 0 6 0C9.31371 0 12 2.68629 12 6C12 9.31371 9.31371 12 6 12C2.68629 12 0 9.31371 0 6ZM3.03076 8.50006C3.03076 8.22392 3.25462 8.00006 3.53076 8.00006H8.49951C8.77565 8.00006 8.99951 8.22392 8.99951 8.50006C8.99951 8.7762 8.77565 9.00006 8.49951 9.00006H3.53076C3.25462 9.00006 3.03076 8.7762 3.03076 8.50006ZM8.61414 2.79779C8.81215 2.99027 8.81663 3.30682 8.62415 3.50483L5.35852 6.8642C5.26523 6.96017 5.13737 7.01473 5.00354 7.01567C4.86971 7.01662 4.74108 6.96388 4.64645 6.86924L3.14645 5.36924C2.95118 5.17398 2.95118 4.8574 3.14645 4.66213C3.34171 4.46687 3.65829 4.46687 3.85355 4.66213L4.99496 5.80354L7.9071 2.8078C8.09958 2.60979 8.41613 2.60531 8.61414 2.79779Z" fill="#919191"/>
</svg>
