<svg width="20" height="20" viewBox="0 0 20 20" fill="none" xmlns="http://www.w3.org/2000/svg">
<path d="M5 5.5H3C2.7 5.5 2.5 5.3 2.5 5V3C2.5 2.7 2.7 2.5 3 2.5H5C5.3 2.5 5.5 2.7 5.5 3V5C5.5 5.3 5.3 5.5 5 5.5Z" fill="#0669BC" stroke="#4FAEE7" stroke-miterlimit="10"/>
<path d="M5 17.5H3C2.7 17.5 2.5 17.3 2.5 17V15C2.5 14.7 2.7 14.5 3 14.5H5C5.3 14.5 5.5 14.7 5.5 15V17C5.5 17.3 5.3 17.5 5 17.5Z" fill="#0669BC" stroke="#4FAEE7" stroke-miterlimit="10"/>
<path d="M5 11.5H3C2.7 11.5 2.5 11.3 2.5 11V9C2.5 8.7 2.7 8.5 3 8.5H5C5.3 8.5 5.5 8.7 5.5 9V11C5.5 11.3 5.3 11.5 5 11.5Z" fill="#0669BC" stroke="#4FAEE7" stroke-miterlimit="10"/>
<path d="M8.5 3.5H17.5" stroke="#AAAAAA" stroke-miterlimit="10" stroke-linecap="round"/>
<path d="M8.5 9.5H17.5" stroke="#AAAAAA" stroke-miterlimit="10" stroke-linecap="round"/>
<path d="M8.5 15.5H17.5" stroke="#AAAAAA" stroke-miterlimit="10" stroke-linecap="round"/>
</svg>
