<svg width="20" height="20" viewBox="0 0 20 20" fill="none" xmlns="http://www.w3.org/2000/svg">
<path d="M16 18.5H4C3.7 18.5 3.5 18.3 3.5 18V14.5H16.5V18C16.5 18.3 16.3 18.5 16 18.5Z" fill="#555555" stroke="#AAAAAA" stroke-miterlimit="10"/>
<path d="M16.5 14.5H3.5V2.10001C3.5 1.80001 3.7 1.60001 4 1.60001H16C16.3 1.60001 16.5 1.80001 16.5 2.10001V14.5Z" stroke="#AAAAAA" stroke-miterlimit="10"/>
<path d="M6 9.49999H14L10 3.79999L6 9.49999Z" stroke="#4FAEE7" stroke-miterlimit="10" stroke-linejoin="round"/>
<path d="M6 11.5H14" stroke="#4FAEE7" stroke-miterlimit="10" stroke-linecap="round" stroke-linejoin="round"/>
<path d="M14.5 16C14.2 16 14 16.2 14 16.5C14 16.8 14.2 17 14.5 17C14.8 17 15 16.8 15 16.5C15 16.2 14.8 16 14.5 16Z" fill="#AAAAAA"/>
</svg>
