<svg xmlns="http://www.w3.org/2000/svg" viewBox="0 0 16 16"><title>OneDrive_16x</title><path d="M9.461,8.43,12.97,6.508A5,5,0,0,0,3.949,5Z" fill="#0364b8"/><path d="M6.1,5.6h0a4,4,0,0,0-5.383,5.69l5.695.152,3.047-3.83Z" fill="#0078d4"/><path d="M12.97,6.508a3.228,3.228,0,0,0-1.508.258h0l-2,.843L11.21,10.55l4.4.742A3.251,3.251,0,0,0,12.97,6.508Z" fill="#1490df"/><path d="M9.461,7.608.719,11.286A3.994,3.994,0,0,0,4,13h8.75a3.251,3.251,0,0,0,2.862-1.708Z" fill="#28a8ea"/><rect width="16" height="16" fill="none"/></svg>