<svg width="20" height="20" viewBox="0 0 20 20" fill="none" xmlns="http://www.w3.org/2000/svg">
<path d="M17.6 9.5H16.5V6C16.5 5.7 16.3 5.5 16 5.5H10.3C9.8 5.5 9.3 5.3 8.9 4.9L8.1 4.1C7.7 3.7 7.2 3.5 6.7 3.5H2C1.7 3.5 1.5 3.7 1.5 4V16C1.5 16.3 1.7 16.5 2 16.5H14.2C14.4 16.5 14.5 16.4 14.6 16.2L18 10.2C18.3 9.9 18 9.5 17.6 9.5Z" fill="#FFD540"/>
<path d="M2.00019 16.5H14.2002C14.4002 16.5 14.5002 16.4 14.6002 16.2L18.0002 10.2C18.2002 9.9 17.9002 9.5 17.6002 9.5H5.30019C5.10019 9.5 4.90019 9.6 4.90019 9.8L1.80019 16C1.80019 16 1.50019 16.5 2.00019 16.5Z" fill="#FFEA80"/>
<path d="M16.5 9.5V6C16.5 5.7 16.3 5.5 16 5.5H10.3C9.8 5.5 9.3 5.3 8.9 4.9L8.1 4.1C7.7 3.7 7.2 3.5 6.7 3.5H2C1.7 3.5 1.5 3.7 1.5 4V16C1.5 16.3 1.7 16.5 2 16.5H14.2C14.4 16.5 14.5 16.4 14.6 16.2L18 10.2C18.2 9.9 17.9 9.5 17.6 9.5H5.3C5.1 9.5 4.9 9.6 4.9 9.8L1.8 16" stroke="#B46D0C" stroke-miterlimit="10"/>
</svg>
