<svg width="20" height="20" viewBox="0 0 20 20" fill="none" xmlns="http://www.w3.org/2000/svg">
<path d="M15.8 7C15.1 4.7 13 3 10.5 3C8.8 3 7.3 3.8 6.2 5.1C6 5 5.7 5 5.5 5C3 5 1 7 1 9.5C1 11.9 2.8 13.8 5.2 14C5.3 13.8 5.4 13.7 5.5 13.5C5.7 13.3 6 13.1 6.3 13H5.5C3.6 13 2 11.4 2 9.5C2 7.6 3.6 6 5.5 6C5.9 6 6.3 6.1 6.6 6.2C7.4 4.9 8.9 4 10.5 4C12.8 4 14.7 5.8 14.9 8H15.5C16.9 8 18 9.1 18 10.5C18 11.9 16.9 13 15.5 13H13.7C14 13.1 14.3 13.3 14.5 13.5C14.6 13.6 14.8 13.8 14.9 14H15.5C17.4 14 19 12.4 19 10.5C19 8.7 17.6 7.2 15.8 7Z" fill="#AAAAAA"/>
<path d="M10 11V17" stroke="#4FAEE7" stroke-width="2" stroke-miterlimit="10" stroke-linecap="round"/>
<path d="M7 15L10 18L13 15" stroke="#4FAEE7" stroke-width="1.75" stroke-miterlimit="10" stroke-linecap="round" stroke-linejoin="round"/>
</svg>
