<svg xmlns="http://www.w3.org/2000/svg" viewBox="0 0 36 36"><g fill="#FFF"><path d="M11.386 33H32.6c.216 0 .4-.17.4-.372V10h-5.6c-.772 0-1.4-.628-1.4-1.4V3H11.4c-.216 0-.4.17-.4.372v29.27c0 .197.173.358.386.358z"/><path d="M32.204 9L27 3.815V8.6c0 .22.18.4.4.4h4.804z"/></g><path opacity=".64" fill="#605E5C" d="M33.613 8.993l-6.595-6.572A1.45 1.45 0 0 0 26 2H11.4c-.772 0-1.4.615-1.4 1.372v29.27c0 .749.622 1.358 1.386 1.358H32.6c.772 0 1.4-.615 1.4-1.372V9.923c0-.346-.14-.686-.387-.93zM27 3.815L32.204 9H27.4a.4.4 0 0 1-.4-.4V3.815zm6 28.813c0 .202-.184.372-.4.372H11.386c-.213 0-.386-.16-.386-.358V3.372c0-.202.184-.372.4-.372H26v5.6c0 .772.628 1.4 1.4 1.4H33v22.628z"/><path fill="#AF2031" d="M3.5 28h13a1.5 1.5 0 0 0 1.5-1.5v-13a1.5 1.5 0 0 0-1.5-1.5h-13A1.5 1.5 0 0 0 2 13.5v13A1.5 1.5 0 0 0 3.5 28z"/><path fill="#FFF" d="M8.849 15h2.36L15 25h-2.23l-.835-2.417h-3.9L7.216 25H5l3.849-10zm2.585 6s-1.409-4.235-1.438-4.435L8.508 21h2.926z"/><g><path fill="#C94F60" d="M26.5 23h-2a.5.5 0 0 1 0-1h2a.5.5 0 0 1 0 1z"/><path fill="#E08095" d="M26.5 20h-2a.5.5 0 0 1 0-1h2a.5.5 0 0 1 0 1z"/><path fill="#AF2031" d="M21.5 22H20v1h1.5a.5.5 0 0 0 0-1z"/><path fill="#C94F60" d="M21.5 19H20v1h1.5a.5.5 0 0 0 0-1zM30 16h-1v8.5a.5.5 0 0 1-.5.5H20v1h8.5c.827 0 1.5-.673 1.5-1.5V16z"/><path fill="#E08095" d="M30 17H20v-3h8.5a1.5 1.5 0 0 1 1.5 1.5V17z"/></g></svg>