<svg xmlns="http://www.w3.org/2000/svg" viewBox="0 0 36 36"><path fill="#FFF" d="M4.5 32h27c.275 0 .5-.225.5-.5v-27c0-.275-.225-.5-.5-.5h-27c-.275 0-.5.225-.5.5v27c0 .275.225.5.5.5z"/><path opacity=".64" fill="#605E5C" d="M31.5 33h-27c-.827 0-1.5-.673-1.5-1.5v-27C3 3.673 3.673 3 4.5 3h27c.827 0 1.5.673 1.5 1.5v27c0 .827-.673 1.5-1.5 1.5zM4.5 4a.5.5 0 0 0-.5.5v27a.5.5 0 0 0 .5.5h27a.5.5 0 0 0 .5-.5v-27a.5.5 0 0 0-.5-.5h-27z"/><g fill="none" stroke="#69AFE5" stroke-linecap="round" stroke-linejoin="round" stroke-miterlimit="10"><ellipse cx="13.519" cy="22.503" rx="2.019" ry="1.989"/><ellipse cx="21.509" cy="21.493" rx="1.991" ry="1.962"/><path d="M15.539 22.293V13.38l7.961-2.108v10.222M15.686 16.407l7.372-1.815"/></g></svg>