<svg xmlns="http://www.w3.org/2000/svg" viewBox="0 0 36 36"><path fill="#FFF" d="M32 31.5V13H4v18.5a.5.5 0 0 0 .5.5h27a.5.5 0 0 0 .5-.5zM25.5 8a.5.5 0 0 1-.5-.5v-3a.5.5 0 0 1 1 0v3a.5.5 0 0 1-.5.5zM10.5 8a.5.5 0 0 1-.5-.5v-3a.5.5 0 0 1 1 0v3a.5.5 0 0 1-.5.5z"/><path fill="#FFF" d="M31.5 6H27v1.5c0 .827-.673 1.5-1.5 1.5S24 8.327 24 7.5V6H12v1.5c0 .827-.673 1.5-1.5 1.5S9 8.327 9 7.5V6H4.5a.5.5 0 0 0-.5.5V12h28V6.5a.5.5 0 0 0-.5-.5z"/><path opacity=".64" fill="#605E5C" d="M31.5 5H27v.5-1c0-.827-.673-1.5-1.5-1.5S24 3.673 24 4.5V5H12v-.5c0-.827-.673-1.5-1.5-1.5S9 3.673 9 4.5V5H4.5C3.673 5 3 5.673 3 6.5v25c0 .827.673 1.5 1.5 1.5h27c.827 0 1.5-.673 1.5-1.5v-25c0-.827-.673-1.5-1.5-1.5zM25 4.5a.5.5 0 0 1 1 0v3a.5.5 0 0 1-1 0v-3zm-15 0a.5.5 0 0 1 1 0v3a.5.5 0 0 1-1 0v-3zm22 27a.5.5 0 0 1-.5.5h-27a.5.5 0 0 1-.5-.5V13h28v18.5zM32 12H4V6.5a.5.5 0 0 1 .5-.5H9v1.5c0 .827.673 1.5 1.5 1.5S12 8.327 12 7.5V6h12v1.5c0 .827.673 1.5 1.5 1.5S27 8.327 27 7.5V6h4.5a.5.5 0 0 1 .5.5V12z"/><circle fill="#C8C6C4" cx="18" cy="18" r="1"/><circle fill="#C8C6C4" cx="12" cy="18" r="1"/><circle fill="#C8C6C4" cx="24" cy="18" r="1"/><circle fill="#C8C6C4" cx="18" cy="22" r="1"/><circle fill="#C8C6C4" cx="12" cy="22" r="1"/><circle fill="#C8C6C4" cx="24" cy="22" r="1"/><circle fill="#C8C6C4" cx="18" cy="26" r="1"/><circle fill="#C8C6C4" cx="12" cy="26" r="1"/><circle fill="#C8C6C4" cx="24" cy="26" r="1"/></svg>