<svg xmlns="http://www.w3.org/2000/svg" viewBox="0 0 36 36"><g fill="#FFF"><path d="M11.386 33H32.6c.216 0 .4-.17.4-.372V10h-5.6c-.772 0-1.4-.628-1.4-1.4V3H11.4c-.216 0-.4.17-.4.372v29.27c0 .197.173.358.386.358z"/><path d="M32.204 9L27 3.815V8.6c0 .22.18.4.4.4h4.804z"/></g><path opacity=".64" fill="#605E5C" d="M33.613 8.993l-6.595-6.572A1.45 1.45 0 0 0 26 2H11.4c-.772 0-1.4.615-1.4 1.372v29.27c0 .749.622 1.358 1.386 1.358H32.6c.772 0 1.4-.615 1.4-1.372V9.923c0-.346-.14-.686-.387-.93zM27 3.815L32.204 9H27.4a.4.4 0 0 1-.4-.4V3.815zm6 28.813c0 .202-.184.372-.4.372H11.386c-.213 0-.386-.16-.386-.358V3.372c0-.202.184-.372.4-.372H26v5.6c0 .772.628 1.4 1.4 1.4H33v22.628z"/><g fill="#33C481"><path d="M27 23.796h-1.34v-1.307h-.032C25.045 23.497 24.188 24 23.055 24c-.806 0-1.451-.22-1.936-.658-.485-.438-.727-1.027-.727-1.768 0-1.557.92-2.466 2.76-2.728l2.508-.351c0-1.416-.575-2.124-1.723-2.124-1.008 0-1.917.34-2.728 1.021V16.02c.245-.185.664-.363 1.258-.535.593-.171 1.121-.257 1.584-.257 1.965 0 2.949 1.043 2.949 3.128v5.44zm-1.34-4.231l-2.025.286c-.692.098-1.176.263-1.455.494-.277.232-.416.606-.416 1.123 0 .42.15.756.45 1.009.299.253.683.38 1.151.38.665 0 1.213-.234 1.646-.703.433-.468.65-1.053.65-1.756v-.833zM30 22l-1.296 4h-.952l.952-4H30z"/></g><path fill="#107C41" d="M3.5 28h13a1.5 1.5 0 0 0 1.5-1.5v-13a1.5 1.5 0 0 0-1.5-1.5h-13A1.5 1.5 0 0 0 2 13.5v13A1.5 1.5 0 0 0 3.5 28z"/><path fill="#F9F7F7" d="M6 25l2.898-5.013L6.243 15h2.136l1.449 3.186c.133.303.225.529.275.677h.02c.095-.242.194-.476.299-.705L11.97 15h1.96l-2.723 4.959L14 25h-2.086l-1.674-3.5a3.108 3.108 0 0 1-.2-.469h-.025c-.03.112-.093.264-.193.454L8.1 25H6z"/></svg>