<svg xmlns="http://www.w3.org/2000/svg" viewBox="0 0 36 36"><path fill="#FFB900" d="M17 9l-2.121-2.121A3 3 0 0 0 12.757 6H4a2 2 0 0 0-2 2v20a2 2 0 0 0 2 2h28a2 2 0 0 0 2-2V11a2 2 0 0 0-2-2H17z"/><path fill="#FFD75E" d="M17 9l-2.121 2.121a3 3 0 0 1-2.122.879H2v16a2 2 0 0 0 2 2h28a2 2 0 0 0 2-2V11a2 2 0 0 0-2-2H17z"/><linearGradient id="a" gradientUnits="userSpaceOnUse" x1="18" y1="9" x2="18" y2="30"><stop offset="0" stop-color="#fff" stop-opacity="0"/><stop offset=".999" stop-color="#ffd75e" stop-opacity=".3"/></linearGradient><path fill="url(#a)" d="M17 9l-2.121 2.121a3 3 0 0 1-2.122.879H2v16a2 2 0 0 0 2 2h28a2 2 0 0 0 2-2V11a2 2 0 0 0-2-2H17z"/><path opacity=".4" fill="#FFF" d="M14.879 11.121a3 3 0 0 1-2.122.879H2v1h11.05a3.5 3.5 0 0 0 2.475-1.025L18.5 9H17l-2.121 2.121z"/><path fill="#E67628" d="M4 30h28a2 2 0 0 0 1.918-1.43c-.35.277-.784.43-1.233.43H3.315a1.98 1.98 0 0 1-1.233-.43A2 2 0 0 0 4 30z"/><g><path fill="#BF5712" d="M26 25h1v1h-1zM25 26h3v.927h-3zM30.217 19.75v4.5h-7.418v-4.5h7.418m.741-.75h-8.9v6h8.9v-6z"/></g></svg>