<svg xmlns="http://www.w3.org/2000/svg" viewBox="0 0 36 36"><g fill="#FFF"><path d="M7.386 33H28.6c.216 0 .4-.17.4-.372V10h-5.6c-.772 0-1.4-.628-1.4-1.4V3H7.4c-.216 0-.4.17-.4.372v29.27c0 .197.173.358.386.358z"/><path d="M28.204 9L23 3.815V8.6c0 .22.18.4.4.4h4.804z"/></g><path opacity=".64" fill="#605E5C" d="M29.613 8.993l-6.595-6.572A1.45 1.45 0 0 0 22 2H7.4C6.628 2 6 2.615 6 3.372v29.27C6 33.39 6.622 34 7.386 34H28.6c.772 0 1.4-.615 1.4-1.372V9.923c0-.346-.14-.686-.387-.93zM23 3.815L28.204 9H23.4a.4.4 0 0 1-.4-.4V3.815zm6 28.813c0 .202-.184.372-.4.372H7.386C7.173 33 7 32.84 7 32.642V3.372C7 3.17 7.184 3 7.4 3H22v5.6c0 .772.628 1.4 1.4 1.4H29v22.628z"/><path fill="#FFF" stroke="#69AFE5" stroke-miterlimit="10" d="M11.561 16.5H6.368a.868.868 0 0 0-.868.868v15.264c0 .477.39.868.868.868h23.27a.862.862 0 0 0 .862-.862V26.4a.888.888 0 0 0-.866-.9l-5.712-.066a.781.781 0 0 1-.462-.158l-11.41-8.62a.842.842 0 0 0-.489-.156z"/><path fill="#C8C6C4" d="M15.5 28h-7a.5.5 0 0 1 0-1h7a.5.5 0 1 1 0 1zM13.5 31h-5a.5.5 0 0 1 0-1h5a.5.5 0 0 1 0 1z"/></svg>