<svg xmlns="http://www.w3.org/2000/svg" viewBox="0 0 36 36"><g fill="#FFF"><path d="M31 30.5c0 .827-.673 1.5-1.5 1.5H13v.607c0 .217.176.393.393.393h19.214a.393.393 0 0 0 .393-.393V5.5h.5v-.572l-3-1.678V6.5h.5v24z"/><path d="M10.5 31h19a.5.5 0 0 0 .5-.5v-24H10v24a.5.5 0 0 0 .5.5z"/></g><path opacity=".64" fill="#605E5C" d="M33 5.5v27.107a.393.393 0 0 1-.393.393H13.393a.393.393 0 0 1-.393-.393V32h16.5c.827 0 1.5-.673 1.5-1.5v-24h-1v24a.5.5 0 0 1-.5.5h-19a.5.5 0 0 1-.5-.5v-24H9v24c0 .827.673 1.5 1.5 1.5H12v.607c0 .768.625 1.393 1.393 1.393h19.214c.768 0 1.393-.625 1.393-1.393V5.5h-1z"/><path fill="#41A5EE" d="M31 2.01c-.017-.001-.032-.01-.048-.01H9.892C9.4 2 9 2.4 9 2.893V6l.5.5h21L31 6V5l.5-.5V3l-.5-.99z"/><path fill="#2B7CD3" d="M9 6h22v1H9zM32.147 4.942L34 6.464V5.048a.892.892 0 0 0-.262-.63L31.584 2.26A.889.889 0 0 0 31 2.01v3.474a.701.701 0 0 1 1.147-.542z"/><path fill="#103F91" d="M26.5 24H20v1h6.5a.5.5 0 0 0 0-1z"/><path fill="#185ABD" d="M26.5 21H20v1h6.5a.5.5 0 0 0 0-1z"/><path fill="#2B7CD3" d="M26.5 18H20v1h6.5a.5.5 0 0 0 0-1z"/><path fill="#41A5EE" d="M26.5 15H20v1h6.5a.5.5 0 0 0 0-1z"/><g><path fill="#185ABD" d="M3.5 28h13a1.5 1.5 0 0 0 1.5-1.5v-13a1.5 1.5 0 0 0-1.5-1.5h-13A1.5 1.5 0 0 0 2 13.5v13A1.5 1.5 0 0 0 3.5 28z"/><path fill="#F9F7F7" d="M7.859 22.55h.026c.01-.134 1.358-6.55 1.358-6.55H10.8s1.378 6.118 1.42 6.538h.02c.018-.29 1.134-6.538 1.134-6.538H14.8l-1.755 8h-1.666s-1.384-6.32-1.395-6.432h-.02C9.95 17.698 8.662 24 8.662 24H6.97L5.2 16h1.452s1.2 6.408 1.207 6.55z"/></g></svg>