<svg xmlns="http://www.w3.org/2000/svg" viewBox="0 0 36 36"><g fill="#FFF"><path d="M4.5 28.101h27a.5.5 0 0 0 .5-.5V8.77L18.385 22.107a.498.498 0 0 1-.7 0L4 8.7v18.901a.5.5 0 0 0 .5.5z"/><path d="M31.422 7.936H4.648L18.035 21.05z"/></g><path opacity=".64" fill="#605E5C" d="M31.5 7h-27A1.5 1.5 0 0 0 3 8.5v19A1.5 1.5 0 0 0 4.5 29h27a1.5 1.5 0 0 0 1.5-1.5v-19A1.5 1.5 0 0 0 31.5 7zm-.078 1L18.035 21.114 4.648 8h26.774zm.078 20h-27a.5.5 0 0 1-.5-.5V8.6l13.685 13.406a.498.498 0 0 0 .7 0L32 8.668V27.5a.5.5 0 0 1-.5.5z"/></svg>