<svg xmlns="http://www.w3.org/2000/svg" viewBox="0 0 36 36"><g fill="#FFF"><path d="M4.5 28.037h27a.5.5 0 0 0 .5-.5V13H4v14.537a.5.5 0 0 0 .5.5zM31.5 8h-27c-.275 0-.5.225-.5.5V12h28V8.5c0-.275-.225-.5-.5-.5z"/></g><circle fill="#C8C6C4" cx="6" cy="10" r="1"/><circle fill="#C8C6C4" cx="9" cy="10" r="1"/><circle fill="#C8C6C4" cx="12" cy="10" r="1"/><path fill="#EDEBE9" d="M12 28H4.5a.5.5 0 0 1-.5-.5V13h8v15z"/><g fill="#C8C6C4"><path d="M9.5 16h-3a.5.5 0 0 1 0-1h3a.5.5 0 0 1 0 1zM9.5 19h-3a.5.5 0 0 1 0-1h3a.5.5 0 0 1 0 1zM9.5 22h-3a.5.5 0 0 1 0-1h3a.5.5 0 0 1 0 1z"/></g><g fill="#C8C6C4"><path d="M20.5 16h-6a.5.5 0 0 1 0-1h6a.5.5 0 0 1 0 1zM20.5 19h-6a.5.5 0 0 1 0-1h6a.5.5 0 0 1 0 1zM20.5 22h-6a.5.5 0 0 1 0-1h6a.5.5 0 0 1 0 1zM20.5 25h-6a.5.5 0 0 1 0-1h6a.5.5 0 0 1 0 1z"/></g><path fill="#69AFE5" d="M29.222 25.938h-5.444c-.43 0-.778-.377-.778-.842v-9.255c0-.464.348-.841.778-.841h5.444c.43 0 .778.377.778.841v9.255c0 .465-.348.841-.778.841z"/><path opacity=".64" fill="#605E5C" d="M31.5 7h-27A1.5 1.5 0 0 0 3 8.5v19A1.5 1.5 0 0 0 4.5 29h27a1.5 1.5 0 0 0 1.5-1.5v-19A1.5 1.5 0 0 0 31.5 7zM4 8.5c0-.275.225-.5.5-.5h27c.275 0 .5.225.5.5V12H4V8.5zM31.5 28h-27a.5.5 0 0 1-.5-.5V13h28v14.5a.5.5 0 0 1-.5.5z"/></svg>