<svg xmlns="http://www.w3.org/2000/svg" viewBox="0 0 36 36"><path fill="#FFB900" d="M17 9l-2.121-2.121A3 3 0 0 0 12.757 6H4a2 2 0 0 0-2 2v20a2 2 0 0 0 2 2h28a2 2 0 0 0 2-2V11a2 2 0 0 0-2-2H17z"/><path fill="#FFD75E" d="M17 9l-2.121 2.121a3 3 0 0 1-2.122.879H2v16a2 2 0 0 0 2 2h28a2 2 0 0 0 2-2V11a2 2 0 0 0-2-2H17z"/><linearGradient id="a" gradientUnits="userSpaceOnUse" x1="18" y1="9" x2="18" y2="30"><stop offset="0" stop-color="#fff" stop-opacity="0"/><stop offset=".999" stop-color="#ffd75e" stop-opacity=".3"/></linearGradient><path fill="url(#a)" d="M17 9l-2.121 2.121a3 3 0 0 1-2.122.879H2v16a2 2 0 0 0 2 2h28a2 2 0 0 0 2-2V11a2 2 0 0 0-2-2H17z"/><path opacity=".4" fill="#FFF" d="M14.879 11.121a3 3 0 0 1-2.122.879H2v1h11.05a3.5 3.5 0 0 0 2.475-1.025L18.5 9H17l-2.121 2.121z"/><path fill="#E67628" d="M4 30h28a2 2 0 0 0 1.918-1.43c-.35.277-.784.43-1.233.43H3.315a1.98 1.98 0 0 1-1.233-.43A2 2 0 0 0 4 30z"/><g><path fill="#BF5712" d="M26.355 23.865v-.695c.243 0 .475-.031.698-.095a1.59 1.59 0 0 0 .587-.304c.169-.138.304-.318.404-.536.101-.22.151-.486.151-.8a1.833 1.833 0 0 0-.452-1.224 1.593 1.593 0 0 0-.487-.374 1.308 1.308 0 0 0-.594-.139H24.21c-.21 0-.409.046-.594.139a1.593 1.593 0 0 0-.487.374 1.83 1.83 0 0 0-.453 1.224c0 .314.05.58.152.8.1.218.235.398.405.536.169.14.364.241.586.304.222.064.455.095.698.095v.695h-.307c-.297 0-.576-.064-.836-.193a2.166 2.166 0 0 1-.68-.521 2.6 2.6 0 0 1-.63-1.717 2.597 2.597 0 0 1 .63-1.717c.193-.219.42-.393.68-.52.26-.13.539-.193.836-.193h2.453c.297 0 .576.064.836.193.26.127.487.301.68.52a2.61 2.61 0 0 1 .63 1.717 2.61 2.61 0 0 1-.63 1.717c-.193.22-.42.393-.68.52-.26.13-.539.194-.836.194h-.306zm3.067-2.862v.707c.243 0 .475.032.697.097a1.502 1.502 0 0 1 .991.856c.102.224.152.495.152.816a1.898 1.898 0 0 1-.453 1.246c-.14.16-.301.287-.486.38a1.288 1.288 0 0 1-.594.142h-2.453c-.211 0-.41-.047-.595-.141a1.597 1.597 0 0 1-.486-.38 1.896 1.896 0 0 1-.453-1.247c0-.32.05-.592.152-.816a1.502 1.502 0 0 1 .99-.856c.223-.065.455-.097.698-.097v-.707h-.306c-.297 0-.576.065-.836.196a2.17 2.17 0 0 0-.68.53 2.692 2.692 0 0 0-.63 1.749 2.69 2.69 0 0 0 .63 1.75c.192.223.419.4.68.53.26.131.539.196.836.196h2.453c.297 0 .575-.065.836-.196.26-.13.487-.307.68-.53a2.56 2.56 0 0 0 .46-.785c.113-.3.17-.622.17-.964s-.057-.665-.17-.965a2.557 2.557 0 0 0-.46-.784 2.18 2.18 0 0 0-.68-.53 1.828 1.828 0 0 0-.836-.197h-.307z"/></g></svg>