<svg xmlns="http://www.w3.org/2000/svg" viewBox="0 0 36 36"><g fill="#FFF"><path d="M4.5 28.037h27a.5.5 0 0 0 .5-.5V13H4v14.537a.5.5 0 0 0 .5.5zM31.5 8h-27c-.275 0-.5.225-.5.5V12h28V8.5c0-.275-.225-.5-.5-.5z"/></g><path opacity=".64" fill="#605E5C" d="M31.5 7h-27A1.5 1.5 0 0 0 3 8.5v19A1.5 1.5 0 0 0 4.5 29h27a1.5 1.5 0 0 0 1.5-1.5v-19A1.5 1.5 0 0 0 31.5 7zM4 8.5c0-.275.225-.5.5-.5h27c.275 0 .5.225.5.5V12H4V8.5zM31.5 28h-27a.5.5 0 0 1-.5-.5V13h28v14.5a.5.5 0 0 1-.5.5z"/><circle fill="#C8C6C4" cx="6" cy="10" r="1"/><circle fill="#C8C6C4" cx="9" cy="10" r="1"/><circle fill="#C8C6C4" cx="12" cy="10" r="1"/><g fill="none" stroke="#69AFE5" stroke-miterlimit="10"><ellipse cx="18.017" cy="20.561" rx="4.591" ry="4.873"/><ellipse cx="17.974" cy="20.561" rx="1.579" ry="4.873"/><path d="M13.788 19.479h8.69M13.788 22.534h8.69"/></g></svg>