<svg xmlns="http://www.w3.org/2000/svg" viewBox="0 0 36 36"><g fill="#FFF"><path d="M7.386 33H28.6c.216 0 .4-.17.4-.372V10h-5.6c-.772 0-1.4-.628-1.4-1.4V3H7.4c-.216 0-.4.17-.4.372v29.27c0 .197.173.358.386.358z"/><path d="M28.204 9L23 3.815V8.6c0 .22.18.4.4.4h4.804z"/></g><path opacity=".64" fill="#605E5C" d="M29.613 8.993l-6.595-6.572A1.45 1.45 0 0 0 22 2H7.4C6.628 2 6 2.615 6 3.372v29.27C6 33.39 6.622 34 7.386 34H28.6c.772 0 1.4-.615 1.4-1.372V9.923c0-.346-.14-.686-.387-.93zM23 3.815L28.204 9H23.4a.4.4 0 0 1-.4-.4V3.815zm6 28.813c0 .202-.184.372-.4.372H7.386C7.173 33 7 32.84 7 32.642V3.372C7 3.17 7.184 3 7.4 3H22v5.6c0 .772.628 1.4 1.4 1.4H29v22.628z"/><path fill="none" stroke="#69AFE5" stroke-linecap="round" stroke-linejoin="round" stroke-miterlimit="10" d="M17.537 28l-6.004-3.73V17.74l6.004 3.73z"/><path fill="none" stroke="#69AFE5" stroke-linecap="round" stroke-linejoin="round" stroke-miterlimit="10" d="M17.537 28l6.889-3.73V17.74l-6.89 3.73z"/><path fill="none" stroke="#69AFE5" stroke-linecap="round" stroke-linejoin="round" stroke-miterlimit="10" d="M24.426 17.741L17.855 14l-6.322 3.741"/></svg>