<svg xmlns="http://www.w3.org/2000/svg" viewBox="0 0 36 36"><g fill="#FFF"><path d="M11.386 33H32.6c.216 0 .4-.17.4-.372V10h-5.6c-.772 0-1.4-.628-1.4-1.4V3H11.4c-.216 0-.4.17-.4.372v29.27c0 .197.173.358.386.358z"/><path d="M32.204 9L27 3.815V8.6c0 .22.18.4.4.4h4.804z"/></g><path opacity=".64" fill="#605E5C" d="M33.613 8.993l-6.595-6.572A1.45 1.45 0 0 0 26 2H11.4c-.772 0-1.4.615-1.4 1.372v29.27c0 .749.622 1.358 1.386 1.358H32.6c.772 0 1.4-.615 1.4-1.372V9.923c0-.346-.14-.686-.387-.93zM27 3.815L32.204 9H27.4a.4.4 0 0 1-.4-.4V3.815zm6 28.813c0 .202-.184.372-.4.372H11.386c-.213 0-.386-.16-.386-.358V3.372c0-.202.184-.372.4-.372H26v5.6c0 .772.628 1.4 1.4 1.4H33v22.628z"/><path fill="none" stroke="#C8C6C4" stroke-miterlimit="10" d="M28.5 29.5h-13a1 1 0 0 1-1-1v-14h14a1 1 0 0 1 1 1v13a1 1 0 0 1-1 1z"/><path fill="#8BBF8A" d="M25.5 27h-11a.5.5 0 0 1-.5-.5v-1a.5.5 0 0 1 .5-.5h11a.5.5 0 0 1 .5.5v1a.5.5 0 0 1-.5.5zM24.5 19h-11a.5.5 0 0 1-.5-.5v-1a.5.5 0 0 1 .5-.5h11a.5.5 0 0 1 .5.5v1a.5.5 0 0 1-.5.5zM29 23h-7.5a.5.5 0 0 1-.5-.5v-1a.5.5 0 0 1 .5-.5H29v2z"/><path fill="#31752F" d="M3.5 28h13a1.5 1.5 0 0 0 1.5-1.5v-13a1.5 1.5 0 0 0-1.5-1.5h-13A1.5 1.5 0 0 0 2 13.5v13A1.5 1.5 0 0 0 3.5 28z"/><path fill="#FFF" d="M10.727 15c1.086 0 1.92.261 2.497.785.578.523.866 1.28.866 2.271 0 .637-.143 1.203-.428 1.7a2.95 2.95 0 0 1-1.219 1.155c-.527.276-1.137.413-1.832.413H8.88v3.46H7.102V15h3.625zm-1.848 4.83h1.53c.597 0 1.047-.144 1.352-.433.304-.289.457-.71.457-1.266 0-1.077-.584-1.616-1.752-1.616H8.879v3.315z"/></svg>