<svg xmlns="http://www.w3.org/2000/svg" viewBox="0 0 36 36"><g fill="#FFF"><path d="M31 30.5c0 .827-.673 1.5-1.5 1.5H13v.607c0 .217.176.393.393.393h19.214a.393.393 0 0 0 .393-.393V5.5h.5v-.572l-3-1.678V6.5h.5v24z"/><path d="M10.5 31h19a.5.5 0 0 0 .5-.5v-24H10v24a.5.5 0 0 0 .5.5z"/></g><path opacity=".64" fill="#605E5C" d="M33 5.5v27.107a.393.393 0 0 1-.393.393H13.393a.393.393 0 0 1-.393-.393V32h16.5c.827 0 1.5-.673 1.5-1.5v-24h-1v24a.5.5 0 0 1-.5.5h-19a.5.5 0 0 1-.5-.5v-24H9v24c0 .827.673 1.5 1.5 1.5H12v.607c0 .768.625 1.393 1.393 1.393h19.214c.768 0 1.393-.625 1.393-1.393V5.5h-1z"/><path fill="#31752F" d="M30.952 2H9.892C9.4 2 9 2.4 9 2.893V7h22V5.484a.702.702 0 0 1 1.147-.542L34 6.464V5.048a.893.893 0 0 0-.262-.63l-2.155-2.156A.893.893 0 0 0 30.952 2z"/><path fill="none" stroke="#C8C6C4" stroke-miterlimit="10" d="M25.5 25.5h-11a1 1 0 0 1-1-1v-10h12a1 1 0 0 1 1 1v9a1 1 0 0 1-1 1z"/><path fill="#8BBF8A" d="M22.5 24h-9a.5.5 0 0 1-.5-.5v-1a.5.5 0 0 1 .5-.5h9a.5.5 0 0 1 .5.5v1a.5.5 0 0 1-.5.5zM21.5 18h-9a.5.5 0 0 1-.5-.5v-1a.5.5 0 0 1 .5-.5h9a.5.5 0 0 1 .5.5v1a.5.5 0 0 1-.5.5zM26 21h-6.5a.5.5 0 0 1-.5-.5v-1a.5.5 0 0 1 .5-.5H26v2z"/><path fill="#31752F" d="M3.5 28h13a1.5 1.5 0 0 0 1.5-1.5v-13a1.5 1.5 0 0 0-1.5-1.5h-13A1.5 1.5 0 0 0 2 13.5v13A1.5 1.5 0 0 0 3.5 28z"/><path fill="#FFF" d="M10.727 15c1.086 0 1.92.261 2.497.785.578.523.866 1.28.866 2.271 0 .637-.143 1.203-.428 1.7a2.95 2.95 0 0 1-1.219 1.155c-.527.276-1.137.413-1.832.413H8.88v3.46H7.102V15h3.625zm-1.848 4.83h1.53c.597 0 1.047-.144 1.352-.433.304-.289.457-.71.457-1.266 0-1.077-.584-1.616-1.752-1.616H8.879v3.315z"/></svg>