<svg xmlns="http://www.w3.org/2000/svg" viewBox="0 0 36 36"><path fill="#FFF" d="M26.643 33a.357.357 0 0 0 .357-.357L27.003 31H10.355A1.36 1.36 0 0 1 9 29.638V5.978l-1.59-.003h-.002c-.209 0-.408.173-.408.357v26.27c0 .209.17.398.356.398h19.287z"/><path fill="#FFF" d="M28.643 30a.379.379 0 0 0 .262-.096.299.299 0 0 0 .095-.224V10h-5.745A1.264 1.264 0 0 1 22 8.732V3H10.41c-.111 0-.22.04-.3.112a.297.297 0 0 0-.11.221v26.306c0 .2.16.36.356.361h18.286z"/><path fill="#FFF" d="M28.318 9.002l-5.32-5.346v5.076c0 .144.12.27.258.27h5.062z"/><path opacity=".64" fill="#605E5C" d="M29.644 8.916L23.16 2.4a1.373 1.373 0 0 0-.962-.4H10.411h-.003c-.355 0-.697.129-.962.363A1.286 1.286 0 0 0 9 3.332V5H7.41C6.645 5 6.001 5.595 6 6.331v26.27C5.998 33.359 6.62 34 7.356 34h19.288c.36 0 .7-.14.957-.396a1.35 1.35 0 0 0 .399-.96V31h.643c.358 0 .694-.13.947-.367.264-.247.409-.585.41-.952V9.78c0-.326-.126-.632-.356-.865zm-6.645-5.26l5.319 5.346h-5.062c-.138 0-.258-.127-.258-.27V3.656zM27 32.643a.357.357 0 0 1-.357.357H7.356C7.17 33 7 32.81 7 32.603V6.332c0-.184.2-.357.408-.357h.001L9 5.978v23.66A1.36 1.36 0 0 0 10.355 31h16.648L27 32.643zm2-2.963a.299.299 0 0 1-.095.224.379.379 0 0 1-.262.096H10.356a.359.359 0 0 1-.356-.36V3.332c0-.103.06-.177.11-.22a.455.455 0 0 1 .3-.113H22v5.732C22 9.43 22.563 10 23.255 10H29v19.68z"/></svg>