<svg xmlns="http://www.w3.org/2000/svg" viewBox="0 0 36 36"><path opacity=".64" fill="#605E5C" d="M32.574 31H9.426C8.64 31 8 30.389 8 29.638V6.362C8 5.612 8.64 5 9.426 5h23.148C33.36 5 34 5.611 34 6.362v23.276c0 .75-.64 1.362-1.426 1.362zM9.426 6C9.19 6 9 6.162 9 6.362v23.276c0 .2.191.362.426.362h23.148c.235 0 .426-.162.426-.362V6.362c0-.2-.191-.362-.426-.362H9.426z"/><path fill="#FFF" d="M9.426 6C9.19 6 9 6.162 9 6.362v23.276c0 .2.191.362.426.362h23.148c.235 0 .426-.162.426-.362V6.362c0-.2-.191-.362-.426-.362H9.426z"/><g fill="#C8C6C4"><circle cx="12" cy="9" r="1"/><circle cx="15" cy="9" r="1"/><circle cx="18" cy="9" r="1"/></g><path fill="#C8C6C4" d="M29.517 23H11.17c-.266 0-.482.224-.482.5s.216.5.482.5h18.347c.267 0 .483-.224.483-.5s-.216-.5-.483-.5zM29.517 26H11.17c-.266 0-.482.224-.482.5s.216.5.482.5h18.347c.267 0 .483-.224.483-.5s-.216-.5-.483-.5z"/><g fill="none" stroke="#C8C6C4" stroke-miterlimit="10"><path d="M18.875 18.125L21.5 15.5M24.271 15.787L26.748 18M19.125 17.71A1.712 1.712 0 1 1 18 17.288c.43 0 .824.16 1.125.422"/><circle cx="28.015" cy="19" r="1.712"/><circle cx="23.006" cy="14.979" r="1.833"/></g><path fill="#F2C80F" d="M3.5 28h13a1.5 1.5 0 0 0 1.5-1.5v-13a1.5 1.5 0 0 0-1.5-1.5h-13A1.5 1.5 0 0 0 2 13.5v13A1.5 1.5 0 0 0 3.5 28z"/><path fill="#333" d="M14.5 15a.5.5 0 0 0-.5.5v9a.5.5 0 0 0 1 0v-9a.5.5 0 0 0-.5-.5zM11.5 19a.5.5 0 0 0-.5.5v5a.5.5 0 0 0 1 0v-5a.5.5 0 0 0-.5-.5zM8.5 17a.5.5 0 0 0-.5.5v7a.5.5 0 0 0 1 0v-7a.5.5 0 0 0-.5-.5zM5.5 21a.5.5 0 0 1 .5.5v3a.5.5 0 0 1-1 0v-3a.5.5 0 0 1 .5-.5z"/></svg>