<svg xmlns="http://www.w3.org/2000/svg" viewBox="0 0 36 36"><path fill="#FFF" d="M7.386 33H28.6c.216 0 .4-.17.4-.372V10h-5.6c-.772 0-1.4-.628-1.4-1.4V3H7.4c-.216 0-.4.17-.4.372v29.27c0 .197.173.358.386.358z"/><path fill="#FFF" d="M28.204 9L23 3.815V8.6c0 .22.18.4.4.4h4.804z"/><path opacity=".64" fill="#605E5C" d="M29.613 8.993l-6.595-6.572A1.45 1.45 0 0 0 22 2H7.4C6.628 2 6 2.615 6 3.372v29.27C6 33.39 6.622 34 7.386 34H28.6c.772 0 1.4-.615 1.4-1.372V9.923c0-.346-.14-.686-.387-.93zM23 3.815L28.204 9H23.4a.4.4 0 0 1-.4-.4V3.815zm6 28.813c0 .202-.184.372-.4.372H7.386C7.173 33 7 32.84 7 32.642V3.372C7 3.17 7.184 3 7.4 3H22v5.6c0 .772.628 1.4 1.4 1.4H29v22.628z"/><path fill="#C8C6C4" d="M25.5 16h-15a.5.5 0 1 0 0 1h15a.5.5 0 1 0 0-1zM25.5 18h-15a.5.5 0 1 0 0 1h15a.5.5 0 1 0 0-1zM25.5 14h-15a.5.5 0 1 0 0 1h15a.5.5 0 1 0 0-1z"/><path fill="#D65532" d="M20.82 23.599c.928 0 1.68.752 1.68 1.68v2.463a1.68 1.68 0 0 1-1.68 1.68h-5.412a1.68 1.68 0 0 1-1.68-1.68v-2.464c0-.927.753-1.68 1.68-1.68h5.412m0-1.5h-5.412a3.183 3.183 0 0 0-3.18 3.18v2.464a3.183 3.183 0 0 0 3.18 3.18h5.412a3.183 3.183 0 0 0 3.18-3.18v-2.464a3.183 3.183 0 0 0-3.18-3.18zM30 23h-4.75a.25.25 0 0 0-.25.25v6.5c0 .138.112.25.25.25H30a1 1 0 0 0 1-1v-5a1 1 0 0 0-1-1zM6 23h4.75a.25.25 0 0 1 .25.25v6.5a.25.25 0 0 1-.25.25H6a1 1 0 0 1-1-1v-5a1 1 0 0 1 1-1z"/></svg>