<svg xmlns="http://www.w3.org/2000/svg" viewBox="0 0 36 36"><path fill="#FFF" d="M31.492 8.028C29.162 8.765 24.31 10 18 10 11.044 10 5.541 8.36 4.509 8.031a.423.423 0 0 0-.383.057.287.287 0 0 0-.126.227v19.38c0 .119.08.194.126.228a.43.43 0 0 0 .383.058C5.547 27.65 11.083 26 18.05 26c6.241 0 11.1 1.242 13.441 1.982.134.04.276.02.383-.058a.285.285 0 0 0 .125-.227V8.313a.285.285 0 0 0-.125-.227.427.427 0 0 0-.383-.058z"/><path fill="#A6CCC3" d="M32 25.13l-6.365-5.827a2.03 2.03 0 0 0-2.698-.051l-3.064 2.626a2.19 2.19 0 0 1-2.893-.042l-6.388-5.808a2.027 2.027 0 0 0-2.801.066L4 19.777v-1.395l3.089-3a3.025 3.025 0 0 1 4.175-.094l6.388 5.808a1.187 1.187 0 0 0 1.57.023l3.064-2.626a3.03 3.03 0 0 1 4.026.074L32 23.774v1.356z"/><path opacity=".64" fill="none" stroke="#605E5C" stroke-miterlimit="10" d="M3.5 8.316v19.38c0 .551.59.942 1.16.76 2.154-.684 7.307-1.956 13.391-1.956 6.308 0 11.126 1.274 13.29 1.959.57.18 1.159-.21 1.159-.762V8.313c0-.55-.589-.941-1.158-.762C29.175 8.236 24.364 9.5 18 9.5c-6.028 0-11.189-1.26-13.34-1.946-.57-.181-1.16.21-1.16.761z"/><path fill="#FF9810" d="M26.493 12.5a.984.984 0 1 1 0 1.969.984.984 0 0 1 0-1.969m0-.7c-.928 0-1.684.756-1.684 1.684s.756 1.685 1.684 1.685 1.685-.756 1.685-1.685-.756-1.684-1.685-1.684z"/></svg>