<svg xmlns="http://www.w3.org/2000/svg" viewBox="0 0 36 36"><g fill="#FFF"><path d="M31 30.5c0 .827-.673 1.5-1.5 1.5H13v.607c0 .217.176.393.393.393h19.214a.393.393 0 0 0 .393-.393V5.5h.5v-.572l-3-1.678V6.5h.5v24z"/><path d="M10.5 31h19a.5.5 0 0 0 .5-.5v-24H10v24a.5.5 0 0 0 .5.5z"/></g><path opacity=".64" fill="#605E5C" d="M33 6v26.607a.393.393 0 0 1-.393.393H13.393a.393.393 0 0 1-.393-.393V32h16.5c.827 0 1.5-.673 1.5-1.5v-24h-1v24a.5.5 0 0 1-.5.5h-19a.5.5 0 0 1-.5-.5v-24H9v24c0 .827.673 1.5 1.5 1.5H12v.607c0 .768.625 1.393 1.393 1.393h19.214c.768 0 1.393-.625 1.393-1.393V6h-1z"/><path fill="#FF8F6B" d="M31 2.01c-.017-.001-.032-.01-.048-.01H9.892C9.4 2 9 2.4 9 2.893V6l.5.5h21L31 6V5l.5-.5V3l-.5-.99z"/><path fill="#ED6C47" d="M9 6h22v1H9zM32.147 4.942L34 6.464V5.048a.892.892 0 0 0-.262-.63L31.584 2.26A.889.889 0 0 0 31 2.01v3.474a.701.701 0 0 1 1.147-.542zM22 20l-1-1-1 1v4.578A4.971 4.971 0 0 0 22 25a5 5 0 0 0 5-5h-5z"/><path fill="#FF8F6B" d="M20 15.422V20h2v-5c-.712 0-1.387.154-2 .422z"/><path fill="#FFC7B5" d="M23 14a5 5 0 0 1 5 5h-5v-5z"/><g><path fill="#C43E1C" d="M3.5 28h13a1.5 1.5 0 0 0 1.5-1.5v-13a1.5 1.5 0 0 0-1.5-1.5h-13A1.5 1.5 0 0 0 2 13.5v13A1.5 1.5 0 0 0 3.5 28z"/><path fill="#FFF" d="M10.727 15c1.086 0 1.92.261 2.497.785.578.523.866 1.28.866 2.271 0 .637-.143 1.203-.428 1.7a2.95 2.95 0 0 1-1.219 1.155c-.527.276-1.137.413-1.832.413H8.88v3.46H7.102V15h3.625zm-1.848 4.83h1.53c.597 0 1.047-.144 1.352-.433.304-.289.457-.71.457-1.266 0-1.077-.584-1.616-1.752-1.616H8.879v3.315z"/></g></svg>