<svg xmlns="http://www.w3.org/2000/svg" viewBox="0 0 36 36"><g fill="#FFF"><path d="M11.386 33H32.6c.216 0 .4-.17.4-.372V10h-5.6c-.772 0-1.4-.628-1.4-1.4V3H11.4c-.216 0-.4.17-.4.372v29.27c0 .197.173.358.386.358z"/><path d="M32.204 9L27 3.815V8.6c0 .22.18.4.4.4h4.804z"/></g><path opacity=".64" fill="#605E5C" d="M33.613 8.993l-6.595-6.572A1.45 1.45 0 0 0 26 2H11.4c-.772 0-1.4.615-1.4 1.372v29.27c0 .749.622 1.358 1.386 1.358H32.6c.772 0 1.4-.615 1.4-1.372V9.923c0-.346-.14-.686-.387-.93zM27 3.815L32.204 9H27.4a.4.4 0 0 1-.4-.4V3.815zm6 28.813c0 .202-.184.372-.4.372H11.386c-.213 0-.386-.16-.386-.358V3.372c0-.202.184-.372.4-.372H26v5.6c0 .772.628 1.4 1.4 1.4H33v22.628z"/><path fill="none" stroke="#C8C6C4" stroke-miterlimit="10" d="M17.214 19.861l3.724-3.149M23.717 16.895l2.64 2.966"/><circle fill="none" stroke="#C8C6C4" stroke-miterlimit="10" cx="27.5" cy="21.5" r="2"/><circle fill="none" stroke="#C8C6C4" stroke-miterlimit="10" cx="22.5" cy="15.5" r="2"/><path fill="#C8C6C4" d="M29.5 26h-15a.5.5 0 1 0 0 1h15a.5.5 0 1 0 0-1zM29.5 29h-15a.5.5 0 1 0 0 1h15a.5.5 0 1 0 0-1z"/><path fill="#F2C80F" d="M3.5 28h13a1.5 1.5 0 0 0 1.5-1.5v-13a1.5 1.5 0 0 0-1.5-1.5h-13A1.5 1.5 0 0 0 2 13.5v13A1.5 1.5 0 0 0 3.5 28z"/><path fill="#333" d="M14.5 15a.5.5 0 0 0-.5.5v9a.5.5 0 0 0 1 0v-9a.5.5 0 0 0-.5-.5zM11.5 19a.5.5 0 0 0-.5.5v5a.5.5 0 0 0 1 0v-5a.5.5 0 0 0-.5-.5zM8.5 17a.5.5 0 0 0-.5.5v7a.5.5 0 0 0 1 0v-7a.5.5 0 0 0-.5-.5zM5.5 21a.5.5 0 0 1 .5.5v3a.5.5 0 0 1-1 0v-3a.5.5 0 0 1 .5-.5z"/></svg>