<svg xmlns="http://www.w3.org/2000/svg" viewBox="0 0 36 36"><g fill="#FFF"><path d="M7.386 33H28.6c.216 0 .4-.17.4-.372V10h-5.6c-.772 0-1.4-.628-1.4-1.4V3H7.4c-.216 0-.4.17-.4.372v29.27c0 .197.173.358.386.358z"/><path d="M28.204 9L23 3.815V8.6c0 .22.18.4.4.4h4.804z"/></g><path opacity=".64" fill="#605E5C" d="M29.613 8.993l-6.595-6.572A1.45 1.45 0 0 0 22 2H7.4C6.628 2 6 2.615 6 3.372v29.27C6 33.39 6.622 34 7.386 34H28.6c.772 0 1.4-.615 1.4-1.372V9.923c0-.346-.14-.686-.387-.93zM23 3.815L28.204 9H23.4a.4.4 0 0 1-.4-.4V3.815zm6 28.813c0 .202-.184.372-.4.372H7.386C7.173 33 7 32.84 7 32.642V3.372C7 3.17 7.184 3 7.4 3H22v5.6c0 .772.628 1.4 1.4 1.4H29v22.628z"/><path fill="none" stroke="#C8C6C4" stroke-linejoin="round" stroke-miterlimit="10" d="M22.707 22.51h-9.414c-.99 0-1.793-.742-1.793-1.657V12.5h13v8.353c0 .915-.803 1.656-1.793 1.656z"/><path fill="none" stroke="#C8C6C4" stroke-linecap="round" stroke-linejoin="round" stroke-miterlimit="10" d="M25.5 12.5h-15M14.5 19.5v-4"/><path fill="none" stroke="#F5BA9D" stroke-linecap="round" stroke-linejoin="round" stroke-miterlimit="10" d="M16.5 19.5v-3"/><path fill="none" stroke="#C8C6C4" stroke-linecap="round" stroke-linejoin="round" stroke-miterlimit="10" d="M19.5 19.5v-2"/><path fill="none" stroke="#F5BA9D" stroke-linecap="round" stroke-linejoin="round" stroke-miterlimit="10" d="M21.5 19.5v-2"/><path fill="#C8C6C4" d="M17 23h2v1h-2z"/><path fill="#C8C6C4" d="M20.578 25h-5.097a.414.414 0 0 1-.413-.414v-.172c0-.229.185-.414.413-.414h5.097c.229 0 .414.185.414.414v.172a.414.414 0 0 1-.414.414z"/><path fill="none" stroke="#D04727" stroke-linecap="round" stroke-linejoin="round" stroke-miterlimit="10" d="M11.524 29.609V25.64M10.244 26.764l1.28-1.233 1.33 1.233"/></svg>