<svg xmlns="http://www.w3.org/2000/svg" viewBox="0 0 36 36"><g fill="#FFF"><path d="M7.386 33H28.6c.216 0 .4-.17.4-.372V10h-5.6c-.772 0-1.4-.628-1.4-1.4V3H7.4c-.216 0-.4.17-.4.372v29.27c0 .197.173.358.386.358z"/><path d="M28.204 9L23 3.815V8.6c0 .22.18.4.4.4h4.804z"/></g><path opacity=".64" fill="#605E5C" d="M29.613 8.993l-6.595-6.572A1.45 1.45 0 0 0 22 2H7.4C6.628 2 6 2.615 6 3.372v29.27C6 33.39 6.622 34 7.386 34H28.6c.772 0 1.4-.615 1.4-1.372V9.923c0-.346-.14-.686-.387-.93zM23 3.815L28.204 9H23.4a.4.4 0 0 1-.4-.4V3.815zm6 28.813c0 .202-.184.372-.4.372H7.386C7.173 33 7 32.84 7 32.642V3.372C7 3.17 7.184 3 7.4 3H22v5.6c0 .772.628 1.4 1.4 1.4H29v22.628z"/><path fill="#69AFE5" d="M26.5 15h-8.969a.5.5 0 0 1 0-1H26.5a.5.5 0 0 1 0 1zM26.5 18h-8.969a.5.5 0 0 1 0-1H26.5a.5.5 0 0 1 0 1z"/><path fill="#0078D7" d="M26.5 21h-17a.5.5 0 0 1 0-1h17a.5.5 0 0 1 0 1z"/><path fill="#C8C6C4" d="M17.5 24h-8a.5.5 0 0 1 0-1h8a.5.5 0 0 1 0 1zM17.5 27h-8a.5.5 0 0 1 0-1h8a.5.5 0 0 1 0 1zM17.5 30h-8a.5.5 0 0 1 0-1h8a.5.5 0 0 1 0 1z"/><path fill="#69AFE5" d="M26 30h-5a1 1 0 0 1-1-1v-5a1 1 0 0 1 1-1h5a1 1 0 0 1 1 1v5a1 1 0 0 1-1 1z"/><path fill="#0078D7" d="M15.972 18H14.46l-.601-1.569h-2.751L10.54 18H9.066l2.68-6.906h1.47L15.972 18zm-2.559-2.732l-.948-2.563-.93 2.563h1.878z"/></svg>