<svg xmlns="http://www.w3.org/2000/svg" viewBox="0 0 36 36"><path fill="#FFB900" d="M17 9l-2.121-2.121A3 3 0 0 0 12.757 6H4a2 2 0 0 0-2 2v20a2 2 0 0 0 2 2h28a2 2 0 0 0 2-2V11a2 2 0 0 0-2-2H17z"/><path fill="#FFD75E" d="M17 9l-2.121 2.121a3 3 0 0 1-2.122.879H2v16a2 2 0 0 0 2 2h28a2 2 0 0 0 2-2V11a2 2 0 0 0-2-2H17z"/><linearGradient id="a" gradientUnits="userSpaceOnUse" x1="18" y1="9" x2="18" y2="30"><stop offset="0" stop-color="#fff" stop-opacity="0"/><stop offset=".999" stop-color="#ffd75e" stop-opacity=".3"/></linearGradient><path fill="url(#a)" d="M17 9l-2.121 2.121a3 3 0 0 1-2.122.879H2v16a2 2 0 0 0 2 2h28a2 2 0 0 0 2-2V11a2 2 0 0 0-2-2H17z"/><path opacity=".4" fill="#FFF" d="M14.879 11.121a3 3 0 0 1-2.122.879H2v1h11.05a3.5 3.5 0 0 0 2.475-1.025L18.5 9H17l-2.121 2.121z"/><path fill="#E67628" d="M4 30h28a2 2 0 0 0 1.918-1.43c-.35.277-.784.43-1.233.43H3.315a1.98 1.98 0 0 1-1.233-.43A2 2 0 0 0 4 30z"/><g><path fill="#BF5712" d="M30.492 21.207a2.447 2.447 0 0 1 1.247 1.5c.064.214.094.437.094.667h-.604c0-.249-.047-.484-.144-.704a1.88 1.88 0 0 0-.39-.576 1.859 1.859 0 0 0-.576-.39 1.739 1.739 0 0 0-.703-.143c-.248 0-.484.048-.704.144s-.413.226-.576.39a1.88 1.88 0 0 0-.389.575c-.097.22-.144.455-.144.704 0 .286-.066.559-.196.817-.13.257-.312.472-.54.642a2.447 2.447 0 0 1 1.247 1.5c.063.214.093.437.093.667h-.604c0-.249-.047-.484-.144-.704a1.88 1.88 0 0 0-.39-.576 1.859 1.859 0 0 0-.576-.39c-.22-.095-.455-.143-.703-.143s-.484.048-.704.144c-.22.096-.413.226-.576.39a1.88 1.88 0 0 0-.389.575c-.097.22-.144.455-.144.704h-.604c0-.23.03-.453.094-.668a2.445 2.445 0 0 1 1.247-1.5 1.797 1.797 0 0 1-.541-.641 1.796 1.796 0 0 1-.052-1.52 1.88 1.88 0 0 1 .39-.577c.162-.163.356-.293.575-.39.22-.095.456-.143.704-.143.286 0 .56.065.817.196s.472.31.642.54a2.466 2.466 0 0 1 1.09-1.09 1.797 1.797 0 0 1-.54-.643 1.796 1.796 0 0 1-.052-1.52 1.88 1.88 0 0 1 .39-.576c.162-.163.356-.293.576-.39s.455-.143.703-.143c.248 0 .484.047.704.144.22.096.413.226.576.39.162.163.292.355.39.575a1.796 1.796 0 0 1-.052 1.52c-.13.258-.313.473-.542.643zm-4.702 3.375a1.225 1.225 0 0 0 1.112-.739c.063-.146.096-.302.096-.47a1.222 1.222 0 0 0-1.209-1.209c-.167.001-.323.034-.47.098a1.242 1.242 0 0 0-.641.644 1.172 1.172 0 0 0 0 .938 1.231 1.231 0 0 0 .642.642c.146.064.302.096.47.096zm2.417-4.834c0 .167.033.323.097.47s.151.273.26.382.236.195.382.26.302.096.47.096a1.225 1.225 0 0 0 1.112-.739 1.172 1.172 0 0 0 0-.937 1.222 1.222 0 0 0-1.112-.741c-.168 0-.324.032-.47.097a1.242 1.242 0 0 0-.642.644 1.17 1.17 0 0 0-.097.468z"/></g></svg>