<svg xmlns="http://www.w3.org/2000/svg" viewBox="0 0 36 36"><path opacity=".64" fill="#605E5C" d="M9.496 31A3.485 3.485 0 0 1 6 27.524V6.503c-.001-.401.115-.78.398-1.063.284-.284.66-.44 1.062-.44H29.5c.827 0 1.5.673 1.5 1.5V15h2.5c.133 0 .26.053.354.146a.503.503 0 0 1 .146.355l-.032 12.012A3.504 3.504 0 0 1 30.47 31H9.496zM7.46 6a.498.498 0 0 0-.5.501l.035 21.021a2.504 2.504 0 0 0 2.501 2.497h.002l20.973-.017a2.503 2.503 0 0 0 2.497-2.492L32.999 16H31v9.5a.5.5 0 1 1-1 0v-19c0-.275-.225-.5-.5-.5H7.46z"/><path fill="#FFF" d="M9.496 30.019h.002l20.973-.017a2.503 2.503 0 0 0 2.497-2.492L32.999 16H31v9.5a.5.5 0 1 1-1 0v-19c0-.275-.225-.5-.5-.5H7.46a.498.498 0 0 0-.5.501l.035 21.021a2.503 2.503 0 0 0 2.501 2.497z"/><path fill="#81C8C3" d="M21 21h6a1 1 0 0 0 1-1v-6a1 1 0 0 0-1-1h-6a1 1 0 0 0-1 1v6a1 1 0 0 0 1 1z"/><path fill="#C8C6C4" d="M27.542 23H10.145c-.252 0-.457.224-.457.5s.205.5.458.5h17.396c.253 0 .458-.224.458-.5s-.205-.5-.458-.5zM27.542 25H10.145c-.252 0-.457.224-.457.5s.205.5.458.5h17.396c.253 0 .458-.224.458-.5s-.205-.5-.458-.5z"/><path fill="#03787C" d="M3.5 28h13a1.5 1.5 0 0 0 1.5-1.5v-13a1.5 1.5 0 0 0-1.5-1.5h-13A1.5 1.5 0 0 0 2 13.5v13A1.5 1.5 0 0 0 3.5 28z"/><path fill="#FFF" d="M7.404 19.825a2.745 2.745 0 0 1-.887-.87c-.206-.335-.309-.732-.309-1.19 0-.612.192-1.125.575-1.54.383-.417.892-.725 1.527-.925.635-.2 1.33-.3 2.087-.3 1.158 0 1.93.118 2.603.356v1.8c-.359-.207-.628-.362-1.098-.47a6.482 6.482 0 0 0-1.454-.162c-.602 0-1.1.097-1.494.294-.396.194-.593.472-.593.832 0 .225.084.422.25.59.168.169.393.318.677.448.283.13.706.304 1.269.52.097.031.157.054.181.067.665.252 1.198.496 1.6.731.402.237.718.532.945.884.228.353.342.797.342 1.332 0 .656-.18 1.191-.538 1.605-.359.413-.839.712-1.44.897S10.363 25 9.597 25a11.65 11.65 0 0 1-1.858-.142c-.585-.094-1.223-.187-1.645-.363v-1.901c.412.283 1.057.466 1.663.633.606.166 1.166.249 1.68.249.674 0 1.181-.1 1.524-.3.34-.2.512-.482.512-.846a.871.871 0 0 0-.288-.648c-.191-.184-.456-.355-.792-.512a26.778 26.778 0 0 0-1.494-.62c-.611-.239-1.109-.48-1.495-.725z"/></svg>