<svg xmlns="http://www.w3.org/2000/svg" viewBox="0 0 36 36"><g fill="#FFF"><path d="M31.621 28.063c.21 0 .379-.155.379-.345V15h-5.606C25.625 15 25 14.364 25 13.582V7.937H4.379c-.21 0-.379.155-.379.346v19.435c0 .19.17.345.379.345H31.62z"/><path d="M26.394 14h5.179L26 8.641v4.94c0 .231.177.419.394.419z"/></g><g fill="#C8C6C4"><path d="M28.5 19h-3a.5.5 0 0 1 0-1h3a.5.5 0 0 1 0 1zM28.5 22h-3a.5.5 0 0 1 0-1h3a.5.5 0 0 1 0 1zM28.5 25h-3a.5.5 0 0 1 0-1h3a.5.5 0 0 1 0 1z"/></g><g fill="#C8C6C4"><path d="M22.5 16h-3a.5.5 0 0 1 0-1h3a.5.5 0 0 1 0 1zM22.5 13h-3a.5.5 0 0 1 0-1h3a.5.5 0 0 1 0 1zM22.5 19h-3a.5.5 0 0 1 0-1h3a.5.5 0 0 1 0 1zM22.5 22h-3a.5.5 0 0 1 0-1h3a.5.5 0 0 1 0 1zM22.5 25h-3a.5.5 0 0 1 0-1h3a.5.5 0 0 1 0 1z"/></g><g fill="#C8C6C4"><path d="M16.5 16h-3a.5.5 0 0 1 0-1h3a.5.5 0 0 1 0 1zM16.5 13h-3a.5.5 0 0 1 0-1h3a.5.5 0 0 1 0 1zM16.5 19h-3a.5.5 0 0 1 0-1h3a.5.5 0 0 1 0 1zM16.5 22h-3a.5.5 0 0 1 0-1h3a.5.5 0 0 1 0 1zM16.5 25h-3a.5.5 0 0 1 0-1h3a.5.5 0 0 1 0 1z"/></g><g fill="#217346"><path d="M10.5 16h-3a.5.5 0 0 1 0-1h3a.5.5 0 0 1 0 1zM10.5 13h-3a.5.5 0 0 1 0-1h3a.5.5 0 0 1 0 1zM10.5 19h-3a.5.5 0 0 1 0-1h3a.5.5 0 0 1 0 1zM10.5 22h-3a.5.5 0 0 1 0-1h3a.5.5 0 0 1 0 1zM10.5 25h-3a.5.5 0 0 1 0-1h3a.5.5 0 0 1 0 1z"/></g><path opacity=".64" fill="#605E5C" d="M33 14.575c0-.362-.148-.709-.41-.96l-6.519-6.232A1.417 1.417 0 0 0 25.1 7H4.379C3.619 7 3 7.6 3 8.337v19.326C3 28.4 3.618 29 4.379 29H31.62c.76 0 1.379-.6 1.379-1.337V14.575zM26 8.64L31.573 14h-5.18c-.216 0-.393-.188-.393-.418v-4.94zm6 19.016c0 .189-.17.343-.379.343H4.38c-.21 0-.379-.154-.379-.343V8.343c0-.19.17-.343.379-.343H25v5.588c0 .779.625 1.412 1.394 1.412H32v12.657z"/></svg>