<svg xmlns="http://www.w3.org/2000/svg" viewBox="0 0 36 36"><path fill="#FFF" d="M5.235 4.824h25.53c.227 0 .411.184.411.411v25.53a.412.412 0 0 1-.411.411H5.235a.412.412 0 0 1-.412-.411V5.235c0-.227.185-.412.412-.412z"/><path opacity=".64" fill="#605E5C" d="M30.765 32H5.235A1.235 1.235 0 0 1 4 30.765V5.235C4 4.553 4.553 4 5.235 4h25.53C31.447 4 32 4.553 32 5.235v25.53c0 .682-.553 1.235-1.235 1.235zM5.235 4.823a.412.412 0 0 0-.412.412v25.53c0 .227.185.411.412.411h25.53a.412.412 0 0 0 .411-.411V5.235a.412.412 0 0 0-.411-.412H5.235z"/><path fill="none" d="M4 4h28v28H4z"/><g fill-rule="evenodd" clip-rule="evenodd"><path fill="#BC1948" d="M14.882 18v5.832a.76.76 0 0 0 1.172.634l9.246-5.95a.616.616 0 0 0 .288-.516H14.882z"/><path fill="#E8467C" d="M14.882 18v-5.832a.76.76 0 0 1 1.172-.634l9.246 5.95c.19.122.286.319.288.516H14.882z"/><path fill="#8C193F" d="M13.05 14.363l4.938 3.28a.43.43 0 0 1 0 .713l-4.939 3.281c-.275.183-.637-.02-.637-.356V14.72c0-.336.362-.539.637-.356"/></g></svg>