<svg xmlns="http://www.w3.org/2000/svg" viewBox="0 0 36 36"><g fill="#FFF"><path d="M7.386 33H28.6c.216 0 .4-.17.4-.372V10h-5.6c-.772 0-1.4-.628-1.4-1.4V3H7.4c-.216 0-.4.17-.4.372v29.27c0 .197.173.358.386.358z"/><path d="M28.204 9L23 3.815V8.6c0 .22.18.4.4.4h4.804z"/></g><path opacity=".64" fill="#605E5C" d="M29.613 8.993l-6.595-6.572A1.45 1.45 0 0 0 22 2H7.4C6.628 2 6 2.615 6 3.372v29.27C6 33.39 6.622 34 7.386 34H28.6c.772 0 1.4-.615 1.4-1.372V9.923c0-.346-.14-.686-.387-.93zM23 3.815L28.204 9H23.4a.4.4 0 0 1-.4-.4V3.815zm6 28.813c0 .202-.184.372-.4.372H7.386C7.173 33 7 32.84 7 32.642V3.372C7 3.17 7.184 3 7.4 3H22v5.6c0 .772.628 1.4 1.4 1.4H29v22.628z"/><circle fill="none" stroke="#B4B0AD" stroke-linecap="round" stroke-linejoin="round" stroke-miterlimit="10" cx="17.991" cy="21.026" r="1.903"/><path fill="none" stroke="#B4B0AD" stroke-linecap="round" stroke-linejoin="bevel" stroke-miterlimit="10" d="M24.086 19.977l-1.356-.113a.095.095 0 0 1-.084-.07 4.814 4.814 0 0 0-.458-1.103.094.094 0 0 1 .01-.109l.88-1.04a.383.383 0 0 0-.022-.518l-1.026-1.026a.383.383 0 0 0-.519-.022l-1.04.88a.094.094 0 0 1-.108.01 4.817 4.817 0 0 0-1.107-.46.086.086 0 0 1-.066-.076l-.114-1.364a.381.381 0 0 0-.382-.35h-1.45c-.2 0-.366.153-.383.352l-.113 1.356a.095.095 0 0 1-.07.083c-.39.108-.761.264-1.106.46a.087.087 0 0 1-.102-.007l-1.045-.885a.381.381 0 0 0-.517.023l-1.026 1.026a.383.383 0 0 0-.022.519l.88 1.04c.026.03.03.073.01.108a4.814 4.814 0 0 0-.459 1.103.095.095 0 0 1-.083.07l-1.356.113a.383.383 0 0 0-.352.382v1.451c0 .2.153.366.351.382l1.356.113c.04.004.073.032.084.07.107.39.263.76.459 1.104a.094.094 0 0 1-.01.108l-.88 1.04a.383.383 0 0 0 .022.519l1.026 1.026c.14.14.366.15.518.021l1.04-.88a.094.094 0 0 1 .108-.01c.345.197.716.353 1.108.46.036.01.063.038.066.076l.113 1.365c.017.199.183.35.382.35h1.451c.2 0 .366-.153.382-.352l.113-1.356a.095.095 0 0 1 .07-.084c.391-.107.762-.263 1.106-.46a.087.087 0 0 1 .103.008l1.045.885a.381.381 0 0 0 .517-.023l1.026-1.026a.383.383 0 0 0 .021-.519l-.88-1.04a.094.094 0 0 1-.01-.108c.197-.344.352-.714.46-1.104a.095.095 0 0 1 .083-.07l1.356-.113a.383.383 0 0 0 .352-.382v-1.45c0-.2-.153-.366-.352-.383z"/></svg>