<svg xmlns="http://www.w3.org/2000/svg" viewBox="0 0 36 36"><linearGradient id="a" gradientUnits="userSpaceOnUse" x1="18" y1="7" x2="18" y2="29"><stop offset="0" stop-color="#c8c6c4"/><stop offset="1" stop-color="#b3b0ad"/></linearGradient><path fill-rule="evenodd" clip-rule="evenodd" fill="url(#a)" d="M32 29H4a2 2 0 0 1-2-2V9a2 2 0 0 1 2-2h28a2 2 0 0 1 2 2v18a2 2 0 0 1-2 2z"/><linearGradient id="b" gradientUnits="userSpaceOnUse" x1="6" y1="30.023" x2="6" y2="28.986"><stop offset=".001" stop-color="#797775"/><stop offset="1" stop-color="#605e5c"/></linearGradient><path fill="url(#b)" d="M4.362 29.724a.5.5 0 0 0 .447.276h2.382a.5.5 0 0 0 .447-.276L8 29H4l.362.724z"/><linearGradient id="c" gradientUnits="userSpaceOnUse" x1="30" y1="30.023" x2="30" y2="28.986"><stop offset=".001" stop-color="#797775"/><stop offset="1" stop-color="#605e5c"/></linearGradient><path fill="url(#c)" d="M28.362 29.724a.5.5 0 0 0 .447.276h2.382a.5.5 0 0 0 .447-.276L32 29h-4l.362.724z"/><linearGradient id="d" gradientUnits="userSpaceOnUse" x1="17" y1="9" x2="17" y2="27"><stop offset=".002" stop-color="#979593"/><stop offset="1" stop-color="#8a8886"/></linearGradient><path fill="url(#d)" d="M29 10v16H5V10h24m0-1H5a1 1 0 0 0-1 1v16a1 1 0 0 0 1 1h24a1 1 0 0 0 1-1V10a1 1 0 0 0-1-1z"/><linearGradient id="e" gradientUnits="userSpaceOnUse" x1="29.5" y1="12" x2="29.5" y2="14"><stop offset=".001" stop-color="#797775"/><stop offset="1" stop-color="#605e5c"/></linearGradient><path fill="url(#e)" d="M31.5 14h-4a.5.5 0 0 1-.5-.5v-1a.5.5 0 0 1 .5-.5h4a.5.5 0 0 1 .5.5v1a.5.5 0 0 1-.5.5z"/><linearGradient id="f" gradientUnits="userSpaceOnUse" x1="29.5" y1="22" x2="29.5" y2="24"><stop offset=".001" stop-color="#797775"/><stop offset="1" stop-color="#605e5c"/></linearGradient><path fill="url(#f)" d="M31.5 24h-4a.5.5 0 0 1-.5-.5v-1a.5.5 0 0 1 .5-.5h4a.5.5 0 0 1 .5.5v1a.5.5 0 0 1-.5.5z"/><linearGradient id="g" gradientUnits="userSpaceOnUse" x1="8.5" y1="13" x2="8.5" y2="23"><stop offset=".001" stop-color="#797775"/><stop offset="1" stop-color="#605e5c"/></linearGradient><path fill="url(#g)" d="M8.5 23a.7.7 0 0 0 .697-.64l.675-7.865a1.377 1.377 0 1 0-2.744 0l.674 7.865A.7.7 0 0 0 8.5 23z"/><linearGradient id="h" gradientUnits="userSpaceOnUse" x1="18" y1="12" x2="18" y2="24"><stop offset=".001" stop-color="#8a8886"/><stop offset="1" stop-color="#797775"/></linearGradient><path fill="url(#h)" d="M18 15c1.654 0 3 1.346 3 3s-1.346 3-3 3-3-1.346-3-3 1.346-3 3-3m0-3a6 6 0 1 0 0 12 6 6 0 0 0 0-12z"/></svg>