<svg xmlns="http://www.w3.org/2000/svg" viewBox="0 0 36 36"><linearGradient id="a" gradientUnits="userSpaceOnUse" x1="18" y1="7" x2="18" y2="29"><stop offset="0" stop-color="#c8c6c4"/><stop offset="1" stop-color="#b3b0ad"/></linearGradient><path fill-rule="evenodd" clip-rule="evenodd" fill="url(#a)" d="M32 29H4a2 2 0 0 1-2-2V9a2 2 0 0 1 2-2h28a2 2 0 0 1 2 2v18a2 2 0 0 1-2 2z"/><linearGradient id="b" gradientUnits="userSpaceOnUse" x1="6" y1="30.023" x2="6" y2="28.986"><stop offset=".001" stop-color="#797775"/><stop offset="1" stop-color="#605e5c"/></linearGradient><path fill="url(#b)" d="M4.362 29.724a.5.5 0 0 0 .447.276h2.382a.5.5 0 0 0 .447-.276L8 29H4l.362.724z"/><linearGradient id="c" gradientUnits="userSpaceOnUse" x1="30" y1="30.023" x2="30" y2="28.986"><stop offset=".001" stop-color="#797775"/><stop offset="1" stop-color="#605e5c"/></linearGradient><path fill="url(#c)" d="M28.362 29.724a.5.5 0 0 0 .447.276h2.382a.5.5 0 0 0 .447-.276L32 29h-4l.362.724z"/><path fill="#797775" d="M4 9h26v18H4z"/><linearGradient id="d" gradientUnits="userSpaceOnUse" x1="4" y1="18" x2="6" y2="18"><stop offset="0" stop-color="#a19f9d"/><stop offset=".999" stop-color="#605e5c" stop-opacity=".3"/></linearGradient><path fill="url(#d)" d="M6 25l-2 2V9l2 2z"/><linearGradient id="e" gradientUnits="userSpaceOnUse" x1="15.5" y1="9" x2="15.5" y2="11"><stop offset="0" stop-color="#a19f9d"/><stop offset=".999" stop-color="#605e5c" stop-opacity=".3"/></linearGradient><path fill="url(#e)" d="M27 11H6L4 9h23z"/><linearGradient id="f" gradientUnits="userSpaceOnUse" x1="15.5" y1="27" x2="15.5" y2="25"><stop offset="0" stop-color="#a19f9d"/><stop offset=".999" stop-color="#605e5c" stop-opacity=".3"/></linearGradient><path fill="url(#f)" d="M27 27H4l2-2h21z"/><linearGradient id="g" gradientUnits="userSpaceOnUse" x1="30.5" y1="13" x2="30.5" y2="23"><stop offset=".001" stop-color="#797775"/><stop offset="1" stop-color="#605e5c"/></linearGradient><path fill="url(#g)" d="M30.2 23H30V13h.2a.8.8 0 0 1 .8.8v8.4a.8.8 0 0 1-.8.8z"/><path fill="#E1DFDD" d="M30 29h-2.2a.8.8 0 0 1-.8-.8V6.8a.8.8 0 0 1 .8-.8H30v23zM27 28h-1.2a.8.8 0 0 1-.8-.8V7.8a.8.8 0 0 1 .8-.8H27v21z"/><linearGradient id="h" gradientUnits="userSpaceOnUse" x1="28.5" y1="6" x2="28.5" y2="29"><stop offset="0" stop-color="#e1dfdd" stop-opacity="0"/><stop offset="1" stop-color="#bebbb8" stop-opacity=".2"/></linearGradient><path fill="url(#h)" d="M30 29h-2.2a.8.8 0 0 1-.8-.8V6.8a.8.8 0 0 1 .8-.8H30v23z"/><linearGradient id="i" gradientUnits="userSpaceOnUse" x1="25" y1="17.5" x2="27" y2="17.5"><stop offset="0" stop-color="#e1dfdd" stop-opacity="0"/><stop offset=".999" stop-color="#c8c6c4" stop-opacity=".8"/></linearGradient><path fill="url(#i)" d="M27 28h-1.2a.8.8 0 0 1-.8-.8V7.8a.8.8 0 0 1 .8-.8H27v21z"/><linearGradient id="j" gradientUnits="userSpaceOnUse" x1="28.5" y1="8" x2="28.5" y2="11"><stop offset=".002" stop-color="#bebbb8"/><stop offset="1" stop-color="#c8c6c4"/></linearGradient><path fill="url(#j)" d="M28.5 11a.5.5 0 0 1-.5-.5v-2a.5.5 0 0 1 1 0v2a.5.5 0 0 1-.5.5z"/><linearGradient id="k" gradientUnits="userSpaceOnUse" x1="28.5" y1="16" x2="28.5" y2="19"><stop offset=".002" stop-color="#bebbb8"/><stop offset="1" stop-color="#c8c6c4"/></linearGradient><path fill="url(#k)" d="M28.5 19a.5.5 0 0 1-.5-.5v-2a.5.5 0 0 1 1 0v2a.5.5 0 0 1-.5.5z"/><linearGradient id="l" gradientUnits="userSpaceOnUse" x1="28.5" y1="24" x2="28.5" y2="27"><stop offset=".002" stop-color="#bebbb8"/><stop offset="1" stop-color="#c8c6c4"/></linearGradient><path fill="url(#l)" d="M28.5 27a.5.5 0 0 1-.5-.5v-2a.5.5 0 0 1 1 0v2a.5.5 0 0 1-.5.5z"/><path fill="#FFF" d="M20.5 26h-10a.5.5 0 0 1-.5-.5v-13a.5.5 0 0 1 .5-.5H17l4 4v9.5a.5.5 0 0 1-.5.5z"/><path fill="#EDEBE9" d="M21 16h-3.5a.5.5 0 0 1-.5-.5V12l4 4z"/></svg>