<svg xmlns="http://www.w3.org/2000/svg" viewBox="0 0 36 36"><g fill="#FFF"><path d="M7.386 33H28.6c.216 0 .4-.17.4-.372V10h-5.6c-.772 0-1.4-.628-1.4-1.4V3H7.4c-.216 0-.4.17-.4.372v29.27c0 .197.173.358.386.358z"/><path d="M28.204 9L23 3.815V8.6c0 .22.18.4.4.4h4.804z"/></g><path opacity=".64" fill="#605E5C" d="M29.613 8.993l-6.595-6.572A1.45 1.45 0 0 0 22 2H7.4C6.628 2 6 2.615 6 3.372v29.27C6 33.39 6.622 34 7.386 34H28.6c.772 0 1.4-.615 1.4-1.372V9.923c0-.346-.14-.686-.387-.93zM23 3.815L28.204 9H23.4a.4.4 0 0 1-.4-.4V3.815zm6 28.813c0 .202-.184.372-.4.372H7.386C7.173 33 7 32.84 7 32.642V3.372C7 3.17 7.184 3 7.4 3H22v5.6c0 .772.628 1.4 1.4 1.4H29v22.628z"/><path fill="none" stroke="#C8C6C4" stroke-linecap="round" stroke-miterlimit="10" d="M10.563 26.2c.13-5.212 3.779-11.7 11.937-11.7"/><path fill="none" stroke="#0078D7" stroke-miterlimit="10" d="M11.5 29.5h-1a1 1 0 0 1-1-1v-1a1 1 0 0 1 1-1h1a1 1 0 0 1 1 1v1a1 1 0 0 1-1 1zM24.5 16.5h-1a1 1 0 0 1-1-1v-1a1 1 0 0 1 1-1h1a1 1 0 0 1 1 1v1a1 1 0 0 1-1 1z"/><circle fill="#0078D7" cx="15" cy="17" r="3.5"/><path fill="#FFF" d="M15 14a3 3 0 1 1 0 6 3 3 0 0 1 0-6m0-1c-2.206 0-4 1.794-4 4s1.794 4 4 4 4-1.794 4-4-1.794-4-4-4z"/><path fill="#0078D7" d="M19.327 23.016l6.516 2.443a.242.242 0 0 1-.026.461l-3.117.78-.78 3.117a.242.242 0 0 1-.46.026l-2.444-6.516a.242.242 0 0 1 .311-.311z"/></svg>