<svg xmlns="http://www.w3.org/2000/svg" viewBox="0 0 36 36"><path fill="#FFF" d="M4.5 32h27c.275 0 .5-.225.5-.5v-27c0-.275-.225-.5-.5-.5h-27c-.275 0-.5.225-.5.5v27c0 .275.225.5.5.5z"/><path opacity=".64" fill="#605E5C" d="M31.5 33h-27c-.827 0-1.5-.673-1.5-1.5v-27C3 3.673 3.673 3 4.5 3h27c.827 0 1.5.673 1.5 1.5v27c0 .827-.673 1.5-1.5 1.5zM4.5 4a.5.5 0 0 0-.5.5v27a.5.5 0 0 0 .5.5h27a.5.5 0 0 0 .5-.5v-27a.5.5 0 0 0-.5-.5h-27z"/><path fill="none" stroke="#C8C6C4" stroke-linecap="round" stroke-linejoin="round" stroke-miterlimit="10" d="M24 18.1L14.5 13v10.2z"/></svg>