<svg xmlns="http://www.w3.org/2000/svg" viewBox="0 0 36 36"><g fill="#FFF"><path d="M11.386 33H32.6c.216 0 .4-.17.4-.372V10h-5.6c-.772 0-1.4-.628-1.4-1.4V3H11.4c-.216 0-.4.17-.4.372v29.27c0 .197.173.358.386.358z"/><path d="M32.204 9L27 3.815V8.6c0 .22.18.4.4.4h4.804z"/></g><path opacity=".64" fill="#605E5C" d="M33.613 8.993l-6.595-6.572A1.45 1.45 0 0 0 26 2H11.4c-.772 0-1.4.615-1.4 1.372v29.27c0 .749.622 1.358 1.386 1.358H32.6c.772 0 1.4-.615 1.4-1.372V9.923c0-.346-.14-.686-.387-.93zM27 3.815L32.204 9H27.4a.4.4 0 0 1-.4-.4V3.815zm6 28.813c0 .202-.184.372-.4.372H11.386c-.213 0-.386-.16-.386-.358V3.372c0-.202.184-.372.4-.372H26v5.6c0 .772.628 1.4 1.4 1.4H33v22.628z"/><path fill="#185ABD" d="M3.5 28h13a1.5 1.5 0 0 0 1.5-1.5v-13a1.5 1.5 0 0 0-1.5-1.5h-13A1.5 1.5 0 0 0 2 13.5v13A1.5 1.5 0 0 0 3.5 28z"/><path fill="#FFF" d="M9.54 21.592c.288.829.458 1.352.51 1.57h.035c.052-.218.236-.778.553-1.681L12.91 15H15l-3.852 9.96H8.91L5.107 15H7.26l2.28 6.592z"/><g><path fill="#185ABD" d="M26.5 24h-3v-1h3a.5.5 0 0 0 .5-.5v-4h1v4a1.5 1.5 0 0 1-1.5 1.5z"/><path fill="#41A5EE" d="M20 21h4v5h-4z"/><path fill="#103F91" d="M24.5 17l3-3 3 3-3 3z"/></g></svg>