<svg xmlns="http://www.w3.org/2000/svg" viewBox="0 0 36 36"><path opacity=".64" fill="#605E5C" d="M32.6 34H11.386C10.622 34 10 33.39 10 32.642V3.372C10 2.616 10.628 2 11.4 2h21.1c.827 0 1.5.673 1.5 1.5v29.128c0 .757-.628 1.372-1.4 1.372zM11.4 3c-.216 0-.4.17-.4.372v29.27c0 .197.173.358.386.358H32.6c.216 0 .4-.17.4-.372V3.5a.5.5 0 0 0-.5-.5H11.4z"/><path fill="#FFF" d="M11.386 33H32.6c.216 0 .4-.17.4-.372V3.5a.5.5 0 0 0-.5-.5H11.4c-.216 0-.4.17-.4.372v29.27c0 .197.173.358.386.358z"/><path fill="#185ABD" d="M3.5 28h13a1.5 1.5 0 0 0 1.5-1.5v-13a1.5 1.5 0 0 0-1.5-1.5h-13A1.5 1.5 0 0 0 2 13.5v13A1.5 1.5 0 0 0 3.5 28z"/><path fill="#FFF" d="M9.54 21.592c.288.829.458 1.352.51 1.57h.035c.052-.218.236-.778.553-1.681L12.91 15H15l-3.852 9.96H8.91L5.107 15H7.26l2.28 6.592z"/><g fill="#C8C6C4"><path opacity=".64" d="M28.5 16h-4c-.827 0-1.5-.673-1.5-1.5v-7c0-.827.673-1.5 1.5-1.5h4c.827 0 1.5.673 1.5 1.5v7c0 .827-.673 1.5-1.5 1.5zm-4-9a.5.5 0 0 0-.5.5v7a.5.5 0 0 0 .5.5h4a.5.5 0 0 0 .5-.5v-7a.5.5 0 0 0-.5-.5h-4zM28.5 30h-4c-.827 0-1.5-.673-1.5-1.5v-7c0-.827.673-1.5 1.5-1.5h4c.827 0 1.5.673 1.5 1.5v7c0 .827-.673 1.5-1.5 1.5zm-4-9a.5.5 0 0 0-.5.5v7a.5.5 0 0 0 .5.5h4a.5.5 0 0 0 .5-.5v-7a.5.5 0 0 0-.5-.5h-4zM20 20.092V28.5a.5.5 0 0 1-.5.5h-.558c-.631.617-1.492 1-2.442 1h3c.827 0 1.5-.673 1.5-1.5v-7c0-.65-.42-1.2-1-1.408zM19.5 6h-4c-.827 0-1.5.673-1.5 1.5V10h1V7.5a.5.5 0 0 1 .5-.5h4a.5.5 0 0 1 .5.5v8.408c.58-.207 1-.757 1-1.408v-7c0-.827-.673-1.5-1.5-1.5z"/></g></svg>