<svg xmlns="http://www.w3.org/2000/svg" viewBox="0 0 36 36"><g fill="#FFF"><path d="M31 30.5c0 .827-.673 1.5-1.5 1.5H13v.607c0 .217.176.393.393.393h19.214a.393.393 0 0 0 .393-.393V5.5h.5v-.572l-3-1.678V6.5h.5v24z"/><path d="M10.5 31h19a.5.5 0 0 0 .5-.5v-24H10v24a.5.5 0 0 0 .5.5z"/></g><path opacity=".64" fill="#605E5C" d="M33 5.5v27.107a.393.393 0 0 1-.393.393H13.393a.393.393 0 0 1-.393-.393V32h16.5c.827 0 1.5-.673 1.5-1.5v-24h-1v24a.5.5 0 0 1-.5.5h-19a.5.5 0 0 1-.5-.5v-24H9v24c0 .827.673 1.5 1.5 1.5H12v.607c0 .768.625 1.393 1.393 1.393h19.214c.768 0 1.393-.625 1.393-1.393V5.5h-1z"/><path fill="#33C481" d="M31 2.01c-.017-.001-.032-.01-.048-.01H9.892C9.4 2 9 2.4 9 2.893V6l.5.5h21L31 6V5l.5-.5V3l-.5-.99z"/><path fill="#21A366" d="M9 6h22v1H9zM32.147 4.942L34 6.464V5.048a.892.892 0 0 0-.262-.63L31.584 2.26A.889.889 0 0 0 31 2.01v3.474a.701.701 0 0 1 1.147-.542z"/><path fill="#134A2C" d="M26 25h-2a1 1 0 1 1 0-2h2a1 1 0 1 1 0 2z"/><path fill="#185C37" d="M21 25h-1v-2h1a1 1 0 1 1 0 2z"/><path fill="#21A366" d="M26 21h-2a1 1 0 1 1 0-2h2a1 1 0 1 1 0 2z"/><path fill="#107C41" d="M21 21h-1v-2h1a1 1 0 1 1 0 2z"/><path fill="#33C481" d="M26 17h-2a1 1 0 1 1 0-2h2a1 1 0 1 1 0 2z"/><path fill="#21A366" d="M21 17h-1v-2h1a1 1 0 1 1 0 2z"/><g><path fill="#107C41" d="M3.5 28h13a1.5 1.5 0 0 0 1.5-1.5v-13a1.5 1.5 0 0 0-1.5-1.5h-13A1.5 1.5 0 0 0 2 13.5v13A1.5 1.5 0 0 0 3.5 28z"/><path fill="#F9F7F7" d="M6 25l2.898-5.013L6.243 15h2.136l1.449 3.186c.133.303.225.529.275.677h.02c.095-.242.194-.476.299-.705L11.97 15h1.96l-2.723 4.959L14 25h-2.086l-1.674-3.5a3.108 3.108 0 0 1-.2-.469h-.025c-.03.112-.093.264-.193.454L8.1 25H6z"/></g></svg>