<svg xmlns="http://www.w3.org/2000/svg" viewBox="0 0 36 36"><g fill="#FFF"><path d="M7.386 33H28.6c.216 0 .4-.17.4-.372V10h-5.6c-.772 0-1.4-.628-1.4-1.4V3H7.4c-.216 0-.4.17-.4.372v29.27c0 .197.173.358.386.358z"/><path d="M28.204 9L23 3.815V8.6c0 .22.18.4.4.4h4.804z"/></g><path opacity=".64" fill="#605E5C" d="M29.613 8.993l-6.595-6.572A1.45 1.45 0 0 0 22 2H7.4C6.628 2 6 2.615 6 3.372v29.27C6 33.39 6.622 34 7.386 34H28.6c.772 0 1.4-.615 1.4-1.372V9.923c0-.346-.14-.686-.387-.93zM23 3.815L28.204 9H23.4a.4.4 0 0 1-.4-.4V3.815zm6 28.813c0 .202-.184.372-.4.372H7.386C7.173 33 7 32.84 7 32.642V3.372C7 3.17 7.184 3 7.4 3H22v5.6c0 .772.628 1.4 1.4 1.4H29v22.628z"/><path fill="none" stroke="#C8C6C4" stroke-linecap="round" stroke-linejoin="round" stroke-miterlimit="10" d="M11.25 16.25L9.5 18l1.75 1.75M24.5 16.25L26.531 18 24.5 19.75"/><circle fill="none" stroke="#69AFE5" stroke-miterlimit="10" cx="18" cy="18" r="4.5"/><path fill="none" stroke="#69AFE5" stroke-miterlimit="10" d="M19.625 18c0 2.485-.495 4.5-1.625 4.5s-1.594-2.108-1.594-4.594S16.87 13.5 18 13.5s1.625 2.015 1.625 4.5zM13.909 16.5h8.182M13.909 19.5h8.182"/><path fill="#C8C6C4" d="M25.5 29h-15a.5.5 0 0 1 0-1h15a.5.5 0 0 1 0 1zM25.5 26h-15a.5.5 0 0 1 0-1h15a.5.5 0 0 1 0 1z"/></svg>