<svg xmlns="http://www.w3.org/2000/svg" viewBox="0 0 36 36"><g fill="#FFF"><path d="M11.386 33H32.6c.216 0 .4-.17.4-.372V10h-5.6c-.772 0-1.4-.628-1.4-1.4V3H11.4c-.216 0-.4.17-.4.372v29.27c0 .197.173.358.386.358z"/><path d="M32.204 9L27 3.815V8.6c0 .22.18.4.4.4h4.804z"/></g><path opacity=".64" fill="#605E5C" d="M33.613 8.993l-6.595-6.572A1.45 1.45 0 0 0 26 2H11.4c-.772 0-1.4.615-1.4 1.372v29.27c0 .749.622 1.358 1.386 1.358H32.6c.772 0 1.4-.615 1.4-1.372V9.923c0-.346-.14-.686-.387-.93zM27 3.815L32.204 9H27.4a.4.4 0 0 1-.4-.4V3.815zm6 28.813c0 .202-.184.372-.4.372H11.386c-.213 0-.386-.16-.386-.358V3.372c0-.202.184-.372.4-.372H26v5.6c0 .772.628 1.4 1.4 1.4H33v22.628z"/><path fill="none" stroke="#C8C6C4" stroke-miterlimit="10" d="M28.5 29.5h-13a1 1 0 0 1-1-1v-2a1 1 0 0 1 1-1h13a1 1 0 0 1 1 1v2a1 1 0 0 1-1 1zM28.5 23.5h-13a1 1 0 0 1-1-1v-2a1 1 0 0 1 1-1h13a1 1 0 0 1 1 1v2a1 1 0 0 1-1 1zM28.5 17.5h-13a1 1 0 0 1-1-1v-2a1 1 0 0 1 1-1h13a1 1 0 0 1 1 1v2a1 1 0 0 1-1 1z"/><path fill="#C3A9D4" d="M27.45 15h-9.9c-.304 0-.55.224-.55.5s.246.5.55.5h9.9c.304 0 .55-.224.55-.5s-.246-.5-.55-.5zM27.45 21h-9.9c-.304 0-.55.224-.55.5s.246.5.55.5h9.9c.304 0 .55-.224.55-.5s-.246-.5-.55-.5zM27.4 27H16.6c-.332 0-.6.224-.6.5s.268.5.6.5h10.8c.332 0 .6-.224.6-.5s-.268-.5-.6-.5z"/><path fill="#6A3889" d="M3.5 28h13a1.5 1.5 0 0 0 1.5-1.5v-13a1.5 1.5 0 0 0-1.5-1.5h-13A1.5 1.5 0 0 0 2 13.5v13A1.5 1.5 0 0 0 3.5 28z"/><path fill="#FFF" d="M11 25H9V15h2v10z"/></svg>