<svg xmlns="http://www.w3.org/2000/svg" viewBox="0 0 36 36"><path fill="#FFB900" d="M17 9l-2.121-2.121A3 3 0 0 0 12.757 6H4a2 2 0 0 0-2 2v20a2 2 0 0 0 2 2h28a2 2 0 0 0 2-2V11a2 2 0 0 0-2-2H17z"/><path fill="#FFD75E" d="M17 9l-2.121 2.121a3 3 0 0 1-2.122.879H2v16a2 2 0 0 0 2 2h28a2 2 0 0 0 2-2V11a2 2 0 0 0-2-2H17z"/><linearGradient id="a" gradientUnits="userSpaceOnUse" x1="18" y1="9" x2="18" y2="30"><stop offset="0" stop-color="#fff" stop-opacity="0"/><stop offset=".999" stop-color="#ffd75e" stop-opacity=".3"/></linearGradient><path fill="url(#a)" d="M17 9l-2.121 2.121a3 3 0 0 1-2.122.879H2v16a2 2 0 0 0 2 2h28a2 2 0 0 0 2-2V11a2 2 0 0 0-2-2H17z"/><path opacity=".4" fill="#FFF" d="M14.879 11.121a3 3 0 0 1-2.122.879H2v1h11.05a3.5 3.5 0 0 0 2.475-1.025L18.5 9H17l-2.121 2.121z"/><path fill="#E67628" d="M4 30h28a2 2 0 0 0 1.918-1.43c-.35.277-.784.43-1.233.43H3.315a1.98 1.98 0 0 1-1.233-.43A2 2 0 0 0 4 30z"/><g fill="#BF5712"><path d="M15.539 19H4.46c-.254 0-.461.187-.461.417v.416h1.75c.138 0 .25.094.25.209v2.916c0 .115-.112.209-.25.209H4v.416c0 .23.207.417.462.417h11.076c.255 0 .462-.187.462-.417v-4.166c0-.23-.207-.417-.461-.417zM14 22.958c0 .115-.112.209-.25.209h-2.5c-.138 0-.25-.094-.25-.209v-2.916c0-.115.112-.209.25-.209h2.5c.138 0 .25.094.25.209v2.916z"/><path d="M2 23.167h1.75a.25.25 0 0 0 .25-.25v-2.834a.25.25 0 0 0-.25-.25H2v3.334zM18.5 23.167c-.276 0-.5-.187-.5-.417v-2.5c0-.23.224-.417.5-.417s.5.187.5.417v2.5c0 .23-.224.417-.5.417zM21.5 23.167c-.276 0-.5-.187-.5-.417v-2.5c0-.23.224-.417.5-.417s.5.187.5.417v2.5c0 .23-.224.417-.5.417zM24.5 23.167c-.276 0-.5-.187-.5-.417v-2.5c0-.23.224-.417.5-.417s.5.187.5.417v2.5c0 .23-.224.417-.5.417zM27.5 23.167c-.276 0-.5-.187-.5-.417v-2.5c0-.23.224-.417.5-.417s.5.187.5.417v2.5c0 .23-.224.417-.5.417zM30.5 23.167c-.276 0-.5-.187-.5-.417v-2.5c0-.23.224-.417.5-.417s.5.187.5.417v2.5c0 .23-.224.417-.5.417zM33.5 23.167c-.276 0-.5-.187-.5-.417v-2.5c0-.23.224-.417.5-.417s.5.187.5.417v2.5c0 .23-.224.417-.5.417z"/></g></svg>