<svg xmlns="http://www.w3.org/2000/svg" viewBox="0 0 40 40"><g fill="#FFF"><path d="M13.386 35H34.6c.216 0 .4-.17.4-.372V12h-5.6c-.772 0-1.4-.628-1.4-1.4V5H13.4c-.216 0-.4.17-.4.372v29.27c0 .197.173.358.386.358z"/><path d="M34.204 11L29 5.815V10.6c0 .22.18.4.4.4h4.804z"/></g><path opacity=".64" fill="#605E5C" d="M35.613 10.993l-6.595-6.572A1.45 1.45 0 0 0 28 4H13.4c-.772 0-1.4.615-1.4 1.372v29.27c0 .749.622 1.358 1.386 1.358H34.6c.772 0 1.4-.615 1.4-1.372V11.923c0-.346-.14-.686-.387-.93zM29 5.815L34.204 11H29.4a.4.4 0 0 1-.4-.4V5.815zm6 28.813c0 .202-.184.372-.4.372H13.386c-.213 0-.386-.16-.386-.358V5.372c0-.202.184-.372.4-.372H28v5.6c0 .772.628 1.4 1.4 1.4H35v22.628z"/><path fill="#AF2031" d="M5.5 30h13a1.5 1.5 0 0 0 1.5-1.5v-13a1.5 1.5 0 0 0-1.5-1.5h-13A1.5 1.5 0 0 0 4 15.5v13A1.5 1.5 0 0 0 5.5 30z"/><path fill="#FFF" d="M10.849 17h2.36L17 27h-2.23l-.835-2.417h-3.9L9.216 27H7l3.849-10zm2.585 6s-1.409-4.235-1.438-4.435L10.508 23h2.926z"/><g><path fill="#C94F60" d="M28.5 25h-2a.5.5 0 0 1 0-1h2a.5.5 0 0 1 0 1z"/><path fill="#E08095" d="M28.5 22h-2a.5.5 0 0 1 0-1h2a.5.5 0 0 1 0 1z"/><path fill="#AF2031" d="M23.5 24H22v1h1.5a.5.5 0 0 0 0-1z"/><path fill="#C94F60" d="M23.5 21H22v1h1.5a.5.5 0 0 0 0-1zM32 18h-1v8.5a.5.5 0 0 1-.5.5H22v1h8.5c.827 0 1.5-.673 1.5-1.5V18z"/><path fill="#E08095" d="M32 19H22v-3h8.5a1.5 1.5 0 0 1 1.5 1.5V19z"/></g></svg>