<svg xmlns="http://www.w3.org/2000/svg" viewBox="0 0 40 40"><path fill="#FFF" d="M6.5 34h27c.275 0 .5-.225.5-.5v-27c0-.275-.225-.5-.5-.5h-27c-.275 0-.5.225-.5.5v27c0 .275.225.5.5.5z"/><path opacity=".64" fill="#605E5C" d="M33.5 35h-27c-.827 0-1.5-.673-1.5-1.5v-27C5 5.673 5.673 5 6.5 5h27c.827 0 1.5.673 1.5 1.5v27c0 .827-.673 1.5-1.5 1.5zM6.5 6a.5.5 0 0 0-.5.5v27a.5.5 0 0 0 .5.5h27a.5.5 0 0 0 .5-.5v-27a.5.5 0 0 0-.5-.5h-27z"/><g fill="none" stroke="#C8C6C4" stroke-linecap="round" stroke-linejoin="round" stroke-miterlimit="10"><ellipse cx="15.519" cy="24.503" rx="2.019" ry="1.989"/><ellipse cx="23.509" cy="23.493" rx="1.991" ry="1.962"/><path d="M17.539 24.293V15.38l7.961-2.108v10.222M17.686 18.407l7.372-1.815"/></g></svg>