<svg xmlns="http://www.w3.org/2000/svg" viewBox="0 0 40 40"><path fill="#FFF" d="M34 33.5V15H6v18.5a.5.5 0 0 0 .5.5h27a.5.5 0 0 0 .5-.5zM27.5 10a.5.5 0 0 1-.5-.5v-3a.5.5 0 0 1 1 0v3a.5.5 0 0 1-.5.5zM12.5 10a.5.5 0 0 1-.5-.5v-3a.5.5 0 0 1 1 0v3a.5.5 0 0 1-.5.5z"/><path fill="#FFF" d="M33.5 8H29v1.5c0 .827-.673 1.5-1.5 1.5S26 10.327 26 9.5V8H14v1.5c0 .827-.673 1.5-1.5 1.5S11 10.327 11 9.5V8H6.5a.5.5 0 0 0-.5.5V14h28V8.5a.5.5 0 0 0-.5-.5z"/><path opacity=".64" fill="#605E5C" d="M33.5 7H29v.5-1c0-.827-.673-1.5-1.5-1.5S26 5.673 26 6.5V7H14v-.5c0-.827-.673-1.5-1.5-1.5S11 5.673 11 6.5V7H6.5C5.673 7 5 7.673 5 8.5v25c0 .827.673 1.5 1.5 1.5h27c.827 0 1.5-.673 1.5-1.5v-25c0-.827-.673-1.5-1.5-1.5zM27 6.5a.5.5 0 0 1 1 0v3a.5.5 0 0 1-1 0v-3zm-15 0a.5.5 0 0 1 1 0v3a.5.5 0 0 1-1 0v-3zm22 27a.5.5 0 0 1-.5.5h-27a.5.5 0 0 1-.5-.5V15h28v18.5zM34 14H6V8.5a.5.5 0 0 1 .5-.5H11v1.5c0 .827.673 1.5 1.5 1.5s1.5-.673 1.5-1.5V8h12v1.5c0 .827.673 1.5 1.5 1.5s1.5-.673 1.5-1.5V8h4.5a.5.5 0 0 1 .5.5V14z"/><circle fill="#C8C6C4" cx="20" cy="20" r="1"/><circle fill="#C8C6C4" cx="14" cy="20" r="1"/><circle fill="#C8C6C4" cx="26" cy="20" r="1"/><circle fill="#C8C6C4" cx="20" cy="24" r="1"/><circle fill="#C8C6C4" cx="14" cy="24" r="1"/><circle fill="#C8C6C4" cx="26" cy="24" r="1"/><circle fill="#C8C6C4" cx="20" cy="28" r="1"/><circle fill="#C8C6C4" cx="14" cy="28" r="1"/><circle fill="#C8C6C4" cx="26" cy="28" r="1"/></svg>