<svg xmlns="http://www.w3.org/2000/svg" viewBox="0 0 40 40"><path fill="#FFB900" d="M19 11l-2.121-2.121A3 3 0 0 0 14.757 8H6a2 2 0 0 0-2 2v20a2 2 0 0 0 2 2h28a2 2 0 0 0 2-2V13a2 2 0 0 0-2-2H19z"/><path fill="#FFD75E" d="M19 11l-2.121 2.121a3 3 0 0 1-2.122.879H4v16a2 2 0 0 0 2 2h28a2 2 0 0 0 2-2V13a2 2 0 0 0-2-2H19z"/><linearGradient id="a" gradientUnits="userSpaceOnUse" x1="20" y1="11" x2="20" y2="32"><stop offset="0" stop-color="#fff" stop-opacity="0"/><stop offset=".999" stop-color="#ffd75e" stop-opacity=".3"/></linearGradient><path fill="url(#a)" d="M19 11l-2.121 2.121a3 3 0 0 1-2.122.879H4v16a2 2 0 0 0 2 2h28a2 2 0 0 0 2-2V13a2 2 0 0 0-2-2H19z"/><path opacity=".4" fill="#FFF" d="M16.879 13.121a3 3 0 0 1-2.122.879H4v1h11.05a3.5 3.5 0 0 0 2.475-1.025L20.5 11H19l-2.121 2.121z"/><path fill="#E67628" d="M6 32h28a2 2 0 0 0 1.918-1.43c-.35.277-.784.43-1.233.43H5.315a1.98 1.98 0 0 1-1.233-.43A2 2 0 0 0 6 32z"/><g><path fill="#BF5712" d="M26.283 28.988l-.31-2.082H24V21h8.982l-.017 5.906H28.33l-1.583 2.082h-.464zm-1.486-2.816h1.86l.188 1.487 1.125-1.487h4.218l.013-4.422h-7.404v4.422z"/></g></svg>