<svg xmlns="http://www.w3.org/2000/svg" viewBox="0 0 40 40"><g fill="#FFF"><path d="M9.386 35H30.6c.216 0 .4-.17.4-.372V12h-5.6c-.772 0-1.4-.628-1.4-1.4V5H9.4c-.216 0-.4.17-.4.372v29.27c0 .197.173.358.386.358z"/><path d="M30.204 11L25 5.815V10.6c0 .22.18.4.4.4h4.804z"/></g><path opacity=".64" fill="#605E5C" d="M31.613 10.993l-6.595-6.572A1.45 1.45 0 0 0 24 4H9.4C8.628 4 8 4.615 8 5.372v29.27C8 35.39 8.622 36 9.386 36H30.6c.772 0 1.4-.615 1.4-1.372V11.923c0-.346-.14-.686-.387-.93zM25 5.815L30.204 11H25.4a.4.4 0 0 1-.4-.4V5.815zm6 28.813c0 .202-.184.372-.4.372H9.386C9.173 35 9 34.84 9 34.642V5.372C9 5.17 9.184 5 9.4 5H24v5.6c0 .772.628 1.4 1.4 1.4H31v22.628z"/><path fill="none" stroke="#69AFE5" stroke-linecap="round" stroke-miterlimit="10" d="M21.726 15.386l-2.952 8.857"/><path fill="none" stroke="#69AFE5" stroke-linecap="round" stroke-linejoin="round" stroke-miterlimit="10" d="M14.714 21.708l-2.214-2.16 2.214-2.19M25.5 21.708l2.078-2.175-2.078-2.176"/><path fill="#C8C6C4" d="M27.5 28h-15a.5.5 0 0 1 0-1h15a.5.5 0 0 1 0 1zM27.5 31h-15a.5.5 0 0 1 0-1h15a.5.5 0 0 1 0 1z"/></svg>