<svg xmlns="http://www.w3.org/2000/svg" viewBox="0 0 40 40"><path fill="#FFF" d="M33.5 10h-27a.5.5 0 0 0-.5.5v19a.5.5 0 0 0 .5.5h4.444c.005-.072.048-.304.063-.374.206-.983.994-1.614 1.984-1.614 1.019 0 1.826.654 2.01 1.629.02.115.032.229.04.336.002 0 .006 0 .01-.002V30H24.954c.008-.158.027-.21.063-.374.206-.983.994-1.614 1.984-1.614 1.019 0 1.826.654 2.009 1.629.022.123.035.182.043.359H33.5a.5.5 0 0 0 .5-.5v-19a.5.5 0 0 0-.5-.5z"/><g fill="none" stroke="#69AFE5" stroke-miterlimit="10"><circle cx="13.5" cy="17.5" r="3"/><path stroke-linecap="round" stroke-linejoin="round" d="M9.396 24.52s.045-4.02 4.106-4.02c3.967 0 4.081 4.02 4.081 4.02"/></g><path fill="#C8C6C4" d="M21.5 16h9a.5.5 0 0 0 0-1h-9a.5.5 0 0 0 0 1zM21.5 20h9a.5.5 0 0 0 0-1h-9a.5.5 0 0 0 0 1zM21.5 24h5a.5.5 0 0 0 0-1h-5a.5.5 0 1 0 0 1z"/><circle fill="#C8C6C4" cx="30.5" cy="23.5" r=".5"/><path opacity=".64" fill="#605E5C" d="M33.5 9h-27A1.5 1.5 0 0 0 5 10.5v19A1.5 1.5 0 0 0 6.5 31h4.949c.266 0 .539-.204.55-.47.006-.158.004-.53.004-.53s.003-.039.01-.091h-.01c.031-.258.188-1.02.988-1.02C13.96 28.888 14 30 14 30s-.006.374 0 .53c.01.267.292.47.56.47h10.89c.266 0 .539-.204.55-.47.006-.158.004-.53.004-.53s.036-1.112.997-1.112c.969 0 1.008 1.112 1.008 1.112s-.006.374 0 .53c.01.267.292.47.56.47H33.5a1.5 1.5 0 0 0 1.5-1.5v-19A1.5 1.5 0 0 0 33.5 9zm.5 20.5a.5.5 0 0 1-.5.5h-4.448a3.029 3.029 0 0 0-.043-.36c-.183-.974-.99-1.628-2.009-1.628-.99 0-1.778.631-1.984 1.613-.015.071-.058.302-.063.375h-9.901l-.002-.024-.01.001a3.146 3.146 0 0 0-.04-.336c-.183-.974-.99-1.63-2.009-1.63-.99 0-1.779.632-1.984 1.615-.015.07-.058.302-.063.374H6.5a.5.5 0 0 1-.5-.5v-19a.5.5 0 0 1 .5-.5h27a.5.5 0 0 1 .5.5v19z"/></svg>