<svg xmlns="http://www.w3.org/2000/svg" viewBox="0 0 40 40"><g fill="#FFF"><path d="M13.386 35H34.6c.216 0 .4-.17.4-.372V12h-5.6c-.772 0-1.4-.628-1.4-1.4V5H13.4c-.216 0-.4.17-.4.372v29.27c0 .197.173.358.386.358z"/><path d="M34.204 11L29 5.815V10.6c0 .22.18.4.4.4h4.804z"/></g><path opacity=".64" fill="#605E5C" d="M35.613 10.993l-6.595-6.572A1.45 1.45 0 0 0 28 4H13.4c-.772 0-1.4.615-1.4 1.372v29.27c0 .749.622 1.358 1.386 1.358H34.6c.772 0 1.4-.615 1.4-1.372V11.923c0-.346-.14-.686-.387-.93zM29 5.815L34.204 11H29.4a.4.4 0 0 1-.4-.4V5.815zm6 28.813c0 .202-.184.372-.4.372H13.386c-.213 0-.386-.16-.386-.358V5.372c0-.202.184-.372.4-.372H28v5.6c0 .772.628 1.4 1.4 1.4H35v22.628z"/><path fill="#103F91" d="M31.5 26H22v1h9.5a.5.5 0 0 0 0-1z"/><path fill="#185ABD" d="M31.5 23H22v1h9.5a.5.5 0 0 0 0-1z"/><path fill="#2B7CD3" d="M31.5 20H22v1h9.5a.5.5 0 0 0 0-1z"/><path fill="#41A5EE" d="M31.5 17H22v1h9.5a.5.5 0 0 0 0-1z"/><g><path fill="#185ABD" d="M5.5 30h13a1.5 1.5 0 0 0 1.5-1.5v-13a1.5 1.5 0 0 0-1.5-1.5h-13A1.5 1.5 0 0 0 4 15.5v13A1.5 1.5 0 0 0 5.5 30z"/><path fill="#F9F7F7" d="M9.858 24.55h.027c.01-.134 1.358-6.55 1.358-6.55H12.8s1.378 6.118 1.42 6.538h.02c.018-.29 1.134-6.538 1.134-6.538H16.8l-1.755 8h-1.666s-1.384-6.32-1.395-6.432h-.02c-.014.13-1.301 6.432-1.301 6.432H8.97L7.2 18h1.452s1.2 6.408 1.207 6.55z"/></g></svg>