<svg xmlns="http://www.w3.org/2000/svg" viewBox="0 0 40 40"><g fill="#FFF"><path d="M33 32.5c0 .827-.673 1.5-1.5 1.5H15v.607c0 .217.176.393.393.393h19.214a.393.393 0 0 0 .393-.393V7.5h.5v-.572l-3-1.678V8.5h.5v24z"/><path d="M12.5 33h19a.5.5 0 0 0 .5-.5v-24H12v24a.5.5 0 0 0 .5.5z"/></g><path opacity=".64" fill="#605E5C" d="M35 7.5v27.107a.393.393 0 0 1-.393.393H15.393a.393.393 0 0 1-.393-.393V34h16.5c.827 0 1.5-.673 1.5-1.5v-24h-1v24a.5.5 0 0 1-.5.5h-19a.5.5 0 0 1-.5-.5v-24h-1v24c0 .827.673 1.5 1.5 1.5H14v.607c0 .768.625 1.393 1.393 1.393h19.214c.768 0 1.393-.625 1.393-1.393V7.5h-1z"/><path fill="#41A5EE" d="M33 4.01c-.017-.001-.032-.01-.048-.01h-21.06C11.4 4 11 4.4 11 4.893V8l.5.5h21L33 8V7l.5-.5V5l-.5-.99z"/><path fill="#2B7CD3" d="M11 8h22v1H11zM34.147 6.942L36 8.464V7.048a.892.892 0 0 0-.262-.63L33.584 4.26A.889.889 0 0 0 33 4.01v3.474a.701.701 0 0 1 1.147-.542z"/><path fill="#103F91" d="M28.5 26H22v1h6.5a.5.5 0 0 0 0-1z"/><path fill="#185ABD" d="M28.5 23H22v1h6.5a.5.5 0 0 0 0-1z"/><path fill="#2B7CD3" d="M28.5 20H22v1h6.5a.5.5 0 0 0 0-1z"/><path fill="#41A5EE" d="M28.5 17H22v1h6.5a.5.5 0 0 0 0-1z"/><g><path fill="#185ABD" d="M5.5 30h13a1.5 1.5 0 0 0 1.5-1.5v-13a1.5 1.5 0 0 0-1.5-1.5h-13A1.5 1.5 0 0 0 4 15.5v13A1.5 1.5 0 0 0 5.5 30z"/><path fill="#F9F7F7" d="M9.858 24.55h.027c.01-.134 1.358-6.55 1.358-6.55H12.8s1.378 6.118 1.42 6.538h.02c.018-.29 1.134-6.538 1.134-6.538H16.8l-1.755 8h-1.666s-1.384-6.32-1.395-6.432h-.02c-.014.13-1.301 6.432-1.301 6.432H8.97L7.2 18h1.452s1.2 6.408 1.207 6.55z"/></g></svg>