<svg xmlns="http://www.w3.org/2000/svg" viewBox="0 0 40 40"><g fill="#FFF"><path d="M6.5 30.101h27a.5.5 0 0 0 .5-.5V10.77L20.385 24.107a.498.498 0 0 1-.7 0L6 10.7v18.901a.5.5 0 0 0 .5.5z"/><path d="M33.422 9.936H6.648L20.035 23.05z"/></g><path opacity=".64" fill="#605E5C" d="M33.5 9h-27A1.5 1.5 0 0 0 5 10.5v19A1.5 1.5 0 0 0 6.5 31h27a1.5 1.5 0 0 0 1.5-1.5v-19A1.5 1.5 0 0 0 33.5 9zm-.078 1L20.035 23.114 6.648 10h26.774zm.078 20h-27a.5.5 0 0 1-.5-.5V10.6l13.685 13.406a.498.498 0 0 0 .7 0L34 10.668V29.5a.5.5 0 0 1-.5.5z"/></svg>