<svg xmlns="http://www.w3.org/2000/svg" viewBox="0 0 40 40"><g fill="#FFF"><path d="M6.5 30.037h27a.5.5 0 0 0 .5-.5V15H6v14.537a.5.5 0 0 0 .5.5zM33.5 10h-27c-.275 0-.5.225-.5.5V14h28v-3.5c0-.275-.225-.5-.5-.5z"/></g><circle fill="#C8C6C4" cx="8" cy="12" r="1"/><circle fill="#C8C6C4" cx="11" cy="12" r="1"/><circle fill="#C8C6C4" cx="14" cy="12" r="1"/><path fill="#EDEBE9" d="M14 30H6.5a.5.5 0 0 1-.5-.5V15h8v15z"/><g fill="#C8C6C4"><path d="M11.5 18h-3a.5.5 0 0 1 0-1h3a.5.5 0 0 1 0 1zM11.5 21h-3a.5.5 0 0 1 0-1h3a.5.5 0 0 1 0 1zM11.5 24h-3a.5.5 0 0 1 0-1h3a.5.5 0 0 1 0 1z"/></g><g fill="#C8C6C4"><path d="M22.5 18h-6a.5.5 0 0 1 0-1h6a.5.5 0 0 1 0 1zM22.5 21h-6a.5.5 0 0 1 0-1h6a.5.5 0 0 1 0 1zM22.5 24h-6a.5.5 0 0 1 0-1h6a.5.5 0 0 1 0 1zM22.5 27h-6a.5.5 0 0 1 0-1h6a.5.5 0 0 1 0 1z"/></g><path fill="#69AFE5" d="M31.222 27.938h-5.444c-.43 0-.778-.377-.778-.842v-9.255c0-.464.348-.841.778-.841h5.444c.43 0 .778.377.778.841v9.255c0 .465-.348.841-.778.841z"/><path opacity=".64" fill="#605E5C" d="M33.5 9h-27A1.5 1.5 0 0 0 5 10.5v19A1.5 1.5 0 0 0 6.5 31h27a1.5 1.5 0 0 0 1.5-1.5v-19A1.5 1.5 0 0 0 33.5 9zM6 10.5c0-.275.225-.5.5-.5h27c.275 0 .5.225.5.5V14H6v-3.5zM33.5 30h-27a.5.5 0 0 1-.5-.5V15h28v14.5a.5.5 0 0 1-.5.5z"/></svg>