<svg xmlns="http://www.w3.org/2000/svg" viewBox="0 0 40 40"><path fill="#FFB900" d="M19 11l-2.121-2.121A3 3 0 0 0 14.757 8H6a2 2 0 0 0-2 2v20a2 2 0 0 0 2 2h28a2 2 0 0 0 2-2V13a2 2 0 0 0-2-2H19z"/><path fill="#FFD75E" d="M19 11l-2.121 2.121a3 3 0 0 1-2.122.879H4v16a2 2 0 0 0 2 2h28a2 2 0 0 0 2-2V13a2 2 0 0 0-2-2H19z"/><linearGradient id="a" gradientUnits="userSpaceOnUse" x1="20" y1="11" x2="20" y2="32"><stop offset="0" stop-color="#fff" stop-opacity="0"/><stop offset=".999" stop-color="#ffd75e" stop-opacity=".3"/></linearGradient><path fill="url(#a)" d="M19 11l-2.121 2.121a3 3 0 0 1-2.122.879H4v16a2 2 0 0 0 2 2h28a2 2 0 0 0 2-2V13a2 2 0 0 0-2-2H19z"/><path opacity=".4" fill="#FFF" d="M16.879 13.121a3 3 0 0 1-2.122.879H4v1h11.05a3.5 3.5 0 0 0 2.475-1.025L20.5 11H19l-2.121 2.121z"/><path fill="#E67628" d="M6 32h28a2 2 0 0 0 1.918-1.43c-.35.277-.784.43-1.233.43H5.315a1.98 1.98 0 0 1-1.233-.43A2 2 0 0 0 6 32z"/><g><path fill="#BF5712" d="M31.348 25.51l1.09 3.49-2.813-2.162L26.812 29l1.09-3.49-2.777-2.135h3.445L29.625 20l1.055 3.375h3.445l-2.777 2.136zm.021 1.96c-.111-.363-.223-.724-.334-1.082a96.55 96.55 0 0 0-.342-1.083c.301-.226.599-.453.892-.682s.589-.457.888-.685h-2.206l-.642-2.053-.642 2.053h-2.206c.299.228.595.457.888.685s.59.456.892.682c-.118.363-.231.723-.342 1.083-.112.358-.223.72-.334 1.083l1.744-1.345 1.744 1.345z"/></g></svg>