<svg xmlns="http://www.w3.org/2000/svg" viewBox="0 0 40 40"><g fill="#FFF"><path d="M9.386 35H30.6c.216 0 .4-.17.4-.372V12h-5.6c-.772 0-1.4-.628-1.4-1.4V5H9.4c-.216 0-.4.17-.4.372v29.27c0 .197.173.358.386.358z"/><path d="M30.204 11L25 5.815V10.6c0 .22.18.4.4.4h4.804z"/></g><path opacity=".64" fill="#605E5C" d="M31.613 10.993l-6.595-6.572A1.45 1.45 0 0 0 24 4H9.4C8.628 4 8 4.615 8 5.372v29.27C8 35.39 8.622 36 9.386 36H30.6c.772 0 1.4-.615 1.4-1.372V11.923c0-.346-.14-.686-.387-.93zM25 5.815L30.204 11H25.4a.4.4 0 0 1-.4-.4V5.815zm6 28.813c0 .202-.184.372-.4.372H9.386C9.173 35 9 34.84 9 34.642V5.372C9 5.17 9.184 5 9.4 5H24v5.6c0 .772.628 1.4 1.4 1.4H31v22.628z"/><path fill="#FF5C0D" d="M22.233 25.09H16.4l-1.022 2.314c-.252.57-.378.995-.378 1.277 0 .223.11.42.328.589.218.17.69.28 1.416.33v.4H12v-.4c.63-.108 1.037-.249 1.222-.422.378-.346.796-1.049 1.256-2.109L19.778 15h.389l5.244 12.199c.422.98.806 1.617 1.15 1.909.344.292.824.456 1.439.492v.4h-5.944v-.4c.6-.029 1.005-.126 1.216-.292.211-.166.317-.368.317-.606 0-.317-.148-.818-.445-1.503l-.91-2.109zm-.31-.8l-2.556-5.927-2.623 5.927h5.178z"/></svg>