<svg xmlns="http://www.w3.org/2000/svg" viewBox="0 0 40 40"><g fill="#FFF"><path d="M6.5 30.037h27a.5.5 0 0 0 .5-.5V15H6v14.537a.5.5 0 0 0 .5.5zM33.5 10h-27c-.275 0-.5.225-.5.5V14h28v-3.5c0-.275-.225-.5-.5-.5z"/></g><path opacity=".64" fill="#605E5C" d="M33.5 9h-27A1.5 1.5 0 0 0 5 10.5v19A1.5 1.5 0 0 0 6.5 31h27a1.5 1.5 0 0 0 1.5-1.5v-19A1.5 1.5 0 0 0 33.5 9zM6 10.5c0-.275.225-.5.5-.5h27c.275 0 .5.225.5.5V14H6v-3.5zM33.5 30h-27a.5.5 0 0 1-.5-.5V15h28v14.5a.5.5 0 0 1-.5.5z"/><circle fill="#C8C6C4" cx="8" cy="12" r="1"/><circle fill="#C8C6C4" cx="11" cy="12" r="1"/><circle fill="#C8C6C4" cx="14" cy="12" r="1"/><g fill="none" stroke="#69AFE5" stroke-miterlimit="10"><ellipse cx="20.017" cy="22.561" rx="4.591" ry="4.873"/><ellipse cx="19.974" cy="22.561" rx="1.579" ry="4.873"/><path d="M15.788 21.479h8.69M15.788 24.534h8.69"/></g></svg>