<svg xmlns="http://www.w3.org/2000/svg" viewBox="0 0 40 40"><path fill="#FFF" d="M28.643 35a.357.357 0 0 0 .357-.357L29.003 33H12.355A1.36 1.36 0 0 1 11 31.638V7.978l-1.59-.003h-.002c-.209 0-.408.173-.408.357v26.27c0 .209.17.398.356.398h19.287z"/><path fill="#FFF" d="M30.643 32a.379.379 0 0 0 .262-.096.299.299 0 0 0 .095-.224V12h-5.745A1.264 1.264 0 0 1 24 10.732V5H12.41c-.111 0-.22.04-.3.112a.297.297 0 0 0-.11.221v26.306c0 .2.16.36.356.361h18.286z"/><path fill="#FFF" d="M30.318 11.002l-5.32-5.346v5.076c0 .143.12.27.258.27h5.062z"/><path opacity=".64" fill="#605E5C" d="M31.644 10.916L25.16 4.4a1.373 1.373 0 0 0-.962-.4H12.411h-.003c-.355 0-.697.129-.962.363a1.286 1.286 0 0 0-.446.969V7H9.41C8.645 7 8.001 7.595 8 8.331v26.27C7.998 35.359 8.62 36 9.355 36h19.289c.36 0 .7-.14.957-.396a1.35 1.35 0 0 0 .399-.96V33h.643c.358 0 .694-.13.947-.367.264-.247.409-.585.41-.952v-19.9c0-.326-.126-.632-.356-.865zm-6.645-5.26l5.319 5.346h-5.062c-.138 0-.258-.127-.258-.27V5.656zM29 34.643a.357.357 0 0 1-.357.357H9.356C9.17 35 9 34.81 9 34.603V8.332c0-.184.2-.357.408-.357h.001L11 7.978v23.66A1.36 1.36 0 0 0 12.355 33h16.648L29 34.643zm2-2.963a.299.299 0 0 1-.095.224.379.379 0 0 1-.262.096H12.356a.359.359 0 0 1-.356-.36V5.332c0-.103.06-.177.11-.22a.455.455 0 0 1 .3-.113H24v5.732c0 .698.563 1.267 1.255 1.268H31v19.68z"/></svg>