<svg xmlns="http://www.w3.org/2000/svg" viewBox="0 0 40 40"><path opacity=".64" fill="#605E5C" d="M31.5 36h-20c-.827 0-1.5-.673-1.5-1.5v-29c0-.827.673-1.5 1.5-1.5h20c.827 0 1.5.673 1.5 1.5V6h1.5c.827 0 1.5.673 1.5 1.5v5c0 .827-.673 1.5-1.5 1.5H33v20.5c0 .827-.673 1.5-1.5 1.5zm-20-31a.5.5 0 0 0-.5.5v29a.5.5 0 0 0 .5.5h20a.5.5 0 0 0 .5-.5V14a1 1 0 0 1 1-1h1.5a.5.5 0 0 0 .5-.5v-5a.5.5 0 0 0-.5-.5H33a1 1 0 0 1-1-1v-.5a.5.5 0 0 0-.5-.5h-20zm21 1l.5.001V6h-.5z"/><path fill="#FFF" d="M34.5 13a.5.5 0 0 0 .5-.5v-5a.5.5 0 0 0-.5-.5H33a1 1 0 0 1-1-1v-.5a.5.5 0 0 0-.5-.5h-20a.5.5 0 0 0-.5.5v29a.5.5 0 0 0 .5.5h20a.5.5 0 0 0 .5-.5V14a1 1 0 0 1 1-1h1.5z"/><path fill="#7719AA" d="M5.5 30h13a1.5 1.5 0 0 0 1.5-1.5v-13a1.5 1.5 0 0 0-1.5-1.5h-13A1.5 1.5 0 0 0 4 15.5v13A1.5 1.5 0 0 0 5.5 30z"/><path fill="#FFF" d="M8.167 17.344h1.95l3.829 6.21c.174.279.305.503.393.673h.024c-.037-.235-.055-.66-.055-1.274v-5.61h1.662v9.365h-1.825l-3.972-6.38a4.987 4.987 0 0 1-.356-.66h-.031c.033.288.05.754.05 1.398v5.642h-1.67v-9.364z"/></svg>