<svg xmlns="http://www.w3.org/2000/svg" viewBox="0 0 40 40"><path opacity=".64" fill="#605E5C" d="M31.5 36h-20c-.827 0-1.5-.673-1.5-1.5v-29c0-.827.673-1.5 1.5-1.5h20c.827 0 1.5.673 1.5 1.5v29c0 .827-.673 1.5-1.5 1.5zm-20-31a.5.5 0 0 0-.5.5v29a.5.5 0 0 0 .5.5h20a.5.5 0 0 0 .5-.5v-29a.5.5 0 0 0-.5-.5h-20z"/><path fill="#FFF" d="M11.5 35h20a.5.5 0 0 0 .5-.5v-29a.5.5 0 0 0-.5-.5h-20a.5.5 0 0 0-.5.5v29a.5.5 0 0 0 .5.5z"/><path fill="#7719AA" d="M5.5 30h13a1.5 1.5 0 0 0 1.5-1.5v-13a1.5 1.5 0 0 0-1.5-1.5h-13A1.5 1.5 0 0 0 4 15.5v13A1.5 1.5 0 0 0 5.5 30z"/><path fill="#FFF" d="M8.167 17.344h1.95l3.829 6.21c.174.279.305.503.393.673h.024c-.037-.235-.055-.66-.055-1.274v-5.61h1.662v9.365h-1.825l-3.972-6.38a4.987 4.987 0 0 1-.356-.66h-.031c.033.288.05.754.05 1.398v5.642h-1.67v-9.364z"/><path fill="#9332BF" d="M35 24h-2v-8h2a1 1 0 0 1 1 1v6a1 1 0 0 1-1 1z"/><path fill="#AE4BD5" d="M35 15h-2V7h2a1 1 0 0 1 1 1v6a1 1 0 0 1-1 1z"/><path fill="#7719AA" d="M35 33h-2v-8h2a1 1 0 0 1 1 1v6a1 1 0 0 1-1 1z"/></svg>