<svg xmlns="http://www.w3.org/2000/svg" viewBox="0 0 40 40"><path opacity=".64" fill="#605E5C" d="M34.574 33H11.426C10.64 33 10 32.389 10 31.638V8.362C10 7.612 10.64 7 11.426 7h23.148C35.36 7 36 7.611 36 8.362v23.276c0 .75-.64 1.362-1.426 1.362zM11.426 8c-.235 0-.426.162-.426.362v23.276c0 .2.191.362.426.362h23.148c.235 0 .426-.162.426-.362V8.362c0-.2-.191-.362-.426-.362H11.426z"/><path fill="#FFF" d="M11.426 8c-.235 0-.426.162-.426.362v23.276c0 .2.191.362.426.362h23.148c.235 0 .426-.162.426-.362V8.362c0-.2-.191-.362-.426-.362H11.426z"/><g fill="#C8C6C4"><circle cx="14" cy="11" r="1"/><circle cx="17" cy="11" r="1"/><circle cx="20" cy="11" r="1"/></g><path fill="#C8C6C4" d="M31.517 25H13.17c-.266 0-.482.224-.482.5s.216.5.482.5h18.347c.267 0 .483-.224.483-.5s-.216-.5-.483-.5zM31.517 28H13.17c-.266 0-.482.224-.482.5s.216.5.482.5h18.347c.267 0 .483-.224.483-.5s-.216-.5-.483-.5z"/><g fill="none" stroke="#C8C6C4" stroke-miterlimit="10"><path d="M20.875 20.125L23.5 17.5M26.271 17.787L28.748 20M21.125 19.71A1.712 1.712 0 1 1 20 19.288c.43 0 .824.16 1.125.422"/><circle cx="30.015" cy="21" r="1.712"/><circle cx="25.006" cy="16.979" r="1.833"/></g><path fill="#F2C80F" d="M5.5 30h13a1.5 1.5 0 0 0 1.5-1.5v-13a1.5 1.5 0 0 0-1.5-1.5h-13A1.5 1.5 0 0 0 4 15.5v13A1.5 1.5 0 0 0 5.5 30z"/><path fill="#333" d="M16.5 17a.5.5 0 0 0-.5.5v9a.5.5 0 0 0 1 0v-9a.5.5 0 0 0-.5-.5zM13.5 21a.5.5 0 0 0-.5.5v5a.5.5 0 0 0 1 0v-5a.5.5 0 0 0-.5-.5zM10.5 19a.5.5 0 0 0-.5.5v7a.5.5 0 0 0 1 0v-7a.5.5 0 0 0-.5-.5zM7.5 23a.5.5 0 0 1 .5.5v3a.5.5 0 0 1-1 0v-3a.5.5 0 0 1 .5-.5z"/></svg>