<svg xmlns="http://www.w3.org/2000/svg" viewBox="0 0 40 40"><path fill="#FFF" d="M9.386 35H30.6c.216 0 .4-.17.4-.372V12h-5.6c-.772 0-1.4-.628-1.4-1.4V5H9.4c-.216 0-.4.17-.4.372v29.27c0 .197.173.358.386.358z"/><path fill="#FFF" d="M30.204 11L25 5.815V10.6c0 .22.18.4.4.4h4.804z"/><path opacity=".64" fill="#605E5C" d="M31.613 10.993l-6.595-6.572A1.45 1.45 0 0 0 24 4H9.4C8.628 4 8 4.615 8 5.372v29.27C8 35.39 8.622 36 9.386 36H30.6c.772 0 1.4-.615 1.4-1.372V11.923c0-.346-.14-.686-.387-.93zM25 5.815L30.204 11H25.4a.4.4 0 0 1-.4-.4V5.815zm6 28.813c0 .202-.184.372-.4.372H9.386C9.173 35 9 34.84 9 34.642V5.372C9 5.17 9.184 5 9.4 5H24v5.6c0 .772.628 1.4 1.4 1.4H31v22.628z"/><path fill="#C8C6C4" d="M27.5 18h-15a.5.5 0 1 0 0 1h15a.5.5 0 1 0 0-1zM27.5 20h-15a.5.5 0 1 0 0 1h15a.5.5 0 1 0 0-1zM27.5 16h-15a.5.5 0 1 0 0 1h15a.5.5 0 1 0 0-1z"/><path fill="#D65532" d="M22.82 25.599c.928 0 1.68.752 1.68 1.68v2.463a1.68 1.68 0 0 1-1.68 1.68h-5.412a1.68 1.68 0 0 1-1.68-1.68v-2.464c0-.927.753-1.68 1.68-1.68h5.412m0-1.5h-5.412a3.183 3.183 0 0 0-3.18 3.18v2.464a3.183 3.183 0 0 0 3.18 3.18h5.412a3.183 3.183 0 0 0 3.18-3.18v-2.464a3.183 3.183 0 0 0-3.18-3.18zM32 25h-4.75a.25.25 0 0 0-.25.25v6.5c0 .138.112.25.25.25H32a1 1 0 0 0 1-1v-5a1 1 0 0 0-1-1zM8 25h4.75a.25.25 0 0 1 .25.25v6.5a.25.25 0 0 1-.25.25H8a1 1 0 0 1-1-1v-5a1 1 0 0 1 1-1z"/></svg>