<svg xmlns="http://www.w3.org/2000/svg" viewBox="0 0 40 40"><path fill="#FFF" d="M6.5 34h27c.275 0 .5-.225.5-.5v-27c0-.275-.225-.5-.5-.5h-27c-.275 0-.5.225-.5.5v27c0 .275.225.5.5.5z"/><path opacity=".64" fill="#605E5C" d="M33.5 35h-27c-.827 0-1.5-.673-1.5-1.5v-27C5 5.673 5.673 5 6.5 5h27c.827 0 1.5.673 1.5 1.5v27c0 .827-.673 1.5-1.5 1.5zM6.5 6a.5.5 0 0 0-.5.5v27a.5.5 0 0 0 .5.5h27a.5.5 0 0 0 .5-.5v-27a.5.5 0 0 0-.5-.5h-27z"/><g fill="none" stroke="#C8C6C4" stroke-miterlimit="10"><path d="M23.62 21.683l-2.057 3.11-3.486-4.968a1.16 1.16 0 0 0-1.925 0l-5.424 7.727c-.57.812-.008 1.948.962 1.948H28.5c.955 0 1.52-1.105.981-1.92l-3.9-5.897a1.16 1.16 0 0 0-1.962 0z"/><circle cx="27" cy="13" r="2.5"/></g></svg>