<svg xmlns="http://www.w3.org/2000/svg" viewBox="0 0 40 40"><g fill="#FFF"><path d="M33 32.5c0 .827-.673 1.5-1.5 1.5H15v.607c0 .217.176.393.393.393h19.214a.393.393 0 0 0 .393-.393V7.5h.5v-.572l-3-1.678V8.5h.5v24z"/><path d="M12.5 33h19a.5.5 0 0 0 .5-.5v-24H12v24a.5.5 0 0 0 .5.5z"/></g><path opacity=".64" fill="#605E5C" d="M35 8v26.607a.393.393 0 0 1-.393.393H15.393a.393.393 0 0 1-.393-.393V34h16.5c.827 0 1.5-.673 1.5-1.5v-24h-1v24a.5.5 0 0 1-.5.5h-19a.5.5 0 0 1-.5-.5v-24h-1v24c0 .827.673 1.5 1.5 1.5H14v.607c0 .768.625 1.393 1.393 1.393h19.214c.768 0 1.393-.625 1.393-1.393V8h-1z"/><path fill="#FF8F6B" d="M33 4.01c-.017-.001-.032-.01-.048-.01h-21.06C11.4 4 11 4.4 11 4.893V8l.5.5h21L33 8V7l.5-.5V5l-.5-.99z"/><path fill="#ED6C47" d="M11 8h22v1H11zM34.147 6.942L36 8.464V7.048a.892.892 0 0 0-.262-.63L33.584 4.26A.889.889 0 0 0 33 4.01v3.474a.701.701 0 0 1 1.147-.542zM24 22l-1-1-1 1v4.578A4.971 4.971 0 0 0 24 27a5 5 0 0 0 5-5h-5z"/><path fill="#FF8F6B" d="M22 17.422V22h2v-5c-.712 0-1.387.154-2 .422z"/><path fill="#FFC7B5" d="M25 16a5 5 0 0 1 5 5h-5v-5z"/><g><path fill="#C43E1C" d="M5.5 30h13a1.5 1.5 0 0 0 1.5-1.5v-13a1.5 1.5 0 0 0-1.5-1.5h-13A1.5 1.5 0 0 0 4 15.5v13A1.5 1.5 0 0 0 5.5 30z"/><path fill="#FFF" d="M12.727 17c1.086 0 1.92.261 2.497.785.578.523.866 1.28.866 2.271 0 .637-.143 1.203-.428 1.7a2.95 2.95 0 0 1-1.219 1.155c-.527.276-1.137.413-1.832.413H10.88v3.46H9.102V17h3.625zm-1.848 4.83h1.53c.597 0 1.047-.144 1.352-.433.304-.289.457-.71.457-1.266 0-1.077-.584-1.616-1.752-1.616h-1.587v3.315z"/></g></svg>