<svg xmlns="http://www.w3.org/2000/svg" viewBox="0 0 40 40"><g fill="#FFF"><path d="M13.386 35H34.6c.216 0 .4-.17.4-.372V12h-5.6c-.772 0-1.4-.628-1.4-1.4V5H13.4c-.216 0-.4.17-.4.372v29.27c0 .197.173.358.386.358z"/><path d="M34.204 11L29 5.815V10.6c0 .22.18.4.4.4h4.804z"/></g><path opacity=".64" fill="#605E5C" d="M35.613 10.993l-6.595-6.572A1.45 1.45 0 0 0 28 4H13.4c-.772 0-1.4.615-1.4 1.372v29.27c0 .749.622 1.358 1.386 1.358H34.6c.772 0 1.4-.615 1.4-1.372V11.923c0-.346-.14-.686-.387-.93zM29 5.815L34.204 11H29.4a.4.4 0 0 1-.4-.4V5.815zm6 28.813c0 .202-.184.372-.4.372H13.386c-.213 0-.386-.16-.386-.358V5.372c0-.202.184-.372.4-.372H28v5.6c0 .772.628 1.4 1.4 1.4H35v22.628z"/><path fill="none" stroke="#C8C6C4" stroke-miterlimit="10" d="M19.214 21.861l3.724-3.149M25.717 18.895l2.64 2.966"/><circle fill="none" stroke="#C8C6C4" stroke-miterlimit="10" cx="29.5" cy="23.5" r="2"/><circle fill="none" stroke="#C8C6C4" stroke-miterlimit="10" cx="24.5" cy="17.5" r="2"/><path fill="#C8C6C4" d="M31.5 28h-15a.5.5 0 1 0 0 1h15a.5.5 0 1 0 0-1zM31.5 31h-15a.5.5 0 1 0 0 1h15a.5.5 0 1 0 0-1z"/><path fill="#F2C80F" d="M5.5 30h13a1.5 1.5 0 0 0 1.5-1.5v-13a1.5 1.5 0 0 0-1.5-1.5h-13A1.5 1.5 0 0 0 4 15.5v13A1.5 1.5 0 0 0 5.5 30z"/><path fill="#333" d="M16.5 17a.5.5 0 0 0-.5.5v9a.5.5 0 0 0 1 0v-9a.5.5 0 0 0-.5-.5zM13.5 21a.5.5 0 0 0-.5.5v5a.5.5 0 0 0 1 0v-5a.5.5 0 0 0-.5-.5zM10.5 19a.5.5 0 0 0-.5.5v7a.5.5 0 0 0 1 0v-7a.5.5 0 0 0-.5-.5zM7.5 23a.5.5 0 0 1 .5.5v3a.5.5 0 0 1-1 0v-3a.5.5 0 0 1 .5-.5z"/></svg>