<svg xmlns="http://www.w3.org/2000/svg" viewBox="0 0 40 40"><g fill="#FFF"><path d="M9.386 35H30.6c.216 0 .4-.17.4-.372V12h-5.6c-.772 0-1.4-.628-1.4-1.4V5H9.4c-.216 0-.4.17-.4.372v29.27c0 .197.173.358.386.358z"/><path d="M30.204 11L25 5.815V10.6c0 .22.18.4.4.4h4.804z"/></g><path opacity=".64" fill="#605E5C" d="M31.613 10.993l-6.595-6.572A1.45 1.45 0 0 0 24 4H9.4C8.628 4 8 4.615 8 5.372v29.27C8 35.39 8.622 36 9.386 36H30.6c.772 0 1.4-.615 1.4-1.372V11.923c0-.346-.14-.686-.387-.93zM25 5.815L30.204 11H25.4a.4.4 0 0 1-.4-.4V5.815zm6 28.813c0 .202-.184.372-.4.372H9.386C9.173 35 9 34.84 9 34.642V5.372C9 5.17 9.184 5 9.4 5H24v5.6c0 .772.628 1.4 1.4 1.4H31v22.628z"/><path fill="none" stroke="#C8C6C4" stroke-linejoin="round" stroke-miterlimit="10" d="M24.707 24.51h-9.414c-.99 0-1.793-.742-1.793-1.657V14.5h13v8.353c0 .915-.803 1.656-1.793 1.656z"/><path fill="none" stroke="#C8C6C4" stroke-linecap="round" stroke-linejoin="round" stroke-miterlimit="10" d="M27.5 14.5h-15M16.5 21.5v-4"/><path fill="none" stroke="#F5BA9D" stroke-linecap="round" stroke-linejoin="round" stroke-miterlimit="10" d="M18.5 21.5v-3"/><path fill="none" stroke="#C8C6C4" stroke-linecap="round" stroke-linejoin="round" stroke-miterlimit="10" d="M21.5 21.5v-2"/><path fill="none" stroke="#F5BA9D" stroke-linecap="round" stroke-linejoin="round" stroke-miterlimit="10" d="M23.5 21.5v-2"/><path fill="#C8C6C4" d="M19 25h2v1h-2z"/><path fill="#C8C6C4" d="M22.578 27h-5.097a.414.414 0 0 1-.413-.414v-.172c0-.229.185-.414.413-.414h5.097c.229 0 .414.185.414.414v.172a.414.414 0 0 1-.414.414z"/><path fill="none" stroke="#D04727" stroke-linecap="round" stroke-linejoin="round" stroke-miterlimit="10" d="M13.524 31.609V27.64M12.244 28.764l1.28-1.233 1.33 1.233"/></svg>