<svg xmlns="http://www.w3.org/2000/svg" viewBox="0 0 40 40"><path fill="#FFB900" d="M19 11l-2.121-2.121A3 3 0 0 0 14.757 8H6a2 2 0 0 0-2 2v20a2 2 0 0 0 2 2h28a2 2 0 0 0 2-2V13a2 2 0 0 0-2-2H19z"/><path fill="#FFD75E" d="M19 11l-2.121 2.121a3 3 0 0 1-2.122.879H4v16a2 2 0 0 0 2 2h28a2 2 0 0 0 2-2V13a2 2 0 0 0-2-2H19z"/><linearGradient id="a" gradientUnits="userSpaceOnUse" x1="20" y1="11" x2="20" y2="32"><stop offset="0" stop-color="#fff" stop-opacity="0"/><stop offset=".999" stop-color="#ffd75e" stop-opacity=".3"/></linearGradient><path fill="url(#a)" d="M19 11l-2.121 2.121a3 3 0 0 1-2.122.879H4v16a2 2 0 0 0 2 2h28a2 2 0 0 0 2-2V13a2 2 0 0 0-2-2H19z"/><path opacity=".4" fill="#FFF" d="M16.879 13.121a3 3 0 0 1-2.122.879H4v1h11.05a3.5 3.5 0 0 0 2.475-1.025L20.5 11H19l-2.121 2.121z"/><path fill="#E67628" d="M6 32h28a2 2 0 0 0 1.918-1.43c-.35.277-.784.43-1.233.43H5.315a1.98 1.98 0 0 1-1.233-.43A2 2 0 0 0 6 32z"/><g><path fill="#BF5712" d="M32.643 28.032a.374.374 0 0 1-.265-.11l-7.326-7.297a.375.375 0 1 1 .53-.53l7.325 7.296a.375.375 0 0 1-.264.641zM28.848 22.125l1.828-1.831.532.53-1.828 1.831z"/><path fill="#BF5712" d="M25.344 28.031a.375.375 0 0 1-.364-.466l.5-2a.377.377 0 0 1 .098-.174l2.478-2.478.53.53-2.403 2.405-.324 1.293 1.293-.323 2.349-2.35.531.53-2.423 2.423a.38.38 0 0 1-.175.099l-2 .5a.386.386 0 0 1-.09.011zM30.435 23.538l1.74-1.744.532.531-1.74 1.743z"/><path fill="#BF5712" d="M32.705 22.326l-.531-.53c.373-.373.465-.91.202-1.172-.26-.263-.799-.17-1.172.202l-.53-.53c.672-.673 1.672-.762 2.233-.203.559.56.469 1.561-.202 2.233zM30.079 21.421l.531-.53 1.5 1.499-.531.531z"/></g></svg>