<svg xmlns="http://www.w3.org/2000/svg" viewBox="0 0 40 40"><g fill="#FFF"><path d="M9.386 35H30.6c.216 0 .4-.17.4-.372V12h-5.6c-.772 0-1.4-.628-1.4-1.4V5H9.4c-.216 0-.4.17-.4.372v29.27c0 .197.173.358.386.358z"/><path d="M30.204 11L25 5.815V10.6c0 .22.18.4.4.4h4.804z"/></g><path opacity=".64" fill="#605E5C" d="M31.613 10.993l-6.595-6.572A1.45 1.45 0 0 0 24 4H9.4C8.628 4 8 4.615 8 5.372v29.27C8 35.39 8.622 36 9.386 36H30.6c.772 0 1.4-.615 1.4-1.372V11.923c0-.346-.14-.686-.387-.93zM25 5.815L30.204 11H25.4a.4.4 0 0 1-.4-.4V5.815zm6 28.813c0 .202-.184.372-.4.372H9.386C9.173 35 9 34.84 9 34.642V5.372C9 5.17 9.184 5 9.4 5H24v5.6c0 .772.628 1.4 1.4 1.4H31v22.628z"/><path fill="#69AFE5" d="M28.5 17h-8.969a.5.5 0 0 1 0-1H28.5a.5.5 0 0 1 0 1zM28.5 20h-8.969a.5.5 0 0 1 0-1H28.5a.5.5 0 0 1 0 1z"/><path fill="#0078D7" d="M28.5 23h-17a.5.5 0 0 1 0-1h17a.5.5 0 0 1 0 1z"/><path fill="#C8C6C4" d="M19.5 26h-8a.5.5 0 0 1 0-1h8a.5.5 0 0 1 0 1zM19.5 29h-8a.5.5 0 0 1 0-1h8a.5.5 0 0 1 0 1zM19.5 32h-8a.5.5 0 0 1 0-1h8a.5.5 0 0 1 0 1z"/><path fill="#69AFE5" d="M28 32h-5a1 1 0 0 1-1-1v-5a1 1 0 0 1 1-1h5a1 1 0 0 1 1 1v5a1 1 0 0 1-1 1z"/><path fill="#0078D7" d="M17.972 20H16.46l-.601-1.569h-2.751L12.54 20h-1.474l2.68-6.906h1.47L17.972 20zm-2.559-2.732l-.948-2.563-.93 2.563h1.878z"/></svg>