<svg xmlns="http://www.w3.org/2000/svg" viewBox="0 0 40 40"><path fill="#FFB900" d="M19 11l-2.121-2.121A3 3 0 0 0 14.757 8H6a2 2 0 0 0-2 2v20a2 2 0 0 0 2 2h28a2 2 0 0 0 2-2V13a2 2 0 0 0-2-2H19z"/><path fill="#FFD75E" d="M19 11l-2.121 2.121a3 3 0 0 1-2.122.879H4v16a2 2 0 0 0 2 2h28a2 2 0 0 0 2-2V13a2 2 0 0 0-2-2H19z"/><linearGradient id="a" gradientUnits="userSpaceOnUse" x1="20" y1="11" x2="20" y2="32"><stop offset="0" stop-color="#fff" stop-opacity="0"/><stop offset=".999" stop-color="#ffd75e" stop-opacity=".3"/></linearGradient><path fill="url(#a)" d="M19 11l-2.121 2.121a3 3 0 0 1-2.122.879H4v16a2 2 0 0 0 2 2h28a2 2 0 0 0 2-2V13a2 2 0 0 0-2-2H19z"/><path opacity=".4" fill="#FFF" d="M16.879 13.121a3 3 0 0 1-2.122.879H4v1h11.05a3.5 3.5 0 0 0 2.475-1.025L20.5 11H19l-2.121 2.121z"/><path fill="#E67628" d="M6 32h28a2 2 0 0 0 1.918-1.43c-.35.277-.784.43-1.233.43H5.315a1.98 1.98 0 0 1-1.233-.43A2 2 0 0 0 6 32z"/><g><path fill="#BF5712" d="M32.492 23.207a2.447 2.447 0 0 1 1.247 1.5c.064.214.094.437.094.667h-.604c0-.249-.047-.484-.144-.704a1.88 1.88 0 0 0-.39-.576c-.162-.163-.356-.293-.575-.39s-.456-.143-.704-.143c-.248 0-.484.048-.703.144s-.414.226-.576.39a1.88 1.88 0 0 0-.39.575c-.097.22-.144.455-.144.704 0 .286-.066.559-.196.817-.13.257-.311.472-.54.642a2.433 2.433 0 0 1 1.247 1.5c.063.214.093.437.093.667h-.604c0-.248-.048-.483-.144-.704s-.227-.412-.39-.575a1.859 1.859 0 0 0-.576-.39c-.22-.096-.455-.144-.703-.144s-.484.048-.704.144c-.22.096-.413.226-.576.39-.163.163-.293.355-.39.576s-.143.455-.143.703h-.605c0-.23.031-.453.095-.668s.153-.417.269-.604a2.445 2.445 0 0 1 .977-.895 1.797 1.797 0 0 1-.54-.642 1.796 1.796 0 0 1-.052-1.52 1.88 1.88 0 0 1 .39-.577c.162-.163.356-.293.575-.39.22-.095.456-.143.704-.143.285 0 .56.065.816.196.258.13.473.31.643.54a2.466 2.466 0 0 1 1.09-1.09 1.797 1.797 0 0 1-.54-.642 1.796 1.796 0 0 1-.052-1.52 1.88 1.88 0 0 1 .39-.577c.162-.163.356-.293.575-.39s.456-.143.704-.143c.248 0 .484.048.703.144s.413.226.576.39c.163.163.293.355.39.575a1.796 1.796 0 0 1-.052 1.52c-.13.258-.312.473-.54.643zm-4.702 3.376a1.225 1.225 0 0 0 1.112-.739c.063-.147.096-.303.096-.47a1.212 1.212 0 0 0-.741-1.112 1.166 1.166 0 0 0-.467-.097c-.168 0-.324.033-.47.097a1.242 1.242 0 0 0-.642.644 1.17 1.17 0 0 0 0 .938 1.231 1.231 0 0 0 .642.642c.146.064.302.097.47.097zm2.417-4.835c0 .167.033.323.097.47s.151.273.26.382.236.195.382.26c.146.064.302.096.47.096a1.225 1.225 0 0 0 1.112-.739 1.172 1.172 0 0 0 0-.937 1.222 1.222 0 0 0-1.112-.741c-.168 0-.324.032-.47.097a1.242 1.242 0 0 0-.642.644 1.172 1.172 0 0 0-.097.468z"/></g></svg>