<svg xmlns="http://www.w3.org/2000/svg" viewBox="0 0 40 40"><path opacity=".64" fill="#605E5C" d="M34.574 33H11.426C10.64 33 10 32.389 10 31.638V8.362C10 7.612 10.64 7 11.426 7h23.148C35.36 7 36 7.611 36 8.362v23.276c0 .75-.64 1.362-1.426 1.362zM11.426 8c-.235 0-.426.162-.426.362v23.276c0 .2.191.362.426.362h23.148c.235 0 .426-.162.426-.362V8.362c0-.2-.191-.362-.426-.362H11.426z"/><path fill="#FFF" d="M11.426 8c-.235 0-.426.162-.426.362v23.276c0 .2.191.362.426.362h23.148c.235 0 .426-.162.426-.362V8.362c0-.2-.191-.362-.426-.362H11.426z"/><g fill="#C8C6C4"><circle cx="14" cy="11" r="1"/><circle cx="17" cy="11" r="1"/><circle cx="20" cy="11" r="1"/></g><path fill="#81C8C3" d="M16 23h15a1 1 0 0 0 1-1v-5a1 1 0 0 0-1-1H16a1 1 0 0 0-1 1v5a1 1 0 0 0 1 1z"/><path fill="#C8C6C4" d="M31.517 25H13.17c-.266 0-.482.224-.482.5s.216.5.482.5h18.347c.267 0 .483-.224.483-.5s-.216-.5-.483-.5zM31.517 28H13.17c-.266 0-.482.224-.482.5s.216.5.482.5h18.347c.267 0 .483-.224.483-.5s-.216-.5-.483-.5z"/><path fill="#03787C" d="M5.5 30h13a1.5 1.5 0 0 0 1.5-1.5v-13a1.5 1.5 0 0 0-1.5-1.5h-13A1.5 1.5 0 0 0 4 15.5v13A1.5 1.5 0 0 0 5.5 30z"/><path fill="#FFF" d="M9.404 21.825a2.745 2.745 0 0 1-.887-.87c-.206-.335-.309-.732-.309-1.19 0-.612.192-1.125.575-1.54s.892-.725 1.527-.925c.635-.2 1.33-.3 2.087-.3 1.158 0 1.93.118 2.603.356v1.8c-.359-.207-.628-.362-1.098-.47a6.482 6.482 0 0 0-1.454-.162c-.602 0-1.1.097-1.494.294-.396.194-.593.472-.593.832 0 .225.084.422.25.59.168.169.393.318.677.448.283.13.706.304 1.269.52.097.031.157.054.181.067.665.252 1.198.496 1.6.731.402.237.718.531.945.884.228.353.342.797.342 1.332 0 .656-.18 1.191-.538 1.605-.359.413-.839.712-1.44.896s-1.284.277-2.05.277a11.65 11.65 0 0 1-1.858-.142c-.585-.094-1.224-.187-1.645-.363v-1.901c.412.283 1.057.466 1.663.633.606.166 1.166.249 1.68.249.674 0 1.181-.1 1.524-.3.34-.2.512-.482.512-.846a.871.871 0 0 0-.288-.648c-.191-.184-.456-.355-.792-.512a26.778 26.778 0 0 0-1.494-.62c-.611-.239-1.109-.48-1.495-.725z"/></svg>