<svg xmlns="http://www.w3.org/2000/svg" viewBox="0 0 40 40"><g fill="#FFF"><path d="M33.621 30.063c.21 0 .379-.155.379-.345V17h-5.606C27.625 17 27 16.364 27 15.582V9.937H6.379c-.21 0-.379.155-.379.346v19.435c0 .19.17.345.379.345H33.62z"/><path d="M28.394 16h5.179L28 10.641v4.94c0 .231.177.419.394.419z"/></g><g fill="#C8C6C4"><path d="M30.5 21h-3a.5.5 0 0 1 0-1h3a.5.5 0 0 1 0 1zM30.5 24h-3a.5.5 0 0 1 0-1h3a.5.5 0 0 1 0 1zM30.5 27h-3a.5.5 0 0 1 0-1h3a.5.5 0 0 1 0 1z"/></g><g fill="#C8C6C4"><path d="M24.5 18h-3a.5.5 0 0 1 0-1h3a.5.5 0 0 1 0 1zM24.5 15h-3a.5.5 0 0 1 0-1h3a.5.5 0 0 1 0 1zM24.5 21h-3a.5.5 0 0 1 0-1h3a.5.5 0 0 1 0 1zM24.5 24h-3a.5.5 0 0 1 0-1h3a.5.5 0 0 1 0 1zM24.5 27h-3a.5.5 0 0 1 0-1h3a.5.5 0 0 1 0 1z"/></g><g fill="#C8C6C4"><path d="M18.5 18h-3a.5.5 0 0 1 0-1h3a.5.5 0 0 1 0 1zM18.5 15h-3a.5.5 0 0 1 0-1h3a.5.5 0 0 1 0 1zM18.5 21h-3a.5.5 0 0 1 0-1h3a.5.5 0 0 1 0 1zM18.5 24h-3a.5.5 0 0 1 0-1h3a.5.5 0 0 1 0 1zM18.5 27h-3a.5.5 0 0 1 0-1h3a.5.5 0 0 1 0 1z"/></g><g fill="#217346"><path d="M12.5 18h-3a.5.5 0 0 1 0-1h3a.5.5 0 0 1 0 1zM12.5 15h-3a.5.5 0 0 1 0-1h3a.5.5 0 0 1 0 1zM12.5 21h-3a.5.5 0 0 1 0-1h3a.5.5 0 0 1 0 1zM12.5 24h-3a.5.5 0 0 1 0-1h3a.5.5 0 0 1 0 1zM12.5 27h-3a.5.5 0 0 1 0-1h3a.5.5 0 0 1 0 1z"/></g><path opacity=".64" fill="#605E5C" d="M35 16.575c0-.362-.148-.709-.41-.96l-6.519-6.232A1.417 1.417 0 0 0 27.1 9H6.379C5.619 9 5 9.6 5 10.337v19.326C5 30.4 5.618 31 6.379 31H33.62c.76 0 1.379-.6 1.379-1.337V16.575zm-7-5.934L33.573 16h-5.18c-.216 0-.393-.188-.393-.418v-4.94zm6 19.016c0 .189-.17.343-.379.343H6.38c-.21 0-.379-.154-.379-.343V10.343c0-.19.17-.343.379-.343H27v5.588c0 .779.625 1.412 1.394 1.412H34v12.657z"/></svg>