<svg xmlns="http://www.w3.org/2000/svg" viewBox="0 0 40 40"><path fill="#FFF" d="M7.235 6.824h25.53c.227 0 .411.184.411.411v25.53a.412.412 0 0 1-.411.411H7.235a.412.412 0 0 1-.412-.411V7.235c0-.227.185-.412.412-.412z"/><path opacity=".64" fill="#605E5C" d="M32.765 34H7.235A1.235 1.235 0 0 1 6 32.765V7.235C6 6.553 6.553 6 7.235 6h25.53C33.447 6 34 6.553 34 7.235v25.53c0 .682-.553 1.235-1.235 1.235zM7.235 6.823a.412.412 0 0 0-.412.412v25.53c0 .227.185.411.412.411h25.53a.412.412 0 0 0 .411-.411V7.235a.412.412 0 0 0-.411-.412H7.235z"/><path fill="none" d="M6 6h28v28H6z"/><g fill-rule="evenodd" clip-rule="evenodd"><path fill="#BC1948" d="M15.882 20v5.832a.76.76 0 0 0 1.172.634l9.246-5.95a.616.616 0 0 0 .288-.516H15.882z"/><path fill="#E8467C" d="M15.882 20v-5.832a.76.76 0 0 1 1.172-.634l9.246 5.95c.19.122.286.319.288.516H15.882z"/><path fill="#8C193F" d="M14.05 16.363l4.938 3.28a.43.43 0 0 1 0 .713l-4.939 3.281c-.275.183-.637-.02-.637-.356V16.72c0-.336.362-.539.637-.356"/></g></svg>