<svg xmlns="http://www.w3.org/2000/svg" viewBox="0 0 40 40"><g fill="#FFF"><path d="M13.386 35H34.6c.216 0 .4-.17.4-.372V12h-5.6c-.772 0-1.4-.628-1.4-1.4V5H13.4c-.216 0-.4.17-.4.372v29.27c0 .197.173.358.386.358z"/><path d="M34.204 11L29 5.815V10.6c0 .22.18.4.4.4h4.804z"/></g><path opacity=".64" fill="#605E5C" d="M35.613 10.993l-6.595-6.572A1.45 1.45 0 0 0 28 4H13.4c-.772 0-1.4.615-1.4 1.372v29.27c0 .749.622 1.358 1.386 1.358H34.6c.772 0 1.4-.615 1.4-1.372V11.923c0-.346-.14-.686-.387-.93zM29 5.815L34.204 11H29.4a.4.4 0 0 1-.4-.4V5.815zm6 28.813c0 .202-.184.372-.4.372H13.386c-.213 0-.386-.16-.386-.358V5.372c0-.202.184-.372.4-.372H28v5.6c0 .772.628 1.4 1.4 1.4H35v22.628z"/><path fill="#C8C6C4" d="M31.5 26h-15a.5.5 0 1 0 0 1h15a.5.5 0 1 0 0-1zM31.5 28h-15a.5.5 0 1 0 0 1h15a.5.5 0 1 0 0-1z"/><path fill="#99CDC7" d="M22.08 18.226L17 25h11.761l-5.08-6.774a1 1 0 0 0-1.6 0z"/><path fill="#99CDC7" d="M26.756 20.186L23.146 25h8.82l-3.61-4.814a1 1 0 0 0-1.6 0z"/><circle fill="#99CDC7" cx="30.5" cy="16.5" r="1.5"/><path fill="#008272" d="M5.5 30h13a1.5 1.5 0 0 0 1.5-1.5v-13a1.5 1.5 0 0 0-1.5-1.5h-13A1.5 1.5 0 0 0 4 15.5v13A1.5 1.5 0 0 0 5.5 30z"/><path fill="#FFF" d="M9.404 21.825a2.745 2.745 0 0 1-.887-.87c-.206-.335-.309-.732-.309-1.19 0-.612.192-1.125.575-1.54s.892-.725 1.527-.925c.635-.2 1.33-.3 2.087-.3 1.158 0 1.93.118 2.603.356v1.8c-.359-.207-.628-.362-1.098-.47a6.482 6.482 0 0 0-1.454-.162c-.602 0-1.1.097-1.494.294-.396.194-.593.472-.593.832 0 .225.084.422.25.59.168.169.393.318.677.448.283.13.706.304 1.269.52.097.031.157.054.181.067.665.252 1.198.496 1.6.731.402.237.718.531.945.884.228.353.342.797.342 1.332 0 .656-.18 1.191-.538 1.605-.359.413-.839.712-1.44.896s-1.284.277-2.05.277a11.65 11.65 0 0 1-1.858-.142c-.585-.094-1.224-.187-1.645-.363v-1.901c.412.283 1.057.466 1.663.633.606.166 1.166.249 1.68.249.674 0 1.181-.1 1.524-.3.34-.2.512-.482.512-.846a.871.871 0 0 0-.288-.648c-.191-.184-.456-.355-.792-.512a26.778 26.778 0 0 0-1.494-.62c-.611-.239-1.109-.48-1.495-.725z"/></svg>