<svg xmlns="http://www.w3.org/2000/svg" viewBox="0 0 40 40"><g fill="#FFF"><path d="M9.386 35H30.6c.216 0 .4-.17.4-.372V12h-5.6c-.772 0-1.4-.628-1.4-1.4V5H9.4c-.216 0-.4.17-.4.372v29.27c0 .197.173.358.386.358z"/><path d="M30.204 11L25 5.815V10.6c0 .22.18.4.4.4h4.804z"/></g><path opacity=".64" fill="#605E5C" d="M31.613 10.993l-6.595-6.572A1.45 1.45 0 0 0 24 4H9.4C8.628 4 8 4.615 8 5.372v29.27C8 35.39 8.622 36 9.386 36H30.6c.772 0 1.4-.615 1.4-1.372V11.923c0-.346-.14-.686-.387-.93zM25 5.815L30.204 11H25.4a.4.4 0 0 1-.4-.4V5.815zm6 28.813c0 .202-.184.372-.4.372H9.386C9.173 35 9 34.84 9 34.642V5.372C9 5.17 9.184 5 9.4 5H24v5.6c0 .772.628 1.4 1.4 1.4H31v22.628z"/><circle fill="none" stroke="#B4B0AD" stroke-linecap="round" stroke-linejoin="round" stroke-miterlimit="10" cx="19.991" cy="23.026" r="1.903"/><path fill="none" stroke="#B4B0AD" stroke-linecap="round" stroke-linejoin="bevel" stroke-miterlimit="10" d="M26.086 21.977l-1.356-.113a.095.095 0 0 1-.084-.07 4.814 4.814 0 0 0-.458-1.103.094.094 0 0 1 .01-.109l.88-1.04a.383.383 0 0 0-.022-.518l-1.026-1.026a.383.383 0 0 0-.519-.022l-1.04.88a.094.094 0 0 1-.108.01 4.817 4.817 0 0 0-1.107-.46.086.086 0 0 1-.066-.076l-.114-1.364a.381.381 0 0 0-.382-.35h-1.45c-.2 0-.366.153-.383.352l-.113 1.356a.095.095 0 0 1-.07.083c-.39.108-.761.264-1.106.46a.087.087 0 0 1-.102-.007l-1.045-.885a.381.381 0 0 0-.517.023l-1.026 1.026a.383.383 0 0 0-.022.519l.88 1.04c.026.03.03.073.01.108a4.814 4.814 0 0 0-.459 1.103.095.095 0 0 1-.083.07l-1.356.113a.383.383 0 0 0-.352.382v1.451c0 .2.153.366.351.382l1.356.113c.04.004.073.032.084.07.107.39.263.76.459 1.104a.094.094 0 0 1-.01.108l-.88 1.04a.383.383 0 0 0 .022.519l1.026 1.026c.14.14.366.15.518.021l1.04-.88a.094.094 0 0 1 .108-.01c.345.197.716.353 1.108.46.036.01.063.038.066.076l.113 1.365c.017.199.183.35.382.35h1.451c.2 0 .366-.153.382-.352l.113-1.356a.095.095 0 0 1 .07-.084c.391-.107.762-.263 1.106-.46a.087.087 0 0 1 .103.008l1.045.885a.381.381 0 0 0 .517-.023l1.026-1.026a.383.383 0 0 0 .021-.519l-.88-1.04a.094.094 0 0 1-.01-.108c.197-.344.352-.714.46-1.104a.095.095 0 0 1 .083-.07l1.356-.113a.383.383 0 0 0 .352-.382v-1.45c0-.2-.153-.366-.352-.383z"/></svg>