<svg xmlns="http://www.w3.org/2000/svg" viewBox="0 0 40 40"><linearGradient id="a" gradientUnits="userSpaceOnUse" x1="20" y1="9" x2="20" y2="31"><stop offset="0" stop-color="#c8c6c4"/><stop offset="1" stop-color="#b3b0ad"/></linearGradient><path fill-rule="evenodd" clip-rule="evenodd" fill="url(#a)" d="M34 31H6a2 2 0 0 1-2-2V11a2 2 0 0 1 2-2h28a2 2 0 0 1 2 2v18a2 2 0 0 1-2 2z"/><linearGradient id="b" gradientUnits="userSpaceOnUse" x1="8" y1="32.023" x2="8" y2="30.986"><stop offset=".001" stop-color="#797775"/><stop offset="1" stop-color="#605e5c"/></linearGradient><path fill="url(#b)" d="M6.362 31.724a.5.5 0 0 0 .447.276h2.382a.5.5 0 0 0 .447-.276L10 31H6l.362.724z"/><linearGradient id="c" gradientUnits="userSpaceOnUse" x1="32" y1="32.023" x2="32" y2="30.986"><stop offset=".001" stop-color="#797775"/><stop offset="1" stop-color="#605e5c"/></linearGradient><path fill="url(#c)" d="M30.362 31.724a.5.5 0 0 0 .447.276h2.382a.5.5 0 0 0 .447-.276L34 31h-4l.362.724z"/><path fill="#797775" d="M6 11h26v18H6z"/><linearGradient id="d" gradientUnits="userSpaceOnUse" x1="6" y1="20" x2="8" y2="20"><stop offset="0" stop-color="#a19f9d"/><stop offset=".999" stop-color="#605e5c" stop-opacity=".3"/></linearGradient><path fill="url(#d)" d="M8 27l-2 2V11l2 2z"/><linearGradient id="e" gradientUnits="userSpaceOnUse" x1="17.5" y1="11" x2="17.5" y2="13"><stop offset="0" stop-color="#a19f9d"/><stop offset=".999" stop-color="#605e5c" stop-opacity=".3"/></linearGradient><path fill="url(#e)" d="M29 13H8l-2-2h23z"/><linearGradient id="f" gradientUnits="userSpaceOnUse" x1="17.5" y1="29" x2="17.5" y2="27"><stop offset="0" stop-color="#a19f9d"/><stop offset=".999" stop-color="#605e5c" stop-opacity=".3"/></linearGradient><path fill="url(#f)" d="M29 29H6l2-2h21z"/><linearGradient id="g" gradientUnits="userSpaceOnUse" x1="32.5" y1="15" x2="32.5" y2="25"><stop offset=".001" stop-color="#797775"/><stop offset="1" stop-color="#605e5c"/></linearGradient><path fill="url(#g)" d="M32.2 25H32V15h.2a.8.8 0 0 1 .8.8v8.4a.8.8 0 0 1-.8.8z"/><path fill="#E1DFDD" d="M32 31h-2.2a.8.8 0 0 1-.8-.8V8.8a.8.8 0 0 1 .8-.8H32v23zM29 30h-1.2a.8.8 0 0 1-.8-.8V9.8a.8.8 0 0 1 .8-.8H29v21z"/><linearGradient id="h" gradientUnits="userSpaceOnUse" x1="30.5" y1="8" x2="30.5" y2="31"><stop offset="0" stop-color="#e1dfdd" stop-opacity="0"/><stop offset="1" stop-color="#bebbb8" stop-opacity=".2"/></linearGradient><path fill="url(#h)" d="M32 31h-2.2a.8.8 0 0 1-.8-.8V8.8a.8.8 0 0 1 .8-.8H32v23z"/><linearGradient id="i" gradientUnits="userSpaceOnUse" x1="27" y1="19.5" x2="29" y2="19.5"><stop offset="0" stop-color="#e1dfdd" stop-opacity="0"/><stop offset=".999" stop-color="#c8c6c4" stop-opacity=".8"/></linearGradient><path fill="url(#i)" d="M29 30h-1.2a.8.8 0 0 1-.8-.8V9.8a.8.8 0 0 1 .8-.8H29v21z"/><linearGradient id="j" gradientUnits="userSpaceOnUse" x1="30.5" y1="10" x2="30.5" y2="13"><stop offset=".002" stop-color="#bebbb8"/><stop offset="1" stop-color="#c8c6c4"/></linearGradient><path fill="url(#j)" d="M30.5 13a.5.5 0 0 1-.5-.5v-2a.5.5 0 0 1 1 0v2a.5.5 0 0 1-.5.5z"/><linearGradient id="k" gradientUnits="userSpaceOnUse" x1="30.5" y1="18" x2="30.5" y2="21"><stop offset=".002" stop-color="#bebbb8"/><stop offset="1" stop-color="#c8c6c4"/></linearGradient><path fill="url(#k)" d="M30.5 21a.5.5 0 0 1-.5-.5v-2a.5.5 0 0 1 1 0v2a.5.5 0 0 1-.5.5z"/><linearGradient id="l" gradientUnits="userSpaceOnUse" x1="30.5" y1="26" x2="30.5" y2="29"><stop offset=".002" stop-color="#bebbb8"/><stop offset="1" stop-color="#c8c6c4"/></linearGradient><path fill="url(#l)" d="M30.5 29a.5.5 0 0 1-.5-.5v-2a.5.5 0 0 1 1 0v2a.5.5 0 0 1-.5.5z"/><path fill="#FFF" d="M22.5 28h-10a.5.5 0 0 1-.5-.5v-13a.5.5 0 0 1 .5-.5H19l4 4v9.5a.5.5 0 0 1-.5.5z"/><path fill="#EDEBE9" d="M23 18h-3.5a.5.5 0 0 1-.5-.5V14l4 4z"/></svg>