<svg xmlns="http://www.w3.org/2000/svg" viewBox="0 0 40 40"><linearGradient id="a" gradientUnits="userSpaceOnUse" x1="20" y1="9" x2="20" y2="31"><stop offset="0" stop-color="#c8c6c4"/><stop offset="1" stop-color="#b3b0ad"/></linearGradient><path fill-rule="evenodd" clip-rule="evenodd" fill="url(#a)" d="M34 31H6a2 2 0 0 1-2-2V11a2 2 0 0 1 2-2h28a2 2 0 0 1 2 2v18a2 2 0 0 1-2 2z"/><linearGradient id="b" gradientUnits="userSpaceOnUse" x1="8" y1="32.023" x2="8" y2="30.986"><stop offset=".001" stop-color="#797775"/><stop offset="1" stop-color="#605e5c"/></linearGradient><path fill="url(#b)" d="M6.362 31.724a.5.5 0 0 0 .447.276h2.382a.5.5 0 0 0 .447-.276L10 31H6l.362.724z"/><linearGradient id="c" gradientUnits="userSpaceOnUse" x1="32" y1="32.023" x2="32" y2="30.986"><stop offset=".001" stop-color="#797775"/><stop offset="1" stop-color="#605e5c"/></linearGradient><path fill="url(#c)" d="M30.362 31.724a.5.5 0 0 0 .447.276h2.382a.5.5 0 0 0 .447-.276L34 31h-4l.362.724z"/><linearGradient id="d" gradientUnits="userSpaceOnUse" x1="19" y1="11" x2="19" y2="29"><stop offset=".002" stop-color="#979593"/><stop offset="1" stop-color="#8a8886"/></linearGradient><path fill="url(#d)" d="M31 12v16H7V12h24m0-1H7a1 1 0 0 0-1 1v16a1 1 0 0 0 1 1h24a1 1 0 0 0 1-1V12a1 1 0 0 0-1-1z"/><linearGradient id="e" gradientUnits="userSpaceOnUse" x1="31.5" y1="14" x2="31.5" y2="16"><stop offset=".001" stop-color="#797775"/><stop offset="1" stop-color="#605e5c"/></linearGradient><path fill="url(#e)" d="M33.5 16h-4a.5.5 0 0 1-.5-.5v-1a.5.5 0 0 1 .5-.5h4a.5.5 0 0 1 .5.5v1a.5.5 0 0 1-.5.5z"/><linearGradient id="f" gradientUnits="userSpaceOnUse" x1="31.5" y1="24" x2="31.5" y2="26"><stop offset=".001" stop-color="#797775"/><stop offset="1" stop-color="#605e5c"/></linearGradient><path fill="url(#f)" d="M33.5 26h-4a.5.5 0 0 1-.5-.5v-1a.5.5 0 0 1 .5-.5h4a.5.5 0 0 1 .5.5v1a.5.5 0 0 1-.5.5z"/><linearGradient id="g" gradientUnits="userSpaceOnUse" x1="10.5" y1="15" x2="10.5" y2="25"><stop offset=".001" stop-color="#797775"/><stop offset="1" stop-color="#605e5c"/></linearGradient><path fill="url(#g)" d="M10.5 25a.7.7 0 0 0 .697-.64l.675-7.865a1.377 1.377 0 1 0-2.744 0l.674 7.865a.7.7 0 0 0 .697.64z"/><linearGradient id="h" gradientUnits="userSpaceOnUse" x1="20" y1="14" x2="20" y2="26"><stop offset=".001" stop-color="#8a8886"/><stop offset="1" stop-color="#797775"/></linearGradient><path fill="url(#h)" d="M20 17c1.654 0 3 1.346 3 3s-1.346 3-3 3-3-1.346-3-3 1.346-3 3-3m0-3a6 6 0 1 0 0 12 6 6 0 0 0 0-12z"/></svg>