<svg xmlns="http://www.w3.org/2000/svg" viewBox="0 0 40 40"><g fill="#FFF"><path d="M9.386 35H30.6c.216 0 .4-.17.4-.372V12h-5.6c-.772 0-1.4-.628-1.4-1.4V5H9.4c-.216 0-.4.17-.4.372v29.27c0 .197.173.358.386.358z"/><path d="M30.204 11L25 5.815V10.6c0 .22.18.4.4.4h4.804z"/></g><path opacity=".64" fill="#605E5C" d="M31.613 10.993l-6.595-6.572A1.45 1.45 0 0 0 24 4H9.4C8.628 4 8 4.615 8 5.372v29.27C8 35.39 8.622 36 9.386 36H30.6c.772 0 1.4-.615 1.4-1.372V11.923c0-.346-.14-.686-.387-.93zM25 5.815L30.204 11H25.4a.4.4 0 0 1-.4-.4V5.815zm6 28.813c0 .202-.184.372-.4.372H9.386C9.173 35 9 34.84 9 34.642V5.372C9 5.17 9.184 5 9.4 5H24v5.6c0 .772.628 1.4 1.4 1.4H31v22.628z"/><path fill="none" stroke="#C8C6C4" stroke-linecap="round" stroke-miterlimit="10" d="M12.563 28.2c.13-5.212 3.779-11.7 11.937-11.7"/><path fill="none" stroke="#0078D7" stroke-miterlimit="10" d="M13.5 31.5h-1a1 1 0 0 1-1-1v-1a1 1 0 0 1 1-1h1a1 1 0 0 1 1 1v1a1 1 0 0 1-1 1zM26.5 18.5h-1a1 1 0 0 1-1-1v-1a1 1 0 0 1 1-1h1a1 1 0 0 1 1 1v1a1 1 0 0 1-1 1z"/><circle fill="#0078D7" cx="17" cy="19" r="3.5"/><path fill="#FFF" d="M17 16a3 3 0 1 1 0 6 3 3 0 0 1 0-6m0-1c-2.206 0-4 1.794-4 4s1.794 4 4 4 4-1.794 4-4-1.794-4-4-4z"/><path fill="#0078D7" d="M21.327 25.016l6.516 2.443a.242.242 0 0 1-.026.461l-3.117.78-.78 3.117a.242.242 0 0 1-.46.026l-2.444-6.516a.242.242 0 0 1 .311-.311z"/></svg>