<svg xmlns="http://www.w3.org/2000/svg" viewBox="0 0 40 40"><path fill="#FFF" d="M6.5 34h27c.275 0 .5-.225.5-.5v-27c0-.275-.225-.5-.5-.5h-27c-.275 0-.5.225-.5.5v27c0 .275.225.5.5.5z"/><path opacity=".64" fill="#605E5C" d="M33.5 35h-27c-.827 0-1.5-.673-1.5-1.5v-27C5 5.673 5.673 5 6.5 5h27c.827 0 1.5.673 1.5 1.5v27c0 .827-.673 1.5-1.5 1.5zM6.5 6a.5.5 0 0 0-.5.5v27a.5.5 0 0 0 .5.5h27a.5.5 0 0 0 .5-.5v-27a.5.5 0 0 0-.5-.5h-27z"/><path fill="none" stroke="#69AFE5" stroke-linecap="round" stroke-linejoin="round" stroke-miterlimit="10" d="M26 20.1L16.5 15v10.2z"/></svg>