<svg xmlns="http://www.w3.org/2000/svg" viewBox="0 0 40 40"><path fill="#FFF" d="M33.492 10.028C31.162 10.765 26.31 12 20 12c-6.956 0-12.459-1.64-13.491-1.969a.422.422 0 0 0-.383.057.287.287 0 0 0-.126.227v19.38c0 .119.08.194.126.228a.43.43 0 0 0 .383.058C7.547 29.65 13.083 28 20.05 28c6.241 0 11.1 1.242 13.441 1.982.134.04.276.02.383-.058a.285.285 0 0 0 .125-.227V10.313a.285.285 0 0 0-.125-.227.427.427 0 0 0-.383-.058z"/><path opacity=".64" fill="none" stroke="#605E5C" stroke-miterlimit="10" d="M5.5 10.316v19.38c0 .551.59.942 1.16.76 2.154-.684 7.307-1.956 13.391-1.956 6.308 0 11.126 1.274 13.29 1.959.57.18 1.159-.21 1.159-.762V10.313c0-.55-.589-.941-1.158-.762C31.175 10.236 26.364 11.5 20 11.5c-6.028 0-11.189-1.26-13.34-1.946-.57-.181-1.16.21-1.16.761z"/><path fill="none" stroke="#69AFE5" stroke-linecap="round" stroke-linejoin="round" stroke-miterlimit="10" d="M24 20.177l-6.5-3.824V24z"/><g fill="#C8C6C4"><circle cx="31" cy="16" r="1"/><circle cx="31" cy="20" r="1"/><circle cx="31" cy="24" r="1"/></g><g fill="#C8C6C4"><circle cx="9" cy="16" r="1"/><circle cx="9" cy="20" r="1"/><circle cx="9" cy="24" r="1"/></g></svg>