<svg xmlns="http://www.w3.org/2000/svg" viewBox="0 0 40 40"><path opacity=".64" fill="#605E5C" d="M34.6 36H13.386C12.622 36 12 35.39 12 34.642V5.372C12 4.616 12.628 4 13.4 4h21.1c.827 0 1.5.673 1.5 1.5v29.128c0 .757-.628 1.372-1.4 1.372zM13.4 5c-.216 0-.4.17-.4.372v29.27c0 .197.173.358.386.358H34.6c.216 0 .4-.17.4-.372V5.5a.5.5 0 0 0-.5-.5H13.4z"/><path fill="#FFF" d="M13.386 35H34.6c.216 0 .4-.17.4-.372V5.5a.5.5 0 0 0-.5-.5H13.4c-.216 0-.4.17-.4.372v29.27c0 .197.173.358.386.358z"/><path fill="#185ABD" d="M5.5 30h13a1.5 1.5 0 0 0 1.5-1.5v-13a1.5 1.5 0 0 0-1.5-1.5h-13A1.5 1.5 0 0 0 4 15.5v13A1.5 1.5 0 0 0 5.5 30z"/><path fill="#FFF" d="M11.54 23.592c.288.829.458 1.352.51 1.57h.035c.052-.218.236-.778.553-1.681L14.91 17H17l-3.852 9.96H10.91L7.107 17H9.26l2.28 6.592z"/><g fill="#C8C6C4"><path opacity=".64" d="M30.5 18h-4c-.827 0-1.5-.673-1.5-1.5v-7c0-.827.673-1.5 1.5-1.5h4c.827 0 1.5.673 1.5 1.5v7c0 .827-.673 1.5-1.5 1.5zm-4-9a.5.5 0 0 0-.5.5v7a.5.5 0 0 0 .5.5h4a.5.5 0 0 0 .5-.5v-7a.5.5 0 0 0-.5-.5h-4zM30.5 32h-4c-.827 0-1.5-.673-1.5-1.5v-7c0-.827.673-1.5 1.5-1.5h4c.827 0 1.5.673 1.5 1.5v7c0 .827-.673 1.5-1.5 1.5zm-4-9a.5.5 0 0 0-.5.5v7a.5.5 0 0 0 .5.5h4a.5.5 0 0 0 .5-.5v-7a.5.5 0 0 0-.5-.5h-4zM22 22.092V30.5a.5.5 0 0 1-.5.5h-.558c-.631.617-1.492 1-2.442 1h3c.827 0 1.5-.673 1.5-1.5v-7c0-.65-.42-1.2-1-1.408zM21.5 8h-4c-.827 0-1.5.673-1.5 1.5V12h1V9.5a.5.5 0 0 1 .5-.5h4a.5.5 0 0 1 .5.5v8.408c.58-.207 1-.757 1-1.408v-7c0-.827-.673-1.5-1.5-1.5z"/></g></svg>