<svg xmlns="http://www.w3.org/2000/svg" viewBox="0 0 40 40"><g fill="#FFF"><path d="M33 32.5c0 .827-.673 1.5-1.5 1.5H15v.607c0 .217.176.393.393.393h19.214a.393.393 0 0 0 .393-.393V7.5h.5v-.572l-3-1.678V8.5h.5v24z"/><path d="M12.5 33h19a.5.5 0 0 0 .5-.5v-24H12v24a.5.5 0 0 0 .5.5z"/></g><path opacity=".64" fill="#605E5C" d="M35 7.5v27.107a.393.393 0 0 1-.393.393H15.393a.393.393 0 0 1-.393-.393V34h16.5c.827 0 1.5-.673 1.5-1.5v-24h-1v24a.5.5 0 0 1-.5.5h-19a.5.5 0 0 1-.5-.5v-24h-1v24c0 .827.673 1.5 1.5 1.5H14v.607c0 .768.625 1.393 1.393 1.393h19.214c.768 0 1.393-.625 1.393-1.393V7.5h-1z"/><path fill="#3955A3" d="M5.5 30h13a1.5 1.5 0 0 0 1.5-1.5v-13a1.5 1.5 0 0 0-1.5-1.5h-13A1.5 1.5 0 0 0 4 15.5v13A1.5 1.5 0 0 0 5.5 30z"/><path fill="#FFF" d="M11.54 23.592c.288.829.458 1.352.51 1.57h.035c.052-.218.236-.778.553-1.681L14.91 17H17l-3.852 9.96H10.91L7.107 17H9.26l2.28 6.592z"/><path fill="#41A5EE" d="M33 4.01c-.017-.001-.032-.01-.048-.01h-21.06C11.4 4 11 4.4 11 4.893V8l.5.5h21L33 8V7l.5-.5V5l-.5-.99z"/><path fill="#2B7CD3" d="M11 8h22v1H11zM34.147 6.942L36 8.464V7.048a.892.892 0 0 0-.262-.63L33.584 4.26A.889.889 0 0 0 33 4.01v3.474a.701.701 0 0 1 1.147-.542z"/><g><path fill="#185ABD" d="M26.5 26h-3v-1h3a.5.5 0 0 0 .5-.5v-4h1v4a1.5 1.5 0 0 1-1.5 1.5z"/><path fill="#41A5EE" d="M22 23h2v5h-2z"/><path fill="#103F91" d="M24.5 19l3-3 3 3-3 3z"/></g></svg>