<svg xmlns="http://www.w3.org/2000/svg" viewBox="0 0 40 40"><g fill="#FFF"><path d="M13.386 35H34.6c.216 0 .4-.17.4-.372V12h-5.6c-.772 0-1.4-.628-1.4-1.4V5H13.4c-.216 0-.4.17-.4.372v29.27c0 .197.173.358.386.358z"/><path d="M34.204 11L29 5.815V10.6c0 .22.18.4.4.4h4.804z"/></g><path opacity=".64" fill="#605E5C" d="M35.613 10.993l-6.595-6.572A1.45 1.45 0 0 0 28 4H13.4c-.772 0-1.4.615-1.4 1.372v29.27c0 .749.622 1.358 1.386 1.358H34.6c.772 0 1.4-.615 1.4-1.372V11.923c0-.346-.14-.686-.387-.93zM29 5.815L34.204 11H29.4a.4.4 0 0 1-.4-.4V5.815zm6 28.813c0 .202-.184.372-.4.372H13.386c-.213 0-.386-.16-.386-.358V5.372c0-.202.184-.372.4-.372H28v5.6c0 .772.628 1.4 1.4 1.4H35v22.628z"/><path fill="#134A2C" d="M31 27h-3a1 1 0 1 1 0-2h3a1 1 0 1 1 0 2z"/><path fill="#185C37" d="M25 27h-3v-2h3a1 1 0 1 1 0 2z"/><path fill="#21A366" d="M31 23h-3a1 1 0 1 1 0-2h3a1 1 0 1 1 0 2z"/><path fill="#107C41" d="M25 23h-3v-2h3a1 1 0 1 1 0 2z"/><path fill="#33C481" d="M31 19h-3a1 1 0 1 1 0-2h3a1 1 0 1 1 0 2z"/><path fill="#21A366" d="M25 19h-3v-2h3a1 1 0 1 1 0 2z"/><g><path fill="#107C41" d="M5.5 30h13a1.5 1.5 0 0 0 1.5-1.5v-13a1.5 1.5 0 0 0-1.5-1.5h-13A1.5 1.5 0 0 0 4 15.5v13A1.5 1.5 0 0 0 5.5 30z"/><path fill="#F9F7F7" d="M8 27l2.898-5.013L8.243 17h2.136l1.449 3.186c.133.303.225.529.275.677h.02c.095-.242.194-.476.299-.705L13.97 17h1.96l-2.723 4.959L16 27h-2.086l-1.674-3.5a3.108 3.108 0 0 1-.2-.469h-.025c-.03.112-.093.264-.193.454L10.1 27H8z"/></g></svg>