<svg xmlns="http://www.w3.org/2000/svg" viewBox="0 0 40 40"><g fill="#FFF"><path d="M33 32.5c0 .827-.673 1.5-1.5 1.5H15v.607c0 .217.176.393.393.393h19.214a.393.393 0 0 0 .393-.393V7.5h.5v-.572l-3-1.678V8.5h.5v24z"/><path d="M12.5 33h19a.5.5 0 0 0 .5-.5v-24H12v24a.5.5 0 0 0 .5.5z"/></g><path opacity=".64" fill="#605E5C" d="M35 7.5v27.107a.393.393 0 0 1-.393.393H15.393a.393.393 0 0 1-.393-.393V34h16.5c.827 0 1.5-.673 1.5-1.5v-24h-1v24a.5.5 0 0 1-.5.5h-19a.5.5 0 0 1-.5-.5v-24h-1v24c0 .827.673 1.5 1.5 1.5H14v.607c0 .768.625 1.393 1.393 1.393h19.214c.768 0 1.393-.625 1.393-1.393V7.5h-1z"/><path fill="#33C481" d="M33 4.01c-.017-.001-.032-.01-.048-.01h-21.06C11.4 4 11 4.4 11 4.893V8l.5.5h21L33 8V7l.5-.5V5l-.5-.99z"/><path fill="#21A366" d="M11 8h22v1H11zM34.147 6.942L36 8.464V7.048a.892.892 0 0 0-.262-.63L33.584 4.26A.889.889 0 0 0 33 4.01v3.474a.701.701 0 0 1 1.147-.542z"/><path fill="#134A2C" d="M28 27h-2a1 1 0 1 1 0-2h2a1 1 0 1 1 0 2z"/><path fill="#185C37" d="M23 27h-1v-2h1a1 1 0 1 1 0 2z"/><path fill="#21A366" d="M28 23h-2a1 1 0 1 1 0-2h2a1 1 0 1 1 0 2z"/><path fill="#107C41" d="M23 23h-1v-2h1a1 1 0 1 1 0 2z"/><path fill="#33C481" d="M28 19h-2a1 1 0 1 1 0-2h2a1 1 0 1 1 0 2z"/><path fill="#21A366" d="M23 19h-1v-2h1a1 1 0 1 1 0 2z"/><g><path fill="#107C41" d="M5.5 30h13a1.5 1.5 0 0 0 1.5-1.5v-13a1.5 1.5 0 0 0-1.5-1.5h-13A1.5 1.5 0 0 0 4 15.5v13A1.5 1.5 0 0 0 5.5 30z"/><path fill="#F9F7F7" d="M8 27l2.898-5.013L8.243 17h2.136l1.449 3.186c.133.303.225.529.275.677h.02c.095-.242.194-.476.299-.705L13.97 17h1.96l-2.723 4.959L16 27h-2.086l-1.674-3.5a3.108 3.108 0 0 1-.2-.469h-.025c-.03.112-.093.264-.193.454L10.1 27H8z"/></g></svg>