<svg xmlns="http://www.w3.org/2000/svg" viewBox="0 0 40 40"><g fill="#FFF"><path d="M13.386 35H34.6c.216 0 .4-.17.4-.372V12h-5.6c-.772 0-1.4-.628-1.4-1.4V5H13.4c-.216 0-.4.17-.4.372v29.27c0 .197.173.358.386.358z"/><path d="M34.204 11L29 5.815V10.6c0 .22.18.4.4.4h4.804z"/></g><path opacity=".64" fill="#605E5C" d="M35.613 10.993l-6.595-6.572A1.45 1.45 0 0 0 28 4H13.4c-.772 0-1.4.615-1.4 1.372v29.27c0 .749.622 1.358 1.386 1.358H34.6c.772 0 1.4-.615 1.4-1.372V11.923c0-.346-.14-.686-.387-.93zM29 5.815L34.204 11H29.4a.4.4 0 0 1-.4-.4V5.815zm6 28.813c0 .202-.184.372-.4.372H13.386c-.213 0-.386-.16-.386-.358V5.372c0-.202.184-.372.4-.372H28v5.6c0 .772.628 1.4 1.4 1.4H35v22.628z"/><path fill="none" stroke="#C8C6C4" stroke-miterlimit="10" d="M30.5 31.5h-13a1 1 0 0 1-1-1v-2a1 1 0 0 1 1-1h13a1 1 0 0 1 1 1v2a1 1 0 0 1-1 1zM30.5 25.5h-13a1 1 0 0 1-1-1v-2a1 1 0 0 1 1-1h13a1 1 0 0 1 1 1v2a1 1 0 0 1-1 1zM30.5 19.5h-13a1 1 0 0 1-1-1v-2a1 1 0 0 1 1-1h13a1 1 0 0 1 1 1v2a1 1 0 0 1-1 1z"/><path fill="#C3A9D4" d="M29.45 17h-9.9c-.304 0-.55.224-.55.5s.246.5.55.5h9.9c.304 0 .55-.224.55-.5s-.246-.5-.55-.5zM29.45 23h-9.9c-.304 0-.55.224-.55.5s.246.5.55.5h9.9c.304 0 .55-.224.55-.5s-.246-.5-.55-.5zM29.4 29H18.6c-.332 0-.6.224-.6.5s.268.5.6.5h10.8c.332 0 .6-.224.6-.5s-.268-.5-.6-.5z"/><path fill="#6A3889" d="M5.5 30h13a1.5 1.5 0 0 0 1.5-1.5v-13a1.5 1.5 0 0 0-1.5-1.5h-13A1.5 1.5 0 0 0 4 15.5v13A1.5 1.5 0 0 0 5.5 30z"/><path fill="#FFF" d="M13 27h-2V17h2v10z"/></svg>