<svg xmlns="http://www.w3.org/2000/svg" viewBox="0 0 20 20"><g fill="#FFF"><path d="M18 7h-2.5c-.827 0-1.5-.673-1.5-1.5V2H6v16h12V7z"/><path d="M18 6v-.293l-3-3V5.5c0 .275.225.5.5.5H18z"/></g><path opacity=".64" fill="#605E5C" d="M18.707 5L15 1.293A1 1 0 0 0 14.293 1H6a1 1 0 0 0-1 1v16a1 1 0 0 0 1 1h12a1 1 0 0 0 1-1V5.707A1 1 0 0 0 18.707 5zM18 5.707V6h-2.5a.501.501 0 0 1-.5-.5V2.707l3 3zM6 17.8V2.2c0-.11.09-.2.2-.2H14v3.5A1.5 1.5 0 0 0 15.5 7H18v10.8a.2.2 0 0 1-.2.2H6.2a.2.2 0 0 1-.2-.2z"/><path fill="#AF2031" d="M2 16h8a1 1 0 0 0 1-1V7a1 1 0 0 0-1-1H2a1 1 0 0 0-1 1v8a1 1 0 0 0 1 1z"/><path fill="#FFF" d="M3.906 14h-.918l2.6-6h.847L9 14h-.918L6 9z"/><path fill="#FFF" d="M4.388 12h3.247l.306.753H4.106z"/><g><path fill="#C94F60" d="M16 9.5v3.246c0 .14-.114.254-.254.254H12v1h4a1 1 0 0 0 1-1V9.5h-1z"/><path fill="#E08095" d="M17 10h-5V8h4a1 1 0 0 1 1 1v1z"/></g></svg>