<svg xmlns="http://www.w3.org/2000/svg" viewBox="0 0 20 20"><path fill="#FFB900" d="M10 5L8.586 3.586A2 2 0 0 0 7.172 3H2a1 1 0 0 0-1 1v12a1 1 0 0 0 1 1h16a1 1 0 0 0 1-1V6a1 1 0 0 0-1-1h-8z"/><path fill="#FFD75E" d="M10 5L8.586 6.414A2 2 0 0 1 7.172 7H1v9a1 1 0 0 0 1 1h16a1 1 0 0 0 1-1V6a1 1 0 0 0-1-1h-8z"/><linearGradient id="a" gradientUnits="userSpaceOnUse" x1="10" y1="5" x2="10" y2="17"><stop offset="0" stop-color="#fff" stop-opacity="0"/><stop offset=".999" stop-color="#ffd75e" stop-opacity=".3"/></linearGradient><path fill="url(#a)" d="M10 5L8.586 6.414A2 2 0 0 1 7.172 7H1v9a1 1 0 0 0 1 1h16a1 1 0 0 0 1-1V6a1 1 0 0 0-1-1h-8z"/><path fill="#E67628" d="M2 16.5c-.373 0-.71-.142-.973-.367A.988.988 0 0 0 2 17h16c.505 0 .905-.38.973-.867-.262.226-.6.367-.973.367H2z"/><path opacity=".4" fill="#FFF" d="M8.836 6.914L10.75 5H10L8.586 6.414A2 2 0 0 1 7.172 7H1v.5h6.422a2 2 0 0 0 1.414-.586z"/><g fill="#BF5712"><path d="M7.75 10h-4.5a.25.25 0 0 0-.25.25v3.5c0 .138.112.25.25.25h4.5a.25.25 0 0 0 .25-.25v-3.5a.25.25 0 0 0-.25-.25zM7 13H4v-2h3v2zM1 11h1v2H1zM9 11h10v2H9z"/></g></svg>