<svg xmlns="http://www.w3.org/2000/svg" viewBox="0 0 20 20"><g fill="#FFF"><path d="M3.5 4a.5.5 0 0 0-.5.5V7h14V4.5a.5.5 0 0 0-.5-.5h-13zM17 16.5V8H3v8.5a.5.5 0 0 0 .5.5h13a.5.5 0 0 0 .5-.5z"/></g><path opacity=".64" fill="#605E5C" d="M16.5 3h-13C2.673 3 2 3.673 2 4.5v12c0 .827.673 1.5 1.5 1.5h13c.827 0 1.5-.673 1.5-1.5v-12c0-.827-.673-1.5-1.5-1.5zm.5 13.5a.5.5 0 0 1-.5.5h-13a.5.5 0 0 1-.5-.5V8h14v8.5zM3 7V4.5a.5.5 0 0 1 .5-.5h13a.5.5 0 0 1 .5.5V7H3z"/><circle fill="#C8C6C4" cx="5.5" cy="11.5" r=".5"/><circle fill="#C8C6C4" cx="8.5" cy="11.5" r=".5"/><circle fill="#C8C6C4" cx="11.5" cy="11.5" r=".5"/><circle fill="#C8C6C4" cx="5.5" cy="14.5" r=".5"/><circle fill="#C8C6C4" cx="8.5" cy="14.5" r=".5"/><circle fill="#C8C6C4" cx="11.5" cy="14.5" r=".5"/><circle fill="#C8C6C4" cx="14.5" cy="11.5" r=".5"/><circle fill="#C8C6C4" cx="14.5" cy="14.5" r=".5"/><path fill="#999796" d="M5.5 5a.5.5 0 0 1-.5-.5v-2a.5.5 0 0 1 1 0v2a.5.5 0 0 1-.5.5zM14.5 5a.5.5 0 0 1-.5-.5v-2a.5.5 0 0 1 1 0v2a.5.5 0 0 1-.5.5z"/></svg>