<svg xmlns="http://www.w3.org/2000/svg" viewBox="0 0 20 20"><path fill="#FFF" d="M13.51 14.888c.744 0 1.302.411 1.529 1.112H17.5a.5.5 0 0 0 .5-.5v-11a.5.5 0 0 0-.5-.5h-15a.5.5 0 0 0-.5.5v11a.5.5 0 0 0 .5.5h2.477c.236-.702.795-1.112 1.534-1.112.743 0 1.3.411 1.528 1.112h3.938c.236-.702.796-1.112 1.534-1.112z"/><g fill="none" stroke="#69AFE5" stroke-miterlimit="10"><circle cx="6.5" cy="8.519" r="1.273"/><path stroke-linecap="round" stroke-linejoin="round" d="M4.458 12.594s-.166-2.266 2.059-2.266c2.233 0 2.046 2.266 2.046 2.266"/></g><path fill="#C8C6C4" d="M11.516 8h3.986a.5.5 0 1 0 0-1h-3.986a.5.5 0 1 0 0 1zM11.516 10h3.986a.5.5 0 1 0 0-1h-3.986a.5.5 0 1 0 0 1zM11.516 12h3.986a.5.5 0 1 0 0-1h-3.986a.5.5 0 1 0 0 1z"/><path opacity=".64" fill="#605E5C" d="M17.5 17h-2.677a.71.71 0 0 1-.702-.566c-.113-.546-.475-.546-.61-.546-.137 0-.498 0-.62.552a.708.708 0 0 1-.7.56H7.822a.71.71 0 0 1-.702-.566c-.113-.546-.475-.546-.61-.546-.137 0-.498 0-.62.552a.708.708 0 0 1-.7.56H2.5c-.827 0-1.5-.673-1.5-1.5v-11C1 3.673 1.673 3 2.5 3h15c.827 0 1.5.673 1.5 1.5v11c0 .827-.673 1.5-1.5 1.5zm-5.586-.775v0zm-7 0v0zM15.04 16H17.5a.5.5 0 0 0 .5-.5v-11a.5.5 0 0 0-.5-.5h-15a.5.5 0 0 0-.5.5v11a.5.5 0 0 0 .5.5h2.477c.236-.702.795-1.112 1.534-1.112.743 0 1.3.411 1.528 1.112h3.938c.236-.702.795-1.112 1.534-1.112.743 0 1.3.411 1.528 1.112z"/></svg>