<svg xmlns="http://www.w3.org/2000/svg" viewBox="0 0 20 20"><g fill="#FFF"><path d="M18 7h-2.5c-.827 0-1.5-.673-1.5-1.5V2H6v16h12V7z"/><path d="M18 6v-.293l-3-3V5.5c0 .275.225.5.5.5H18z"/></g><path opacity=".64" fill="#605E5C" d="M18.707 5L15 1.293A1 1 0 0 0 14.293 1H6a1 1 0 0 0-1 1v16a1 1 0 0 0 1 1h12a1 1 0 0 0 1-1V5.707A1 1 0 0 0 18.707 5zM18 5.707V6h-2.5a.501.501 0 0 1-.5-.5V2.707l3 3zM6 17.8V2.2c0-.11.09-.2.2-.2H14v3.5A1.5 1.5 0 0 0 15.5 7H18v10.8a.2.2 0 0 1-.2.2H6.2a.2.2 0 0 1-.2-.2z"/><path fill="#107C41" d="M2 16h8a1 1 0 0 0 1-1V7a1 1 0 0 0-1-1H2a1 1 0 0 0-1 1v8a1 1 0 0 0 1 1z"/><g fill="#FFF"><path d="M4.606 14l3.707-6H7.15l-3.755 6z"/><path d="M7.373 14L3.667 8h1.162l3.754 6z"/></g><path fill="#33C481" d="M17 13.882h-.916v-.915h-.023c-.398.689-.986 1.033-1.76 1.033-.55 0-.993-.15-1.324-.45s-.498-.702-.498-1.21c0-1.065.63-1.686 1.89-1.865l1.715-.24c0-.969-.393-1.453-1.18-1.453-.688 0-1.31.233-1.865.698v-.938c.167-.127.454-.249.86-.366A3.97 3.97 0 0 1 14.982 8C16.327 8 17 8.713 17 10.14v3.742zm-.916-2.915l-1.386.195c-.473.067-.805.18-.995.338-.19.159-.285.414-.285.769 0 .286.102.516.307.69.205.173.468.259.789.259.454 0 .83-.16 1.125-.48.296-.32.445-.721.445-1.202v-.57z"/></svg>