<svg xmlns="http://www.w3.org/2000/svg" viewBox="0 0 20 20"><g fill="#FFF"><path d="M6 3h10v13H6z"/><path d="M18 3.733l-1-.841V16a1 1 0 0 1-1 1H8v1h10V3.733z"/></g><path opacity=".64" fill="#605E5C" d="M18 4v14H8v-1h8a1 1 0 0 0 1-1V2H5v14a1 1 0 0 0 1 1h1v1a1 1 0 0 0 1 1h10a1 1 0 0 0 1-1V4h-1zM6 3h10v13h.001l-.001.5V16H6V3z"/><path fill="#41A5EE" d="M17 1.097A.991.991 0 0 0 16.586 1H6a1 1 0 0 0-1 1v2h12V3l.5-.5v-.75l-.5-.653z"/><path fill="#2B7CD3" d="M19 5V3.414a1 1 0 0 0-.293-.707l-1.414-1.414A.997.997 0 0 0 17 1.097V3l2 2z"/><path fill="#185ABD" d="M14.5 12H12v1h2.5a.5.5 0 0 0 0-1z"/><path fill="#2B7CD3" d="M14.5 10H12v1h2.5a.5.5 0 0 0 0-1z"/><path fill="#41A5EE" d="M14.5 8H12v1h2.5a.5.5 0 0 0 0-1z"/><g><path fill="#185ABD" d="M2 16h8a1 1 0 0 0 1-1V7a1 1 0 0 0-1-1H2a1 1 0 0 0-1 1v8a1 1 0 0 0 1 1z"/><path fill="#FFF" d="M7.21 13.936L6 9.496l-1.206 4.44h-.876L2.755 8.094h.886l.808 3.826 1.074-3.826h.866l1.153 3.916.802-3.916h.885l-1.144 5.842z"/></g></svg>