<svg xmlns="http://www.w3.org/2000/svg" viewBox="0 0 20 20"><g fill="#FFF"><path d="M2 6h16V4.5c0-.275-.225-.5-.5-.5h-15c-.275 0-.5.225-.5.5V6zM2.5 16h15c.275 0 .5-.225.5-.5V7H2v8.5c0 .275.225.5.5.5z"/></g><path fill="#EDEBE9" d="M6 16H2.5a.5.5 0 0 1-.5-.5V7h4v9z"/><g fill="#C8C6C4"><path d="M4.5 9h-1a.5.5 0 0 1 0-1h1a.5.5 0 0 1 0 1zM4.5 11h-1a.5.5 0 0 1 0-1h1a.5.5 0 0 1 0 1zM4.5 13h-1a.5.5 0 0 1 0-1h1a.5.5 0 0 1 0 1z"/></g><g fill="#C8C6C4"><path d="M10.5 9h-3a.5.5 0 0 1 0-1h3a.5.5 0 0 1 0 1zM10.5 11h-3a.5.5 0 0 1 0-1h3a.5.5 0 0 1 0 1zM10.5 13h-3a.5.5 0 0 1 0-1h3a.5.5 0 0 1 0 1zM10.5 15h-3a.5.5 0 0 1 0-1h3a.5.5 0 0 1 0 1z"/></g><path fill="#69AFE5" d="M16 15h-3a1 1 0 0 1-1-1V9a1 1 0 0 1 1-1h3a1 1 0 0 1 1 1v5a1 1 0 0 1-1 1z"/><path opacity=".64" fill="#605E5C" d="M17.5 3h-15C1.673 3 1 3.673 1 4.5v11c0 .827.673 1.5 1.5 1.5h15c.827 0 1.5-.673 1.5-1.5v-11c0-.827-.673-1.5-1.5-1.5zm.5 12.5c0 .275-.225.5-.5.5h-15a.501.501 0 0 1-.5-.5V7h16v8.5zM18 6H2V4.5c0-.275.225-.5.5-.5h15c.275 0 .5.225.5.5V6z"/></svg>