<svg xmlns="http://www.w3.org/2000/svg" viewBox="0 0 20 20"><path fill="#FFB900" d="M10 5L8.586 3.586A2 2 0 0 0 7.172 3H2a1 1 0 0 0-1 1v12a1 1 0 0 0 1 1h16a1 1 0 0 0 1-1V6a1 1 0 0 0-1-1h-8z"/><path fill="#FFD75E" d="M10 5L8.586 6.414A2 2 0 0 1 7.172 7H1v9a1 1 0 0 0 1 1h16a1 1 0 0 0 1-1V6a1 1 0 0 0-1-1h-8z"/><linearGradient id="a" gradientUnits="userSpaceOnUse" x1="10" y1="5" x2="10" y2="17"><stop offset="0" stop-color="#fff" stop-opacity="0"/><stop offset=".999" stop-color="#ffd75e" stop-opacity=".3"/></linearGradient><path fill="url(#a)" d="M10 5L8.586 6.414A2 2 0 0 1 7.172 7H1v9a1 1 0 0 0 1 1h16a1 1 0 0 0 1-1V6a1 1 0 0 0-1-1h-8z"/><path fill="#E67628" d="M2 16.5c-.373 0-.71-.142-.973-.367A.988.988 0 0 0 2 17h16c.505 0 .905-.38.973-.867-.262.226-.6.367-.973.367H2z"/><path opacity=".4" fill="#FFF" d="M8.836 6.914L10.75 5H10L8.586 6.414A2 2 0 0 1 7.172 7H1v.5h6.422a2 2 0 0 0 1.414-.586z"/><g><path fill="#BF5712" d="M16.35 14.405l-2.207-1.728-2.145 1.72.71-2.684-2.002-1.612 2.583.057.885-2.564.85 2.564 2.62-.056-2.027 1.664.733 2.64zm-2.212-2.528l1.142.903-.377-1.24L16 10.768l-1.427.027-.41-1.42-.431 1.42-1.374-.026 1.06.712-.462 1.344 1.182-.948z"/></g></svg>