<svg xmlns="http://www.w3.org/2000/svg" viewBox="0 0 20 20"><g fill="#FFF"><path d="M16 7h-2.5c-.827 0-1.5-.673-1.5-1.5V2H4v16h12V7z"/><path d="M16 6v-.293l-3-3V5.5c0 .275.225.5.5.5H16z"/></g><path opacity=".64" fill="#605E5C" d="M16.707 5L13 1.293A1 1 0 0 0 12.293 1H4a1 1 0 0 0-1 1v16a1 1 0 0 0 1 1h12a1 1 0 0 0 1-1V5.707A1 1 0 0 0 16.707 5zM16 5.707V6h-2.5a.501.501 0 0 1-.5-.5V2.707l3 3zM4 17.8V2.2c0-.11.09-.2.2-.2H12v3.5A1.5 1.5 0 0 0 13.5 7H16v10.8a.2.2 0 0 1-.2.2H4.2a.2.2 0 0 1-.2-.2z"/></svg>