<svg xmlns="http://www.w3.org/2000/svg" viewBox="0 0 20 20"><path fill="#FFB900" d="M10 5L8.586 3.586A2 2 0 0 0 7.172 3H2a1 1 0 0 0-1 1v12a1 1 0 0 0 1 1h16a1 1 0 0 0 1-1V6a1 1 0 0 0-1-1h-8z"/><path fill="#FFD75E" d="M10 5L8.586 6.414A2 2 0 0 1 7.172 7H1v9a1 1 0 0 0 1 1h16a1 1 0 0 0 1-1V6a1 1 0 0 0-1-1h-8z"/><linearGradient id="a" gradientUnits="userSpaceOnUse" x1="10" y1="5" x2="10" y2="17"><stop offset="0" stop-color="#fff" stop-opacity="0"/><stop offset=".999" stop-color="#ffd75e" stop-opacity=".3"/></linearGradient><path fill="url(#a)" d="M10 5L8.586 6.414A2 2 0 0 1 7.172 7H1v9a1 1 0 0 0 1 1h16a1 1 0 0 0 1-1V6a1 1 0 0 0-1-1h-8z"/><path fill="#E67628" d="M2 16.5c-.373 0-.71-.142-.973-.367A.988.988 0 0 0 2 17h16c.505 0 .905-.38.973-.867-.262.226-.6.367-.973.367H2z"/><path opacity=".4" fill="#FFF" d="M8.836 6.914L10.75 5H10L8.586 6.414A2 2 0 0 1 7.172 7H1v.5h6.422a2 2 0 0 0 1.414-.586z"/><g fill="#BF5712"><path d="M14.832 10.219H13.32c-1.047 0-1.9.752-1.9 1.676v.429c0 .924.853 1.676 1.9 1.676h1.51c1.048 0 1.9-.752 1.9-1.676v-.429c0-.924-.852-1.676-1.9-1.676zm1.366 2.104c0 .664-.615 1.206-1.366 1.206H13.32c-.751 0-1.366-.542-1.366-1.206v-.428c0-.663.615-1.206 1.366-1.206H14.832c.751 0 1.366.543 1.366 1.206v.428z"/><path d="M12.504 8.375h-1.511c-1.048 0-1.9.774-1.9 1.726v.44c0 .953.852 1.727 1.9 1.727H12.504c1.047 0 1.899-.774 1.899-1.726V10.1c0-.952-.852-1.726-1.9-1.726zm1.366 2.167c0 .683-.615 1.241-1.366 1.241H10.992c-.752 0-1.367-.558-1.367-1.241V10.1c0-.683.615-1.241 1.367-1.241h1.51c.752 0 1.366.558 1.366 1.24v.442z"/></g></svg>