<svg xmlns="http://www.w3.org/2000/svg" viewBox="0 0 20 20"><g fill="#FFF"><path d="M2 6h16V4.5c0-.275-.225-.5-.5-.5h-15c-.275 0-.5.225-.5.5V6zM2.5 16h15c.275 0 .5-.225.5-.5V7H2v8.5c0 .275.225.5.5.5z"/></g><path opacity=".64" fill="#605E5C" d="M17.5 3h-15C1.673 3 1 3.673 1 4.5v11c0 .827.673 1.5 1.5 1.5h15c.827 0 1.5-.673 1.5-1.5v-11c0-.827-.673-1.5-1.5-1.5zm.5 12.5c0 .275-.225.5-.5.5h-15a.501.501 0 0 1-.5-.5V7h16v8.5zM18 6H2V4.5c0-.275.225-.5.5-.5h15c.275 0 .5.225.5.5V6z"/><g fill="none" stroke="#69AFE5" stroke-miterlimit="10"><ellipse cx="10" cy="11.521" rx="3.431" ry="3.021"/><ellipse cx="10" cy="11.521" rx="1.47" ry="3.021"/><path d="M7.059 10.226h5.882M7.059 12.816h5.882"/></g></svg>