<svg xmlns="http://www.w3.org/2000/svg" viewBox="0 0 20 20"><g fill="#FFF"><path d="M6 3h10v13H6z"/><path d="M18 3.733l-1-.841V16a1 1 0 0 1-1 1H8v1h10V3.733z"/></g><path opacity=".64" fill="#605E5C" d="M18 4v14H8v-1h8a1 1 0 0 0 1-1V2H5v14a1 1 0 0 0 1 1h1v1a1 1 0 0 0 1 1h10a1 1 0 0 0 1-1V4h-1zM6 3h10v13h.001l-.001.5V16H6V3z"/><path fill="#31752F" d="M16.586 1H6a1 1 0 0 0-1 1v2h12V3l2 2V3.414a1 1 0 0 0-.293-.707l-1.414-1.414A1 1 0 0 0 16.586 1z"/><path fill="none" stroke="#8BBF8A" stroke-miterlimit="10" d="M7.5 9.5h5M12.5 11.5h2"/><path fill="none" stroke="#BDBBB8" stroke-miterlimit="10" d="M13.5 13.5h-7a1 1 0 0 1-1-1v-4a1 1 0 0 1 1-1h7a1 1 0 0 1 1 1v4a1 1 0 0 1-1 1z"/><path fill="#31752F" d="M2 16h8a1 1 0 0 0 1-1V7a1 1 0 0 0-1-1H2a1 1 0 0 0-1 1v8a1 1 0 0 0 1 1z"/><path fill="#F9F7F7" d="M6.08 8c.62 0 1.096.16 1.425.481.33.321.495.786.495 1.393 0 .39-.081.738-.245 1.042-.164.305-.395.541-.696.71a2.1 2.1 0 0 1-1.044.253H5V14h-.988V8H6.08zM5 11h.899C6.406 11 7 10.898 7 10c0-1.008-.641-1.012-1.069-1.012H5V11z"/></svg>