<svg xmlns="http://www.w3.org/2000/svg" viewBox="0 0 20 20"><path fill="#FFF" d="M14 17H6a1 1 0 0 1-1-1V4H4v14h10v-1z"/><path fill="#FFF" d="M16 7h-2.5c-.827 0-1.5-.673-1.5-1.5V2H6v14h10V7z"/><path fill="#FFF" d="M16 6v-.293l-3-3V5.5a.5.5 0 0 0 .5.5H16z"/><path opacity=".64" fill="#605E5C" d="M16.707 5L13 1.293A.993.993 0 0 0 12.293 1H6a1 1 0 0 0-1 1v1H4a1 1 0 0 0-1 1v14a1 1 0 0 0 1 1h10a1 1 0 0 0 1-1v-1h1a1 1 0 0 0 1-1V5.707A.995.995 0 0 0 16.707 5zM16 5.707V6h-2.5a.5.5 0 0 1-.5-.5V2.707l3 3zM14 18H4V4h1v12a1 1 0 0 0 1 1h8v1zm-8-2V2h6v3.5c0 .827.673 1.5 1.5 1.5H16v9H6z"/></svg>