<svg xmlns="http://www.w3.org/2000/svg" viewBox="0 0 20 20"><path opacity=".64" fill="#605E5C" d="M16.5 19h-10c-.827 0-1.5-.673-1.5-1.5v-15C5 1.673 5.673 1 6.5 1h10c.652 0 1.208.418 1.414 1H18a1 1 0 0 1 1 1v3a1 1 0 0 1-1 1v10.5c0 .827-.673 1.5-1.5 1.5zM6.5 2a.5.5 0 0 0-.5.5v15a.5.5 0 0 0 .5.5h10a.5.5 0 0 0 .5-.5V6h1V3h-1v-.5a.5.5 0 0 0-.5-.5h-10z"/><path fill="#FFF" d="M18 3h-1v-.5a.5.5 0 0 0-.5-.5h-10a.5.5 0 0 0-.5.5v15a.5.5 0 0 0 .5.5h10a.5.5 0 0 0 .5-.5V6h1V3z"/><path fill="#7719AA" d="M2 16h8a1 1 0 0 0 1-1V7a1 1 0 0 0-1-1H2a1 1 0 0 0-1 1v8a1 1 0 0 0 1 1z"/><path fill="#FFF" d="M9 14H7.604S3.995 9.317 4 9.312V14H3V8h1.27S7.898 12.662 8 12.828V8h1v6z"/></svg>