<svg xmlns="http://www.w3.org/2000/svg" viewBox="0 0 20 20"><path fill="#FFF" d="M6.5 16h11c.3 0 .5-.16.5-.265V4.265c0-.106-.2-.265-.5-.265h-11c-.3 0-.5.16-.5.265v11.47c0 .106.2.265.5.265z"/><path opacity=".64" fill="#605E5C" d="M17.5 17h-11c-.84 0-1.5-.556-1.5-1.265V4.265C5 3.555 5.66 3 6.5 3h11c.84 0 1.5.556 1.5 1.265v11.47c0 .71-.66 1.265-1.5 1.265zM6.5 4c-.3 0-.5.16-.5.265v11.47c0 .106.2.265.5.265h11c.3 0 .5-.16.5-.265V4.265c0-.106-.2-.265-.5-.265h-11z"/><path fill="#C8C6C4" d="M12 4h1v1h-1zM14 4h1v1h-1zM16 4h1v1h-1z"/><path fill="none" stroke="#C8C6C4" stroke-width=".5" stroke-miterlimit="10" d="M10.844 12.031l2.656-2.56M14.581 9.627l1.232 1.714"/><circle fill="#C8C6C4" cx="16" cy="11.993" r="1.095"/><circle fill="#C8C6C4" cx="14" cy="8.998" r="1.095"/><circle fill="#C8C6C4" cx="10.929" cy="11.993" r="1.095"/><path fill="#F2C80F" d="M2 15h8a1 1 0 0 0 1-1V6a1 1 0 0 0-1-1H2a1 1 0 0 0-1 1v8a1 1 0 0 0 1 1z"/><path fill="#333" d="M7.5 13a.5.5 0 0 1-.5-.5v-5a.5.5 0 0 1 1 0v5a.5.5 0 0 1-.5.5zM5.5 13a.5.5 0 0 1-.5-.5v-2a.5.5 0 0 1 1 0v2a.5.5 0 0 1-.5.5zM3.5 13a.5.5 0 0 1-.5-.5v-3a.5.5 0 0 1 1 0v3a.5.5 0 0 1-.5.5z"/></svg>