<svg xmlns="http://www.w3.org/2000/svg" viewBox="0 0 20 20"><path fill="#FFF" d="M2 4.15v11.7c1.124-.296 3.377-.85 7.929-.85 4.68 0 6.944.554 8.071.85V4.15c-1.126.296-3.385.85-8 .85s-6.874-.554-8-.85z"/><path fill="#FF9810" d="M14 7a1 1 0 1 0 0 2 1 1 0 0 0 0-2z"/><path fill="#A6CCC3" d="M18 15.707l-4.646-4.646a.5.5 0 0 0-.707 0l-1.44 1.439c-.39.39-1.023.39-1.414 0l-3.44-3.44a.5.5 0 0 0-.706 0L2 12.707v-1.414l2.94-2.94a1.501 1.501 0 0 1 2.12 0l3.44 3.44 1.44-1.44a1.501 1.501 0 0 1 2.12 0l3.94 3.94v1.414z"/><path opacity=".64" fill="none" stroke="#605E5C" stroke-miterlimit="10" d="M1.5 3.762v12.476c0 .13.117.228.243.196.889-.223 3.083-.934 8.186-.934 5.246 0 7.437.711 8.328.934a.197.197 0 0 0 .243-.196V3.762a.197.197 0 0 0-.243-.196c-.89.223-3.083.934-8.257.934s-7.367-.711-8.256-.934a.197.197 0 0 0-.244.196z"/></svg>