<svg xmlns="http://www.w3.org/2000/svg" viewBox="0 0 20 20"><g fill="#FFF"><path d="M18 7h-2.5c-.827 0-1.5-.673-1.5-1.5V2H6v16h12V7z"/><path d="M18 6v-.293l-3-3V5.5c0 .275.225.5.5.5H18z"/></g><path opacity=".64" fill="#605E5C" d="M18.707 5L15 1.293A1 1 0 0 0 14.293 1H6a1 1 0 0 0-1 1v16a1 1 0 0 0 1 1h12a1 1 0 0 0 1-1V5.707A1 1 0 0 0 18.707 5zM18 5.707V6h-2.5a.501.501 0 0 1-.5-.5V2.707l3 3zM6 17.8V2.2c0-.11.09-.2.2-.2H14v3.5A1.5 1.5 0 0 0 15.5 7H18v10.8a.2.2 0 0 1-.2.2H6.2a.2.2 0 0 1-.2-.2z"/><path fill="none" stroke="#C8C6C4" stroke-width=".5" stroke-miterlimit="10" d="M10 13.021L13 10M14.698 12.5l-1.198-2"/><circle fill="#C8C6C4" cx="15.01" cy="13.049" r="1.11"/><circle fill="#C8C6C4" cx="13" cy="10" r="1.11"/><path fill="#F2C80F" d="M2 16h8a1 1 0 0 0 1-1V7a1 1 0 0 0-1-1H2a1 1 0 0 0-1 1v8a1 1 0 0 0 1 1z"/><path fill="#333" d="M7.5 14a.5.5 0 0 1-.5-.5v-5a.5.5 0 0 1 1 0v5a.5.5 0 0 1-.5.5zM5.5 14a.5.5 0 0 1-.5-.5v-2a.5.5 0 0 1 1 0v2a.5.5 0 0 1-.5.5zM3.5 14a.5.5 0 0 1-.5-.5v-3a.5.5 0 0 1 1 0v3a.5.5 0 0 1-.5.5z"/></svg>