<svg xmlns="http://www.w3.org/2000/svg" viewBox="0 0 20 20"><g fill="#FFF"><path d="M2 4l-.004 12H18l.003-8H15.5A1.5 1.5 0 0 1 14 6.5V4H2z"/><path d="M17.789 7L15 4.633V6.5c0 .275.225.5.5.5h2.289z"/></g><path opacity=".64" fill="#605E5C" d="M18.678 6.458l-3.707-3.21A1.012 1.012 0 0 0 14.308 3H1.997C1.447 3 1 3.42 1 3.935v12.13c0 .515.447.935.997.935h16.006c.55 0 .997-.42.997-.935V7.163a.933.933 0 0 0-.322-.705zM15 4.633L17.789 7H15.5a.501.501 0 0 1-.5-.5V4.633zM2 16V4h12v2.5A1.5 1.5 0 0 0 15.5 8H18v8H2z"/><g fill="#C8C6C4"><path d="M8.5 9h-4a.5.5 0 0 1 0-1h4a.5.5 0 0 1 0 1zM8.5 11h-4a.5.5 0 0 1 0-1h4a.5.5 0 0 1 0 1zM8.5 13h-4a.5.5 0 0 1 0-1h4a.5.5 0 0 1 0 1z"/></g><path fill="#B7472A" d="M14 9c.547.018 1 .448 1 1h-1V9z"/><path fill="#C8C6C4" d="M15 11a2.003 2.003 0 0 1-2.433 1.955 1.99 1.99 0 0 1-1.522-1.522A2.003 2.003 0 0 1 13 9v2h2z"/></svg>