<svg xmlns="http://www.w3.org/2000/svg" viewBox="0 0 20 20"><g fill="#FFF"><path d="M18 7h-2.5c-.827 0-1.5-.673-1.5-1.5V2H6v16h12V7z"/><path d="M18 6v-.293l-3-3V5.5c0 .275.225.5.5.5H18z"/></g><path opacity=".64" fill="#605E5C" d="M18.707 5L15 1.293A1 1 0 0 0 14.293 1H6a1 1 0 0 0-1 1v16a1 1 0 0 0 1 1h12a1 1 0 0 0 1-1V5.707A1 1 0 0 0 18.707 5zM18 5.707V6h-2.5a.501.501 0 0 1-.5-.5V2.707l3 3zM6 17.8V2.2c0-.11.09-.2.2-.2H14v3.5A1.5 1.5 0 0 0 15.5 7H18v10.8a.2.2 0 0 1-.2.2H6.2a.2.2 0 0 1-.2-.2z"/><path fill="#038387" d="M2 16h8a1 1 0 0 0 1-1V7a1 1 0 0 0-1-1H2a1 1 0 0 0-1 1v8a1 1 0 0 0 1 1z"/><path fill="#F9F7F7" d="M6.08 8c.62 0 1.096.16 1.425.481.33.321.495.786.495 1.393 0 .39-.081.738-.245 1.042-.164.305-.395.541-.696.71a2.1 2.1 0 0 1-1.044.253H5V14h-.988V8H6.08zM5 11h.899C6.406 11 7 10.898 7 10c0-1.008-.641-1.012-1.069-1.012H5V11z"/><g><path fill="#1A9BA1" d="M16.5 12H12v1h4.5a.5.5 0 0 0 0-1z"/><path fill="#37C6D0" d="M16 8h-4v3h4c.552 0 1-.537 1-1.2v-.6c0-.663-.448-1.2-1-1.2z"/></g></svg>