<svg xmlns="http://www.w3.org/2000/svg" viewBox="0 0 20 20"><path fill="#FFB900" d="M10 5L8.586 3.586A2 2 0 0 0 7.172 3H2a1 1 0 0 0-1 1v12a1 1 0 0 0 1 1h16a1 1 0 0 0 1-1V6a1 1 0 0 0-1-1h-8z"/><path fill="#FFD75E" d="M10 5L8.586 6.414A2 2 0 0 1 7.172 7H1v9a1 1 0 0 0 1 1h16a1 1 0 0 0 1-1V6a1 1 0 0 0-1-1h-8z"/><linearGradient id="a" gradientUnits="userSpaceOnUse" x1="10" y1="5" x2="10" y2="17"><stop offset="0" stop-color="#fff" stop-opacity="0"/><stop offset=".999" stop-color="#ffd75e" stop-opacity=".3"/></linearGradient><path fill="url(#a)" d="M10 5L8.586 6.414A2 2 0 0 1 7.172 7H1v9a1 1 0 0 0 1 1h16a1 1 0 0 0 1-1V6a1 1 0 0 0-1-1h-8z"/><path fill="#E67628" d="M2 16.5c-.373 0-.71-.142-.973-.367A.988.988 0 0 0 2 17h16c.505 0 .905-.38.973-.867-.262.226-.6.367-.973.367H2z"/><path opacity=".4" fill="#FFF" d="M8.836 6.914L10.75 5H10L8.586 6.414A2 2 0 0 1 7.172 7H1v.5h6.422a2 2 0 0 0 1.414-.586z"/><g><path fill="#BF5712" d="M16.742 14.118a.374.374 0 0 1-.264-.11l-5.496-5.473a.375.375 0 1 1 .53-.531l5.495 5.473a.375.375 0 0 1-.265.64zM13.83 9.526l1.372-1.37.53.53-1.374 1.37z"/><path fill="#BF5712" d="M11.268 14.117a.375.375 0 0 1-.365-.466l.375-1.5a.377.377 0 0 1 .099-.174l1.858-1.858.532.53-1.786 1.785-.198.793.793-.198 1.744-1.744.53.53-1.818 1.817a.37.37 0 0 1-.174.099l-1.5.375a.381.381 0 0 1-.09.011zM15.02 10.586l1.307-1.305.529.53-1.307 1.305z"/><path fill="#BF5712" d="M16.855 9.81l-.53-.53a.42.42 0 0 0-.594-.594l-.532-.53a1.174 1.174 0 0 1 1.656-.001c.456.457.456 1.199 0 1.656zM14.636 9.249l.531-.531 1.125 1.125-.53.53z"/></g></svg>