<svg xmlns="http://www.w3.org/2000/svg" viewBox="0 0 20 20"><path fill="#FFB900" d="M10 5L8.586 3.586A2 2 0 0 0 7.172 3H2a1 1 0 0 0-1 1v12a1 1 0 0 0 1 1h16a1 1 0 0 0 1-1V6a1 1 0 0 0-1-1h-8z"/><path fill="#FFD75E" d="M10 5L8.586 6.414A2 2 0 0 1 7.172 7H1v9a1 1 0 0 0 1 1h16a1 1 0 0 0 1-1V6a1 1 0 0 0-1-1h-8z"/><linearGradient id="a" gradientUnits="userSpaceOnUse" x1="10" y1="5" x2="10" y2="17"><stop offset="0" stop-color="#fff" stop-opacity="0"/><stop offset=".999" stop-color="#ffd75e" stop-opacity=".3"/></linearGradient><path fill="url(#a)" d="M10 5L8.586 6.414A2 2 0 0 1 7.172 7H1v9a1 1 0 0 0 1 1h16a1 1 0 0 0 1-1V6a1 1 0 0 0-1-1h-8z"/><path fill="#E67628" d="M2 16.5c-.373 0-.71-.142-.973-.367A.988.988 0 0 0 2 17h16c.505 0 .905-.38.973-.867-.262.226-.6.367-.973.367H2z"/><path opacity=".4" fill="#FFF" d="M8.836 6.914L10.75 5H10L8.586 6.414A2 2 0 0 1 7.172 7H1v.5h6.422a2 2 0 0 0 1.414-.586z"/><g fill="#BF5712"><path d="M15.046 11.01c.57-.352.954-.978.954-1.697a2 2 0 1 0-4 0c0 .72.384 1.345.954 1.697A2.993 2.993 0 0 0 11 13.813h.5c0-1.379 1.121-2.5 2.5-2.5s2.5 1.121 2.5 2.5h.5a2.993 2.993 0 0 0-1.954-2.803zM12.5 9.313c0-.828.673-1.5 1.5-1.5s1.5.672 1.5 1.5a1.501 1.501 0 0 1-3 0z"/><path d="M17.1 13.913h-.7v-.1c0-1.324-1.077-2.4-2.4-2.4s-2.4 1.076-2.4 2.4v.1h-.7v-.1a3.11 3.11 0 0 1 1.844-2.825 2.079 2.079 0 0 1-.844-1.675c0-1.158.942-2.1 2.1-2.1s2.1.942 2.1 2.1c0 .665-.312 1.279-.844 1.675a3.11 3.11 0 0 1 1.844 2.825v.1zm-.502-.2h.3a2.912 2.912 0 0 0-1.887-2.609l-.192-.072.174-.107c.569-.35.907-.953.907-1.612 0-1.048-.852-1.9-1.9-1.9s-1.9.852-1.9 1.9c0 .659.338 1.262.907 1.612l.174.107-.192.072a2.912 2.912 0 0 0-1.888 2.608h.301c.053-1.387 1.198-2.5 2.598-2.5s2.545 1.113 2.598 2.5zM14 10.912c-.882 0-1.6-.718-1.6-1.6s.718-1.6 1.6-1.6 1.6.717 1.6 1.6-.718 1.6-1.6 1.6zm0-3c-.771 0-1.4.628-1.4 1.4s.629 1.4 1.4 1.4 1.4-.628 1.4-1.4-.629-1.4-1.4-1.4z"/></g></svg>