<svg xmlns="http://www.w3.org/2000/svg" viewBox="0 0 20 20"><path opacity=".64" fill="#605E5C" d="M6.515 17a2.502 2.502 0 0 1-2.498-2.494L4 4.502a1.488 1.488 0 0 1 .438-1.062c.283-.284.66-.44 1.06-.44h10.006c.827 0 1.495.671 1.495 1.5v3.52h1.499a.5.5 0 0 1 .5.5l-.01 5.979a2.498 2.498 0 0 1-2.495 2.493L6.515 17zM5.514 4a.498.498 0 0 0-.498.5l.016 9.995a1.5 1.5 0 0 0 1.5 1.498l9.972-.008c.822 0 1.496-.674 1.497-1.496l.01-5.492h-1.009v3.498a.5.5 0 1 1-.999 0V4.499c0-.275-.224-.5-.499-.5h-9.99z"/><path fill="#FFF" d="M6.499 16.01l9.992-.008a1.501 1.501 0 0 0 1.497-1.497L18 9H17v3.5a.5.5 0 1 1-1 0v-8c0-.275-.225-.5-.5-.5H5.48a.497.497 0 0 0-.5.501l.017 10.01c.001.827.675 1.499 1.502 1.499z"/><path fill="#81C8C3" d="M9 11h5a1 1 0 0 0 1-1V7a1 1 0 0 0-1-1H9a1 1 0 0 0-1 1v3a1 1 0 0 0 1 1z"/><path fill="#C8C6C4" d="M7 13h7.5a.5.5 0 1 0 0-1H7v1z"/><path fill="#03787C" d="M2 15h8a1 1 0 0 0 1-1V6a1 1 0 0 0-1-1H2a1 1 0 0 0-1 1v8a1 1 0 0 0 1 1z"/><path fill="#F9F7F7" d="M4.645 9.88a1.565 1.565 0 0 1-.478-.519A1.44 1.44 0 0 1 4 8.651c0-.365.103-.672.31-.92.206-.249.48-.432.823-.552C5.476 7.06 5.851 7 6.26 7c.624 0 1.119.071 1.482.213V8.29a2.267 2.267 0 0 0-.67-.283 3.176 3.176 0 0 0-.784-.096c-.325 0-.593.058-.806.175-.214.116-.32.282-.32.497 0 .134.045.252.135.353.09.1.212.19.365.267a11.78 11.78 0 0 0 .782.35c.358.151.646.296.863.438.217.14.387.316.51.527.123.21.184.476.184.796 0 .392-.097.711-.29.958a1.622 1.622 0 0 1-.777.536c-.324.11-.693.165-1.106.165-.353 0-.687-.029-1.002-.085a3.362 3.362 0 0 1-.813-.241V11.51c.222.168.496.303.823.401.327.1.629.15.906.15.364 0 .637-.06.822-.179a.57.57 0 0 0 .276-.506.546.546 0 0 0-.155-.387 1.567 1.567 0 0 0-.427-.306c-.182-.093-.45-.217-.806-.37a4.525 4.525 0 0 1-.806-.433z"/></svg>