<svg xmlns="http://www.w3.org/2000/svg" viewBox="0 0 20 20"><path fill="#FFF" d="M6.5 16h11c.3 0 .5-.16.5-.265V4.265c0-.106-.2-.265-.5-.265h-11c-.3 0-.5.16-.5.265v11.47c0 .106.2.265.5.265z"/><path fill="#81C8C3" d="M10 11h6a1 1 0 0 0 1-1V8a1 1 0 0 0-1-1h-6a1 1 0 0 0-1 1v2a1 1 0 0 0 1 1z"/><path fill="#C8C6C4" d="M9 15h7.5a.5.5 0 1 0 0-1H9v1zM9 13h7.5a.5.5 0 1 0 0-1H9v1z"/><path opacity=".64" fill="#605E5C" d="M17.5 17h-11c-.84 0-1.5-.556-1.5-1.265V4.265C5 3.555 5.66 3 6.5 3h11c.84 0 1.5.556 1.5 1.265v11.47c0 .71-.66 1.265-1.5 1.265zM6.5 4c-.3 0-.5.16-.5.265v11.47c0 .106.2.265.5.265h11c.3 0 .5-.16.5-.265V4.265c0-.106-.2-.265-.5-.265h-11z"/><path fill="#03787C" d="M2 16h8a1 1 0 0 0 1-1V7a1 1 0 0 0-1-1H2a1 1 0 0 0-1 1v8a1 1 0 0 0 1 1z"/><path fill="#F9F7F7" d="M4.645 10.88a1.564 1.564 0 0 1-.478-.519A1.44 1.44 0 0 1 4 9.651c0-.365.103-.672.31-.92.206-.249.48-.432.823-.552C5.476 8.06 5.851 8 6.26 8c.624 0 1.119.071 1.482.213V9.29a2.267 2.267 0 0 0-.67-.283 3.176 3.176 0 0 0-.784-.096c-.325 0-.593.059-.806.175-.214.116-.32.282-.32.497 0 .134.045.252.135.353.09.1.212.19.365.267a11.78 11.78 0 0 0 .782.35c.358.151.646.296.863.438.217.14.387.316.51.527.123.21.184.476.184.796 0 .392-.097.711-.29.958a1.622 1.622 0 0 1-.777.536c-.324.11-.693.165-1.106.165-.353 0-.687-.029-1.002-.085a3.362 3.362 0 0 1-.813-.241V12.51c.222.168.496.303.823.401.327.1.629.15.906.15.364 0 .637-.06.822-.179a.57.57 0 0 0 .276-.506.546.546 0 0 0-.155-.387 1.567 1.567 0 0 0-.427-.306c-.182-.093-.45-.217-.806-.37a4.525 4.525 0 0 1-.806-.433z"/><path fill="#C8C6C4" d="M12 4h1v1h-1zM14 4h1v1h-1zM16 4h1v1h-1z"/></svg>