<svg xmlns="http://www.w3.org/2000/svg" viewBox="0 0 20 20"><path fill="#FFF" d="M3.2 17.2h13.6c.22 0 .4-.18.4-.4V3.2c0-.22-.18-.4-.4-.4H3.2c-.22 0-.4.18-.4.4v13.6c0 .22.18.4.4.4z"/><path opacity=".64" fill="#605E5C" d="M16.8 18H3.2c-.662 0-1.2-.538-1.2-1.2V3.2C2 2.538 2.538 2 3.2 2h13.6c.662 0 1.2.538 1.2 1.2v13.6c0 .662-.538 1.2-1.2 1.2zM3.2 2.8a.4.4 0 0 0-.4.4v13.6c0 .22.18.4.4.4h13.6a.4.4 0 0 0 .4-.4V3.2a.4.4 0 0 0-.4-.4H3.2z"/><g fill-rule="evenodd" clip-rule="evenodd"><path fill="#BC1948" d="M7.8 10v3.187c0 .327.373.524.656.346l5.183-3.251A.335.335 0 0 0 13.8 10h-6z"/><path fill="#E8467C" d="M7.8 10V6.813c0-.327.373-.524.656-.346l5.183 3.251c.106.067.16.174.161.282h-6z"/><path fill="#8C193F" d="M6.998 7.84l3.084 1.948c.157.1.157.324 0 .423L6.998 12.16c-.171.109-.398-.012-.398-.211V8.052c0-.2.227-.32.398-.211"/></g></svg>