<svg xmlns="http://www.w3.org/2000/svg" viewBox="0 0 20 20"><g fill="#FFF"><path d="M18 7h-2.5A1.5 1.5 0 0 1 14 5.5V2H6v16h12V7z"/><path d="M18 6v-.293l-3-3V5.5c0 .275.225.5.5.5H18z"/></g><path opacity=".64" fill="#605E5C" d="M18.707 5L15 1.293A1 1 0 0 0 14.293 1H6a1 1 0 0 0-1 1v16a1 1 0 0 0 1 1h12a1 1 0 0 0 1-1V5.707A1 1 0 0 0 18.707 5zM18 5.707V6h-2.5a.501.501 0 0 1-.5-.5V2.707l3 3zM6 17.8V2.2c0-.11.09-.2.2-.2H14v3.5A1.5 1.5 0 0 0 15.5 7H18v10.8a.2.2 0 0 1-.2.2H6.2a.2.2 0 0 1-.2-.2z"/><path fill="#C8C6C4" d="M11 15h5.5a.5.5 0 1 0 0-1H11v1z"/><path fill="#99CDC7" d="M11.955 8.333L8.455 13h7z"/><path fill="#99CDC7" d="M14.955 10.333l-2 2.667h4z"/><circle fill="#99CDC7" cx="16" cy="9" r="1"/><path fill="#008272" d="M2 16h8a1 1 0 0 0 1-1V7a1 1 0 0 0-1-1H2a1 1 0 0 0-1 1v8a1 1 0 0 0 1 1z"/><path fill="#F9F7F7" d="M4.645 10.88a1.564 1.564 0 0 1-.478-.519A1.44 1.44 0 0 1 4 9.651c0-.365.103-.672.31-.92.206-.249.48-.432.823-.552C5.476 8.06 5.851 8 6.26 8c.624 0 1.119.071 1.482.213V9.29a2.267 2.267 0 0 0-.67-.283 3.176 3.176 0 0 0-.784-.096c-.325 0-.593.059-.806.175-.214.116-.32.282-.32.497 0 .134.045.252.135.353.09.1.212.19.365.267a11.78 11.78 0 0 0 .782.35c.358.151.646.296.863.438.217.14.387.316.51.527.123.21.184.476.184.796 0 .392-.097.711-.29.958a1.622 1.622 0 0 1-.777.536c-.324.11-.693.165-1.106.165-.353 0-.687-.029-1.002-.085a3.362 3.362 0 0 1-.813-.241V12.51c.222.168.496.303.823.401.327.1.629.15.906.15.364 0 .637-.06.822-.179a.57.57 0 0 0 .276-.506.546.546 0 0 0-.155-.387 1.567 1.567 0 0 0-.427-.306c-.182-.093-.45-.217-.806-.37a4.525 4.525 0 0 1-.806-.433z"/></svg>