<svg xmlns="http://www.w3.org/2000/svg" viewBox="0 0 20 20"><g fill="#FFF"><path d="M16 7h-2.5c-.827 0-1.5-.673-1.5-1.5V2H4v16h12V7z"/><path d="M16 6v-.293l-3-3V5.5c0 .275.225.5.5.5H16z"/></g><path opacity=".64" fill="#605E5C" d="M16.707 5L13 1.293A1 1 0 0 0 12.293 1H4a1 1 0 0 0-1 1v16a1 1 0 0 0 1 1h12a1 1 0 0 0 1-1V5.707A1 1 0 0 0 16.707 5zM16 5.707V6h-2.5a.501.501 0 0 1-.5-.5V2.707l3 3zM4 17.8V2.2c0-.11.09-.2.2-.2H12v3.5A1.5 1.5 0 0 0 13.5 7H16v10.8a.2.2 0 0 1-.2.2H4.2a.2.2 0 0 1-.2-.2z"/><path fill="none" stroke="#B4B0AD" stroke-linejoin="round" stroke-miterlimit="10" d="M13.31 11.4l-.734-.06a.051.051 0 0 1-.045-.038 2.606 2.606 0 0 0-.248-.597.051.051 0 0 1 .005-.06l.476-.562a.207.207 0 0 0-.012-.28l-.555-.555a.207.207 0 0 0-.28-.012l-.563.476a.051.051 0 0 1-.059.005 2.608 2.608 0 0 0-.599-.248.047.047 0 0 1-.035-.042l-.062-.738a.206.206 0 0 0-.207-.189h-.784a.207.207 0 0 0-.207.19l-.061.734a.051.051 0 0 1-.038.045 2.6 2.6 0 0 0-.599.249.048.048 0 0 1-.055-.004l-.566-.479a.206.206 0 0 0-.28.013l-.554.555a.207.207 0 0 0-.012.28l.476.563c.014.016.016.04.005.059-.106.186-.19.386-.248.597a.051.051 0 0 1-.045.038l-.734.06a.207.207 0 0 0-.19.207v.786c0 .107.083.197.19.206l.734.061c.022.002.04.017.045.038.058.211.142.411.248.597a.051.051 0 0 1-.005.06l-.476.562a.207.207 0 0 0 .012.28l.555.555a.207.207 0 0 0 .28.012l.563-.476a.051.051 0 0 1 .059-.005c.186.106.387.19.599.248.02.006.034.021.036.042l.061.738a.206.206 0 0 0 .207.189h.785a.207.207 0 0 0 .206-.19l.061-.734a.051.051 0 0 1 .038-.045c.212-.058.412-.143.599-.249.018-.01.039-.01.055.004l.566.479c.082.07.203.064.28-.013l.554-.555a.207.207 0 0 0 .012-.28l-.476-.563a.051.051 0 0 1-.005-.059c.106-.186.19-.386.248-.597a.051.051 0 0 1 .045-.038l.734-.06a.207.207 0 0 0 .19-.208v-.785a.207.207 0 0 0-.19-.206z"/><circle fill="none" stroke="#B4B0AD" stroke-linecap="round" stroke-linejoin="round" stroke-miterlimit="10" cx="10" cy="12" r=".5"/></svg>