<svg xmlns="http://www.w3.org/2000/svg" viewBox="0 0 20 20"><linearGradient id="a" gradientUnits="userSpaceOnUse" x1="10" y1="4" x2="10" y2="16"><stop offset="0" stop-color="#c8c6c4"/><stop offset="1" stop-color="#b3b0ad"/></linearGradient><path fill-rule="evenodd" clip-rule="evenodd" fill="url(#a)" d="M18 16H2a1 1 0 0 1-1-1V5a1 1 0 0 1 1-1h16a1 1 0 0 1 1 1v10a1 1 0 0 1-1 1z"/><linearGradient id="b" gradientUnits="userSpaceOnUse" x1="9.5" y1="5" x2="9.5" y2="15"><stop offset="0" stop-color="#979593"/><stop offset="1" stop-color="#8a8886"/></linearGradient><path fill="url(#b)" d="M16.25 5.75v8.5H2.75v-8.5h13.5M16.5 5h-14a.5.5 0 0 0-.5.5v9a.5.5 0 0 0 .5.5h14a.5.5 0 0 0 .5-.5v-9a.5.5 0 0 0-.5-.5z"/><linearGradient id="c" gradientUnits="userSpaceOnUse" x1="4.5" y1="7" x2="4.5" y2="13"><stop offset=".001" stop-color="#797775"/><stop offset="1" stop-color="#605e5c"/></linearGradient><path fill="url(#c)" d="M4.5 13a.5.5 0 0 1-.5-.5v-5a.5.5 0 0 1 1 0v5a.5.5 0 0 1-.5.5z"/><linearGradient id="d" gradientUnits="userSpaceOnUse" x1="16.5" y1="7" x2="16.5" y2="8"><stop offset=".001" stop-color="#797775"/><stop offset="1" stop-color="#605e5c"/></linearGradient><path fill="url(#d)" d="M17.5 8h-2a.5.5 0 0 1 0-1h2a.5.5 0 0 1 0 1z"/><linearGradient id="e" gradientUnits="userSpaceOnUse" x1="16.5" y1="12" x2="16.5" y2="13"><stop offset=".001" stop-color="#797775"/><stop offset="1" stop-color="#605e5c"/></linearGradient><path fill="url(#e)" d="M17.5 13h-2a.5.5 0 0 1 0-1h2a.5.5 0 0 1 0 1z"/><linearGradient id="f" gradientUnits="userSpaceOnUse" x1="3.5" y1="17.023" x2="3.5" y2="15.986"><stop offset=".001" stop-color="#797775"/><stop offset="1" stop-color="#605e5c"/></linearGradient><path fill="url(#f)" d="M2.362 16.724a.5.5 0 0 0 .447.276h1.382a.5.5 0 0 0 .447-.276L5 16H2l.362.724z"/><linearGradient id="g" gradientUnits="userSpaceOnUse" x1="16.5" y1="17.023" x2="16.5" y2="15.986"><stop offset=".001" stop-color="#797775"/><stop offset="1" stop-color="#605e5c"/></linearGradient><path fill="url(#g)" d="M15.362 16.724a.5.5 0 0 0 .447.276h1.382a.5.5 0 0 0 .447-.276L18 16h-3l.362.724z"/><linearGradient id="h" gradientUnits="userSpaceOnUse" x1="10" y1="7" x2="10" y2="13"><stop offset=".001" stop-color="#8a8886"/><stop offset="1" stop-color="#797775"/></linearGradient><path fill="url(#h)" d="M10 8.5c.827 0 1.5.673 1.5 1.5s-.673 1.5-1.5 1.5-1.5-.673-1.5-1.5.673-1.5 1.5-1.5M10 7a3 3 0 1 0 0 6 3 3 0 0 0 0-6z"/></svg>