<svg xmlns="http://www.w3.org/2000/svg" viewBox="0 0 20 20"><linearGradient id="a" gradientUnits="userSpaceOnUse" x1="10" y1="4" x2="10" y2="16"><stop offset="0" stop-color="#c8c6c4"/><stop offset="1" stop-color="#b3b0ad"/></linearGradient><path fill-rule="evenodd" clip-rule="evenodd" fill="url(#a)" d="M18 16H2a1 1 0 0 1-1-1V5a1 1 0 0 1 1-1h16a1 1 0 0 1 1 1v10a1 1 0 0 1-1 1z"/><linearGradient id="b" gradientUnits="userSpaceOnUse" x1="3.5" y1="17.023" x2="3.5" y2="15.986"><stop offset=".001" stop-color="#797775"/><stop offset="1" stop-color="#605e5c"/></linearGradient><path fill="url(#b)" d="M2.362 16.724a.5.5 0 0 0 .447.276h1.382a.5.5 0 0 0 .447-.276L5 16H2l.362.724z"/><linearGradient id="c" gradientUnits="userSpaceOnUse" x1="16.5" y1="17.023" x2="16.5" y2="15.986"><stop offset=".001" stop-color="#797775"/><stop offset="1" stop-color="#605e5c"/></linearGradient><path fill="url(#c)" d="M15.362 16.724a.5.5 0 0 0 .447.276h1.382a.5.5 0 0 0 .447-.276L18 16h-3l.362.724z"/><path fill="#797775" d="M2 5h15v10H2z"/><path fill="#E1DFDD" d="M17 16h-1.5a.5.5 0 0 1-.5-.5v-12a.5.5 0 0 1 .5-.5H17v13z"/><linearGradient id="d" gradientUnits="userSpaceOnUse" x1="17.5" y1="7" x2="17.5" y2="13"><stop offset=".001" stop-color="#797775"/><stop offset="1" stop-color="#605e5c"/></linearGradient><path fill="url(#d)" d="M17.5 13H17V7h.5a.5.5 0 0 1 .5.5v5a.5.5 0 0 1-.5.5z"/><linearGradient id="e" gradientUnits="userSpaceOnUse" x1="16" y1="3" x2="16" y2="16"><stop offset="0" stop-color="#e1dfdd" stop-opacity="0"/><stop offset="1" stop-color="#bebbb8" stop-opacity=".2"/></linearGradient><path fill="url(#e)" d="M17 16h-1.5a.5.5 0 0 1-.5-.5v-12a.5.5 0 0 1 .5-.5H17v13z"/><linearGradient id="f" gradientUnits="userSpaceOnUse" x1="2" y1="10" x2="3" y2="10"><stop offset="0" stop-color="#a19f9d"/><stop offset=".999" stop-color="#605e5c" stop-opacity=".3"/></linearGradient><path fill="url(#f)" d="M3 14l-1 1V5l1 1z"/><linearGradient id="g" gradientUnits="userSpaceOnUse" x1="8.5" y1="5" x2="8.5" y2="6"><stop offset="0" stop-color="#a19f9d"/><stop offset=".999" stop-color="#605e5c" stop-opacity=".3"/></linearGradient><path fill="url(#g)" d="M15 6H3L2 5h13z"/><linearGradient id="h" gradientUnits="userSpaceOnUse" x1="8.5" y1="15" x2="8.5" y2="14"><stop offset="0" stop-color="#a19f9d"/><stop offset=".999" stop-color="#605e5c" stop-opacity=".3"/></linearGradient><path fill="url(#h)" d="M15 15H2l1-1h12z"/><path fill="#FFF" d="M11.7 14H6.3a.3.3 0 0 1-.3-.3V6.3a.3.3 0 0 1 .3-.3H10l2 2v5.7a.3.3 0 0 1-.3.3z"/><path fill="#EDEBE9" d="M12 8h-1.7a.3.3 0 0 1-.3-.3V6"/></svg>