<svg xmlns="http://www.w3.org/2000/svg" viewBox="0 0 20 20"><path fill="#FFF" d="M2 4.15v11.7c1.124-.296 3.377-.85 7.929-.85 4.68 0 6.944.554 8.071.85V4.15c-1.126.296-3.385.85-8 .85s-6.874-.554-8-.85z"/><path opacity=".64" fill="none" stroke="#605E5C" stroke-miterlimit="10" d="M1.5 3.762v12.476c0 .13.117.228.243.196.889-.223 3.083-.934 8.186-.934 5.246 0 7.437.711 8.328.934a.197.197 0 0 0 .243-.196V3.762a.197.197 0 0 0-.243-.196c-.89.223-3.083.934-8.257.934s-7.367-.711-8.256-.934a.197.197 0 0 0-.244.196z"/><path fill="none" stroke="#69AFE5" stroke-linecap="round" stroke-linejoin="round" stroke-miterlimit="10" d="M13 10L8.5 8v4z"/></svg>