<svg xmlns="http://www.w3.org/2000/svg" viewBox="0 0 20 20"><path fill="#FFF" d="M6 2h12v16H6z"/><path opacity=".64" fill="#605E5C" d="M18 19H6a1 1 0 0 1-1-1V2a1 1 0 0 1 1-1h12a1 1 0 0 1 1 1v16a1 1 0 0 1-1 1zM6 2.2v15.6c0 .11.09.2.2.2h11.6a.2.2 0 0 0 .2-.2V2.2a.2.2 0 0 0-.2-.2H6.2a.2.2 0 0 0-.2.2z"/><path fill="#185ABD" d="M2 16h8a1 1 0 0 0 1-1V7a1 1 0 0 0-1-1H2a1 1 0 0 0-1 1v8a1 1 0 0 0 1 1z"/><path fill="#FFF" d="M5.43 14L3.014 8h1.083l1.928 4.813L7.888 8h1.148l-2.46 6z"/><g fill="#C8C6C4"><path opacity=".64" d="M15.5 9h-1A1.5 1.5 0 0 1 13 7.5v-3A1.5 1.5 0 0 1 14.5 3h1A1.5 1.5 0 0 1 17 4.5v3A1.5 1.5 0 0 1 15.5 9zm-1-1h1a.5.5 0 0 0 .5-.5v-3a.5.5 0 0 0-.5-.5h-1a.5.5 0 0 0-.5.5v3a.5.5 0 0 0 .5.5zM15.5 17h-1a1.5 1.5 0 0 1-1.5-1.5v-3a1.5 1.5 0 0 1 1.5-1.5h1a1.5 1.5 0 0 1 1.5 1.5v3a1.5 1.5 0 0 1-1.5 1.5zm-1-1h1a.5.5 0 0 0 .5-.5v-3a.5.5 0 0 0-.5-.5h-1a.5.5 0 0 0-.5.5v3a.5.5 0 0 0 .5.5zM8 5v-.5a.5.5 0 0 1 .5-.5h1a.5.5 0 0 1 .5.5V5c.366 0 .705.106 1 .278V4.5A1.5 1.5 0 0 0 9.5 3h-1A1.5 1.5 0 0 0 7 4.5V5h1z"/></g></svg>