<svg xmlns="http://www.w3.org/2000/svg" viewBox="0 0 20 20"><g fill="#FFF"><path d="M6 3h10v13H6z"/><path d="M18 3.733l-1-.841V16a1 1 0 0 1-1 1H8v1h10V3.733z"/></g><path opacity=".64" fill="#605E5C" d="M18 4v14H8v-1h8a1 1 0 0 0 1-1V2H5v14a1 1 0 0 0 1 1h1v1a1 1 0 0 0 1 1h10a1 1 0 0 0 1-1V4h-1zM6 3h10v13h.001l-.001.5V16H6V3z"/><path fill="#33C481" d="M17 1.097A.991.991 0 0 0 16.586 1H6a1 1 0 0 0-1 1v2h12V3l.5-.5v-.75l-.5-.653z"/><path fill="#21A366" d="M19 5V3.414a1 1 0 0 0-.293-.707l-1.414-1.414A.997.997 0 0 0 17 1.097V3l2 2z"/><path fill="#134A2C" d="M14.5 12h-2c-.275 0-.5.225-.5.5s.225.5.5.5h2c.275 0 .5-.225.5-.5s-.225-.5-.5-.5z"/><path fill="#21A366" d="M14.5 10h-2c-.275 0-.5.225-.5.5s.225.5.5.5h2c.275 0 .5-.225.5-.5s-.225-.5-.5-.5z"/><path fill="#33C481" d="M14.5 8h-2c-.275 0-.5.225-.5.5s.225.5.5.5h2c.275 0 .5-.225.5-.5s-.225-.5-.5-.5z"/><g><path fill="#107C41" d="M2 16h8a1 1 0 0 0 1-1V7a1 1 0 0 0-1-1H2a1 1 0 0 0-1 1v8a1 1 0 0 0 1 1z"/><g fill="#FFF"><path d="M4.606 14l3.707-6H7.15l-3.755 6z"/><path d="M7.373 14L3.667 8h1.162l3.754 6z"/></g></g></svg>