<svg xmlns="http://www.w3.org/2000/svg" viewBox="0 0 96 96"><path fill="#FFF" d="M84 22H12c-1.103 0-2 .897-2 2v50c0 1.103.897 2 2 2h13.929c.002-.123 0-.217-.006-.262-.018-.017-.197-.321-.299-.476a4.116 4.116 0 0 1-.51-3.443c.475-1.66 2.046-2.819 3.82-2.819h.151c1.774 0 3.346 1.16 3.821 2.82a4.112 4.112 0 0 1-.506 3.437c-.182.282-.3.5-.323.563.002.014.005.083.01.18h31.842c.002-.123 0-.217-.006-.262-.018-.017-.197-.321-.299-.476a4.116 4.116 0 0 1-.51-3.443c.475-1.66 2.046-2.819 3.82-2.819h.151c1.774 0 3.346 1.16 3.821 2.82a4.112 4.112 0 0 1-.507 3.437c-.181.282-.298.5-.322.563.002.014.005.083.01.18H84c1.103 0 2-.897 2-2V24c0-1.103-.897-2-2-2z"/><circle fill="none" stroke="#69AFE5" stroke-width="2" stroke-miterlimit="10" cx="29" cy="42" r="7"/><path fill="none" stroke="#69AFE5" stroke-width="2" stroke-linecap="round" stroke-linejoin="round" stroke-miterlimit="10" d="M19 58s1-9 10-9 10 9 10 9"/><path fill="#C8C6C4" d="M79 40H51a1 1 0 1 1 0-2h28a1 1 0 1 1 0 2zM79 48H51a1 1 0 1 1 0-2h28a1 1 0 0 1 0 2zM71 56H51a1 1 0 1 1 0-2h20a1 1 0 1 1 0 2z"/><circle fill="#C8C6C4" cx="79" cy="55" r="1"/><path opacity=".64" fill="#605E5C" d="M84 78H69.501a1.393 1.393 0 0 1-1.382-1.4c-.031-.363-.055-.96.03-1.304.026-.106.094-.384.57-1.123a2.15 2.15 0 0 0 .265-1.802C68.753 71.564 67.972 71 67.085 71h-.15c-.887 0-1.668.564-1.9 1.37a2.144 2.144 0 0 0 .259 1.792c.106.16.478.736.577 1.13.086.347.062.945.027 1.387.003.693-.617 1.321-1.38 1.321H31.502a1.393 1.393 0 0 1-1.382-1.4c-.031-.363-.055-.96.03-1.304.026-.106.094-.384.57-1.123a2.15 2.15 0 0 0 .265-1.802C30.753 71.564 29.972 71 29.085 71h-.15c-.887 0-1.668.564-1.9 1.37a2.144 2.144 0 0 0 .259 1.792c.106.16.478.736.577 1.13.086.347.062.945.027 1.387.003.693-.617 1.321-1.38 1.321H12c-2.206 0-4-1.794-4-4V24c0-2.206 1.794-4 4-4h72c2.206 0 4 1.794 4 4v50c0 2.206-1.794 4-4 4zm-20.094-1.478a.701.701 0 0 0-.005.078l.005-.078zm-38 0a.701.701 0 0 0-.005.078l.005-.078zm44.205-.061l.005.06a.32.32 0 0 0-.005-.06zm-38 0l.005.06a.32.32 0 0 0-.005-.06zM70.087 76H84c1.103 0 2-.897 2-2V24c0-1.103-.897-2-2-2H12c-1.103 0-2 .897-2 2v50c0 1.103.897 2 2 2h13.929c.002-.123 0-.217-.006-.262-.018-.017-.197-.321-.299-.476a4.116 4.116 0 0 1-.51-3.443c.475-1.66 2.046-2.819 3.82-2.819h.151c1.774 0 3.346 1.16 3.821 2.82a4.112 4.112 0 0 1-.506 3.437c-.182.282-.3.5-.323.563.002.014.005.083.01.18h31.842c.002-.123 0-.217-.006-.262-.018-.017-.197-.321-.299-.476a4.116 4.116 0 0 1-.51-3.443c.475-1.66 2.046-2.819 3.82-2.819h.151c1.774 0 3.346 1.16 3.821 2.82a4.112 4.112 0 0 1-.507 3.437c-.181.282-.298.5-.322.563.002.014.005.083.01.18z"/></svg>