<svg xmlns="http://www.w3.org/2000/svg" viewBox="0 0 96 96"><g fill="#FFF"><path d="M27 88h58a1 1 0 0 0 1-1V28H69c-1.654 0-3-1.346-3-3V8H27a1 1 0 0 0-1 1v78a1 1 0 0 0 1 1z"/><path d="M85.586 26L68 8.414V25a1 1 0 0 0 1 1h16.586z"/></g><path opacity=".64" fill="#605E5C" d="M87.121 24.707L69.293 6.879A2.978 2.978 0 0 0 67.172 6H27c-1.654 0-3 1.346-3 3v78c0 1.654 1.346 3 3 3h58c1.654 0 3-1.346 3-3V26.828c0-.8-.313-1.554-.879-2.121zM68 8.414L85.586 26H69a1 1 0 0 1-1-1V8.414zM85 88H27a1 1 0 0 1-1-1V9a1 1 0 0 1 1-1h39v17c0 1.654 1.346 3 3 3h17v59a1 1 0 0 1-1 1z"/><g fill="#33C481"><path d="M68.112 63.69h-3.468v-3.385h-.085c-1.51 2.609-3.73 3.913-6.663 3.913-2.088 0-3.759-.567-5.013-1.703C51.627 61.38 51 59.854 51 57.935c0-4.032 2.382-6.388 7.15-7.064l6.494-.91c0-3.666-1.489-5.5-4.464-5.5-2.61 0-4.964.882-7.065 2.644v-3.553c.635-.48 1.72-.941 3.258-1.386 1.536-.444 2.904-.666 4.103-.666 5.09 0 7.637 2.7 7.637 8.102v14.087zm-3.468-10.958l-5.246.74c-1.792.254-3.046.681-3.766 1.28-.719.6-1.078 1.57-1.078 2.909 0 1.086.387 1.956 1.163 2.612.775.656 1.769.984 2.983.984 1.72 0 3.141-.607 4.261-1.82 1.122-1.212 1.682-2.728 1.682-4.547v-2.158zM76.063 60.218L72.7 70.216h-2.475l2.475-9.998h3.363z"/></g><path fill="#107C41" d="M12 74h32a4 4 0 0 0 4-4V38a4 4 0 0 0-4-4H12a4 4 0 0 0-4 4v32a4 4 0 0 0 4 4z"/><path fill="#F9F7F7" d="M16.95 66l7.884-12.034L17.612 42h5.812l3.942 7.649c.362.725.611 1.266.747 1.623h.051c.262-.58.533-1.143.816-1.69L33.194 42h5.335l-7.408 11.9L38.717 66H33.04l-4.554-8.402a6.949 6.949 0 0 1-.544-1.121h-.067c-.08.268-.255.63-.526 1.088L22.66 66h-5.71z"/></svg>