<svg xmlns="http://www.w3.org/2000/svg" viewBox="0 0 96 96"><path fill="#FFB900" d="M45 24l-3.95-3.95A7 7 0 0 0 36.1 18H10a4 4 0 0 0-4 4v52a4 4 0 0 0 4 4h76a4 4 0 0 0 4-4V28a4 4 0 0 0-4-4H45z"/><path fill="#FFD75E" d="M45 24l-3.95 3.95A7 7 0 0 1 36.1 30H6v44a4 4 0 0 0 4 4h76a4 4 0 0 0 4-4V28a4 4 0 0 0-4-4H45z"/><linearGradient id="a" gradientUnits="userSpaceOnUse" x1="48" y1="24" x2="48" y2="78"><stop offset="0" stop-color="#fff" stop-opacity="0"/><stop offset=".999" stop-color="#ffd75e" stop-opacity=".3"/></linearGradient><path fill="url(#a)" d="M45 24l-3.95 3.95A7 7 0 0 1 36.1 30H6v44a4 4 0 0 0 4 4h76a4 4 0 0 0 4-4V28a4 4 0 0 0-4-4H45z"/><path fill="#E67628" d="M10 78h76c1.309 0 2.47-.628 3.2-1.6l-.355.178a3.998 3.998 0 0 1-1.79.422H8.948c-.62 0-1.23-.144-1.785-.42l-.364-.182A3.994 3.994 0 0 0 10 78z"/><path opacity=".4" fill="#FFF" d="M41.697 28.803L46.5 24H45l-3.95 3.95A7 7 0 0 1 36.1 30H6v1h30.393a7.5 7.5 0 0 0 5.304-2.197z"/><g><path fill="#BF5712" d="M80.087 65.395l2.059 6.591-5.313-4.084-5.312 4.084 2.059-6.59-5.246-4.035h6.507l1.993-6.375 1.992 6.375h6.508l-5.247 4.035zm.042 3.703c-.21-.687-.42-1.369-.631-2.046s-.426-1.36-.647-2.046c.57-.427 1.131-.856 1.685-1.287s1.112-.864 1.676-1.295h-4.167l-1.211-3.877-1.212 3.877h-4.167c.564.431 1.123.863 1.676 1.295s1.116.86 1.686 1.287c-.222.685-.437 1.368-.648 2.046s-.42 1.36-.63 2.046l3.295-2.54 3.295 2.54z"/></g></svg>