<svg xmlns="http://www.w3.org/2000/svg" viewBox="0 0 96 96"><g fill="#FFF"><path d="M19 88h58a1 1 0 0 0 1-1V28H61c-1.654 0-3-1.346-3-3V8H19a1 1 0 0 0-1 1v78a1 1 0 0 0 1 1z"/><path d="M77.586 26L60 8.414V25a1 1 0 0 0 1 1h16.586z"/></g><path opacity=".64" fill="#605E5C" d="M79.121 24.707L61.293 6.879A2.978 2.978 0 0 0 59.172 6H19c-1.654 0-3 1.346-3 3v78c0 1.654 1.346 3 3 3h58c1.654 0 3-1.346 3-3V26.828c0-.8-.313-1.554-.879-2.121zM60 8.414L77.586 26H61a1 1 0 0 1-1-1V8.414zM77 88H19a1 1 0 0 1-1-1V9a1 1 0 0 1 1-1h39v17c0 1.654 1.346 3 3 3h17v59a1 1 0 0 1-1 1z"/><path fill="#FF5C0D" d="M54.44 61.674H37.619l-2.948 6.858c-.727 1.688-1.09 2.948-1.09 3.78 0 .663.315 1.246.946 1.747.63.502 1.991.828 4.085.977v1.186H24.929v-1.186c1.815-.32 2.99-.737 3.525-1.25 1.089-1.025 2.296-3.107 3.62-6.248l15.285-35.76h1.121l15.125 36.145c1.218 2.905 2.323 4.79 3.317 5.655.993.866 2.376 1.352 4.15 1.458v1.186H53.927v-1.186c1.73-.085 2.9-.373 3.509-.865.608-.49.913-1.09.913-1.794 0-.94-.428-2.424-1.282-4.454l-2.627-6.249zm-.896-2.37l-7.37-17.56-7.563 17.56h14.933z"/></svg>