<svg xmlns="http://www.w3.org/2000/svg" viewBox="0 0 96 96"><g fill="#FFF"><path d="M27 88h58a1 1 0 0 0 1-1V28H69c-1.654 0-3-1.346-3-3V8H27a1 1 0 0 0-1 1v78a1 1 0 0 0 1 1z"/><path d="M85.586 26L68 8.414V25a1 1 0 0 0 1 1h16.586z"/></g><path opacity=".64" fill="#605E5C" d="M87.121 24.707L69.293 6.879A2.978 2.978 0 0 0 67.172 6H27c-1.654 0-3 1.346-3 3v78c0 1.654 1.346 3 3 3h58c1.654 0 3-1.346 3-3V26.828c0-.8-.313-1.554-.879-2.121zM68 8.414L85.586 26H69a1 1 0 0 1-1-1V8.414zM85 88H27a1 1 0 0 1-1-1V9a1 1 0 0 1 1-1h39v17c0 1.654 1.346 3 3 3h17v59a1 1 0 0 1-1 1z"/><path fill="#038387" d="M12 74h32a4 4 0 0 0 4-4V38a4 4 0 0 0-4-4H12a4 4 0 0 0-4 4v32a4 4 0 0 0 4 4z"/><path fill="#FFF" d="M37 46H26v7h10v4H26v10h-5V42h16v4z"/><path fill="#1A9BA1" d="M77 39H51v2h26a1 1 0 0 1 1 1v1a1 1 0 0 1-1 1H51v2h26a3 3 0 0 0 3-3v-1a3 3 0 0 0-3-3z"/><path fill="#038387" d="M77 50H51v2h26a1 1 0 0 1 1 1v1a1 1 0 0 1-1 1H51v2h26a3 3 0 0 0 3-3v-1a3 3 0 0 0-3-3z"/><path fill="#036C70" d="M77 61H51v2h26a1 1 0 0 1 1 1v1a1 1 0 0 1-1 1H51v2h26a3 3 0 0 0 3-3v-1a3 3 0 0 0-3-3z"/></svg>