<svg xmlns="http://www.w3.org/2000/svg" viewBox="0 0 96 96"><g fill="#FFF"><path d="M10 30h76v-8a1 1 0 0 0-1-1H11a1 1 0 0 0-1 1v8zM11 75h74a1 1 0 0 0 1-1V32H10v42a1 1 0 0 0 1 1z"/></g><path opacity=".64" fill="#605E5C" d="M85 19H11c-1.654 0-3 1.346-3 3v52c0 1.654 1.346 3 3 3h74c1.654 0 3-1.346 3-3V22c0-1.654-1.346-3-3-3zm-74 2h74a1 1 0 0 1 1 1v8H10v-8a1 1 0 0 1 1-1zm74 54H11a1 1 0 0 1-1-1V32h76v42a1 1 0 0 1-1 1z"/><circle fill="#C8C6C4" cx="14.5" cy="25.5" r="1.5"/><circle fill="#C8C6C4" cx="19.5" cy="25.5" r="1.5"/><circle fill="#C8C6C4" cx="24.5" cy="25.5" r="1.5"/><g fill="none" stroke="#69AFE5" stroke-width="2" stroke-miterlimit="10"><circle cx="48" cy="53" r="13"/><ellipse cx="48" cy="53" rx="6" ry="13"/><path d="M36 47h24M36 58h24"/></g></svg>