<svg xmlns="http://www.w3.org/2000/svg" viewBox="0 0 96 96"><path fill="#FFB900" d="M45 24l-3.95-3.95A7 7 0 0 0 36.1 18H10a4 4 0 0 0-4 4v52a4 4 0 0 0 4 4h76a4 4 0 0 0 4-4V28a4 4 0 0 0-4-4H45z"/><path fill="#FFD75E" d="M45 24l-3.95 3.95A7 7 0 0 1 36.1 30H6v44a4 4 0 0 0 4 4h76a4 4 0 0 0 4-4V28a4 4 0 0 0-4-4H45z"/><linearGradient id="a" gradientUnits="userSpaceOnUse" x1="48" y1="24" x2="48" y2="78"><stop offset="0" stop-color="#fff" stop-opacity="0"/><stop offset=".999" stop-color="#ffd75e" stop-opacity=".3"/></linearGradient><path fill="url(#a)" d="M45 24l-3.95 3.95A7 7 0 0 1 36.1 30H6v44a4 4 0 0 0 4 4h76a4 4 0 0 0 4-4V28a4 4 0 0 0-4-4H45z"/><path fill="#E67628" d="M10 78h76c1.309 0 2.47-.628 3.2-1.6l-.355.178a3.998 3.998 0 0 1-1.79.422H8.948c-.62 0-1.23-.144-1.785-.42l-.364-.182A3.994 3.994 0 0 0 10 78z"/><path opacity=".4" fill="#FFF" d="M41.697 28.803L46.5 24H45l-3.95 3.95A7 7 0 0 1 36.1 30H6v1h30.393a7.5 7.5 0 0 0 5.304-2.197z"/><g><path fill="#BF5712" d="M74.844 67.687v-1.094c.445 0 .871-.05 1.279-.15.407-.099.765-.258 1.076-.478.31-.219.558-.5.743-.845.185-.345.277-.766.277-1.261 0-.376-.075-.73-.224-1.06a2.825 2.825 0 0 0-1.499-1.456 2.732 2.732 0 0 0-1.09-.219h-4.5c-.386 0-.75.073-1.09.219a2.823 2.823 0 0 0-1.498 1.457c-.15.33-.224.683-.224 1.059 0 .495.092.916.277 1.26.185.345.432.627.743.846.31.22.669.38 1.076.479.408.1.834.15 1.28.15v1.093h-.563a3.888 3.888 0 0 1-1.534-.303 4.003 4.003 0 0 1-1.248-.82 3.886 3.886 0 0 1-.844-1.214 3.605 3.605 0 0 1-.312-1.491c0-.53.104-1.027.312-1.491.208-.465.49-.87.844-1.214.355-.345.77-.618 1.248-.82a3.888 3.888 0 0 1 1.534-.304h4.5c.545 0 1.056.101 1.533.304.478.202.894.475 1.248.82.355.345.636.75.844 1.214.208.464.312.96.312 1.49s-.104 1.028-.312 1.492c-.208.464-.489.869-.844 1.213-.354.345-.77.619-1.248.82a3.888 3.888 0 0 1-1.533.304h-.563zm5.625-4.375v1.094c.445 0 .871.05 1.279.15.407.099.765.259 1.076.478.31.22.558.501.743.846.185.345.277.765.277 1.26 0 .376-.075.73-.224 1.06a2.825 2.825 0 0 1-1.499 1.457c-.34.146-.703.218-1.09.218h-4.5c-.386 0-.75-.072-1.09-.218a2.823 2.823 0 0 1-1.498-1.457 2.543 2.543 0 0 1-.224-1.06c0-.495.092-.915.277-1.26a2.41 2.41 0 0 1 .743-.846c.31-.22.669-.38 1.076-.478.408-.1.834-.15 1.279-.15v-1.094h-.562c-.545 0-1.056.101-1.534.304a4.003 4.003 0 0 0-1.248.82 3.886 3.886 0 0 0-.844 1.213c-.208.465-.312.961-.312 1.491s.104 1.027.312 1.491c.208.465.49.87.844 1.214.354.345.77.618 1.248.82.478.203.989.304 1.534.304h4.5c.544 0 1.056-.101 1.533-.304a4.003 4.003 0 0 0 1.248-.82c.355-.345.636-.749.844-1.214.208-.464.312-.96.312-1.49s-.104-1.027-.312-1.492a3.884 3.884 0 0 0-.844-1.213 4.004 4.004 0 0 0-1.248-.82 3.888 3.888 0 0 0-1.533-.304h-.563z"/></g></svg>