<svg xmlns="http://www.w3.org/2000/svg" viewBox="0 0 96 96"><path opacity=".64" fill="#605E5C" d="M79 90H27c-1.654 0-3-1.346-3-3V9c0-1.654 1.346-3 3-3h52c1.654 0 3 1.346 3 3v2.002L85 11c1.654 0 3 1.346 3 3v13c0 1.654-1.346 3-3 3h-3v57c0 1.654-1.346 3-3 3zM27 8a1 1 0 0 0-1 1v78a1 1 0 0 0 1 1h52a1 1 0 0 0 1-1V30c0-1.103.897-2 2-2h3a1 1 0 0 0 1-1V14a1 1 0 0 0-1-1h-3c-1.103 0-2-.897-2-2V9a1 1 0 0 0-1-1H27z"/><path fill="#FFF" d="M85 28a1 1 0 0 0 1-1V14a1 1 0 0 0-1-1h-3c-1.103 0-2-.897-2-2V9a1 1 0 0 0-1-1H27a1 1 0 0 0-1 1v78a1 1 0 0 0 1 1h52a1 1 0 0 0 1-1V30c0-1.103.897-2 2-2h3z"/><path fill="#7719AA" d="M12 74h32a4 4 0 0 0 4-4V38a4 4 0 0 0-4-4H12a4 4 0 0 0-4 4v32a4 4 0 0 0 4 4z"/><path fill="#F9F7F7" d="M18 42h4.746l10.307 15.917c.47.713.821 1.289 1.056 1.723h.067c-.1-.602-.151-1.69-.151-3.263V42H38v24h-4.41L22.896 49.649c-.447-.692-.765-1.256-.956-1.69h-.084c.09.735.135 1.93.135 3.58V66H18V42z"/></svg>