<svg xmlns="http://www.w3.org/2000/svg" viewBox="0 0 96 96"><path opacity=".64" fill="#605E5C" d="M79 90H27c-1.654 0-3-1.346-3-3V9c0-1.654 1.346-3 3-3h52c1.654 0 3 1.346 3 3v78c0 1.654-1.346 3-3 3zM27 8a1 1 0 0 0-1 1v78a1 1 0 0 0 1 1h52a1 1 0 0 0 1-1V9a1 1 0 0 0-1-1H27z"/><path fill="#AE4BD5" d="M86 47h-4V30h4a2 2 0 0 1 2 2v13a2 2 0 0 1-2 2z"/><path fill="#CA64EA" d="M86 28h-4V11h3a3 3 0 0 1 3 3v12a2 2 0 0 1-2 2z"/><path fill="#9332BF" d="M86 66h-4V49h4a2 2 0 0 1 2 2v13a2 2 0 0 1-2 2z"/><path fill="#7719AA" d="M86 85h-4V68h4a2 2 0 0 1 2 2v13a2 2 0 0 1-2 2z"/><path fill="#FFF" d="M27 88h52a1 1 0 0 0 1-1V9a1 1 0 0 0-1-1H27a1 1 0 0 0-1 1v78a1 1 0 0 0 1 1z"/><path fill="#7719AA" d="M12 74h32a4 4 0 0 0 4-4V38a4 4 0 0 0-4-4H12a4 4 0 0 0-4 4v32a4 4 0 0 0 4 4z"/><path fill="#F9F7F7" d="M18 42h4.746l10.307 15.917c.47.713.821 1.289 1.056 1.723h.067c-.1-.602-.151-1.69-.151-3.263V42H38v24h-4.41L22.896 49.649c-.447-.692-.765-1.256-.956-1.69h-.084c.09.735.135 1.93.135 3.58V66H18V42z"/></svg>