<svg xmlns="http://www.w3.org/2000/svg" viewBox="0 0 96 96"><g fill="#FFF"><path d="M19 88h58a1 1 0 0 0 1-1V28H61c-1.654 0-3-1.346-3-3V8H19a1 1 0 0 0-1 1v78a1 1 0 0 0 1 1z"/><path d="M77.586 26L60 8.414V25a1 1 0 0 0 1 1h16.586z"/></g><path opacity=".64" fill="#605E5C" d="M79.121 24.707L61.293 6.879A2.978 2.978 0 0 0 59.172 6H19c-1.654 0-3 1.346-3 3v78c0 1.654 1.346 3 3 3h58c1.654 0 3-1.346 3-3V26.828c0-.8-.313-1.554-.879-2.121zM60 8.414L77.586 26H61a1 1 0 0 1-1-1V8.414zM77 88H19a1 1 0 0 1-1-1V9a1 1 0 0 1 1-1h39v17c0 1.654 1.346 3 3 3h17v59a1 1 0 0 1-1 1z"/><path fill="none" stroke="#C8C6C4" stroke-width="2" stroke-linejoin="round" stroke-miterlimit="10" d="M58 56H38a2 2 0 0 1-2-2V36h24v18a2 2 0 0 1-2 2zM48 57v2"/><path fill="none" stroke="#C8C6C4" stroke-width="2" stroke-linecap="round" stroke-linejoin="round" stroke-miterlimit="10" d="M52 60h-8M63 36H33M42 51V41"/><path fill="none" stroke="#F5BA9D" stroke-width="2" stroke-linecap="round" stroke-linejoin="round" stroke-miterlimit="10" d="M46 51v-8"/><path fill="none" stroke="#C8C6C4" stroke-width="2" stroke-linecap="round" stroke-linejoin="round" stroke-miterlimit="10" d="M50.001 51v-6"/><path fill="none" stroke="#F5BA9D" stroke-width="2" stroke-linecap="round" stroke-linejoin="round" stroke-miterlimit="10" d="M54.001 51v-4"/><path fill="none" stroke="#D04727" stroke-width="2" stroke-linecap="round" stroke-linejoin="round" stroke-miterlimit="10" d="M40 76V65M47.071 71.5L40 64.429 32.929 71.5"/></svg>