<svg xmlns="http://www.w3.org/2000/svg" viewBox="0 0 96 96"><g fill="#FFF"><path d="M27 88h58a1 1 0 0 0 1-1V28H69c-1.654 0-3-1.346-3-3V8H27a1 1 0 0 0-1 1v78a1 1 0 0 0 1 1z"/><path d="M85.586 26L68 8.414V25a1 1 0 0 0 1 1h16.586z"/></g><path opacity=".64" fill="#605E5C" d="M87.121 24.707L69.293 6.879A2.978 2.978 0 0 0 67.172 6H27c-1.654 0-3 1.346-3 3v78c0 1.654 1.346 3 3 3h58c1.654 0 3-1.346 3-3V26.828c0-.8-.313-1.554-.879-2.121zM68 8.414L85.586 26H69a1 1 0 0 1-1-1V8.414zM85 88H27a1 1 0 0 1-1-1V9a1 1 0 0 1 1-1h39v17c0 1.654 1.346 3 3 3h17v59a1 1 0 0 1-1 1z"/><path fill="#038387" d="M12 74h32a4 4 0 0 0 4-4V38a4 4 0 0 0-4-4H12a4 4 0 0 0-4 4v32a4 4 0 0 0 4 4z"/><path fill="#F9F7F7" d="M29.854 42c2.955 0 5.22.663 6.79 1.985 1.57 1.323 2.356 3.24 2.356 5.748 0 1.611-.389 3.043-1.165 4.297-.777 1.255-1.882 2.23-3.314 2.926C33.09 57.652 31.43 58 29.543 58h-4.544v9H20V42h9.854zM25 54h3.967c1.546 0 2.714-.35 3.505-1.045.79-.697 1.184-1.715 1.184-3.054 0-2.6-1.513-3.901-4.542-3.901H25v8z"/><g><path fill="#038387" d="M79 62H51v2h28a1 1 0 0 0 0-2z"/><path fill="#1A9BA1" d="M79 56H51v2h28a1 1 0 0 0 0-2z"/><path fill="#37C6D0" d="M51 52h27a2 2 0 0 0 2-2v-4a2 2 0 0 0-2-2H51v8z"/></g></svg>