<svg xmlns="http://www.w3.org/2000/svg" viewBox="0 0 96 96"><g fill="#FFF"><path d="M27 88h58a1 1 0 0 0 1-1V28H69c-1.654 0-3-1.346-3-3V8H27a1 1 0 0 0-1 1v78a1 1 0 0 0 1 1z"/><path d="M85.586 26L68 8.414V25a1 1 0 0 0 1 1h16.586z"/></g><path opacity=".64" fill="#605E5C" d="M87.121 24.707L69.293 6.879A2.978 2.978 0 0 0 67.172 6H27c-1.654 0-3 1.346-3 3v78c0 1.654 1.346 3 3 3h58c1.654 0 3-1.346 3-3V26.828c0-.8-.313-1.554-.879-2.121zM68 8.414L85.586 26H69a1 1 0 0 1-1-1V8.414zM85 88H27a1 1 0 0 1-1-1V9a1 1 0 0 1 1-1h39v17c0 1.654 1.346 3 3 3h17v59a1 1 0 0 1-1 1z"/><path fill="#C8C6C4" d="M79 71H48v-2h31a1 1 0 1 1 0 2zM79 65H48v-2h31a1 1 0 1 1 0 2z"/><path fill="#81C8C3" d="M42 59h36a2 2 0 0 0 2-2V40a2 2 0 0 0-2-2H42v21z"/><path fill="#C8C6C4" d="M79 75H33a1 1 0 0 0 0 2h46a1 1 0 0 0 0-2z"/><path fill="#03787C" d="M12 74h32a4 4 0 0 0 4-4V38a4 4 0 0 0-4-4H12a4 4 0 0 0-4 4v32a4 4 0 0 0 4 4z"/><path fill="#FFF" d="M22.742 53.579c-.884-.588-1.561-1.284-2.033-2.087-.473-.804-.709-1.756-.709-2.857 0-1.467.439-2.7 1.317-3.698.877-.998 2.044-1.737 3.5-2.216 1.455-.48 3.05-.721 4.783-.721 2.655 0 4.755.286 6.3.858v4.32c-.823-.495-1.773-.873-2.85-1.132a14.227 14.227 0 0 0-3.333-.389c-1.378 0-2.52.236-3.426.704-.905.47-1.358 1.136-1.358 2 0 .54.192 1.01.576 1.416.382.403.9.763 1.549 1.075.65.314 1.62.729 2.909 1.247.222.075.36.13.416.161 1.522.605 2.744 1.19 3.667 1.757.922.565 1.644 1.272 2.167 2.119.522.847.783 1.913.783 3.196 0 1.576-.411 2.86-1.233 3.852-.823.993-1.923 1.71-3.3 2.153-1.378.441-2.945.663-4.7.663-1.5 0-2.92-.113-4.258-.34-1.34-.226-2.492-.55-3.459-.97v-4.565c.944.68 2.11 1.22 3.5 1.619 1.389.4 2.672.598 3.85.598 1.544 0 2.709-.24 3.491-.72.784-.48 1.176-1.157 1.176-2.03 0-.593-.22-1.111-.658-1.554-.44-.442-1.045-.852-1.818-1.23-.772-.377-1.914-.874-3.424-1.489-1.4-.572-2.542-1.152-3.425-1.74z"/></svg>