<svg xmlns="http://www.w3.org/2000/svg" viewBox="0 0 96 96"><path fill="#FFF" d="M11 86h74a1 1 0 0 0 1-1V11a1 1 0 0 0-1-1H11a1 1 0 0 0-1 1v74a1 1 0 0 0 1 1z"/><path opacity=".64" fill="#605E5C" d="M85 88H11c-1.654 0-3-1.346-3-3V11c0-1.654 1.346-3 3-3h74c1.654 0 3 1.346 3 3v74c0 1.654-1.346 3-3 3zM11 10a1 1 0 0 0-1 1v74a1 1 0 0 0 1 1h74a1 1 0 0 0 1-1V11a1 1 0 0 0-1-1H11z"/><path fill="none" d="M8 8h80v80H8z"/><g fill-rule="evenodd" clip-rule="evenodd"><path fill="#BC1948" d="M39 48v14.754c0 1.513 1.784 2.425 3.137 1.603l24.759-15.052c.51-.31.766-.806.77-1.305H39z"/><path fill="#E8467C" d="M39 48V33.246c0-1.513 1.784-2.425 3.137-1.603l24.759 15.052c.51.31.766.806.77 1.305H39z"/><path fill="#8C193F" d="M34.622 38.186l12.565 8.853c.64.451.64 1.471 0 1.922l-12.565 8.853c-.7.493-1.622-.053-1.622-.96V39.146c0-.908.923-1.454 1.622-.961"/></g></svg>