<svg xmlns="http://www.w3.org/2000/svg" viewBox="0 0 96 96"><linearGradient id="a" gradientUnits="userSpaceOnUse" x1="48" y1="21" x2="48" y2="76"><stop offset="0" stop-color="#c8c6c4"/><stop offset="1" stop-color="#b3b0ad"/></linearGradient><path fill-rule="evenodd" clip-rule="evenodd" fill="url(#a)" d="M86 76H10a4 4 0 0 1-4-4V25a4 4 0 0 1 4-4h76a4 4 0 0 1 4 4v47a4 4 0 0 1-4 4z"/><linearGradient id="b" gradientUnits="userSpaceOnUse" x1="15.5" y1="78" x2="15.5" y2="76"><stop offset=".001" stop-color="#797775"/><stop offset="1" stop-color="#605e5c"/></linearGradient><path fill="url(#b)" d="M18.537 78h-6.073a.75.75 0 0 1-.671-.415L11 76h9l-.793 1.585a.75.75 0 0 1-.67.415z"/><linearGradient id="c" gradientUnits="userSpaceOnUse" x1="80.5" y1="78" x2="80.5" y2="76"><stop offset=".001" stop-color="#797775"/><stop offset="1" stop-color="#605e5c"/></linearGradient><path fill="url(#c)" d="M83.537 78h-6.074a.75.75 0 0 1-.67-.415L76 76h9l-.793 1.585a.75.75 0 0 1-.67.415z"/><linearGradient id="d" gradientUnits="userSpaceOnUse" x1="82" y1="36" x2="82" y2="61"><stop offset=".001" stop-color="#797775"/><stop offset="1" stop-color="#605e5c"/></linearGradient><path fill="url(#d)" d="M81 61V36a2 2 0 0 1 2 2v21a2 2 0 0 1-2 2z"/><path fill="#797775" d="M11 26h70v45H11z"/><linearGradient id="e" gradientUnits="userSpaceOnUse" x1="42.5" y1="26" x2="42.5" y2="31"><stop offset="0" stop-color="#a19f9d"/><stop offset=".999" stop-color="#605e5c" stop-opacity=".3"/></linearGradient><path fill="url(#e)" d="M74 31H16l-5-5h63z"/><linearGradient id="f" gradientUnits="userSpaceOnUse" x1="42.5" y1="71" x2="42.5" y2="66"><stop offset="0" stop-color="#a19f9d"/><stop offset=".999" stop-color="#605e5c" stop-opacity=".3"/></linearGradient><path fill="url(#f)" d="M74 71H11l5-5h58z"/><linearGradient id="g" gradientUnits="userSpaceOnUse" x1="11" y1="48.5" x2="16" y2="48.5"><stop offset="0" stop-color="#a19f9d"/><stop offset=".999" stop-color="#605e5c" stop-opacity=".3"/></linearGradient><path fill="url(#g)" d="M16 66l-5 5V26l5 5z"/><path fill="#E1DFDD" d="M81 76h-5a2 2 0 0 1-2-2V20a2 2 0 0 1 2-2h5v58zM74 74h-2a2 2 0 0 1-2-2V22a2 2 0 0 1 2-2h2v54z"/><linearGradient id="h" gradientUnits="userSpaceOnUse" x1="77.5" y1="18" x2="77.5" y2="76"><stop offset="0" stop-color="#e1dfdd" stop-opacity="0"/><stop offset="1" stop-color="#bebbb8" stop-opacity=".2"/></linearGradient><path fill="url(#h)" d="M81 76h-5a2 2 0 0 1-2-2V20a2 2 0 0 1 2-2h5v58z"/><linearGradient id="i" gradientUnits="userSpaceOnUse" x1="70" y1="47" x2="74" y2="47"><stop offset="0" stop-color="#e1dfdd" stop-opacity="0"/><stop offset=".999" stop-color="#c8c6c4" stop-opacity=".8"/></linearGradient><path fill="url(#i)" d="M74 74h-2a2 2 0 0 1-2-2V22a2 2 0 0 1 2-2h2v54z"/><linearGradient id="j" gradientUnits="userSpaceOnUse" x1="77.5" y1="24" x2="77.5" y2="31"><stop offset=".002" stop-color="#bebbb8"/><stop offset="1" stop-color="#c8c6c4"/></linearGradient><path fill="url(#j)" d="M77.5 31a1.5 1.5 0 0 1-1.5-1.5v-4a1.5 1.5 0 0 1 3 0v4a1.5 1.5 0 0 1-1.5 1.5z"/><linearGradient id="k" gradientUnits="userSpaceOnUse" x1="77.5" y1="43" x2="77.5" y2="50"><stop offset=".002" stop-color="#bebbb8"/><stop offset="1" stop-color="#c8c6c4"/></linearGradient><path fill="url(#k)" d="M77.5 50a1.5 1.5 0 0 1-1.5-1.5v-4a1.5 1.5 0 0 1 3 0v4a1.5 1.5 0 0 1-1.5 1.5z"/><linearGradient id="l" gradientUnits="userSpaceOnUse" x1="77.5" y1="63" x2="77.5" y2="70"><stop offset=".002" stop-color="#bebbb8"/><stop offset="1" stop-color="#c8c6c4"/></linearGradient><path fill="url(#l)" d="M77.5 70a1.5 1.5 0 0 1-1.5-1.5v-4a1.5 1.5 0 0 1 3 0v4a1.5 1.5 0 0 1-1.5 1.5z"/><path fill="#FFF" d="M55 69H31a1 1 0 0 1-1-1V35a1 1 0 0 1 1-1h17l8 8v26a1 1 0 0 1-1 1z"/><path fill="#EDEBE9" d="M56 42h-7a1 1 0 0 1-1-1v-7l8 8z"/></svg>