<svg xmlns="http://www.w3.org/2000/svg" viewBox="0 0 96 96"><path fill="#FFF" d="M47.5 72.013c16.799 0 31.624 4.316 37.205 5.94a.976.976 0 0 0 .878-.15c.265-.2.417-.51.417-.851v-57.9c0-.35-.155-.664-.426-.863a.935.935 0 0 0-.851-.144c-.593.185-1.286.413-2.074.672-6.243 2.056-19.235 6.332-35.475 6.332-15.77 0-27.504-4.062-33.808-6.245-.783-.27-1.473-.51-2.067-.704a.944.944 0 0 0-.868.137A1.05 1.05 0 0 0 10 19.1v57.774c0 .35.155.663.427.862.147.108.454.27.853.143 5.094-1.604 18.623-5.866 36.22-5.866z"/><path fill="#605E5C" d="M85.006 80c-.278 0-.56-.04-.836-.12-5.53-1.609-20.156-5.867-36.67-5.867-17.29 0-30.605 4.194-35.618 5.774a2.929 2.929 0 0 1-2.638-.438A3.074 3.074 0 0 1 8 76.874V19.1c0-.984.47-1.912 1.257-2.482a2.936 2.936 0 0 1 2.663-.42c.603.199 1.306.441 2.1.717 6.193 2.143 17.72 6.134 33.154 6.134 15.92 0 28.234-4.053 34.85-6.231.8-.263 1.501-.494 2.103-.682a2.93 2.93 0 0 1 2.632.442A3.035 3.035 0 0 1 88 19.05v57.9c0 .978-.443 1.87-1.217 2.45a2.95 2.95 0 0 1-1.777.6zM47.5 72.014c16.799 0 31.624 4.316 37.205 5.94a.976.976 0 0 0 .878-.15c.265-.2.417-.51.417-.851v-57.9c0-.35-.155-.664-.426-.863a.935.935 0 0 0-.851-.144c-.593.185-1.286.413-2.074.672-6.243 2.056-19.235 6.332-35.475 6.332-15.77 0-27.504-4.062-33.808-6.245-.783-.27-1.473-.51-2.067-.704a.944.944 0 0 0-.868.137A1.05 1.05 0 0 0 10 19.1v57.774c0 .35.155.663.427.862.147.108.454.27.853.143 5.094-1.604 18.623-5.866 36.22-5.866z" opacity=".64"/><path fill="none" stroke="#69AFE5" stroke-width="2" stroke-linecap="round" stroke-linejoin="round" stroke-miterlimit="10" d="M60.5 48.5L41 38v21z"/><g fill="#C8C6C4"><circle cx="16.5" cy="34.5" r="1.5"/><circle cx="16.5" cy="43.5" r="1.5"/><circle cx="16.5" cy="52.5" r="1.5"/><circle cx="16.5" cy="62.5" r="1.5"/></g><g fill="#C8C6C4"><circle cx="78.5" cy="34.5" r="1.5"/><circle cx="78.5" cy="43.5" r="1.5"/><circle cx="78.5" cy="52.5" r="1.5"/><circle cx="78.5" cy="62.5" r="1.5"/></g></svg>