<svg xmlns="http://www.w3.org/2000/svg" viewBox="0 0 96 96"><g fill="#FFF"><path d="M27 88h58a1 1 0 0 0 1-1V28H69c-1.654 0-3-1.346-3-3V8H27a1 1 0 0 0-1 1v78a1 1 0 0 0 1 1z"/><path d="M85.586 26L68 8.414V25a1 1 0 0 0 1 1h16.586z"/></g><path opacity=".64" fill="#605E5C" d="M87.121 24.707L69.293 6.879A2.978 2.978 0 0 0 67.172 6H27c-1.654 0-3 1.346-3 3v78c0 1.654 1.346 3 3 3h58c1.654 0 3-1.346 3-3V26.828c0-.8-.313-1.554-.879-2.121zM68 8.414L85.586 26H69a1 1 0 0 1-1-1V8.414zM85 88H27a1 1 0 0 1-1-1V9a1 1 0 0 1 1-1h39v17c0 1.654 1.346 3 3 3h17v59a1 1 0 0 1-1 1z"/><path fill="#185ABD" d="M12 74h32a4 4 0 0 0 4-4V38a4 4 0 0 0-4-4H12.1A4.1 4.1 0 0 0 8 38.1V70a4 4 0 0 0 4 4z"/><path fill="#FFF" d="M27.306 58.221c.67 1.915 1.065 3.123 1.186 3.625h.082c.12-.502.549-1.796 1.284-3.882L35.143 43H40l-8.956 23H25.84L17 43h5.005l5.301 15.221z"/><g><path fill="#185ABD" d="M67 53.25V46h-2v7.25a.75.75 0 0 1-.75.75H57v2h14.25a.75.75 0 0 1 .75.75V63h2v-6a3 3 0 0 0-3-3h-3.25a.75.75 0 0 1-.75-.75z"/><circle fill="#2B7CD3" cx="73" cy="69" r="7"/><path fill="#41A5EE" d="M51 48h7v14h-7z"/><path fill="#103F91" d="M58 40l8-8 8 8-8 8z"/></g></svg>