<svg xmlns="http://www.w3.org/2000/svg" viewBox="0 0 96 96"><g fill="#FFF"><path d="M27 82h52a1 1 0 0 0 1-1V17H26v64a1 1 0 0 0 1 1z"/><path d="M82 81c0 1.654-1.346 3-3 3H32v3a1 1 0 0 0 1 1h52a1 1 0 0 0 1-1V13h1l-6-4v8h1v64z"/></g><path opacity=".64" fill="#605E5C" d="M86 13v74a1 1 0 0 1-1 1H33a1 1 0 0 1-1-1v-3h47c1.654 0 3-1.346 3-3V17h-2v64a1 1 0 0 1-1 1H27a1 1 0 0 1-1-1V17h-2v64c0 1.654 1.346 3 3 3h3v3c0 1.654 1.346 3 3 3h52c1.654 0 3-1.346 3-3V13h-2z"/><path fill="#185ABD" d="M12 74h32a4 4 0 0 0 4-4V38a4 4 0 0 0-4-4H12a4 4 0 0 0-4 4v32a4 4 0 0 0 4 4z"/><path fill="#FFF" d="M27.306 58.221c.67 1.915 1.065 3.123 1.186 3.625h.082c.12-.502.549-1.796 1.284-3.882L35.143 43H40l-8.956 23H25.84L17 43h5.005l5.301 15.221z"/><path fill="#41A5EE" d="M82 6.186A1.993 1.993 0 0 0 81.172 6H26a2 2 0 0 0-2 2v8l1 1h56l1-1v-3.5l1-1V8l-1-1.814z"/><path fill="#2B7CD3" d="M24 16h58v2H24zM83.707 12.707L88 17v-4.586a1 1 0 0 0-.293-.707l-5.121-5.121c-.17-.17-.371-.302-.586-.4v7.228c0-.89 1.077-1.337 1.707-.707z"/><g><path fill="#185ABD" d="M63 53.25V45h-2v8.25a.75.75 0 0 1-.75.75H54v2h13.25a.75.75 0 0 1 .75.75V64h2v-7a3 3 0 0 0-3-3h-3.25a.75.75 0 0 1-.75-.75z"/><circle fill="#2B7CD3" cx="69" cy="69" r="6"/><path fill="#41A5EE" d="M51 49h4v12h-4z"/><path fill="#103F91" d="M54.999 40l7-7 7 7-7 7z"/></g></svg>