<svg xmlns="http://www.w3.org/2000/svg" viewBox="0 0 96 96"><g fill="#FFF"><path d="M27 82h52a1 1 0 0 0 1-1V17H26v64a1 1 0 0 0 1 1z"/><path d="M82 81c0 1.654-1.346 3-3 3H32v3a1 1 0 0 0 1 1h52a1 1 0 0 0 1-1V13h1l-6-4v8h1v64z"/></g><path opacity=".64" fill="#605E5C" d="M86 13v74a1 1 0 0 1-1 1H33a1 1 0 0 1-1-1v-3h47c1.654 0 3-1.346 3-3V17h-2v64a1 1 0 0 1-1 1H27a1 1 0 0 1-1-1V17h-2v64c0 1.654 1.346 3 3 3h3v3c0 1.654 1.346 3 3 3h52c1.654 0 3-1.346 3-3V13h-2z"/><path fill="#33C481" d="M82 6.186A1.993 1.993 0 0 0 81.172 6H26a2 2 0 0 0-2 2v8l1 1h56l1-1v-3.5l1-1V8l-1-1.814z"/><path fill="#21A366" d="M24 16h58v2H24zM83.707 12.707L88 17v-4.586a1 1 0 0 0-.293-.707l-5.121-5.121c-.17-.17-.371-.302-.586-.4v7.228c0-.89 1.077-1.337 1.707-.707z"/><path fill="#134A2C" d="M73 64h-9a1 1 0 0 1-1-1v-2a1 1 0 0 1 1-1h9a1 1 0 0 1 1 1v2a1 1 0 0 1-1 1z"/><path fill="#185C37" d="M59 60h-8v4h8a1 1 0 0 0 1-1v-2a1 1 0 0 0-1-1z"/><path fill="#21A366" d="M73 56h-9a1 1 0 0 1-1-1v-2a1 1 0 0 1 1-1h9a1 1 0 0 1 1 1v2a1 1 0 0 1-1 1z"/><path fill="#107C41" d="M59 52h-8v4h8a1 1 0 0 0 1-1v-2a1 1 0 0 0-1-1z"/><path fill="#33C481" d="M73 48h-9a1 1 0 0 1-1-1v-2a1 1 0 0 1 1-1h9a1 1 0 0 1 1 1v2a1 1 0 0 1-1 1z"/><path fill="#21A366" d="M59 44h-8v4h8a1 1 0 0 0 1-1v-2a1 1 0 0 0-1-1z"/><g><path fill="#107C41" d="M12 74h32a4 4 0 0 0 4-4V38a4 4 0 0 0-4-4H12a4 4 0 0 0-4 4v32a4 4 0 0 0 4 4z"/><path fill="#F9F7F7" d="M16.95 66l7.884-12.034L17.612 42h5.812l3.942 7.649c.362.725.611 1.266.747 1.623h.051c.262-.58.533-1.143.816-1.69L33.194 42h5.335l-7.408 11.9L38.717 66H33.04l-4.554-8.402a6.949 6.949 0 0 1-.544-1.121h-.067c-.08.268-.255.63-.526 1.088L22.66 66h-5.71z"/></g></svg>