<svg xmlns="http://www.w3.org/2000/svg" viewBox="0 0 96 96"><path fill="#FFB900" d="M45 24l-3.95-3.95A7 7 0 0 0 36.1 18H10a4 4 0 0 0-4 4v52a4 4 0 0 0 4 4h76a4 4 0 0 0 4-4V28a4 4 0 0 0-4-4H45z"/><path fill="#FFD75E" d="M45 24l-3.95 3.95A7 7 0 0 1 36.1 30H6v44a4 4 0 0 0 4 4h76a4 4 0 0 0 4-4V28a4 4 0 0 0-4-4H45z"/><linearGradient id="a" gradientUnits="userSpaceOnUse" x1="48" y1="24" x2="48" y2="78"><stop offset="0" stop-color="#fff" stop-opacity="0"/><stop offset=".999" stop-color="#ffd75e" stop-opacity=".3"/></linearGradient><path fill="url(#a)" d="M45 24l-3.95 3.95A7 7 0 0 1 36.1 30H6v44a4 4 0 0 0 4 4h76a4 4 0 0 0 4-4V28a4 4 0 0 0-4-4H45z"/><path fill="#E67628" d="M10 78h76c1.309 0 2.47-.628 3.2-1.6l-.355.178a3.998 3.998 0 0 1-1.79.422H8.948c-.62 0-1.23-.144-1.785-.42l-.364-.182A3.994 3.994 0 0 0 10 78z"/><path opacity=".4" fill="#FFF" d="M41.697 28.803L46.5 24H45l-3.95 3.95A7 7 0 0 1 36.1 30H6v1h30.393a7.5 7.5 0 0 0 5.304-2.197z"/><g fill="#BF5712"><path d="M44 59a1 1 0 0 1-1-1v-8a1 1 0 1 1 2 0v8a1 1 0 0 1-1 1zM49 59a1 1 0 0 1-1-1v-8a1 1 0 1 1 2 0v8a1 1 0 0 1-1 1zM54 59a1 1 0 0 1-1-1v-8a1 1 0 1 1 2 0v8a1 1 0 0 1-1 1zM59 59a1 1 0 0 1-1-1v-8a1 1 0 1 1 2 0v8a1 1 0 0 1-1 1zM64 59a1 1 0 0 1-1-1v-8a1 1 0 1 1 2 0v8a1 1 0 0 1-1 1zM69 59a1 1 0 0 1-1-1v-8a1 1 0 1 1 2 0v8a1 1 0 0 1-1 1zM74 59a1 1 0 0 1-1-1v-8a1 1 0 1 1 2 0v8a1 1 0 0 1-1 1zM79 59a1 1 0 0 1-1-1v-8a1 1 0 1 1 2 0v8a1 1 0 0 1-1 1zM84 59a1 1 0 0 1-1-1v-8a1 1 0 1 1 2 0v8a1 1 0 0 1-1 1zM89 59a1 1 0 0 1-1-1v-8a1 1 0 1 1 2 0v8a1 1 0 0 1-1 1zM38 47H11a2 2 0 0 0-2 2h2a1 1 0 0 1 1 1v8a1 1 0 0 1-1 1H9a2 2 0 0 0 2 2h27a2 2 0 0 0 2-2V49a2 2 0 0 0-2-2zm-1 11a1 1 0 0 1-1 1h-8a1 1 0 0 1-1-1v-8a1 1 0 0 1 1-1h8a1 1 0 0 1 1 1v8zM8 59H6V49h2a1 1 0 0 1 1 1v8a1 1 0 0 1-1 1z"/></g></svg>