<svg xmlns="http://www.w3.org/2000/svg" viewBox="0 0 60 60"><g fill="#FFF"><path d="M16 54h35a1 1 0 0 0 1-1V17h-8c-1.654 0-3-1.346-3-3V6H16a1 1 0 0 0-1 1v46a1 1 0 0 0 1 1z"/><path d="M51.586 15L43 6.414V14a1 1 0 0 0 1 1h7.586z"/></g><path opacity=".64" fill="#605E5C" d="M53.121 13.707l-8.828-8.828A2.978 2.978 0 0 0 42.172 4H16c-1.654 0-3 1.346-3 3v46c0 1.654 1.346 3 3 3h35c1.654 0 3-1.346 3-3V15.828c0-.8-.313-1.554-.879-2.121zM43 6.414L51.586 15H44a1 1 0 0 1-1-1V6.414zM51 54H16a1 1 0 0 1-1-1V7a1 1 0 0 1 1-1h25v8c0 1.654 1.346 3 3 3h8v36a1 1 0 0 1-1 1z"/><path fill="#AF2031" d="M9 46h20a3 3 0 0 0 3-3V23a3 3 0 0 0-3-3H9a3 3 0 0 0-3 3v20a3 3 0 0 0 3 3z"/><path fill="#FFF" d="M17.389 25h3.304L26 40h-3.121l-1.17-3.344h-5.46L15.102 40H12l5.389-15zm3.619 9.11l-1.698-5.428c-.17-.516-.274-.923-.315-1.224h-.061c-.027.273-.129.691-.305 1.255L16.91 34.11h4.097z"/><g><path fill="#E08095" d="M43 31h-3a1 1 0 0 0 0 2h3a1 1 0 0 0 0-2z"/><path fill="#C94F60" d="M43 35h-3a1 1 0 0 0 0 2h3a1 1 0 0 0 0-2z"/><path fill="#AF2031" d="M36 35h-2v2h2a1 1 0 0 0 0-2z"/><path fill="#C94F60" d="M36 31h-2v2h2a1 1 0 0 0 0-2zM46 28v10a1 1 0 0 1-1 1H34v2h11c1.654 0 3-1.346 3-3V28h-2z"/><path fill="#E08095" d="M48 29H34v-4h11a3 3 0 0 1 3 3v1z"/></g></svg>