<svg xmlns="http://www.w3.org/2000/svg" viewBox="0 0 60 60"><path fill="#FFF" d="M52 51V22H8v29a1 1 0 0 0 1 1h42a1 1 0 0 0 1-1zM42 13a1 1 0 0 1-1-1V9a1 1 0 1 1 2 0v3a1 1 0 0 1-1 1z"/><g fill="#FFF"><path d="M42 13a1 1 0 0 0 1-1v-1h-2v1a1 1 0 0 0 1 1z"/><path d="M51 11h-6v1c0 1.654-1.346 3-3 3s-3-1.346-3-3v-1H21v1c0 1.654-1.346 3-3 3s-3-1.346-3-3v-1H9a1 1 0 0 0-1 1v8h44v-8a1 1 0 0 0-1-1z"/><path d="M18 13a1 1 0 0 0 1-1v-1h-2v1a1 1 0 0 0 1 1z"/></g><path fill="#FFF" d="M18 13a1 1 0 0 1-1-1V9a1 1 0 1 1 2 0v3a1 1 0 0 1-1 1z"/><path opacity=".64" fill="#61605E" d="M51 9h-6c0-1.654-1.346-3-3-3s-3 1.346-3 3H21c0-1.654-1.346-3-3-3s-3 1.346-3 3H9c-1.654 0-3 1.346-3 3v39c0 1.654 1.346 3 3 3h42c1.654 0 3-1.346 3-3V12c0-1.654-1.346-3-3-3zM41 9a1 1 0 0 1 2 0v3a1 1 0 0 1-2 0V9zM17 9a1 1 0 0 1 2 0v3a1 1 0 0 1-2 0V9zm35 42a1 1 0 0 1-1 1H9a1 1 0 0 1-1-1V22h44v29zm0-31H8v-8a1 1 0 0 1 1-1h6v1c0 1.654 1.346 3 3 3s3-1.346 3-3v-1h18v1c0 1.654 1.346 3 3 3s3-1.346 3-3v-1h6a1 1 0 0 1 1 1v8z"/><circle fill="#C8C6C4" cx="18" cy="30" r="1"/><circle fill="#C8C6C4" cx="26" cy="30" r="1"/><circle fill="#C8C6C4" cx="34" cy="30" r="1"/><circle fill="#C8C6C4" cx="42" cy="30" r="1"/><circle fill="#C8C6C4" cx="18" cy="37" r="1"/><circle fill="#C8C6C4" cx="26" cy="37" r="1"/><circle fill="#C8C6C4" cx="34" cy="37" r="1"/><circle fill="#C8C6C4" cx="42" cy="37" r="1"/><circle fill="#C8C6C4" cx="18" cy="44" r="1"/><circle fill="#C8C6C4" cx="26" cy="44" r="1"/><circle fill="#C8C6C4" cx="34" cy="44" r="1"/><circle fill="#C8C6C4" cx="42" cy="44" r="1"/></svg>