<svg xmlns="http://www.w3.org/2000/svg" viewBox="0 0 60 60"><path fill="#FFF" d="M44.625 46H51a1 1 0 0 0 1-1V15a1 1 0 0 0-1-1H9a1 1 0 0 0-1 1v30a1 1 0 0 0 1 1h6.947c.017-.275.065-.54.144-.788.433-1.372 1.806-2.33 3.338-2.33h.125c1.605 0 3.016 1.007 3.356 2.395.05.209.081.447.093.723h14.566c.017-.273.064-.536.142-.785.433-1.375 1.806-2.334 3.339-2.334h.125c1.605 0 3.016 1.008 3.356 2.396.05.205.081.447.094.723z"/><circle fill="none" stroke="#69AFE5" stroke-width="2" stroke-miterlimit="10" cx="19.5" cy="26.5" r="4.5"/><path fill="none" stroke="#69AFE5" stroke-width="2" stroke-linecap="round" stroke-linejoin="round" stroke-miterlimit="10" d="M13.217 37s1.279-5.87 6.392-5.87S26 37 26 37"/><path fill="#C8C6C4" d="M47 25H32a1 1 0 1 1 0-2h15a1 1 0 1 1 0 2zM47 30H32a1 1 0 1 1 0-2h15a1 1 0 1 1 0 2zM42 35H32a1 1 0 1 1 0-2h10a1 1 0 1 1 0 2z"/><circle fill="#C8C6C4" cx="47" cy="34" r="1"/><path opacity=".64" fill="#605E5C" d="M51 48h-6.674c-.456 0-.884-.178-1.205-.5a1.676 1.676 0 0 1-.491-1.198 2.382 2.382 0 0 0-.041-.549c-.139-.567-.832-.872-1.414-.872h-.125c-.67 0-1.258.385-1.43.934a1.37 1.37 0 0 0-.057.44c.01.469-.165.907-.489 1.239-.32.326-.748.506-1.206.506H22.705c-.456 0-.884-.178-1.205-.5a1.675 1.675 0 0 1-.491-1.198 2.533 2.533 0 0 0-.042-.553c-.138-.563-.831-.868-1.413-.868h-.125c-.67 0-1.258.385-1.431.934a1.35 1.35 0 0 0-.057.44c.01.46-.167.91-.486 1.237-.32.328-.75.508-1.209.508H9c-1.654 0-3-1.346-3-3V15c0-1.654 1.346-3 3-3h42c1.654 0 3 1.346 3 3v30c0 1.654-1.346 3-3 3zm-27.991-1.69zM44.625 46H51a1 1 0 0 0 1-1V15a1 1 0 0 0-1-1H9a1 1 0 0 0-1 1v30a1 1 0 0 0 1 1h6.947c.017-.275.065-.54.144-.788.433-1.372 1.806-2.33 3.338-2.33h.125c1.605 0 3.016 1.007 3.356 2.395.05.209.081.447.093.723h14.566c.017-.273.064-.536.142-.785.433-1.375 1.806-2.334 3.339-2.334h.125c1.605 0 3.016 1.008 3.356 2.396.05.205.081.447.094.723z"/></svg>