<svg xmlns="http://www.w3.org/2000/svg" viewBox="0 0 60 60"><g fill="#FFF"><path d="M16 54h35a1 1 0 0 0 1-1V17h-8c-1.654 0-3-1.346-3-3V6H16a1 1 0 0 0-1 1v46a1 1 0 0 0 1 1z"/><path d="M51.586 15L43 6.414V14a1 1 0 0 0 1 1h7.586z"/></g><path opacity=".64" fill="#605E5C" d="M53.121 13.707l-8.828-8.828A2.978 2.978 0 0 0 42.172 4H16c-1.654 0-3 1.346-3 3v46c0 1.654 1.346 3 3 3h35c1.654 0 3-1.346 3-3V15.828c0-.8-.313-1.554-.879-2.121zM43 6.414L51.586 15H44a1 1 0 0 1-1-1V6.414zM51 54H16a1 1 0 0 1-1-1V7a1 1 0 0 1 1-1h25v8c0 1.654 1.346 3 3 3h8v36a1 1 0 0 1-1 1z"/><g fill="#33C481"><path d="M44 38.697h-1.994v-1.936h-.048C41.09 38.254 39.814 39 38.128 39c-1.2 0-2.16-.325-2.882-.974-.72-.65-1.082-1.524-1.082-2.621 0-2.308 1.37-3.656 4.11-4.043l3.732-.52c0-2.099-.855-3.147-2.565-3.147-1.5 0-2.854.504-4.06 1.513v-2.034c.364-.274.988-.539 1.871-.793s1.67-.381 2.36-.381C42.536 26 44 27.545 44 30.636v8.061zm-1.994-6.27l-3.015.424c-1.03.145-1.75.39-2.164.732-.413.343-.62.898-.62 1.665 0 .621.223 1.12.669 1.495s1.017.562 1.714.562c.988 0 1.805-.346 2.45-1.04.643-.695.966-1.562.966-2.603v-1.235zM49 36l-1.933 6h-1.423l1.423-6H49z"/></g><path fill="#107C41" d="M9 46h20a3 3 0 0 0 3-3V23a3 3 0 0 0-3-3H9a3 3 0 0 0-3 3v20a3 3 0 0 0 3 3z"/><path fill="#F9F7F7" d="M12 41l5.07-7.52L12.428 26h3.626l2.625 4.95c.242.469.408.82.499 1.05h.033c.173-.376.354-.74.543-1.094L22.56 26h3.321l-4.766 7.438L26 41h-3.623l-2.953-5.293a4.391 4.391 0 0 1-.352-.707h-.044c-.052.169-.165.397-.342.686L15.645 41H12z"/></svg>