<svg xmlns="http://www.w3.org/2000/svg" viewBox="0 0 60 60"><g fill="#FFF"><path d="M12 54h35a1 1 0 0 0 1-1V17h-8c-1.654 0-3-1.346-3-3V6H12a1 1 0 0 0-1 1v46a1 1 0 0 0 1 1z"/><path d="M47.586 15L39 6.414V14a1 1 0 0 0 1 1h7.586z"/></g><path opacity=".64" fill="#605E5C" d="M49.121 13.707l-8.828-8.828A2.978 2.978 0 0 0 38.172 4H12c-1.654 0-3 1.346-3 3v46c0 1.654 1.346 3 3 3h35c1.654 0 3-1.346 3-3V15.828c0-.8-.313-1.554-.879-2.121zM39 6.414L47.586 15H40a1 1 0 0 1-1-1V6.414zM47 54H12a1 1 0 0 1-1-1V7a1 1 0 0 1 1-1h25v8c0 1.654 1.346 3 3 3h8v36a1 1 0 0 1-1 1z"/><path fill="#FFF" stroke="#69AFE5" stroke-width="2" stroke-miterlimit="10" d="M19.352 27H9a2 2 0 0 0-2 2v24a2 2 0 0 0 2 2h40a2 2 0 0 0 2-2v-9c0-1.104-.938-2-2.095-2H40.25c-.5 0-.982-.17-1.362-.48l-18.42-14.18a2 2 0 0 0-1.116-.34z"/><path fill="#C8C6C4" d="M25 46H15a1 1 0 1 1 0-2h10a1 1 0 1 1 0 2zM22.1 50h-7.2c-.497 0-.9-.448-.9-1s.403-1 .9-1h7.2c.497 0 .9.448.9 1s-.403 1-.9 1z"/></svg>