<svg xmlns="http://www.w3.org/2000/svg" viewBox="0 0 60 60"><path fill="#FFB900" d="M28 15l-2.535-2.535A5 5 0 0 0 21.928 11H7a3 3 0 0 0-3 3v32a3 3 0 0 0 3 3h46a3 3 0 0 0 3-3V18a3 3 0 0 0-3-3H28z"/><path fill="#FFD75E" d="M28 15l-2.535 2.535A5 5 0 0 1 21.928 19H4v27a3 3 0 0 0 3 3h46a3 3 0 0 0 3-3V18a3 3 0 0 0-3-3H28z"/><linearGradient id="a" gradientUnits="userSpaceOnUse" x1="30" y1="15" x2="30" y2="49"><stop offset="0" stop-color="#fff" stop-opacity="0"/><stop offset=".999" stop-color="#ffd75e" stop-opacity=".3"/></linearGradient><path fill="url(#a)" d="M28 15l-2.535 2.535A5 5 0 0 1 21.928 19H4v27a3 3 0 0 0 3 3h46a3 3 0 0 0 3-3V18a3 3 0 0 0-3-3H28z"/><path fill="#E67628" d="M6 48c-.571 0-1.1-.169-1.554-.446A2.988 2.988 0 0 0 7 49h46a2.988 2.988 0 0 0 2.554-1.446A2.973 2.973 0 0 1 54 48H6z"/><path opacity=".4" fill="#FFF" d="M28 15l-2.535 2.536A5 5 0 0 1 21.928 19H4v1h18.429a5 5 0 0 0 3.535-1.464L29.5 15H28z"/><g><path fill="#BF5712" d="M50.969 43.906H42.03V33.031h5.912l3.026 2.903v7.972zm-8.152-.78h7.366v-6.86l-2.556-2.455h-4.81v9.316z"/><path fill="#BF5712" d="M47.099 36.903l.01-3.318.801.003-.009 2.509 2.456-.019.006.8z"/></g></svg>