<svg xmlns="http://www.w3.org/2000/svg" viewBox="0 0 60 60"><g fill="#FFF"><path d="M16 54h35a1 1 0 0 0 1-1V17h-8c-1.654 0-3-1.346-3-3V6H16a1 1 0 0 0-1 1v46a1 1 0 0 0 1 1z"/><path d="M51.586 15L43 6.414V14a1 1 0 0 0 1 1h7.586z"/></g><path opacity=".64" fill="#605E5C" d="M53.121 13.707l-8.828-8.828A2.978 2.978 0 0 0 42.172 4H16c-1.654 0-3 1.346-3 3v46c0 1.654 1.346 3 3 3h35c1.654 0 3-1.346 3-3V15.828c0-.8-.313-1.554-.879-2.121zM43 6.414L51.586 15H44a1 1 0 0 1-1-1V6.414zM51 54H16a1 1 0 0 1-1-1V7a1 1 0 0 1 1-1h25v8c0 1.654 1.346 3 3 3h8v36a1 1 0 0 1-1 1z"/><path fill="#103F91" d="M47 38H34v2h13a1 1 0 0 0 0-2z"/><path fill="#185ABD" d="M47 34H34v2h13a1 1 0 0 0 0-2z"/><path fill="#2B7CD3" d="M47 30H34v2h13a1 1 0 0 0 0-2z"/><path fill="#41A5EE" d="M47 26H34v2h13a1 1 0 0 0 0-2z"/><g><path fill="#185ABD" d="M9 46h20a3 3 0 0 0 3-3V23a3 3 0 0 0-3-3H9a3 3 0 0 0-3 3v20a3 3 0 0 0 3 3z"/><path fill="#F9F7F7" d="M15.357 36.837c.037.307.062.576.074.806h.043a13.929 13.929 0 0 1 .244-1.568L17.738 27h2.611l2.09 8.939c.104.44.191 1.003.26 1.686h.035c.03-.472.102-1.015.218-1.632L24.623 27H27l-2.925 13h-2.777l-1.993-8.612c-.058-.248-.124-.571-.196-.97a11.56 11.56 0 0 1-.135-.87h-.035c-.023.211-.068.525-.135.943-.067.416-.12.725-.16.923L16.771 40H13.95L11 27h2.42l1.82 9.092c.04.189.079.436.117.745z"/></g></svg>