<svg xmlns="http://www.w3.org/2000/svg" viewBox="0 0 60 60"><g fill="#FFF"><path d="M50 50c0 1.654-1.346 3-3 3H19v1a1 1 0 0 0 1 1h31a1 1 0 0 0 1-1V8h1l-4-3v5h1v40z"/><path d="M16 51h31a1 1 0 0 0 1-1V10H15v40a1 1 0 0 0 1 1z"/></g><path opacity=".64" fill="#605E5C" d="M52 8v46a1 1 0 0 1-1 1H20a1 1 0 0 1-1-1v-1h28c1.654 0 3-1.346 3-3V10h-2v40a1 1 0 0 1-1 1H16a1 1 0 0 1-1-1V10h-2v40c0 1.654 1.346 3 3 3h1v1c0 1.654 1.346 3 3 3h31c1.654 0 3-1.346 3-3V8h-2z"/><path fill="#41A5EE" d="M50 8.5l1-1V5l-1-1.814A1.993 1.993 0 0 0 49.172 3H15a2 2 0 0 0-2 2v4l1 1h35l1-1v-.5z"/><path fill="#2B7CD3" d="M13 9h37v2H13zM51.707 8.707L54 11V7.414a1 1 0 0 0-.293-.707l-3.121-3.121c-.17-.17-.371-.302-.586-.4v6.228c0-.89 1.077-1.337 1.707-.707z"/><path fill="#103F91" d="M44 38H34v2h10a1 1 0 0 0 0-2z"/><path fill="#185ABD" d="M44 34H34v2h10a1 1 0 0 0 0-2z"/><path fill="#2B7CD3" d="M44 30H34v2h10a1 1 0 0 0 0-2z"/><path fill="#41A5EE" d="M44 26H34v2h10a1 1 0 0 0 0-2z"/><g><path fill="#185ABD" d="M9 46h20a3 3 0 0 0 3-3V23a3 3 0 0 0-3-3H9a3 3 0 0 0-3 3v20a3 3 0 0 0 3 3z"/><path fill="#F9F7F7" d="M15.357 36.837c.037.307.062.576.074.806h.043a13.929 13.929 0 0 1 .244-1.568L17.738 27h2.611l2.09 8.939c.104.44.191 1.003.26 1.686h.035c.03-.472.102-1.015.218-1.632L24.623 27H27l-2.925 13h-2.777l-1.993-8.612c-.058-.248-.124-.571-.196-.97a11.56 11.56 0 0 1-.135-.87h-.035c-.023.211-.068.525-.135.943-.067.416-.12.725-.16.923L16.771 40H13.95L11 27h2.42l1.82 9.092c.04.189.079.436.117.745z"/></g></svg>