<svg xmlns="http://www.w3.org/2000/svg" viewBox="0 0 60 60"><g fill="#FFF"><path d="M8 20h44v-5a1 1 0 0 0-1-1H9a1 1 0 0 0-1 1v5zM9 46h42a1 1 0 0 0 1-1V22H8v23a1 1 0 0 0 1 1z"/></g><circle fill="#C8C6C4" cx="11" cy="17" r="1"/><circle fill="#C8C6C4" cx="14" cy="17" r="1"/><circle fill="#C8C6C4" cx="17" cy="17" r="1"/><path fill="#EDEBE9" d="M22 46H9a1 1 0 0 1-1-1V22h14v24z"/><g fill="#C8C6C4"><path d="M18 32h-6a1 1 0 1 1 0-2h6a1 1 0 1 1 0 2zM18 27h-6a1 1 0 1 1 0-2h6a1 1 0 1 1 0 2zM18 37h-6a1 1 0 1 1 0-2h6a1 1 0 1 1 0 2z"/></g><g fill="#C8C6C4"><path d="M34 32h-8a1 1 0 1 1 0-2h8a1 1 0 1 1 0 2zM34 27h-8a1 1 0 1 1 0-2h8a1 1 0 1 1 0 2zM34 37h-8a1 1 0 1 1 0-2h8a1 1 0 1 1 0 2zM34 42h-8a1 1 0 1 1 0-2h8a1 1 0 1 1 0 2z"/></g><path fill="#69AFE5" d="M47 42h-7a2 2 0 0 1-2-2V27a2 2 0 0 1 2-2h7a2 2 0 0 1 2 2v13a2 2 0 0 1-2 2z"/><path opacity=".64" fill="#605E5C" d="M51 12H9c-1.654 0-3 1.346-3 3v30c0 1.654 1.346 3 3 3h42c1.654 0 3-1.346 3-3V15c0-1.654-1.346-3-3-3zm1 33a1 1 0 0 1-1 1H9a1 1 0 0 1-1-1V22h44v23zm0-25H8v-5a1 1 0 0 1 1-1h42a1 1 0 0 1 1 1v5z"/></svg>