<svg xmlns="http://www.w3.org/2000/svg" viewBox="0 0 60 60"><path fill="#FFB900" d="M28 15l-2.535-2.535A5 5 0 0 0 21.928 11H7a3 3 0 0 0-3 3v32a3 3 0 0 0 3 3h46a3 3 0 0 0 3-3V18a3 3 0 0 0-3-3H28z"/><path fill="#FFD75E" d="M28 15l-2.535 2.535A5 5 0 0 1 21.928 19H4v27a3 3 0 0 0 3 3h46a3 3 0 0 0 3-3V18a3 3 0 0 0-3-3H28z"/><linearGradient id="a" gradientUnits="userSpaceOnUse" x1="30" y1="15" x2="30" y2="49"><stop offset="0" stop-color="#fff" stop-opacity="0"/><stop offset=".999" stop-color="#ffd75e" stop-opacity=".3"/></linearGradient><path fill="url(#a)" d="M28 15l-2.535 2.535A5 5 0 0 1 21.928 19H4v27a3 3 0 0 0 3 3h46a3 3 0 0 0 3-3V18a3 3 0 0 0-3-3H28z"/><path fill="#E67628" d="M6 48c-.571 0-1.1-.169-1.554-.446A2.988 2.988 0 0 0 7 49h46a2.988 2.988 0 0 0 2.554-1.446A2.973 2.973 0 0 1 54 48H6z"/><path opacity=".4" fill="#FFF" d="M28 15l-2.535 2.536A5 5 0 0 1 21.928 19H4v1h18.429a5 5 0 0 0 3.535-1.464L29.5 15H28z"/><g><path fill="#BF5712" d="M48.238 39.085l1.575 5.04-4.063-3.123-4.063 3.123 1.575-5.04L39.25 36h4.977l1.523-4.875L47.273 36h4.977l-4.012 3.085zm.032 3.018c-.16-.524-.322-1.045-.483-1.564-.16-.519-.325-1.04-.494-1.565.435-.326.865-.654 1.288-.984s.85-.66 1.282-.99h-3.186l-.927-2.965L44.823 37h-3.186c.431.33.86.66 1.282.99s.852.658 1.288.985c-.169.524-.334 1.046-.494 1.564l-.483 1.565 2.52-1.943 2.52 1.942z"/></g></svg>