<svg xmlns="http://www.w3.org/2000/svg" viewBox="0 0 60 60"><g fill="#FFF"><path d="M13 54h34a1 1 0 0 0 1-1V17h-8c-1.654 0-3-1.346-3-3V6H13a1 1 0 0 0-1 1v46a1 1 0 0 0 1 1z"/><path d="M47.586 15L39 6.414V14a1 1 0 0 0 1 1h7.586z"/></g><path opacity=".64" fill="#605E5C" d="M49.121 13.707l-8.828-8.828A2.978 2.978 0 0 0 38.172 4H13c-1.654 0-3 1.346-3 3v46c0 1.654 1.346 3 3 3h34c1.654 0 3-1.346 3-3V15.828c0-.8-.313-1.554-.879-2.121zM39 6.414L47.586 15H40a1 1 0 0 1-1-1V6.414zM47 54H13a1 1 0 0 1-1-1V7a1 1 0 0 1 1-1h24v8c0 1.654 1.346 3 3 3h8v36a1 1 0 0 1-1 1z"/><path fill="#FF5C0D" d="M34.301 38h-9.885l-1.732 4.242c-.427 1.044-.64 1.824-.64 2.34 0 .41.185.77.556 1.08.37.31 1.17.512 2.4.605V47h-9v-.72c1.102-.195 1.815-.448 2.139-.76.661-.622 1.393-1.888 2.197-3.796L29.611 20h.68l9.178 21.958c.74 1.765 1.41 2.91 2.012 3.437.604.524 1.443.82 2.519.885V47H34v-.734c1.017-.052 1.704-.23 2.061-.535.359-.304.537-.674.537-1.11 0-.581-.25-1.5-.753-2.755L34.301 38zM34 37l-5-11-4 11h9z"/></svg>