<svg xmlns="http://www.w3.org/2000/svg" viewBox="0 0 60 60"><g fill="#FFF"><path d="M16 54h35a1 1 0 0 0 1-1V17h-8c-1.654 0-3-1.346-3-3V6H16a1 1 0 0 0-1 1v46a1 1 0 0 0 1 1z"/><path d="M51.586 15L43 6.414V14a1 1 0 0 0 1 1h7.586z"/></g><path opacity=".64" fill="#605E5C" d="M53.121 13.707l-8.828-8.828A2.978 2.978 0 0 0 42.172 4H16c-1.654 0-3 1.346-3 3v46c0 1.654 1.346 3 3 3h35c1.654 0 3-1.346 3-3V15.828c0-.8-.313-1.554-.879-2.121zM43 6.414L51.586 15H44a1 1 0 0 1-1-1V6.414zM51 54H16a1 1 0 0 1-1-1V7a1 1 0 0 1 1-1h25v8c0 1.654 1.346 3 3 3h8v36a1 1 0 0 1-1 1z"/><path fill="#038387" d="M9 46h20a3 3 0 0 0 3-3V23a3 3 0 0 0-3-3H9a3 3 0 0 0-3 3v20a3 3 0 0 0 3 3z"/><path fill="#FFF" d="M25 28h-7v4h6v3h-6v6h-3V25h10v3z"/><path fill="#1A9BA1" d="M45 25H34v2h11a1 1 0 0 1 1 1v1a1 1 0 0 1-1 1H34v2h11a3 3 0 0 0 3-3v-1a3 3 0 0 0-3-3z"/><path fill="#038387" d="M45 34H34v2h11a1 1 0 0 1 1 1v1a1 1 0 0 1-1 1H34v2h11a3 3 0 0 0 3-3v-1a3 3 0 0 0-3-3z"/></svg>