<svg xmlns="http://www.w3.org/2000/svg" viewBox="0 0 60 60"><g fill="#FFF"><path d="M8 20h44v-5a1 1 0 0 0-1-1H9a1 1 0 0 0-1 1v5zM9 46h42a1 1 0 0 0 1-1V22H8v23a1 1 0 0 0 1 1z"/></g><path opacity=".64" fill="#605E5C" d="M51 12H9c-1.654 0-3 1.346-3 3v30c0 1.654 1.346 3 3 3h42c1.654 0 3-1.346 3-3V15c0-1.654-1.346-3-3-3zm1 33a1 1 0 0 1-1 1H9a1 1 0 0 1-1-1V22h44v23zm0-25H8v-5a1 1 0 0 1 1-1h42a1 1 0 0 1 1 1v5z"/><circle fill="#C8C6C4" cx="11" cy="17" r="1"/><circle fill="#C8C6C4" cx="14" cy="17" r="1"/><circle fill="#C8C6C4" cx="17" cy="17" r="1"/><g fill="none" stroke="#69AFE5" stroke-width="2" stroke-miterlimit="10"><circle cx="30" cy="34" r="8"/><ellipse cx="30" cy="34" rx="3" ry="8"/><path d="M23 31h14M23 37h14"/></g></svg>