<svg xmlns="http://www.w3.org/2000/svg" viewBox="0 0 60 60"><g fill="#FFF"><path d="M16 54h35a1 1 0 0 0 1-1V17h-8c-1.654 0-3-1.346-3-3V6H16a1 1 0 0 0-1 1v46a1 1 0 0 0 1 1z"/><path d="M51.586 15L43 6.414V14a1 1 0 0 0 1 1h7.586z"/></g><path opacity=".64" fill="#605E5C" d="M53.121 13.707l-8.828-8.828A2.978 2.978 0 0 0 42.172 4H16c-1.654 0-3 1.346-3 3v46c0 1.654 1.346 3 3 3h35c1.654 0 3-1.346 3-3V15.828c0-.8-.313-1.554-.879-2.121zM43 6.414L51.586 15H44a1 1 0 0 1-1-1V6.414zM51 54H16a1 1 0 0 1-1-1V7a1 1 0 0 1 1-1h25v8c0 1.654 1.346 3 3 3h8v36a1 1 0 0 1-1 1z"/><path fill="none" stroke="#C8C6C4" stroke-width="2" stroke-miterlimit="10" d="M46 48H28a2 2 0 0 1-2-2V21h20a2 2 0 0 1 2 2v23a2 2 0 0 1-2 2z"/><path fill="#8BBF8A" d="M43 30H28v-4h15a1 1 0 0 1 1 1v2a1 1 0 0 1-1 1zM43 37H28v-4h15a1 1 0 0 1 1 1v2a1 1 0 0 1-1 1zM34 40h13v4H34a1 1 0 0 1-1-1v-2a1 1 0 0 1 1-1z"/><path fill="#31752F" d="M9 46h20a3 3 0 0 0 3-3V23a3 3 0 0 0-3-3H9a3 3 0 0 0-3 3v20a3 3 0 0 0 3 3z"/><path fill="#F9F7F7" d="M19.223 26c1.867 0 3.297.402 4.289 1.204.991.801 1.488 1.962 1.488 3.482 0 .977-.245 1.845-.736 2.605-.49.76-1.188 1.351-2.093 1.773-.904.422-1.952.633-3.145.633h-2.974V41H13V26h6.223zm-3.171 7h2.626c1.024 0 1.798-.204 2.321-.611.523-.408.785-1.003.785-1.785 0-1.521-1.003-2.281-3.008-2.281h-2.724V33z"/></svg>