<svg xmlns="http://www.w3.org/2000/svg" viewBox="0 0 60 60"><path fill="#FFF" d="M49 49V17h-8c-1.654 0-3-1.346-3-3V6H16a1 1 0 0 0-1 1v42a1 1 0 0 0 1 1h32a1 1 0 0 0 1-1z"/><path fill="#FFF" d="M12 54h32a1 1 0 0 0 1-1v-1H16c-1.654 0-3-1.346-3-3V10h-1a1 1 0 0 0-1 1v42a1 1 0 0 0 1 1zM48.586 15L40 6.414V14a1 1 0 0 0 1 1h7.586z"/><path opacity=".64" fill="#605E5C" d="M50.121 13.707L41.293 4.88A2.979 2.979 0 0 0 39.172 4H16c-1.654 0-3 1.346-3 3v1h-1c-1.654 0-3 1.346-3 3v42c0 1.654 1.346 3 3 3h32c1.654 0 3-1.346 3-3v-1h1c1.654 0 3-1.346 3-3V15.828c0-.8-.313-1.554-.879-2.12zM40 6.414L48.586 15H41a1 1 0 0 1-1-1V6.414zM45 53a1 1 0 0 1-1 1H12a1 1 0 0 1-1-1V11a1 1 0 0 1 1-1h1v39c0 1.654 1.346 3 3 3h29v1zm3-3H16a1 1 0 0 1-1-1V7a1 1 0 0 1 1-1h22v8c0 1.654 1.346 3 3 3h8v32a1 1 0 0 1-1 1z"/></svg>