<svg xmlns="http://www.w3.org/2000/svg" viewBox="0 0 60 60"><path opacity=".64" fill="#605E5C" d="M47 56H16c-1.654 0-3-1.346-3-3V7c0-1.654 1.346-3 3-3h31c1.654 0 3 1.346 3 3v.002L51 7c1.654 0 3 1.346 3 3v6c0 1.654-1.346 3-3 3h-1v34c0 1.654-1.346 3-3 3zM16 6a1 1 0 0 0-1 1v46a1 1 0 0 0 1 1h31a1 1 0 0 0 1-1V19c0-1.103.897-2 2-2h1a1 1 0 0 0 1-1v-6a1 1 0 0 0-1-1h-1c-1.103 0-2-.897-2-2a1 1 0 0 0-1-1H16z"/><path fill="#FFF" d="M51 17a1 1 0 0 0 1-1v-6a1 1 0 0 0-1-1h-1c-1.103 0-2-.897-2-2a1 1 0 0 0-1-1H16a1 1 0 0 0-1 1v46a1 1 0 0 0 1 1h31a1 1 0 0 0 1-1V19c0-1.103.897-2 2-2h1z"/><path fill="#7719AA" d="M9 46h20a3 3 0 0 0 3-3V23a3 3 0 0 0-3-3H9a3 3 0 0 0-3 3v20a3 3 0 0 0 3 3z"/><path fill="#FFF" d="M12 25h3.438l6.91 10.827c.315.486.55.877.708 1.173h.045c-.067-.41-.101-1.15-.101-2.22V25h3v16h-3.272l-7.125-10.876c-.298-.46-.51-.835-.636-1.124h-.056c.06.49.089 1.284.089 2.382V41h-3V25z"/></svg>