<svg xmlns="http://www.w3.org/2000/svg" viewBox="0 0 60 60"><path opacity=".64" fill="#605E5C" d="M51 9H15c-1.654 0-3 1.265-3 2.818v36.364C12 49.735 13.346 51 15 51h36c1.654 0 3-1.265 3-2.818V11.818C54 10.265 52.654 9 51 9zm-36 2h36c.552 0 1 .367 1 .818V16H14v-4.182c0-.45.448-.818 1-.818zm36 38H15c-.552 0-1-.367-1-.818V18h38v30.182c0 .45-.448.818-1 .818z"/><g fill="#FFF"><path d="M15 49h36c.552 0 1-.367 1-.818V18H14v30.182c0 .45.448.818 1 .818zM14 16h38v-4.182c0-.45-.448-.818-1-.818H15c-.552 0-1 .367-1 .818V16z"/></g><g fill="#C8C6C4"><circle cx="17" cy="14" r="1"/><circle cx="20" cy="14" r="1"/><circle cx="23" cy="14" r="1"/></g><path fill="#C8C6C4" d="M47.923 38H22.077c-.595 0-1.077.448-1.077 1s.482 1 1.077 1h25.846c.595 0 1.077-.448 1.077-1s-.482-1-1.077-1zM47.923 42H22.077c-.595 0-1.077.448-1.077 1s.482 1 1.077 1h25.846c.595 0 1.077-.448 1.077-1s-.482-1-1.077-1z"/><g fill="none" stroke="#C8C6C4" stroke-width="1.5" stroke-miterlimit="10"><path d="M33 30l4-4M40.07 26.297l3.4 3.624"/><circle cx="31.122" cy="31.552" r="2.437"/><circle cx="45.568" cy="31.552" r="2.437"/><circle cx="38.46" cy="24.505" r="2.437"/></g><path fill="#F2C80F" d="M9 46h20a3 3 0 0 0 3-3V23a3 3 0 0 0-3-3H9a3 3 0 0 0-3 3v20a3 3 0 0 0 3 3z"/><path fill="#333" d="M17 29a1 1 0 0 0-1 1v9a1 1 0 1 0 2 0v-9a1 1 0 0 0-1-1zM13 35a1 1 0 0 0-1 1v3a1 1 0 1 0 2 0v-3a1 1 0 0 0-1-1zM21 31a1 1 0 0 0-1 1v7a1 1 0 1 0 2 0v-7a1 1 0 0 0-1-1zM25 26a1 1 0 0 0-1 1v12a1 1 0 1 0 2 0V27a1 1 0 0 0-1-1z"/></svg>