<svg xmlns="http://www.w3.org/2000/svg" viewBox="0 0 60 60"><path fill="#FFF" d="M50.378 14.38c-3.473.984-9.286 2.63-20.649 2.63-11.495 0-16.798-1.606-19.967-2.565-.659-.2-1.236-.375-1.773-.506L8 45.953c0 .047.957-.235 1.532-.394C12.974 44.602 20 43 29.73 43c11.198 0 16.994 1.579 20.457 2.522.681.185 1.28.349 1.82.473L52 13.957c-.472.098-1.01.25-1.622.424z"/><circle fill="none" stroke="#FF9810" stroke-width="1.8" stroke-miterlimit="10" cx="45.5" cy="23.5" r="2.5"/><path fill="#A6CCC3" d="M52.008 40.41l-8.395-8.761a2.804 2.804 0 0 0-3.92-.158l-7.216 6.465a2.89 2.89 0 0 1-4.056-.171l-10.273-10.9A2.79 2.79 0 0 0 16.106 26H16.1c-.779 0-1.502.31-2.04.875l-6.07 6.53.006-2.944 4.608-4.957c.93-.977 2.2-1.524 3.51-1.504a4.772 4.772 0 0 1 3.49 1.513l10.273 10.9a.902.902 0 0 0 1.267.054l7.215-6.465a4.792 4.792 0 0 1 6.702.266l6.946 7.25.002 2.892z"/><path fill="#605E5C" d="M52.006 47.995c-.148 0-.297-.017-.444-.051-.565-.13-1.19-.299-1.9-.493C46.294 46.534 40.66 45 29.73 45c-10.724 0-16.319 1.556-19.662 2.485-.597.166-1.127.313-1.602.43a1.967 1.967 0 0 1-1.693-.366A2.013 2.013 0 0 1 6 45.953V13.958c0-.63.281-1.211.772-1.596a1.968 1.968 0 0 1 1.694-.366c.567.14 1.179.324 1.876.535 3.26.987 8.188 2.478 19.388 2.478 11.085 0 16.73-1.598 20.104-2.552.639-.182 1.2-.34 1.702-.463a1.97 1.97 0 0 1 1.693.367c.49.386.771.967.771 1.596v32.019c0 .622-.277 1.2-.76 1.585-.357.284-.79.434-1.234.434zM29.73 43c11.198 0 16.994 1.579 20.457 2.522.681.185 1.28.349 1.82.473L52 13.957c-.472.098-1.01.25-1.622.424-3.473.983-9.286 2.628-20.649 2.628-11.495 0-16.798-1.605-19.967-2.564-.659-.2-1.236-.375-1.773-.507L8 45.953c0 .047.957-.235 1.532-.394C12.974 44.602 20 43 29.73 43z" opacity=".64"/></svg>