<svg xmlns="http://www.w3.org/2000/svg" viewBox="0 0 60 60"><path fill="#FFF" d="M9 52h42a1 1 0 0 0 1-1V9a1 1 0 0 0-1-1H9a1 1 0 0 0-1 1v42a1 1 0 0 0 1 1z"/><path opacity=".64" fill="#605E5C" d="M51 54H9c-1.654 0-3-1.346-3-3V9c0-1.654 1.346-3 3-3h42c1.654 0 3 1.346 3 3v42c0 1.654-1.346 3-3 3zM9 8a1 1 0 0 0-1 1v42a1 1 0 0 0 1 1h42a1 1 0 0 0 1-1V9a1 1 0 0 0-1-1H9z"/><g fill="none" stroke="#C8C6C4" stroke-width="2" stroke-miterlimit="10"><path d="M35.111 31.384l-2.137 2.992a1 1 0 0 1-1.61.023l-4.254-5.607a1.986 1.986 0 0 0-3.164 0l-7.525 9.921C15.404 40.053 16.34 42 18.003 42h23.995c1.634 0 2.579-1.892 1.616-3.24l-5.27-7.376a1.987 1.987 0 0 0-3.233 0z"/><circle cx="41" cy="21" r="3"/></g></svg>