<svg xmlns="http://www.w3.org/2000/svg" viewBox="0 0 60 60"><path fill="#FFB900" d="M28 15l-2.535-2.535A5 5 0 0 0 21.928 11H7a3 3 0 0 0-3 3v32a3 3 0 0 0 3 3h46a3 3 0 0 0 3-3V18a3 3 0 0 0-3-3H28z"/><path fill="#FFD75E" d="M28 15l-2.535 2.535A5 5 0 0 1 21.928 19H4v27a3 3 0 0 0 3 3h46a3 3 0 0 0 3-3V18a3 3 0 0 0-3-3H28z"/><linearGradient id="a" gradientUnits="userSpaceOnUse" x1="30" y1="15" x2="30" y2="49"><stop offset="0" stop-color="#fff" stop-opacity="0"/><stop offset=".999" stop-color="#ffd75e" stop-opacity=".3"/></linearGradient><path fill="url(#a)" d="M28 15l-2.535 2.535A5 5 0 0 1 21.928 19H4v27a3 3 0 0 0 3 3h46a3 3 0 0 0 3-3V18a3 3 0 0 0-3-3H28z"/><path fill="#E67628" d="M6 48c-.571 0-1.1-.169-1.554-.446A2.988 2.988 0 0 0 7 49h46a2.988 2.988 0 0 0 2.554-1.446A2.973 2.973 0 0 1 54 48H6z"/><path opacity=".4" fill="#FFF" d="M28 15l-2.535 2.536A5 5 0 0 1 21.928 19H4v1h18.429a5 5 0 0 0 3.535-1.464L29.5 15H28z"/><g><path fill="#BF5712" d="M51 35.117V44H39v-8.883h12zm-11.25.727v4.003l2.294-2.17 3.474 3.524 2.056-1.496 2.676 2.253v-6.114h-10.5zm0 7.429h6.87l-4.576-4.736-2.294 2.236v2.5zm10.5 0v-.514l-2.676-2.285-1.656 1.238 1.623 1.56h2.709zm-1.969-4.728a.516.516 0 0 1-.377-.159c-.107-.106-.16-.232-.16-.377s.053-.272.16-.378c.106-.106.232-.16.377-.16s.271.054.378.16c.106.106.159.232.159.378s-.053.27-.16.377a.516.516 0 0 1-.377.16z"/></g></svg>