<svg xmlns="http://www.w3.org/2000/svg" viewBox="0 0 60 60"><g fill="#FFF"><path d="M50 50c0 1.654-1.346 3-3 3H19v1a1 1 0 0 0 1 1h31a1 1 0 0 0 1-1V8h1l-4-3v5h1v40z"/><path d="M16 51h31a1 1 0 0 0 1-1V10H15v40a1 1 0 0 0 1 1z"/></g><path opacity=".64" fill="#605E5C" d="M52 9v45a1 1 0 0 1-1 1H20a1 1 0 0 1-1-1v-1h28c1.654 0 3-1.346 3-3V10h-2v40a1 1 0 0 1-1 1H16a1 1 0 0 1-1-1V10h-2v40c0 1.654 1.346 3 3 3h1v1c0 1.654 1.346 3 3 3h31c1.654 0 3-1.346 3-3V9h-2z"/><path fill="#FF8F6B" d="M50 8.5l1-1V5l-1-1.814A1.993 1.993 0 0 0 49.172 3H15a2 2 0 0 0-2 2v4l1 1h35l1-1v-.5z"/><path fill="#ED6C47" d="M13 9h37v2H13zM51.707 8.707L54 11V7.414a1 1 0 0 0-.293-.707l-3.121-3.121c-.17-.17-.371-.302-.586-.4v6.228c0-.89 1.077-1.337 1.707-.707zM37 33l-1-1h-1l-1 1v7.413A7.97 7.97 0 0 0 37 41a8 8 0 0 0 8-8h-8z"/><path fill="#FF8F6B" d="M34 25.587V33h3v-8a7.968 7.968 0 0 0-3 .587z"/><path fill="#FFC7B5" d="M39 23v8h8a8 8 0 0 0-8-8z"/><g><path fill="#C43E1C" d="M9 46h20a3 3 0 0 0 3-3V23a3 3 0 0 0-3-3H9a3 3 0 0 0-3 3v20a3 3 0 0 0 3 3z"/><path fill="#F9F7F7" d="M20.223 26c1.867 0 3.297.402 4.289 1.204.991.801 1.488 1.962 1.488 3.482 0 .977-.245 1.845-.736 2.605-.49.76-1.188 1.351-2.093 1.773-.904.422-1.952.633-3.145.633h-2.974V41H14V26h6.223zm-3.171 7h2.626c1.024 0 1.798-.204 2.321-.611.523-.408.785-1.003.785-1.785 0-1.521-1.003-2.281-3.008-2.281h-2.724V33z"/></g></svg>