<svg xmlns="http://www.w3.org/2000/svg" viewBox="0 0 60 60"><g fill="#FFF"><path d="M16 54h35a1 1 0 0 0 1-1V17h-8c-1.654 0-3-1.346-3-3V6H16a1 1 0 0 0-1 1v46a1 1 0 0 0 1 1z"/><path d="M51.586 15L43 6.414V14a1 1 0 0 0 1 1h7.586z"/></g><path opacity=".64" fill="#605E5C" d="M53.121 13.707l-8.828-8.828A2.978 2.978 0 0 0 42.172 4H16c-1.654 0-3 1.346-3 3v46c0 1.654 1.346 3 3 3h35c1.654 0 3-1.346 3-3V15.828c0-.8-.313-1.554-.879-2.121zM43 6.414L51.586 15H44a1 1 0 0 1-1-1V6.414zM51 54H16a1 1 0 0 1-1-1V7a1 1 0 0 1 1-1h25v8c0 1.654 1.346 3 3 3h8v36a1 1 0 0 1-1 1z"/><path fill="#C8C6C4" d="M47 47H18a1 1 0 0 0 0 2h29a1 1 0 0 0 0-2z"/><path fill="none" stroke="#C8C6C4" stroke-width="2" stroke-miterlimit="10" d="M34 33l2.923-4.692M39.385 28.308l3.309 4.005"/><circle fill="none" stroke="#C8C6C4" stroke-width="2" stroke-miterlimit="10" cx="32.437" cy="35.563" r="2.437"/><circle fill="none" stroke="#C8C6C4" stroke-width="2" stroke-miterlimit="10" cx="44.563" cy="34.114" r="2.437"/><circle fill="none" stroke="#C8C6C4" stroke-width="2" stroke-miterlimit="10" cx="37.738" cy="26.173" r="2.437"/><path fill="#C8C6C4" d="M47 43H18a1 1 0 0 0 0 2h29a1 1 0 0 0 0-2z"/><path fill="#F2C80F" d="M9 46h20a3 3 0 0 0 3-3V23a3 3 0 0 0-3-3H9a3 3 0 0 0-3 3v20a3 3 0 0 0 3 3z"/><path fill="#333" d="M17 29a1 1 0 0 0-1 1v9a1 1 0 1 0 2 0v-9a1 1 0 0 0-1-1zM13 35a1 1 0 0 0-1 1v3a1 1 0 1 0 2 0v-3a1 1 0 0 0-1-1zM21 31a1 1 0 0 0-1 1v7a1 1 0 1 0 2 0v-7a1 1 0 0 0-1-1zM25 26a1 1 0 0 0-1 1v12a1 1 0 1 0 2 0V27a1 1 0 0 0-1-1z"/></svg>