<svg xmlns="http://www.w3.org/2000/svg" viewBox="0 0 60 60"><g fill="#FFF"><path d="M13 54h34a1 1 0 0 0 1-1V17h-8c-1.654 0-3-1.346-3-3V6H13a1 1 0 0 0-1 1v46a1 1 0 0 0 1 1z"/><path d="M47.586 15L39 6.414V14a1 1 0 0 0 1 1h7.586z"/></g><path opacity=".64" fill="#605E5C" d="M49.121 13.707l-8.828-8.828A2.978 2.978 0 0 0 38.172 4H13c-1.654 0-3 1.346-3 3v46c0 1.654 1.346 3 3 3h34c1.654 0 3-1.346 3-3V15.828c0-.8-.313-1.554-.879-2.121zM39 6.414L47.586 15H40a1 1 0 0 1-1-1V6.414zM47 54H13a1 1 0 0 1-1-1V7a1 1 0 0 1 1-1h24v8c0 1.654 1.346 3 3 3h8v36a1 1 0 0 1-1 1z"/><path fill="none" stroke="#C8C6C4" stroke-width="2" stroke-linejoin="round" stroke-miterlimit="10" d="M38 34H22a2 2 0 0 1-2-2V20h20v12a2 2 0 0 1-2 2zM30 35v2"/><path fill="none" stroke="#C8C6C4" stroke-width="2" stroke-linecap="round" stroke-linejoin="round" stroke-miterlimit="10" d="M33 38h-6M42 20H18M24 30v-6"/><path fill="none" stroke="#F5BA9D" stroke-width="2" stroke-linecap="round" stroke-linejoin="round" stroke-miterlimit="10" d="M28 30v-5"/><path fill="none" stroke="#C8C6C4" stroke-width="2" stroke-linecap="round" stroke-linejoin="round" stroke-miterlimit="10" d="M32.001 30v-4"/><path fill="none" stroke="#F5BA9D" stroke-width="2" stroke-linecap="round" stroke-linejoin="round" stroke-miterlimit="10" d="M36.001 30v-3"/><path fill="none" stroke="#D04727" stroke-width="2" stroke-linecap="round" stroke-linejoin="round" stroke-miterlimit="10" d="M21 47v-4M18.172 44L21 41.172 23.828 44"/></svg>