<svg xmlns="http://www.w3.org/2000/svg" viewBox="0 0 60 60"><g fill="#FFF"><path d="M16 54h35a1 1 0 0 0 1-1V17h-8c-1.654 0-3-1.346-3-3V6H16a1 1 0 0 0-1 1v46a1 1 0 0 0 1 1z"/><path d="M51.586 15L43 6.414V14a1 1 0 0 0 1 1h7.586z"/></g><path opacity=".64" fill="#605E5C" d="M53.121 13.707l-8.828-8.828A2.978 2.978 0 0 0 42.172 4H16c-1.654 0-3 1.346-3 3v46c0 1.654 1.346 3 3 3h35c1.654 0 3-1.346 3-3V15.828c0-.8-.313-1.554-.879-2.121zM43 6.414L51.586 15H44a1 1 0 0 1-1-1V6.414zM51 54H16a1 1 0 0 1-1-1V7a1 1 0 0 1 1-1h25v8c0 1.654 1.346 3 3 3h8v36a1 1 0 0 1-1 1z"/><path fill="#ED6C47" d="M40 33l-1-1h-4l-1 1v5.28A7.973 7.973 0 0 0 40 41a8 8 0 0 0 8-8h-8z"/><path fill="#FF8F6B" d="M34 27.72V33h6v-8a7.973 7.973 0 0 0-6 2.72z"/><path fill="#FFC7B5" d="M42 23v8h8a8 8 0 0 0-8-8z"/><g><path fill="#C43E1C" d="M9 46h20a3 3 0 0 0 3-3V23a3 3 0 0 0-3-3H9a3 3 0 0 0-3 3v20a3 3 0 0 0 3 3z"/><path fill="#F9F7F7" d="M20.223 26c1.867 0 3.297.402 4.289 1.204.991.801 1.488 1.962 1.488 3.482 0 .977-.245 1.845-.736 2.605-.49.76-1.188 1.351-2.093 1.773-.904.422-1.952.633-3.145.633h-2.974V41H14V26h6.223zm-3.171 7h2.626c1.024 0 1.798-.204 2.321-.611.523-.408.785-1.003.785-1.785 0-1.521-1.003-2.281-3.008-2.281h-2.724V33z"/></g></svg>