<svg xmlns="http://www.w3.org/2000/svg" viewBox="0 0 60 60"><g fill="#FFF"><path d="M9 46h42a1 1 0 0 0 1-1V25h-8c-1.654 0-3-1.346-3-3v-8H9a1 1 0 0 0-1 1v30a1 1 0 0 0 1 1z"/><path d="M51.586 23L43 14.414V22a1 1 0 0 0 1 1h7.586z"/></g><path opacity=".64" fill="#605E5C" d="M53.121 21.707l-8.828-8.828A2.979 2.979 0 0 0 42.172 12H9c-1.654 0-3 1.346-3 3v30c0 1.654 1.346 3 3 3h42c1.654 0 3-1.346 3-3V23.828c0-.8-.313-1.554-.879-2.12zM43 14.414L51.586 23H44a1 1 0 0 1-1-1v-7.586zM51 46H9a1 1 0 0 1-1-1V15a1 1 0 0 1 1-1h32v8c0 1.654 1.346 3 3 3h8v20a1 1 0 0 1-1 1z"/><g fill="#C8C6C4"><path d="M20 32h-8a1 1 0 1 1 0-2h8a1 1 0 1 1 0 2zM20 27h-8a1 1 0 1 1 0-2h8a1 1 0 1 1 0 2zM20 22h-8a1 1 0 1 1 0-2h8a1 1 0 1 1 0 2zM20 37h-8a1 1 0 1 1 0-2h8a1 1 0 1 1 0 2zM20 42h-8a1 1 0 1 1 0-2h8a1 1 0 1 1 0 2z"/></g><path fill="#B7472A" d="M35 22a7 7 0 0 1 7 7h-7v-7z"/><path fill="#C8C6C4" d="M42 31a9.003 9.003 0 0 1-10.025 8.943c-4.117-.454-7.464-3.801-7.918-7.918A9.003 9.003 0 0 1 33 22v9h9z"/></svg>