<svg xmlns="http://www.w3.org/2000/svg" viewBox="0 0 60 60"><path fill="#FFB900" d="M28 15l-2.535-2.535A5 5 0 0 0 21.928 11H7a3 3 0 0 0-3 3v32a3 3 0 0 0 3 3h46a3 3 0 0 0 3-3V18a3 3 0 0 0-3-3H28z"/><path fill="#FFD75E" d="M28 15l-2.535 2.535A5 5 0 0 1 21.928 19H4v27a3 3 0 0 0 3 3h46a3 3 0 0 0 3-3V18a3 3 0 0 0-3-3H28z"/><linearGradient id="a" gradientUnits="userSpaceOnUse" x1="30" y1="15" x2="30" y2="49"><stop offset="0" stop-color="#fff" stop-opacity="0"/><stop offset=".999" stop-color="#ffd75e" stop-opacity=".3"/></linearGradient><path fill="url(#a)" d="M28 15l-2.535 2.535A5 5 0 0 1 21.928 19H4v27a3 3 0 0 0 3 3h46a3 3 0 0 0 3-3V18a3 3 0 0 0-3-3H28z"/><path fill="#E67628" d="M6 48c-.571 0-1.1-.169-1.554-.446A2.988 2.988 0 0 0 7 49h46a2.988 2.988 0 0 0 2.554-1.446A2.973 2.973 0 0 1 54 48H6z"/><path opacity=".4" fill="#FFF" d="M28 15l-2.535 2.536A5 5 0 0 1 21.928 19H4v1h18.429a5 5 0 0 0 3.535-1.464L29.5 15H28z"/><g><path fill="#BF5712" d="M49.464 42.985a.495.495 0 0 1-.353-.146L38.123 31.894a.5.5 0 1 1 .705-.708L49.816 42.13a.5.5 0 0 1-.352.854zM43.812 34.232l2.744-2.744.707.707-2.743 2.744z"/><path fill="#BF5712" d="M38.516 42.985a.5.5 0 0 1-.486-.621l.75-3a.502.502 0 0 1 .132-.233l3.716-3.716.707.707-3.618 3.618-.514 2.058 2.057-.515 3.536-3.536.707.707-3.634 3.634a.502.502 0 0 1-.232.132l-3 .75a.489.489 0 0 1-.121.015z"/><path fill="#BF5712" d="M41.2 41.69c-.357-1.4-1.895-1.891-1.91-1.896l.29-.957c.084.026 2.09.65 2.589 2.606l-.969.247zM46.193 36.35l2.612-2.613.707.708-2.612 2.612zM49.513 34.444l-.707-.707a1.092 1.092 0 0 0-1.543-1.542l-.707-.708a2.093 2.093 0 0 1 2.957 0 2.092 2.092 0 0 1 0 2.957z"/><path fill="#BF5712" d="M45.896 32.854l.707-.707 2.25 2.25-.707.707z"/></g></svg>