<svg xmlns="http://www.w3.org/2000/svg" viewBox="0 0 60 60"><path fill="#FFB900" d="M28 15l-2.535-2.535A5 5 0 0 0 21.928 11H7a3 3 0 0 0-3 3v32a3 3 0 0 0 3 3h46a3 3 0 0 0 3-3V18a3 3 0 0 0-3-3H28z"/><path fill="#FFD75E" d="M28 15l-2.535 2.535A5 5 0 0 1 21.928 19H4v27a3 3 0 0 0 3 3h46a3 3 0 0 0 3-3V18a3 3 0 0 0-3-3H28z"/><linearGradient id="a" gradientUnits="userSpaceOnUse" x1="30" y1="15" x2="30" y2="49"><stop offset="0" stop-color="#fff" stop-opacity="0"/><stop offset=".999" stop-color="#ffd75e" stop-opacity=".3"/></linearGradient><path fill="url(#a)" d="M28 15l-2.535 2.535A5 5 0 0 1 21.928 19H4v27a3 3 0 0 0 3 3h46a3 3 0 0 0 3-3V18a3 3 0 0 0-3-3H28z"/><path fill="#E67628" d="M6 48c-.571 0-1.1-.169-1.554-.446A2.988 2.988 0 0 0 7 49h46a2.988 2.988 0 0 0 2.554-1.446A2.973 2.973 0 0 1 54 48H6z"/><path opacity=".4" fill="#FFF" d="M28 15l-2.535 2.536A5 5 0 0 1 21.928 19H4v1h18.429a5 5 0 0 0 3.535-1.464L29.5 15H28z"/><g><path fill="#BF5712" d="M49.586 37.06a3.033 3.033 0 0 1 1.664 2.69h-.75c0-.309-.06-.6-.179-.873s-.28-.512-.483-.715-.442-.364-.715-.483-.564-.179-.873-.179-.6.06-.873.179-.512.28-.715.483-.364.442-.483.715-.179.564-.179.873c0 .355-.081.693-.243 1.014s-.386.586-.671.797a3.033 3.033 0 0 1 1.664 2.689H46c0-.309-.06-.6-.179-.873s-.28-.512-.483-.715-.442-.364-.715-.483S44.06 42 43.75 42s-.6.06-.873.179-.512.28-.715.483-.364.442-.483.715-.179.564-.179.873h-.75c0-.285.04-.561.117-.83s.19-.517.334-.75.32-.442.525-.632.434-.348.688-.477c-.285-.211-.509-.477-.67-.797a2.228 2.228 0 0 1-.065-1.887c.119-.273.28-.512.483-.715s.442-.364.715-.483.564-.179.873-.179c.355 0 .693.081 1.014.243s.586.386.797.671a3.056 3.056 0 0 1 1.353-1.353c-.285-.211-.509-.477-.67-.797a2.228 2.228 0 0 1-.065-1.887c.119-.273.28-.512.483-.715s.442-.364.715-.483.564-.179.873-.179.6.06.873.179.512.28.715.483.364.442.483.715.179.564.179.873c0 .355-.081.693-.243 1.014s-.386.586-.671.796zm-5.836 4.19c.203 0 .397-.04.58-.12s.343-.188.478-.322.242-.293.322-.475.12-.376.12-.583c0-.203-.04-.397-.12-.58s-.188-.343-.322-.478-.294-.242-.478-.322-.377-.12-.58-.12c-.207 0-.401.04-.583.12s-.34.188-.475.322-.242.294-.322.478-.12.377-.12.58c0 .207.04.401.12.583s.188.34.322.475.293.242.475.322.376.12.583.12zm3-6c0 .207.04.401.12.583s.188.34.322.475.293.242.475.322.376.12.583.12c.203 0 .397-.04.58-.12s.343-.188.478-.322.242-.293.322-.475.12-.376.12-.583c0-.203-.04-.397-.12-.58s-.188-.343-.322-.478-.294-.242-.478-.322-.377-.12-.58-.12c-.207 0-.401.04-.583.12s-.34.188-.475.322-.242.294-.322.478-.12.377-.12.58z"/></g></svg>