<svg xmlns="http://www.w3.org/2000/svg" viewBox="0 0 60 60"><path opacity=".64" fill="#605E5C" d="M49.303 50H49.3c-7.46-.002-25.144-.01-32.627-.005h-.002c-1.236 0-2.4-.454-3.28-1.278C12.493 47.875 12 46.75 12 45.55V13c0-1.654 1.346-3 3-3h31.042c1.654 0 2.927 1.272 2.927 2.927V27h4.033c.265 0 .52.105.707.293s.266.442.266.708c0 0 .018 12.106 0 17.571C53.967 48.015 51.87 50 49.303 50zm-26.527-2.006c8.573 0 20.685.004 26.525.006h.002c1.469 0 2.668-1.092 2.673-2.435.014-4.511.023-13.554.025-16.565h-2.959v13a1 1 0 1 1-2 0V13a1 1 0 0 0-1-1H15a1 1 0 0 0-1 1v32.55c0 .642.27 1.248.76 1.708a2.779 2.779 0 0 0 1.912.737h6.104z"/><path fill="#FFF" d="M47.042 13a1 1 0 0 0-1-1H15a1 1 0 0 0-1 1v32.55c0 .642.27 1.248.76 1.708a2.779 2.779 0 0 0 1.912.737h6.104c8.573 0 20.685.003 26.525.005h.002c1.469 0 2.668-1.092 2.673-2.435.014-4.511.023-13.554.025-16.565h-2.959v13a1 1 0 1 1-2 0V28.288a1.006 1.006 0 0 1 0-.576V13z"/><path fill="#03787C" d="M9 44h20a3 3 0 0 0 3-3V21a3 3 0 0 0-3-3H9a3 3 0 0 0-3 3v20a3 3 0 0 0 3 3z"/><path fill="#FFF" d="M14.938 30.741c-.62-.414-1.097-.892-1.433-1.435-.336-.543-.505-1.171-.505-1.883 0-.978.316-1.8.947-2.465s1.467-1.158 2.51-1.478c1.043-.32 2.188-.48 3.433-.48 1.825 0 3.267.19 4.328.572v2.88a6.627 6.627 0 0 0-1.905-.755 9.54 9.54 0 0 0-2.221-.259c-.967 0-1.77.157-2.41.47s-.96.756-.96 1.332c0 .381.137.713.41.998s.655.54 1.143.772c.487.23 1.173.506 2.056.83 1.001.403 1.836.813 2.505 1.23.668.417 1.197.91 1.584 1.478.386.569.58 1.237.58 2.007 0 1.05-.311 1.906-.934 2.568-.622.662-1.455 1.14-2.498 1.435-1.044.295-2.23.442-3.559.442-.849 0-1.751-.08-2.706-.237-.955-.158-1.71-.37-2.265-.637v-3.042c.622.46 1.377.822 2.265 1.084a9.034 9.034 0 0 0 2.568.394c1.127 0 1.977-.16 2.548-.48.573-.32.858-.771.858-1.355 0-.416-.165-.78-.498-1.09-.332-.308-.753-.578-1.262-.808a38.445 38.445 0 0 0-2.24-.896c-.942-.38-1.722-.778-2.34-1.192z"/><g><path fill="#03787C" d="M42 36h-8v2h8a1 1 0 0 0 0-2z"/><path fill="#1A9BA1" d="M42 32h-8v2h8a1 1 0 0 0 0-2z"/><path fill="#37C6D0" d="M34 30h7a2 2 0 0 0 2-2v-2a2 2 0 0 0-2-2h-7v6z"/></g></svg>