<svg xmlns="http://www.w3.org/2000/svg" viewBox="0 0 60 60"><path opacity=".64" fill="#605E5C" d="M52 9H16c-1.654 0-3 1.265-3 2.818v36.364C13 49.735 14.346 51 16 51h36c1.654 0 3-1.265 3-2.818V11.818C55 10.265 53.654 9 52 9zm-36 2h36c.552 0 1 .367 1 .818V16H15v-4.182c0-.45.448-.818 1-.818zm36 38H16c-.552 0-1-.367-1-.818V18h38v30.182c0 .45-.448.818-1 .818z"/><g fill="#FFF"><path d="M16 49h36c.552 0 1-.367 1-.818V18H15v30.182c0 .45.448.818 1 .818zM15 16h38v-4.182c0-.45-.448-.818-1-.818H16c-.552 0-1 .367-1 .818V16z"/></g><g fill="#C8C6C4"><circle cx="18" cy="14" r="1"/><circle cx="21" cy="14" r="1"/><circle cx="24" cy="14" r="1"/></g><g><path fill="#03787C" d="M9 46h20a3 3 0 0 0 3-3V23a3 3 0 0 0-3-3H9a3 3 0 0 0-3 3v20a3 3 0 0 0 3 3z"/><path fill="#FFF" d="M14.938 32.741c-.62-.414-1.097-.892-1.433-1.435-.336-.543-.505-1.171-.505-1.883 0-.978.316-1.8.947-2.465s1.467-1.158 2.51-1.478c1.043-.32 2.188-.48 3.433-.48 1.825 0 3.267.19 4.328.572v2.88a6.627 6.627 0 0 0-1.905-.755 9.54 9.54 0 0 0-2.221-.259c-.967 0-1.77.157-2.41.47s-.96.756-.96 1.332c0 .381.137.713.41.998s.655.54 1.143.772c.487.23 1.173.506 2.056.83 1.001.403 1.836.813 2.505 1.23.668.417 1.197.91 1.584 1.478.386.569.58 1.237.58 2.007 0 1.05-.311 1.906-.934 2.568-.622.662-1.455 1.14-2.498 1.435-1.044.295-2.23.442-3.559.442-.849 0-1.751-.08-2.706-.237-.955-.158-1.71-.37-2.265-.637v-3.042c.622.46 1.377.822 2.265 1.084a9.034 9.034 0 0 0 2.568.394c1.127 0 1.977-.16 2.548-.48.573-.32.858-.771.858-1.355 0-.416-.165-.78-.498-1.09-.332-.308-.753-.578-1.262-.808a38.445 38.445 0 0 0-2.24-.896c-.942-.38-1.722-.778-2.34-1.192z"/></g><g><path fill="#038387" d="M48 38H34v2h14a1 1 0 0 0 0-2z"/><path fill="#1A9BA1" d="M48 34H34v2h14a1 1 0 0 0 0-2z"/><path fill="#37C6D0" d="M34 32h13a2 2 0 0 0 2-2v-2a2 2 0 0 0-2-2H34v6z"/></g></svg>