<svg xmlns="http://www.w3.org/2000/svg" viewBox="0 0 60 60"><circle fill="#C8C6C4" cx="11" cy="17" r="1"/><circle fill="#C8C6C4" cx="14" cy="17" r="1"/><g fill="#FFF"><path d="M9 46h42a1 1 0 0 0 1-1V25h-8c-1.654 0-3-1.346-3-3v-8H9a1 1 0 0 0-1 1v30a1 1 0 0 0 1 1z"/><path d="M51.586 23L43 14.414V22a1 1 0 0 0 1 1h7.586z"/></g><g fill="#217346"><path d="M17 32h-5a1 1 0 1 1 0-2h5a1 1 0 1 1 0 2zM17 27h-5a1 1 0 1 1 0-2h5a1 1 0 1 1 0 2zM17 22h-5a1 1 0 1 1 0-2h5a1 1 0 1 1 0 2zM17 37h-5a1 1 0 1 1 0-2h5a1 1 0 1 1 0 2zM17 42h-5a1 1 0 1 1 0-2h5a1 1 0 1 1 0 2z"/></g><g fill="#C8C6C4"><path d="M27 32h-5a1 1 0 1 1 0-2h5a1 1 0 1 1 0 2zM27 27h-5a1 1 0 1 1 0-2h5a1 1 0 1 1 0 2zM27 22h-5a1 1 0 1 1 0-2h5a1 1 0 1 1 0 2zM27 37h-5a1 1 0 1 1 0-2h5a1 1 0 1 1 0 2zM27 42h-5a1 1 0 1 1 0-2h5a1 1 0 1 1 0 2z"/></g><g fill="#C8C6C4"><path d="M37 32h-5a1 1 0 1 1 0-2h5a1 1 0 1 1 0 2zM37 27h-5a1 1 0 1 1 0-2h5a1 1 0 1 1 0 2zM37 22h-5a1 1 0 1 1 0-2h5a1 1 0 1 1 0 2zM37 37h-5a1 1 0 1 1 0-2h5a1 1 0 1 1 0 2zM37 42h-5a1 1 0 1 1 0-2h5a1 1 0 1 1 0 2z"/></g><g fill="#C8C6C4"><path d="M47 32h-5a1 1 0 1 1 0-2h5a1 1 0 1 1 0 2zM47 37h-5a1 1 0 1 1 0-2h5a1 1 0 1 1 0 2zM47 42h-5a1 1 0 1 1 0-2h5a1 1 0 1 1 0 2z"/></g><path opacity=".64" fill="#605E5C" d="M53.121 21.707l-8.828-8.828A2.979 2.979 0 0 0 42.172 12H9c-1.654 0-3 1.346-3 3v30c0 1.654 1.346 3 3 3h42c1.654 0 3-1.346 3-3V23.828c0-.8-.313-1.554-.879-2.12zM43 14.414L51.586 23H44a1 1 0 0 1-1-1v-7.586zM51 46H9a1 1 0 0 1-1-1V15a1 1 0 0 1 1-1h32v8c0 1.654 1.346 3 3 3h8v20a1 1 0 0 1-1 1z"/></svg>