<svg xmlns="http://www.w3.org/2000/svg" viewBox="0 0 60 60"><path fill="#FFF" d="M9 8h42a1 1 0 0 1 1 1v42a1 1 0 0 1-1 1H9a1 1 0 0 1-1-1V9a1 1 0 0 1 1-1z"/><path opacity=".64" fill="#605E5C" d="M51 54H9a3 3 0 0 1-3-3V9a3 3 0 0 1 3-3h42a3 3 0 0 1 3 3v42a3 3 0 0 1-3 3zM9 8a1 1 0 0 0-1 1v42a1 1 0 0 0 1 1h42a1 1 0 0 0 1-1V9a1 1 0 0 0-1-1H9z"/><path fill="none" d="M6 6h48v48H6z"/><g fill-rule="evenodd" clip-rule="evenodd"><path fill="#BC1948" d="M25 30v9.738c0 .998 1.12 1.6 1.97 1.058l15.546-9.934c.32-.205.48-.533.484-.862H25z"/><path fill="#E8467C" d="M25 30v-9.738c0-.998 1.12-1.6 1.97-1.058l15.546 9.934c.32.205.48.533.484.862H25z"/><path fill="#8C193F" d="M22.106 24.111l8.567 5.312a.672.672 0 0 1 0 1.154l-8.567 5.312c-.477.295-1.106-.033-1.106-.577V24.688c0-.544.63-.872 1.106-.577"/></g></svg>