<svg xmlns="http://www.w3.org/2000/svg" viewBox="0 0 60 60"><g fill="#FFF"><path d="M16 54h35a1 1 0 0 0 1-1V17h-8c-1.654 0-3-1.346-3-3V6H16a1 1 0 0 0-1 1v46a1 1 0 0 0 1 1z"/><path d="M51.586 15L43 6.414V14a1 1 0 0 0 1 1h7.586z"/></g><path opacity=".41" d="M53.121 13.707l-8.828-8.828A2.978 2.978 0 0 0 42.172 4H16c-1.654 0-3 1.346-3 3v46c0 1.654 1.346 3 3 3h35c1.654 0 3-1.346 3-3V15.828c0-.8-.313-1.554-.879-2.121zM43 6.414L51.586 15H44a1 1 0 0 1-1-1V6.414zM51 54H16a1 1 0 0 1-1-1V7a1 1 0 0 1 1-1h25v8c0 1.654 1.346 3 3 3h8v36a1 1 0 0 1-1 1z"/><path fill="#C8C6C4" d="M19.125 39h28.75c.621 0 1.125-.448 1.125-1s-.504-1-1.125-1h-28.75c-.621 0-1.125.448-1.125 1s.504 1 1.125 1zM19.125 44h28.75c.621 0 1.125-.448 1.125-1s-.504-1-1.125-1h-28.75c-.621 0-1.125.448-1.125 1s.504 1 1.125 1zM19.125 49h28.75c.621 0 1.125-.448 1.125-1s-.504-1-1.125-1h-28.75c-.621 0-1.125.448-1.125 1s.504 1 1.125 1z"/><path fill="#99CDC7" d="M33.155 23.067L24.955 34h18l-8.2-10.933a1 1 0 0 0-1.6 0z"/><path fill="#99CDC7" d="M41.165 26.015L34.955 34h14l-6.21-7.985a1 1 0 0 0-1.58 0z"/><circle fill="#99CDC7" cx="47" cy="21" r="2"/><path fill="#008272" d="M9 46h20a3 3 0 0 0 3-3V23a3 3 0 0 0-3-3H9a3 3 0 0 0-3 3v20a3 3 0 0 0 3 3z"/><path fill="#FFF" d="M14.938 32.741c-.62-.414-1.097-.892-1.433-1.435-.336-.543-.505-1.171-.505-1.883 0-.978.316-1.8.947-2.465s1.467-1.158 2.51-1.478c1.043-.32 2.188-.48 3.433-.48 1.825 0 3.267.19 4.328.572v2.88a6.627 6.627 0 0 0-1.905-.755 9.54 9.54 0 0 0-2.221-.259c-.967 0-1.77.157-2.41.47s-.96.756-.96 1.332c0 .381.137.713.41.998s.655.54 1.143.772c.487.23 1.173.506 2.056.83 1.001.403 1.836.813 2.505 1.23.668.417 1.197.91 1.584 1.478.386.569.58 1.237.58 2.007 0 1.05-.311 1.906-.934 2.568-.622.662-1.455 1.14-2.498 1.435-1.044.295-2.23.442-3.559.442-.849 0-1.751-.08-2.706-.237-.955-.158-1.71-.37-2.265-.637v-3.042c.622.46 1.377.822 2.265 1.084a9.034 9.034 0 0 0 2.568.394c1.127 0 1.977-.16 2.548-.48.573-.32.858-.771.858-1.355 0-.416-.165-.78-.498-1.09-.332-.308-.753-.578-1.262-.808a38.445 38.445 0 0 0-2.24-.896c-.942-.38-1.722-.778-2.34-1.192z"/></svg>