<svg xmlns="http://www.w3.org/2000/svg" viewBox="0 0 60 60"><g fill="#FFF"><path d="M13 54h34a1 1 0 0 0 1-1V17h-8c-1.654 0-3-1.346-3-3V6H13a1 1 0 0 0-1 1v46a1 1 0 0 0 1 1z"/><path d="M47.586 15L39 6.414V14a1 1 0 0 0 1 1h7.586z"/></g><path opacity=".64" fill="#605E5C" d="M49.121 13.707l-8.828-8.828A2.978 2.978 0 0 0 38.172 4H13c-1.654 0-3 1.346-3 3v46c0 1.654 1.346 3 3 3h34c1.654 0 3-1.346 3-3V15.828c0-.8-.313-1.554-.879-2.121zM39 6.414L47.586 15H40a1 1 0 0 1-1-1V6.414zM47 54H13a1 1 0 0 1-1-1V7a1 1 0 0 1 1-1h24v8c0 1.654 1.346 3 3 3h8v36a1 1 0 0 1-1 1z"/><circle fill="none" stroke="#B4B0AD" stroke-width="2" stroke-linecap="round" stroke-linejoin="round" stroke-miterlimit="10" cx="30" cy="34" r="4"/><path fill="none" stroke="#B4B0AD" stroke-width="2" stroke-linecap="round" stroke-linejoin="bevel" stroke-miterlimit="10" d="M41.348 31.946l-2.515-.21a.176.176 0 0 1-.155-.13 8.938 8.938 0 0 0-.851-2.048.176.176 0 0 1 .018-.2l1.632-1.93a.711.711 0 0 0-.04-.962l-1.903-1.903a.711.711 0 0 0-.962-.04l-1.93 1.632a.175.175 0 0 1-.2.018 8.94 8.94 0 0 0-2.048-.85.174.174 0 0 1-.13-.154l-.21-2.52a.71.71 0 0 0-.708-.649h-2.692a.711.711 0 0 0-.708.652l-.21 2.516a.176.176 0 0 1-.13.155c-.723.199-1.41.487-2.048.85a.175.175 0 0 1-.2-.018l-1.93-1.632a.711.711 0 0 0-.962.04l-1.903 1.903a.711.711 0 0 0-.04.963l1.632 1.928a.176.176 0 0 1 .018.201 8.934 8.934 0 0 0-.85 2.049.176.176 0 0 1-.155.13l-2.516.209a.71.71 0 0 0-.652.708v2.692c0 .37.283.678.652.708l2.515.21a.176.176 0 0 1 .155.13c.2.723.488 1.41.851 2.048a.175.175 0 0 1-.018.2l-1.632 1.93a.711.711 0 0 0 .04.962l1.903 1.903c.262.261.68.279.962.04l1.93-1.632a.175.175 0 0 1 .2-.018 8.943 8.943 0 0 0 2.048.85c.072.02.124.08.13.154l.21 2.52a.71.71 0 0 0 .708.649h2.692c.37 0 .678-.283.708-.652l.21-2.515a.176.176 0 0 1 .13-.155 8.94 8.94 0 0 0 2.048-.851.175.175 0 0 1 .2.018l1.93 1.632c.282.239.7.221.962-.04l1.903-1.903a.711.711 0 0 0 .04-.962l-1.632-1.93a.175.175 0 0 1-.018-.2 8.938 8.938 0 0 0 .85-2.048.176.176 0 0 1 .155-.13l2.516-.21a.711.711 0 0 0 .652-.708v-2.692a.711.711 0 0 0-.652-.708z"/></svg>