<svg xmlns="http://www.w3.org/2000/svg" viewBox="0 0 60 60"><g fill="#FFF"><path d="M13 54h34a1 1 0 0 0 1-1V17h-8c-1.654 0-3-1.346-3-3V6H13a1 1 0 0 0-1 1v46a1 1 0 0 0 1 1z"/><path d="M47.586 15L39 6.414V14a1 1 0 0 0 1 1h7.586z"/></g><path opacity=".64" fill="#605E5C" d="M49.121 13.707l-8.828-8.828A2.978 2.978 0 0 0 38.172 4H13c-1.654 0-3 1.346-3 3v46c0 1.654 1.346 3 3 3h34c1.654 0 3-1.346 3-3V15.828c0-.8-.313-1.554-.879-2.121zM39 6.414L47.586 15H40a1 1 0 0 1-1-1V6.414zM47 54H13a1 1 0 0 1-1-1V7a1 1 0 0 1 1-1h24v8c0 1.654 1.346 3 3 3h8v36a1 1 0 0 1-1 1z"/><path fill="#C8C6C4" d="M44.063 43H15.936c-.517 0-.937-.448-.937-1s.42-1 .938-1h28.124c.518 0 .938.448.938 1s-.42 1-.938 1zM44.063 39H15.936c-.517 0-.937-.448-.937-1s.42-1 .938-1h28.124c.518 0 .938.448.938 1s-.42 1-.938 1zM44.063 35H15.936c-.517 0-.937-.448-.937-1s.42-1 .938-1h28.124c.518 0 .938.448.938 1s-.42 1-.938 1zM44.063 31H15.936c-.517 0-.937-.448-.937-1s.42-1 .938-1h28.124c.518 0 .938.448.938 1s-.42 1-.938 1zM44.063 27H15.936c-.517 0-.937-.448-.937-1s.42-1 .938-1h28.124c.518 0 .938.448.938 1s-.42 1-.938 1z"/></svg>