<svg xmlns="http://www.w3.org/2000/svg" viewBox="0 0 60 60"><linearGradient id="a" gradientUnits="userSpaceOnUse" x1="30" y1="13" x2="30" y2="48"><stop offset="0" stop-color="#c8c6c4"/><stop offset="1" stop-color="#b3b0ad"/></linearGradient><path fill-rule="evenodd" clip-rule="evenodd" fill="url(#a)" d="M53 48H7a3 3 0 0 1-3-3V16a3 3 0 0 1 3-3h46a3 3 0 0 1 3 3v29a3 3 0 0 1-3 3z"/><linearGradient id="b" gradientUnits="userSpaceOnUse" x1="9.5" y1="49.023" x2="9.5" y2="47.986"><stop offset=".001" stop-color="#797775"/><stop offset="1" stop-color="#605e5c"/></linearGradient><path fill="url(#b)" d="M7.362 48.724a.5.5 0 0 0 .447.276h3.382a.5.5 0 0 0 .447-.276L12 48H7l.362.724z"/><linearGradient id="c" gradientUnits="userSpaceOnUse" x1="50.5" y1="49.023" x2="50.5" y2="47.986"><stop offset=".001" stop-color="#797775"/><stop offset="1" stop-color="#605e5c"/></linearGradient><path fill="url(#c)" d="M48.362 48.724a.5.5 0 0 0 .447.276h3.382a.5.5 0 0 0 .447-.276L53 48h-5l.362.724z"/><path fill="#797775" d="M7 16h44v29H7z"/><linearGradient id="d" gradientUnits="userSpaceOnUse" x1="27" y1="16" x2="27" y2="19"><stop offset="0" stop-color="#a19f9d"/><stop offset=".999" stop-color="#605e5c" stop-opacity=".3"/></linearGradient><path fill="url(#d)" d="M47 19H10l-3-3h40z"/><linearGradient id="e" gradientUnits="userSpaceOnUse" x1="7" y1="30.5" x2="10" y2="30.5"><stop offset="0" stop-color="#a19f9d"/><stop offset=".999" stop-color="#605e5c" stop-opacity=".3"/></linearGradient><path fill="url(#e)" d="M10 42l-3 3V16l3 3z"/><linearGradient id="f" gradientUnits="userSpaceOnUse" x1="27" y1="45" x2="27" y2="42"><stop offset="0" stop-color="#a19f9d"/><stop offset=".999" stop-color="#605e5c" stop-opacity=".3"/></linearGradient><path fill="url(#f)" d="M47 45H7l3-3h37z"/><path fill="#E1DFDD" d="M51 48h-3a1 1 0 0 1-1-1V12a1 1 0 0 1 1-1h3v37zM47 47h-2a1 1 0 0 1-1-1V13a1 1 0 0 1 1-1h2v35z"/><linearGradient id="g" gradientUnits="userSpaceOnUse" x1="49" y1="11" x2="49" y2="48"><stop offset="0" stop-color="#e1dfdd" stop-opacity="0"/><stop offset="1" stop-color="#bebbb8" stop-opacity=".2"/></linearGradient><path fill="url(#g)" d="M51 48h-3a1 1 0 0 1-1-1V12a1 1 0 0 1 1-1h3v37z"/><linearGradient id="h" gradientUnits="userSpaceOnUse" x1="44" y1="29.5" x2="47" y2="29.5"><stop offset="0" stop-color="#e1dfdd" stop-opacity="0"/><stop offset=".999" stop-color="#c8c6c4" stop-opacity=".8"/></linearGradient><path fill="url(#h)" d="M47 47h-2a1 1 0 0 1-1-1V13a1 1 0 0 1 1-1h2v35z"/><linearGradient id="i" gradientUnits="userSpaceOnUse" x1="52" y1="22" x2="52" y2="39"><stop offset=".001" stop-color="#797775"/><stop offset="1" stop-color="#605e5c"/></linearGradient><path fill="url(#i)" d="M51.5 39H51V22h.5a1.5 1.5 0 0 1 1.5 1.5v14a1.5 1.5 0 0 1-1.5 1.5z"/><linearGradient id="j" gradientUnits="userSpaceOnUse" x1="49" y1="15" x2="49" y2="20"><stop offset=".002" stop-color="#bebbb8"/><stop offset="1" stop-color="#c8c6c4"/></linearGradient><path fill="url(#j)" d="M49 20a1 1 0 0 1-1-1v-3a1 1 0 1 1 2 0v3a1 1 0 0 1-1 1z"/><linearGradient id="k" gradientUnits="userSpaceOnUse" x1="49" y1="27" x2="49" y2="32"><stop offset=".002" stop-color="#bebbb8"/><stop offset="1" stop-color="#c8c6c4"/></linearGradient><path fill="url(#k)" d="M49 32a1 1 0 0 1-1-1v-3a1 1 0 1 1 2 0v3a1 1 0 0 1-1 1z"/><linearGradient id="l" gradientUnits="userSpaceOnUse" x1="49" y1="39" x2="49" y2="44"><stop offset=".002" stop-color="#bebbb8"/><stop offset="1" stop-color="#c8c6c4"/></linearGradient><path fill="url(#l)" d="M49 44a1 1 0 0 1-1-1v-3a1 1 0 1 1 2 0v3a1 1 0 0 1-1 1z"/><path fill="#FFF" d="M34.25 43h-14.5a.75.75 0 0 1-.75-.75v-20.5a.75.75 0 0 1 .75-.75H30l5 5v16.25a.75.75 0 0 1-.75.75z"/><path fill="#EDEBE9" d="M35 26h-4.25a.75.75 0 0 1-.75-.75V21l5 5z"/></svg>