<svg xmlns="http://www.w3.org/2000/svg" viewBox="0 0 60 60"><linearGradient id="a" gradientUnits="userSpaceOnUse" x1="30" y1="13" x2="30" y2="48"><stop offset="0" stop-color="#c8c6c4"/><stop offset="1" stop-color="#b3b0ad"/></linearGradient><path fill-rule="evenodd" clip-rule="evenodd" fill="url(#a)" d="M53 48H7a3 3 0 0 1-3-3V16a3 3 0 0 1 3-3h46a3 3 0 0 1 3 3v29a3 3 0 0 1-3 3z"/><linearGradient id="b" gradientUnits="userSpaceOnUse" x1="9.5" y1="49.023" x2="9.5" y2="47.986"><stop offset=".001" stop-color="#797775"/><stop offset="1" stop-color="#605e5c"/></linearGradient><path fill="url(#b)" d="M7.362 48.724a.5.5 0 0 0 .447.276h3.382a.5.5 0 0 0 .447-.276L12 48H7l.362.724z"/><linearGradient id="c" gradientUnits="userSpaceOnUse" x1="50.5" y1="49.023" x2="50.5" y2="47.986"><stop offset=".001" stop-color="#797775"/><stop offset="1" stop-color="#605e5c"/></linearGradient><path fill="url(#c)" d="M48.362 48.724a.5.5 0 0 0 .447.276h3.382a.5.5 0 0 0 .447-.276L53 48h-5l.362.724z"/><linearGradient id="d" gradientUnits="userSpaceOnUse" x1="29" y1="16" x2="29" y2="45"><stop offset="0" stop-color="#979593"/><stop offset="1" stop-color="#8a8886"/></linearGradient><path fill="url(#d)" d="M49.5 17a.5.5 0 0 1 .5.5v26a.5.5 0 0 1-.5.5h-41a.5.5 0 0 1-.5-.5v-26a.5.5 0 0 1 .5-.5h41m0-1h-41A1.5 1.5 0 0 0 7 17.5v26A1.5 1.5 0 0 0 8.5 45h41a1.5 1.5 0 0 0 1.5-1.5v-26a1.5 1.5 0 0 0-1.5-1.5z"/><linearGradient id="e" gradientUnits="userSpaceOnUse" x1="50" y1="20" x2="50" y2="24"><stop offset=".001" stop-color="#797775"/><stop offset="1" stop-color="#605e5c"/></linearGradient><path fill="url(#e)" d="M52.5 24h-5a.5.5 0 0 1-.5-.5v-3a.5.5 0 0 1 .5-.5h5a.5.5 0 0 1 .5.5v3a.5.5 0 0 1-.5.5z"/><linearGradient id="f" gradientUnits="userSpaceOnUse" x1="50" y1="37" x2="50" y2="41"><stop offset=".001" stop-color="#797775"/><stop offset="1" stop-color="#605e5c"/></linearGradient><path fill="url(#f)" d="M52.5 41h-5a.5.5 0 0 1-.5-.5v-3a.5.5 0 0 1 .5-.5h5a.5.5 0 0 1 .5.5v3a.5.5 0 0 1-.5.5z"/><linearGradient id="g" gradientUnits="userSpaceOnUse" x1="13.5" y1="22" x2="13.5" y2="39"><stop offset=".001" stop-color="#797775"/><stop offset="1" stop-color="#605e5c"/></linearGradient><path fill="url(#g)" d="M13.5 22a2.299 2.299 0 0 0-2.29 2.491l1.129 13.442a1.164 1.164 0 0 0 2.32 0l1.131-13.442A2.299 2.299 0 0 0 13.5 22z"/><linearGradient id="h" gradientUnits="userSpaceOnUse" x1="30.5" y1="21" x2="30.5" y2="40"><stop offset=".001" stop-color="#8a8886"/><stop offset="1" stop-color="#797775"/></linearGradient><path fill="url(#h)" d="M30.5 26c2.481 0 4.5 2.019 4.5 4.5S32.981 35 30.5 35 26 32.981 26 30.5s2.019-4.5 4.5-4.5m0-5a9.5 9.5 0 1 0 0 19 9.5 9.5 0 0 0 0-19z"/></svg>