<svg xmlns="http://www.w3.org/2000/svg" viewBox="0 0 60 60"><g fill="#FFF"><path d="M13 54h34a1 1 0 0 0 1-1V17h-8c-1.654 0-3-1.346-3-3V6H13a1 1 0 0 0-1 1v46a1 1 0 0 0 1 1z"/><path d="M47.586 15L39 6.414V14a1 1 0 0 0 1 1h7.586z"/></g><path opacity=".64" fill="#605E5C" d="M49.121 13.707l-8.828-8.828A2.978 2.978 0 0 0 38.172 4H13c-1.654 0-3 1.346-3 3v46c0 1.654 1.346 3 3 3h34c1.654 0 3-1.346 3-3V15.828c0-.8-.313-1.554-.879-2.121zM39 6.414L47.586 15H40a1 1 0 0 1-1-1V6.414zM47 54H13a1 1 0 0 1-1-1V7a1 1 0 0 1 1-1h24v8c0 1.654 1.346 3 3 3h8v36a1 1 0 0 1-1 1z"/><path fill="#0078D7" d="M32.655 34.032l13.031 4.887a.484.484 0 0 1-.052.922l-6.235 1.558-1.558 6.235a.484.484 0 0 1-.922.052l-4.887-13.031a.484.484 0 0 1 .623-.623z"/><path fill="none" stroke="#C8C6C4" stroke-width="2" stroke-linecap="round" stroke-miterlimit="10" d="M17.92 40.694c1.432-9.408 9.655-16.83 20-18"/><path fill="none" stroke="#0078D7" stroke-width="2" stroke-miterlimit="10" d="M19 47h-2a2 2 0 0 1-2-2v-2a2 2 0 0 1 2-2h2a2 2 0 0 1 2 2v2a2 2 0 0 1-2 2zM43 26h-2a2 2 0 0 1-2-2v-2a2 2 0 0 1 2-2h2a2 2 0 0 1 2 2v2a2 2 0 0 1-2 2z"/><circle fill="#0078D7" cx="25" cy="28" r="5"/><path fill="#FFF" d="M25 24a4 4 0 1 1 0 8 4 4 0 0 1 0-8m0-2c-3.308 0-6 2.692-6 6s2.692 6 6 6 6-2.692 6-6-2.692-6-6-6z"/></svg>