<svg xmlns="http://www.w3.org/2000/svg" viewBox="0 0 60 60"><path fill="#FFF" d="M9 52h42a1 1 0 0 0 1-1V9a1 1 0 0 0-1-1H9a1 1 0 0 0-1 1v42a1 1 0 0 0 1 1z"/><path opacity=".64" fill="#605E5C" d="M51 54H9c-1.654 0-3-1.346-3-3V9c0-1.654 1.346-3 3-3h42c1.654 0 3 1.346 3 3v42c0 1.654-1.346 3-3 3zM9 8a1 1 0 0 0-1 1v42a1 1 0 0 0 1 1h42a1 1 0 0 0 1-1V9a1 1 0 0 0-1-1H9z"/><path fill="none" stroke="#C8C6C4" stroke-width="2" stroke-linecap="round" stroke-linejoin="round" stroke-miterlimit="10" d="M40 30l-16-9v18z"/></svg>