<svg xmlns="http://www.w3.org/2000/svg" viewBox="0 0 60 60"><g fill="#FFF"><path d="M16 54h35a1 1 0 0 0 1-1V17h-8c-1.654 0-3-1.346-3-3V6H16a1 1 0 0 0-1 1v46a1 1 0 0 0 1 1z"/><path d="M51.586 15L43 6.414V14a1 1 0 0 0 1 1h7.586z"/></g><path opacity=".64" fill="#605E5C" d="M53.121 13.707l-8.828-8.828A2.978 2.978 0 0 0 42.172 4H16c-1.654 0-3 1.346-3 3v46c0 1.654 1.346 3 3 3h35c1.654 0 3-1.346 3-3V15.828c0-.8-.313-1.554-.879-2.121zM43 6.414L51.586 15H44a1 1 0 0 1-1-1V6.414zM51 54H16a1 1 0 0 1-1-1V7a1 1 0 0 1 1-1h25v8c0 1.654 1.346 3 3 3h8v36a1 1 0 0 1-1 1z"/><path fill="#185ABD" d="M9 46h20a3 3 0 0 0 3-3V23a3 3 0 0 0-3-3H9a3 3 0 0 0-3 3v20a3 3 0 0 0 3 3z"/><path fill="#FFF" d="M18.29 35.266c.407 1.165.647 1.9.72 2.206h.05c.073-.306.333-1.093.78-2.362l3.21-9.106H26L20.56 40H17.4l-5.37-13.996h3.04l3.22 9.262z"/><g><path fill="#185ABD" d="M42 32.5V27h-2v5.5a.5.5 0 0 1-.5.5H36v2h6.25a.75.75 0 0 1 .75.75V40h2v-4.5a2.5 2.5 0 0 0-2.5-2.5.5.5 0 0 1-.5-.5z"/><circle fill="#2B7CD3" cx="44" cy="43" r="4"/><path fill="#41A5EE" d="M34 30h3v8h-3z"/><path fill="#103F91" d="M36 24l5-5 5 5-5 5z"/></g></svg>