<svg xmlns="http://www.w3.org/2000/svg" viewBox="0 0 60 60"><path opacity=".64" fill="#605E5C" d="M51 56H16c-1.654 0-3-1.346-3-3V7c0-1.654 1.346-3 3-3h35c1.654 0 3 1.346 3 3v46c0 1.654-1.346 3-3 3zM16 6a1 1 0 0 0-1 1v46a1 1 0 0 0 1 1h35a1 1 0 0 0 1-1V7a1 1 0 0 0-1-1H16z"/><path fill="#FFF" d="M16 54h35a1 1 0 0 0 1-1V7a1 1 0 0 0-1-1H16a1 1 0 0 0-1 1v46a1 1 0 0 0 1 1z"/><path fill="#185ABD" d="M9 46h20a3 3 0 0 0 3-3V23a3 3 0 0 0-3-3H9a3 3 0 0 0-3 3v20a3 3 0 0 0 3 3z"/><path fill="#FFF" d="M18.29 35.266c.407 1.165.647 1.9.72 2.206h.05c.073-.306.333-1.093.78-2.362l3.21-9.106H26L20.56 40H17.4l-5.37-13.996h3.04l3.22 9.262z"/><g fill="#C8C6C4"><path opacity=".64" d="M45 50h-6c-1.654 0-3-1.346-3-3V35c0-1.654 1.346-3 3-3h6c1.654 0 3 1.346 3 3v12c0 1.654-1.346 3-3 3zm-6-16a1 1 0 0 0-1 1v12a1 1 0 0 0 1 1h6a1 1 0 0 0 1-1V35a1 1 0 0 0-1-1h-6zM45 28h-6c-1.654 0-3-1.346-3-3V13c0-1.654 1.346-3 3-3h6c1.654 0 3 1.346 3 3v12c0 1.654-1.346 3-3 3zm-6-16a1 1 0 0 0-1 1v12a1 1 0 0 0 1 1h6a1 1 0 0 0 1-1V13a1 1 0 0 0-1-1h-6zM29 48H19.184A2.995 2.995 0 0 0 22 50h6a3.005 3.005 0 0 0 2.938-2.392A4.97 4.97 0 0 1 29 48zM21 18v-5a1 1 0 0 1 1-1h6a1 1 0 0 1 1 1v5a4.96 4.96 0 0 1 2 .424V13c0-1.654-1.346-3-3-3h-6c-1.654 0-3 1.346-3 3v5h2z"/></g></svg>