<svg xmlns="http://www.w3.org/2000/svg" viewBox="0 0 60 60"><g fill="#FFF"><path d="M50 50c0 1.654-1.346 3-3 3H19v1a1 1 0 0 0 1 1h31a1 1 0 0 0 1-1V8h1l-4-3v5h1v40z"/><path d="M16 51h31a1 1 0 0 0 1-1V10H15v40a1 1 0 0 0 1 1z"/></g><path opacity=".64" fill="#605E5C" d="M52 8v46a1 1 0 0 1-1 1H20a1 1 0 0 1-1-1v-1h28c1.654 0 3-1.346 3-3V10h-2v40a1 1 0 0 1-1 1H16a1 1 0 0 1-1-1V10h-2v40c0 1.654 1.346 3 3 3h1v1c0 1.654 1.346 3 3 3h31c1.654 0 3-1.346 3-3V8h-2z"/><path fill="#185ABD" d="M9 46h20a3 3 0 0 0 3-3V23a3 3 0 0 0-3-3H9a3 3 0 0 0-3 3v20a3 3 0 0 0 3 3z"/><path fill="#FFF" d="M18.29 35.266c.407 1.165.647 1.9.72 2.206h.05c.073-.306.333-1.093.78-2.362l3.21-9.106H26L20.56 40H17.4l-5.37-13.996h3.04l3.22 9.262z"/><path fill="#41A5EE" d="M50 8.5l1-1V5l-1-1.814A1.993 1.993 0 0 0 49.172 3H15a2 2 0 0 0-2 2v4l1 1h35l1-1v-.5z"/><path fill="#2B7CD3" d="M13 9h37v2H13zM51.707 8.707L54 11V7.414a1 1 0 0 0-.293-.707l-3.121-3.121c-.17-.17-.371-.302-.586-.4v6.228c0-.89 1.077-1.337 1.707-.707z"/><g><path fill="#185ABD" d="M41 32.5V27h-2v5.5a.5.5 0 0 1-.5.5H35v2h6.25a.75.75 0 0 1 .75.75V40h2v-4.5a2.5 2.5 0 0 0-2.5-2.5.5.5 0 0 1-.5-.5z"/><circle fill="#2B7CD3" cx="43" cy="41" r="3"/><path fill="#41A5EE" d="M34 31h3v6h-3z"/><path fill="#103F91" d="M36 26l4-4 4 4-4 4z"/></g></svg>