<svg xmlns="http://www.w3.org/2000/svg" viewBox="0 0 60 60"><g fill="#FFF"><path d="M16 54h35a1 1 0 0 0 1-1V17h-8c-1.654 0-3-1.346-3-3V6H16a1 1 0 0 0-1 1v46a1 1 0 0 0 1 1z"/><path d="M51.586 15L43 6.414V14a1 1 0 0 0 1 1h7.586z"/></g><path opacity=".64" fill="#605E5C" d="M53.121 13.707l-8.828-8.828A2.978 2.978 0 0 0 42.172 4H16c-1.654 0-3 1.346-3 3v46c0 1.654 1.346 3 3 3h35c1.654 0 3-1.346 3-3V15.828c0-.8-.313-1.554-.879-2.121zM43 6.414L51.586 15H44a1 1 0 0 1-1-1V6.414zM51 54H16a1 1 0 0 1-1-1V7a1 1 0 0 1 1-1h25v8c0 1.654 1.346 3 3 3h8v36a1 1 0 0 1-1 1z"/><path fill="#134A2C" d="M47 39h-4a1 1 0 0 1-1-1v-1a1 1 0 0 1 1-1h4a1 1 0 0 1 1 1v1a1 1 0 0 1-1 1z"/><path fill="#185C37" d="M39 39h-4a1 1 0 0 1-1-1v-1a1 1 0 0 1 1-1h4a1 1 0 0 1 1 1v1a1 1 0 0 1-1 1z"/><path fill="#21A366" d="M47 34h-4a1 1 0 0 1-1-1v-1a1 1 0 0 1 1-1h4a1 1 0 0 1 1 1v1a1 1 0 0 1-1 1z"/><path fill="#107C41" d="M39 34h-4a1 1 0 0 1-1-1v-1a1 1 0 0 1 1-1h4a1 1 0 0 1 1 1v1a1 1 0 0 1-1 1z"/><path fill="#33C481" d="M47 29h-4a1 1 0 0 1-1-1v-1a1 1 0 0 1 1-1h4a1 1 0 0 1 1 1v1a1 1 0 0 1-1 1z"/><path fill="#21A366" d="M39 29h-4a1 1 0 0 1-1-1v-1a1 1 0 0 1 1-1h4a1 1 0 0 1 1 1v1a1 1 0 0 1-1 1z"/><g><path fill="#107C41" d="M9 46h20a3 3 0 0 0 3-3V23a3 3 0 0 0-3-3H9a3 3 0 0 0-3 3v20a3 3 0 0 0 3 3z"/><path fill="#F9F7F7" d="M12 41l5.07-7.52L12.428 26h3.626l2.625 4.95c.242.469.408.82.499 1.05h.033c.173-.376.354-.74.543-1.094L22.56 26h3.321l-4.766 7.438L26 41h-3.623l-2.953-5.293a4.391 4.391 0 0 1-.352-.707h-.044c-.052.169-.165.397-.342.686L15.645 41H12z"/></g></svg>