<svg xmlns="http://www.w3.org/2000/svg" viewBox="0 0 60 60"><g fill="#FFF"><path d="M50 50c0 1.654-1.346 3-3 3H19v1a1 1 0 0 0 1 1h31a1 1 0 0 0 1-1V8h1l-4-3v5h1v40z"/><path d="M16 51h31a1 1 0 0 0 1-1V10H15v40a1 1 0 0 0 1 1z"/></g><path opacity=".64" fill="#605E5C" d="M52 8v46a1 1 0 0 1-1 1H20a1 1 0 0 1-1-1v-1h28c1.654 0 3-1.346 3-3V10h-2v40a1 1 0 0 1-1 1H16a1 1 0 0 1-1-1V10h-2v40c0 1.654 1.346 3 3 3h1v1c0 1.654 1.346 3 3 3h31c1.654 0 3-1.346 3-3V8h-2z"/><path fill="#33C481" d="M50 8.5l1-1V5l-1-1.814A1.993 1.993 0 0 0 49.172 3H15a2 2 0 0 0-2 2v4l1 1h35l1-1v-.5z"/><path fill="#21A366" d="M13 9h37v2H13zM51.707 8.707L54 11V7.414a1 1 0 0 0-.293-.707l-3.121-3.121c-.17-.17-.371-.302-.586-.4v6.228c0-.89 1.077-1.337 1.707-.707z"/><path fill="#134A2C" d="M44 39h-3a1 1 0 0 1-1-1v-1a1 1 0 0 1 1-1h3a1 1 0 0 1 1 1v1a1 1 0 0 1-1 1z"/><path fill="#185C37" d="M37 36h-3v3h3a1 1 0 0 0 1-1v-1a1 1 0 0 0-1-1z"/><path fill="#21A366" d="M44 34h-3a1 1 0 0 1-1-1v-1a1 1 0 0 1 1-1h3a1 1 0 0 1 1 1v1a1 1 0 0 1-1 1z"/><path fill="#107C41" d="M37 31h-3v3h3a1 1 0 0 0 1-1v-1a1 1 0 0 0-1-1z"/><path fill="#33C481" d="M44 29h-3a1 1 0 0 1-1-1v-1a1 1 0 0 1 1-1h3a1 1 0 0 1 1 1v1a1 1 0 0 1-1 1z"/><path fill="#21A366" d="M37 26h-3v3h3a1 1 0 0 0 1-1v-1a1 1 0 0 0-1-1z"/><g><path fill="#107C41" d="M9 46h20a3 3 0 0 0 3-3V23a3 3 0 0 0-3-3H9a3 3 0 0 0-3 3v20a3 3 0 0 0 3 3z"/><path fill="#F9F7F7" d="M12 41l5.07-7.52L12.428 26h3.626l2.625 4.95c.242.469.408.82.499 1.05h.033c.173-.376.354-.74.543-1.094L22.56 26h3.321l-4.766 7.438L26 41h-3.623l-2.953-5.293a4.391 4.391 0 0 1-.352-.707h-.044c-.052.169-.165.397-.342.686L15.645 41H12z"/></g></svg>