<svg xmlns="http://www.w3.org/2000/svg" viewBox="0 0 72 72"><g fill="#FFF"><path d="M19 66h44a1 1 0 0 0 1-1V20H53c-1.654 0-3-1.346-3-3V6H19a1 1 0 0 0-1 1v58a1 1 0 0 0 1 1z"/><path d="M63.586 18L52 6.414V17a1 1 0 0 0 1 1h10.586z"/></g><path opacity=".64" fill="#605E5C" d="M65.121 16.707L53.293 4.879A2.978 2.978 0 0 0 51.172 4H19c-1.654 0-3 1.346-3 3v58c0 1.654 1.346 3 3 3h44c1.654 0 3-1.346 3-3V18.828c0-.8-.313-1.554-.879-2.121zM52 6.414L63.586 18H53a1 1 0 0 1-1-1V6.414zM63 66H19a1 1 0 0 1-1-1V7a1 1 0 0 1 1-1h31v11c0 1.654 1.346 3 3 3h11v45a1 1 0 0 1-1 1z"/><path fill="#AF2031" d="M9 55h25a3 3 0 0 0 3-3V27a3 3 0 0 0-3-3H9a3 3 0 0 0-3 3v25a3 3 0 0 0 3 3z"/><path fill="#FFF" d="M19.313 30h4.484L31 49h-4.236l-1.587-4h-7.41l-1.559 4H12l7.313-19zm4.912 12l-2.304-7.336c-.23-.654-.373-1.17-.428-1.55h-.083c-.037.344-.175.874-.414 1.59L18.665 42h5.56z"/><g><path fill="#E08095" d="M53 35h-6a1 1 0 0 0 0 2h6a1 1 0 0 0 0-2z"/><path fill="#C94F60" d="M53 40h-6a1 1 0 0 0 0 2h6a1 1 0 0 0 0-2z"/><path fill="#881421" d="M53 45h-6a1 1 0 0 0 0 2h6a1 1 0 0 0 0-2z"/><path fill="#66121C" d="M42 45h-3v2h3a1 1 0 0 0 0-2z"/><path fill="#AF2031" d="M42 40h-3v2h3a1 1 0 0 0 0-2z"/><path fill="#C94F60" d="M42 35h-3v2h3a1 1 0 0 0 0-2zM57 31v18a1 1 0 0 1-1 1H39v2h17c1.654 0 3-1.346 3-3V31h-2z"/><path fill="#E08095" d="M59 32H39v-5h17a3 3 0 0 1 3 3v2z"/></g></svg>