<svg xmlns="http://www.w3.org/2000/svg" viewBox="0 0 72 72"><path fill="#FFF" d="M9 64h54a1 1 0 0 0 1-1V9a1 1 0 0 0-1-1H9a1 1 0 0 0-1 1v54a1 1 0 0 0 1 1z"/><path opacity=".64" fill="#605E5C" d="M63 66H9c-1.654 0-3-1.346-3-3V9c0-1.654 1.346-3 3-3h54c1.654 0 3 1.346 3 3v54c0 1.654-1.346 3-3 3zM9 8a1 1 0 0 0-1 1v54a1 1 0 0 0 1 1h54a1 1 0 0 0 1-1V9a1 1 0 0 0-1-1H9z"/><g fill="none" stroke="#69AFE5" stroke-width="2" stroke-linecap="round" stroke-linejoin="round" stroke-miterlimit="10"><circle cx="28.5" cy="43.511" r="3.5"/><circle cx="43.5" cy="40.511" r="3.5"/><path d="M32 43.918V28.595l15-3.677V40.24M32.333 33.501L47 29.834"/></g></svg>