<svg xmlns="http://www.w3.org/2000/svg" viewBox="0 0 72 72"><g fill="#FFF"><path d="M19 66h44a1 1 0 0 0 1-1V20H53c-1.654 0-3-1.346-3-3V6H19a1 1 0 0 0-1 1v58a1 1 0 0 0 1 1z"/><path d="M63.586 18L52 6.414V17a1 1 0 0 0 1 1h10.586z"/></g><path opacity=".64" fill="#605E5C" d="M65.121 16.707L53.293 4.879A2.978 2.978 0 0 0 51.172 4H19c-1.654 0-3 1.346-3 3v58c0 1.654 1.346 3 3 3h44c1.654 0 3-1.346 3-3V18.828c0-.8-.313-1.554-.879-2.121zM52 6.414L63.586 18H53a1 1 0 0 1-1-1V6.414zM63 66H19a1 1 0 0 1-1-1V7a1 1 0 0 1 1-1h31v11c0 1.654 1.346 3 3 3h11v45a1 1 0 0 1-1 1z"/><g fill="#33C481"><path d="M52.932 47.57h-2.824v-2.756h-.07C48.81 46.938 47.003 48 44.615 48c-1.7 0-3.06-.462-4.081-1.386C39.51 45.69 39 44.447 39 42.885c0-3.283 1.94-5.2 5.82-5.752l5.288-.74c0-2.985-1.212-4.478-3.634-4.478-2.124 0-4.041.718-5.752 2.153v-2.893c.517-.39 1.4-.766 2.652-1.128 1.252-.362 2.365-.542 3.341-.542 4.145 0 6.217 2.198 6.217 6.595v11.47zm-2.824-8.921l-4.271.603c-1.458.206-2.48.553-3.066 1.041-.585.488-.878 1.278-.878 2.368 0 .884.316 1.593.947 2.127.632.534 1.441.801 2.428.801 1.401 0 2.558-.494 3.47-1.481.913-.987 1.37-2.221 1.37-3.703V38.65zM60.06 44l-2.915 9H55l2.145-9h2.914z"/></g><path fill="#107C41" d="M9 55h25a3 3 0 0 0 3-3V27a3 3 0 0 0-3-3H9a3 3 0 0 0-3 3v25a3 3 0 0 0 3 3z"/><path fill="#F9F7F7" d="M12.889 49l6.117-9.526L13.403 30h4.685l2.917 5.774c.268.548.452.956.553 1.226h.037c.194-.438.395-.863.604-1.277L25.316 30h4.317l-5.748 9.421L29.777 49H25.62l-3.749-7.058a5.893 5.893 0 0 1-.448-.942h-.056c-.065.225-.21.53-.434.914L17.073 49h-4.184z"/></svg>