<svg xmlns="http://www.w3.org/2000/svg" viewBox="0 0 72 72"><g fill="#FFF"><path d="M19 66h44a1 1 0 0 0 1-1V20H53c-1.654 0-3-1.346-3-3V6H19a1 1 0 0 0-1 1v58a1 1 0 0 0 1 1z"/><path d="M63.586 18L52 6.414V17a1 1 0 0 0 1 1h10.586z"/></g><path opacity=".64" fill="#605E5C" d="M65.121 16.707L53.293 4.879A2.978 2.978 0 0 0 51.172 4H19c-1.654 0-3 1.346-3 3v58c0 1.654 1.346 3 3 3h44c1.654 0 3-1.346 3-3V18.828c0-.8-.313-1.554-.879-2.121zM52 6.414L63.586 18H53a1 1 0 0 1-1-1V6.414zM63 66H19a1 1 0 0 1-1-1V7a1 1 0 0 1 1-1h31v11c0 1.654 1.346 3 3 3h11v45a1 1 0 0 1-1 1z"/><path fill="#103F91" d="M58 46H39v2h19a1 1 0 0 0 0-2z"/><path fill="#185ABD" d="M58 41H39v2h19a1 1 0 0 0 0-2z"/><path fill="#2B7CD3" d="M58 36H39v2h19a1 1 0 0 0 0-2z"/><path fill="#41A5EE" d="M58 31H39v2h19a1 1 0 0 0 0-2z"/><g><path fill="#185ABD" d="M9 55h25a3 3 0 0 0 3-3V27a3 3 0 0 0-3-3H9a3 3 0 0 0-3 3v25a3 3 0 0 0 3 3z"/><path fill="#F9F7F7" d="M16.719 43.862c.049.404.081.755.097 1.056h.057a18.5 18.5 0 0 1 .32-2.051L19.843 31h3.428l2.742 11.689c.137.577.251 1.312.343 2.205h.045c.039-.617.134-1.328.286-2.134L28.881 31H32l-3.839 17h-3.645L21.9 36.738c-.076-.324-.162-.747-.257-1.27s-.154-.9-.177-1.137h-.046c-.03.277-.09.688-.177 1.233-.088.546-.158.948-.211 1.21L18.575 48h-3.702L11 31h3.176l2.388 11.891c.053.245.105.569.155.971z"/></g></svg>