<svg xmlns="http://www.w3.org/2000/svg" viewBox="0 0 72 72"><g fill="#FFF"><path d="M14 66h44a1 1 0 0 0 1-1V20H48c-1.654 0-3-1.346-3-3V6H14a1 1 0 0 0-1 1v58a1 1 0 0 0 1 1z"/><path d="M58.586 18L47 6.414V17a1 1 0 0 0 1 1h10.586z"/></g><path opacity=".64" fill="#605E5C" d="M60.121 16.707L48.293 4.879A2.978 2.978 0 0 0 46.172 4H14c-1.654 0-3 1.346-3 3v58c0 1.654 1.346 3 3 3h44c1.654 0 3-1.346 3-3V18.828c0-.8-.313-1.554-.879-2.121zM47 6.414L58.586 18H48a1 1 0 0 1-1-1V6.414zM58 66H14a1 1 0 0 1-1-1V7a1 1 0 0 1 1-1h31v11c0 1.654 1.346 3 3 3h11v45a1 1 0 0 1-1 1z"/><path fill="#FF5C0D" d="M40.746 45.526H28.35l-2.172 4.937c-.535 1.215-.803 2.122-.803 2.722 0 .477.232.897.697 1.257.463.363 1.467.597 3.01.704V56H19v-.854c1.338-.23 2.204-.53 2.597-.9.803-.738 1.692-2.237 2.668-4.498L35.528 24h.826L47.5 50.024c.897 2.092 1.712 3.45 2.443 4.073.733.622 1.751.972 3.058 1.05V56H40.368v-.854c1.275-.061 2.137-.269 2.585-.623.45-.353.673-.784.673-1.292 0-.676-.314-1.745-.944-3.206l-1.936-4.5zm-.661-1.708l-5.43-12.643-5.573 12.643h11.003z"/></svg>