<svg xmlns="http://www.w3.org/2000/svg" viewBox="0 0 72 72"><g fill="#FFF"><path d="M19 66h44a1 1 0 0 0 1-1V20H53c-1.654 0-3-1.346-3-3V6H19a1 1 0 0 0-1 1v58a1 1 0 0 0 1 1z"/><path d="M63.586 18L52 6.414V17a1 1 0 0 0 1 1h10.586z"/></g><path opacity=".64" fill="#605E5C" d="M65.121 16.707L53.293 4.879A2.978 2.978 0 0 0 51.172 4H19c-1.654 0-3 1.346-3 3v58c0 1.654 1.346 3 3 3h44c1.654 0 3-1.346 3-3V18.828c0-.8-.313-1.554-.879-2.121zM52 6.414L63.586 18H53a1 1 0 0 1-1-1V6.414zM63 66H19a1 1 0 0 1-1-1V7a1 1 0 0 1 1-1h31v11c0 1.654 1.346 3 3 3h11v45a1 1 0 0 1-1 1z"/><path fill="none" stroke="#C8C6C4" stroke-width="2" stroke-miterlimit="10" d="M56 60H32a2 2 0 0 1-2-2V26h26a2 2 0 0 1 2 2v30a2 2 0 0 1-2 2z"/><path fill="#8BBF8A" d="M52 37H37v-6h15a1 1 0 0 1 1 1v4a1 1 0 0 1-1 1zM52 46H37v-6h15a1 1 0 0 1 1 1v4a1 1 0 0 1-1 1zM42 49h15v6H42a1 1 0 0 1-1-1v-4a1 1 0 0 1 1-1z"/><path fill="#31752F" d="M9 55h25a3 3 0 0 0 3-3V27a3 3 0 0 0-3-3H9a3 3 0 0 0-3 3v25a3 3 0 0 0 3 3z"/><path fill="#F9F7F7" d="M22.26 30c2.18 0 3.847.497 5.004 1.49C28.421 32.48 29 33.917 29 35.8c0 1.207-.286 2.282-.859 3.222-.572.941-1.385 1.672-2.441 2.195-1.055.521-2.278.783-3.668.783h-3.103v7H15V30h7.26zm-3.33 9h2.922c1.14 0 2-.262 2.583-.784.582-.523.873-1.286.873-2.29 0-1.951-1.116-2.926-3.347-2.926h-3.032v6z"/></svg>