<svg xmlns="http://www.w3.org/2000/svg" viewBox="0 0 72 72"><path fill="#FFF" d="M58.586 18L47 6.414V17a1 1 0 0 0 1 1h10.586zM14 66h38a1 1 0 0 0 1-1v-3H20c-1.654 0-3-1.346-3-3V12h-3a1 1 0 0 0-1 1v52a1 1 0 0 0 1 1z"/><path fill="#FFF" d="M59 59V20H48c-1.654 0-3-1.346-3-3V6H20a1 1 0 0 0-1 1v52a1 1 0 0 0 1 1h38a1 1 0 0 0 1-1z"/><path opacity=".64" fill="#605E5C" d="M60.121 16.707L48.293 4.88A2.979 2.979 0 0 0 46.172 4H20c-1.654 0-3 1.346-3 3v3h-3c-1.654 0-3 1.346-3 3v52c0 1.654 1.346 3 3 3h38c1.654 0 3-1.346 3-3v-3h3c1.654 0 3-1.346 3-3V18.828c0-.8-.313-1.554-.879-2.12zM47 6.414L58.586 18H48a1 1 0 0 1-1-1V6.414zM53 65a1 1 0 0 1-1 1H14a1 1 0 0 1-1-1V13a1 1 0 0 1 1-1h3v47c0 1.654 1.346 3 3 3h33v3zm5-5H20a1 1 0 0 1-1-1V7a1 1 0 0 1 1-1h25v11c0 1.654 1.346 3 3 3h11v39a1 1 0 0 1-1 1z"/></svg>