<svg xmlns="http://www.w3.org/2000/svg" viewBox="0 0 72 72"><path opacity=".64" fill="#605E5C" d="M58 68H19c-1.654 0-3-1.346-3-3V7c0-1.654 1.346-3 3-3h39c1.654 0 3 1.346 3 3v58c0 1.654-1.346 3-3 3zM19 6a1 1 0 0 0-1 1v58a1 1 0 0 0 1 1h39a1 1 0 0 0 1-1V7a1 1 0 0 0-1-1H19z"/><path fill="#9332BF" d="M64 43h-3V28h3a2 2 0 0 1 2 2v11a2 2 0 0 1-2 2z"/><path fill="#AE4BD5" d="M64 26h-3V11h3a2 2 0 0 1 2 2v11a2 2 0 0 1-2 2z"/><path fill="#7719AA" d="M64 60h-3V45h3a2 2 0 0 1 2 2v11a2 2 0 0 1-2 2z"/><path fill="#FFF" d="M19 66h39a1 1 0 0 0 1-1V7a1 1 0 0 0-1-1H19a1 1 0 0 0-1 1v58a1 1 0 0 0 1 1z"/><path fill="#7719AA" d="M9 55h25a3 3 0 0 0 3-3V27a3 3 0 0 0-3-3H9a3 3 0 0 0-3 3v25a3 3 0 0 0 3 3z"/><path fill="#F9F7F7" d="M13 30h4s9.809 14.655 10 15l.019-15H30v19h-3.94L16 34.702V49h-3V30z"/></svg>