<svg xmlns="http://www.w3.org/2000/svg" viewBox="0 0 72 72"><path fill="#FFF" d="M9 64h54a1 1 0 0 0 1-1V9a1 1 0 0 0-1-1H9a1 1 0 0 0-1 1v54a1 1 0 0 0 1 1z"/><path opacity=".64" fill="#605E5C" d="M63 66H9c-1.654 0-3-1.346-3-3V9c0-1.654 1.346-3 3-3h54c1.654 0 3 1.346 3 3v54c0 1.654-1.346 3-3 3zM9 8a1 1 0 0 0-1 1v54a1 1 0 0 0 1 1h54a1 1 0 0 0 1-1V9a1 1 0 0 0-1-1H9z"/><g fill="none" stroke="#C8C6C4" stroke-width="2" stroke-miterlimit="10"><path d="M42.382 37.093l-2.987 4.143a1 1 0 0 1-1.605.023l-5.498-7.184a2 2 0 0 0-3.176 0l-9.726 12.71C18.383 48.1 19.32 50 20.978 50h30.044c1.63 0 2.576-1.847 1.623-3.17l-7.019-9.737a2 2 0 0 0-3.244 0z"/><circle cx="49" cy="26" r="4"/></g></svg>