<svg xmlns="http://www.w3.org/2000/svg" viewBox="0 0 72 72"><path fill="#FFB900" d="M34 18l-3.243-3.243A6 6 0 0 0 26.515 13H7a3 3 0 0 0-3 3v40a3 3 0 0 0 3 3h58a3 3 0 0 0 3-3V21a3 3 0 0 0-3-3H34z"/><path fill="#FFD75E" d="M34 18l-3.243 3.243A6 6 0 0 1 26.515 23H4v33a3 3 0 0 0 3 3h58a3 3 0 0 0 3-3V21a3 3 0 0 0-3-3H34z"/><linearGradient id="a" gradientUnits="userSpaceOnUse" x1="36" y1="18" x2="36" y2="59"><stop offset="0" stop-color="#fff" stop-opacity="0"/><stop offset=".999" stop-color="#ffd75e" stop-opacity=".3"/></linearGradient><path fill="url(#a)" d="M34 18l-3.243 3.243A6 6 0 0 1 26.515 23H4v33a3 3 0 0 0 3 3h58a3 3 0 0 0 3-3V21a3 3 0 0 0-3-3H34z"/><path fill="#E67628" d="M66 58H6c-.571 0-1.1-.169-1.554-.446A2.988 2.988 0 0 0 7 59h58a2.988 2.988 0 0 0 2.554-1.446A2.973 2.973 0 0 1 66 58z"/><path opacity=".4" fill="#FFF" d="M31.404 22.096L35.5 18H34l-3.243 3.243A6 6 0 0 1 26.515 23H4v1h22.808a6.5 6.5 0 0 0 4.596-1.904z"/><g><path fill="#BF5712" d="M63 45v9H51v-9h12zm-11.25.75v3.967l2.14-2.62 3.75 3.75 1.985-1.5 2.625 2.62V45.75h-10.5zm0 7.5H59l-5.092-5.098-2.158 2.631v2.467zm10.5 0v-.374l-2.625-2.617-1.584 1.116 1.88 1.875h2.329zM60.5 48c-.135 0-.253-.05-.352-.148S60 47.635 60 47.5s.05-.253.148-.352.217-.148.352-.148.253.05.352.148.148.217.148.352-.05.253-.148.352-.217.148-.352.148z"/></g></svg>