<svg xmlns="http://www.w3.org/2000/svg" viewBox="0 0 72 72"><g fill="#FFF"><path d="M61 60c0 1.654-1.346 3-3 3H23v2a1 1 0 0 0 1 1h39a1 1 0 0 0 1-1V11h1c0-1.105-3.896-5-5-5v6h1v48z"/><path d="M19 61h39a1 1 0 0 0 1-1V12H18v48a1 1 0 0 0 1 1z"/></g><path opacity=".64" fill="#605E5C" d="M64 11v54a1 1 0 0 1-1 1H24a1 1 0 0 1-1-1v-2h35c1.654 0 3-1.346 3-3V12h-2v48a1 1 0 0 1-1 1H19a1 1 0 0 1-1-1V12h-2v48c0 1.654 1.346 3 3 3h2v2c0 1.654 1.346 3 3 3h39c1.654 0 3-1.346 3-3V11h-2z"/><path fill="#FF8F6B" d="M61 4.186A1.993 1.993 0 0 0 60.172 4H18a2 2 0 0 0-2 2v5l1 1h43l1-1v-1l1-1V7l-1-2.814z"/><path fill="#ED6C47" d="M16 11h45v2H16zM62.707 9.707L66 13V9.828a2 2 0 0 0-.586-1.414l-3.828-3.828c-.17-.17-.371-.302-.586-.4v6.228c0-.89 1.077-1.337 1.707-.707zM44 39l-1-1h-3l-1 1v9.79A10.939 10.939 0 0 0 44 50c6.075 0 11-4.925 11-11H44z"/><path fill="#FF8F6B" d="M39 29.21V39h5V28c-1.803 0-3.499.442-5 1.21z"/><path fill="#FFC7B5" d="M46 26v11h11c0-6.075-4.925-11-11-11z"/><g><path fill="#C43E1C" d="M9 55h25a3 3 0 0 0 3-3V27a3 3 0 0 0-3-3H9a3 3 0 0 0-3 3v25a3 3 0 0 0 3 3z"/><path fill="#F9F7F7" d="M22.26 30c2.18 0 3.847.497 5.004 1.49C28.421 32.48 29 33.917 29 35.8c0 1.207-.286 2.282-.859 3.222-.572.941-1.385 1.672-2.441 2.195-1.055.521-2.278.783-3.668.783h-3.103v7H15V30h7.26zm-3.33 9h2.922c1.14 0 2-.262 2.583-.784.582-.523.873-1.286.873-2.29 0-1.951-1.116-2.926-3.347-2.926h-3.032v6z"/></g></svg>