<svg xmlns="http://www.w3.org/2000/svg" viewBox="0 0 72 72"><path fill="#FFB900" d="M34 18l-3.243-3.243A6 6 0 0 0 26.515 13H7a3 3 0 0 0-3 3v40a3 3 0 0 0 3 3h58a3 3 0 0 0 3-3V21a3 3 0 0 0-3-3H34z"/><path fill="#FFD75E" d="M34 18l-3.243 3.243A6 6 0 0 1 26.515 23H4v33a3 3 0 0 0 3 3h58a3 3 0 0 0 3-3V21a3 3 0 0 0-3-3H34z"/><linearGradient id="a" gradientUnits="userSpaceOnUse" x1="36" y1="18" x2="36" y2="59"><stop offset="0" stop-color="#fff" stop-opacity="0"/><stop offset=".999" stop-color="#ffd75e" stop-opacity=".3"/></linearGradient><path fill="url(#a)" d="M34 18l-3.243 3.243A6 6 0 0 1 26.515 23H4v33a3 3 0 0 0 3 3h58a3 3 0 0 0 3-3V21a3 3 0 0 0-3-3H34z"/><path fill="#E67628" d="M66 58H6c-.571 0-1.1-.169-1.554-.446A2.988 2.988 0 0 0 7 59h58a2.988 2.988 0 0 0 2.554-1.446A2.973 2.973 0 0 1 66 58z"/><path opacity=".4" fill="#FFF" d="M31.404 22.096L35.5 18H34l-3.243 3.243A6 6 0 0 1 26.515 23H4v1h22.808a6.5 6.5 0 0 0 4.596-1.904z"/><g><path fill="#BF5712" d="M61.464 52.985a.495.495 0 0 1-.353-.146L50.123 41.894a.5.5 0 1 1 .705-.708L61.816 52.13a.5.5 0 0 1-.352.854zM55.812 44.232l2.744-2.744.707.707-2.744 2.744z"/><path fill="#BF5712" d="M50.516 52.985a.5.5 0 0 1-.486-.621l.75-3a.502.502 0 0 1 .132-.233l3.716-3.716.707.707-3.618 3.618-.514 2.058 2.057-.515 3.536-3.536.707.707-3.634 3.634a.502.502 0 0 1-.232.132l-3 .75a.489.489 0 0 1-.121.015z"/><path fill="#BF5712" d="M53.2 51.69c-.357-1.4-1.895-1.891-1.91-1.896l.29-.957c.084.026 2.09.65 2.589 2.606l-.969.247zM58.193 46.35l2.612-2.613.707.708-2.612 2.612zM61.513 44.444l-.707-.707a1.092 1.092 0 0 0-1.543-1.542l-.707-.708a2.093 2.093 0 0 1 2.957 0 2.092 2.092 0 0 1 0 2.957z"/><path fill="#BF5712" d="M57.896 42.854l.707-.707 2.25 2.25-.707.707z"/></g></svg>