<svg xmlns="http://www.w3.org/2000/svg" viewBox="0 0 72 72"><g fill="#FFF"><path d="M14 66h44a1 1 0 0 0 1-1V20H48c-1.654 0-3-1.346-3-3V6H14a1 1 0 0 0-1 1v58a1 1 0 0 0 1 1z"/><path d="M58.586 18L47 6.414V17a1 1 0 0 0 1 1h10.586z"/></g><path opacity=".64" fill="#605E5C" d="M60.121 16.707L48.293 4.879A2.978 2.978 0 0 0 46.172 4H14c-1.654 0-3 1.346-3 3v58c0 1.654 1.346 3 3 3h44c1.654 0 3-1.346 3-3V18.828c0-.8-.313-1.554-.879-2.121zM47 6.414L58.586 18H48a1 1 0 0 1-1-1V6.414zM58 66H14a1 1 0 0 1-1-1V7a1 1 0 0 1 1-1h31v11c0 1.654 1.346 3 3 3h11v45a1 1 0 0 1-1 1z"/><path fill="#C8C6C4" d="M34 46H19a1 1 0 1 1 0-2h15a1 1 0 1 1 0 2zM34 51H19a1 1 0 1 1 0-2h15a1 1 0 1 1 0 2zM34 56H19a1 1 0 1 1 0-2h15a1 1 0 1 1 0 2z"/><path fill="#0078D7" d="M53 41H19a1 1 0 1 1 0-2h34a1 1 0 1 1 0 2z"/><path fill="#69AFE5" d="M53 36H33a1 1 0 1 1 0-2h20a1 1 0 1 1 0 2zM53 31H33a1 1 0 1 1 0-2h20a1 1 0 1 1 0 2z"/><path fill="#0078D7" d="M30 36h-2.627l-1.044-2.726h-4.78L20.56 36H18l4.658-12h2.553L30 36zm-4.446-4.748L23.906 26.8l-1.615 4.452h3.263z"/><path fill="#69AFE5" d="M52 56H39a2 2 0 0 1-2-2v-8a2 2 0 0 1 2-2h13a2 2 0 0 1 2 2v8a2 2 0 0 1-2 2z"/></svg>