<svg xmlns="http://www.w3.org/2000/svg" viewBox="0 0 72 72"><path opacity=".64" fill="#605E5C" d="M60.33 60h-.003c-9.422-.003-33.237-.01-42.686-.006h-.002a5.764 5.764 0 0 1-3.964-1.544C12.595 57.437 12 56.085 12 54.644V15c0-1.654 1.346-3 3-3h42c1.654 0 3 1.346 3 3v17h5.002a1 1 0 0 1 1 1.001s-.01 14.767-.033 21.668c-.011 2.94-2.541 5.331-5.64 5.331zm-34.987-2.007c11.226 0 27.566.005 34.984.007h.002c2 0 3.633-1.497 3.64-3.338.018-5.818.029-17.228.032-20.662H60v15a1 1 0 1 1-2 0V15a1 1 0 0 0-1-1H15a1 1 0 0 0-1 1v39.644c0 .882.37 1.716 1.043 2.347a3.773 3.773 0 0 0 2.596 1.003h7.704z"/><path fill="#FFF" d="M57 14H15a1 1 0 0 0-1 1v39.644c0 .882.37 1.716 1.043 2.347a3.773 3.773 0 0 0 2.596 1.003h7.704c11.226 0 27.566.004 34.984.006h.002c2 0 3.633-1.497 3.64-3.338.018-5.818.029-17.228.032-20.662H60v15a1 1 0 1 1-2 0V15a1 1 0 0 0-1-1z"/><path fill="#81C8C3" d="M42 40h10a2 2 0 0 0 2-2V27a2 2 0 0 0-2-2H42a2 2 0 0 0-2 2v11a2 2 0 0 0 2 2z"/><path fill="#C8C6C4" d="M53.045 50H33v-2h20.046c.527 0 .954.448.954 1s-.427 1-.955 1zM53.045 45H33v-2h20.046c.527 0 .954.448.954 1s-.427 1-.955 1zM52.875 19h-33.75c-.621 0-1.125.448-1.125 1s.504 1 1.125 1h33.75c.621 0 1.125-.448 1.125-1s-.504-1-1.125-1z"/><path fill="#03787C" d="M9 55h25a3 3 0 0 0 3-3V27a3 3 0 0 0-3-3H9a3 3 0 0 0-3 3v25a3 3 0 0 0 3 3z"/><path fill="#FFF" d="M16.258 39.167c-.728-.465-1.286-1.016-1.675-1.653-.39-.636-.583-1.39-.583-2.261 0-1.161.361-2.137 1.084-2.928.723-.79 1.683-1.375 2.883-1.755 1.198-.38 2.511-.57 3.939-.57 2.187 0 3.916.227 5.188.679v3.42c-.678-.392-1.46-.691-2.347-.896a12.165 12.165 0 0 0-2.745-.307c-1.135 0-2.075.185-2.82.557-.747.371-1.12.899-1.12 1.582 0 .428.158.8.474 1.121.316.32.741.605 1.277.852.535.248 1.333.577 2.395.987.182.06.297.102.343.128 1.253.479 2.26.941 3.02 1.39.759.448 1.353 1.008 1.784 1.678.43.671.645 1.514.645 2.53 0 1.248-.339 2.264-1.016 3.05s-1.583 1.354-2.717 1.704c-1.135.35-2.425.525-3.87.525-1.236 0-2.405-.09-3.508-.27-1.103-.178-2.052-.435-2.848-.768V44.35c.777.538 1.738.966 2.883 1.282 1.143.316 2.2.473 3.17.473 1.272 0 2.23-.19 2.876-.57.645-.38.967-.916.967-1.608 0-.469-.18-.879-.542-1.23-.362-.35-.86-.674-1.496-.973-.636-.299-1.577-.692-2.82-1.179-1.154-.452-2.094-.911-2.821-1.377z"/></svg>