<svg xmlns="http://www.w3.org/2000/svg" viewBox="0 0 72 72"><g fill="#FFF"><path d="M9 56h54a1 1 0 0 0 1-1V30H53c-1.654 0-3-1.346-3-3V16H9a1 1 0 0 0-1 1v38a1 1 0 0 0 1 1z"/><path d="M63.586 28L52 16.414V27a1 1 0 0 0 1 1h10.586z"/></g><g fill="#217346"><path d="M21 31h-7a1 1 0 1 1 0-2h7a1 1 0 1 1 0 2zM21 26h-7a1 1 0 1 1 0-2h7a1 1 0 1 1 0 2zM21 36h-7a1 1 0 1 1 0-2h7a1 1 0 1 1 0 2zM21 41h-7a1 1 0 1 1 0-2h7a1 1 0 1 1 0 2zM21 46h-7a1 1 0 1 1 0-2h7a1 1 0 1 1 0 2zM21 51h-7a1 1 0 1 1 0-2h7a1 1 0 1 1 0 2z"/></g><g fill="#C8C6C4"><path d="M33 31h-7a1 1 0 1 1 0-2h7a1 1 0 1 1 0 2zM33 26h-7a1 1 0 1 1 0-2h7a1 1 0 1 1 0 2zM33 36h-7a1 1 0 1 1 0-2h7a1 1 0 1 1 0 2zM33 41h-7a1 1 0 1 1 0-2h7a1 1 0 1 1 0 2zM33 46h-7a1 1 0 1 1 0-2h7a1 1 0 1 1 0 2zM33 51h-7a1 1 0 1 1 0-2h7a1 1 0 1 1 0 2z"/></g><g fill="#C8C6C4"><path d="M45 31h-7a1 1 0 1 1 0-2h7a1 1 0 1 1 0 2zM45 26h-7a1 1 0 1 1 0-2h7a1 1 0 1 1 0 2zM45 36h-7a1 1 0 1 1 0-2h7a1 1 0 1 1 0 2zM45 41h-7a1 1 0 1 1 0-2h7a1 1 0 1 1 0 2zM45 46h-7a1 1 0 1 1 0-2h7a1 1 0 1 1 0 2zM45 51h-7a1 1 0 1 1 0-2h7a1 1 0 1 1 0 2z"/></g><g fill="#C8C6C4"><path d="M57 36h-7a1 1 0 1 1 0-2h7a1 1 0 1 1 0 2zM57 41h-7a1 1 0 1 1 0-2h7a1 1 0 1 1 0 2zM57 46h-7a1 1 0 1 1 0-2h7a1 1 0 1 1 0 2zM57 51h-7a1 1 0 1 1 0-2h7a1 1 0 1 1 0 2z"/></g><path opacity=".64" fill="#605E5C" d="M65.121 26.707L53.293 14.88A2.979 2.979 0 0 0 51.172 14H9c-1.654 0-3 1.346-3 3v38c0 1.654 1.346 3 3 3h54c1.654 0 3-1.346 3-3V28.828c0-.8-.313-1.554-.879-2.12zM52 16.414L63.586 28H53a1 1 0 0 1-1-1V16.414zM63 56H9a1 1 0 0 1-1-1V17a1 1 0 0 1 1-1h41v11c0 1.654 1.346 3 3 3h11v25a1 1 0 0 1-1 1z"/></svg>