<svg xmlns="http://www.w3.org/2000/svg" viewBox="0 0 72 72"><g fill="#FFF"><path d="M19 66h44a1 1 0 0 0 1-1V20H53c-1.654 0-3-1.346-3-3V6H19a1 1 0 0 0-1 1v58a1 1 0 0 0 1 1z"/><path d="M63.586 18L52 6.414V17a1 1 0 0 0 1 1h10.586z"/></g><path opacity=".64" fill="#605E5C" d="M65.121 16.707L53.293 4.879A2.978 2.978 0 0 0 51.172 4H19c-1.654 0-3 1.346-3 3v58c0 1.654 1.346 3 3 3h44c1.654 0 3-1.346 3-3V18.828c0-.8-.313-1.554-.879-2.121zM52 6.414L63.586 18H53a1 1 0 0 1-1-1V6.414zM63 66H19a1 1 0 0 1-1-1V7a1 1 0 0 1 1-1h31v11c0 1.654 1.346 3 3 3h11v45a1 1 0 0 1-1 1z"/><path fill="#185ABD" d="M9 55h25a3 3 0 0 0 3-3V27a3 3 0 0 0-3-3H9a3 3 0 0 0-3 3v25a3 3 0 0 0 3 3z"/><path fill="#FFF" d="M20.514 42.574c.553 1.581.88 2.579.98 2.994h.067c.1-.415.453-1.484 1.061-3.206L26.988 30H31l-7.399 19h-4.297L12 30h4.135l4.379 12.574z"/><g><path fill="#185ABD" d="M51 38.253V32.5h-2v5.748a.752.752 0 0 1-.752.752H43.5v2h8.504c.55 0 .996.446.996.996V47h2v-5a3 3 0 0 0-3-3h-.253a.747.747 0 0 1-.747-.747z"/><circle fill="#2B7CD3" cx="54" cy="51" r="5"/><path fill="#41A5EE" d="M39 35h5v10h-5z"/><path fill="#103F91" d="M43.999 28l6-6 6 6-6 6z"/></g></svg>