<svg xmlns="http://www.w3.org/2000/svg" viewBox="0 0 72 72"><g fill="#FFF"><path d="M19 66h44a1 1 0 0 0 1-1V20H53c-1.654 0-3-1.346-3-3V6H19a1 1 0 0 0-1 1v58a1 1 0 0 0 1 1z"/><path d="M63.586 18L52 6.414V17a1 1 0 0 0 1 1h10.586z"/></g><path opacity=".64" fill="#605E5C" d="M65.121 16.707L53.293 4.879A2.978 2.978 0 0 0 51.172 4H19c-1.654 0-3 1.346-3 3v58c0 1.654 1.346 3 3 3h44c1.654 0 3-1.346 3-3V18.828c0-.8-.313-1.554-.879-2.121zM52 6.414L63.586 18H53a1 1 0 0 1-1-1V6.414zM63 66H19a1 1 0 0 1-1-1V7a1 1 0 0 1 1-1h31v11c0 1.654 1.346 3 3 3h11v45a1 1 0 0 1-1 1z"/><path fill="#C3A9D4" d="M54 34H23v-2h31a1 1 0 1 1 0 2z"/><path fill="none" stroke="#C8C6C4" stroke-width="2" stroke-miterlimit="10" d="M56 37H26v-8h30a2 2 0 0 1 2 2v4a2 2 0 0 1-2 2z"/><path fill="#C3A9D4" d="M54 47H23v-2h31a1 1 0 1 1 0 2z"/><path fill="none" stroke="#C8C6C4" stroke-width="2" stroke-miterlimit="10" d="M56 50H26v-8h30a2 2 0 0 1 2 2v4a2 2 0 0 1-2 2z"/><path fill="#6A3889" d="M9 55h25a3 3 0 0 0 3-3V27a3 3 0 0 0-3-3H9a3 3 0 0 0-3 3v25a3 3 0 0 0 3 3z"/><path fill="#FFF" d="M23.5 49h-4V30h4v19z"/></svg>