<svg xmlns="http://www.w3.org/2000/svg" viewBox="0 0 72 72"><path fill="#FFB900" d="M34 18l-3.243-3.243A6 6 0 0 0 26.515 13H7a3 3 0 0 0-3 3v40a3 3 0 0 0 3 3h58a3 3 0 0 0 3-3V21a3 3 0 0 0-3-3H34z"/><path fill="#FFD75E" d="M34 18l-3.243 3.243A6 6 0 0 1 26.515 23H4v33a3 3 0 0 0 3 3h58a3 3 0 0 0 3-3V21a3 3 0 0 0-3-3H34z"/><linearGradient id="a" gradientUnits="userSpaceOnUse" x1="36" y1="18" x2="36" y2="59"><stop offset="0" stop-color="#fff" stop-opacity="0"/><stop offset=".999" stop-color="#ffd75e" stop-opacity=".3"/></linearGradient><path fill="url(#a)" d="M34 18l-3.243 3.243A6 6 0 0 1 26.515 23H4v33a3 3 0 0 0 3 3h58a3 3 0 0 0 3-3V21a3 3 0 0 0-3-3H34z"/><path fill="#E67628" d="M66 58H6c-.571 0-1.1-.169-1.554-.446A2.988 2.988 0 0 0 7 59h58a2.988 2.988 0 0 0 2.554-1.446A2.972 2.972 0 0 1 66 58z"/><path opacity=".4" fill="#FFF" d="M31.404 22.096L35.5 18H34l-3.243 3.243A6 6 0 0 1 26.515 23H4v1h22.808a6.5 6.5 0 0 0 4.596-1.904z"/><g fill="#BF5712"><path d="M25 37H7a1 1 0 0 0-1 1h1.5a.5.5 0 0 1 .5.5v6a.5.5 0 0 1-.5.5H6a1 1 0 0 0 1 1h18a1 1 0 0 0 1-1v-7a1 1 0 0 0-1-1zm-1 7.5a.5.5 0 0 1-.5.5h-6a.5.5 0 0 1-.5-.5v-6a.5.5 0 0 1 .5-.5h6a.5.5 0 0 1 .5.5v6zM5.5 45H4v-7h1.5a.5.5 0 0 1 .5.5v6a.5.5 0 0 1-.5.5zM28.5 38a.5.5 0 0 0-.5.5v6a.5.5 0 1 0 1 0v-6a.5.5 0 0 0-.5-.5zM31.5 38a.5.5 0 0 0-.5.5v6a.5.5 0 1 0 1 0v-6a.5.5 0 0 0-.5-.5zM34.5 38a.5.5 0 0 0-.5.5v6a.5.5 0 1 0 1 0v-6a.5.5 0 0 0-.5-.5zM37.5 38a.5.5 0 0 0-.5.5v6a.5.5 0 1 0 1 0v-6a.5.5 0 0 0-.5-.5zM40.5 38a.5.5 0 0 0-.5.5v6a.5.5 0 1 0 1 0v-6a.5.5 0 0 0-.5-.5zM43.5 38a.5.5 0 0 0-.5.5v6a.5.5 0 1 0 1 0v-6a.5.5 0 0 0-.5-.5zM46.5 38a.5.5 0 0 0-.5.5v6a.5.5 0 1 0 1 0v-6a.5.5 0 0 0-.5-.5zM49.5 38a.5.5 0 0 0-.5.5v6a.5.5 0 1 0 1 0v-6a.5.5 0 0 0-.5-.5zM52.5 38a.5.5 0 0 0-.5.5v6a.5.5 0 1 0 1 0v-6a.5.5 0 0 0-.5-.5zM55.5 38a.5.5 0 0 0-.5.5v6a.5.5 0 1 0 1 0v-6a.5.5 0 0 0-.5-.5zM58.5 38a.5.5 0 0 0-.5.5v6a.5.5 0 1 0 1 0v-6a.5.5 0 0 0-.5-.5zM61.5 38a.5.5 0 0 0-.5.5v6a.5.5 0 1 0 1 0v-6a.5.5 0 0 0-.5-.5zM64.5 38a.5.5 0 0 0-.5.5v6a.5.5 0 1 0 1 0v-6a.5.5 0 0 0-.5-.5zM67.5 38a.5.5 0 0 0-.5.5v6a.5.5 0 1 0 1 0v-6a.5.5 0 0 0-.5-.5z"/></g></svg>