<svg xmlns="http://www.w3.org/2000/svg" viewBox="0 0 72 72"><path fill="#FFF" d="M64 63V24H8v39a1 1 0 0 0 1 1h54a1 1 0 0 0 1-1zM20 14a1 1 0 0 1-1-1V9a1 1 0 1 1 2 0v4a1 1 0 0 1-1 1z"/><g fill="#FFF"><path d="M52 14a1 1 0 0 0 1-1v-1h-2v1a1 1 0 0 0 1 1zM20 14a1 1 0 0 0 1-1v-1h-2v1a1 1 0 0 0 1 1z"/><path d="M63 12h-8v1c0 1.654-1.346 3-3 3s-3-1.346-3-3v-1H23v1c0 1.654-1.346 3-3 3s-3-1.346-3-3v-1H9a1 1 0 0 0-1 1v9h56v-9a1 1 0 0 0-1-1z"/></g><path fill="#FFF" d="M52 14a1 1 0 0 1-1-1V9a1 1 0 1 1 2 0v4a1 1 0 0 1-1 1z"/><path opacity=".64" fill="#615F5D" d="M63 10h-8V9c0-1.654-1.346-3-3-3s-3 1.346-3 3v1H23V9c0-1.654-1.346-3-3-3s-3 1.346-3 3v1H9c-1.654 0-3 1.346-3 3v50c0 1.654 1.346 3 3 3h54c1.654 0 3-1.346 3-3V13c0-1.654-1.346-3-3-3zM51 9a1 1 0 0 1 2 0v4a1 1 0 0 1-2 0V9zM19 9a1 1 0 0 1 2 0v4a1 1 0 0 1-2 0V9zm45 54a1 1 0 0 1-1 1H9a1 1 0 0 1-1-1V24h56v39zm0-41H8v-9a1 1 0 0 1 1-1h8v1c0 1.654 1.346 3 3 3s3-1.346 3-3v-1h26v1c0 1.654 1.346 3 3 3s3-1.346 3-3v-1h8a1 1 0 0 1 1 1v9z"/><circle fill="#C8C6C4" cx="22.5" cy="35.5" r="1.5"/><circle fill="#C8C6C4" cx="31.5" cy="35.5" r="1.5"/><circle fill="#C8C6C4" cx="40.5" cy="35.5" r="1.5"/><circle fill="#C8C6C4" cx="49.5" cy="35.5" r="1.5"/><circle fill="#C8C6C4" cx="22.5" cy="43.5" r="1.5"/><circle fill="#C8C6C4" cx="31.5" cy="43.5" r="1.5"/><circle fill="#C8C6C4" cx="40.5" cy="43.5" r="1.5"/><circle fill="#C8C6C4" cx="49.5" cy="43.5" r="1.5"/><circle fill="#C8C6C4" cx="22.5" cy="51.5" r="1.5"/><circle fill="#C8C6C4" cx="31.5" cy="51.5" r="1.5"/><circle fill="#C8C6C4" cx="40.5" cy="51.5" r="1.5"/><circle fill="#C8C6C4" cx="49.5" cy="51.5" r="1.5"/></svg>