<svg xmlns="http://www.w3.org/2000/svg" viewBox="0 0 72 72"><path fill="#FFF" d="M64.077 55V17a1 1 0 0 0-1-1h-54a1 1 0 0 0-1 1v38a1 1 0 0 0 1 1h9.929c.002-.123 0-.217-.006-.262-.018-.017-.198-.321-.3-.476a4.116 4.116 0 0 1-.51-3.443c.476-1.66 2.047-2.819 3.822-2.819h.15c1.774 0 3.346 1.16 3.821 2.82a4.112 4.112 0 0 1-.507 3.437c-.181.283-.298.5-.322.563.002.01.006.08.01.18h21.842c.002-.123 0-.217-.006-.262-.018-.017-.197-.321-.299-.476a4.116 4.116 0 0 1-.51-3.443c.475-1.66 2.046-2.819 3.82-2.819h.15c1.775 0 3.347 1.16 3.822 2.82a4.112 4.112 0 0 1-.507 3.437c-.181.283-.298.5-.322.563.002.01.006.08.01.18h9.913a1 1 0 0 0 1-1z"/><circle fill="none" stroke="#69AFE5" stroke-width="2" stroke-miterlimit="10" cx="21.686" cy="30.174" r="5.174"/><path fill="none" stroke="#69AFE5" stroke-width="2" stroke-linecap="round" stroke-linejoin="round" stroke-miterlimit="10" d="M14.294 42s.783-6.652 7.392-6.652c7.39 0 7.39 6.652 7.39 6.652"/><path fill="#C8C6C4" d="M58.077 28h-19a1 1 0 1 1 0-2h19a1 1 0 1 1 0 2zM58.077 35h-19a1 1 0 1 1 0-2h19a1 1 0 1 1 0 2zM53.077 42h-14a1 1 0 1 1 0-2h14a1 1 0 1 1 0 2z"/><circle fill="#C8C6C4" cx="58.077" cy="41" r="1"/><path opacity=".64" fill="#605E5C" d="M63.077 58h-10.5a1.393 1.393 0 0 1-1.38-1.4c-.032-.363-.057-.96.028-1.304.027-.106.095-.384.57-1.123a2.15 2.15 0 0 0 .266-1.802C51.83 51.563 51.05 51 50.161 51h-.15c-.886 0-1.667.564-1.899 1.37a2.143 2.143 0 0 0 .259 1.792c.106.16.478.736.577 1.13.086.347.062.945.027 1.387.003.693-.617 1.321-1.38 1.321H24.579a1.393 1.393 0 0 1-1.382-1.4c-.031-.363-.056-.96.03-1.304.026-.106.094-.384.57-1.123a2.15 2.15 0 0 0 .265-1.802C23.83 51.563 23.05 51 22.161 51h-.15c-.886 0-1.668.564-1.899 1.37a2.143 2.143 0 0 0 .259 1.792c.106.16.478.736.577 1.13.086.347.061.945.027 1.387.003.693-.617 1.321-1.38 1.321H9.078c-1.654 0-3-1.346-3-3V17c0-1.654 1.346-3 3-3h54c1.654 0 3 1.346 3 3v38c0 1.654-1.346 3-3 3zm-16.094-1.478a.701.701 0 0 0-.005.078l.005-.078zm-28 0a.701.701 0 0 0-.005.078l.005-.078zm34.205-.06l.005.06c0-.02 0-.04-.005-.06zm-28 0l.005.06c0-.02 0-.04-.005-.06zM53.164 56h9.913a1 1 0 0 0 1-1V17a1 1 0 0 0-1-1h-54a1 1 0 0 0-1 1v38a1 1 0 0 0 1 1h9.929c.002-.123 0-.217-.006-.262-.018-.017-.198-.321-.3-.476a4.116 4.116 0 0 1-.51-3.443c.476-1.66 2.047-2.819 3.822-2.819h.15c1.774 0 3.346 1.16 3.821 2.82a4.112 4.112 0 0 1-.507 3.437c-.181.283-.298.5-.322.563.002.01.006.08.01.18h21.842c.002-.123 0-.217-.006-.262-.018-.017-.197-.321-.299-.476a4.116 4.116 0 0 1-.51-3.443c.475-1.66 2.046-2.819 3.82-2.819h.15c1.775 0 3.347 1.16 3.822 2.82a4.112 4.112 0 0 1-.507 3.437c-.181.283-.298.5-.322.563.002.01.006.08.01.18z"/></svg>