<svg xmlns="http://www.w3.org/2000/svg" viewBox="0 0 72 72"><g fill="#FFF"><path d="M14 66h44a1 1 0 0 0 1-1V20H48c-1.654 0-3-1.346-3-3V6H14a1 1 0 0 0-1 1v58a1 1 0 0 0 1 1z"/><path d="M58.586 18L47 6.414V17a1 1 0 0 0 1 1h10.586z"/></g><path opacity=".64" fill="#605E5C" d="M60.121 16.707L48.293 4.879A2.978 2.978 0 0 0 46.172 4H14c-1.654 0-3 1.346-3 3v58c0 1.654 1.346 3 3 3h44c1.654 0 3-1.346 3-3V18.828c0-.8-.313-1.554-.879-2.121zM47 6.414L58.586 18H48a1 1 0 0 1-1-1V6.414zM58 66H14a1 1 0 0 1-1-1V7a1 1 0 0 1 1-1h31v11c0 1.654 1.346 3 3 3h11v45a1 1 0 0 1-1 1z"/><path fill="#FFF" stroke="#69AFE5" stroke-width="2" stroke-miterlimit="10" d="M23.918 32H12a2 2 0 0 0-2 2v31a2 2 0 0 0 2 2h48a2 2 0 0 0 2-2V55a2 2 0 0 0-2-2H49.743a2 2 0 0 1-1.306-.485L25.077 32.37a2 2 0 0 0-1.16-.371z"/><path fill="#C8C6C4" d="M25.167 61h-8.334c-.46 0-.833-.448-.833-1s.373-1 .833-1h8.334c.46 0 .833.448.833 1s-.373 1-.833 1zM31 54H17a1 1 0 1 0 0 2h14a1 1 0 0 0 0-2z"/></svg>