<svg xmlns="http://www.w3.org/2000/svg" viewBox="0 0 72 72"><g fill="#FFF"><path d="M61 60c0 1.654-1.346 3-3 3H23v2a1 1 0 0 0 1 1h39a1 1 0 0 0 1-1V11h1c0-1.105-3.896-5-5-5v6h1v48z"/><path d="M19 61h39a1 1 0 0 0 1-1V12H18v48a1 1 0 0 0 1 1z"/></g><path opacity=".64" fill="#605E5C" d="M64 11v54a1 1 0 0 1-1 1H24a1 1 0 0 1-1-1v-2h35c1.654 0 3-1.346 3-3V12h-2v48a1 1 0 0 1-1 1H19a1 1 0 0 1-1-1V12h-2v48c0 1.654 1.346 3 3 3h2v2c0 1.654 1.346 3 3 3h39c1.654 0 3-1.346 3-3V11h-2z"/><path fill="#41A5EE" d="M61 4.186A1.993 1.993 0 0 0 60.172 4H18a2 2 0 0 0-2 2v5l1 1h43l1-1v-1l1-1V7l-1-2.814z"/><path fill="#2B7CD3" d="M16 11h45v2H16zM62.707 9.707L66 13V9.828a2 2 0 0 0-.586-1.414l-3.828-3.828c-.17-.17-.371-.302-.586-.4v6.228c0-.89 1.077-1.337 1.707-.707z"/><path fill="#103F91" d="M54 46H39v2h15a1 1 0 0 0 0-2z"/><path fill="#185ABD" d="M54 41H39v2h15a1 1 0 0 0 0-2z"/><path fill="#2B7CD3" d="M54 36H39v2h15a1 1 0 0 0 0-2z"/><path fill="#41A5EE" d="M54 31H39v2h15a1 1 0 0 0 0-2z"/><g><path fill="#185ABD" d="M8 55h27a2 2 0 0 0 2-2V26a2 2 0 0 0-2-2H8a2 2 0 0 0-2 2v27a2 2 0 0 0 2 2z"/><path fill="#F9F7F7" d="M16.719 43.862c.049.404.081.755.097 1.056h.057a18.5 18.5 0 0 1 .32-2.051L19.843 31h3.428l2.742 11.689c.137.577.251 1.312.343 2.205h.045c.039-.617.134-1.328.286-2.134L28.881 31H32l-3.839 17h-3.645L21.9 36.738c-.076-.324-.162-.747-.257-1.27s-.154-.9-.177-1.137h-.046c-.03.277-.09.688-.177 1.233-.088.546-.158.948-.211 1.21L18.575 48h-3.702L11 31h3.176l2.388 11.891c.053.245.105.569.155.971z"/></g></svg>