<svg xmlns="http://www.w3.org/2000/svg" viewBox="0 0 72 72"><g fill="#FFF"><path d="M8 22h56v-5a1 1 0 0 0-1-1H9a1 1 0 0 0-1 1v5zM9 56h54a1 1 0 0 0 1-1V24H8v31a1 1 0 0 0 1 1z"/></g><circle fill="#C8C6C4" cx="11" cy="19" r="1"/><circle fill="#C8C6C4" cx="15" cy="19" r="1"/><circle fill="#C8C6C4" cx="19" cy="19" r="1"/><path fill="#EDEBE9" d="M24 56H9a1 1 0 0 1-1-1V24h16v32z"/><g fill="#C8C6C4"><path d="M20 35h-8a1 1 0 1 1 0-2h8a1 1 0 1 1 0 2zM20 30h-8a1 1 0 1 1 0-2h8a1 1 0 1 1 0 2zM20 40h-8a1 1 0 1 1 0-2h8a1 1 0 1 1 0 2z"/></g><g fill="#C8C6C4"><path d="M42 35H28a1 1 0 1 1 0-2h14a1 1 0 1 1 0 2zM42 30H28a1 1 0 1 1 0-2h14a1 1 0 1 1 0 2zM42 40H28a1 1 0 1 1 0-2h14a1 1 0 1 1 0 2zM42 45H28a1 1 0 1 1 0-2h14a1 1 0 1 1 0 2zM42 50H28a1 1 0 1 1 0-2h14a1 1 0 1 1 0 2z"/></g><path fill="#69AFE5" d="M59 50H48a2 2 0 0 1-2-2V30a2 2 0 0 1 2-2h11a2 2 0 0 1 2 2v18a2 2 0 0 1-2 2z"/><path opacity=".64" fill="#605E5C" d="M63 14H9c-1.654 0-3 1.346-3 3v38c0 1.654 1.346 3 3 3h54c1.654 0 3-1.346 3-3V17c0-1.654-1.346-3-3-3zM9 16h54a1 1 0 0 1 1 1v5H8v-5a1 1 0 0 1 1-1zm54 40H9a1 1 0 0 1-1-1V24h56v31a1 1 0 0 1-1 1z"/></svg>