<svg xmlns="http://www.w3.org/2000/svg" viewBox="0 0 72 72"><path fill="#FFB900" d="M34 18l-3.243-3.243A6 6 0 0 0 26.515 13H7a3 3 0 0 0-3 3v40a3 3 0 0 0 3 3h58a3 3 0 0 0 3-3V21a3 3 0 0 0-3-3H34z"/><path fill="#FFD75E" d="M34 18l-3.243 3.243A6 6 0 0 1 26.515 23H4v33a3 3 0 0 0 3 3h58a3 3 0 0 0 3-3V21a3 3 0 0 0-3-3H34z"/><linearGradient id="a" gradientUnits="userSpaceOnUse" x1="36" y1="18" x2="36" y2="59"><stop offset="0" stop-color="#fff" stop-opacity="0"/><stop offset=".999" stop-color="#ffd75e" stop-opacity=".3"/></linearGradient><path fill="url(#a)" d="M34 18l-3.243 3.243A6 6 0 0 1 26.515 23H4v33a3 3 0 0 0 3 3h58a3 3 0 0 0 3-3V21a3 3 0 0 0-3-3H34z"/><path fill="#E67628" d="M66 58H6c-.571 0-1.1-.169-1.554-.446A2.988 2.988 0 0 0 7 59h58a2.988 2.988 0 0 0 2.554-1.446A2.973 2.973 0 0 1 66 58z"/><path opacity=".4" fill="#FFF" d="M31.404 22.096L35.5 18H34l-3.243 3.243A6 6 0 0 1 26.515 23H4v1h22.808a6.5 6.5 0 0 0 4.596-1.904z"/><g><path fill="#BF5712" d="M59.847 48.559l1.695 5.427-4.375-3.363-4.375 3.363 1.695-5.427-4.32-3.323h5.36l1.64-5.25 1.64 5.25h5.36l-4.32 3.323zm.034 3.048l-.52-1.685a205.98 205.98 0 0 0-.533-1.685c.469-.35.932-.704 1.388-1.06.455-.355.916-.71 1.38-1.066h-3.431l-.998-3.192-.998 3.192h-3.432c.465.356.925.711 1.381 1.067.455.355.918.709 1.388 1.06-.183.565-.36 1.126-.533 1.684-.174.559-.347 1.12-.52 1.685l2.714-2.091 2.714 2.091z"/></g></svg>