<svg xmlns="http://www.w3.org/2000/svg" viewBox="0 0 72 72"><g fill="#FFF"><path d="M19 66h44a1 1 0 0 0 1-1V20H53c-1.654 0-3-1.346-3-3V6H19a1 1 0 0 0-1 1v58a1 1 0 0 0 1 1z"/><path d="M63.586 18L52 6.414V17a1 1 0 0 0 1 1h10.586z"/></g><path opacity=".64" fill="#605E5C" d="M65.121 16.707L53.293 4.879A2.978 2.978 0 0 0 51.172 4H19c-1.654 0-3 1.346-3 3v58c0 1.654 1.346 3 3 3h44c1.654 0 3-1.346 3-3V18.828c0-.8-.313-1.554-.879-2.121zM52 6.414L63.586 18H53a1 1 0 0 1-1-1V6.414zM63 66H19a1 1 0 0 1-1-1V7a1 1 0 0 1 1-1h31v11c0 1.654 1.346 3 3 3h11v45a1 1 0 0 1-1 1z"/><path fill="#038387" d="M9 55h25a3 3 0 0 0 3-3V27a3 3 0 0 0-3-3H9a3 3 0 0 0-3 3v25a3 3 0 0 0 3 3z"/><path fill="#FFF" d="M28 33h-8v5h7v3h-7v8h-4V30h12v3z"/><path fill="#1A9BA1" d="M56 26H39v2h17a1 1 0 0 1 1 1v1a1 1 0 0 1-1 1H39v2h17a3 3 0 0 0 3-3v-1a3 3 0 0 0-3-3z"/><path fill="#038387" d="M56 36H39v2h17a1 1 0 0 1 1 1v1a1 1 0 0 1-1 1H39v2h17a3 3 0 0 0 3-3v-1a3 3 0 0 0-3-3z"/><path fill="#036C70" d="M56 46H39v2h17a1 1 0 0 1 1 1v1a1 1 0 0 1-1 1H39v2h17a3 3 0 0 0 3-3v-1a3 3 0 0 0-3-3z"/></svg>