<svg xmlns="http://www.w3.org/2000/svg" viewBox="0 0 72 72"><path fill="#FFB900" d="M34 18l-3.243-3.243A6 6 0 0 0 26.515 13H7a3 3 0 0 0-3 3v40a3 3 0 0 0 3 3h58a3 3 0 0 0 3-3V21a3 3 0 0 0-3-3H34z"/><path fill="#FFD75E" d="M34 18l-3.243 3.243A6 6 0 0 1 26.515 23H4v33a3 3 0 0 0 3 3h58a3 3 0 0 0 3-3V21a3 3 0 0 0-3-3H34z"/><linearGradient id="a" gradientUnits="userSpaceOnUse" x1="36" y1="18" x2="36" y2="59"><stop offset="0" stop-color="#fff" stop-opacity="0"/><stop offset=".999" stop-color="#ffd75e" stop-opacity=".3"/></linearGradient><path fill="url(#a)" d="M34 18l-3.243 3.243A6 6 0 0 1 26.515 23H4v33a3 3 0 0 0 3 3h58a3 3 0 0 0 3-3V21a3 3 0 0 0-3-3H34z"/><path fill="#E67628" d="M66 58H6c-.571 0-1.1-.169-1.554-.446A2.988 2.988 0 0 0 7 59h58a2.988 2.988 0 0 0 2.554-1.446A2.973 2.973 0 0 1 66 58z"/><path opacity=".4" fill="#FFF" d="M31.404 22.096L35.5 18H34l-3.243 3.243A6 6 0 0 1 26.515 23H4v1h22.808a6.5 6.5 0 0 0 4.596-1.904z"/><g><path fill="#BF5712" d="M54.542 49.98v-.992c.356 0 1.467-.045 1.793-.135.327-.09.614-.235.863-.433.25-.2.447-.455.595-.768.148-.312.222-.692.222-1.142 0-.34-.06-.66-.18-.96s-.281-.562-.485-.785a2.334 2.334 0 0 0-.715-.535 1.995 1.995 0 0 0-.874-.197h-3.606c-.31 0-.6.066-.873.197-.272.132-.51.31-.715.535a2.56 2.56 0 0 0-.486.785c-.12.3-.18.62-.18.96 0 .45.075.83.222 1.142.148.313.347.568.596.768.249.198.536.342.862.433.327.09.668.135 1.025.135v.991h-.45a2.82 2.82 0 0 1-1.23-.274 3.23 3.23 0 0 1-1-.743A3.642 3.642 0 0 1 49 46.51a3.644 3.644 0 0 1 .926-2.452 3.23 3.23 0 0 1 1-.743 2.82 2.82 0 0 1 1.23-.274h3.605c.437 0 .846.091 1.23.274a3.23 3.23 0 0 1 1 .743 3.644 3.644 0 0 1 .926 2.451 3.644 3.644 0 0 1-.927 2.452 3.23 3.23 0 0 1-1 .743 2.82 2.82 0 0 1-1.229.274h-1.22zm4.83-3.96v.986c.358 0 .702.045 1.03.134.329.09.618.234.869.431.25.198.45.452.599.763.148.31.223.688.223 1.135 0 .338-.06.656-.18.954s-.284.558-.49.78c-.205.225-.445.4-.72.533-.273.13-.566.195-.878.195h-3.629c-.312 0-.605-.066-.879-.195a2.344 2.344 0 0 1-.72-.532 2.54 2.54 0 0 1-.669-1.735c0-.447.075-.825.223-1.135.15-.311.349-.565.6-.763.25-.197.539-.34.868-.431.328-.09 1.356-.134 1.714-.134v-.985h-1.137c-.44 0-.852.091-1.237.273-.385.182-.72.428-1.006.738a3.582 3.582 0 0 0-.932 2.436 3.582 3.582 0 0 0 .932 2.437c.286.31.621.556 1.006.739.385.181.797.273 1.237.273h3.629c.44 0 .851-.092 1.237-.273.385-.183.72-.429 1.006-.739A3.58 3.58 0 0 0 63 49.47a3.582 3.582 0 0 0-.932-2.437 3.246 3.246 0 0 0-1.006-.738 2.867 2.867 0 0 0-1.237-.273h-.454z"/></g></svg>