<svg xmlns="http://www.w3.org/2000/svg" viewBox="0 0 72 72"><g fill="#FFF"><path d="M8 22h56v-5a1 1 0 0 0-1-1H9a1 1 0 0 0-1 1v5zM9 56h54a1 1 0 0 0 1-1V24H8v31a1 1 0 0 0 1 1z"/></g><path opacity=".64" fill="#605E5C" d="M63 14H9c-1.654 0-3 1.346-3 3v38c0 1.654 1.346 3 3 3h54c1.654 0 3-1.346 3-3V17c0-1.654-1.346-3-3-3zM9 16h54a1 1 0 0 1 1 1v5H8v-5a1 1 0 0 1 1-1zm54 40H9a1 1 0 0 1-1-1V24h56v31a1 1 0 0 1-1 1z"/><circle fill="#C8C6C4" cx="11" cy="19" r="1"/><circle fill="#C8C6C4" cx="15" cy="19" r="1"/><circle fill="#C8C6C4" cx="19" cy="19" r="1"/><g fill="none" stroke="#69AFE5" stroke-width="2" stroke-miterlimit="10"><circle cx="36" cy="40" r="11"/><ellipse cx="36" cy="40" rx="5" ry="11"/><path d="M26 35h20M26 45h20"/></g></svg>