<svg xmlns="http://www.w3.org/2000/svg" viewBox="0 0 72 72"><g fill="#FFF"><path d="M61 60c0 1.654-1.346 3-3 3H23v2a1 1 0 0 0 1 1h39a1 1 0 0 0 1-1V11h1c0-1.105-3.896-5-5-5v6h1v48z"/><path d="M19 61h39a1 1 0 0 0 1-1V12H18v48a1 1 0 0 0 1 1z"/></g><path opacity=".64" fill="#605E5C" d="M64 11v54a1 1 0 0 1-1 1H24a1 1 0 0 1-1-1v-2h35c1.654 0 3-1.346 3-3V12h-2v48a1 1 0 0 1-1 1H19a1 1 0 0 1-1-1V12h-2v48c0 1.654 1.346 3 3 3h2v2c0 1.654 1.346 3 3 3h39c1.654 0 3-1.346 3-3V11h-2z"/><path fill="#31752F" d="M60.172 4H18a2 2 0 0 0-2 2v7h45v-2.586c0-.89 1.077-1.337 1.707-.707L66 13V9.828a2 2 0 0 0-.586-1.414l-3.828-3.828A2 2 0 0 0 60.172 4z"/><path fill="none" stroke="#C8C6C4" stroke-width="2" stroke-miterlimit="10" d="M51 53H31V26h20a2 2 0 0 1 2 2v23a2 2 0 0 1-2 2z"/><path fill="#8BBF8A" d="M48 35H32v-5h16a1 1 0 0 1 1 1v3a1 1 0 0 1-1 1zM48 42H32v-5h16a1 1 0 0 1 1 1v3a1 1 0 0 1-1 1zM41 44h11v5H41a1 1 0 0 1-1-1v-3a1 1 0 0 1 1-1z"/><path fill="#31752F" d="M9 55h25a3 3 0 0 0 3-3V27a3 3 0 0 0-3-3H9a3 3 0 0 0-3 3v25a3 3 0 0 0 3 3z"/><path fill="#F9F7F7" d="M22.26 30c2.18 0 3.847.497 5.004 1.49C28.421 32.48 29 33.917 29 35.8c0 1.207-.286 2.282-.859 3.222-.572.941-1.385 1.672-2.441 2.195-1.055.521-2.278.783-3.668.783h-3.103v7H15V30h7.26zm-3.33 9h2.922c1.14 0 2-.262 2.583-.784.582-.523.873-1.286.873-2.29 0-1.951-1.116-2.926-3.347-2.926h-3.032v6z"/></svg>