<svg xmlns="http://www.w3.org/2000/svg" viewBox="0 0 72 72"><path opacity=".64" fill="#605E5C" d="M58 68H19c-1.654 0-3-1.346-3-3V7c0-1.654 1.346-3 3-3h39c1.654 0 3 1.346 3 3v1.002L63 8c1.654 0 3 1.346 3 3v9c0 1.654-1.346 3-3 3h-2v42c0 1.654-1.346 3-3 3zM19 6a1 1 0 0 0-1 1v58a1 1 0 0 0 1 1h39a1 1 0 0 0 1-1V23c0-1.103.897-2 2-2h2a1 1 0 0 0 1-1v-9a1 1 0 0 0-1-1h-2c-1.103 0-2-.897-2-2V7a1 1 0 0 0-1-1H19z"/><path fill="#FFF" d="M63 21a1 1 0 0 0 1-1v-9a1 1 0 0 0-1-1h-2c-1.103 0-2-.897-2-2V7a1 1 0 0 0-1-1H19a1 1 0 0 0-1 1v58a1 1 0 0 0 1 1h39a1 1 0 0 0 1-1V23c0-1.103.897-2 2-2h2z"/><path fill="#7719AA" d="M9 55h25a3 3 0 0 0 3-3V27a3 3 0 0 0-3-3H9a3 3 0 0 0-3 3v25a3 3 0 0 0 3 3z"/><path fill="#F9F7F7" d="M13 30h4s9.809 14.655 10 15l.019-15H30v19h-3.94L16 34.702V49h-3V30z"/></svg>