<svg xmlns="http://www.w3.org/2000/svg" viewBox="0 0 72 72"><path opacity=".64" fill="#605E5C" d="M63 11H19c-1.654 0-3 1.276-3 2.846v44.308C16 59.724 17.346 61 19 61h44c1.654 0 3-1.276 3-2.846V13.846C66 12.276 64.654 11 63 11zm-44 2h44c.552 0 1 .379 1 .846V19H18v-5.154c0-.467.448-.846 1-.846zm44 46H19c-.552 0-1-.379-1-.846V21h46v37.154c0 .467-.448.846-1 .846z"/><g fill="#FFF"><path d="M18 19h46v-5.154c0-.467-.448-.846-1-.846H19c-.552 0-1 .379-1 .846V19zM19 59h44c.552 0 1-.379 1-.846V21H18v37.154c0 .467.448.846 1 .846z"/></g><path fill="#C8C6C4" d="M58 53H34v-2h24a1 1 0 1 1 0 2zM58 48H34v-2h24a1 1 0 1 1 0 2z"/><g fill="#C8C6C4"><circle cx="21" cy="16" r="1"/><circle cx="25" cy="16" r="1"/><circle cx="29" cy="16" r="1"/></g><g fill="none" stroke="#C8C6C4" stroke-width="2" stroke-miterlimit="10"><path d="M38.971 37.34L44 31M47.534 30.68l4.549 5.504"/><circle cx="36.611" cy="39.651" r="3.349"/><circle cx="54.651" cy="38.66" r="3.349"/><circle cx="46.271" cy="28.745" r="3.349"/></g><path fill="#F2C80F" d="M9 55h25a3 3 0 0 0 3-3V27a3 3 0 0 0-3-3H9a3 3 0 0 0-3 3v25a3 3 0 0 0 3 3z"/><path fill="#333" d="M29 48c-.55 0-1-.45-1-1V32c0-.55.45-1 1-1s1 .45 1 1v15c0 .55-.45 1-1 1zM24 48c-.55 0-1-.45-1-1v-9c0-.55.45-1 1-1s1 .45 1 1v9c0 .55-.45 1-1 1zM19 48c-.55 0-1-.45-1-1V35c0-.55.45-1 1-1s1 .45 1 1v12c0 .55-.45 1-1 1zM14 48c-.55 0-1-.45-1-1v-4c0-.55.45-1 1-1s1 .45 1 1v4c0 .55-.45 1-1 1z"/></svg>