<svg xmlns="http://www.w3.org/2000/svg" viewBox="0 0 72 72"><path fill="#FFF" d="M14 66h44a1 1 0 0 0 1-1V20H48c-1.654 0-3-1.346-3-3V6H14a1 1 0 0 0-1 1v58a1 1 0 0 0 1 1z"/><path fill="#FFF" d="M58.586 18L47 6.414V17a1 1 0 0 0 1 1h10.586z"/><path opacity=".64" fill="#605E5C" d="M60.121 16.707L48.293 4.879A2.978 2.978 0 0 0 46.172 4H14c-1.654 0-3 1.346-3 3v58c0 1.654 1.346 3 3 3h44c1.654 0 3-1.346 3-3V18.828c0-.8-.313-1.554-.879-2.121zM47 6.414L58.586 18H48a1 1 0 0 1-1-1V6.414zM58 66H14a1 1 0 0 1-1-1V7a1 1 0 0 1 1-1h31v11c0 1.654 1.346 3 3 3h11v45a1 1 0 0 1-1 1z"/><path fill="#C8C6C4" d="M53 28H19a1 1 0 1 1 0-2h34a1 1 0 1 1 0 2zM53 33H19a1 1 0 1 1 0-2h34a1 1 0 1 1 0 2zM53 38H19a1 1 0 1 1 0-2h34a1 1 0 1 1 0 2zM53 43H19a1 1 0 1 1 0-2h34a1 1 0 1 1 0 2z"/><path fill="#D65532" d="M49.286 48l10.72.03A2 2 0 0 1 62 50.036l-.025 8.97A2 2 0 0 1 59.97 61l-10.72-.03a.25.25 0 0 1-.25-.25l.035-12.47a.25.25 0 0 1 .25-.25zM22 60.75a.25.25 0 0 1-.25.25L10.5 60.967c-.846-.002-1.503-.688-1.501-1.533v-9.91A1.531 1.531 0 0 1 10.537 48l11.214.03a.25.25 0 0 1 .249.25v12.47z"/><path fill="none" stroke="#D65532" stroke-width="2" stroke-linecap="round" stroke-linejoin="round" stroke-miterlimit="10" d="M43 62H28a2 2 0 0 1-2-2V49a2 2 0 0 1 2-2h15a2 2 0 0 1 2 2v11a2 2 0 0 1-2 2z"/></svg>