<svg xmlns="http://www.w3.org/2000/svg" viewBox="0 0 72 72"><path fill="#FFF" d="M10.118 57.722c4.819-1.33 13.79-3.806 25.282-3.806 12.411 0 22.223 2.659 26.938 3.937l.419.113a.946.946 0 0 0 .83-.166c.263-.201.413-.514.413-.859V15.06c0-.343-.15-.655-.41-.857a.94.94 0 0 0-.819-.171l-.75.196c-4.79 1.252-14.758 3.857-26.278 3.857-11.854 0-21.384-2.606-25.963-3.858l-.539-.147a.933.933 0 0 0-.827.164 1.071 1.071 0 0 0-.414.86v41.835c0 .345.151.659.414.86.14.107.434.27.828.165l.876-.241z"/><circle fill="none" stroke="#FF9810" stroke-width="2" stroke-miterlimit="10" cx="55.5" cy="26.5" r="3.5"/><path fill="#A6CCC3" d="M64 49.415L52.253 37.687c-1.355-1.423-3.535-1.51-4.983-.215l-8.635 7.737a3.264 3.264 0 0 1-4.58-.193L21.759 31.97a3.533 3.533 0 0 0-2.587-1.12h-.01c-.986 0-1.903.392-2.583 1.106L8 41.353v-2.966l7.116-7.795a5.528 5.528 0 0 1 4.046-1.743h.016a5.513 5.513 0 0 1 4.036 1.75L35.51 43.643c.481.51 1.267.545 1.79.076l8.636-7.737a5.542 5.542 0 0 1 7.747.306L64 46.589v2.826z"/><path fill="#605E5C" d="M63.01 60c-.257 0-.518-.034-.775-.103l-.42-.114c-4.631-1.255-14.27-3.866-26.415-3.866-11.222 0-20.022 2.428-24.75 3.732l-.882.243a2.93 2.93 0 0 1-2.568-.505A3.054 3.054 0 0 1 6 56.938V15.103c0-.974.438-1.867 1.2-2.45a2.927 2.927 0 0 1 2.567-.504l.54.148c4.496 1.229 13.85 3.786 25.436 3.786 11.262 0 21.063-2.56 25.772-3.792l.755-.196a2.927 2.927 0 0 1 2.543.526A3.058 3.058 0 0 1 66 15.059v41.882c0 .973-.436 1.865-1.198 2.447A2.937 2.937 0 0 1 63.01 60zM35.4 53.916c12.411 0 22.223 2.659 26.938 3.937l.419.113a.946.946 0 0 0 .83-.166c.263-.201.413-.514.413-.859V15.06c0-.343-.15-.655-.41-.857a.94.94 0 0 0-.819-.171l-.75.196c-4.79 1.252-14.758 3.857-26.278 3.857-11.854 0-21.384-2.606-25.963-3.858l-.539-.147a.933.933 0 0 0-.827.164 1.071 1.071 0 0 0-.414.86v41.835c0 .345.151.659.414.86.14.107.434.27.828.165l.876-.241c4.819-1.33 13.79-3.806 25.282-3.806z" opacity=".64"/></svg>