<svg xmlns="http://www.w3.org/2000/svg" viewBox="0 0 72 72"><path fill="#FFF" d="M9 64h54a1 1 0 0 0 1-1V9a1 1 0 0 0-1-1H9a1 1 0 0 0-1 1v54a1 1 0 0 0 1 1z"/><path fill="#A6CCC3" d="M51.023 51H20.977c-1.149 0-2.18-.64-2.689-1.671a2.982 2.982 0 0 1 .308-3.152l9.725-12.71a2.978 2.978 0 0 1 2.383-1.176h.001c.941 0 1.81.43 2.38 1.177l5.499 7.184 2.986-4.143a2.967 2.967 0 0 1 2.433-1.246c.976 0 1.864.454 2.434 1.245l7.019 9.738a2.99 2.99 0 0 1 .236 3.121A2.987 2.987 0 0 1 51.022 51zM30.704 34.29a.994.994 0 0 0-.795.393l-9.725 12.71a.98.98 0 0 0-.102 1.05.98.98 0 0 0 .895.557h30.045c.383 0 .715-.203.89-.544s.144-.73-.08-1.041l-7.017-9.737a.99.99 0 0 0-.811-.415.988.988 0 0 0-.81.415l-2.987 4.143a1.984 1.984 0 0 1-1.596.83 1.948 1.948 0 0 1-1.616-.784l-5.497-7.184a.993.993 0 0 0-.794-.392z"/><path fill="#FF9810" d="M49 31c-2.757 0-5-2.243-5-5s2.243-5 5-5 5 2.243 5 5-2.243 5-5 5zm0-8c-1.654 0-3 1.346-3 3s1.346 3 3 3 3-1.346 3-3-1.346-3-3-3z"/><path opacity=".64" fill="#605E5C" d="M63 66H9c-1.654 0-3-1.346-3-3V9c0-1.654 1.346-3 3-3h54c1.654 0 3 1.346 3 3v54c0 1.654-1.346 3-3 3zM9 8a1 1 0 0 0-1 1v54a1 1 0 0 0 1 1h54a1 1 0 0 0 1-1V9a1 1 0 0 0-1-1H9z"/></svg>