<svg xmlns="http://www.w3.org/2000/svg" viewBox="0 0 72 72"><g fill="#FFF"><path d="M19 66h44a1 1 0 0 0 1-1V20H53c-1.654 0-3-1.346-3-3V6H19a1 1 0 0 0-1 1v58a1 1 0 0 0 1 1z"/><path d="M63.586 18L52 6.414V17a1 1 0 0 0 1 1h10.586z"/></g><path opacity=".64" fill="#605E5C" d="M65.121 16.707L53.293 4.879A2.978 2.978 0 0 0 51.172 4H19c-1.654 0-3 1.346-3 3v58c0 1.654 1.346 3 3 3h44c1.654 0 3-1.346 3-3V18.828c0-.8-.313-1.554-.879-2.121zM52 6.414L63.586 18H53a1 1 0 0 1-1-1V6.414zM63 66H19a1 1 0 0 1-1-1V7a1 1 0 0 1 1-1h31v11c0 1.654 1.346 3 3 3h11v45a1 1 0 0 1-1 1z"/><path fill="#C8C6C4" d="M58 56H24a1 1 0 0 0 0 2h34a1 1 0 0 0 0-2z"/><path fill="none" stroke="#C8C6C4" stroke-width="2" stroke-miterlimit="10" d="M38.971 40.34l3.806-6.661M47.534 33.679l4.549 5.505"/><circle fill="none" stroke="#C8C6C4" stroke-width="2" stroke-miterlimit="10" cx="36.611" cy="43.651" r="3.349"/><circle fill="none" stroke="#C8C6C4" stroke-width="2" stroke-miterlimit="10" cx="54.651" cy="41.66" r="3.349"/><circle fill="none" stroke="#C8C6C4" stroke-width="2" stroke-miterlimit="10" cx="45.271" cy="30.745" r="3.349"/><path fill="#C8C6C4" d="M58 52H24a1 1 0 0 0 0 2h34a1 1 0 0 0 0-2z"/><path fill="#F2C80F" d="M9 55h25a3 3 0 0 0 3-3V27a3 3 0 0 0-3-3H9a3 3 0 0 0-3 3v25a3 3 0 0 0 3 3z"/><path fill="#333" d="M29 48c-.55 0-1-.45-1-1V32c0-.55.45-1 1-1s1 .45 1 1v15c0 .55-.45 1-1 1zM24 48c-.55 0-1-.45-1-1v-9c0-.55.45-1 1-1s1 .45 1 1v9c0 .55-.45 1-1 1zM19 48c-.55 0-1-.45-1-1V35c0-.55.45-1 1-1s1 .45 1 1v12c0 .55-.45 1-1 1zM14 48c-.55 0-1-.45-1-1v-4c0-.55.45-1 1-1s1 .45 1 1v4c0 .55-.45 1-1 1z"/></svg>