<svg xmlns="http://www.w3.org/2000/svg" viewBox="0 0 72 72"><g fill="#FFF"><path d="M9 56h54a1 1 0 0 0 1-1V30H53c-1.654 0-3-1.346-3-3V16H9a1 1 0 0 0-1 1v38a1 1 0 0 0 1 1z"/><path d="M63.586 28L52 16.414V27a1 1 0 0 0 1 1h10.586z"/></g><path opacity=".64" fill="#605E5C" d="M65.121 26.707L53.293 14.88A2.979 2.979 0 0 0 51.172 14H9c-1.654 0-3 1.346-3 3v38c0 1.654 1.346 3 3 3h54c1.654 0 3-1.346 3-3V28.828c0-.8-.313-1.554-.879-2.12zM52 16.414L63.586 28H53a1 1 0 0 1-1-1V16.414zM63 56H9a1 1 0 0 1-1-1V17a1 1 0 0 1 1-1h41v11c0 1.654 1.346 3 3 3h11v25a1 1 0 0 1-1 1z"/><g fill="#C8C6C4"><path d="M26 31H14a1 1 0 1 1 0-2h12a1 1 0 1 1 0 2zM26 26H14a1 1 0 1 1 0-2h12a1 1 0 1 1 0 2zM26 36H14a1 1 0 1 1 0-2h12a1 1 0 1 1 0 2zM26 41H14a1 1 0 1 1 0-2h12a1 1 0 1 1 0 2zM26 46H14a1 1 0 1 1 0-2h12a1 1 0 1 1 0 2zM26 51H14a1 1 0 1 1 0-2h12a1 1 0 1 1 0 2z"/></g><path fill="#B7472A" d="M42 27a9 9 0 0 1 9 9h-9v-9z"/><path fill="#C8C6C4" d="M51 38c0 6.488-5.616 11.664-12.252 10.93-5.032-.555-9.123-4.646-9.679-9.678C28.336 32.616 33.512 27 40 27v11h11z"/></svg>