<svg xmlns="http://www.w3.org/2000/svg" viewBox="0 0 72 72"><path fill="#FFB900" d="M34 18l-3.243-3.243A6 6 0 0 0 26.515 13H7a3 3 0 0 0-3 3v40a3 3 0 0 0 3 3h58a3 3 0 0 0 3-3V21a3 3 0 0 0-3-3H34z"/><path fill="#FFD75E" d="M34 18l-3.243 3.243A6 6 0 0 1 26.515 23H4v33a3 3 0 0 0 3 3h58a3 3 0 0 0 3-3V21a3 3 0 0 0-3-3H34z"/><linearGradient id="a" gradientUnits="userSpaceOnUse" x1="36" y1="18" x2="36" y2="59"><stop offset="0" stop-color="#fff" stop-opacity="0"/><stop offset=".999" stop-color="#ffd75e" stop-opacity=".3"/></linearGradient><path fill="url(#a)" d="M34 18l-3.243 3.243A6 6 0 0 1 26.515 23H4v33a3 3 0 0 0 3 3h58a3 3 0 0 0 3-3V21a3 3 0 0 0-3-3H34z"/><path fill="#E67628" d="M66 58H6c-.571 0-1.1-.169-1.554-.446A2.988 2.988 0 0 0 7 59h58a2.988 2.988 0 0 0 2.554-1.446A2.973 2.973 0 0 1 66 58z"/><path opacity=".4" fill="#FFF" d="M31.404 22.096L35.5 18H34l-3.243 3.243A6 6 0 0 1 26.515 23H4v1h22.808a6.5 6.5 0 0 0 4.596-1.904z"/><g><path fill="#BF5712" d="M60.586 46.06a3.033 3.033 0 0 1 1.664 2.69h-.75c0-.309-.06-.6-.179-.873s-.28-.512-.483-.715-.442-.364-.715-.483-.564-.179-.873-.179-.6.06-.873.179-.512.28-.715.483-.364.442-.483.715-.179.564-.179.873c0 .355-.081.693-.243 1.014s-.386.586-.671.797a3.033 3.033 0 0 1 1.664 2.689H57c0-.309-.06-.6-.179-.873s-.28-.512-.483-.715-.442-.364-.715-.483S55.06 51 54.75 51s-.6.06-.873.179-.512.28-.715.483-.364.442-.483.715-.179.564-.179.873h-.75c0-.285.04-.561.117-.83s.19-.517.334-.75.32-.442.525-.632.434-.348.688-.477c-.285-.211-.509-.477-.67-.797a2.228 2.228 0 0 1-.065-1.887c.119-.273.28-.512.483-.715s.442-.364.715-.483.564-.179.873-.179c.355 0 .693.081 1.014.243s.586.386.797.671a3.056 3.056 0 0 1 1.353-1.353c-.285-.211-.509-.477-.67-.797a2.228 2.228 0 0 1-.065-1.887c.119-.273.28-.512.483-.715s.442-.364.715-.483.564-.179.873-.179.6.06.873.179.512.28.715.483.364.442.483.715.179.564.179.873c0 .355-.081.693-.243 1.014s-.386.586-.671.796zm-5.836 4.19c.203 0 .397-.04.58-.12s.343-.188.478-.322.242-.293.322-.475.12-.376.12-.583c0-.203-.04-.397-.12-.58s-.188-.343-.322-.478-.294-.242-.478-.322-.377-.12-.58-.12c-.207 0-.401.04-.583.12s-.34.188-.475.322-.242.294-.322.478-.12.377-.12.58c0 .207.04.401.12.583s.188.34.322.475.293.242.475.322.376.12.583.12zm3-6c0 .207.04.401.12.583s.188.34.322.475.293.242.475.322.376.12.583.12c.203 0 .397-.04.58-.12s.343-.188.478-.322.242-.293.322-.475.12-.376.12-.583c0-.203-.04-.397-.12-.58s-.188-.343-.322-.478-.294-.242-.478-.322-.377-.12-.58-.12c-.207 0-.401.04-.583.12s-.34.188-.475.322-.242.294-.322.478-.12.377-.12.58z"/></g></svg>