<svg xmlns="http://www.w3.org/2000/svg" viewBox="0 0 72 72"><path opacity=".64" fill="#605E5C" d="M63 11H19c-1.654 0-3 1.276-3 2.846v44.308C16 59.724 17.346 61 19 61h44c1.654 0 3-1.276 3-2.846V13.846C66 12.276 64.654 11 63 11zm-44 2h44c.552 0 1 .379 1 .846V19H18v-5.154c0-.467.448-.846 1-.846zm44 46H19c-.552 0-1-.379-1-.846V21h46v37.154c0 .467-.448.846-1 .846z"/><g fill="#FFF"><path d="M18 19h46v-5.154c0-.467-.448-.846-1-.846H19c-.552 0-1 .379-1 .846V19zM19 59h44c.552 0 1-.379 1-.846V21H18v37.154c0 .467.448.846 1 .846z"/></g><path fill="#81C8C3" d="M34 41h23a2 2 0 0 0 2-2V28.4a2 2 0 0 0-2-2H34a2 2 0 0 0-2 2V39a2 2 0 0 0 2 2z"/><path fill="#C8C6C4" d="M58 51H34v-2h24a1 1 0 1 1 0 2zM58 46H34v-2h24a1 1 0 1 1 0 2z"/><path fill="#03787C" d="M9 55h25a3 3 0 0 0 3-3V27a3 3 0 0 0-3-3H9a3 3 0 0 0-3 3v25a3 3 0 0 0 3 3z"/><path fill="#FFF" d="M16.258 39.167c-.728-.465-1.286-1.016-1.675-1.653-.39-.636-.583-1.39-.583-2.261 0-1.161.361-2.137 1.084-2.928.723-.79 1.683-1.375 2.883-1.755 1.198-.38 2.511-.57 3.939-.57 2.187 0 3.916.227 5.188.679v3.42c-.678-.392-1.46-.691-2.347-.896a12.165 12.165 0 0 0-2.745-.307c-1.135 0-2.075.185-2.82.557-.747.371-1.12.899-1.12 1.582 0 .428.158.8.474 1.121.316.32.741.605 1.277.852.535.248 1.333.577 2.395.987.182.06.297.102.343.128 1.253.479 2.26.941 3.02 1.39.759.448 1.353 1.008 1.784 1.678.43.671.645 1.514.645 2.53 0 1.248-.339 2.264-1.016 3.05s-1.583 1.354-2.717 1.704c-1.135.35-2.425.525-3.87.525-1.236 0-2.405-.09-3.508-.27-1.103-.178-2.052-.435-2.848-.768V44.35c.777.538 1.738.966 2.883 1.282 1.143.316 2.2.473 3.17.473 1.272 0 2.23-.19 2.876-.57.645-.38.967-.916.967-1.608 0-.469-.18-.879-.542-1.23-.362-.35-.86-.674-1.496-.973-.636-.299-1.577-.692-2.82-1.179-1.154-.452-2.094-.911-2.821-1.377z"/><g fill="#C8C6C4"><circle cx="21" cy="16" r="1"/><circle cx="25" cy="16" r="1"/><circle cx="29" cy="16" r="1"/></g></svg>