<svg xmlns="http://www.w3.org/2000/svg" viewBox="0 0 72 72"><path fill="#FFF" d="M9 64h54a1 1 0 0 0 1-1V9a1 1 0 0 0-1-1H9a1 1 0 0 0-1 1v54a1 1 0 0 0 1 1z"/><path opacity=".64" fill="#605E5C" d="M63 66H9c-1.654 0-3-1.346-3-3V9c0-1.654 1.346-3 3-3h54c1.654 0 3 1.346 3 3v54c0 1.654-1.346 3-3 3zM9 8a1 1 0 0 0-1 1v54a1 1 0 0 0 1 1h54a1 1 0 0 0 1-1V9a1 1 0 0 0-1-1H9z"/><path fill="none" d="M6 6h60v60H6z"/><g fill-rule="evenodd" clip-rule="evenodd"><path fill="#BC1948" d="M28 36v11.508c0 1.18 1.37 1.892 2.407 1.25l19.001-11.74c.391-.241.588-.629.592-1.018H28z"/><path fill="#E8467C" d="M28 36V24.492c0-1.18 1.37-1.892 2.407-1.25l19.001 11.74c.391.241.588.629.592 1.018H28z"/><path fill="#8C193F" d="M24.328 28.385l9.748 6.87c.496.35.496 1.14 0 1.49l-9.748 6.87c-.543.382-1.259-.042-1.259-.746V29.131c0-.704.716-1.128 1.259-.746"/></g></svg>