<svg xmlns="http://www.w3.org/2000/svg" viewBox="0 0 72 72"><g fill="#FFF"><path d="M14 66h44a1 1 0 0 0 1-1V20H48c-1.654 0-3-1.346-3-3V6H14a1 1 0 0 0-1 1v58a1 1 0 0 0 1 1z"/><path d="M58.586 18L47 6.414V17a1 1 0 0 0 1 1h10.586z"/></g><path opacity=".64" fill="#605E5C" d="M60.121 16.707L48.293 4.879A2.978 2.978 0 0 0 46.172 4H14c-1.654 0-3 1.346-3 3v58c0 1.654 1.346 3 3 3h44c1.654 0 3-1.346 3-3V18.828c0-.8-.313-1.554-.879-2.121zM47 6.414L58.586 18H48a1 1 0 0 1-1-1V6.414zM58 66H14a1 1 0 0 1-1-1V7a1 1 0 0 1 1-1h31v11c0 1.654 1.346 3 3 3h11v45a1 1 0 0 1-1 1z"/><circle fill="none" stroke="#B4B0AD" stroke-width="2" stroke-linecap="round" stroke-linejoin="round" stroke-miterlimit="10" cx="36" cy="40" r="5"/><path fill="none" stroke="#B4B0AD" stroke-width="2" stroke-linecap="round" stroke-linejoin="bevel" stroke-miterlimit="10" d="M49.24 37.603l-2.936-.244a.205.205 0 0 1-.18-.152 10.431 10.431 0 0 0-.993-2.389.205.205 0 0 1 .021-.235l1.904-2.25a.83.83 0 0 0-.046-1.122l-2.22-2.22a.83.83 0 0 0-1.123-.047l-2.25 1.904a.205.205 0 0 1-.235.02 10.432 10.432 0 0 0-2.39-.992.202.202 0 0 1-.15-.179l-.246-2.939A.827.827 0 0 0 37.57 26h-3.14a.83.83 0 0 0-.827.76l-.244 2.935a.205.205 0 0 1-.152.181c-.844.233-1.644.57-2.39.993a.205.205 0 0 1-.234-.021l-2.25-1.904a.83.83 0 0 0-1.122.047l-2.22 2.22a.83.83 0 0 0-.047 1.122l1.904 2.25c.056.067.064.16.02.235-.423.745-.76 1.545-.992 2.39a.205.205 0 0 1-.18.15l-2.935.245a.83.83 0 0 0-.761.827v3.14c0 .431.33.79.76.827l2.935.244a.205.205 0 0 1 .181.152c.233.844.57 1.644.993 2.389a.205.205 0 0 1-.021.235l-1.904 2.25a.83.83 0 0 0 .046 1.122l2.22 2.22a.83.83 0 0 0 1.123.047l2.25-1.904a.205.205 0 0 1 .235-.02c.745.423 1.545.76 2.39.992a.203.203 0 0 1 .15.179l.246 2.939c.035.43.395.758.826.758h3.14a.83.83 0 0 0 .827-.76l.244-2.936a.205.205 0 0 1 .152-.18 10.432 10.432 0 0 0 2.389-.993.205.205 0 0 1 .235.021l2.25 1.904a.83.83 0 0 0 1.122-.047l2.22-2.22a.83.83 0 0 0 .047-1.122l-1.904-2.25a.205.205 0 0 1-.02-.235c.423-.745.76-1.545.992-2.39a.205.205 0 0 1 .18-.15l2.935-.245A.83.83 0 0 0 50 41.57v-3.14a.83.83 0 0 0-.76-.827z"/></svg>