<svg xmlns="http://www.w3.org/2000/svg" viewBox="0 0 72 72"><linearGradient id="a" gradientUnits="userSpaceOnUse" x1="36" y1="15" x2="36" y2="57"><stop offset="0" stop-color="#c8c6c4"/><stop offset="1" stop-color="#b3b0ad"/></linearGradient><path fill-rule="evenodd" clip-rule="evenodd" fill="url(#a)" d="M65 57H7a3 3 0 0 1-3-3V18a3 3 0 0 1 3-3h58a3 3 0 0 1 3 3v36a3 3 0 0 1-3 3z"/><linearGradient id="b" gradientUnits="userSpaceOnUse" x1="11.5" y1="59" x2="11.5" y2="57"><stop offset=".001" stop-color="#797775"/><stop offset="1" stop-color="#605e5c"/></linearGradient><path fill="url(#b)" d="M14.11 59H8.89a.5.5 0 0 1-.485-.379L8 57h7l-.405 1.621a.5.5 0 0 1-.485.379z"/><linearGradient id="c" gradientUnits="userSpaceOnUse" x1="60.5" y1="59" x2="60.5" y2="57"><stop offset=".001" stop-color="#797775"/><stop offset="1" stop-color="#605e5c"/></linearGradient><path fill="url(#c)" d="M63.11 59h-5.22a.5.5 0 0 1-.485-.379L57 57h7l-.405 1.621a.5.5 0 0 1-.485.379z"/><linearGradient id="d" gradientUnits="userSpaceOnUse" x1="62" y1="26" x2="62" y2="46"><stop offset=".001" stop-color="#797775"/><stop offset="1" stop-color="#605e5c"/></linearGradient><path fill="url(#d)" d="M61.5 46H61V26h.5a1.5 1.5 0 0 1 1.5 1.5v17a1.5 1.5 0 0 1-1.5 1.5z"/><path fill="#797775" d="M8 19h53v34H8z"/><linearGradient id="e" gradientUnits="userSpaceOnUse" x1="32" y1="19" x2="32" y2="23"><stop offset="0" stop-color="#a19f9d"/><stop offset=".999" stop-color="#605e5c" stop-opacity=".3"/></linearGradient><path fill="url(#e)" d="M56 23H12l-4-4h48z"/><linearGradient id="f" gradientUnits="userSpaceOnUse" x1="32" y1="53" x2="32" y2="49"><stop offset="0" stop-color="#a19f9d"/><stop offset=".999" stop-color="#605e5c" stop-opacity=".3"/></linearGradient><path fill="url(#f)" d="M56 53H8l4-4h44z"/><linearGradient id="g" gradientUnits="userSpaceOnUse" x1="8" y1="36" x2="12" y2="36"><stop offset="0" stop-color="#a19f9d"/><stop offset=".999" stop-color="#605e5c" stop-opacity=".3"/></linearGradient><path fill="url(#g)" d="M12 49l-4 4V19l4 4z"/><path fill="#E1DFDD" d="M61 57h-4.5a1.5 1.5 0 0 1-1.5-1.5v-41a1.5 1.5 0 0 1 1.5-1.5H61v44zM55 55h-3.5a1.5 1.5 0 0 1-1.5-1.5v-37a1.5 1.5 0 0 1 1.5-1.5H55v40z"/><linearGradient id="h" gradientUnits="userSpaceOnUse" x1="58" y1="13" x2="58" y2="57"><stop offset="0" stop-color="#e1dfdd" stop-opacity="0"/><stop offset="1" stop-color="#bebbb8" stop-opacity=".2"/></linearGradient><path fill="url(#h)" d="M61 57h-4.5a1.5 1.5 0 0 1-1.5-1.5v-41a1.5 1.5 0 0 1 1.5-1.5H61v44z"/><linearGradient id="i" gradientUnits="userSpaceOnUse" x1="50" y1="35" x2="55" y2="35"><stop offset="0" stop-color="#e1dfdd" stop-opacity="0"/><stop offset=".999" stop-color="#c8c6c4" stop-opacity=".8"/></linearGradient><path fill="url(#i)" d="M55 55h-3.5a1.5 1.5 0 0 1-1.5-1.5v-37a1.5 1.5 0 0 1 1.5-1.5H55v40z"/><linearGradient id="j" gradientUnits="userSpaceOnUse" x1="58" y1="18" x2="58" y2="24"><stop offset=".002" stop-color="#bebbb8"/><stop offset="1" stop-color="#c8c6c4"/></linearGradient><path fill="url(#j)" d="M58 24a1 1 0 0 1-1-1v-4a1 1 0 1 1 2 0v4a1 1 0 0 1-1 1z"/><linearGradient id="k" gradientUnits="userSpaceOnUse" x1="58" y1="32" x2="58" y2="38"><stop offset=".002" stop-color="#bebbb8"/><stop offset="1" stop-color="#c8c6c4"/></linearGradient><path fill="url(#k)" d="M58 38a1 1 0 0 1-1-1v-4a1 1 0 1 1 2 0v4a1 1 0 0 1-1 1z"/><linearGradient id="l" gradientUnits="userSpaceOnUse" x1="58" y1="46" x2="58" y2="52"><stop offset=".002" stop-color="#bebbb8"/><stop offset="1" stop-color="#c8c6c4"/></linearGradient><path fill="url(#l)" d="M58 52a1 1 0 0 1-1-1v-4a1 1 0 1 1 2 0v4a1 1 0 0 1-1 1z"/><path fill="#FFF" d="M40.25 51h-17.5a.75.75 0 0 1-.75-.75v-24.5a.75.75 0 0 1 .75-.75H35l6 6v19.25a.75.75 0 0 1-.75.75z"/><path fill="#EDEBE9" d="M41 31h-5.25a.75.75 0 0 1-.75-.75V25l6 6z"/></svg>