<svg xmlns="http://www.w3.org/2000/svg" viewBox="0 0 72 72"><linearGradient id="a" gradientUnits="userSpaceOnUse" x1="36" y1="15" x2="36" y2="57"><stop offset="0" stop-color="#c8c6c4"/><stop offset="1" stop-color="#b3b0ad"/></linearGradient><path fill-rule="evenodd" clip-rule="evenodd" fill="url(#a)" d="M65 57H7a3 3 0 0 1-3-3V18a3 3 0 0 1 3-3h58a3 3 0 0 1 3 3v36a3 3 0 0 1-3 3z"/><linearGradient id="b" gradientUnits="userSpaceOnUse" x1="34.5" y1="19" x2="34.5" y2="53"><stop offset="0" stop-color="#979593"/><stop offset="1" stop-color="#8a8886"/></linearGradient><path fill="url(#b)" d="M59.5 20.25a.25.25 0 0 1 .25.25v31a.25.25 0 0 1-.25.25h-50a.25.25 0 0 1-.25-.25v-31a.25.25 0 0 1 .25-.25h50m0-1.25h-50A1.5 1.5 0 0 0 8 20.5v31A1.5 1.5 0 0 0 9.5 53h50a1.5 1.5 0 0 0 1.5-1.5v-31a1.5 1.5 0 0 0-1.5-1.5z"/><linearGradient id="c" gradientUnits="userSpaceOnUse" x1="60" y1="23" x2="60" y2="28"><stop offset=".001" stop-color="#797775"/><stop offset="1" stop-color="#605e5c"/></linearGradient><path fill="url(#c)" d="M63.25 28h-6.5a.75.75 0 0 1-.75-.75v-3.5a.75.75 0 0 1 .75-.75h6.5a.75.75 0 0 1 .75.75v3.5a.75.75 0 0 1-.75.75z"/><linearGradient id="d" gradientUnits="userSpaceOnUse" x1="60" y1="44" x2="60" y2="49"><stop offset=".001" stop-color="#797775"/><stop offset="1" stop-color="#605e5c"/></linearGradient><path fill="url(#d)" d="M63.25 49h-6.5a.75.75 0 0 1-.75-.75v-3.5a.75.75 0 0 1 .75-.75h6.5a.75.75 0 0 1 .75.75v3.5a.75.75 0 0 1-.75.75z"/><linearGradient id="e" gradientUnits="userSpaceOnUse" x1="16" y1="26" x2="16" y2="46"><stop offset=".001" stop-color="#797775"/><stop offset="1" stop-color="#605e5c"/></linearGradient><path fill="url(#e)" d="M16 46a1.4 1.4 0 0 0 1.394-1.28l1.35-15.73a2.754 2.754 0 1 0-5.487 0l1.347 15.73A1.4 1.4 0 0 0 16 46z"/><linearGradient id="f" gradientUnits="userSpaceOnUse" x1="36" y1="24" x2="36" y2="48"><stop offset=".001" stop-color="#8a8886"/><stop offset="1" stop-color="#797775"/></linearGradient><path fill="url(#f)" d="M36 30c3.308 0 6 2.691 6 6s-2.692 6-6 6-6-2.691-6-6 2.692-6 6-6m0-6c-6.627 0-12 5.373-12 12s5.373 12 12 12 12-5.373 12-12-5.373-12-12-12z"/><linearGradient id="g" gradientUnits="userSpaceOnUse" x1="11.5" y1="59" x2="11.5" y2="57"><stop offset=".001" stop-color="#797775"/><stop offset="1" stop-color="#605e5c"/></linearGradient><path fill="url(#g)" d="M14.11 59H8.89a.5.5 0 0 1-.485-.379L8 57h7l-.405 1.621a.5.5 0 0 1-.485.379z"/><linearGradient id="h" gradientUnits="userSpaceOnUse" x1="60.5" y1="59" x2="60.5" y2="57"><stop offset=".001" stop-color="#797775"/><stop offset="1" stop-color="#605e5c"/></linearGradient><path fill="url(#h)" d="M63.11 59h-5.22a.5.5 0 0 1-.485-.379L57 57h7l-.405 1.621a.5.5 0 0 1-.485.379z"/></svg>