<svg xmlns="http://www.w3.org/2000/svg" viewBox="0 0 72 72"><path fill="#FFF" d="M10.118 57.722c4.819-1.33 13.79-3.806 25.282-3.806 12.411 0 22.223 2.659 26.938 3.937l.419.113a.946.946 0 0 0 .83-.166c.263-.201.413-.514.413-.859V15.06c0-.343-.15-.655-.41-.857a.94.94 0 0 0-.819-.171l-.75.196c-4.79 1.252-14.758 3.857-26.278 3.857-11.854 0-21.384-2.606-25.963-3.858l-.539-.147a.933.933 0 0 0-.827.164 1.071 1.071 0 0 0-.414.86v41.835c0 .345.151.659.414.86.14.107.434.27.828.165l.876-.241z"/><path fill="#605E5C" d="M63.088 60c-.258 0-.519-.034-.776-.103l-.42-.114c-4.631-1.255-14.27-3.866-26.415-3.866-11.222 0-20.022 2.428-24.75 3.732l-.783.216c-.663.182-1.38.185-2.01-.091a3.062 3.062 0 0 1-1.857-2.836V15.103c0-1.225.692-2.322 1.853-2.834.628-.277 1.346-.275 2.009-.094l.446.122c4.495 1.229 13.85 3.787 25.435 3.787 11.262 0 21.063-2.561 25.772-3.792l.66-.172c.657-.171 1.367-.167 1.987.111a3.066 3.066 0 0 1 1.838 2.828v41.882c0 .972-.437 1.865-1.198 2.447a2.937 2.937 0 0 1-1.791.612zm-27.61-6.084c12.41 0 22.222 2.659 26.937 3.937l.419.113a.946.946 0 0 0 .83-.166c.263-.201.413-.514.413-.859V15.06c0-.343-.15-.655-.41-.857a.94.94 0 0 0-.819-.171l-.75.196c-4.79 1.252-14.759 3.857-26.278 3.857-11.855 0-21.384-2.606-25.963-3.858l-.539-.147a.933.933 0 0 0-.827.164 1.071 1.071 0 0 0-.414.86v41.835c0 .345.151.659.414.86.14.107.433.271.828.165l.876-.241c4.818-1.33 13.79-3.806 25.282-3.806z" opacity=".64"/><path fill="none" stroke="#69AFE5" stroke-width="2" stroke-linecap="round" stroke-linejoin="round" stroke-miterlimit="10" d="M45.077 36l-15-8v16z"/><g fill="#C8C6C4"><circle cx="13.077" cy="25" r="1"/><circle cx="13.077" cy="31" r="1"/><circle cx="13.077" cy="37" r="1"/><circle cx="13.077" cy="42" r="1"/><circle cx="13.077" cy="48" r="1"/></g><g fill="#C8C6C4"><circle cx="59.077" cy="25" r="1"/><circle cx="59.077" cy="31" r="1"/><circle cx="59.077" cy="37" r="1"/><circle cx="59.077" cy="42" r="1"/><circle cx="59.077" cy="48" r="1"/></g></svg>