<svg xmlns="http://www.w3.org/2000/svg" viewBox="0 0 72 72"><path opacity=".64" fill="#605E5C" d="M63 68H19c-1.654 0-3-1.346-3-3V7c0-1.654 1.346-3 3-3h44c1.654 0 3 1.346 3 3v58c0 1.654-1.346 3-3 3zM19 6a1 1 0 0 0-1 1v58a1 1 0 0 0 1 1h44a1 1 0 0 0 1-1V7a1 1 0 0 0-1-1H19z"/><path fill="#FFF" d="M19 66h44a1 1 0 0 0 1-1V7a1 1 0 0 0-1-1H19a1 1 0 0 0-1 1v58a1 1 0 0 0 1 1z"/><path fill="#185ABD" d="M9 55h25a3 3 0 0 0 3-3V27a3 3 0 0 0-3-3H9a3 3 0 0 0-3 3v25a3 3 0 0 0 3 3z"/><path fill="#FFF" d="M20.514 42.574c.553 1.581.88 2.579.98 2.994h.067c.1-.415.453-1.484 1.061-3.206L26.988 30H31l-7.399 19h-4.297L12 30h4.135l4.379 12.574z"/><g fill="#C8C6C4"><path opacity=".64" d="M56 61h-9c-1.654 0-3-1.346-3-3V41c0-1.654 1.346-3 3-3h9c1.654 0 3 1.346 3 3v17c0 1.654-1.346 3-3 3zm-9-21a1 1 0 0 0-1 1v17a1 1 0 0 0 1 1h9a1 1 0 0 0 1-1V41a1 1 0 0 0-1-1h-9zM56 34h-9c-1.654 0-3-1.346-3-3V14c0-1.654 1.346-3 3-3h9c1.654 0 3 1.346 3 3v17c0 1.654-1.346 3-3 3zm-9-21a1 1 0 0 0-1 1v17a1 1 0 0 0 1 1h9a1 1 0 0 0 1-1V14a1 1 0 0 0-1-1h-9zM36 56.576V58a1 1 0 0 1-1 1h-9a1 1 0 0 1-1-1v-1h-2v1c0 1.654 1.346 3 3 3h9c1.654 0 3-1.346 3-3v-3.03a5.014 5.014 0 0 1-2 1.606zM25 22v-8a1 1 0 0 1 1-1h9a1 1 0 0 1 1 1v8.424a5.014 5.014 0 0 1 2 1.607V14c0-1.654-1.346-3-3-3h-9c-1.654 0-3 1.346-3 3v8h2z"/></g></svg>