<svg xmlns="http://www.w3.org/2000/svg" viewBox="0 0 72 72"><g fill="#FFF"><path d="M61 60c0 1.654-1.346 3-3 3H23v2a1 1 0 0 0 1 1h39a1 1 0 0 0 1-1V11h1c0-1.105-3.896-5-5-5v6h1v48z"/><path d="M19 61h39a1 1 0 0 0 1-1V12H18v48a1 1 0 0 0 1 1z"/></g><path opacity=".64" fill="#605E5C" d="M64 11v54a1 1 0 0 1-1 1H24a1 1 0 0 1-1-1v-2h35c1.654 0 3-1.346 3-3V12h-2v48a1 1 0 0 1-1 1H19a1 1 0 0 1-1-1V12h-2v48c0 1.654 1.346 3 3 3h2v2c0 1.654 1.346 3 3 3h39c1.654 0 3-1.346 3-3V11h-2z"/><path fill="#185ABD" d="M9 55h25a3 3 0 0 0 3-3V27a3 3 0 0 0-3-3H9a3 3 0 0 0-3 3v25a3 3 0 0 0 3 3z"/><path fill="#FFF" d="M20.514 42.574c.553 1.581.88 2.579.98 2.994h.067c.1-.415.453-1.484 1.061-3.206L26.988 30H31l-7.399 19h-4.297L12 30h4.135l4.379 12.574z"/><path fill="#41A5EE" d="M61 4.186A1.993 1.993 0 0 0 60.172 4H18a2 2 0 0 0-2 2v5l1 1h43l1-1v-1l1-1V7l-1-2.814z"/><path fill="#2B7CD3" d="M16 11h45v2H16zM62.707 9.707L66 13V9.828a2 2 0 0 0-.586-1.414l-3.828-3.828c-.17-.17-.371-.302-.586-.4v6.228c0-.89 1.077-1.337 1.707-.707z"/><g><path fill="#185ABD" d="M49 38.253V32.5h-2v5.748a.752.752 0 0 1-.752.752H41.5v2h8.504c.55 0 .996.446.996.996V47h2v-5a3 3 0 0 0-3-3h-.253a.747.747 0 0 1-.747-.747z"/><circle fill="#2B7CD3" cx="52" cy="51" r="5"/><path fill="#41A5EE" d="M39 35h3v10h-3z"/><path fill="#103F91" d="M41.999 28l6-6 6 6-6 6z"/></g></svg>