<svg xmlns="http://www.w3.org/2000/svg" viewBox="0 0 72 72"><g fill="#FFF"><path d="M19 66h44a1 1 0 0 0 1-1V20H53c-1.654 0-3-1.346-3-3V6H19a1 1 0 0 0-1 1v58a1 1 0 0 0 1 1z"/><path d="M63.586 18L52 6.414V17a1 1 0 0 0 1 1h10.586z"/></g><path opacity=".64" fill="#605E5C" d="M65.121 16.707L53.293 4.879A2.978 2.978 0 0 0 51.172 4H19c-1.654 0-3 1.346-3 3v58c0 1.654 1.346 3 3 3h44c1.654 0 3-1.346 3-3V18.828c0-.8-.313-1.554-.879-2.121zM52 6.414L63.586 18H53a1 1 0 0 1-1-1V6.414zM63 66H19a1 1 0 0 1-1-1V7a1 1 0 0 1 1-1h31v11c0 1.654 1.346 3 3 3h11v45a1 1 0 0 1-1 1z"/><path fill="#134A2C" d="M58 48h-7a1 1 0 0 1-1-1v-2a1 1 0 0 1 1-1h7a1 1 0 0 1 1 1v2a1 1 0 0 1-1 1z"/><path fill="#185C37" d="M47 48h-7c-.552 0-1-1.448-1-1v-1c0-1.552.448-2 1-2h7a1 1 0 0 1 1 1v2a1 1 0 0 1-1 1z"/><path fill="#21A366" d="M58 41h-7a1 1 0 0 1-1-1v-2a1 1 0 0 1 1-1h7a1 1 0 0 1 1 1v2a1 1 0 0 1-1 1z"/><path fill="#107C41" d="M47 41h-7a1 1 0 0 1-1-1v-2a1 1 0 0 1 1-1h7a1 1 0 0 1 1 1v2a1 1 0 0 1-1 1z"/><path fill="#33C481" d="M58 34h-7a1 1 0 0 1-1-1v-2a1 1 0 0 1 1-1h7a1 1 0 0 1 1 1v2a1 1 0 0 1-1 1z"/><path fill="#21A366" d="M47 34h-7a1 1 0 0 1-1-1v-2a1 1 0 0 1 1-1h7a1 1 0 0 1 1 1v2a1 1 0 0 1-1 1z"/><g><path fill="#107C41" d="M9 55h25a3 3 0 0 0 3-3V27a3 3 0 0 0-3-3H9a3 3 0 0 0-3 3v25a3 3 0 0 0 3 3z"/><path fill="#F9F7F7" d="M12.889 49l6.117-9.526L13.403 30h4.685l2.917 5.774c.268.548.452.956.553 1.226h.037c.194-.438.395-.863.604-1.277L25.316 30h4.317l-5.748 9.421L29.777 49H25.62l-3.749-7.058a5.893 5.893 0 0 1-.448-.942h-.056c-.065.225-.21.53-.434.914L17.073 49h-4.184z"/></g></svg>