<svg xmlns="http://www.w3.org/2000/svg" viewBox="0 0 72 72"><g fill="#FFF"><path d="M61 60c0 1.654-1.346 3-3 3H23v2a1 1 0 0 0 1 1h39a1 1 0 0 0 1-1V11h1c0-1.105-3.896-5-5-5v6h1v48z"/><path d="M19 61h39a1 1 0 0 0 1-1V12H18v48a1 1 0 0 0 1 1z"/></g><path opacity=".64" fill="#605E5C" d="M64 11v54a1 1 0 0 1-1 1H24a1 1 0 0 1-1-1v-2h35c1.654 0 3-1.346 3-3V12h-2v48a1 1 0 0 1-1 1H19a1 1 0 0 1-1-1V12h-2v48c0 1.654 1.346 3 3 3h2v2c0 1.654 1.346 3 3 3h39c1.654 0 3-1.346 3-3V11h-2z"/><path fill="#33C481" d="M61 4.186A1.993 1.993 0 0 0 60.172 4H18a2 2 0 0 0-2 2v5l1 1h43l1-1v-1l1-1V7l-1-2.814z"/><path fill="#21A366" d="M16 11h45v2H16zM62.707 9.707L66 13V9.828a2 2 0 0 0-.586-1.414l-3.828-3.828c-.17-.17-.371-.302-.586-.4v6.228c0-.89 1.077-1.337 1.707-.707z"/><path fill="#134A2C" d="M54 48h-6a1 1 0 0 1-1-1v-2a1 1 0 0 1 1-1h6a1 1 0 0 1 1 1v2a1 1 0 0 1-1 1z"/><path fill="#185C37" d="M44 44h-5v4h5a1 1 0 0 0 1-1v-2a1 1 0 0 0-1-1z"/><path fill="#21A366" d="M54 41h-6a1 1 0 0 1-1-1v-2a1 1 0 0 1 1-1h6a1 1 0 0 1 1 1v2a1 1 0 0 1-1 1z"/><path fill="#107C41" d="M44 37h-5v4h5a1 1 0 0 0 1-1v-2a1 1 0 0 0-1-1z"/><path fill="#33C481" d="M54 34h-6a1 1 0 0 1-1-1v-2a1 1 0 0 1 1-1h6a1 1 0 0 1 1 1v2a1 1 0 0 1-1 1z"/><path fill="#21A366" d="M44 30h-5v4h5a1 1 0 0 0 1-1v-2a1 1 0 0 0-1-1z"/><g><path fill="#107C41" d="M9 55h25a3 3 0 0 0 3-3V27a3 3 0 0 0-3-3H9a3 3 0 0 0-3 3v25a3 3 0 0 0 3 3z"/><path fill="#F9F7F7" d="M12.889 49l6.117-9.526L13.403 30h4.685l2.917 5.774c.268.548.452.956.553 1.226h.037c.194-.438.395-.863.604-1.277L25.316 30h4.317l-5.748 9.421L29.777 49H25.62l-3.749-7.058a5.893 5.893 0 0 1-.448-.942h-.056c-.065.225-.21.53-.434.914L17.073 49h-4.184z"/></g></svg>