<svg xmlns="http://www.w3.org/2000/svg" viewBox="0 0 144 144"><g fill="#FFF"><path d="M38 132h88c1.103 0 2-.897 2-2V40h-22c-3.309 0-6-2.691-6-6V12H38c-1.103 0-2 .897-2 2v116c0 1.102.898 2 2 2z"/><path d="M106 36h20.172L104 13.828V34c0 1.102.897 2 2 2z"/></g><path opacity=".64" fill="#605E5C" d="M130.242 34.414L105.586 9.758A5.958 5.958 0 0 0 101.343 8H38c-3.309 0-6 2.691-6 6v116c0 3.309 2.691 6 6 6h88c3.309 0 6-2.691 6-6V38.657a5.96 5.96 0 0 0-1.758-4.243zM126.172 36H106c-1.103 0-2-.897-2-2V13.828L126.172 36zM126 132H38c-1.103 0-2-.897-2-2V14c0-1.103.897-2 2-2h62v22c0 3.309 2.691 6 6 6h22v90c0 1.102-.897 2-2 2z"/><path fill="#AF2031" d="M18 110h50a6 6 0 0 0 6-6V54a6 6 0 0 0-6-6H18a6 6 0 0 0-6 6v50a6 6 0 0 0 6 6z"/><path fill="#FFF" d="M38.976 61h8.252l13.254 36h-7.795l-2.92-9H36.132l-2.87 9H25.52l13.457-36zm9.039 22l-4.24-13.163c-.424-1.239-.686-2.218-.788-2.937h-.152c-.068.652-.322 1.656-.762 3.012L37.783 83h10.232z"/><g><path fill="#E08095" d="M107 71H95a2 2 0 0 0 0 4h12a2 2 0 0 0 0-4z"/><path fill="#C94F60" d="M107 80H95a2 2 0 0 0 0 4h12a2 2 0 0 0 0-4z"/><path fill="#881421" d="M107 89H95a2 2 0 0 0 0 4h12a2 2 0 0 0 0-4z"/><path fill="#66121C" d="M86 89h-7v4h7a2 2 0 0 0 0-4z"/><path fill="#AF2031" d="M86 80h-7v4h7a2 2 0 0 0 0-4z"/><path fill="#C94F60" d="M86 71h-7v4h7a2 2 0 0 0 0-4zM114 65v31c0 1.103-.897 2-2 2H79v4h33c3.309 0 6-2.691 6-6V65h-4z"/><path fill="#E08095" d="M118 66H79v-9h33a6 6 0 0 1 6 6v3z"/></g></svg>