<svg xmlns="http://www.w3.org/2000/svg" viewBox="0 0 144 144"><path fill="#FFF" d="M18 128h108c1.103 0 2-.897 2-2V18c0-1.103-.897-2-2-2H18c-1.103 0-2 .897-2 2v108c0 1.103.898 2 2 2z"/><path opacity=".64" fill="#605E5C" d="M126 132H18c-3.309 0-6-2.692-6-6V18c0-3.308 2.691-6 6-6h108c3.309 0 6 2.692 6 6v108c0 3.308-2.691 6-6 6zM18 16c-1.103 0-2 .897-2 2v108c0 1.103.897 2 2 2h108c1.103 0 2-.897 2-2V18c0-1.103-.897-2-2-2H18z"/><g fill="none" stroke="#69AFE5" stroke-width="4" stroke-linecap="round" stroke-linejoin="round" stroke-miterlimit="10"><circle cx="58" cy="86.938" r="7"/><circle cx="86" cy="79.938" r="7"/><path d="M65 86.23V57.061l28-7V79.23M65 66.396l28-7"/></g></svg>