<svg xmlns="http://www.w3.org/2000/svg" viewBox="0 0 144 144"><path fill="#FFF" d="M128 126V48H16v78c0 1.103.897 2 2 2h108c1.103 0 2-.897 2-2zM37 28a2 2 0 0 1-2-2v-8a2 2 0 1 1 4 0v8a2 2 0 0 1-2 2z"/><g fill="#FFF"><path d="M37 28c1.103 0 2-.897 2-2v-2h-4v2c0 1.103.898 2 2 2zM107 28c1.103 0 2-.897 2-2v-2h-4v2c0 1.103.897 2 2 2z"/><path d="M126 24h-13v2c0 3.309-2.691 6-6 6s-6-2.691-6-6v-2H43v2c0 3.309-2.691 6-6 6s-6-2.691-6-6v-2H18c-1.103 0-2 .897-2 2v18h112V26c0-1.103-.897-2-2-2z"/></g><path fill="#FFF" d="M107 28a2 2 0 0 1-2-2v-8a2 2 0 1 1 4 0v8a2 2 0 0 1-2 2z"/><path opacity=".64" fill="#61605E" d="M126 20h-13v-2c0-3.309-2.691-6-6-6s-6 2.691-6 6v2H43v-2c0-3.309-2.691-6-6-6s-6 2.691-6 6v2H18a6 6 0 0 0-6 6v100a6 6 0 0 0 6 6h108a6 6 0 0 0 6-6V26c0-3.3-2.7-6-6-6zm-21-2c0-1.103.897-2 2-2s2 .897 2 2v8c0 1.103-.897 2-2 2s-2-.897-2-2v-8zm-70 0c0-1.103.897-2 2-2s2 .897 2 2v8c0 1.103-.897 2-2 2s-2-.897-2-2v-8zm93 108c0 1.103-.897 2-2 2H18c-1.103 0-2-.897-2-2V48h112v78zm0-82H16V26a2 2 0 0 1 2-2h13v2c0 3.309 2.691 6 6 6s6-2.691 6-6v-2h58v2c0 3.309 2.691 6 6 6s6-2.691 6-6v-2h13a2 2 0 0 1 2 2v18z"/><circle fill="#C8C6C4" cx="39" cy="71" r="3"/><circle fill="#C8C6C4" cx="61" cy="71" r="3"/><circle fill="#C8C6C4" cx="83" cy="71" r="3"/><circle fill="#C8C6C4" cx="105" cy="71" r="3"/><g><circle fill="#C8C6C4" cx="39" cy="88" r="3"/><circle fill="#C8C6C4" cx="61" cy="88" r="3"/><circle fill="#C8C6C4" cx="83" cy="88" r="3"/><circle fill="#C8C6C4" cx="105" cy="88" r="3"/></g><g><circle fill="#C8C6C4" cx="39" cy="105" r="3"/><circle fill="#C8C6C4" cx="61" cy="105" r="3"/><circle fill="#C8C6C4" cx="83" cy="105" r="3"/><circle fill="#C8C6C4" cx="105" cy="105" r="3"/></g></svg>