<svg xmlns="http://www.w3.org/2000/svg" viewBox="0 0 144 144"><path fill="#FFF" d="M102.317 112h23.903c1.102 0 2-.897 2-2V34c0-1.103-.898-2-2-2h-108c-1.103 0-2 .897-2 2v76c0 1.103.897 2 2 2H42.9a6.6 6.6 0 0 0-.112-.177c-1.049-1.603-1.331-3.514-.796-5.381.751-2.616 3.222-4.442 6.01-4.442h.214c2.788 0 5.259 1.826 6.01 4.44.535 1.87.253 3.78-.796 5.383a6.764 6.764 0 0 0-.112.177H91.9a6.6 6.6 0 0 0-.113-.177c-1.049-1.603-1.33-3.514-.796-5.382.751-2.615 3.222-4.441 6.01-4.441h.214c2.788 0 5.259 1.826 6.01 4.44.535 1.87.253 3.78-.796 5.383a6.768 6.768 0 0 0-.113.177z"/><g fill="none" stroke="#69AFE5" stroke-width="4" stroke-miterlimit="10"><circle cx="47.72" cy="62.4" r="12.95"/><path stroke-linecap="round" stroke-linejoin="round" d="M29.22 92s1.85-16.65 18.5-16.65S66.22 92 66.22 92"/></g><path fill="#C8C6C4" d="M80.22 59h36a2 2 0 1 0 0-4h-36a2 2 0 1 0 0 4zM80.22 73h36a2 2 0 1 0 0-4h-36a2 2 0 0 0 0 4zM80.22 87h24a2 2 0 1 0 0-4h-24a2 2 0 1 0 0 4z"/><circle fill="#C8C6C4" cx="116.22" cy="85" r="2"/><path opacity=".64" fill="#605E5C" d="M126.22 116h-25.552c-1.37 0-2.49-1.097-2.544-2.467-.11-1.436.016-1.941.058-2.109.11-.443.413-1.047.901-1.792.284-.434.567-1.15.297-2.088-.26-.909-1.15-1.544-2.164-1.544h-.214c-1.014 0-1.903.635-2.164 1.544-.27.939.013 1.654.298 2.088.487.745.79 1.35.901 1.796.041.164.167.669.057 2.105-.055 1.37-1.175 2.467-2.544 2.467H51.668c-1.37 0-2.49-1.097-2.544-2.467-.11-1.436.016-1.941.058-2.109.11-.443.413-1.047.901-1.792.284-.434.567-1.15.297-2.088-.26-.909-1.15-1.544-2.164-1.544h-.214c-1.014 0-1.903.635-2.164 1.544-.27.939.013 1.654.298 2.088.487.745.79 1.35.901 1.796.041.164.167.669.057 2.105-.055 1.37-1.175 2.467-2.544 2.467H18.22c-3.309 0-6-2.691-6-6V34c0-3.309 2.691-6 6-6h108c3.308 0 6 2.691 6 6v76c0 3.309-2.692 6-6 6zm-23.903-4h23.903c1.102 0 2-.897 2-2V34c0-1.103-.898-2-2-2h-108c-1.103 0-2 .897-2 2v76c0 1.103.897 2 2 2H42.9a6.6 6.6 0 0 0-.112-.177c-1.049-1.603-1.331-3.514-.796-5.381.751-2.616 3.222-4.442 6.01-4.442h.214c2.788 0 5.259 1.826 6.01 4.44.535 1.87.253 3.78-.796 5.383a6.764 6.764 0 0 0-.112.177H91.9a6.6 6.6 0 0 0-.113-.177c-1.049-1.603-1.33-3.514-.796-5.382.751-2.615 3.222-4.441 6.01-4.441h.214c2.788 0 5.259 1.826 6.01 4.44.535 1.87.253 3.78-.796 5.383a6.768 6.768 0 0 0-.113.177z"/></svg>