<svg xmlns="http://www.w3.org/2000/svg" viewBox="0 0 144 144"><g fill="#FFF"><path d="M38 132h88c1.103 0 2-.897 2-2V40h-22c-3.309 0-6-2.691-6-6V12H38c-1.103 0-2 .897-2 2v116c0 1.102.898 2 2 2z"/><path d="M106 36h20.172L104 13.828V34c0 1.102.897 2 2 2z"/></g><path opacity=".64" fill="#605E5C" d="M130.242 34.414L105.586 9.758A5.958 5.958 0 0 0 101.343 8H38c-3.309 0-6 2.691-6 6v116c0 3.309 2.691 6 6 6h88c3.309 0 6-2.691 6-6V38.657a5.96 5.96 0 0 0-1.758-4.243zM126.172 36H106c-1.103 0-2-.897-2-2V13.828L126.172 36zM126 132H38c-1.103 0-2-.897-2-2V14c0-1.103.897-2 2-2h62v22c0 3.309 2.691 6 6 6h22v90c0 1.102-.897 2-2 2z"/><g fill="#33C481"><path d="M105 94.67h-4.333v-4.969c-3.16 3.796-6.734 4.97-11.19 4.97-3.278 0-5.844-.836-7.697-2.507S79 88.274 79 85.51c0-5.92 3.62-9.366 10.863-10.334l9.866-1.331c0-5.384-2.26-8.076-6.78-8.076-3.965 0-9.616 3.899-9.616 3.899V64.47c3.076-1.98 6.621-2.971 10.635-2.971 7.354 0 11.032 3.94 11.032 11.82v21.35zm-4.333-16.77L91.69 78.95c-2.761.331-4.845.912-6.25 1.75-1.405.833-2.108 2.313-2.108 4.439 0 1.547.649 2.81 1.944 3.791 1.296.979 3.022 1.469 5.179 1.469 2.956 0 5.396-.883 7.322-2.644 1.926-1.766 2.889-4 2.889-6.7v-3.157zM118 89.67l-5.406 14h-3.952l3.952-14H118z"/></g><path fill="#107C41" d="M19 110h48a7 7 0 0 0 7-7V55a7 7 0 0 0-7-7H19a7 7 0 0 0-7 7v48a7 7 0 0 0 7 7z"/><path fill="#F9F7F7" d="M27.206 97l11.442-18.05L28.168 61h8.433l5.72 11.473c.527 1.087.889 1.899 1.086 2.435h.074a51.07 51.07 0 0 1 1.184-2.536L50.78 61h7.742L47.771 78.849 58.794 97h-8.237L43.95 84.397a10.52 10.52 0 0 1-.79-1.682h-.099c-.115.402-.37.946-.764 1.632L35.492 97h-8.285z"/></svg>