<svg xmlns="http://www.w3.org/2000/svg" viewBox="0 0 144 144"><path fill="#FFB900" d="M67 35l-5.485-5.485A12 12 0 0 0 53.029 26H13a6 6 0 0 0-6 6v80a6 6 0 0 0 6 6h116a6 6 0 0 0 6-6V41a6 6 0 0 0-6-6H67z"/><path fill="#FFD75E" d="M67 35l-5.485 5.485A12 12 0 0 1 53.029 44H7v68a6 6 0 0 0 6 6h116a6 6 0 0 0 6-6V41a6 6 0 0 0-6-6H67z"/><linearGradient id="a" gradientUnits="userSpaceOnUse" x1="71" y1="35" x2="71" y2="118"><stop offset="0" stop-color="#fff" stop-opacity="0"/><stop offset=".999" stop-color="#ffd75e" stop-opacity=".3"/></linearGradient><path fill="url(#a)" d="M67 35l-5.485 5.485A12 12 0 0 1 53.029 44H7v68a6 6 0 0 0 6 6h116a6 6 0 0 0 6-6V41a6 6 0 0 0-6-6H67z"/><path fill="#E67628" d="M12 117a5.969 5.969 0 0 1-3.71-1.29A5.984 5.984 0 0 0 13 118h116a5.984 5.984 0 0 0 4.71-2.29A5.969 5.969 0 0 1 130 117H12z"/><path opacity=".4" fill="#FFF" d="M62.161 41.339L68.5 35H67l-5.485 5.485A12 12 0 0 1 53.029 44H7v1h46.322a12.5 12.5 0 0 0 8.84-3.661z"/><g><path fill="#BF5712" d="M117 106h2v2h-2zM115 108h6v2h-6zM128 93v11h-19V93h20m1-2h-23v15h23V91z"/></g></svg>