<svg xmlns="http://www.w3.org/2000/svg" viewBox="0 0 144 144"><g fill="#FFF"><path d="M38 132h88c1.103 0 2-.897 2-2V40h-22c-3.309 0-6-2.691-6-6V12H38c-1.103 0-2 .897-2 2v116c0 1.102.898 2 2 2z"/><path d="M106 36h20.172L104 13.828V34c0 1.102.897 2 2 2z"/></g><path opacity=".64" fill="#605E5C" d="M130.242 34.414L105.586 9.758A5.958 5.958 0 0 0 101.343 8H38c-3.309 0-6 2.691-6 6v116c0 3.309 2.691 6 6 6h88c3.309 0 6-2.691 6-6V38.657a5.96 5.96 0 0 0-1.758-4.243zM126.172 36H106c-1.103 0-2-.897-2-2V13.828L126.172 36zM126 132H38c-1.103 0-2-.897-2-2V14c0-1.103.897-2 2-2h62v22c0 3.309 2.691 6 6 6h22v90c0 1.102-.897 2-2 2z"/><path fill="#103F91" d="M116 94H79v-4h37a2 2 0 1 1 0 4z"/><path fill="#185ABD" d="M116 85H79v-4h37a2 2 0 1 1 0 4z"/><path fill="#2B7CD3" d="M116 76H79v-4h37a2 2 0 1 1 0 4z"/><path fill="#41A5EE" d="M116 67H79v-4h37a2 2 0 1 1 0 4z"/><g><path fill="#185ABD" d="M19 110h48a7 7 0 0 0 7-7V55a7 7 0 0 0-7-7H19a7 7 0 0 0-7 7v48a7 7 0 0 0 7 7z"/><path fill="#F9F7F7" d="M33.05 87.725c.104.806.17 1.51.202 2.11h.12c.047-.569.138-1.256.273-2.063.134-.805.265-1.485.392-2.038L39.553 62h7.132l5.706 23.378c.285 1.154.523 2.623.713 4.41h.095c.08-1.233.277-2.656.594-4.267L58.358 62h6.49L56.86 96h-7.583l-5.445-22.525a51.031 51.031 0 0 1-.535-2.536c-.198-1.044-.32-1.802-.368-2.277h-.095a53.404 53.404 0 0 1-.369 2.466 62.256 62.256 0 0 1-.44 2.418L36.915 96H29.21l-8.06-34h6.61l4.969 23.78c.11.49.217 1.139.32 1.945z"/></g></svg>