<svg xmlns="http://www.w3.org/2000/svg" viewBox="0 0 144 144"><g fill="#FFF"><path d="M122 120c0 3.309-2.691 6-6 6H46v4c0 1.103.897 2 2 2h78c1.103 0 2-.897 2-2V20h2v-1l-10-8v13h2v96z"/><path d="M38 122h78c1.103 0 2-.897 2-2V24H36v96c0 1.103.898 2 2 2z"/></g><path opacity=".64" fill="#605E5C" d="M128 20v110c0 1.103-.897 2-2 2H48c-1.103 0-2-.897-2-2v-4h70c3.309 0 6-2.691 6-6V24h-4v96c0 1.103-.897 2-2 2H38c-1.103 0-2-.897-2-2V24h-4v96c0 3.309 2.691 6 6 6h4v4c0 3.309 2.691 6 6 6h78c3.309 0 6-2.691 6-6V20h-4z"/><path fill="#41A5EE" d="M122 8.372A3.986 3.986 0 0 0 120.343 8H36a4 4 0 0 0-4 4v10l2 2h86l2-2v-4l1-1v-6l-1-2.628z"/><path fill="#2B7CD3" d="M125.414 18.414L132 25v-6.172a2 2 0 0 0-.586-1.414l-8.242-8.242a3.988 3.988 0 0 0-1.172-.8v11.457c0-1.782 2.154-2.675 3.414-1.415zM32 22h90v4H32z"/><path fill="#103F91" d="M106 94H79v-4h27a2 2 0 1 1 0 4z"/><path fill="#185ABD" d="M106 85H79v-4h27a2 2 0 1 1 0 4z"/><path fill="#2B7CD3" d="M106 76H79v-4h27a2 2 0 1 1 0 4z"/><path fill="#41A5EE" d="M106 67H79v-4h27a2 2 0 1 1 0 4z"/><g><path fill="#185ABD" d="M18 110h50a6 6 0 0 0 6-6V54a6 6 0 0 0-6-6H18a6 6 0 0 0-6 6v50a6 6 0 0 0 6 6z"/><path fill="#F9F7F7" d="M33.05 87.725c.104.806.17 1.51.202 2.11h.12c.047-.569.138-1.256.273-2.063.134-.805.265-1.485.392-2.038L39.553 62h7.132l5.706 23.378c.285 1.154.523 2.623.713 4.41h.095c.08-1.233.277-2.656.594-4.267L58.358 62h6.49L56.86 96h-7.583l-5.445-22.525a51.031 51.031 0 0 1-.535-2.536c-.198-1.044-.32-1.802-.368-2.277h-.095a53.404 53.404 0 0 1-.369 2.466 62.256 62.256 0 0 1-.44 2.418L36.915 96H29.21l-8.06-34h6.61l4.969 23.78c.11.49.217 1.139.32 1.945z"/></g></svg>