<svg xmlns="http://www.w3.org/2000/svg" viewBox="0 0 144 144"><g fill="#FFF"><path d="M18 112h108c1.103 0 2-.897 2-2V34c0-.065-.013-.126-.019-.189L73.346 83.48c-.382.347-.864.52-1.346.52s-.964-.173-1.346-.52L16.02 33.811c-.006.063-.019.124-.019.189v76c0 1.103.898 2 2 2z"/><path d="M124.026 32H19.974L72 79.297z"/></g><path opacity=".64" fill="#605E5C" d="M126 28H18c-3.309 0-6 2.691-6 6v76c0 3.309 2.691 6 6 6h108c3.309 0 6-2.691 6-6V34c0-3.309-2.691-6-6-6zm-1.974 4L72 79.297 19.974 32h104.052zM128 110c0 1.103-.897 2-2 2H18c-1.103 0-2-.897-2-2V34c0-.065.013-.126.019-.189L70.654 83.48c.382.347.864.52 1.346.52s.964-.173 1.346-.52l54.635-49.669c.006.063.019.124.019.189v76z"/></svg>