<svg xmlns="http://www.w3.org/2000/svg" viewBox="0 0 144 144"><g fill="#FFF"><path d="M16 44h112V34c0-1.103-.897-2-2-2H18c-1.103 0-2 .897-2 2v10zM18 112h108c1.103 0 2-.897 2-2V48H16v62c0 1.103.898 2 2 2z"/></g><circle fill="#C8C6C4" cx="22" cy="38" r="3"/><circle fill="#C8C6C4" cx="31" cy="38" r="3"/><circle fill="#C8C6C4" cx="40" cy="38" r="3"/><g fill="#C8C6C4"><path d="M83 71H54a2 2 0 1 1 0-4h29a2 2 0 1 1 0 4zM83 62H54a2 2 0 1 1 0-4h29a2 2 0 1 1 0 4zM83 80H54a2 2 0 1 1 0-4h29a2 2 0 1 1 0 4zM83 89H54a2 2 0 1 1 0-4h29a2 2 0 1 1 0 4zM83 98H54a2 2 0 1 1 0-4h29a2 2 0 1 1 0 4z"/></g><path fill="#69AFE5" d="M117 98H95a4 4 0 0 1-4-4V62a4 4 0 0 1 4-4h22a4 4 0 0 1 4 4v32a4 4 0 0 1-4 4z"/><path fill="#EDEBE9" d="M45 112H18a2 2 0 0 1-2-2V48h29v64z"/><g fill="#C8C6C4"><path d="M36 71H24a2 2 0 1 1 0-4h12a2 2 0 1 1 0 4zM36 62H24a2 2 0 1 1 0-4h12a2 2 0 1 1 0 4zM36 80H24a2 2 0 1 1 0-4h12a2 2 0 1 1 0 4z"/></g><path opacity=".64" fill="#605E5C" d="M126 28H18c-3.309 0-6 2.691-6 6v76c0 3.309 2.691 6 6 6h108c3.309 0 6-2.691 6-6V34c0-3.309-2.691-6-6-6zm2 82c0 1.103-.897 2-2 2H18c-1.103 0-2-.897-2-2V48h112v62zm0-66H16V34c0-1.103.897-2 2-2h108c1.103 0 2 .897 2 2v10z"/></svg>