<svg xmlns="http://www.w3.org/2000/svg" viewBox="0 0 144 144"><path fill="#FFB900" d="M68 35l-5.485-5.485A12 12 0 0 0 54.029 26H14a6 6 0 0 0-6 6v80a6 6 0 0 0 6 6h116a6 6 0 0 0 6-6V41a6 6 0 0 0-6-6H68z"/><path fill="#FFD75E" d="M68 35l-5.485 5.485A12 12 0 0 1 54.029 44H8v68a6 6 0 0 0 6 6h116a6 6 0 0 0 6-6V41a6 6 0 0 0-6-6H68z"/><linearGradient id="a" gradientUnits="userSpaceOnUse" x1="72" y1="35" x2="72" y2="118"><stop offset="0" stop-color="#fff" stop-opacity="0"/><stop offset=".999" stop-color="#ffd75e" stop-opacity=".3"/></linearGradient><path fill="url(#a)" d="M68 35l-5.485 5.485A12 12 0 0 1 54.029 44H8v68a6 6 0 0 0 6 6h116a6 6 0 0 0 6-6V41a6 6 0 0 0-6-6H68z"/><path fill="#E67628" d="M13 117a5.969 5.969 0 0 1-3.71-1.29A5.984 5.984 0 0 0 14 118h116a5.984 5.984 0 0 0 4.71-2.29A5.969 5.969 0 0 1 131 117H13z"/><path opacity=".4" fill="#FFF" d="M63.161 41.339L69.5 35H68l-5.485 5.485A12 12 0 0 1 54.029 44H8v1h46.322a12.5 12.5 0 0 0 8.84-3.661z"/><g><path fill="#BF5712" d="M122.36 99.798l3.39 10.855-8.75-6.726-8.75 6.726 3.39-10.855-8.64-6.645h10.719l3.281-10.5 3.281 10.5H131l-8.64 6.645zm.068 6.097c-.347-1.13-.693-2.253-1.04-3.37-.346-1.116-.702-2.24-1.066-3.37.939-.702 1.864-1.408 2.776-2.119.91-.71 1.832-1.422 2.761-2.133h-6.863L117 88.518l-1.996 6.385h-6.863c.93.711 1.85 1.422 2.761 2.133.911.711 1.837 1.417 2.776 2.12-.365 1.13-.72 2.253-1.067 3.37-.346 1.116-.693 2.24-1.039 3.37l5.428-4.184 5.428 4.183z"/></g></svg>