<svg xmlns="http://www.w3.org/2000/svg" viewBox="0 0 144 144"><g fill="#FFF"><path d="M28 132h88c1.103 0 2-.897 2-2V40H96c-3.309 0-6-2.691-6-6V12H28c-1.103 0-2 .897-2 2v116c0 1.102.898 2 2 2z"/><path d="M96 36h20.172L94 13.828V34c0 1.102.897 2 2 2z"/></g><path opacity=".64" fill="#605E5C" d="M120.242 34.414L95.586 9.758A5.958 5.958 0 0 0 91.343 8H28c-3.309 0-6 2.691-6 6v116c0 3.309 2.691 6 6 6h88c3.309 0 6-2.691 6-6V38.657a5.96 5.96 0 0 0-1.758-4.243zM116.172 36H96c-1.103 0-2-.897-2-2V13.828L116.172 36zM116 132H28c-1.103 0-2-.897-2-2V14c0-1.103.897-2 2-2h62v22c0 3.309 2.691 6 6 6h22v90c0 1.102-.897 2-2 2z"/><path fill="#FF5C0D" d="M81.492 92.051H56.7l-4.344 9.875c-1.07 2.43-1.606 4.245-1.606 5.444 0 .954.463 1.793 1.394 2.514.927.725 2.935 1.193 6.02 1.409V113H38v-1.707c2.676-.462 4.407-1.062 5.194-1.8 1.606-1.476 3.385-4.476 5.336-8.998L71.056 49h1.652l22.29 52.049c1.794 4.184 3.424 6.897 4.886 8.145 1.466 1.244 3.503 1.945 6.116 2.099V113H80.736v-1.707c2.55-.123 4.275-.539 5.17-1.246.9-.708 1.347-1.569 1.347-2.584 0-1.354-.63-3.492-1.89-6.414l-3.871-8.998zm-1.323-3.414L69.31 63.35 58.163 88.637h22.005z"/></svg>