<svg xmlns="http://www.w3.org/2000/svg" viewBox="0 0 144 144"><g fill="#FFF"><path d="M38 132h88c1.103 0 2-.897 2-2V40h-22c-3.309 0-6-2.691-6-6V12H38c-1.103 0-2 .897-2 2v116c0 1.102.898 2 2 2z"/><path d="M106 36h20.172L104 13.828V34c0 1.102.897 2 2 2z"/></g><path opacity=".64" fill="#605E5C" d="M130.242 34.414L105.586 9.758A5.958 5.958 0 0 0 101.343 8H38c-3.309 0-6 2.691-6 6v116c0 3.309 2.691 6 6 6h88c3.309 0 6-2.691 6-6V38.657a5.96 5.96 0 0 0-1.758-4.243zM126.172 36H106c-1.103 0-2-.897-2-2V13.828L126.172 36zM126 132H38c-1.103 0-2-.897-2-2V14c0-1.103.897-2 2-2h62v22c0 3.309 2.691 6 6 6h22v90c0 1.102-.897 2-2 2z"/><path fill="#038387" d="M18 110h50a6 6 0 0 0 6-6V54a6 6 0 0 0-6-6H18a6 6 0 0 0-6 6v50a6 6 0 0 0 6 6z"/><path fill="#FFF" d="M55 67H38v9h16v6H38v15h-6V61h23v6z"/><path fill="#1A9BA1" d="M112 54H79v4h33a2 2 0 0 1 2 2v1a2 2 0 0 1-2 2H79v4h33a6 6 0 0 0 6-6v-1a6 6 0 0 0-6-6z"/><path fill="#038387" d="M112 72H79v4h33a2 2 0 0 1 2 2v1a2 2 0 0 1-2 2H79v4h33a6 6 0 0 0 6-6v-1a6 6 0 0 0-6-6z"/><path fill="#036C70" d="M112 90H79v4h33a2 2 0 0 1 2 2v1a2 2 0 0 1-2 2H79v4h33a6 6 0 0 0 6-6v-1a6 6 0 0 0-6-6z"/></svg>