<svg xmlns="http://www.w3.org/2000/svg" viewBox="0 0 144 144"><g fill="#FFF"><path d="M16 44h112V34c0-1.103-.897-2-2-2H18c-1.103 0-2 .897-2 2v10zM18 112h108c1.103 0 2-.897 2-2V48H16v62c0 1.103.898 2 2 2z"/></g><path opacity=".64" fill="#605E5C" d="M126 28H18c-3.309 0-6 2.691-6 6v76c0 3.309 2.691 6 6 6h108c3.309 0 6-2.691 6-6V34c0-3.309-2.691-6-6-6zm2 82c0 1.103-.897 2-2 2H18c-1.103 0-2-.897-2-2V48h112v62zm0-66H16V34c0-1.103.897-2 2-2h108c1.103 0 2 .897 2 2v10z"/><circle fill="#C8C6C4" cx="22" cy="38" r="3"/><circle fill="#C8C6C4" cx="31" cy="38" r="3"/><circle fill="#C8C6C4" cx="40" cy="38" r="3"/><g fill="none" stroke="#69AFE5" stroke-width="4" stroke-miterlimit="10"><circle cx="72" cy="80" r="20"/><ellipse cx="72" cy="80" rx="9" ry="20"/><path d="M55 71h34M55 89h34"/></g></svg>