<svg xmlns="http://www.w3.org/2000/svg" viewBox="0 0 144 144"><path fill="#FFB900" d="M68 35l-5.485-5.485A12 12 0 0 0 54.029 26H14a6 6 0 0 0-6 6v80a6 6 0 0 0 6 6h116a6 6 0 0 0 6-6V41a6 6 0 0 0-6-6H68z"/><path fill="#FFD75E" d="M68 35l-5.485 5.485A12 12 0 0 1 54.029 44H8v68a6 6 0 0 0 6 6h116a6 6 0 0 0 6-6V41a6 6 0 0 0-6-6H68z"/><linearGradient id="a" gradientUnits="userSpaceOnUse" x1="72" y1="35" x2="72" y2="118"><stop offset="0" stop-color="#fff" stop-opacity="0"/><stop offset=".999" stop-color="#ffd75e" stop-opacity=".3"/></linearGradient><path fill="url(#a)" d="M68 35l-5.485 5.485A12 12 0 0 1 54.029 44H8v68a6 6 0 0 0 6 6h116a6 6 0 0 0 6-6V41a6 6 0 0 0-6-6H68z"/><path fill="#E67628" d="M13 117a5.969 5.969 0 0 1-3.71-1.29A5.984 5.984 0 0 0 14 118h116a5.984 5.984 0 0 0 4.71-2.29A5.969 5.969 0 0 1 131 117H13z"/><path opacity=".4" fill="#FFF" d="M63.161 41.339L69.5 35H68l-5.485 5.485A12 12 0 0 1 54.029 44H8v1h46.322a12.5 12.5 0 0 0 8.84-3.661z"/><g><path fill="#BF5712" d="M110.674 102.688v-1.76a8.61 8.61 0 0 0 2.058-.242 5.03 5.03 0 0 0 1.733-.77c.5-.353.898-.806 1.195-1.36.297-.556.445-1.232.445-2.03 0-.605-.12-1.173-.36-1.705s-.566-.997-.976-1.397a4.672 4.672 0 0 0-1.436-.948 4.396 4.396 0 0 0-1.754-.35h-7.242c-.623 0-1.207.116-1.754.35a4.67 4.67 0 0 0-1.436.948c-.41.4-.735.865-.976 1.397s-.36 1.1-.36 1.705c0 .798.148 1.474.445 2.03a3.878 3.878 0 0 0 1.195 1.36c.5.353 1.077.61 1.733.77a8.61 8.61 0 0 0 2.058.241v1.76h-.905c-.877 0-1.7-.162-2.469-.488a6.444 6.444 0 0 1-2.008-1.32 6.254 6.254 0 0 1-1.358-1.953 5.806 5.806 0 0 1-.502-2.4c0-.852.168-1.652.502-2.4a6.252 6.252 0 0 1 1.358-1.952 6.444 6.444 0 0 1 2.009-1.32 6.259 6.259 0 0 1 2.468-.49h7.242c.877 0 1.7.164 2.468.49a6.444 6.444 0 0 1 2.009 1.32 6.254 6.254 0 0 1 1.358 1.953c.334.747.502 1.547.502 2.4 0 .852-.168 1.652-.502 2.399a6.252 6.252 0 0 1-1.358 1.953c-.57.555-1.24.995-2.009 1.32a6.259 6.259 0 0 1-2.468.489h-.905zm9.053-7.042v1.76c.716 0 1.402.08 2.058.242a5.03 5.03 0 0 1 1.732.77c.5.352.899.806 1.196 1.36.297.556.445 1.232.445 2.03 0 .605-.12 1.173-.36 1.705s-.566.997-.977 1.396c-.41.398-.888.716-1.435.948a4.396 4.396 0 0 1-1.754.352h-7.242a4.398 4.398 0 0 1-1.754-.352 4.67 4.67 0 0 1-1.436-.948c-.41-.4-.736-.864-.976-1.396s-.36-1.1-.36-1.705c0-.798.148-1.474.445-2.03a3.878 3.878 0 0 1 1.195-1.36c.5-.353 1.077-.61 1.733-.77a8.61 8.61 0 0 1 2.058-.241v-1.76h-.906c-.876 0-1.7.162-2.468.488a6.444 6.444 0 0 0-2.008 1.32 6.254 6.254 0 0 0-1.358 1.953 5.801 5.801 0 0 0-.502 2.4c0 .852.167 1.652.502 2.399a6.252 6.252 0 0 0 1.358 1.953c.57.555 1.24.995 2.008 1.32a6.259 6.259 0 0 0 2.468.489h7.243c.877 0 1.7-.163 2.468-.489a6.444 6.444 0 0 0 2.009-1.32 6.254 6.254 0 0 0 1.358-1.953 5.801 5.801 0 0 0 .502-2.4c0-.852-.168-1.652-.502-2.399a6.253 6.253 0 0 0-1.358-1.953 6.444 6.444 0 0 0-2.009-1.32 6.259 6.259 0 0 0-2.468-.489h-.905z"/></g></svg>