<svg xmlns="http://www.w3.org/2000/svg" viewBox="0 0 144 144"><g fill="#FFF"><path d="M28 132h88c1.103 0 2-.897 2-2V40H96c-3.309 0-6-2.691-6-6V12H28c-1.103 0-2 .897-2 2v116c0 1.102.898 2 2 2z"/><path d="M96 36h20.172L94 13.828V34c0 1.102.897 2 2 2z"/></g><path opacity=".64" fill="#605E5C" d="M120.242 34.414L95.586 9.758A5.958 5.958 0 0 0 91.343 8H28c-3.309 0-6 2.691-6 6v116c0 3.309 2.691 6 6 6h88c3.309 0 6-2.691 6-6V38.657a5.96 5.96 0 0 0-1.758-4.243zM116.172 36H96c-1.103 0-2-.897-2-2V13.828L116.172 36zM116 132H28c-1.103 0-2-.897-2-2V14c0-1.103.897-2 2-2h62v22c0 3.309 2.691 6 6 6h22v90c0 1.102-.897 2-2 2z"/><path fill="none" stroke="#69AFE5" stroke-width="4" stroke-linecap="round" stroke-linejoin="round" stroke-miterlimit="10" d="M72 50L45 65.5v31L72 112l27-15.5v-31zM72 81v31M45.032 65.383l27 15.763M98.844 65.383l-27 15.763"/></svg>