<svg xmlns="http://www.w3.org/2000/svg" viewBox="0 0 144 144"><g fill="#FFF"><path d="M38 132h88c1.103 0 2-.897 2-2V40h-22c-3.309 0-6-2.691-6-6V12H38c-1.103 0-2 .897-2 2v116c0 1.102.898 2 2 2z"/><path d="M106 36h20.172L104 13.828V34c0 1.102.897 2 2 2z"/></g><path opacity=".64" fill="#605E5C" d="M130.242 34.414L105.586 9.758A5.958 5.958 0 0 0 101.343 8H38c-3.309 0-6 2.691-6 6v116c0 3.309 2.691 6 6 6h88c3.309 0 6-2.691 6-6V38.657a5.96 5.96 0 0 0-1.758-4.243zM126.172 36H106c-1.103 0-2-.897-2-2V13.828L126.172 36zM126 132H38c-1.103 0-2-.897-2-2V14c0-1.103.897-2 2-2h62v22c0 3.309 2.691 6 6 6h22v90c0 1.102-.897 2-2 2z"/><path fill="none" stroke="#C8C6C4" stroke-width="4" stroke-miterlimit="10" d="M112 115H64a4 4 0 0 1-4-4V54h52a4 4 0 0 1 4 4v53a4 4 0 0 1-4 4z"/><path fill="#8BBF8A" d="M102 69H74v-8h28a2 2 0 0 1 2 2v4a2 2 0 0 1-2 2zM102 82H74v-8h28a2 2 0 0 1 2 2v4a2 2 0 0 1-2 2zM87 87h27v8H87a2 2 0 0 1-2-2v-4a2 2 0 0 1 2-2zM101 108H69v-8h32a2 2 0 0 1 2 2v4a2 2 0 0 1-2 2z"/><path fill="#31752F" d="M18 110h50a6 6 0 0 0 6-6V54a6 6 0 0 0-6-6H18a6 6 0 0 0-6 6v50a6 6 0 0 0 6 6z"/><path fill="#F9F7F7" d="M45.003 61c4.202 0 7.418.951 9.65 2.853C56.885 65.755 58 68.509 58 72.116c0 2.315-.552 4.375-1.655 6.178s-2.673 3.204-4.708 4.205C49.6 83.5 47.242 84 44.56 84H37.92v13H31V61h14.003zM37.92 78H43.8c2.295 0 4.028-.522 5.199-1.568 1.171-1.045 1.757-2.572 1.757-4.58 0-3.901-2.245-5.852-6.736-5.852H37.92v12z"/></svg>