<svg xmlns="http://www.w3.org/2000/svg" viewBox="0 0 144 144"><g fill="#FFF"><path d="M122 120c0 3.309-2.691 6-6 6H46v4c0 1.103.897 2 2 2h78c1.103 0 2-.897 2-2V20h2v-1l-10-8v13h2v96z"/><path d="M38 122h78c1.103 0 2-.897 2-2V24H36v96c0 1.103.898 2 2 2z"/></g><path opacity=".64" fill="#605E5C" d="M128 20v110c0 1.103-.897 2-2 2H48c-1.103 0-2-.897-2-2v-4h70c3.309 0 6-2.691 6-6V24h-4v96c0 1.103-.897 2-2 2H38c-1.103 0-2-.897-2-2V24h-4v96c0 3.309 2.691 6 6 6h4v4c0 3.309 2.691 6 6 6h78c3.309 0 6-2.691 6-6V20h-4z"/><path fill="#31752F" d="M120.343 8H36a4 4 0 0 0-4 4v14h90v-6.172c0-1.781 2.154-2.674 3.414-1.414L132 25v-6.172a2 2 0 0 0-.586-1.414l-8.242-8.242A4 4 0 0 0 120.343 8z"/><path fill="none" stroke="#C8C6C4" stroke-width="4" stroke-miterlimit="10" d="M102 103H62V54h40a4 4 0 0 1 4 4v41a4 4 0 0 1-4 4z"/><path fill="#8BBF8A" d="M96 70H64v-8h32a2 2 0 0 1 2 2v4a2 2 0 0 1-2 2zM96 82H64v-8h32a2 2 0 0 1 2 2v4a2 2 0 0 1-2 2zM82 87h22v8H82a2 2 0 0 1-2-2v-4a2 2 0 0 1 2-2z"/><path fill="#31752F" d="M18 110h50a6 6 0 0 0 6-6V54a6 6 0 0 0-6-6H18a6 6 0 0 0-6 6v50a6 6 0 0 0 6 6z"/><path fill="#F9F7F7" d="M45.003 61c4.202 0 7.418.951 9.65 2.853C56.885 65.755 58 68.509 58 72.116c0 2.315-.552 4.375-1.655 6.178s-2.673 3.204-4.708 4.205C49.6 83.5 47.242 84 44.56 84H37.92v13H31V61h14.003zM37.92 78H43.8c2.295 0 4.028-.522 5.199-1.568 1.171-1.045 1.757-2.572 1.757-4.58 0-3.901-2.245-5.852-6.736-5.852H37.92v12z"/></svg>