<svg xmlns="http://www.w3.org/2000/svg" viewBox="0 0 144 144"><path fill="#FFF" d="M118 120V40H96c-3.309 0-6-2.692-6-6V12H39c-1.103 0-2 .897-2 2v106c0 1.103.897 2 2 2h77c1.103 0 2-.897 2-2z"/><path fill="#FFF" d="M29 132h79c1.103 0 2-.897 2-2v-4H39c-3.309 0-6-2.692-6-6V22h-4c-1.103 0-2 .897-2 2v106c0 1.103.898 2 2 2zM96 36h20.172L94 13.828V34c0 1.103.897 2 2 2z"/><path opacity=".64" fill="#605E5C" d="M120.242 34.414L95.586 9.758A5.96 5.96 0 0 0 91.343 8H39c-3.309 0-6 2.692-6 6v4h-4c-3.309 0-6 2.692-6 6v106c0 3.308 2.691 6 6 6h79c3.309 0 6-2.692 6-6v-4h2c3.309 0 6-2.692 6-6V38.657a5.961 5.961 0 0 0-1.758-4.243zM116.172 36H96c-1.103 0-2-.897-2-2V13.828L116.172 36zM110 130c0 1.103-.897 2-2 2H29c-1.103 0-2-.897-2-2V24c0-1.103.897-2 2-2h4v98c0 3.308 2.691 6 6 6h71v4zm6-8H39c-1.103 0-2-.897-2-2V14c0-1.103.897-2 2-2h51v22c0 3.308 2.691 6 6 6h22v80c0 1.103-.897 2-2 2z"/></svg>