<svg xmlns="http://www.w3.org/2000/svg" viewBox="0 0 144 144"><path opacity=".64" fill="#605E5C" d="M117 136H38c-3.309 0-6-2.691-6-6V14c0-3.309 2.691-6 6-6h79c3.309 0 6 2.691 6 6v116c0 3.309-2.691 6-6 6zM38 12c-1.103 0-2 .897-2 2v116c0 1.103.897 2 2 2h79c1.103 0 2-.897 2-2V14c0-1.103-.897-2-2-2H38z"/><path fill="#AE4BD5" d="M128 70h-5V47h5a4 4 0 0 1 4 4v15a4 4 0 0 1-4 4z"/><path fill="#CA64EA" d="M128 43h-5V20h5a4 4 0 0 1 4 4v15a4 4 0 0 1-4 4z"/><path fill="#9332BF" d="M128 97h-5V74h5a4 4 0 0 1 4 4v15a4 4 0 0 1-4 4z"/><path fill="#7719AA" d="M128 124h-5v-23h5a4 4 0 0 1 4 4v15a4 4 0 0 1-4 4z"/><path fill="#FFF" d="M38 132h79c1.103 0 2-.897 2-2V14c0-1.103-.897-2-2-2H38c-1.103 0-2 .897-2 2v116c0 1.103.898 2 2 2z"/><path fill="#7719AA" d="M18 110h50a6 6 0 0 0 6-6V54a6 6 0 0 0-6-6H18a6 6 0 0 0-6 6v50a6 6 0 0 0 6 6z"/><path fill="#F9F7F7" d="M27 60h8.103l15.635 25.264c.711 1.133 1.245 2.045 1.601 2.736h.102c-.153-.956-.229-2.683-.229-5.18V60H59v38h-7.5L35.17 72.623c-.683-1.073-1.169-1.948-1.459-2.623h-.128c.137 1.143.205 2.996.205 5.558V98H27V60z"/></svg>