<svg xmlns="http://www.w3.org/2000/svg" viewBox="0 0 144 144"><path opacity=".64" fill="#605E5C" d="M126.286 24H42.714C39.564 24 37 26.548 37 29.68v84.64c0 3.132 2.563 5.68 5.714 5.68h83.572c3.15 0 5.714-2.548 5.714-5.68V29.68c0-3.132-2.564-5.68-5.714-5.68zm-83.572 4h83.572c.945 0 1.714.754 1.714 1.68V40H41V29.68c0-.926.769-1.68 1.714-1.68zm83.572 88H42.714c-.945 0-1.714-.754-1.714-1.68V44h87v70.32c0 .926-.769 1.68-1.714 1.68z"/><g fill="#FFF"><path d="M41 114.32c0 .926.769 1.68 1.714 1.68h83.572c.946 0 1.714-.754 1.714-1.68V44H41v70.32zM128 29.68c0-.926-.769-1.68-1.714-1.68H42.714c-.945 0-1.714.754-1.714 1.68V40h87V29.68z"/></g><path fill="#C8C6C4" d="M116.139 89H52.86C51.833 89 51 89.895 51 91s.833 2 1.861 2h63.278c1.028 0 1.861-.895 1.861-2s-.833-2-1.861-2zM116.139 99H52.86c-1.028 0-1.861.895-1.861 2s.833 2 1.861 2h63.278c1.028 0 1.86-.895 1.86-2s-.832-2-1.86-2z"/><g fill="#C8C6C4"><circle cx="48.375" cy="34.375" r="2.375"/><circle cx="57.5" cy="34.375" r="2.375"/><circle cx="66.625" cy="34.375" r="2.375"/></g><g fill="none" stroke="#C8C6C4" stroke-width="4" stroke-miterlimit="10"><path d="M80 72l9.142-10.466M96.432 61.534L106 71"/><circle cx="75.915" cy="76.172" r="5.328"/><circle cx="110.172" cy="74.76" r="5.328"/><circle cx="92.226" cy="57.328" r="5.328"/></g><path fill="#F2C80F" d="M18 110h50a6 6 0 0 0 6-6V54a6 6 0 0 0-6-6H18a6 6 0 0 0-6 6v50a6 6 0 0 0 6 6z"/><path fill="#333" d="M56 94c-1.1 0-2-.9-2-2V66c0-1.1.9-2 2-2s2 .9 2 2v26c0 1.1-.9 2-2 2zM47 94c-1.1 0-2-.9-2-2V77.25c0-1.1.9-2 2-2s2 .9 2 2V92c0 1.1-.9 2-2 2zM38 94c-1.1 0-2-.9-2-2V72.75c0-1.1.9-2 2-2s2 .9 2 2V92c0 1.1-.9 2-2 2zM29 94c-1.1 0-2-.9-2-2v-7.25c0-1.1.9-2 2-2s2 .9 2 2V92c0 1.1-.9 2-2 2z"/></svg>