<svg xmlns="http://www.w3.org/2000/svg" viewBox="0 0 144 144"><path fill="#FFF" d="M28 132h88c1.103 0 2-.897 2-2V40H96c-3.309 0-6-2.691-6-6V12H28c-1.103 0-2 .897-2 2v116c0 1.102.898 2 2 2z"/><path fill="#FFF" d="M96 36h20.172L94 13.828V34c0 1.102.897 2 2 2z"/><path opacity=".64" fill="#605E5C" d="M120.242 34.414L95.586 9.758A5.958 5.958 0 0 0 91.343 8H28c-3.309 0-6 2.691-6 6v116c0 3.309 2.691 6 6 6h88c3.309 0 6-2.691 6-6V38.657a5.96 5.96 0 0 0-1.758-4.243zM116.172 36H96c-1.103 0-2-.897-2-2V13.828L116.172 36zM116 132H28c-1.103 0-2-.897-2-2V14c0-1.103.897-2 2-2h62v22c0 3.309 2.691 6 6 6h22v90c0 1.102-.897 2-2 2z"/><path fill="#C8C6C4" d="M106 66H38a2 2 0 1 1 0-4h68a2 2 0 1 1 0 4zM106 57H38a2 2 0 1 1 0-4h68a2 2 0 1 1 0 4zM106 84H38a2 2 0 1 1 0-4h68a2 2 0 1 1 0 4zM106 75H38a2 2 0 1 1 0-4h68a2 2 0 1 1 0 4z"/><path fill="#D65532" d="M47 120a1 1 0 0 1-1 1H21.933c-1.104-.003-1.936-.97-1.933-2.075v-22c.003-1.104.9-1.928 2.004-1.925H46a1 1 0 0 1 1 1v24zM97 96a1 1 0 0 1 1-1h24.067c1.104.003 1.936.97 1.933 2.075v22c-.003 1.104-.9 1.928-2.004 1.925H98a1 1 0 0 1-1-1V96zM90 124H54c-2.206 0-4-1.794-4-4V96c0-2.206 1.794-4 4-4h36c2.206 0 4 1.794 4 4v24c0 2.206-1.794 4-4 4zM54 97v22a1 1 0 0 0 1 1h34.003a1 1 0 0 0 1-1L90 97a1 1 0 0 0-1-1H55a1 1 0 0 0-1 1z"/></svg>