<svg xmlns="http://www.w3.org/2000/svg" viewBox="0 0 144 144"><path fill="#FFF" d="M23.166 114.5c9.78-2.822 26.145-7.545 48.334-7.545 21.05 0 38.227 4.708 48.491 7.52 2.18.598 4.063 1.113 5.573 1.471a1.898 1.898 0 0 0 1.638-.368c.507-.4.798-1.014.798-1.683V30.103c0-.669-.292-1.281-.8-1.681a1.906 1.906 0 0 0-1.656-.366c-1.439.348-3.214.842-5.27 1.415-10.123 2.817-27.067 7.533-48.607 7.533-22.307 0-38.712-4.727-48.514-7.552-1.824-.525-3.4-.98-4.696-1.309a1.883 1.883 0 0 0-1.644.35A2.127 2.127 0 0 0 16 30.19v83.579c0 .676.296 1.294.813 1.696.277.216.86.548 1.644.35 1.3-.331 2.88-.787 4.709-1.315z"/><circle fill="none" stroke="#FF9810" stroke-width="4" stroke-miterlimit="10" cx="111" cy="53" r="9"/><path fill="#A6CCC3" d="M128 103.95L99.036 78.105a7.613 7.613 0 0 0-10.276-.002L77.165 88.645a5.961 5.961 0 0 1-4.491 1.52 5.948 5.948 0 0 1-4.091-2.158l-24.33-24.72c-2.807-2.59-7.177-2.649-10.123-.082L16 81.43v-5.671l15.435-15.51a11.602 11.602 0 0 1 15.601.166l24.62 25.031c.334.428.816.689 1.357.735a1.92 1.92 0 0 0 1.462-.495l11.593-10.54a11.594 11.594 0 0 1 15.642-.013L128 98.589v5.36z"/><path fill="#605E5C" d="M126.015 120c-.457 0-.917-.053-1.373-.162-1.578-.374-3.493-.898-5.707-1.505-10.07-2.76-26.923-7.378-47.435-7.378-21.622 0-37.65 4.625-47.225 7.388-1.86.538-3.47 1.002-4.832 1.348a5.88 5.88 0 0 1-5.086-1.068A6.1 6.1 0 0 1 12 113.769v-83.58a6.1 6.1 0 0 1 2.357-4.854 5.873 5.873 0 0 1 5.084-1.069c1.36.345 2.963.808 4.82 1.343 9.598 2.766 25.664 7.395 47.406 7.395 20.994 0 37.608-4.624 47.535-7.387 2.091-.582 3.897-1.084 5.4-1.448a5.906 5.906 0 0 1 5.07 1.109A6.097 6.097 0 0 1 132 30.103v83.792c0 1.9-.845 3.657-2.317 4.821a5.905 5.905 0 0 1-3.668 1.284zM71.5 106.955c21.05 0 38.227 4.708 48.491 7.52 2.18.598 4.063 1.113 5.573 1.471a1.898 1.898 0 0 0 1.638-.368c.507-.4.798-1.014.798-1.683V30.103c0-.669-.292-1.281-.8-1.681a1.906 1.906 0 0 0-1.656-.366c-1.439.348-3.214.842-5.27 1.415-10.123 2.817-27.067 7.533-48.607 7.533-22.307 0-38.712-4.727-48.514-7.552-1.824-.525-3.4-.98-4.696-1.309a1.883 1.883 0 0 0-1.644.35A2.127 2.127 0 0 0 16 30.19v83.579c0 .676.296 1.294.813 1.696.277.216.86.548 1.644.35 1.3-.331 2.88-.787 4.709-1.315 9.78-2.822 26.146-7.545 48.334-7.545z" opacity=".64"/></svg>