<svg xmlns="http://www.w3.org/2000/svg" viewBox="0 0 144 144"><path fill="#FFF" d="M18 128h108c1.103 0 2-.897 2-2V18c0-1.103-.897-2-2-2H18c-1.103 0-2 .897-2 2v108c0 1.103.898 2 2 2z"/><circle fill="none" stroke="#FF9810" stroke-width="4" stroke-miterlimit="10" cx="99" cy="50" r="9"/><path fill="none" stroke="#A6CCC3" stroke-width="4" stroke-miterlimit="10" d="M106.742 94.547l-14.474-17.41c-2.087-2.405-5.874-2.405-7.961 0L78.56 83.69c-1.127 1.285-3.191 1.164-4.154-.242L63.508 68.803c-2.088-2.404-5.874-2.404-7.962 0L37.258 94.547C34.367 97.877 36.78 103 41.24 103H102.761c4.46 0 6.872-5.123 3.98-8.453z"/><path opacity=".64" fill="#605E5C" d="M126 132H18c-3.309 0-6-2.692-6-6V18c0-3.308 2.691-6 6-6h108c3.309 0 6 2.692 6 6v108c0 3.308-2.691 6-6 6zM18 16c-1.103 0-2 .897-2 2v108c0 1.103.897 2 2 2h108c1.103 0 2-.897 2-2V18c0-1.103-.897-2-2-2H18z"/></svg>