<svg xmlns="http://www.w3.org/2000/svg" viewBox="0 0 144 144"><path fill="#FFB900" d="M67 35l-5.485-5.485A12 12 0 0 0 53.029 26H13a6 6 0 0 0-6 6v80a6 6 0 0 0 6 6h116a6 6 0 0 0 6-6V41a6 6 0 0 0-6-6H67z"/><path fill="#FFD75E" d="M67 35l-5.485 5.485A12 12 0 0 1 53.029 44H7v68a6 6 0 0 0 6 6h116a6 6 0 0 0 6-6V41a6 6 0 0 0-6-6H67z"/><linearGradient id="a" gradientUnits="userSpaceOnUse" x1="71" y1="35" x2="71" y2="118"><stop offset="0" stop-color="#fff" stop-opacity="0"/><stop offset=".999" stop-color="#ffd75e" stop-opacity=".3"/></linearGradient><path fill="url(#a)" d="M67 35l-5.485 5.485A12 12 0 0 1 53.029 44H7v68a6 6 0 0 0 6 6h116a6 6 0 0 0 6-6V41a6 6 0 0 0-6-6H67z"/><path fill="#E67628" d="M12 117a5.969 5.969 0 0 1-3.71-1.29A5.984 5.984 0 0 0 13 118h116a5.984 5.984 0 0 0 4.71-2.29A5.969 5.969 0 0 1 130 117H12z"/><path opacity=".4" fill="#FFF" d="M62.161 41.339L68.5 35H67l-5.485 5.485A12 12 0 0 1 53.029 44H7v1h46.322a12.5 12.5 0 0 0 8.84-3.661z"/><g><path fill="#BF5712" d="M127 92v17h-23V92h23zm-21.563 1.417v7.493l5.032-4.948 7.187 7.084 2.875-2.834 5.031 4.948V93.417h-20.124zm0 14.166h14.791l-9.76-9.629-5.03 4.97v4.66zm20.126 0v-.41l-5.032-4.969-1.864 1.838 3.605 3.541h3.29zM122 97.975a.97.97 0 0 1-.703-.292.944.944 0 0 1-.297-.694c0-.266.1-.498.297-.694.198-.194.432-.291.703-.291s.505.097.703.291a.944.944 0 0 1 .297.694c0 .267-.1.498-.297.694a.97.97 0 0 1-.703.292z"/></g></svg>