<svg xmlns="http://www.w3.org/2000/svg" viewBox="0 0 144 144"><g fill="#FFF"><path d="M122 120c0 3.309-2.691 6-6 6H46v4c0 1.103.897 2 2 2h78c1.103 0 2-.897 2-2V20h2v-1l-10-8v13h2v96z"/><path d="M38 122h78c1.103 0 2-.897 2-2V24H36v96c0 1.103.898 2 2 2z"/></g><path opacity=".64" fill="#605E5C" d="M128 20v110c0 1.103-.897 2-2 2H48c-1.103 0-2-.897-2-2v-4h70c3.309 0 6-2.691 6-6V24h-4v96c0 1.103-.897 2-2 2H38c-1.103 0-2-.897-2-2V24h-4v96c0 3.309 2.691 6 6 6h4v4c0 3.309 2.691 6 6 6h78c3.309 0 6-2.691 6-6V20h-4z"/><path fill="#FF8F6B" d="M122 8.372A3.986 3.986 0 0 0 120.343 8H36a4 4 0 0 0-4 4v10l2 2h86l2-2v-4l1-1v-6l-1-2.628z"/><path fill="#ED6C47" d="M125.414 18.414L132 25v-6.172a2 2 0 0 0-.586-1.414l-8.242-8.242a3.988 3.988 0 0 0-1.172-.8v11.457c0-1.782 2.154-2.675 3.414-1.415zM32 22h90v4H32zM88.833 80L88 79h-8l-1 1v18.55a20.896 20.896 0 0 0 9.833 2.45c11.598 0 21-9.402 21-21h-21z"/><path fill="#FF8F6B" d="M79 61.53V80h10V59c-3.62 0-7.027.917-10 2.53z"/><path fill="#FFC7B5" d="M92 56v21h21c0-11.598-9.402-21-21-21"/><g><path fill="#C43E1C" d="M19 110h48a7 7 0 0 0 7-7V55a7 7 0 0 0-7-7H19a7 7 0 0 0-7 7v48a7 7 0 0 0 7 7z"/><path fill="#F9F7F7" d="M45.003 61c4.202 0 7.418.951 9.65 2.853C56.885 65.755 58 68.509 58 72.116c0 2.315-.552 4.375-1.655 6.178s-2.673 3.204-4.708 4.205C49.6 83.5 47.242 84 44.56 84H37.92v13H31V61h14.003zM37.92 78H43.8c2.295 0 4.028-.522 5.199-1.568 1.171-1.045 1.757-2.572 1.757-4.58 0-3.901-2.245-5.852-6.736-5.852H37.92v12z"/></g></svg>