<svg xmlns="http://www.w3.org/2000/svg" viewBox="0 0 144 144"><g fill="#FFF"><path d="M38 132h88c1.103 0 2-.897 2-2V40h-22c-3.309 0-6-2.691-6-6V12H38c-1.103 0-2 .897-2 2v116c0 1.102.898 2 2 2z"/><path d="M106 36h20.172L104 13.828V34c0 1.102.897 2 2 2z"/></g><path opacity=".64" fill="#605E5C" d="M130.242 34.414L105.586 9.758A5.958 5.958 0 0 0 101.343 8H38c-3.309 0-6 2.691-6 6v116c0 3.309 2.691 6 6 6h88c3.309 0 6-2.691 6-6V38.657a5.96 5.96 0 0 0-1.758-4.243zM126.172 36H106c-1.103 0-2-.897-2-2V13.828L126.172 36zM126 132H38c-1.103 0-2-.897-2-2V14c0-1.103.897-2 2-2h62v22c0 3.309 2.691 6 6 6h22v90c0 1.102-.897 2-2 2z"/><path fill="#C8C6C4" d="M116 112H47a2 2 0 0 0 0 4h69a2 2 0 0 0 0-4zM116 104H47a2 2 0 0 0 0 4h69a2 2 0 0 0 0-4z"/><path fill="none" stroke="#C8C6C4" stroke-width="4" stroke-miterlimit="10" d="M76 82l11.142-17.466M94.432 64.534l10.233 13.179"/><circle fill="none" stroke="#C8C6C4" stroke-width="4" stroke-miterlimit="10" cx="73.915" cy="86.172" r="5.328"/><circle fill="none" stroke="#C8C6C4" stroke-width="4" stroke-miterlimit="10" cx="108.172" cy="82.76" r="5.328"/><circle fill="none" stroke="#C8C6C4" stroke-width="4" stroke-miterlimit="10" cx="90.226" cy="60.328" r="5.328"/><path fill="#F2C80F" d="M19 110h48a7 7 0 0 0 7-7V55a7 7 0 0 0-7-7H19a7 7 0 0 0-7 7v48a7 7 0 0 0 7 7z"/><path fill="#333" d="M56 95c-1.1 0-2-.9-2-2V67c0-1.1.9-2 2-2s2 .9 2 2v26c0 1.1-.9 2-2 2zM47 95c-1.1 0-2-.9-2-2V78.25c0-1.1.9-2 2-2s2 .9 2 2V93c0 1.1-.9 2-2 2zM38 95c-1.1 0-2-.9-2-2V73.75c0-1.1.9-2 2-2s2 .9 2 2V93c0 1.1-.9 2-2 2zM29 95c-1.1 0-2-.9-2-2v-7.25c0-1.1.9-2 2-2s2 .9 2 2V93c0 1.1-.9 2-2 2z"/></svg>