<svg xmlns="http://www.w3.org/2000/svg" viewBox="0 0 144 144"><g fill="#FFF"><path d="M38 132h88c1.103 0 2-.897 2-2V40h-22c-3.309 0-6-2.691-6-6V12H38c-1.103 0-2 .897-2 2v116c0 1.102.898 2 2 2z"/><path d="M106 36h20.172L104 13.828V34c0 1.102.897 2 2 2z"/></g><path opacity=".64" fill="#605E5C" d="M130.242 34.414L105.586 9.758A5.958 5.958 0 0 0 101.343 8H38c-3.309 0-6 2.691-6 6v116c0 3.309 2.691 6 6 6h88c3.309 0 6-2.691 6-6V38.657a5.96 5.96 0 0 0-1.758-4.243zM126.172 36H106c-1.103 0-2-.897-2-2V13.828L126.172 36zM126 132H38c-1.103 0-2-.897-2-2V14c0-1.103.897-2 2-2h62v22c0 3.309 2.691 6 6 6h22v90c0 1.102-.897 2-2 2z"/><path fill="#ED6C47" d="M96 79l-1-1H80l-1 1v12.517c3.828 5.14 9.932 8.483 16.833 8.483 11.598 0 21-9.402 21-21H96z"/><path fill="#FF8F6B" d="M79 66.706V79h17V58c-7 0-13.184 3.44-17 8.706z"/><path fill="#FFC7B5" d="M99 55v21h21c0-11.598-9.402-21-21-21z"/><g><path fill="#C43E1C" d="M19 110h48a7 7 0 0 0 7-7V55a7 7 0 0 0-7-7H19a7 7 0 0 0-7 7v48a7 7 0 0 0 7 7z"/><path fill="#F9F7F7" d="M45.003 61c4.202 0 7.418.951 9.65 2.853C56.885 65.755 58 68.509 58 72.116c0 2.315-.552 4.375-1.655 6.178s-2.673 3.204-4.708 4.205C49.6 83.5 47.242 84 44.56 84H37.92v13H31V61h14.003zM37.92 78H43.8c2.295 0 4.028-.522 5.199-1.568 1.171-1.045 1.757-2.572 1.757-4.58 0-3.901-2.245-5.852-6.736-5.852H37.92v12z"/></g></svg>