<svg xmlns="http://www.w3.org/2000/svg" viewBox="0 0 144 144"><g fill="#FFF"><path d="M18 112h108c1.103 0 2-.897 2-2V60h-22c-3.309 0-6-2.692-6-6V32H18c-1.103 0-2 .897-2 2v76c0 1.103.898 2 2 2z"/><path d="M106 56h20.172L104 33.828V54c0 1.103.897 2 2 2z"/></g><path opacity=".64" fill="#605E5C" d="M130.242 54.414l-24.656-24.656A5.96 5.96 0 0 0 101.343 28H18c-3.309 0-6 2.692-6 6v76c0 3.308 2.691 6 6 6h108c3.309 0 6-2.692 6-6V58.657a5.961 5.961 0 0 0-1.758-4.243zM126.172 56H106c-1.103 0-2-.897-2-2V33.828L126.172 56zM126 112H18c-1.103 0-2-.897-2-2V34c0-1.103.897-2 2-2h82v22c0 3.308 2.691 6 6 6h22v50c0 1.103-.897 2-2 2z"/><g fill="#C8C6C4"><path d="M53 67H28a2 2 0 1 1 0-4h25a2 2 0 1 1 0 4zM53 58H28a2 2 0 1 1 0-4h25a2 2 0 1 1 0 4zM53 76H28a2 2 0 1 1 0-4h25a2 2 0 1 1 0 4zM53 85H28a2 2 0 1 1 0-4h25a2 2 0 1 1 0 4zM53 94H28a2 2 0 1 1 0-4h25a2 2 0 1 1 0 4zM53 102H28a2 2 0 1 1 0-4h25a2 2 0 1 1 0 4z"/></g><path fill="#B7472A" d="M84 58c8.837 0 16 7.163 16 16H84V58z"/><path fill="#C8C6C4" d="M100 78c0 11.046-8.954 20-20 20s-20-8.954-20-20 8.954-20 20-20v20h20z"/></svg>