<svg xmlns="http://www.w3.org/2000/svg" viewBox="0 0 144 144"><path fill="#FFB900" d="M65 35l-5.485-5.485A12 12 0 0 0 51.029 26H11a6 6 0 0 0-6 6v80a6 6 0 0 0 6 6h116a6 6 0 0 0 6-6V41a6 6 0 0 0-6-6H65z"/><path fill="#FFD75E" d="M65 35l-5.485 5.485A12 12 0 0 1 51.029 44H5v68a6 6 0 0 0 6 6h116a6 6 0 0 0 6-6V41a6 6 0 0 0-6-6H65z"/><linearGradient id="a" gradientUnits="userSpaceOnUse" x1="69" y1="35" x2="69" y2="118"><stop offset="0" stop-color="#fff" stop-opacity="0"/><stop offset=".999" stop-color="#ffd75e" stop-opacity=".3"/></linearGradient><path fill="url(#a)" d="M65 35l-5.485 5.485A12 12 0 0 1 51.029 44H5v68a6 6 0 0 0 6 6h116a6 6 0 0 0 6-6V41a6 6 0 0 0-6-6H65z"/><path fill="#E67628" d="M10 117a5.969 5.969 0 0 1-3.71-1.29A5.984 5.984 0 0 0 11 118h116a5.984 5.984 0 0 0 4.71-2.29A5.969 5.969 0 0 1 128 117H10z"/><path opacity=".4" fill="#FFF" d="M60.161 41.339L66.5 35H65l-5.485 5.485A12 12 0 0 1 51.029 44H5v1h46.322a12.5 12.5 0 0 0 8.84-3.661z"/><g><path fill="#BF5712" d="M122.973 109.014a.996.996 0 0 1-.706-.292l-21.062-20.98a1 1 0 1 1 1.411-1.416l21.062 20.98a1 1 0 0 1-.705 1.708zM111.792 92.48l5.576-5.576 1.414 1.414-5.576 5.576zM101.988 109.012a1 1 0 0 1-.97-1.243l1.437-5.75a.997.997 0 0 1 .263-.464l4.857-4.857 1.414 1.414-4.66 4.661-.967 3.865 3.865-.966 4.503-4.504 1.414 1.414-4.699 4.7a.997.997 0 0 1-.464.263l-5.75 1.438c-.081.02-.162.03-.243.03z"/><path fill="#BF5712" d="M107.093 106.498c-.679-2.66-3.607-3.594-3.636-3.603l.58-1.914c.165.05 4.032 1.254 4.993 5.023l-1.937.494zM116.356 96.54l5.325-5.324 1.414 1.415-5.325 5.324z"/><path fill="#BF5712" d="M123.095 92.63l-1.414-1.413c.387-.387.6-.902.6-1.45s-.213-1.06-.6-1.448c-.774-.775-2.123-.775-2.898 0l-1.414-1.414c.765-.765 1.782-1.186 2.863-1.186s2.098.421 2.863 1.186 1.186 1.781 1.186 2.863-.42 2.098-1.186 2.863zM116.104 89.582l1.414-1.414 4.313 4.313-1.414 1.414z"/></g></svg>