<svg xmlns="http://www.w3.org/2000/svg" viewBox="0 0 144 144"><g fill="#FFF"><path d="M28 132h88c1.103 0 2-.897 2-2V40H96c-3.309 0-6-2.691-6-6V12H28c-1.103 0-2 .897-2 2v116c0 1.102.898 2 2 2z"/><path d="M96 36h20.172L94 13.828V34c0 1.102.897 2 2 2z"/></g><path opacity=".64" fill="#605E5C" d="M120.242 34.414L95.586 9.758A5.958 5.958 0 0 0 91.343 8H28c-3.309 0-6 2.691-6 6v116c0 3.309 2.691 6 6 6h88c3.309 0 6-2.691 6-6V38.657a5.96 5.96 0 0 0-1.758-4.243zM116.172 36H96c-1.103 0-2-.897-2-2V13.828L116.172 36zM116 132H28c-1.103 0-2-.897-2-2V14c0-1.103.897-2 2-2h62v22c0 3.309 2.691 6 6 6h22v90c0 1.102-.897 2-2 2z"/><path fill="#C8C6C4" d="M68 101H38a2 2 0 1 1 0-4h30a2 2 0 1 1 0 4zM68 110H38a2 2 0 1 1 0-4h30a2 2 0 1 1 0 4z"/><path fill="#0078D7" d="M106 83H38a2 2 0 1 1 0-4h68a2 2 0 1 1 0 4z"/><path fill="#C8C6C4" d="M68 92H38a2 2 0 1 1 0-4h30a2 2 0 1 1 0 4z"/><path fill="#69AFE5" d="M104 110H78a4 4 0 0 1-4-4V92a4 4 0 0 1 4-4h26a4 4 0 0 1 4 4v14a4 4 0 0 1-4 4z"/><path fill="#0078D7" d="M60 74h-5.254l-2.088-5.452h-9.56L41.122 74H36l9.316-24h5.107L60 74zm-8.892-9.495l-3.296-8.906-3.23 8.906h6.526z"/><path fill="#69AFE5" d="M106 65H66a2 2 0 1 1 0-4h40a2 2 0 1 1 0 4zM106 74H66a2 2 0 1 1 0-4h40a2 2 0 1 1 0 4z"/></svg>