<svg xmlns="http://www.w3.org/2000/svg" viewBox="0 0 144 144"><path fill="#FFB900" d="M68 35l-5.485-5.485A12 12 0 0 0 54.029 26H14a6 6 0 0 0-6 6v80a6 6 0 0 0 6 6h116a6 6 0 0 0 6-6V41a6 6 0 0 0-6-6H68z"/><path fill="#FFD75E" d="M68 35l-5.485 5.485A12 12 0 0 1 54.029 44H8v68a6 6 0 0 0 6 6h116a6 6 0 0 0 6-6V41a6 6 0 0 0-6-6H68z"/><linearGradient id="a" gradientUnits="userSpaceOnUse" x1="72" y1="35" x2="72" y2="118"><stop offset="0" stop-color="#fff" stop-opacity="0"/><stop offset=".999" stop-color="#ffd75e" stop-opacity=".3"/></linearGradient><path fill="url(#a)" d="M68 35l-5.485 5.485A12 12 0 0 1 54.029 44H8v68a6 6 0 0 0 6 6h116a6 6 0 0 0 6-6V41a6 6 0 0 0-6-6H68z"/><path fill="#E67628" d="M13 117a5.969 5.969 0 0 1-3.71-1.29A5.984 5.984 0 0 0 14 118h116a5.984 5.984 0 0 0 4.71-2.29A5.969 5.969 0 0 1 131 117H13z"/><path opacity=".4" fill="#FFF" d="M63.161 41.339L69.5 35H68l-5.485 5.485A12 12 0 0 1 54.029 44H8v1h46.322a12.5 12.5 0 0 0 8.84-3.661z"/><g><path fill="#BF5712" d="M124.172 95.121a6.116 6.116 0 0 1 2.426 2.22c.289.466.511.966.668 1.5s.234 1.089.234 1.659H126c0-.617-.12-1.2-.357-1.746s-.56-1.024-.967-1.43-.883-.728-1.43-.967S122.117 96 121.5 96s-1.2.12-1.746.357-1.024.56-1.43.967-.728.883-.967 1.43S117 99.883 117 100.5c0 .71-.162 1.387-.486 2.027s-.772 1.172-1.342 1.594a6.116 6.116 0 0 1 2.426 2.22c.289.466.511.966.668 1.5s.234 1.089.234 1.659H117c0-.617-.12-1.2-.357-1.746s-.56-1.024-.967-1.43-.883-.728-1.43-.967-1.129-.357-1.746-.357-1.2.12-1.746.357-1.024.56-1.43.967-.728.883-.967 1.43-.357 1.129-.357 1.746h-1.5c0-.57.078-1.123.234-1.658a6.014 6.014 0 0 1 1.717-2.766c.41-.379.87-.697 1.377-.955-.57-.422-1.017-.953-1.342-1.594S108 101.211 108 100.5c0-.617.12-1.2.357-1.746s.56-1.024.967-1.43.883-.728 1.43-.967S111.883 96 112.5 96c.71 0 1.387.162 2.027.486s1.172.772 1.594 1.342a6.115 6.115 0 0 1 2.707-2.707c-.57-.422-1.017-.953-1.342-1.594S117 92.211 117 91.5c0-.617.12-1.2.357-1.746s.56-1.024.967-1.43.883-.728 1.43-.967S120.883 87 121.5 87s1.2.12 1.746.357 1.024.56 1.43.967.728.883.967 1.43.357 1.129.357 1.746c0 .71-.162 1.387-.486 2.027s-.772 1.172-1.342 1.594zM112.5 103.5c.406 0 .793-.08 1.16-.24s.686-.375.955-.645.485-.586.645-.949.24-.752.24-1.166c0-.406-.08-.793-.24-1.16s-.375-.686-.645-.955-.588-.485-.955-.645-.754-.24-1.16-.24c-.414 0-.803.08-1.166.24s-.68.375-.95.645-.484.588-.644.955-.24.754-.24 1.16c0 .414.08.803.24 1.166s.375.68.645.95.586.484.949.644.752.24 1.166.24zm6-12c0 .414.08.803.24 1.166s.375.68.645.95.586.484.949.644.752.24 1.166.24c.406 0 .793-.08 1.16-.24s.686-.375.955-.645.485-.586.645-.949.24-.752.24-1.166c0-.406-.08-.793-.24-1.16s-.375-.686-.645-.955-.588-.485-.955-.645-.754-.24-1.16-.24c-.414 0-.803.08-1.166.24s-.68.375-.95.645-.484.588-.644.955-.24.754-.24 1.16z"/></g></svg>