<svg xmlns="http://www.w3.org/2000/svg" viewBox="0 0 144 144"><g fill="#FFF"><path d="M38 132h88c1.103 0 2-.897 2-2V40h-22c-3.309 0-6-2.691-6-6V12H38c-1.103 0-2 .897-2 2v116c0 1.102.898 2 2 2z"/><path d="M106 36h20.172L104 13.828V34c0 1.102.897 2 2 2z"/></g><path opacity=".64" fill="#605E5C" d="M130.242 34.414L105.586 9.758A5.958 5.958 0 0 0 101.343 8H38c-3.309 0-6 2.691-6 6v116c0 3.309 2.691 6 6 6h88c3.309 0 6-2.691 6-6V38.657a5.96 5.96 0 0 0-1.758-4.243zM126.172 36H106c-1.103 0-2-.897-2-2V13.828L126.172 36zM126 132H38c-1.103 0-2-.897-2-2V14c0-1.103.897-2 2-2h62v22c0 3.309 2.691 6 6 6h22v90c0 1.102-.897 2-2 2z"/><path fill="#C8C6C4" d="M116 98H74v-4h42a2 2 0 1 1 0 4z"/><path fill="#81C8C3" d="M62 89h54a2 2 0 0 0 2-2V55a2 2 0 0 0-2-2H62v36z"/><path fill="#C8C6C4" d="M116 112H48a2 2 0 0 0 0 4h68a2 2 0 0 0 0-4zM116 103H48a2 2 0 0 0 0 4h68a2 2 0 0 0 0-4z"/><path fill="#03787C" d="M18 110h50a6 6 0 0 0 6-6V54a6 6 0 0 0-6-6H18a6 6 0 0 0-6 6v50a6 6 0 0 0 6 6z"/><path fill="#FFF" d="M34.87 78.369c-1.246-.882-2.203-1.926-2.87-3.132-.667-1.205-1-2.633-1-4.284 0-2.201.62-4.05 1.859-5.547 1.238-1.497 2.885-2.606 4.941-3.326 2.055-.72 4.306-1.08 6.753-1.08 3.749 0 6.713.429 8.894 1.287v6.481c-1.161-.744-2.503-1.31-4.024-1.7a18.957 18.957 0 0 0-4.705-.582c-1.946 0-3.557.352-4.835 1.056-1.28.704-1.918 1.704-1.918 2.998 0 .81.27 1.517.811 2.124.542.607 1.27 1.145 2.19 1.615.916.47 2.284 1.092 4.105 1.869.313.113.509.194.588.243 2.149.906 3.874 1.784 5.176 2.634 1.302.85 2.321 1.91 3.06 3.18.736 1.27 1.105 2.868 1.105 4.794 0 2.363-.58 4.288-1.741 5.777-1.162 1.49-2.715 2.565-4.659 3.229-1.945.663-4.157.995-6.635.995-2.118 0-4.122-.17-6.013-.51-1.89-.34-3.517-.825-4.881-1.456v-6.846c1.332 1.02 2.98 1.829 4.94 2.428 1.961.598 3.773.898 5.436.898 2.18 0 3.823-.36 4.93-1.08 1.105-.72 1.658-1.736 1.658-3.047 0-.89-.31-1.667-.93-2.33-.619-.664-1.473-1.279-2.563-1.845-1.091-.567-2.703-1.311-4.836-2.234-1.977-.857-3.588-1.727-4.836-2.61z"/></svg>