<svg xmlns="http://www.w3.org/2000/svg" viewBox="0 0 144 144"><path opacity=".64" fill="#605E5C" d="M118.571 120c-.585-.001-58.29-.135-81.12-.094h-.027c-3.626 0-7.023-1.397-9.568-3.937C25.37 113.486 24 110.2 24 106.716V30c0-3.309 2.691-6 6-6h85c3.309 0 6 2.691 6 6v31h9a2 2 0 0 1 2 2v43.81c0 7.273-6.024 13.19-13.429 13.19zm-70.448-4.102c26.428 0 69.95.101 70.453.102 5.194 0 9.424-4.123 9.424-9.19V65h-7v37a2 2 0 0 1-4 0V30c0-1.103-.898-2-2-2H30c-1.103 0-2 .897-2 2v76.716c0 2.415.953 4.695 2.683 6.422 1.789 1.786 4.182 2.768 6.74 2.768h.02c3.02-.005 6.654-.008 10.68-.008z"/><path fill="#FFF" d="M128 65h-7v37a2 2 0 0 1-4 0V30c0-1.103-.897-2-2-2H30c-1.103 0-2 .897-2 2v76.716c0 2.415.953 4.695 2.683 6.422 1.789 1.786 4.182 2.768 6.74 2.768h.02c3.02-.005 6.654-.008 10.68-.008 26.428 0 69.95.101 70.453.102 5.195 0 9.424-4.123 9.424-9.19V65z"/><path fill="#81C8C3" d="M82 83h23a3 3 0 0 0 3-3V52a3 3 0 0 0-3-3H82a3 3 0 0 0-3 3v28a3 3 0 0 0 3 3z"/><path fill="#C8C6C4" d="M106.139 90H42.86C41.833 90 41 90.895 41 92s.833 2 1.861 2h63.278c1.028 0 1.861-.895 1.861-2s-.833-2-1.861-2zM106.056 38H39.944C38.871 38 38 38.895 38 40s.87 2 1.944 2h66.112c1.073 0 1.944-.895 1.944-2s-.87-2-1.944-2zM106.139 100H42.86c-1.028 0-1.861.895-1.861 2s.833 2 1.861 2h63.278c1.028 0 1.86-.895 1.86-2s-.832-2-1.86-2z"/><path fill="#03787C" d="M18 110h50a6 6 0 0 0 6-6V54a6 6 0 0 0-6-6H18a6 6 0 0 0-6 6v50a6 6 0 0 0 6 6z"/><path fill="#FFF" d="M34.87 78.369c-1.246-.882-2.203-1.926-2.87-3.132-.667-1.205-1-2.633-1-4.284 0-2.201.62-4.05 1.859-5.547 1.238-1.497 2.885-2.606 4.941-3.326 2.055-.72 4.306-1.08 6.753-1.08 3.749 0 6.713.429 8.894 1.287v6.481c-1.161-.744-2.503-1.31-4.024-1.7a18.957 18.957 0 0 0-4.705-.582c-1.946 0-3.557.352-4.835 1.056-1.28.704-1.918 1.704-1.918 2.998 0 .81.27 1.517.811 2.124.542.607 1.27 1.145 2.19 1.615.916.47 2.284 1.092 4.105 1.869.313.113.509.194.588.243 2.149.906 3.874 1.784 5.176 2.634 1.302.85 2.321 1.91 3.06 3.18.736 1.27 1.105 2.868 1.105 4.794 0 2.363-.58 4.288-1.741 5.777-1.162 1.49-2.715 2.565-4.659 3.229-1.945.663-4.157.995-6.635.995-2.118 0-4.122-.17-6.013-.51-1.89-.34-3.517-.825-4.881-1.456v-6.846c1.332 1.02 2.98 1.829 4.94 2.428 1.961.598 3.773.898 5.436.898 2.18 0 3.823-.36 4.93-1.08 1.105-.72 1.658-1.736 1.658-3.047 0-.89-.31-1.667-.93-2.33-.619-.664-1.473-1.279-2.563-1.845-1.091-.567-2.703-1.311-4.836-2.234-1.977-.857-3.588-1.727-4.836-2.61z"/></svg>