<svg xmlns="http://www.w3.org/2000/svg" viewBox="0 0 144 144"><path opacity=".64" fill="#605E5C" d="M126.286 24H42.714C39.564 24 37 26.548 37 29.68v84.64c0 3.132 2.563 5.68 5.714 5.68h83.572c3.15 0 5.714-2.548 5.714-5.68V29.68c0-3.132-2.564-5.68-5.714-5.68zm-83.572 4h83.572c.945 0 1.714.754 1.714 1.68V40H41V29.68c0-.926.769-1.68 1.714-1.68zm83.572 88H42.714c-.945 0-1.714-.754-1.714-1.68V44h87v70.32c0 .926-.769 1.68-1.714 1.68z"/><g fill="#FFF"><path d="M41 114.32c0 .926.769 1.68 1.714 1.68h83.572c.946 0 1.714-.754 1.714-1.68V44H41v70.32zM128 29.68c0-.926-.769-1.68-1.714-1.68H42.714c-.945 0-1.714.754-1.714 1.68V40h87V29.68z"/></g><path fill="#81C8C3" d="M67 82h48a3 3 0 0 0 3-3V57a3 3 0 0 0-3-3H67a3 3 0 0 0-3 3v22a3 3 0 0 0 3 3z"/><path fill="#C8C6C4" d="M116.139 89H52.86C51.833 89 51 89.895 51 91s.833 2 1.861 2h63.278c1.028 0 1.861-.895 1.861-2s-.833-2-1.861-2zM116.139 99H52.86c-1.028 0-1.861.895-1.861 2s.833 2 1.861 2h63.278c1.028 0 1.86-.895 1.86-2s-.832-2-1.86-2z"/><path fill="#03787C" d="M18 110h50a6 6 0 0 0 6-6V54a6 6 0 0 0-6-6H18a6 6 0 0 0-6 6v50a6 6 0 0 0 6 6z"/><path fill="#FFF" d="M34.87 78.369c-1.246-.882-2.203-1.926-2.87-3.132-.667-1.205-1-2.633-1-4.284 0-2.201.62-4.05 1.859-5.547 1.238-1.497 2.885-2.606 4.941-3.326 2.055-.72 4.306-1.08 6.753-1.08 3.749 0 6.713.429 8.894 1.287v6.481c-1.161-.744-2.503-1.31-4.024-1.7a18.957 18.957 0 0 0-4.705-.582c-1.946 0-3.557.352-4.835 1.056-1.28.704-1.918 1.704-1.918 2.998 0 .81.27 1.517.811 2.124.542.607 1.27 1.145 2.19 1.615.916.47 2.284 1.092 4.105 1.869.313.113.509.194.588.243 2.149.906 3.874 1.784 5.176 2.634 1.302.85 2.321 1.91 3.06 3.18.736 1.27 1.105 2.868 1.105 4.794 0 2.363-.58 4.288-1.741 5.777-1.162 1.49-2.715 2.565-4.659 3.229-1.945.663-4.157.995-6.635.995-2.118 0-4.122-.17-6.013-.51-1.89-.34-3.517-.825-4.881-1.456v-6.846c1.332 1.02 2.98 1.829 4.94 2.428 1.961.598 3.773.898 5.436.898 2.18 0 3.823-.36 4.93-1.08 1.105-.72 1.658-1.736 1.658-3.047 0-.89-.31-1.667-.93-2.33-.619-.664-1.473-1.279-2.563-1.845-1.091-.567-2.703-1.311-4.836-2.234-1.977-.857-3.588-1.727-4.836-2.61z"/><g fill="#C8C6C4"><circle cx="48.375" cy="34.375" r="2.375"/><circle cx="57.5" cy="34.375" r="2.375"/><circle cx="66.625" cy="34.375" r="2.375"/></g></svg>