<svg xmlns="http://www.w3.org/2000/svg" viewBox="0 0 144 144"><g fill="#FFF"><path d="M18 112h108c1.103 0 2-.897 2-2V60h-22c-3.309 0-6-2.692-6-6V32H18c-1.103 0-2 .897-2 2v76c0 1.103.898 2 2 2z"/><path d="M106 56h20.172L104 33.828V54c0 1.103.897 2 2 2z"/></g><g fill="#217346"><path d="M40 67H28a2 2 0 1 1 0-4h12a2 2 0 1 1 0 4zM40 58H28a2 2 0 1 1 0-4h12a2 2 0 1 1 0 4zM40 76H28a2 2 0 1 1 0-4h12a2 2 0 1 1 0 4zM40 85H28a2 2 0 1 1 0-4h12a2 2 0 1 1 0 4zM40 93.5H28a2 2 0 1 1 0-4h12a2 2 0 1 1 0 4zM40 102H28a2 2 0 1 1 0-4h12a2 2 0 1 1 0 4z"/></g><g fill="#C8C6C4"><path d="M59 67H47a2 2 0 1 1 0-4h12a2 2 0 1 1 0 4zM59 58H47a2 2 0 1 1 0-4h12a2 2 0 1 1 0 4zM59 76H47a2 2 0 1 1 0-4h12a2 2 0 1 1 0 4zM59 85H47a2 2 0 1 1 0-4h12a2 2 0 1 1 0 4zM59 93.5H47a2 2 0 1 1 0-4h12a2 2 0 1 1 0 4zM59 102H47a2 2 0 1 1 0-4h12a2 2 0 1 1 0 4z"/></g><g fill="#C8C6C4"><path d="M78 67H66a2 2 0 1 1 0-4h12a2 2 0 1 1 0 4zM78 58H66a2 2 0 1 1 0-4h12a2 2 0 1 1 0 4zM78 76H66a2 2 0 1 1 0-4h12a2 2 0 1 1 0 4zM78 85H66a2 2 0 1 1 0-4h12a2 2 0 1 1 0 4zM78 93.5H66a2 2 0 1 1 0-4h12a2 2 0 1 1 0 4zM78 102H66a2 2 0 1 1 0-4h12a2 2 0 1 1 0 4z"/></g><g fill="#C8C6C4"><path d="M97 67H85a2 2 0 1 1 0-4h12a2 2 0 1 1 0 4zM97 76H85a2 2 0 1 1 0-4h12a2 2 0 1 1 0 4zM97 85H85a2 2 0 1 1 0-4h12a2 2 0 1 1 0 4zM97 93.5H85a2 2 0 1 1 0-4h12a2 2 0 1 1 0 4zM97 102H85a2 2 0 1 1 0-4h12a2 2 0 1 1 0 4z"/></g><g fill="#C8C6C4"><path d="M116 76h-12a2 2 0 1 1 0-4h12a2 2 0 1 1 0 4zM116 85h-12a2 2 0 1 1 0-4h12a2 2 0 1 1 0 4zM116 93.5h-12a2 2 0 1 1 0-4h12a2 2 0 1 1 0 4zM116 102h-12a2 2 0 1 1 0-4h12a2 2 0 1 1 0 4z"/></g><path opacity=".64" fill="#605E5C" d="M130.242 54.414l-24.656-24.656A5.96 5.96 0 0 0 101.343 28H18c-3.309 0-6 2.692-6 6v76c0 3.308 2.691 6 6 6h108c3.309 0 6-2.692 6-6V58.657a5.961 5.961 0 0 0-1.758-4.243zM126.172 56H106c-1.103 0-2-.897-2-2V33.828L126.172 56zM126 112H18c-1.103 0-2-.897-2-2V34c0-1.103.897-2 2-2h82v22c0 3.308 2.691 6 6 6h22v50c0 1.103-.897 2-2 2z"/></svg>