<svg xmlns="http://www.w3.org/2000/svg" viewBox="0 0 144 144"><path fill="#FFF" d="M18 16h108a2 2 0 0 1 2 2v108a2 2 0 0 1-2 2H18a2 2 0 0 1-2-2V18a2 2 0 0 1 2-2z"/><path opacity=".64" fill="#605E5C" d="M126 132H18a6 6 0 0 1-6-6V18a6 6 0 0 1 6-6h108a6 6 0 0 1 6 6v108a6 6 0 0 1-6 6zM18 16a2 2 0 0 0-2 2v108a2 2 0 0 0 2 2h108a2 2 0 0 0 2-2V18a2 2 0 0 0-2-2H18z"/><path fill="none" d="M12 12h120v120H12z"/><g fill-rule="evenodd" clip-rule="evenodd"><path fill="#BC1948" d="M59 72v22.131c0 2.27 2.676 3.638 4.705 2.405l37.139-22.578c.764-.464 1.148-1.21 1.156-1.958H59z"/><path fill="#E8467C" d="M59 72V49.869c0-2.27 2.676-3.638 4.705-2.405l37.139 22.578c.764.464 1.148 1.21 1.156 1.958H59z"/><path fill="#8C193F" d="M52.433 57.278l18.847 13.28c.96.677.96 2.207 0 2.884l-18.847 13.28C51.384 87.46 50 86.64 50 85.28V58.72c0-1.36 1.384-2.181 2.433-1.442"/></g></svg>