<svg xmlns="http://www.w3.org/2000/svg" viewBox="0 0 144 144"><g fill="#FFF"><path d="M28 132h88c1.103 0 2-.897 2-2V40H96c-3.309 0-6-2.691-6-6V12H28c-1.103 0-2 .897-2 2v116c0 1.102.898 2 2 2z"/><path d="M96 36h20.172L94 13.828V34c0 1.102.897 2 2 2z"/></g><path opacity=".64" fill="#605E5C" d="M120.242 34.414L95.586 9.758A5.958 5.958 0 0 0 91.343 8H28c-3.309 0-6 2.691-6 6v116c0 3.309 2.691 6 6 6h88c3.309 0 6-2.691 6-6V38.657a5.96 5.96 0 0 0-1.758-4.243zM116.172 36H96c-1.103 0-2-.897-2-2V13.828L116.172 36zM116 132H28c-1.103 0-2-.897-2-2V14c0-1.103.897-2 2-2h62v22c0 3.309 2.691 6 6 6h22v90c0 1.102-.897 2-2 2z"/><circle fill="none" stroke="#B4B0AD" stroke-width="4" stroke-linecap="round" stroke-linejoin="round" stroke-miterlimit="10" cx="72" cy="81" r="12"/><path fill="none" stroke="#B4B0AD" stroke-width="4" stroke-linecap="round" stroke-linejoin="bevel" stroke-miterlimit="10" d="M100.37 75.864l-6.289-.524a.44.44 0 0 1-.387-.324 22.343 22.343 0 0 0-2.127-5.12.439.439 0 0 1 .045-.503l4.08-4.822a1.778 1.778 0 0 0-.1-2.405l-4.758-4.758a1.778 1.778 0 0 0-2.405-.1l-4.822 4.08a.439.439 0 0 1-.503.045 22.353 22.353 0 0 0-5.12-2.127.434.434 0 0 1-.324-.383l-.525-6.298A1.773 1.773 0 0 0 75.365 51h-6.73c-.924 0-1.694.709-1.77 1.63l-.525 6.289a.44.44 0 0 1-.324.387 22.357 22.357 0 0 0-5.12 2.127.439.439 0 0 1-.503-.045l-4.822-4.08a1.778 1.778 0 0 0-2.405.1l-4.758 4.758a1.778 1.778 0 0 0-.1 2.405l4.08 4.822c.12.142.137.341.045.503a22.345 22.345 0 0 0-2.127 5.12.44.44 0 0 1-.387.324l-6.289.524A1.778 1.778 0 0 0 42 77.636v6.728c0 .925.709 1.695 1.63 1.772l6.289.524a.44.44 0 0 1 .387.324 22.348 22.348 0 0 0 2.127 5.12.439.439 0 0 1-.045.503l-4.08 4.822a1.778 1.778 0 0 0 .1 2.405l4.758 4.758c.654.654 1.7.697 2.405.1l4.822-4.08a.439.439 0 0 1 .503-.045 22.355 22.355 0 0 0 5.12 2.127c.179.05.308.198.324.383l.525 6.298a1.772 1.772 0 0 0 1.77 1.625h6.73c.924 0 1.694-.709 1.77-1.63l.525-6.289a.44.44 0 0 1 .324-.387 22.346 22.346 0 0 0 5.12-2.127.439.439 0 0 1 .503.045l4.822 4.08a1.778 1.778 0 0 0 2.405-.1l4.758-4.757c.654-.654.697-1.7.1-2.406l-4.08-4.822a.439.439 0 0 1-.045-.502 22.346 22.346 0 0 0 2.127-5.12.44.44 0 0 1 .387-.325l6.289-.524a1.778 1.778 0 0 0 1.63-1.772v-6.728c0-.925-.709-1.695-1.63-1.772z"/></svg>