<svg xmlns="http://www.w3.org/2000/svg" viewBox="0 0 144 144"><linearGradient id="a" gradientUnits="userSpaceOnUse" x1="72" y1="30" x2="72" y2="115"><stop offset="0" stop-color="#c8c6c4"/><stop offset="1" stop-color="#b3b0ad"/></linearGradient><path fill-rule="evenodd" clip-rule="evenodd" fill="url(#a)" d="M130 115H14a6 6 0 0 1-6-6V36a6 6 0 0 1 6-6h116a6 6 0 0 1 6 6v73a6 6 0 0 1-6 6z"/><linearGradient id="b" gradientUnits="userSpaceOnUse" x1="23" y1="118" x2="23" y2="115"><stop offset=".001" stop-color="#797775"/><stop offset="1" stop-color="#605e5c"/></linearGradient><path fill="url(#b)" d="M28.28 118H17.72a1 1 0 0 1-.948-.684L16 115h14l-.772 2.316a1 1 0 0 1-.949.684z"/><linearGradient id="c" gradientUnits="userSpaceOnUse" x1="121" y1="118" x2="121" y2="115"><stop offset=".001" stop-color="#797775"/><stop offset="1" stop-color="#605e5c"/></linearGradient><path fill="url(#c)" d="M126.28 118h-10.56a1 1 0 0 1-.948-.684L114 115h14l-.772 2.316a1 1 0 0 1-.949.684z"/><path fill="#797775" d="M16 38h105v69H16z"/><linearGradient id="d" gradientUnits="userSpaceOnUse" x1="123" y1="52" x2="123" y2="93"><stop offset=".001" stop-color="#797775"/><stop offset="1" stop-color="#605e5c"/></linearGradient><path fill="url(#d)" d="M122 93h-1V52h1a3 3 0 0 1 3 3v35a3 3 0 0 1-3 3z"/><linearGradient id="e" gradientUnits="userSpaceOnUse" x1="62.5" y1="38" x2="62.5" y2="46"><stop offset="0" stop-color="#a19f9d"/><stop offset=".999" stop-color="#605e5c" stop-opacity=".3"/></linearGradient><path fill="url(#e)" d="M109 46H24l-8-8h93z"/><linearGradient id="f" gradientUnits="userSpaceOnUse" x1="62.5" y1="107" x2="62.5" y2="99"><stop offset="0" stop-color="#a19f9d"/><stop offset=".999" stop-color="#605e5c" stop-opacity=".3"/></linearGradient><path fill="url(#f)" d="M109 107H16l8-8h85z"/><linearGradient id="g" gradientUnits="userSpaceOnUse" x1="16" y1="72.5" x2="24" y2="72.5"><stop offset="0" stop-color="#a19f9d"/><stop offset=".999" stop-color="#605e5c" stop-opacity=".3"/></linearGradient><path fill="url(#g)" d="M24 99l-8 8V38l8 8z"/><path fill="#E1DFDD" d="M121 115h-9a3 3 0 0 1-3-3V29a3 3 0 0 1 3-3h9v89zM109 112h-5a3 3 0 0 1-3-3V32a3 3 0 0 1 3-3h5v83z"/><linearGradient id="h" gradientUnits="userSpaceOnUse" x1="115" y1="26" x2="115" y2="115"><stop offset="0" stop-color="#e1dfdd" stop-opacity="0"/><stop offset="1" stop-color="#bebbb8" stop-opacity=".2"/></linearGradient><path fill="url(#h)" d="M121 115h-9a3 3 0 0 1-3-3V29a3 3 0 0 1 3-3h9v89z"/><linearGradient id="i" gradientUnits="userSpaceOnUse" x1="101" y1="70.5" x2="109" y2="70.5"><stop offset="0" stop-color="#e1dfdd" stop-opacity="0"/><stop offset=".999" stop-color="#c8c6c4" stop-opacity=".8"/></linearGradient><path fill="url(#i)" d="M109 112h-5a3 3 0 0 1-3-3V32a3 3 0 0 1 3-3h5v83z"/><linearGradient id="j" gradientUnits="userSpaceOnUse" x1="115" y1="34" x2="115" y2="45"><stop offset=".002" stop-color="#bebbb8"/><stop offset="1" stop-color="#c8c6c4"/></linearGradient><path fill="url(#j)" d="M115 45a2 2 0 0 1-2-2v-7a2 2 0 1 1 4 0v7a2 2 0 0 1-2 2z"/><linearGradient id="k" gradientUnits="userSpaceOnUse" x1="115" y1="65" x2="115" y2="76"><stop offset=".002" stop-color="#bebbb8"/><stop offset="1" stop-color="#c8c6c4"/></linearGradient><path fill="url(#k)" d="M115 76a2 2 0 0 1-2-2v-7a2 2 0 1 1 4 0v7a2 2 0 0 1-2 2z"/><linearGradient id="l" gradientUnits="userSpaceOnUse" x1="115" y1="96" x2="115" y2="107"><stop offset=".002" stop-color="#bebbb8"/><stop offset="1" stop-color="#c8c6c4"/></linearGradient><path fill="url(#l)" d="M115 107a2 2 0 0 1-2-2v-7a2 2 0 1 1 4 0v7a2 2 0 0 1-2 2z"/><path fill="#FFF" d="M79.5 103h-34a1.5 1.5 0 0 1-1.5-1.5v-49a1.5 1.5 0 0 1 1.5-1.5H69l12 12v38.5a1.5 1.5 0 0 1-1.5 1.5z"/><path fill="#EDEBE9" d="M81 63H70.5a1.5 1.5 0 0 1-1.5-1.5V51l12 12z"/></svg>