<svg xmlns="http://www.w3.org/2000/svg" viewBox="0 0 144 144"><linearGradient id="a" gradientUnits="userSpaceOnUse" x1="72" y1="30" x2="72" y2="115"><stop offset="0" stop-color="#c8c6c4"/><stop offset="1" stop-color="#b3b0ad"/></linearGradient><path fill-rule="evenodd" clip-rule="evenodd" fill="url(#a)" d="M130 115H14a6 6 0 0 1-6-6V36a6 6 0 0 1 6-6h116a6 6 0 0 1 6 6v73a6 6 0 0 1-6 6z"/><linearGradient id="b" gradientUnits="userSpaceOnUse" x1="23" y1="118" x2="23" y2="115"><stop offset=".001" stop-color="#797775"/><stop offset="1" stop-color="#605e5c"/></linearGradient><path fill="url(#b)" d="M28.28 118H17.72a1 1 0 0 1-.948-.684L16 115h14l-.772 2.316a1 1 0 0 1-.949.684z"/><linearGradient id="c" gradientUnits="userSpaceOnUse" x1="121" y1="118" x2="121" y2="115"><stop offset=".001" stop-color="#797775"/><stop offset="1" stop-color="#605e5c"/></linearGradient><path fill="url(#c)" d="M126.28 118h-10.56a1 1 0 0 1-.948-.684L114 115h14l-.772 2.316a1 1 0 0 1-.949.684z"/><linearGradient id="d" gradientUnits="userSpaceOnUse" x1="32" y1="52" x2="32" y2="93"><stop offset=".001" stop-color="#797775"/><stop offset="1" stop-color="#605e5c"/></linearGradient><path fill="url(#d)" d="M32 52a5.52 5.52 0 0 0-5.5 5.979l2.714 32.46a2.794 2.794 0 0 0 5.568 0l2.717-32.46A5.519 5.519 0 0 0 32 52z"/><linearGradient id="e" gradientUnits="userSpaceOnUse" x1="72.5" y1="48" x2="72.5" y2="97"><stop offset=".001" stop-color="#8a8886"/><stop offset="1" stop-color="#797775"/></linearGradient><path fill="url(#e)" d="M72.5 61C78.841 61 84 66.159 84 72.5S78.841 84 72.5 84 61 78.841 61 72.5 66.159 61 72.5 61m0-13C58.969 48 48 58.97 48 72.5S58.969 97 72.5 97 97 86.03 97 72.5 86.031 48 72.5 48z"/><linearGradient id="f" gradientUnits="userSpaceOnUse" x1="68.5" y1="38" x2="68.5" y2="107"><stop offset="0" stop-color="#979593"/><stop offset="1" stop-color="#8a8886"/></linearGradient><path fill="url(#f)" d="M118.5 40a.5.5 0 0 1 .5.5v64a.5.5 0 0 1-.5.5h-100a.5.5 0 0 1-.5-.5v-64a.5.5 0 0 1 .5-.5h100m0-2h-100a2.5 2.5 0 0 0-2.5 2.5v64a2.5 2.5 0 0 0 2.5 2.5h100a2.5 2.5 0 0 0 2.5-2.5v-64a2.5 2.5 0 0 0-2.5-2.5z"/><linearGradient id="g" gradientUnits="userSpaceOnUse" x1="120" y1="45" x2="120" y2="55"><stop offset=".001" stop-color="#797775"/><stop offset="1" stop-color="#605e5c"/></linearGradient><path fill="url(#g)" d="M126.5 55h-13a1.5 1.5 0 0 1-1.5-1.5v-7a1.5 1.5 0 0 1 1.5-1.5h13a1.5 1.5 0 0 1 1.5 1.5v7a1.5 1.5 0 0 1-1.5 1.5z"/><linearGradient id="h" gradientUnits="userSpaceOnUse" x1="120" y1="90" x2="120" y2="100"><stop offset=".001" stop-color="#797775"/><stop offset="1" stop-color="#605e5c"/></linearGradient><path fill="url(#h)" d="M126.5 100h-13a1.5 1.5 0 0 1-1.5-1.5v-7a1.5 1.5 0 0 1 1.5-1.5h13a1.5 1.5 0 0 1 1.5 1.5v7a1.5 1.5 0 0 1-1.5 1.5z"/></svg>