<svg xmlns="http://www.w3.org/2000/svg" viewBox="0 0 144 144"><g fill="#FFF"><path d="M28 132h88c1.103 0 2-.897 2-2V40H96c-3.309 0-6-2.691-6-6V12H28c-1.103 0-2 .897-2 2v116c0 1.102.898 2 2 2z"/><path d="M96 36h20.172L94 13.828V34c0 1.102.897 2 2 2z"/></g><path opacity=".64" fill="#605E5C" d="M120.242 34.414L95.586 9.758A5.958 5.958 0 0 0 91.343 8H28c-3.309 0-6 2.691-6 6v116c0 3.309 2.691 6 6 6h88c3.309 0 6-2.691 6-6V38.657a5.96 5.96 0 0 0-1.758-4.243zM116.172 36H96c-1.103 0-2-.897-2-2V13.828L116.172 36zM116 132H28c-1.103 0-2-.897-2-2V14c0-1.103.897-2 2-2h62v22c0 3.309 2.691 6 6 6h22v90c0 1.102-.897 2-2 2z"/><path fill="#0078D7" d="M77.497 88.073l29.785 11.17c1.016.38.933 1.845-.12 2.108l-14.249 3.562-3.562 14.25c-.263 1.052-1.727 1.136-2.109.12l-11.17-29.786c-.332-.89.536-1.757 1.425-1.424z"/><path fill="none" stroke="#C8C6C4" stroke-width="4" stroke-linecap="round" stroke-miterlimit="10" d="M45.92 101.38c3.007-21.624 20.276-38.684 42-41.372"/><path fill="none" stroke="#0078D7" stroke-width="4" stroke-miterlimit="10" d="M50 118h-8a4 4 0 0 1-4-4v-8a4 4 0 0 1 4-4h8a4 4 0 0 1 4 4v8a4 4 0 0 1-4 4zM102 68h-8a4 4 0 0 1-4-4v-8a4 4 0 0 1 4-4h8a4 4 0 0 1 4 4v8a4 4 0 0 1-4 4z"/><circle fill="#0078D7" cx="62" cy="71" r="10"/><path fill="#FFF" d="M62 63a8 8 0 1 1 0 16 8 8 0 0 1 0-16m0-4c-6.617 0-12 5.383-12 12s5.383 12 12 12 12-5.383 12-12-5.383-12-12-12z"/></svg>