<svg xmlns="http://www.w3.org/2000/svg" viewBox="0 0 144 144"><path fill="#FFF" d="M23.166 114.5c9.78-2.822 26.145-7.545 48.334-7.545 21.05 0 38.227 4.708 48.491 7.52 2.18.598 4.063 1.113 5.573 1.471a1.898 1.898 0 0 0 1.638-.368c.507-.4.798-1.014.798-1.683V30.103c0-.669-.292-1.281-.8-1.681a1.906 1.906 0 0 0-1.656-.366c-1.439.348-3.214.842-5.27 1.415-10.123 2.817-27.067 7.533-48.607 7.533-22.307 0-38.712-4.727-48.514-7.552-1.824-.525-3.4-.98-4.696-1.309a1.883 1.883 0 0 0-1.644.35A2.127 2.127 0 0 0 16 30.19v83.579c0 .676.296 1.294.813 1.696.277.216.86.548 1.644.35 1.3-.331 2.88-.787 4.709-1.315z"/><path fill="#605E5C" d="M126.234 120c-.457 0-.917-.053-1.373-.162-1.578-.374-3.492-.898-5.707-1.505-10.07-2.76-26.922-7.378-47.434-7.378-21.622 0-37.65 4.625-47.225 7.388-1.743.504-3.265.943-4.57 1.281-1.56.405-3.243.284-4.637-.523a6.104 6.104 0 0 1-3.068-5.332v-83.58a6.1 6.1 0 0 1 2.357-4.854 5.873 5.873 0 0 1 5.084-1.069c1.36.345 2.963.808 4.82 1.343 9.598 2.766 25.664 7.395 47.406 7.395 20.994 0 37.608-4.624 47.535-7.387 2.026-.564 3.784-1.053 5.259-1.414 1.318-.323 2.725-.265 3.955.306 2.245 1.041 3.584 3.204 3.584 5.594v83.792c0 1.9-.845 3.657-2.318 4.821a5.906 5.906 0 0 1-3.668 1.284zM71.72 106.955c21.05 0 38.227 4.708 48.491 7.52 2.18.598 4.063 1.113 5.573 1.471a1.898 1.898 0 0 0 1.638-.368c.507-.4.798-1.014.798-1.683V30.103c0-.669-.292-1.281-.801-1.681a1.906 1.906 0 0 0-1.655-.366c-1.439.348-3.214.842-5.27 1.415-10.123 2.817-27.067 7.533-48.607 7.533-22.307 0-38.712-4.727-48.514-7.552-1.824-.525-3.4-.98-4.696-1.309a1.883 1.883 0 0 0-1.645.35 2.127 2.127 0 0 0-.812 1.696v83.58c0 .676.296 1.294.812 1.696.278.216.862.548 1.645.35 1.3-.331 2.88-.787 4.709-1.315 9.78-2.822 26.145-7.545 48.334-7.545z" opacity=".64"/><path fill="none" stroke="#69AFE5" stroke-width="4" stroke-linecap="round" stroke-linejoin="round" stroke-miterlimit="10" d="M91.72 71.5L60.22 54v35z"/><g fill="#C8C6C4"><circle cx="26.22" cy="53" r="3"/><circle cx="26.22" cy="65.333" r="3"/><circle cx="26.22" cy="77.667" r="3"/><circle cx="26.22" cy="90" r="3"/></g><g fill="#C8C6C4"><circle cx="118.013" cy="53" r="3"/><circle cx="118.013" cy="65.333" r="3"/><circle cx="118.013" cy="77.667" r="3"/><circle cx="118.013" cy="90" r="3"/></g></svg>