<svg xmlns="http://www.w3.org/2000/svg" viewBox="0 0 144 144"><g fill="#FFF"><path d="M38 132h88c1.103 0 2-.897 2-2V40h-22c-3.309 0-6-2.691-6-6V12H38c-1.103 0-2 .897-2 2v116c0 1.102.898 2 2 2z"/><path d="M106 36h20.172L104 13.828V34c0 1.102.897 2 2 2z"/></g><path opacity=".64" fill="#605E5C" d="M130.242 34.414L105.586 9.758A5.958 5.958 0 0 0 101.343 8H38c-3.309 0-6 2.691-6 6v116c0 3.309 2.691 6 6 6h88c3.309 0 6-2.691 6-6V38.657a5.96 5.96 0 0 0-1.758-4.243zM126.172 36H106c-1.103 0-2-.897-2-2V13.828L126.172 36zM126 132H38c-1.103 0-2-.897-2-2V14c0-1.103.897-2 2-2h62v22c0 3.309 2.691 6 6 6h22v90c0 1.102-.897 2-2 2z"/><path fill="#185ABD" d="M18 110h50a6 6 0 0 0 6-6V54a6 6 0 0 0-6-6H18a6 6 0 0 0-6 6v50a6 6 0 0 0 6 6z"/><path fill="#FFF" d="M41.193 85.824c1.033 2.996 1.642 4.887 1.828 5.674h.127c.186-.787.847-2.812 1.981-6.075L53.279 62h7.49L46.958 98h-8.023L25.299 62h7.719l8.175 23.824z"/><g><path fill="#185ABD" d="M101 78V66h-4v12a1 1 0 0 1-1 1h-7v4h14a3 3 0 0 1 3 3v9h4V85a6 6 0 0 0-6-6h-2a1 1 0 0 1-1-1z"/><circle fill="#2B7CD3" cx="108" cy="103" r="10"/><path fill="#41A5EE" d="M79 71h11v20H79z"/><path fill="#103F91" d="M87 57l12-12 12 12-12 12z"/></g></svg>