<svg xmlns="http://www.w3.org/2000/svg" viewBox="0 0 144 144"><path opacity=".64" fill="#605E5C" d="M127.67 136H36.33a4.33 4.33 0 0 1-4.33-4.33V12.33A4.33 4.33 0 0 1 36.33 8h91.34a4.33 4.33 0 0 1 4.33 4.33v119.34a4.33 4.33 0 0 1-4.33 4.33zM40.33 12A4.33 4.33 0 0 0 36 16.33v111.34a4.33 4.33 0 0 0 4.33 4.33h83.34a4.33 4.33 0 0 0 4.33-4.33V16.33a4.33 4.33 0 0 0-4.33-4.33H40.33z"/><path fill="#FFF" d="M38 132h88c1.103 0 2-.897 2-2V14c0-1.103-.897-2-2-2H38c-1.103 0-2 .897-2 2v116c0 1.103.898 2 2 2z"/><path fill="#185ABD" d="M18 110h50a6 6 0 0 0 6-6V54a6 6 0 0 0-6-6H18a6 6 0 0 0-6 6v50a6 6 0 0 0 6 6z"/><path fill="#FFF" d="M41.193 85.824c1.033 2.996 1.642 4.887 1.828 5.674h.127c.186-.787.847-2.812 1.981-6.075L53.279 62h7.49L46.958 98h-8.023L25.299 62h7.719l8.175 23.824z"/><g fill="#C8C6C4"><path opacity=".64" d="M113.67 68H91.33A4.33 4.33 0 0 1 87 63.67V26.33A4.33 4.33 0 0 1 91.33 22h22.34a4.33 4.33 0 0 1 4.33 4.33v37.34a4.33 4.33 0 0 1-4.33 4.33zM92 26a1 1 0 0 0-1 1v36a1 1 0 0 0 1 1h21a1 1 0 0 0 1-1V27a1 1 0 0 0-1-1H92zM113.67 122H91.33a4.33 4.33 0 0 1-4.33-4.33V80.33A4.33 4.33 0 0 1 91.33 76h22.34a4.33 4.33 0 0 1 4.33 4.33v37.34a4.33 4.33 0 0 1-4.33 4.33zM92 80a1 1 0 0 0-1 1v36a1 1 0 0 0 1 1h21a1 1 0 0 0 1-1V81a1 1 0 0 0-1-1H92zM73 113.376V117a1 1 0 0 1-1 1H51a1 1 0 0 1-1-1v-2h-4v2.67a4.33 4.33 0 0 0 4.33 4.33h22.34a4.33 4.33 0 0 0 4.33-4.33v-8.05a12.079 12.079 0 0 1-4 3.756zM50 43V27a1 1 0 0 1 1-1h21a1 1 0 0 1 1 1v17.623a12.08 12.08 0 0 1 4 3.758V26.33A4.33 4.33 0 0 0 72.67 22H50.33A4.33 4.33 0 0 0 46 26.33V43h4z"/></g></svg>