<svg xmlns="http://www.w3.org/2000/svg" viewBox="0 0 144 144"><g fill="#FFF"><path d="M122 120c0 3.309-2.691 6-6 6H46v4c0 1.103.897 2 2 2h78c1.103 0 2-.897 2-2V20h2v-1l-10-8v13h2v96z"/><path d="M38 122h78c1.103 0 2-.897 2-2V24H36v96c0 1.103.898 2 2 2z"/></g><path opacity=".64" fill="#605E5C" d="M128 20v110c0 1.103-.897 2-2 2H48c-1.103 0-2-.897-2-2v-4h70c3.309 0 6-2.691 6-6V24h-4v96c0 1.103-.897 2-2 2H38c-1.103 0-2-.897-2-2V24h-4v96c0 3.309 2.691 6 6 6h4v4c0 3.309 2.691 6 6 6h78c3.309 0 6-2.691 6-6V20h-4z"/><path fill="#185ABD" d="M18 110h50a6 6 0 0 0 6-6V54a6 6 0 0 0-6-6H18a6 6 0 0 0-6 6v50a6 6 0 0 0 6 6z"/><path fill="#FFF" d="M41.193 85.824c1.033 2.996 1.642 4.887 1.828 5.674h.127c.186-.787.847-2.812 1.981-6.075L53.279 62h7.49L46.958 98h-8.023L25.299 62h7.719l8.175 23.824z"/><path fill="#41A5EE" d="M122 8.372A3.986 3.986 0 0 0 120.343 8H36a4 4 0 0 0-4 4v10l2 2h86l2-2v-4l1-1v-6l-1-2.628z"/><path fill="#2B7CD3" d="M125.414 18.414L132 25v-6.172a2 2 0 0 0-.586-1.414l-8.242-8.242a3.988 3.988 0 0 0-1.172-.8v11.457c0-1.782 2.154-2.675 3.414-1.415zM32 22h90v4H32z"/><g><path fill="#185ABD" d="M96 78V66h-4v12a1 1 0 0 1-1 1h-7v4h12a3 3 0 0 1 3 3v9h4V85a6 6 0 0 0-6-6 1 1 0 0 1-1-1z"/><circle fill="#2B7CD3" cx="101" cy="100" r="9"/><path fill="#41A5EE" d="M79 73h6v16h-6z"/><path fill="#103F91" d="M83.499 60l10.5-10.5L104.497 60l-10.5 10.5z"/></g></svg>