<svg xmlns="http://www.w3.org/2000/svg" viewBox="0 0 144 144"><g fill="#FFF"><path d="M38 132h88c1.103 0 2-.897 2-2V40h-22c-3.309 0-6-2.691-6-6V12H38c-1.103 0-2 .897-2 2v116c0 1.102.898 2 2 2z"/><path d="M106 36h20.172L104 13.828V34c0 1.102.897 2 2 2z"/></g><path opacity=".64" fill="#605E5C" d="M130.242 34.414L105.586 9.758A5.958 5.958 0 0 0 101.343 8H38c-3.309 0-6 2.691-6 6v116c0 3.309 2.691 6 6 6h88c3.309 0 6-2.691 6-6V38.657a5.96 5.96 0 0 0-1.758-4.243zM126.172 36H106c-1.103 0-2-.897-2-2V13.828L126.172 36zM126 132H38c-1.103 0-2-.897-2-2V14c0-1.103.897-2 2-2h62v22c0 3.309 2.691 6 6 6h22v90c0 1.102-.897 2-2 2z"/><path fill="#134A2C" d="M116 94h-13a2 2 0 0 1-2-2v-3a2 2 0 0 1 2-2h13a2 2 0 0 1 2 2v3a2 2 0 0 1-2 2z"/><path fill="#185C37" d="M94 94H81a2 2 0 0 1-2-2v-3a2 2 0 0 1 2-2h13a2 2 0 0 1 2 2v3a2 2 0 0 1-2 2z"/><path fill="#21A366" d="M116 82h-13a2 2 0 0 1-2-2v-3a2 2 0 0 1 2-2h13a2 2 0 0 1 2 2v3a2 2 0 0 1-2 2z"/><path fill="#107C41" d="M94 82H81a2 2 0 0 1-2-2v-3a2 2 0 0 1 2-2h13a2 2 0 0 1 2 2v3a2 2 0 0 1-2 2z"/><path fill="#33C481" d="M116 70h-13a2 2 0 0 1-2-2v-3a2 2 0 0 1 2-2h13a2 2 0 0 1 2 2v3a2 2 0 0 1-2 2z"/><path fill="#21A366" d="M94 70H81a2 2 0 0 1-2-2v-3a2 2 0 0 1 2-2h13a2 2 0 0 1 2 2v3a2 2 0 0 1-2 2z"/><g><path fill="#107C41" d="M19 110h48a7 7 0 0 0 7-7V55a7 7 0 0 0-7-7H19a7 7 0 0 0-7 7v48a7 7 0 0 0 7 7z"/><path fill="#F9F7F7" d="M27.206 97l11.442-18.05L28.168 61h8.433l5.72 11.473c.527 1.087.889 1.899 1.086 2.435h.074a51.07 51.07 0 0 1 1.184-2.536L50.78 61h7.742L47.771 78.849 58.794 97h-8.237L43.95 84.397a10.52 10.52 0 0 1-.79-1.682h-.099c-.115.402-.37.946-.764 1.632L35.492 97h-8.285z"/></g></svg>