<svg xmlns="http://www.w3.org/2000/svg" viewBox="0 0 144 144"><g fill="#FFF"><path d="M122 120c0 3.309-2.691 6-6 6H46v4c0 1.103.897 2 2 2h78c1.103 0 2-.897 2-2V20h2v-1l-10-8v13h2v96z"/><path d="M38 122h78c1.103 0 2-.897 2-2V24H36v96c0 1.103.898 2 2 2z"/></g><path opacity=".64" fill="#605E5C" d="M128 20v110c0 1.103-.897 2-2 2H48c-1.103 0-2-.897-2-2v-4h70c3.309 0 6-2.691 6-6V24h-4v96c0 1.103-.897 2-2 2H38c-1.103 0-2-.897-2-2V24h-4v96c0 3.309 2.691 6 6 6h4v4c0 3.309 2.691 6 6 6h78c3.309 0 6-2.691 6-6V20h-4z"/><path fill="#33C481" d="M122 8.372A3.986 3.986 0 0 0 120.343 8H36a4 4 0 0 0-4 4v10l2 2h86l2-2v-4l1-1v-6l-1-2.628z"/><path fill="#21A366" d="M125.414 18.414L132 25v-6.172a2 2 0 0 0-.586-1.414l-8.242-8.242a3.988 3.988 0 0 0-1.172-.8v11.457c0-1.782 2.154-2.675 3.414-1.415zM32 22h90v4H32z"/><path fill="#134A2C" d="M106 94H95a2 2 0 0 1-2-2v-3a2 2 0 0 1 2-2h11a2 2 0 0 1 2 2v3a2 2 0 0 1-2 2z"/><path fill="#185C37" d="M86 87h-7v7h7a2 2 0 0 0 2-2v-3a2 2 0 0 0-2-2z"/><path fill="#21A366" d="M106 82H95a2 2 0 0 1-2-2v-3a2 2 0 0 1 2-2h11a2 2 0 0 1 2 2v3a2 2 0 0 1-2 2z"/><path fill="#107C41" d="M86 75h-7v7h7a2 2 0 0 0 2-2v-3a2 2 0 0 0-2-2z"/><path fill="#33C481" d="M106 70H95a2 2 0 0 1-2-2v-3a2 2 0 0 1 2-2h11a2 2 0 0 1 2 2v3a2 2 0 0 1-2 2z"/><path fill="#21A366" d="M86 63h-7v7h7a2 2 0 0 0 2-2v-3a2 2 0 0 0-2-2z"/><g><path fill="#107C41" d="M19 110h48a7 7 0 0 0 7-7V55a7 7 0 0 0-7-7H19a7 7 0 0 0-7 7v48a7 7 0 0 0 7 7z"/><path fill="#F9F7F7" d="M27.206 97l11.442-18.05L28.168 61h8.433l5.72 11.473c.527 1.087.889 1.899 1.086 2.435h.074a51.07 51.07 0 0 1 1.184-2.536L50.78 61h7.742L47.771 78.849 58.794 97h-8.237L43.95 84.397a10.52 10.52 0 0 1-.79-1.682h-.099c-.115.402-.37.946-.764 1.632L35.492 97h-8.285z"/></g></svg>