<svg xmlns="http://www.w3.org/2000/svg" viewBox="0 0 144 144"><g fill="#FFF"><path d="M38 132h88c1.103 0 2-.897 2-2V40h-22c-3.309 0-6-2.691-6-6V12H38c-1.103 0-2 .897-2 2v116c0 1.102.898 2 2 2z"/><path d="M106 36h20.172L104 13.828V34c0 1.102.897 2 2 2z"/></g><path opacity=".64" fill="#605E5C" d="M130.242 34.414L105.586 9.758A5.958 5.958 0 0 0 101.343 8H38c-3.309 0-6 2.691-6 6v116c0 3.309 2.691 6 6 6h88c3.309 0 6-2.691 6-6V38.657a5.96 5.96 0 0 0-1.758-4.243zM126.172 36H106c-1.103 0-2-.897-2-2V13.828L126.172 36zM126 132H38c-1.103 0-2-.897-2-2V14c0-1.103.897-2 2-2h62v22c0 3.309 2.691 6 6 6h22v90c0 1.102-.897 2-2 2z"/><path fill="none" stroke="#C8C6C4" stroke-width="4" stroke-miterlimit="10" d="M112 69H72V53h40a4 4 0 0 1 4 4v8a4 4 0 0 1-4 4z"/><path fill="#C3A9D4" d="M108 63H66v-4h42a2 2 0 1 1 0 4z"/><path fill="none" stroke="#C8C6C4" stroke-width="4" stroke-miterlimit="10" d="M112 93H72V77h40a4 4 0 0 1 4 4v8a4 4 0 0 1-4 4z"/><path fill="#C3A9D4" d="M108 87H66v-4h42a2 2 0 1 1 0 4z"/><path fill="none" stroke="#C8C6C4" stroke-width="4" stroke-miterlimit="10" d="M112 116H61.28a4 4 0 0 1-4-4v-8a4 4 0 0 1 4-4H112a4 4 0 0 1 4 4v8a4 4 0 0 1-4 4z"/><path fill="#C3A9D4" d="M108 110H66v-4h42a2 2 0 1 1 0 4z"/><path fill="#6A3889" d="M18 110h50a6 6 0 0 0 6-6V54a6 6 0 0 0-6-6H18a6 6 0 0 0-6 6v50a6 6 0 0 0 6 6z"/><path fill="#FFF" d="M47 97h-7V61h7v36z"/></svg>