<svg xmlns="http://www.w3.org/2000/svg" viewBox="0 0 144 144"><path fill="#FFB900" d="M68 35l-5.485-5.485A12 12 0 0 0 54.029 26H14a6 6 0 0 0-6 6v80a6 6 0 0 0 6 6h116a6 6 0 0 0 6-6V41a6 6 0 0 0-6-6H68z"/><path fill="#FFD75E" d="M68 35l-5.485 5.485A12 12 0 0 1 54.029 44H8v68a6 6 0 0 0 6 6h116a6 6 0 0 0 6-6V41a6 6 0 0 0-6-6H68z"/><linearGradient id="a" gradientUnits="userSpaceOnUse" x1="72" y1="35" x2="72" y2="118"><stop offset="0" stop-color="#fff" stop-opacity="0"/><stop offset=".999" stop-color="#ffd75e" stop-opacity=".3"/></linearGradient><path fill="url(#a)" d="M68 35l-5.485 5.485A12 12 0 0 1 54.029 44H8v68a6 6 0 0 0 6 6h116a6 6 0 0 0 6-6V41a6 6 0 0 0-6-6H68z"/><path fill="#E67628" d="M13 117a5.969 5.969 0 0 1-3.71-1.29A5.984 5.984 0 0 0 14 118h116a5.984 5.984 0 0 0 4.71-2.29A5.969 5.969 0 0 1 131 117H13z"/><path opacity=".4" fill="#FFF" d="M63.161 41.339L69.5 35H68l-5.485 5.485A12 12 0 0 1 54.029 44H8v1h46.322a12.5 12.5 0 0 0 8.84-3.661z"/><g fill="#BF5712"><path d="M57 89a1 1 0 0 1-1-1V75a1 1 0 1 1 2 0v13a1 1 0 0 1-1 1zM50 71H14a2 2 0 0 0-2 2v1h3a1 1 0 0 1 1 1v13a1 1 0 0 1-1 1h-3v1a2 2 0 0 0 2 2h36a2 2 0 0 0 2-2V73a2 2 0 0 0-2-2zm-2 17a1 1 0 0 1-1 1H34a1 1 0 0 1-1-1V75a1 1 0 0 1 1-1h13a1 1 0 0 1 1 1v13zM63 89a1 1 0 0 1-1-1V75a1 1 0 1 1 2 0v13a1 1 0 0 1-1 1zM69 89a1 1 0 0 1-1-1V75a1 1 0 1 1 2 0v13a1 1 0 0 1-1 1zM75 89a1 1 0 0 1-1-1V75a1 1 0 1 1 2 0v13a1 1 0 0 1-1 1zM81 89a1 1 0 0 1-1-1V75a1 1 0 1 1 2 0v13a1 1 0 0 1-1 1zM87 89a1 1 0 0 1-1-1V75a1 1 0 1 1 2 0v13a1 1 0 0 1-1 1zM93 89a1 1 0 0 1-1-1V75a1 1 0 1 1 2 0v13a1 1 0 0 1-1 1zM99 89a1 1 0 0 1-1-1V75a1 1 0 1 1 2 0v13a1 1 0 0 1-1 1zM105 89a1 1 0 0 1-1-1V75a1 1 0 1 1 2 0v13a1 1 0 0 1-1 1zM111 89a1 1 0 0 1-1-1V75a1 1 0 1 1 2 0v13a1 1 0 0 1-1 1zM117 89a1 1 0 0 1-1-1V75a1 1 0 1 1 2 0v13a1 1 0 0 1-1 1zM123 89a1 1 0 0 1-1-1V75a1 1 0 1 1 2 0v13a1 1 0 0 1-1 1zM129 89a1 1 0 0 1-1-1V75a1 1 0 1 1 2 0v13a1 1 0 0 1-1 1zM135 89a1 1 0 0 1-1-1V75a1 1 0 1 1 2 0v13a1 1 0 0 1-1 1zM11 89H8V74h3a1 1 0 0 1 1 1v13a1 1 0 0 1-1 1z"/></g></svg>