<?xml version="1.0" encoding="utf-8"?>
<!-- Generator: Adobe Illustrator 19.2.0, SVG Export Plug-In . SVG Version: 6.00 Build 0)  -->
<svg version="1.1" id="Layer_1" xmlns="http://www.w3.org/2000/svg" xmlns:xlink="http://www.w3.org/1999/xlink" x="0px" y="0px"
	 viewBox="0 0 208 208" style="enable-background:new 0 0 208 208;" xml:space="preserve">
<style type="text/css">
	.st0{fill:#F4F4F4;}
	.st1{clip-path:url(#SVGID_2_);}
	.st2{fill:#FFFFFF;}
	.st3{fill:#C8C8C8;}
	.st4{clip-path:url(#SVGID_4_);}
	.st5{fill:#A09F9F;}
	.st6{fill:#EAEAEA;}
	.st7{clip-path:url(#SVGID_6_);}
</style>
<g>
	<rect y="51.2" class="st0" width="208" height="27.6"/>
	<rect y="141.8" class="st0" width="208" height="27.6"/>
	<g>
		<g>
			<defs>
				<rect id="SVGID_1_" x="138.4" y="55.8" width="18.4" height="18.4"/>
			</defs>
			<clipPath id="SVGID_2_">
				<use xlink:href="#SVGID_1_"  style="overflow:visible;"/>
			</clipPath>
			<g class="st1">
				<path class="st2" d="M161.1,55.8h-26.8v18.4h26.8V55.8L161.1,55.8z"/>
				<polygon class="st3" points="148.9,66.6 144.2,60.5 138.2,68.1 138.2,71.1 145.4,71.1 				"/>
				<polygon class="st3" points="152.9,63 146.6,71.1 157.2,71.1 157.2,68.1 				"/>
				<circle class="st3" cx="149.4" cy="61.7" r="1.8"/>
			</g>
		</g>
	</g>
	<g>
		<g>
			<defs>
				<rect id="SVGID_3_" x="138.4" y="146.4" width="18.4" height="18.4"/>
			</defs>
			<clipPath id="SVGID_4_">
				<use xlink:href="#SVGID_3_"  style="overflow:visible;"/>
			</clipPath>
			<g class="st4">
				<path class="st2" d="M161.1,146.4h-26.8v18.4h26.8V146.4L161.1,146.4z"/>
				<polygon class="st3" points="148.9,157.2 144.2,151.1 138.2,158.7 138.2,161.7 145.4,161.7 				"/>
				<polygon class="st3" points="152.9,153.7 146.6,161.7 157.2,161.7 157.2,158.7 				"/>
				<circle class="st3" cx="149.4" cy="152.3" r="1.8"/>
			</g>
		</g>
	</g>
	<rect x="51.2" y="61.5" class="st3" width="72.4" height="6.9"/>
	<rect x="10.3" y="61.5" class="st5" width="27.6" height="6.9"/>
	<rect x="170.1" y="61.5" class="st3" width="27.6" height="6.9"/>
	<rect x="51.2" y="38.7" class="st6" width="37.9" height="2.9"/>
	<rect x="10.3" y="38.7" class="st6" width="20.7" height="2.9"/>
	<rect x="170.1" y="38.7" class="st6" width="18.4" height="2.9"/>
	<rect x="138.4" y="38.7" class="st6" width="14.9" height="2.9"/>
	<g>
		<path class="st3" d="M155.5,57.1v15.8h-15.8V57.1H155.5 M156.8,55.8h-18.4v18.4h18.4V55.8L156.8,55.8z"/>
	</g>
	<rect y="82.7" class="st0" width="208" height="55.2"/>
	<g>
		<g>
			<defs>
				<rect id="SVGID_5_" x="138.4" y="87.2" width="18.4" height="18.4"/>
			</defs>
			<clipPath id="SVGID_6_">
				<use xlink:href="#SVGID_5_"  style="overflow:visible;"/>
			</clipPath>
			<g class="st7">
				<path class="st2" d="M161.1,87.2h-26.8v18.4h26.8V87.2L161.1,87.2z"/>
				<polygon class="st3" points="148.9,98.1 144.2,92 138.2,99.6 138.2,102.6 145.4,102.6 				"/>
				<polygon class="st3" points="152.9,94.6 146.6,102.6 157.2,102.6 157.2,99.6 				"/>
				<circle class="st3" cx="149.4" cy="93.2" r="1.8"/>
			</g>
		</g>
	</g>
	<rect x="51.2" y="93" class="st3" width="72.4" height="6.9"/>
	<rect x="51.2" y="106.8" class="st3" width="36.2" height="6.9"/>
	<rect x="51.2" y="120.6" class="st3" width="56.3" height="6.9"/>
	<rect x="10.3" y="93" class="st5" width="27.6" height="6.9"/>
	<rect x="170.1" y="93" class="st3" width="27.6" height="6.9"/>
	<g>
		<path class="st3" d="M155.5,88.5v15.8h-15.8V88.5H155.5 M156.8,87.2h-18.4v18.4h18.4V87.2L156.8,87.2z"/>
	</g>
	<g>
		<path class="st3" d="M155.5,147.7v15.8h-15.8v-15.8H155.5 M156.8,146.4h-18.4v18.4h18.4V146.4L156.8,146.4z"/>
	</g>
	<rect x="51.2" y="152.1" class="st3" width="31.6" height="6.9"/>
	<rect x="10.3" y="152.1" class="st5" width="27.6" height="6.9"/>
	<rect x="170.1" y="152.1" class="st3" width="27.6" height="6.9"/>
</g>
</svg>
