<?xml version="1.0" encoding="utf-8"?>
<!-- Generator: Adobe Illustrator 21.0.2, SVG Export Plug-In . SVG Version: 6.00 Build 0)  -->
<svg version="1.1" id="Layer_1" xmlns="http://www.w3.org/2000/svg" xmlns:xlink="http://www.w3.org/1999/xlink" x="0px" y="0px"
	 viewBox="0 0 208 208" style="enable-background:new 0 0 208 208;" xml:space="preserve">
<style type="text/css">
	.st0{opacity:0.12;fill:url(#SVGID_1_);enable-background:new    ;}
	.st1{fill:#C0C0C0;}
	.st2{fill:#E9E9E9;}
</style>
<title>Files web</title>
<g>
	
		<linearGradient id="SVGID_1_" gradientUnits="userSpaceOnUse" x1="3.0984" y1="277.4096" x2="70.2653" y2="299.2368" gradientTransform="matrix(0.9998 1.989544e-02 1.989544e-02 -0.9998 -38.6489 461.6441)">
		<stop  offset="0.16" style="stop-color:#FFFFFF"/>
		<stop  offset="0.23" style="stop-color:#F5F5F5"/>
		<stop  offset="0.35" style="stop-color:#DCDCDC"/>
		<stop  offset="0.5" style="stop-color:#B3B3B4"/>
		<stop  offset="0.67" style="stop-color:#7C7C7C"/>
		<stop  offset="0.87" style="stop-color:#333333"/>
		<stop  offset="1" style="stop-color:#000000"/>
	</linearGradient>
	<path class="st0" d="M73.9,139l-58,11.6l51.7,23.3l16.4-4.3L73.9,139z"/>
	<path class="st1" d="M113.7,74.5l-3.3,7.7l-54.7,11l12,80.7l98.2-22l-8.6-85.3L113.7,74.5z"/>
	<path class="st2" d="M67.6,173.9l16.1-71.1L131.2,92l4.9,7.1l38.1-6.2l-8.4,58.9L67.6,173.9z"/>
</g>
<path id="Path_5258_1_" class="st2" d="M127.4,58.8l-14.7,14.7V28h-7.2v45.5L90.9,58.8L86,63.6l23.1,23.1l0,0l23.1-23.1L127.4,58.8z
	"/>
</svg>
