<svg xmlns="http://www.w3.org/2000/svg" viewBox="0 0 24 24"><path fill="#FFB900" d="M12 6l-1.268-1.268A2.5 2.5 0 0 0 8.964 4H2.5A1.5 1.5 0 0 0 1 5.5v13A1.5 1.5 0 0 0 2.5 20h19a1.5 1.5 0 0 0 1.5-1.5v-11A1.5 1.5 0 0 0 21.5 6H12z"/><path fill="#FFD75E" d="M12 6l-1.268 1.268A2.5 2.5 0 0 1 8.964 8H1v10.5A1.5 1.5 0 0 0 2.5 20h19a1.5 1.5 0 0 0 1.5-1.5v-11A1.5 1.5 0 0 0 21.5 6H12z"/><linearGradient id="a" gradientUnits="userSpaceOnUse" x1="12" y1="6" x2="12" y2="20"><stop offset="0" stop-color="#fff" stop-opacity="0"/><stop offset=".999" stop-color="#ffd75e" stop-opacity=".3"/></linearGradient><path fill="url(#a)" d="M12 6l-1.268 1.268A2.5 2.5 0 0 1 8.964 8H1v10.5A1.5 1.5 0 0 0 2.5 20h19a1.5 1.5 0 0 0 1.5-1.5v-11A1.5 1.5 0 0 0 21.5 6H12z"/><path fill="#E67628" d="M2 19.5c-.286 0-.55-.084-.777-.223.263.432.734.723 1.277.723h19c.543 0 1.014-.291 1.277-.723A1.488 1.488 0 0 1 22 19.5H2z"/><path opacity=".4" fill="#FFF" d="M11.129 7.621L12.75 6H12l-1.268 1.268A2.5 2.5 0 0 1 8.964 8H1v.5h8.007a3 3 0 0 0 2.122-.879z"/><g><path fill="#BF5712" d="M17.129 15h.742v1h-.742zM16 16h3v.75h-3zM20.417 10.625v3.75h-5.834v-3.75h5.834M21 10h-7v5h7v-5z"/></g></svg>