<svg xmlns="http://www.w3.org/2000/svg" viewBox="0 0 24 24"><g fill="#FFF"><path d="M7.5 22h14c.275 0 .5-.225.5-.5V7h-3.5c-.827 0-1.5-.673-1.5-1.5V2H7.5c-.275 0-.5.225-.5.5v19c0 .275.225.5.5.5z"/><path d="M21.293 6L18 2.707V5.5c0 .275.225.5.5.5h2.793z"/></g><path opacity=".64" fill="#605E5C" d="M22.56 5.854l-4.414-4.415A1.51 1.51 0 0 0 17.086 1H7.5C6.673 1 6 1.673 6 2.5v19c0 .827.673 1.5 1.5 1.5h14c.827 0 1.5-.673 1.5-1.5V6.914c0-.4-.156-.777-.44-1.06zM18 2.707L21.293 6H18.5a.501.501 0 0 1-.5-.5V2.707zM21.5 22h-14a.501.501 0 0 1-.5-.5v-19c0-.275.225-.5.5-.5H17v3.5c0 .827.673 1.5 1.5 1.5H22v14.5c0 .275-.225.5-.5.5z"/><path fill="#038387" d="M2 19h10a1 1 0 0 0 1-1V8a1 1 0 0 0-1-1H2a1 1 0 0 0-1 1v10a1 1 0 0 0 1 1z"/><path fill="#FFF" d="M8.938 10.987l-2.97-.012V12h2.657v.97H5.969V16H5v-6l3.938.013v.974z"/><path fill="#038387" d="M14 13v1h4.5a.5.5 0 0 1 0 1H14v1h4.5a1.5 1.5 0 0 0 0-3H14z"/><path fill="#1A9BA1" d="M14 9v1h4.5a.5.5 0 0 1 0 1H14v1h4.5a1.5 1.5 0 0 0 0-3H14z"/></svg>