<svg xmlns="http://www.w3.org/2000/svg" viewBox="0 0 24 24"><path fill="#FFB900" d="M12 6l-1.268-1.268A2.5 2.5 0 0 0 8.964 4H2.5A1.5 1.5 0 0 0 1 5.5v13A1.5 1.5 0 0 0 2.5 20h19a1.5 1.5 0 0 0 1.5-1.5v-11A1.5 1.5 0 0 0 21.5 6H12z"/><path fill="#FFD75E" d="M12 6l-1.268 1.268A2.5 2.5 0 0 1 8.964 8H1v10.5A1.5 1.5 0 0 0 2.5 20h19a1.5 1.5 0 0 0 1.5-1.5v-11A1.5 1.5 0 0 0 21.5 6H12z"/><linearGradient id="a" gradientUnits="userSpaceOnUse" x1="12" y1="6" x2="12" y2="20"><stop offset="0" stop-color="#fff" stop-opacity="0"/><stop offset=".999" stop-color="#ffd75e" stop-opacity=".3"/></linearGradient><path fill="url(#a)" d="M12 6l-1.268 1.268A2.5 2.5 0 0 1 8.964 8H1v10.5A1.5 1.5 0 0 0 2.5 20h19a1.5 1.5 0 0 0 1.5-1.5v-11A1.5 1.5 0 0 0 21.5 6H12z"/><path fill="#E67628" d="M2 19.5c-.286 0-.55-.084-.777-.223.263.432.734.723 1.277.723h19c.543 0 1.014-.291 1.277-.723A1.488 1.488 0 0 1 22 19.5H2z"/><path opacity=".4" fill="#FFF" d="M11.129 7.621L12.75 6H12l-1.268 1.268A2.5 2.5 0 0 1 8.964 8H1v.5h8.007a3 3 0 0 0 2.122-.879z"/><g fill="#BF5712"><path d="M19.073 12.687h-1.599c-1.108 0-2.01.825-2.01 1.838v.47c0 1.014.902 1.838 2.01 1.838h1.6c1.107 0 2.01-.824 2.01-1.838v-.47c0-1.013-.902-1.838-2.01-1.838zm1.446 2.308c0 .727-.65 1.322-1.446 1.322h-1.599c-.795 0-1.446-.595-1.446-1.322v-.47c0-.727.651-1.322 1.446-1.322H19.073c.795 0 1.446.595 1.446 1.322v.47z"/><path d="M16.61 11h-1.6c-1.108 0-2.01.808-2.01 1.8v.46c0 .993.902 1.8 2.01 1.8H16.61c1.108 0 2.01-.807 2.01-1.8v-.46c0-.992-.901-1.8-2.01-1.8zm1.445 2.26c0 .713-.65 1.295-1.446 1.295H15.01c-.795 0-1.445-.582-1.445-1.294v-.46c0-.713.65-1.295 1.445-1.295h1.6c.794 0 1.445.582 1.445 1.294v.46z"/></g></svg>