<svg xmlns="http://www.w3.org/2000/svg" viewBox="0 0 24 24"><path fill="#FFF" d="M19 19.5V7h-3.5c-.827 0-1.5-.673-1.5-1.5V2H7.5a.5.5 0 0 0-.5.5v17a.5.5 0 0 0 .5.5h11a.5.5 0 0 0 .5-.5z"/><path fill="#FFF" d="M5.5 22h11a.5.5 0 0 0 .5-.5V21H7.5c-.827 0-1.5-.673-1.5-1.5V4h-.5a.5.5 0 0 0-.5.5v17a.5.5 0 0 0 .5.5zM18.293 6L15 2.707V5.5a.5.5 0 0 0 .5.5h2.793z"/><path opacity=".64" fill="#605E5C" d="M19.56 5.854l-4.414-4.415A1.51 1.51 0 0 0 14.086 1H7.5C6.673 1 6 1.673 6 2.5V3h-.5C4.673 3 4 3.673 4 4.5v17c0 .827.673 1.5 1.5 1.5h11c.827 0 1.5-.673 1.5-1.5V21h.5c.827 0 1.5-.673 1.5-1.5V6.914c0-.4-.156-.777-.44-1.06zM15 2.707L18.293 6H15.5a.5.5 0 0 1-.5-.5V2.707zM17 21.5a.5.5 0 0 1-.5.5h-11a.5.5 0 0 1-.5-.5v-17a.5.5 0 0 1 .5-.5H6v15.5c0 .827.673 1.5 1.5 1.5H17v.5zm1.5-1.5h-11a.5.5 0 0 1-.5-.5v-17a.5.5 0 0 1 .5-.5H14v3.5c0 .827.673 1.5 1.5 1.5H19v12.5a.5.5 0 0 1-.5.5z"/></svg>