<svg xmlns="http://www.w3.org/2000/svg" viewBox="0 0 24 24"><path opacity=".64" fill="#605E5C" d="M21.434 21H7.566C6.703 21 6 20.327 6 19.5v-15C6 3.673 6.703 3 7.566 3h13.868C22.297 3 23 3.673 23 4.5v15c0 .827-.703 1.5-1.566 1.5zM7.566 4C7.254 4 7 4.225 7 4.5v15c0 .275.254.5.566.5h13.868c.312 0 .566-.225.566-.5v-15c0-.275-.254-.5-.566-.5H7.566z"/><path fill="#FFF" d="M7.566 4C7.254 4 7 4.225 7 4.5v15c0 .275.254.5.566.5h13.868c.312 0 .566-.225.566-.5v-15c0-.275-.254-.5-.566-.5H7.566z"/><g fill="#C8C6C4"><circle cx="8.5" cy="5.5" r=".5"/><circle cx="10.5" cy="5.5" r=".5"/><circle cx="12.5" cy="5.5" r=".5"/></g><path fill="#C8C6C4" d="M12 16h7.5a.5.5 0 1 0 0-1H12v1zM12 18h7.5a.5.5 0 1 0 0-1H12v1z"/><path fill="none" stroke="#C8C6C4" stroke-width=".7" stroke-miterlimit="10" d="M12.281 12.219l2.562-2.995M16.207 9.224l1.871 2.495"/><circle fill="#C8C6C4" cx="18.526" cy="12.5" r="1.37"/><circle fill="#C8C6C4" cx="15.504" cy="8.484" r="1.37"/><path fill="#F2C80F" d="M2 19h10a1 1 0 0 0 1-1V8a1 1 0 0 0-1-1H2a1 1 0 0 0-1 1v10a1 1 0 0 0 1 1z"/><path fill="#333" d="M3.5 13a.5.5 0 0 0-.5.5v2a.5.5 0 0 0 1 0v-2a.5.5 0 0 0-.5-.5zM5.5 11a.5.5 0 0 0-.5.5v4a.5.5 0 0 0 1 0v-4a.5.5 0 0 0-.5-.5zM7.5 12a.5.5 0 0 0-.5.5v3a.5.5 0 0 0 1 0v-3a.5.5 0 0 0-.5-.5zM9.5 10a.5.5 0 0 0-.5.5v5a.5.5 0 0 0 1 0v-5a.5.5 0 0 0-.5-.5z"/></svg>