<svg xmlns="http://www.w3.org/2000/svg" viewBox="0 0 24 24"><g fill="#FFF"><path d="M8.5 22h13c.275 0 .5-.225.5-.5V7h-3.5c-.827 0-1.5-.673-1.5-1.5V2H8.5c-.275 0-.5.225-.5.5v19c0 .275.225.5.5.5z"/><path d="M21.293 6L18 2.707V5.5c0 .275.225.5.5.5h2.793z"/></g><path opacity=".64" fill="#605E5C" d="M22.56 5.854l-4.414-4.415A1.51 1.51 0 0 0 17.086 1H8.5C7.673 1 7 1.673 7 2.5v19c0 .827.673 1.5 1.5 1.5h13c.827 0 1.5-.673 1.5-1.5V6.914c0-.4-.156-.777-.44-1.06zM18 2.707L21.293 6H18.5a.501.501 0 0 1-.5-.5V2.707zM21.5 22h-13a.501.501 0 0 1-.5-.5v-19c0-.275.225-.5.5-.5H17v3.5c0 .827.673 1.5 1.5 1.5H22v14.5c0 .275-.225.5-.5.5z"/><path fill="#C8C6C4" d="M12 17h7.5a.5.5 0 1 0 0-1H12v1zM12 19h7.5a.5.5 0 1 0 0-1H12v1z"/><path fill="none" stroke="#C8C6C4" stroke-width=".7" stroke-miterlimit="10" d="M12.281 13.219l2.562-2.995M16.207 10.224l1.871 2.495"/><circle fill="#C8C6C4" cx="18.526" cy="13.5" r="1.37"/><circle fill="#C8C6C4" cx="15.504" cy="9.484" r="1.37"/><path fill="#F2C80F" d="M2 19h10a1 1 0 0 0 1-1V8a1 1 0 0 0-1-1H2a1 1 0 0 0-1 1v10a1 1 0 0 0 1 1z"/><path fill="#333" d="M3.5 13a.5.5 0 0 0-.5.5v2a.5.5 0 0 0 1 0v-2a.5.5 0 0 0-.5-.5zM5.5 11a.5.5 0 0 0-.5.5v4a.5.5 0 0 0 1 0v-4a.5.5 0 0 0-.5-.5zM7.5 12a.5.5 0 0 0-.5.5v3a.5.5 0 0 0 1 0v-3a.5.5 0 0 0-.5-.5zM9.5 10a.5.5 0 0 0-.5.5v5a.5.5 0 0 0 1 0v-5a.5.5 0 0 0-.5-.5z"/></svg>