<svg xmlns="http://www.w3.org/2000/svg" viewBox="0 0 24 24"><g fill="#FFF"><path d="M7.5 22h14c.275 0 .5-.225.5-.5V7h-3.5c-.827 0-1.5-.673-1.5-1.5V2H7.5c-.275 0-.5.225-.5.5v19c0 .275.225.5.5.5z"/><path d="M21.293 6L18 2.707V5.5c0 .275.225.5.5.5h2.793z"/></g><path opacity=".64" fill="#605E5C" d="M22.56 5.854l-4.414-4.415A1.51 1.51 0 0 0 17.086 1H7.5C6.673 1 6 1.673 6 2.5v19c0 .827.673 1.5 1.5 1.5h14c.827 0 1.5-.673 1.5-1.5V6.914c0-.4-.156-.777-.44-1.06zM18 2.707L21.293 6H18.5a.501.501 0 0 1-.5-.5V2.707zM21.5 22h-14a.501.501 0 0 1-.5-.5v-19c0-.275.225-.5.5-.5H17v3.5c0 .827.673 1.5 1.5 1.5H22v14.5c0 .275-.225.5-.5.5z"/><path fill="#03787C" d="M2 19h10a1 1 0 0 0 1-1V8a1 1 0 0 0-1-1H2a1 1 0 0 0-1 1v10a1 1 0 0 0 1 1z"/><path fill="#FFF" d="M5.645 12.895a1.58 1.58 0 0 1-.479-.522c-.11-.201-.166-.44-.166-.714 0-.367.103-.675.31-.924.206-.25.48-.435.823-.555.343-.12.718-.18 1.126-.18.625 0 1.119.071 1.482.214v1.08c-.194-.123-.417-.218-.67-.283s-.516-.097-.785-.097c-.324 0-.593.059-.805.177-.214.116-.32.283-.32.499 0 .135.045.253.135.354.09.102.211.19.365.27a11.198 11.198 0 0 0 .782.351c.358.151.646.298.863.439.217.142.386.318.51.53.123.212.184.478.184.8 0 .393-.097.714-.29.962a1.623 1.623 0 0 1-.777.538c-.324.111-.692.166-1.106.166a5.66 5.66 0 0 1-1.002-.085 3.36 3.36 0 0 1-.813-.243v-1.14c.222.17.496.304.823.404s.63.15.906.15c.363 0 .637-.06.822-.18a.573.573 0 0 0 .276-.508.551.551 0 0 0-.155-.389 1.564 1.564 0 0 0-.427-.307 13.467 13.467 0 0 0-.806-.372 4.628 4.628 0 0 1-.806-.435z"/><g><path fill="#37C6D0" d="M16.5 11h3a.5.5 0 1 0 0-1h-3a.5.5 0 1 0 0 1z"/><path fill="#1A9BA1" d="M19.5 12h-3a.5.5 0 1 0 0 1h3a.5.5 0 1 0 0-1z"/><path fill="#038387" d="M19.5 14h-3a.5.5 0 1 0 0 1h3a.5.5 0 1 0 0-1z"/><g><circle fill="#1A9BA1" cx="14.5" cy="10.5" r=".5"/><circle fill="#038387" cx="14.5" cy="12.5" r=".5"/><circle fill="#036C70" cx="14.5" cy="14.5" r=".5"/></g></g></svg>