<svg xmlns="http://www.w3.org/2000/svg" viewBox="0 0 24 24"><path opacity=".64" fill="#605E5C" d="M21.434 21H7.566C6.703 21 6 20.327 6 19.5v-15C6 3.673 6.703 3 7.566 3h13.868C22.297 3 23 3.673 23 4.5v15c0 .827-.703 1.5-1.566 1.5zM7.566 4C7.254 4 7 4.225 7 4.5v15c0 .275.254.5.566.5h13.868c.312 0 .566-.225.566-.5v-15c0-.275-.254-.5-.566-.5H7.566z"/><path fill="#FFF" d="M7.566 4C7.254 4 7 4.225 7 4.5v15c0 .275.254.5.566.5h13.868c.312 0 .566-.225.566-.5v-15c0-.275-.254-.5-.566-.5H7.566z"/><g fill="#C8C6C4"><circle cx="8.5" cy="5.5" r=".5"/><circle cx="10.5" cy="5.5" r=".5"/><circle cx="12.5" cy="5.5" r=".5"/></g><g><path fill="#03787C" d="M2 19h10a1 1 0 0 0 1-1V8a1 1 0 0 0-1-1H2a1 1 0 0 0-1 1v10a1 1 0 0 0 1 1z"/><path fill="#FFF" d="M5.645 12.895a1.58 1.58 0 0 1-.479-.522c-.11-.201-.166-.44-.166-.714 0-.367.103-.675.31-.924.206-.25.48-.435.823-.555.343-.12.718-.18 1.126-.18.625 0 1.119.071 1.482.214v1.08c-.194-.123-.417-.218-.67-.283s-.516-.097-.785-.097c-.324 0-.593.059-.805.177-.214.116-.32.283-.32.499 0 .135.045.253.135.354.09.102.211.19.365.27a11.198 11.198 0 0 0 .782.351c.358.151.646.298.863.439.217.142.386.318.51.53.123.212.184.478.184.8 0 .393-.097.714-.29.962a1.623 1.623 0 0 1-.777.538c-.324.111-.692.166-1.106.166a5.66 5.66 0 0 1-1.002-.085 3.36 3.36 0 0 1-.813-.243v-1.14c.222.17.496.304.823.404s.63.15.906.15c.363 0 .637-.06.822-.18a.573.573 0 0 0 .276-.508.551.551 0 0 0-.155-.389 1.564 1.564 0 0 0-.427-.307 13.467 13.467 0 0 0-.806-.372 4.628 4.628 0 0 1-.806-.435z"/></g><g><path fill="#1A9BA1" d="M19.5 14H14v1h5.5a.5.5 0 0 0 0-1z"/><path fill="#37C6D0" d="M14 13h5a1 1 0 0 0 1-1v-1a1 1 0 0 0-1-1h-5v3z"/></g></svg>