<svg xmlns="http://www.w3.org/2000/svg" viewBox="0 0 24 24"><path fill="#FFF" d="M3.5 21h17c.275 0 .5-.225.5-.5v-17c0-.275-.225-.5-.5-.5h-17c-.275 0-.5.225-.5.5v17c0 .275.225.5.5.5z"/><path opacity=".64" fill="#605E5C" d="M20.5 22h-17c-.827 0-1.5-.673-1.5-1.5v-17C2 2.673 2.673 2 3.5 2h17c.827 0 1.5.673 1.5 1.5v17c0 .827-.673 1.5-1.5 1.5zM3.5 3a.5.5 0 0 0-.5.5v17a.5.5 0 0 0 .5.5h17a.5.5 0 0 0 .5-.5v-17a.5.5 0 0 0-.5-.5h-17z"/><g fill-rule="evenodd" clip-rule="evenodd"><path fill="#BC1948" d="M9.25 12v3.984c0 .408.467.654.82.432l6.478-4.064A.418.418 0 0 0 16.75 12h-7.5z"/><path fill="#E8467C" d="M9.25 12V8.016c0-.408.467-.654.82-.432l6.478 4.064c.134.083.2.217.202.352h-7.5z"/><path fill="#8C193F" d="M8.248 9.301l3.855 2.435a.31.31 0 0 1 0 .528L8.248 14.7c-.215.135-.498-.015-.498-.264v-4.87c0-.25.283-.4.498-.264"/></g></svg>