<svg xmlns="http://www.w3.org/2000/svg" viewBox="0 0 24 24"><linearGradient id="a" gradientUnits="userSpaceOnUse" x1="12" y1="5" x2="12" y2="19"><stop offset="0" stop-color="#c8c6c4"/><stop offset="1" stop-color="#b3b0ad"/></linearGradient><path fill-rule="evenodd" clip-rule="evenodd" fill="url(#a)" d="M22 19H2a1 1 0 0 1-1-1V6a1 1 0 0 1 1-1h20a1 1 0 0 1 1 1v12a1 1 0 0 1-1 1z"/><linearGradient id="b" gradientUnits="userSpaceOnUse" x1="11.5" y1="6" x2="11.5" y2="18"><stop offset="0" stop-color="#979593"/><stop offset="1" stop-color="#8a8886"/></linearGradient><path fill="url(#b)" d="M20.25 6.75v10.5H2.75V6.75h17.5M20.5 6h-18a.5.5 0 0 0-.5.5v11a.5.5 0 0 0 .5.5h18a.5.5 0 0 0 .5-.5v-11a.5.5 0 0 0-.5-.5z"/><linearGradient id="c" gradientUnits="userSpaceOnUse" x1="3.5" y1="20.023" x2="3.5" y2="18.986"><stop offset=".001" stop-color="#797775"/><stop offset="1" stop-color="#605e5c"/></linearGradient><path fill="url(#c)" d="M2.362 19.724a.5.5 0 0 0 .447.276h1.382a.5.5 0 0 0 .447-.276L5 19H2l.362.724z"/><linearGradient id="d" gradientUnits="userSpaceOnUse" x1="20.5" y1="20.023" x2="20.5" y2="18.986"><stop offset=".001" stop-color="#797775"/><stop offset="1" stop-color="#605e5c"/></linearGradient><path fill="url(#d)" d="M19.362 19.724a.5.5 0 0 0 .447.276h1.382a.5.5 0 0 0 .447-.276L22 19h-3l.362.724z"/><linearGradient id="e" gradientUnits="userSpaceOnUse" x1="4.5" y1="8" x2="4.5" y2="16"><stop offset=".001" stop-color="#797775"/><stop offset="1" stop-color="#605e5c"/></linearGradient><path fill="url(#e)" d="M4.5 16a.5.5 0 0 1-.5-.5v-7a.5.5 0 0 1 1 0v7a.5.5 0 0 1-.5.5z"/><linearGradient id="f" gradientUnits="userSpaceOnUse" x1="20.5" y1="8" x2="20.5" y2="9"><stop offset=".001" stop-color="#797775"/><stop offset="1" stop-color="#605e5c"/></linearGradient><path fill="url(#f)" d="M21.5 9h-2a.5.5 0 0 1 0-1h2a.5.5 0 0 1 0 1z"/><linearGradient id="g" gradientUnits="userSpaceOnUse" x1="20.5" y1="15" x2="20.5" y2="16"><stop offset=".001" stop-color="#797775"/><stop offset="1" stop-color="#605e5c"/></linearGradient><path fill="url(#g)" d="M21.5 16h-2a.5.5 0 0 1 0-1h2a.5.5 0 0 1 0 1z"/><linearGradient id="h" gradientUnits="userSpaceOnUse" x1="12" y1="8" x2="12" y2="16"><stop offset=".001" stop-color="#8a8886"/><stop offset="1" stop-color="#797775"/></linearGradient><path fill="url(#h)" d="M12 10c1.103 0 2 .897 2 2s-.897 2-2 2-2-.897-2-2 .897-2 2-2m0-2a4 4 0 1 0 0 8 4 4 0 0 0 0-8z"/></svg>