<svg xmlns="http://www.w3.org/2000/svg" viewBox="0 0 48 48"><path fill="#FFF" d="M43 6.5c0-.827-.673-1.5-1.5-1.5h-35C5.673 5 5 5.673 5 6.5v35c0 .827.673 1.5 1.5 1.5h35c.827 0 1.5-.673 1.5-1.5v-35z"/><path opacity=".64" fill="#605E5C" d="M41.5 44h-35A2.503 2.503 0 0 1 4 41.5v-35C4 5.122 5.121 4 6.5 4h35C42.879 4 44 5.122 44 6.5v35c0 1.378-1.121 2.5-2.5 2.5zM6.5 5C5.673 5 5 5.673 5 6.5v35c0 .827.673 1.5 1.5 1.5h35c.827 0 1.5-.673 1.5-1.5v-35c0-.827-.673-1.5-1.5-1.5h-35z"/><g fill="none" stroke="#69AFE5" stroke-linecap="round" stroke-linejoin="round" stroke-miterlimit="10"><circle cx="19.5" cy="28.5" r="2"/><circle cx="28.5" cy="26.958" r="2"/><path d="M21.5 28.542V19.46l9-2.42v9.915M21.667 21.788L30 19.705"/></g></svg>