<svg xmlns="http://www.w3.org/2000/svg" viewBox="0 0 48 48"><path fill="#FFF" d="M42.5 10h-37a.5.5 0 0 0-.5.5v27a.5.5 0 0 0 .5.5h6.932s.016-.236.052-.402c.216-.98.979-1.614 1.985-1.614 1.018 0 1.826.655 2.008 1.63.023.122.053.386.053.386H31.432s.016-.236.052-.402c.216-.98.979-1.614 1.985-1.614 1.018 0 1.826.655 2.009 1.63.022.122.052.386.052.386h6.97a.5.5 0 0 0 .5-.5v-27a.5.5 0 0 0-.5-.5z"/><path opacity=".64" fill="#605E5C" d="M42.5 9h-37C4.673 9 4 9.673 4 10.5v27c0 .827.673 1.5 1.5 1.5h7.428c.266 0 .539-.204.55-.47.005-.158.003-.53.003-.53s.027-1.016.988-1.016c.969 0 1.017 1.016 1.017 1.016s-.005.374 0 .53c.01.267.293.47.56.47h15.882c.266 0 .539-.204.55-.47.005-.158.003-.53.003-.53s.027-1.016.988-1.016c.968 0 1.017 1.016 1.017 1.016s-.005.374 0 .53c.01.267.293.47.56.47H42.5c.827 0 1.5-.673 1.5-1.5v-27c0-.827-.673-1.5-1.5-1.5zm.5 28.5a.5.5 0 0 1-.5.5h-6.97s-.03-.264-.052-.387c-.183-.974-.99-1.629-2.01-1.629-1.005 0-1.768.634-1.984 1.614-.036.166-.052.402-.052.402H16.53s-.03-.264-.052-.387c-.183-.974-.99-1.629-2.01-1.629-1.005 0-1.768.634-1.984 1.614a3.451 3.451 0 0 0-.052.402H5.5a.5.5 0 0 1-.5-.5v-27a.5.5 0 0 1 .5-.5h37a.5.5 0 0 1 .5.5v27z"/><g fill="none" stroke="#69AFE5" stroke-miterlimit="10"><circle cx="15" cy="20" r="4.5"/><path stroke-linecap="round" stroke-linejoin="round" d="M9.438 30.667s.062-5.823 5.627-5.823c5.435 0 5.591 5.823 5.591 5.823"/></g><path fill="#C8C6C4" d="M25.5 19h14a.5.5 0 0 0 0-1h-14a.5.5 0 0 0 0 1zM25.5 23h14a.5.5 0 0 0 0-1h-14a.5.5 0 0 0 0 1zM25.5 27h10a.5.5 0 0 0 0-1h-10a.5.5 0 0 0 0 1z"/><circle fill="#C8C6C4" cx="39.5" cy="26.5" r=".5"/></svg>