<svg xmlns="http://www.w3.org/2000/svg" viewBox="0 0 48 48"><g fill="#FFF"><path d="M41 40.5c0 .827-.673 1.5-1.5 1.5H16v1.5a.5.5 0 0 0 .5.5h26a.5.5 0 0 0 .5-.5v-36h.5V7l-3-2v3.5h.5v32z"/><path d="M13.5 41h26a.5.5 0 0 0 .5-.5v-32H13v32a.5.5 0 0 0 .5.5z"/></g><path opacity=".64" fill="#605E5C" d="M43 7.5v36a.5.5 0 0 1-.5.5h-26a.5.5 0 0 1-.5-.5V42h23.5c.827 0 1.5-.673 1.5-1.5v-32h-1v32a.5.5 0 0 1-.5.5h-26a.5.5 0 0 1-.5-.5v-32h-1v32c0 .827.673 1.5 1.5 1.5H15v1.5c0 .827.673 1.5 1.5 1.5h26c.827 0 1.5-.673 1.5-1.5v-36h-1z"/><path fill="#41A5EE" d="M41 3.097A.991.991 0 0 0 40.586 3H13a1 1 0 0 0-1 1v4l.5.5h28L41 8V6.75l.5-.5V4.5L41 3.097z"/><path fill="#2B7CD3" d="M12 8h29v1H12zM41.853 6.854L44 9V6.414a1 1 0 0 0-.293-.707l-2.414-2.414A.997.997 0 0 0 41 3.097v4.11a.5.5 0 0 1 .853-.353z"/><path fill="#103F91" d="M36.5 30H28v1h8.5a.5.5 0 0 0 0-1z"/><path fill="#185ABD" d="M36.5 27H28v1h8.5a.5.5 0 0 0 0-1z"/><path fill="#2B7CD3" d="M36.5 24H28v1h8.5a.5.5 0 0 0 0-1z"/><path fill="#41A5EE" d="M36.5 21H28v1h8.5a.5.5 0 0 0 0-1z"/><g><path fill="#185ABD" d="M6 37h18a2 2 0 0 0 2-2V17a2 2 0 0 0-2-2H6a2 2 0 0 0-2 2v18a2 2 0 0 0 2 2z"/><path fill="#F9F7F7" d="M11.829 29.322c.033.262.055.49.065.684h.038a11.577 11.577 0 0 1 .214-1.328L13.921 21h2.295l1.836 7.564c.092.373.168.848.23 1.426h.03c.026-.399.09-.859.191-1.38l1.47-7.61h2.088l-2.57 11H17.05l-1.752-7.287c-.051-.21-.109-.484-.172-.822s-.103-.583-.119-.736h-.03c-.02.18-.06.446-.119.798-.059.354-.106.613-.141.783L13.072 32h-2.479L8 21h2.127l1.598 7.694c.036.159.07.369.104.628z"/></g></svg>