<svg xmlns="http://www.w3.org/2000/svg" viewBox="0 0 48 48"><g fill="#FFF"><path d="M5 14h38v-3.5c0-.275-.225-.5-.5-.5h-37c-.275 0-.5.225-.5.5V14zM5.5 38h37c.275 0 .5-.225.5-.5V15H5v22.5c0 .275.225.5.5.5z"/></g><circle fill="#C8C6C4" cx="8" cy="12" r="1"/><circle fill="#C8C6C4" cx="11" cy="12" r="1"/><circle fill="#C8C6C4" cx="14" cy="12" r="1"/><path fill="#EDEBE9" d="M14 38H5.5a.5.5 0 0 1-.5-.5V15h9v23z"/><g fill="#C8C6C4"><path d="M11.5 20h-4a.5.5 0 0 1 0-1h4a.5.5 0 0 1 0 1zM11.5 23h-4a.5.5 0 0 1 0-1h4a.5.5 0 0 1 0 1zM11.5 26h-4a.5.5 0 0 1 0-1h4a.5.5 0 0 1 0 1z"/></g><g fill="#C8C6C4"><path d="M26.5 20h-10a.5.5 0 0 1 0-1h10a.5.5 0 0 1 0 1zM26.5 23h-10a.5.5 0 0 1 0-1h10a.5.5 0 0 1 0 1zM26.5 26h-10a.5.5 0 0 1 0-1h10a.5.5 0 0 1 0 1zM26.5 29h-10a.5.5 0 0 1 0-1h10a.5.5 0 0 1 0 1zM26.5 32h-10a.5.5 0 0 1 0-1h10a.5.5 0 0 1 0 1zM26.5 35h-10a.5.5 0 0 1 0-1h10a.5.5 0 0 1 0 1z"/></g><path fill="#69AFE5" d="M40.083 35h-9.166c-.507 0-.917-.586-.917-1.308V19.308c0-.723.41-1.308.917-1.308h9.166c.507 0 .917.585.917 1.308v14.384c0 .722-.41 1.308-.917 1.308z"/><path opacity=".64" fill="#605E5C" d="M42.5 9h-37C4.673 9 4 9.673 4 10.5v27c0 .827.673 1.5 1.5 1.5h37c.827 0 1.5-.673 1.5-1.5v-27c0-.827-.673-1.5-1.5-1.5zm-37 1h37c.275 0 .5.225.5.5V14H5v-3.5c0-.275.225-.5.5-.5zm37 28h-37a.501.501 0 0 1-.5-.5V15h38v22.5c0 .275-.225.5-.5.5z"/></svg>