<svg xmlns="http://www.w3.org/2000/svg" viewBox="0 0 48 48"><g fill="#FFF"><path d="M13.5 44h29c.275 0 .5-.225.5-.5V14h-8.5c-.827 0-1.5-.673-1.5-1.5V4H13.5c-.275 0-.5.225-.5.5v39c0 .275.225.5.5.5z"/><path d="M42.293 13L34 4.707V12.5c0 .275.225.5.5.5h7.793z"/></g><path opacity=".64" fill="#605E5C" d="M43.56 12.854l-9.414-9.415A1.51 1.51 0 0 0 33.086 3H13.5c-.827 0-1.5.673-1.5 1.5v39c0 .827.673 1.5 1.5 1.5h29c.827 0 1.5-.673 1.5-1.5V13.914c0-.4-.156-.777-.44-1.06zM34 4.707L42.293 13H34.5a.501.501 0 0 1-.5-.5V4.707zM42.5 44h-29a.501.501 0 0 1-.5-.5v-39c0-.275.225-.5.5-.5H33v8.5c0 .827.673 1.5 1.5 1.5H43v29.5c0 .275-.225.5-.5.5z"/><path fill="#038387" d="M6 37h18a2 2 0 0 0 2-2V17a2 2 0 0 0-2-2H6a2 2 0 0 0-2 2v18a2 2 0 0 0 2 2z"/><path fill="#FFF" d="M20 21h-6.196v4.092h5.777V27h-5.777v6H11V19h9v2z"/><path fill="#1A9BA1" d="M28 21v1h10.5a.5.5 0 0 1 .5.5v1a.5.5 0 0 1-.5.5H28v1h10.5a1.5 1.5 0 0 0 1.5-1.5v-1a1.5 1.5 0 0 0-1.5-1.5H28z"/><path fill="#038387" d="M28 27v1h10.5a.5.5 0 0 1 .5.5v1a.5.5 0 0 1-.5.5H28v1h10.5a1.5 1.5 0 0 0 1.5-1.5v-1a1.5 1.5 0 0 0-1.5-1.5H28z"/></svg>