<svg xmlns="http://www.w3.org/2000/svg" viewBox="0 0 48 48"><path opacity=".64" fill="#605E5C" d="M42.5 7h-29c-.827 0-1.5.624-1.5 1.392v31.216c0 .768.673 1.392 1.5 1.392h29c.827 0 1.5-.624 1.5-1.392V8.392C44 7.624 43.327 7 42.5 7zm-29 1h29c.272 0 .5.18.5.392V12H13V8.392c0-.212.229-.392.5-.392zm29 32h-29c-.272 0-.5-.18-.5-.392V13h30v26.608c0 .212-.228.392-.5.392z"/><g fill="#FFF"><path d="M13.5 40h29c.272 0 .5-.18.5-.392V13H13v26.608c0 .212.229.392.5.392zM13 12h30V8.392C43 8.18 42.772 8 42.5 8h-29c-.271 0-.5.18-.5.392V12z"/></g><g fill="#C8C6C4"><circle cx="16" cy="10" r="1"/><circle cx="19" cy="10" r="1"/><circle cx="22" cy="10" r="1"/></g><path fill="#C8C6C4" d="M39.5 31h-20a.5.5 0 1 0 0 1h20a.5.5 0 1 0 0-1zM39.5 34h-20a.5.5 0 1 0 0 1h20a.5.5 0 1 0 0-1z"/><g fill="none" stroke="#C8C6C4" stroke-miterlimit="10"><path d="M27.587 23.879l3.325-3.325M33.464 20.801l2.752 3.329"/><circle cx="26.026" cy="25.026" r="2.026"/><circle cx="37.526" cy="25.526" r="2.026"/><circle cx="32.026" cy="19.026" r="2.026"/></g><path fill="#F2C80F" d="M6 37h18a2 2 0 0 0 2-2V17a2 2 0 0 0-2-2H6a2 2 0 0 0-2 2v18a2 2 0 0 0 2 2z"/><path fill="#333" d="M13 22a1 1 0 0 0-1 1v9a1 1 0 1 0 2 0v-9a1 1 0 0 0-1-1zM9 28a1 1 0 0 0-1 1v3a1 1 0 1 0 2 0v-3a1 1 0 0 0-1-1zM17 24a1 1 0 0 0-1 1v7a1 1 0 1 0 2 0v-7a1 1 0 0 0-1-1zM20.998 19c-.553 0-.951.448-.951 1v12c0 .552.398 1 .95 1a1 1 0 0 0 1-1V20a1 1 0 0 0-1-1z"/></svg>