<svg xmlns="http://www.w3.org/2000/svg" viewBox="0 0 48 48"><path fill="#FFF" d="M43 6.5c0-.827-.673-1.5-1.5-1.5h-35C5.673 5 5 5.673 5 6.5v35c0 .827.673 1.5 1.5 1.5h35c.827 0 1.5-.673 1.5-1.5v-35z"/><g fill="none" stroke-miterlimit="10"><path stroke="#A6CCC3" d="M28.692 24.784l-2.893 3.773-4.629-5.688c-.406-.499-1.169-.499-1.575 0l-7.38 9.067c-.515.635-.047 1.564.788 1.564h21.994c.822 0 1.294-.903.805-1.541l-5.5-7.175a1.014 1.014 0 0 0-1.61 0z"/><circle stroke="#FF9810" cx="34" cy="17" r="2.5"/></g><path opacity=".64" fill="#605E5C" d="M41.5 44h-35A2.503 2.503 0 0 1 4 41.5v-35C4 5.122 5.121 4 6.5 4h35C42.879 4 44 5.122 44 6.5v35c0 1.378-1.121 2.5-2.5 2.5zM6.5 5C5.673 5 5 5.673 5 6.5v35c0 .827.673 1.5 1.5 1.5h35c.827 0 1.5-.673 1.5-1.5v-35c0-.827-.673-1.5-1.5-1.5h-35z"/></svg>