<svg xmlns="http://www.w3.org/2000/svg" viewBox="0 0 48 48"><path opacity=".64" fill="#605E5C" d="M12.336 39.965c-1.204 0-2.32-.389-3.169-1.241-.85-.854-1.174-2.037-1.167-3.245V9.45C8 8.627 8.673 8 9.5 8h29c.827 0 1.5.673 1.5 1.5v13.506l3.425.016c.275 0 .513.218.513.494v12.011a4.397 4.397 0 0 1-4.432 4.438h-27.17zM9.5 9c-.275 0-.5.225-.5.5l-.143 26.032a3.47 3.47 0 0 0 1.019 2.486 3.469 3.469 0 0 0 2.477 1.027h.005l27.163-.028a3.5 3.5 0 0 0 3.492-3.5c-.002-3.767-.01-9.755-.012-11.511H40V33.5a.5.5 0 1 1-1 0v-24c0-.275-.225-.5-.5-.5h-29z"/><path fill="#FFF" d="M12.352 39.045h.006l27.162-.028a3.5 3.5 0 0 0 3.493-3.5c-.002-3.767-.01-9.755-.012-11.511H40V33.5a.5.5 0 1 1-1 0v-24c0-.275-.225-.5-.5-.5h-29c-.275 0-.52.204-.52.48V35.51c-.006.939.234 1.842.896 2.507a3.468 3.468 0 0 0 2.476 1.027z"/><path fill="#81C8C3" d="M29 25h6a1 1 0 0 0 1-1v-7a1 1 0 0 0-1-1h-6a1 1 0 0 0-1 1v7a1 1 0 0 0 1 1z"/><path fill="#C8C6C4" d="M21 31h14.531c.26 0 .469-.224.469-.5s-.21-.5-.469-.5H21v1zM21 28h14.531c.26 0 .469-.224.469-.5s-.21-.5-.469-.5H21v1zM21 34h14.531c.26 0 .469-.224.469-.5s-.21-.5-.469-.5H21v1z"/><path fill="#03787C" d="M6 36h18a2 2 0 0 0 2-2V16a2 2 0 0 0-2-2H6a2 2 0 0 0-2 2v18a2 2 0 0 0 2 2z"/><path fill="#FFF" d="M11.596 24.755c-.518-.343-.918-.749-1.196-1.219-.278-.468-.416-1.024-.416-1.665 0-.856.258-1.575.774-2.157s1.203-1.013 2.06-1.294c.855-.28 1.793-.42 2.813-.42 1.562 0 2.797.167 3.706.5v2.52a5.91 5.91 0 0 0-1.677-.66 8.434 8.434 0 0 0-1.96-.227c-.811 0-1.483.137-2.015.412-.534.272-.8.662-.8 1.165 0 .315.114.59.338.826.227.237.53.445.913.628.382.182.952.425 1.71.727.131.044.213.075.246.094.895.353 1.614.695 2.157 1.024.542.332.967.744 1.274 1.238s.46 1.115.46 1.864c0 .919-.241 1.667-.725 2.246s-1.13.998-1.94 1.256c-.811.258-1.733.387-2.766.387-.882 0-1.717-.066-2.505-.198-.788-.132-1.465-.321-2.034-.567v-2.662c.556.397 1.242.711 2.06.944s1.571.35 2.264.35c.908 0 1.592-.14 2.054-.421.46-.28.69-.675.69-1.184 0-.346-.129-.649-.387-.907s-.614-.497-1.067-.717c-.456-.22-1.127-.51-2.016-.869-.823-.333-1.494-.67-2.015-1.014z"/></svg>