<svg xmlns="http://www.w3.org/2000/svg" viewBox="0 0 48 48"><path opacity=".64" fill="#605E5C" d="M42.5 7h-29c-.827 0-1.5.624-1.5 1.392v31.216c0 .768.673 1.392 1.5 1.392h29c.827 0 1.5-.624 1.5-1.392V8.392C44 7.624 43.327 7 42.5 7zm-29 1h29c.272 0 .5.18.5.392V12H13V8.392c0-.212.229-.392.5-.392zm29 32h-29c-.272 0-.5-.18-.5-.392V13h30v26.608c0 .212-.228.392-.5.392z"/><g fill="#FFF"><path d="M13.5 40h29c.272 0 .5-.18.5-.392V13H13v26.608c0 .212.229.392.5.392zM13 12h30V8.392C43 8.18 42.772 8 42.5 8h-29c-.271 0-.5.18-.5.392V12z"/></g><g fill="#C8C6C4"><circle cx="16" cy="10" r="1"/><circle cx="19" cy="10" r="1"/><circle cx="22" cy="10" r="1"/></g><path fill="#81C8C3" d="M21.5 29h17a1.5 1.5 0 0 0 1.5-1.5v-9a1.5 1.5 0 0 0-1.5-1.5h-17a1.5 1.5 0 0 0-1.5 1.5v9a1.5 1.5 0 0 0 1.5 1.5z"/><path fill="#C8C6C4" d="M39.5 31h-20a.5.5 0 1 0 0 1h20a.5.5 0 1 0 0-1zM39.5 34h-20a.5.5 0 1 0 0 1h20a.5.5 0 1 0 0-1z"/><path fill="#03787C" d="M6 37h18a2 2 0 0 0 2-2V17a2 2 0 0 0-2-2H6a2 2 0 0 0-2 2v18a2 2 0 0 0 2 2z"/><path fill="#FFF" d="M11.596 25.755c-.518-.343-.918-.749-1.196-1.219-.278-.468-.416-1.024-.416-1.665 0-.856.258-1.575.774-2.157s1.203-1.013 2.06-1.294c.855-.28 1.793-.42 2.813-.42 1.562 0 2.797.167 3.706.5v2.52a5.91 5.91 0 0 0-1.677-.66 8.434 8.434 0 0 0-1.96-.227c-.811 0-1.483.137-2.015.412-.534.272-.8.662-.8 1.165 0 .315.114.59.338.826.227.237.53.445.913.628.382.182.952.425 1.71.727.131.044.213.075.246.094.895.353 1.614.695 2.157 1.024.542.332.967.744 1.274 1.238s.46 1.115.46 1.864c0 .919-.241 1.667-.725 2.246s-1.13.998-1.94 1.256c-.811.258-1.733.387-2.766.387-.882 0-1.717-.066-2.505-.198-.788-.132-1.465-.321-2.034-.567v-2.662c.556.397 1.242.711 2.06.944s1.571.35 2.264.35c.908 0 1.592-.14 2.054-.421.46-.28.69-.675.69-1.184 0-.346-.129-.649-.387-.907s-.614-.497-1.067-.717c-.456-.22-1.127-.51-2.016-.869-.823-.333-1.494-.67-2.015-1.014z"/></svg>