<svg xmlns="http://www.w3.org/2000/svg" viewBox="0 0 48 48"><g fill="#FFF"><path d="M42.524 38a.489.489 0 0 0 .476-.5V20h-8.28c-.814 0-1.476-.673-1.476-1.5V10H5.454a.489.489 0 0 0-.477.5v27c0 .276.213.5.476.5h37.071z"/><path d="M42.313 19l-8.069-8.271V18.5c0 .276.213.5.476.5h7.593z"/></g><g fill="#217346"><path d="M12.197 22H8.5a.5.5 0 0 1 0-1h3.697a.5.5 0 0 1 0 1zM12.197 19H8.5a.5.5 0 0 1 0-1h3.697a.5.5 0 0 1 0 1zM12.197 25H8.5a.5.5 0 0 1 0-1h3.697a.5.5 0 0 1 0 1zM12.197 28H8.5a.5.5 0 0 1 0-1h3.697a.5.5 0 0 1 0 1zM12.197 31H8.5a.5.5 0 0 1 0-1h3.697a.5.5 0 0 1 0 1zM12.197 34H8.5a.5.5 0 0 1 0-1h3.697a.5.5 0 0 1 0 1z"/></g><g fill="#C8C6C4"><path d="M19.125 22h-3.844a.5.5 0 0 1 0-1h3.844a.5.5 0 0 1 0 1zM19.125 19h-3.844a.5.5 0 0 1 0-1h3.844a.5.5 0 0 1 0 1zM19.125 25h-3.844a.5.5 0 0 1 0-1h3.844a.5.5 0 0 1 0 1zM19.125 28h-3.844a.5.5 0 0 1 0-1h3.844a.5.5 0 0 1 0 1zM19.125 31h-3.844a.5.5 0 0 1 0-1h3.844a.5.5 0 0 1 0 1zM19.125 34h-3.844a.5.5 0 0 1 0-1h3.844a.5.5 0 0 1 0 1z"/></g><g fill="#C8C6C4"><path d="M25.938 22h-3.844a.5.5 0 0 1 0-1h3.843a.5.5 0 0 1 0 1zM25.938 19h-3.844a.5.5 0 0 1 0-1h3.843a.5.5 0 0 1 0 1zM25.938 25h-3.844a.5.5 0 0 1 0-1h3.843a.5.5 0 0 1 0 1zM25.938 28h-3.844a.5.5 0 0 1 0-1h3.843a.5.5 0 0 1 0 1zM25.938 31h-3.844a.5.5 0 0 1 0-1h3.843a.5.5 0 0 1 0 1zM25.938 34h-3.844a.5.5 0 0 1 0-1h3.843a.5.5 0 0 1 0 1z"/></g><g fill="#C8C6C4"><path d="M32.719 22h-3.844a.5.5 0 0 1 0-1h3.844a.5.5 0 0 1 0 1zM32.719 25h-3.844a.5.5 0 0 1 0-1h3.844a.5.5 0 0 1 0 1zM32.719 28h-3.844a.5.5 0 0 1 0-1h3.844a.5.5 0 0 1 0 1zM32.719 31h-3.844a.5.5 0 0 1 0-1h3.844a.5.5 0 0 1 0 1zM32.719 34h-3.844a.5.5 0 0 1 0-1h3.844a.5.5 0 0 1 0 1z"/></g><g fill="#C8C6C4"><path d="M39.5 25h-3.844a.5.5 0 0 1 0-1H39.5a.5.5 0 0 1 0 1zM39.5 28h-3.844a.5.5 0 0 1 0-1H39.5a.5.5 0 0 1 0 1zM39.5 31h-3.844a.5.5 0 0 1 0-1H39.5a.5.5 0 0 1 0 1zM39.5 34h-3.844a.5.5 0 0 1 0-1H39.5a.5.5 0 0 1 0 1z"/></g><path opacity=".64" fill="#605E5C" d="M43.572 18.858l-9.179-9.415A1.458 1.458 0 0 0 33.346 9H5.475C4.662 9 4 9.673 4 10.5v27c0 .827.662 1.5 1.475 1.5h37.05c.813 0 1.475-.673 1.475-1.5V19.914a1.5 1.5 0 0 0-.428-1.056zM34 10.728L42.069 19h-7.593a.489.489 0 0 1-.476-.5v-7.771zM42.513 38H5.47c-.26 0-.471-.224-.471-.5v-27c0-.276.21-.5.471-.5H33v8.5c0 .827.679 1.5 1.512 1.5H43v17.5c0 .276-.218.5-.487.5z"/></svg>