<svg xmlns="http://www.w3.org/2000/svg" viewBox="0 0 48 48"><path fill="#FFF" d="M43 6.5c0-.827-.673-1.5-1.5-1.5h-35C5.673 5 5 5.673 5 6.5v35c0 .827.673 1.5 1.5 1.5h35c.827 0 1.5-.673 1.5-1.5v-35z"/><path opacity=".64" fill="#605E5C" d="M41.5 44h-35A2.503 2.503 0 0 1 4 41.5v-35C4 5.122 5.121 4 6.5 4h35C42.879 4 44 5.122 44 6.5v35c0 1.378-1.121 2.5-2.5 2.5zM6.5 5C5.673 5 5 5.673 5 6.5v35c0 .827.673 1.5 1.5 1.5h35c.827 0 1.5-.673 1.5-1.5v-35c0-.827-.673-1.5-1.5-1.5h-35z"/><path fill="none" d="M4 4h40v40H4z"/><g fill-rule="evenodd" clip-rule="evenodd"><path fill="#BC1948" d="M19 24v7.967c0 .817.934 1.31 1.641.866l12.956-8.128A.837.837 0 0 0 34 24H19z"/><path fill="#E8467C" d="M19 24v-7.967c0-.817.934-1.31 1.641-.866l12.956 8.128c.266.167.4.435.403.705H19z"/><path fill="#8C193F" d="M16.885 19.093l6.853 4.426c.35.226.35.736 0 .961l-6.853 4.427a.573.573 0 0 1-.885-.48v-8.854c0-.453.503-.727.885-.48"/></g></svg>