<svg xmlns="http://www.w3.org/2000/svg" viewBox="0 0 48 48"><g fill="#FFF"><path d="M9.5 44h29c.275 0 .5-.225.5-.5V14h-8.5c-.827 0-1.5-.673-1.5-1.5V4H9.5c-.275 0-.5.225-.5.5v39c0 .275.225.5.5.5z"/><path d="M38.293 13L30 4.707V12.5c0 .275.225.5.5.5h7.793z"/></g><path opacity=".64" fill="#605E5C" d="M39.56 12.854l-9.414-9.415A1.51 1.51 0 0 0 29.086 3H9.5C8.673 3 8 3.673 8 4.5v39c0 .827.673 1.5 1.5 1.5h29c.827 0 1.5-.673 1.5-1.5V13.914c0-.4-.156-.777-.44-1.06zM30 4.707L38.293 13H30.5a.501.501 0 0 1-.5-.5V4.707zM38.5 44h-29a.501.501 0 0 1-.5-.5v-39c0-.275.225-.5.5-.5H29v8.5c0 .827.673 1.5 1.5 1.5H39v29.5c0 .275-.225.5-.5.5z"/><circle fill="none" stroke="#B4B0AD" stroke-linecap="round" stroke-linejoin="round" stroke-miterlimit="10" cx="24" cy="27" r="3.5"/><path fill="none" stroke="#B4B0AD" stroke-linecap="round" stroke-linejoin="bevel" stroke-miterlimit="10" d="M32.984 25.374l-1.992-.166a.14.14 0 0 1-.122-.103 7.07 7.07 0 0 0-.674-1.621.139.139 0 0 1 .014-.16l1.293-1.527a.563.563 0 0 0-.032-.761l-1.507-1.507a.563.563 0 0 0-.761-.032l-1.527 1.292a.138.138 0 0 1-.16.015 7.074 7.074 0 0 0-1.626-.675.126.126 0 0 1-.097-.112l-.167-2.004a.56.56 0 0 0-.56-.513h-2.131a.563.563 0 0 0-.561.516l-.166 1.991a.14.14 0 0 1-.103.123 7.071 7.071 0 0 0-1.624.675.128.128 0 0 1-.15-.01l-1.536-1.3a.56.56 0 0 0-.76.034l-1.506 1.507a.563.563 0 0 0-.031.761l1.292 1.527a.138.138 0 0 1 .014.16 7.068 7.068 0 0 0-.673 1.62.14.14 0 0 1-.123.103l-1.992.166a.563.563 0 0 0-.516.562v2.13c0 .293.224.537.516.561l1.992.166a.14.14 0 0 1 .122.103c.158.573.386 1.116.674 1.621a.139.139 0 0 1-.014.16l-1.293 1.527a.563.563 0 0 0 .032.761l1.507 1.507c.207.207.538.22.762.032l1.526-1.292a.138.138 0 0 1 .16-.015 7.078 7.078 0 0 0 1.626.675.126.126 0 0 1 .097.112l.167 2.004a.56.56 0 0 0 .56.513h2.131a.563.563 0 0 0 .561-.516l.166-1.992a.14.14 0 0 1 .103-.122 7.07 7.07 0 0 0 1.624-.675.128.128 0 0 1 .15.01l1.536 1.3a.56.56 0 0 0 .759-.034l1.507-1.507a.563.563 0 0 0 .031-.761l-1.292-1.527a.138.138 0 0 1-.014-.16 7.068 7.068 0 0 0 .673-1.62.14.14 0 0 1 .123-.104l1.992-.166a.563.563 0 0 0 .516-.56v-2.131a.563.563 0 0 0-.516-.561z"/></svg>