<svg xmlns="http://www.w3.org/2000/svg" viewBox="0 0 48 48"><path fill="#FFF" d="M42.37 9.332c-.395.105-.822.229-1.29.365C37.92 10.614 33.142 12 23.813 12c-8.99 0-13.739-1.382-16.88-2.297a61.876 61.876 0 0 0-1.303-.37.505.505 0 0 0-.435.087.495.495 0 0 0-.195.396v28.368a.502.502 0 0 0 .63.483c.398-.107.83-.232 1.303-.37 3.141-.915 7.89-2.297 16.88-2.297 8.844 0 14.355 1.515 17.647 2.42l.91.247a.497.497 0 0 0 .63-.483V9.816a.497.497 0 0 0-.63-.482z"/><path fill="#605E5C" d="M42.503 39.685c-.129 0-.26-.017-.389-.05l-.919-.25C37.951 38.492 32.523 37 23.812 37c-8.846 0-13.512 1.358-16.6 2.257-.48.14-.919.267-1.324.375a1.49 1.49 0 0 1-1.302-.26A1.49 1.49 0 0 1 4 38.184V9.816c0-.47.214-.902.586-1.189a1.487 1.487 0 0 1 1.302-.26c.405.109.843.236 1.324.376C10.3 9.642 14.966 11 23.812 11 33 11 37.694 9.638 40.802 8.737c.476-.138.91-.264 1.313-.371a1.488 1.488 0 0 1 1.301.26c.372.287.585.72.585 1.19v28.368c0 .47-.213.903-.585 1.189a1.49 1.49 0 0 1-.912.312zM23.813 36c8.844 0 14.355 1.515 17.647 2.42l.91.247a.497.497 0 0 0 .63-.483V9.816a.497.497 0 0 0-.63-.482c-.395.104-.822.228-1.29.364C37.92 10.614 33.142 12 23.813 12c-8.99 0-13.739-1.382-16.88-2.297a61.876 61.876 0 0 0-1.303-.37.505.505 0 0 0-.435.087.495.495 0 0 0-.195.396v28.368a.502.502 0 0 0 .63.483c.398-.107.83-.232 1.303-.37 3.141-.915 7.89-2.297 16.88-2.297z" opacity=".64"/><path fill="none" stroke="#69AFE5" stroke-linecap="round" stroke-linejoin="round" stroke-miterlimit="10" d="M31 24l-10.5-6v12z"/><g fill="#C8C6C4"><circle cx="9" cy="18" r="1"/><circle cx="9" cy="22" r="1"/><circle cx="9" cy="26" r="1"/><circle cx="9" cy="30" r="1"/></g><g fill="#C8C6C4"><circle cx="39" cy="18" r="1"/><circle cx="39" cy="22" r="1"/><circle cx="39" cy="26" r="1"/><circle cx="39" cy="30" r="1"/></g></svg>