<svg xmlns="http://www.w3.org/2000/svg" viewBox="0 0 48 48"><g fill="#FFF"><path d="M13.5 44h29c.275 0 .5-.225.5-.5V14h-8.5c-.827 0-1.5-.673-1.5-1.5V4H13.5c-.275 0-.5.225-.5.5v39c0 .275.225.5.5.5z"/><path d="M42.293 13L34 4.707V12.5c0 .275.225.5.5.5h7.793z"/></g><path opacity=".64" fill="#605E5C" d="M43.56 12.854l-9.414-9.415A1.51 1.51 0 0 0 33.086 3H13.5c-.827 0-1.5.673-1.5 1.5v39c0 .827.673 1.5 1.5 1.5h29c.827 0 1.5-.673 1.5-1.5V13.914c0-.4-.156-.777-.44-1.06zM34 4.707L42.293 13H34.5a.501.501 0 0 1-.5-.5V4.707zM42.5 44h-29a.501.501 0 0 1-.5-.5v-39c0-.275.225-.5.5-.5H33v8.5c0 .827.673 1.5 1.5 1.5H43v29.5c0 .275-.225.5-.5.5z"/><path fill="#185ABD" d="M6 37h18a2 2 0 0 0 2-2V17a2 2 0 0 0-2-2H6a2 2 0 0 0-2 2v18a2 2 0 0 0 2 2z"/><path fill="#FFF" d="M14.398 28.072c.355 1.015.565 1.656.63 1.922h-.016c.064-.266.29-.952.68-2.057l2.796-7.934 2.503-.001-4.661 11.99-2.712.001L9 20.003l2.58-.001 2.817 8.07z"/><g><path fill="#185ABD" d="M34.5 26a.5.5 0 0 1-.5-.5v-3h-1v3a.5.5 0 0 1-.5.5h-2v1h5a.5.5 0 0 1 .5.5v3h1v-3a1.5 1.5 0 0 0-1.5-1.5h-1z"/><path fill="#41A5EE" d="M28 23h3v7h-3z"/><path fill="#103F91" d="M29.5 19.5l4-4 4 4-4 4z"/><circle fill="#2B7CD3" cx="36.5" cy="33.5" r="3.5"/></g></svg>