<svg xmlns="http://www.w3.org/2000/svg" viewBox="0 0 48 48"><g fill="#FFF"><path d="M41 40.5c0 .827-.673 1.5-1.5 1.5H16v1.5a.5.5 0 0 0 .5.5h26a.5.5 0 0 0 .5-.5v-36h.5V7l-3-2v3.5h.5v32z"/><path d="M13.5 41h26a.5.5 0 0 0 .5-.5v-32H13v32a.5.5 0 0 0 .5.5z"/></g><path opacity=".64" fill="#605E5C" d="M43 7.5v36a.5.5 0 0 1-.5.5h-26a.5.5 0 0 1-.5-.5V42h23.5c.827 0 1.5-.673 1.5-1.5v-32h-1v32a.5.5 0 0 1-.5.5h-26a.5.5 0 0 1-.5-.5v-32h-1v32c0 .827.673 1.5 1.5 1.5H15v1.5c0 .827.673 1.5 1.5 1.5h26c.827 0 1.5-.673 1.5-1.5v-36h-1z"/><path fill="#33C481" d="M41 3.097A.991.991 0 0 0 40.586 3H13a1 1 0 0 0-1 1v4l.5.5h28L41 8V6.75l.5-.5V4.5L41 3.097z"/><path fill="#21A366" d="M12 8h29v1H12zM41.853 6.854L44 9V6.414a1 1 0 0 0-.293-.707l-2.414-2.414A.997.997 0 0 0 41 3.097v4.11a.5.5 0 0 1 .853-.353z"/><path fill="#134A2C" d="M36 31h-2a1 1 0 1 1 0-2h2a1 1 0 1 1 0 2z"/><path fill="#185C37" d="M30 29h-2v2h2a1 1 0 0 0 0-2z"/><path fill="#21A366" d="M36 27h-2a1 1 0 1 1 0-2h2a1 1 0 1 1 0 2z"/><path fill="#107C41" d="M30 25h-2v2h2a1 1 0 0 0 0-2z"/><path fill="#33C481" d="M36 23h-2a1 1 0 1 1 0-2h2a1 1 0 1 1 0 2z"/><path fill="#21A366" d="M30 21h-2v2h2a1 1 0 0 0 0-2z"/><g><path fill="#107C41" d="M6 37h18a2 2 0 0 0 2-2V17a2 2 0 0 0-2-2H6a2 2 0 0 0-2 2v18a2 2 0 0 0 2 2z"/><path fill="#F9F7F7" d="M9.518 32l3.851-6.017L9.841 20h2.839l1.926 3.825c.177.362.298.633.365.811h.025c.127-.29.26-.572.398-.845L17.454 20h2.605l-3.62 5.95L20.15 32h-2.772l-2.225-4.2a3.522 3.522 0 0 1-.265-.561h-.033a2.605 2.605 0 0 1-.257.543L12.307 32h-2.79z"/></g></svg>