<svg xmlns="http://www.w3.org/2000/svg" viewBox="0 0 32 32"><path fill="#FFB900" d="M15 8l-1.268-1.268A2.5 2.5 0 0 0 11.964 6H3.5A1.5 1.5 0 0 0 2 7.5v17A1.5 1.5 0 0 0 3.5 26h25a1.5 1.5 0 0 0 1.5-1.5v-15A1.5 1.5 0 0 0 28.5 8H15z"/><path fill="#FFD75E" d="M15 8l-1.268 1.268a2.5 2.5 0 0 1-1.768.732H2v14.5A1.5 1.5 0 0 0 3.5 26h25a1.5 1.5 0 0 0 1.5-1.5v-15A1.5 1.5 0 0 0 28.5 8H15z"/><linearGradient id="a" gradientUnits="userSpaceOnUse" x1="16" y1="8" x2="16" y2="26"><stop offset="0" stop-color="#fff" stop-opacity="0"/><stop offset=".999" stop-color="#ffd75e" stop-opacity=".3"/></linearGradient><path fill="url(#a)" d="M15 8l-1.268 1.268a2.5 2.5 0 0 1-1.768.732H2v14.5A1.5 1.5 0 0 0 3.5 26h25a1.5 1.5 0 0 0 1.5-1.5v-15A1.5 1.5 0 0 0 28.5 8H15z"/><path fill="#E67628" d="M3 25.5c-.286 0-.55-.084-.777-.223.263.432.734.723 1.277.723h25c.543 0 1.014-.291 1.277-.723A1.488 1.488 0 0 1 29 25.5H3z"/><path opacity=".4" fill="#FFF" d="M14.129 9.621L15.75 8H15l-1.268 1.268a2.5 2.5 0 0 1-1.768.732H2v.5h10.007a3 3 0 0 0 2.122-.879z"/><g><path fill="#BF5712" d="M22.355 20.865v-.695c.243 0 .475-.031.698-.095a1.59 1.59 0 0 0 .587-.304c.169-.138.304-.318.404-.536.101-.22.151-.486.151-.8a1.833 1.833 0 0 0-.452-1.224 1.593 1.593 0 0 0-.487-.374 1.308 1.308 0 0 0-.594-.139H20.21c-.21 0-.409.046-.594.139a1.593 1.593 0 0 0-.487.374 1.83 1.83 0 0 0-.453 1.224c0 .314.05.58.152.8.1.218.235.398.405.536.169.14.364.241.586.304.222.064.455.095.698.095v.695h-.307c-.297 0-.576-.064-.836-.193a2.166 2.166 0 0 1-.68-.521 2.6 2.6 0 0 1-.63-1.717 2.597 2.597 0 0 1 .63-1.717c.193-.219.42-.393.68-.52.26-.13.539-.193.836-.193h2.453c.297 0 .576.064.836.193.26.127.487.301.68.52a2.61 2.61 0 0 1 .63 1.717 2.61 2.61 0 0 1-.63 1.717c-.193.22-.42.393-.68.52-.26.13-.539.194-.836.194h-.306zm3.067-2.862v.707c.243 0 .475.032.697.097a1.502 1.502 0 0 1 .991.856c.102.224.152.495.152.816a1.898 1.898 0 0 1-.453 1.246c-.14.16-.301.287-.486.38a1.288 1.288 0 0 1-.594.142h-2.453c-.211 0-.41-.047-.595-.141a1.597 1.597 0 0 1-.486-.38 1.896 1.896 0 0 1-.453-1.247c0-.32.05-.592.152-.816a1.502 1.502 0 0 1 .99-.856c.223-.065.455-.097.698-.097v-.707h-.306c-.297 0-.576.065-.836.196a2.17 2.17 0 0 0-.68.53 2.692 2.692 0 0 0-.63 1.749 2.69 2.69 0 0 0 .63 1.75c.192.223.419.4.68.53.26.131.539.196.836.196h2.453c.297 0 .575-.065.836-.196.26-.13.487-.307.68-.53a2.56 2.56 0 0 0 .46-.785c.113-.3.17-.622.17-.964s-.057-.665-.17-.965a2.557 2.557 0 0 0-.46-.784 2.18 2.18 0 0 0-.68-.53 1.828 1.828 0 0 0-.836-.197h-.307z"/></g></svg>