<svg xmlns="http://www.w3.org/2000/svg" viewBox="0 0 32 32"><path fill="#FFF" d="M6.5 29h16a.5.5 0 0 0 .5-.5V27H9.5c-.827 0-1.5-.673-1.5-1.5V6H6.5a.5.5 0 0 0-.5.5v22a.5.5 0 0 0 .5.5zM25.293 8L21 3.707V7.5a.5.5 0 0 0 .5.5h3.793z"/><path fill="#FFF" d="M26 25.5V9h-4.5c-.827 0-1.5-.673-1.5-1.5V3H9.5a.5.5 0 0 0-.5.5v22a.5.5 0 0 0 .5.5h16a.5.5 0 0 0 .5-.5z"/><path opacity=".64" fill="#605E5C" d="M26.56 7.854l-5.414-5.415A1.51 1.51 0 0 0 20.086 2H9.5C8.673 2 8 2.673 8 3.5V5H6.5C5.673 5 5 5.673 5 6.5v22c0 .827.673 1.5 1.5 1.5h16c.827 0 1.5-.673 1.5-1.5V27h1.5c.827 0 1.5-.673 1.5-1.5V8.914c0-.4-.156-.777-.44-1.06zM21 3.707L25.293 8H21.5a.5.5 0 0 1-.5-.5V3.707zM23 28.5a.5.5 0 0 1-.5.5h-16a.5.5 0 0 1-.5-.5v-22a.5.5 0 0 1 .5-.5H8v19.5c0 .827.673 1.5 1.5 1.5H23v1.5zm2.5-2.5h-16a.5.5 0 0 1-.5-.5v-22a.5.5 0 0 1 .5-.5H20v4.5c0 .827.673 1.5 1.5 1.5H26v16.5a.5.5 0 0 1-.5.5z"/></svg>