<svg xmlns="http://www.w3.org/2000/svg" viewBox="0 0 32 32"><path fill="#FFB900" d="M15 8l-1.268-1.268A2.5 2.5 0 0 0 11.964 6H3.5A1.5 1.5 0 0 0 2 7.5v17A1.5 1.5 0 0 0 3.5 26h25a1.5 1.5 0 0 0 1.5-1.5v-15A1.5 1.5 0 0 0 28.5 8H15z"/><path fill="#FFD75E" d="M15 8l-1.268 1.268a2.5 2.5 0 0 1-1.768.732H2v14.5A1.5 1.5 0 0 0 3.5 26h25a1.5 1.5 0 0 0 1.5-1.5v-15A1.5 1.5 0 0 0 28.5 8H15z"/><linearGradient id="a" gradientUnits="userSpaceOnUse" x1="16" y1="8" x2="16" y2="26"><stop offset="0" stop-color="#fff" stop-opacity="0"/><stop offset=".999" stop-color="#ffd75e" stop-opacity=".3"/></linearGradient><path fill="url(#a)" d="M15 8l-1.268 1.268a2.5 2.5 0 0 1-1.768.732H2v14.5A1.5 1.5 0 0 0 3.5 26h25a1.5 1.5 0 0 0 1.5-1.5v-15A1.5 1.5 0 0 0 28.5 8H15z"/><path fill="#E67628" d="M3 25.5c-.286 0-.55-.084-.777-.223.263.432.734.723 1.277.723h25c.543 0 1.014-.291 1.277-.723A1.488 1.488 0 0 1 29 25.5H3z"/><path opacity=".4" fill="#FFF" d="M14.129 9.621L15.75 8H15l-1.268 1.268a2.5 2.5 0 0 1-1.768.732H2v.5h10.007a3 3 0 0 0 2.122-.879z"/><g><path fill="#BF5712" d="M26.643 22.032a.374.374 0 0 1-.265-.11l-7.326-7.297a.375.375 0 1 1 .53-.53l7.325 7.296a.375.375 0 0 1-.264.641zM22.848 16.125l1.827-1.831.532.53-1.828 1.831z"/><path fill="#BF5712" d="M19.344 22.031a.375.375 0 0 1-.364-.466l.5-2a.377.377 0 0 1 .098-.174l2.478-2.478.53.53-2.403 2.405-.324 1.293 1.293-.323 2.349-2.35.531.53-2.423 2.423a.38.38 0 0 1-.175.099l-2 .5a.386.386 0 0 1-.09.011zM24.435 17.538l1.74-1.744.531.531-1.74 1.743z"/><path fill="#BF5712" d="M26.705 16.326l-.531-.53a.906.906 0 0 0 .273-.58.624.624 0 0 0-.173-.49c-.268-.269-.749-.223-1.069.1l-.531-.53c.616-.616 1.572-.66 2.132-.101s.514 1.515-.1 2.13zM23.959 15.54l.53-.53 1.5 1.5-.53.53z"/></g></svg>