<svg xmlns="http://www.w3.org/2000/svg" viewBox="0 0 32 32"><path opacity=".64" fill="#605E5C" d="M9.5 26.998A3.498 3.498 0 0 1 6 23.513V6.501c-.001-.4.127-.778.41-1.06C6.693 5.155 7.07 5 7.472 5H25.5c.827 0 1.5.673 1.5 1.5v7.53h2.5a.5.5 0 0 1 .5.5l-.019 8.973c-.005 1.924-1.607 3.49-3.573 3.49L9.5 26.999zM7.472 6a.498.498 0 0 0-.5.5L7 23.51a2.502 2.502 0 0 0 2.499 2.496h.002l16.907-.013c1.415-.001 2.57-1.119 2.573-2.492L29 14.996H27v7.498a.5.5 0 1 1-1 0V6.5a.5.5 0 0 0-.5-.5H7.472z"/><path fill="#FFF" d="M9.499 26.013h.002L26.408 26c1.415-.001 2.57-1.12 2.573-2.493L29 15H27v7.5a.5.5 0 1 1-1 0v-16c0-.275-.225-.5-.5-.5H7.472a.498.498 0 0 0-.5.5L7 23.517a2.503 2.503 0 0 0 2.499 2.496z"/><path fill="#81C8C3" d="M19 17h4a1 1 0 0 0 1-1v-4a1 1 0 0 0-1-1h-4a1 1 0 0 0-1 1v4a1 1 0 0 0 1 1z"/><path fill="#C8C6C4" d="M23.594 22H11.406c-.224 0-.406.224-.406.5s.182.5.406.5h12.188c.224 0 .406-.224.406-.5s-.182-.5-.406-.5zM23.594 19H11.406c-.224 0-.406.224-.406.5s.182.5.406.5h12.188c.224 0 .406-.224.406-.5s-.182-.5-.406-.5z"/><path fill="#03787C" d="M3.5 24h11a1.5 1.5 0 0 0 1.5-1.5v-11a1.5 1.5 0 0 0-1.5-1.5h-11A1.5 1.5 0 0 0 2 11.5v11A1.5 1.5 0 0 0 3.5 24z"/><path fill="#FFF" d="M6.96 16.855a2.2 2.2 0 0 1-.712-.696A1.776 1.776 0 0 1 6 15.207c0-.489.154-.9.462-1.232.307-.333.716-.58 1.225-.74.51-.16 1.07-.24 1.677-.24.93 0 1.667.096 2.208.287v1.44a3.625 3.625 0 0 0-.999-.378 5.233 5.233 0 0 0-1.168-.13c-.483 0-.883.078-1.2.235-.317.156-.476.379-.476.667 0 .179.067.336.201.47.135.136.315.256.544.36.227.104.566.242 1.018.415.079.025.127.043.147.054.533.201.961.396 1.285.585.322.189.576.425.758.707.183.282.275.637.275 1.064 0 .525-.144.953-.432 1.285-.289.33-.674.569-1.157.716s-1.031.221-1.646.221a9.395 9.395 0 0 1-1.493-.113 5.432 5.432 0 0 1-1.211-.323v-1.521c.33.227.74.407 1.225.54.487.132.938.2 1.35.2.54 0 .949-.081 1.224-.241.274-.16.411-.385.411-.677a.697.697 0 0 0-.23-.518 2.362 2.362 0 0 0-.637-.41 22.43 22.43 0 0 0-1.2-.496 7.03 7.03 0 0 1-1.2-.58z"/></svg>