<svg xmlns="http://www.w3.org/2000/svg" viewBox="0 0 32 32"><path opacity=".64" fill="#605E5C" d="M28.5 27h-19c-.827 0-1.5-.6-1.5-1.34V6.34C8 5.6 8.673 5 9.5 5h19c.827 0 1.5.6 1.5 1.34v19.32c0 .74-.673 1.34-1.5 1.34zM9.5 6c-.295 0-.5.179-.5.34v19.32c0 .161.205.34.5.34h19c.295 0 .5-.179.5-.34V6.34c0-.161-.205-.34-.5-.34h-19z"/><path fill="#FFF" d="M9.5 26h19c.295 0 .5-.179.5-.34V6.34c0-.161-.205-.34-.5-.34h-19c-.295 0-.5.179-.5.34v19.32c0 .161.205.34.5.34z"/><g fill="#C8C6C4"><circle cx="11" cy="8" r="1"/><circle cx="14" cy="8" r="1"/><circle cx="17" cy="8" r="1"/></g><path fill="#81C8C3" d="M16 20h10a1 1 0 0 0 1-1v-5a1 1 0 0 0-1-1H16a1 1 0 0 0-1 1v5a1 1 0 0 0 1 1z"/><path fill="#C8C6C4" d="M26.594 22H14.406c-.224 0-.406.224-.406.5s.182.5.406.5h12.188c.224 0 .406-.224.406-.5s-.182-.5-.406-.5z"/><path fill="#03787C" d="M3.5 25h11a1.5 1.5 0 0 0 1.5-1.5v-11a1.5 1.5 0 0 0-1.5-1.5h-11A1.5 1.5 0 0 0 2 12.5v11A1.5 1.5 0 0 0 3.5 25z"/><path fill="#FFF" d="M6.96 17.855a2.2 2.2 0 0 1-.712-.696A1.776 1.776 0 0 1 6 16.207c0-.489.154-.9.462-1.232.307-.333.716-.58 1.225-.74.51-.16 1.07-.24 1.677-.24.93 0 1.667.096 2.208.287v1.44a3.625 3.625 0 0 0-.999-.378 5.233 5.233 0 0 0-1.168-.13c-.483 0-.883.079-1.2.235-.317.156-.476.379-.476.667 0 .179.067.337.201.47.135.136.315.256.544.36.227.104.566.242 1.018.415.079.025.127.043.147.054.533.202.961.397 1.285.585.322.189.576.425.758.707.183.282.275.637.275 1.064 0 .525-.144.953-.432 1.285-.289.33-.674.569-1.157.717s-1.031.22-1.646.22a9.395 9.395 0 0 1-1.493-.113 5.432 5.432 0 0 1-1.211-.323v-1.521c.33.227.74.407 1.225.54.487.132.938.2 1.35.2.54 0 .949-.081 1.224-.241.274-.16.411-.385.411-.677a.697.697 0 0 0-.23-.518 2.362 2.362 0 0 0-.637-.41 22.43 22.43 0 0 0-1.2-.496 7.03 7.03 0 0 1-1.2-.58z"/></svg>