<svg xmlns="http://www.w3.org/2000/svg" viewBox="0 0 32 32"><linearGradient id="a" gradientUnits="userSpaceOnUse" x1="16" y1="7" x2="16" y2="25"><stop offset="0" stop-color="#c8c6c4"/><stop offset="1" stop-color="#b3b0ad"/></linearGradient><path fill-rule="evenodd" clip-rule="evenodd" fill="url(#a)" d="M28.5 25h-25A1.5 1.5 0 0 1 2 23.5v-15A1.5 1.5 0 0 1 3.5 7h25A1.5 1.5 0 0 1 30 8.5v15a1.5 1.5 0 0 1-1.5 1.5z"/><linearGradient id="b" gradientUnits="userSpaceOnUse" x1="6" y1="26.023" x2="6" y2="24.986"><stop offset=".001" stop-color="#797775"/><stop offset="1" stop-color="#605e5c"/></linearGradient><path fill="url(#b)" d="M4.362 25.724a.5.5 0 0 0 .447.276h2.382a.5.5 0 0 0 .447-.276L8 25H4l.362.724z"/><linearGradient id="c" gradientUnits="userSpaceOnUse" x1="26" y1="26.023" x2="26" y2="24.986"><stop offset=".001" stop-color="#797775"/><stop offset="1" stop-color="#605e5c"/></linearGradient><path fill="url(#c)" d="M24.362 25.724a.5.5 0 0 0 .447.276h2.382a.5.5 0 0 0 .447-.276L28 25h-4l.362.724z"/><linearGradient id="d" gradientUnits="userSpaceOnUse" x1="15.5" y1="9" x2="15.5" y2="23"><stop offset="0" stop-color="#979593"/><stop offset="1" stop-color="#8a8886"/></linearGradient><path fill="url(#d)" d="M26.25 9.75v12.5H4.75V9.75h21.5M26.5 9h-22a.5.5 0 0 0-.5.5v13a.5.5 0 0 0 .5.5h22a.5.5 0 0 0 .5-.5v-13a.5.5 0 0 0-.5-.5z"/><linearGradient id="e" gradientUnits="userSpaceOnUse" x1="26" y1="11" x2="26" y2="13"><stop offset=".001" stop-color="#797775"/><stop offset="1" stop-color="#605e5c"/></linearGradient><path fill="url(#e)" d="M27.5 13h-3a.5.5 0 0 1-.5-.5v-1a.5.5 0 0 1 .5-.5h3a.5.5 0 0 1 .5.5v1a.5.5 0 0 1-.5.5z"/><linearGradient id="f" gradientUnits="userSpaceOnUse" x1="26" y1="19" x2="26" y2="21"><stop offset=".001" stop-color="#797775"/><stop offset="1" stop-color="#605e5c"/></linearGradient><path fill="url(#f)" d="M27.5 21h-3a.5.5 0 0 1-.5-.5v-1a.5.5 0 0 1 .5-.5h3a.5.5 0 0 1 .5.5v1a.5.5 0 0 1-.5.5z"/><linearGradient id="g" gradientUnits="userSpaceOnUse" x1="8" y1="12" x2="8" y2="20"><stop offset=".001" stop-color="#797775"/><stop offset="1" stop-color="#605e5c"/></linearGradient><path fill="url(#g)" d="M8 20a1 1 0 0 1-1-1v-6a1 1 0 1 1 2 0v6a1 1 0 0 1-1 1z"/><linearGradient id="h" gradientUnits="userSpaceOnUse" x1="16" y1="10.924" x2="16" y2="21.002"><stop offset=".001" stop-color="#8a8886"/><stop offset="1" stop-color="#797775"/></linearGradient><path fill="url(#h)" d="M16 13.5c1.379 0 2.5 1.122 2.5 2.5s-1.121 2.5-2.5 2.5-2.5-1.122-2.5-2.5 1.121-2.5 2.5-2.5m0-2.5a5 5 0 1 0 0 10 5 5 0 0 0 0-10z"/></svg>