<svg xmlns="http://www.w3.org/2000/svg" viewBox="0 0 32 32"><linearGradient id="a" gradientUnits="userSpaceOnUse" x1="16" y1="7" x2="16" y2="25"><stop offset="0" stop-color="#c8c6c4"/><stop offset="1" stop-color="#b3b0ad"/></linearGradient><path fill-rule="evenodd" clip-rule="evenodd" fill="url(#a)" d="M28.5 25h-25A1.5 1.5 0 0 1 2 23.5v-15A1.5 1.5 0 0 1 3.5 7h25A1.5 1.5 0 0 1 30 8.5v15a1.5 1.5 0 0 1-1.5 1.5z"/><linearGradient id="b" gradientUnits="userSpaceOnUse" x1="6" y1="26.023" x2="6" y2="24.986"><stop offset=".001" stop-color="#797775"/><stop offset="1" stop-color="#605e5c"/></linearGradient><path fill="url(#b)" d="M4.362 25.724a.5.5 0 0 0 .447.276h2.382a.5.5 0 0 0 .447-.276L8 25H4l.362.724z"/><linearGradient id="c" gradientUnits="userSpaceOnUse" x1="26" y1="26.023" x2="26" y2="24.986"><stop offset=".001" stop-color="#797775"/><stop offset="1" stop-color="#605e5c"/></linearGradient><path fill="url(#c)" d="M24.362 25.724a.5.5 0 0 0 .447.276h2.382a.5.5 0 0 0 .447-.276L28 25h-4l.362.724z"/><path fill="#797775" d="M4 9h23v14H4z"/><linearGradient id="d" gradientUnits="userSpaceOnUse" x1="14" y1="9" x2="14" y2="10.5"><stop offset="0" stop-color="#a19f9d"/><stop offset=".999" stop-color="#605e5c" stop-opacity=".3"/></linearGradient><path fill="url(#d)" d="M24 10.5H5.5L4 9h20z"/><linearGradient id="e" gradientUnits="userSpaceOnUse" x1="4" y1="16" x2="5.5" y2="16"><stop offset="0" stop-color="#a19f9d"/><stop offset=".999" stop-color="#605e5c" stop-opacity=".3"/></linearGradient><path fill="url(#e)" d="M5.5 21.5L4 23V9l1.5 1.5z"/><linearGradient id="f" gradientUnits="userSpaceOnUse" x1="14" y1="23" x2="14" y2="21.5"><stop offset="0" stop-color="#a19f9d"/><stop offset=".999" stop-color="#605e5c" stop-opacity=".3"/></linearGradient><path fill="url(#f)" d="M24 23H4l1.5-1.5H24z"/><linearGradient id="g" gradientUnits="userSpaceOnUse" x1="27.5" y1="12" x2="27.5" y2="20"><stop offset=".001" stop-color="#797775"/><stop offset="1" stop-color="#605e5c"/></linearGradient><path fill="url(#g)" d="M27.2 20H27v-8h.2a.8.8 0 0 1 .8.8v6.4a.8.8 0 0 1-.8.8z"/><path fill="#E1DFDD" d="M27 25h-2.2a.8.8 0 0 1-.8-.8V6.8a.8.8 0 0 1 .8-.8H27v19zM24 24h-1.2a.8.8 0 0 1-.8-.8V7.8a.8.8 0 0 1 .8-.8H24v17z"/><linearGradient id="h" gradientUnits="userSpaceOnUse" x1="25.5" y1="6" x2="25.5" y2="25"><stop offset="0" stop-color="#e1dfdd" stop-opacity="0"/><stop offset="1" stop-color="#bebbb8" stop-opacity=".2"/></linearGradient><path fill="url(#h)" d="M27 25h-2.2a.8.8 0 0 1-.8-.8V6.8a.8.8 0 0 1 .8-.8H27v19z"/><linearGradient id="i" gradientUnits="userSpaceOnUse" x1="22" y1="15.5" x2="24" y2="15.5"><stop offset="0" stop-color="#e1dfdd" stop-opacity="0"/><stop offset=".999" stop-color="#c8c6c4" stop-opacity=".8"/></linearGradient><path fill="url(#i)" d="M24 24h-1.2a.8.8 0 0 1-.8-.8V7.8a.8.8 0 0 1 .8-.8H24v17z"/><linearGradient id="j" gradientUnits="userSpaceOnUse" x1="25.5" y1="8" x2="25.5" y2="11"><stop offset=".002" stop-color="#bebbb8"/><stop offset="1" stop-color="#c8c6c4"/></linearGradient><path fill="url(#j)" d="M25.5 11a.5.5 0 0 1-.5-.5v-2a.5.5 0 0 1 1 0v2a.5.5 0 0 1-.5.5z"/><linearGradient id="k" gradientUnits="userSpaceOnUse" x1="25.5" y1="20" x2="25.5" y2="23"><stop offset=".002" stop-color="#bebbb8"/><stop offset="1" stop-color="#c8c6c4"/></linearGradient><path fill="url(#k)" d="M25.5 23a.5.5 0 0 1-.5-.5v-2a.5.5 0 0 1 1 0v2a.5.5 0 0 1-.5.5z"/><linearGradient id="l" gradientUnits="userSpaceOnUse" x1="25.5" y1="14" x2="25.5" y2="17"><stop offset=".002" stop-color="#bebbb8"/><stop offset="1" stop-color="#c8c6c4"/></linearGradient><path fill="url(#l)" d="M25.5 17a.5.5 0 0 1-.5-.5v-2a.5.5 0 0 1 1 0v2a.5.5 0 0 1-.5.5z"/><path fill="#FFF" d="M17.5 22h-7a.5.5 0 0 1-.5-.5v-10a.5.5 0 0 1 .5-.5H15l3 3v7.5a.5.5 0 0 1-.5.5z"/><path fill="#EDEBE9" d="M18 14h-2.5a.5.5 0 0 1-.5-.5V11l3 3z"/></svg>