<svg xmlns="http://www.w3.org/2000/svg" viewBox="0 0 32 32"><path fill="#FFF" d="M27.379 7.082c-.262.074-.547.16-.857.253-2.246.676-5.637 1.696-10.492 1.696-4.909 0-8.305-1.02-10.552-1.697-.311-.093-.596-.179-.857-.253a.472.472 0 0 0-.411.078.539.539 0 0 0-.21.436V24.45c0 .173.075.33.206.43.068.054.211.136.406.086.358-.092.746-.204 1.173-.327 2.233-.64 5.607-1.609 10.715-1.609 4.797 0 7.46.86 9.406 1.487.526.17 1.01.326 1.482.449a.474.474 0 0 0 .406-.085.54.54 0 0 0 .206-.432V7.595a.538.538 0 0 0-.21-.436.466.466 0 0 0-.411-.077z"/><path opacity=".64" fill="none" stroke="#605E5C" stroke-miterlimit="10" d="M3.5 7.595V24.45c0 .67.607 1.164 1.237 1.001 2.255-.584 5.763-1.92 11.763-1.92s8.51 1.335 10.763 1.92c.63.163 1.237-.331 1.237-1V7.594c0-.68-.621-1.176-1.258-.994-2.094.596-5.742 1.93-11.211 1.93-5.531 0-9.176-1.335-11.273-1.93-.637-.182-1.258.313-1.258.994z"/><path fill="none" stroke="#69AFE5" stroke-linecap="round" stroke-linejoin="round" stroke-miterlimit="10" d="M20.3 16l-6.8-4v8z"/><g fill="#C8C6C4"><circle cx="7" cy="12" r="1"/><circle cx="7" cy="16" r="1"/><circle cx="7" cy="20" r="1"/></g><g fill="#C8C6C4"><circle cx="25" cy="12" r="1"/><circle cx="25" cy="16" r="1"/><circle cx="25" cy="20" r="1"/></g></svg>